<svg width="172" height="71" viewBox="0 0 172 71" fill="none" xmlns="http://www.w3.org/2000/svg"><path d="M12.719 70.047l5.11-11.156 4.968-10.735h-11.19L.86 70.046h11.86zm13.734-52.125L18.391.344h28.547l34.124 69.703H50.453L45.297 58.89l-4.922-10.735-8.813-19.125-5.109-11.11z" fill="#F33361"/><path d="M114.501 47v22.513h-3.628l-10.608-15.335h-.187v15.335H96V47h3.65l10.597 15.346h.198V47h4.056zm10.195 22.843c-1.693 0-3.155-.352-4.386-1.055-1.224-.711-2.166-1.715-2.825-3.012-.66-1.305-.989-2.84-.989-4.606 0-1.737.329-3.262.989-4.573.667-1.32 1.598-2.345 2.792-3.078 1.195-.74 2.598-1.11 4.21-1.11a8.52 8.52 0 012.946.505 6.66 6.66 0 012.463 1.54c.718.695 1.282 1.582 1.693 2.66.41 1.07.615 2.345.615 3.825v1.22h-13.84v-2.682h10.026c-.008-.762-.172-1.44-.495-2.034a3.593 3.593 0 00-1.352-1.418c-.572-.344-1.239-.517-2.001-.517-.813 0-1.528.198-2.143.594a4.083 4.083 0 00-1.44 1.54 4.426 4.426 0 00-.517 2.077v2.341c0 .982.18 1.825.539 2.528a3.842 3.842 0 001.506 1.606c.645.366 1.399.55 2.264.55a4.82 4.82 0 001.572-.243 3.485 3.485 0 001.22-.736 3.07 3.07 0 00.781-1.198l3.715.417a5.783 5.783 0 01-1.341 2.573c-.652.725-1.487 1.29-2.506 1.692-1.019.396-2.184.594-3.496.594zm12.721-.33l-4.771-16.885h4.057l2.968 11.873h.154l3.034-11.873h4.012l3.034 11.807h.165l2.924-11.807h4.067l-4.782 16.885h-4.144l-3.166-11.41h-.231l-3.166 11.41h-4.155zm34.22-12.422l-3.627.396a2.93 2.93 0 00-.539-1.033 2.673 2.673 0 00-1.011-.78c-.425-.199-.946-.297-1.561-.297-.828 0-1.525.18-2.089.538-.557.36-.832.825-.824 1.396-.008.491.172.89.538 1.199.374.307.99.56 1.847.758l2.88.616c1.598.344 2.785.89 3.562 1.638.784.747 1.18 1.725 1.187 2.935-.007 1.062-.319 2-.934 2.814-.609.806-1.455 1.436-2.54 1.89-1.084.455-2.33.682-3.737.682-2.067 0-3.731-.432-4.991-1.297-1.261-.872-2.012-2.085-2.254-3.639l3.881-.373c.176.762.55 1.337 1.121 1.725.572.389 1.316.583 2.232.583.945 0 1.704-.194 2.275-.583.579-.388.869-.868.869-1.44a1.5 1.5 0 00-.561-1.198c-.366-.315-.938-.557-1.715-.725l-2.88-.605c-1.62-.337-2.818-.905-3.595-1.704-.776-.806-1.161-1.825-1.154-3.056-.007-1.04.275-1.942.847-2.704.579-.77 1.381-1.363 2.407-1.78 1.033-.426 2.224-.639 3.573-.639 1.978 0 3.536.422 4.672 1.265 1.143.842 1.85 1.982 2.121 3.418z" fill="#000"/></svg>