<svg width="165" height="56" viewBox="0 0 165 56" fill="none" xmlns="http://www.w3.org/2000/svg">
<path d="M151.806 0.000179188H13.1423C12.6369 0.000179188 12.1375 0.000179188 11.6334 0.00293592C11.2114 0.00569266 10.7927 0.013701 10.3667 0.0204412C9.44115 0.0313328 8.51777 0.112759 7.60459 0.264013C6.6927 0.418559 5.80937 0.709923 4.98448 1.12825C4.1606 1.55012 3.4078 2.09829 2.75339 2.75288C2.09554 3.40563 1.54717 4.16012 1.12937 4.98734C0.710411 5.81291 0.419907 6.69758 0.267886 7.61081C0.11442 8.52288 0.0318381 9.44548 0.0208823 10.3703C0.00809102 10.7929 0.00674022 11.2169 0 11.6396V43.4995C0.00674022 43.9275 0.00809102 44.3421 0.0208823 44.7703C0.0318414 45.695 0.114423 46.6176 0.267886 47.5296C0.419487 48.4434 0.710009 49.3286 1.12937 50.1544C1.54698 50.979 2.09542 51.7304 2.75339 52.3795C3.40532 53.037 4.15861 53.5856 4.98448 54.0042C5.80936 54.4237 6.6926 54.7168 7.60459 54.8737C8.51793 55.0237 9.44121 55.1052 10.3667 55.1174C10.7927 55.1268 11.2114 55.1321 11.6334 55.1321C12.1375 55.1349 12.6369 55.1349 13.1423 55.1349H151.806C152.302 55.1349 152.805 55.1349 153.3 55.1321C153.72 55.1321 154.151 55.1268 154.571 55.1174C155.495 55.1059 156.416 55.0244 157.328 54.8737C158.243 54.7157 159.129 54.4226 159.958 54.0042C160.783 53.5853 161.536 53.0368 162.187 52.3795C162.843 51.7279 163.393 50.977 163.816 50.1544C164.232 49.328 164.52 48.4428 164.669 47.5296C164.823 46.6175 164.908 45.6951 164.925 44.7703C164.93 44.3421 164.93 43.9275 164.93 43.4995C164.941 42.9988 164.941 42.5008 164.941 41.9919V13.1445C164.941 12.6397 164.941 12.139 164.93 11.6396C164.93 11.2169 164.93 10.7929 164.925 10.3702C164.908 9.44534 164.823 8.52295 164.669 7.61076C164.519 6.69806 164.232 5.81345 163.816 4.98728C162.965 3.32921 161.616 1.97955 159.958 1.12813C159.129 0.710821 158.243 0.419534 157.328 0.263889C156.417 0.111969 155.495 0.030514 154.571 0.0202482C154.151 0.0135218 153.72 0.00544455 153.3 0.00275674C152.805 0 152.302 0 151.806 0V0.000179188Z" fill="white"/>
<path fill-rule="evenodd" clip-rule="evenodd" d="M102.936 40.0773C100.683 40.0773 99.0336 38.9628 98.8438 37.2654L96.2216 37.2653C96.3872 40.3613 98.9501 42.3198 102.746 42.3198C106.803 42.3198 109.353 40.3142 109.353 37.1119C109.353 34.6082 107.895 33.1975 104.383 32.367L102.497 31.904C100.291 31.3589 99.389 30.6468 99.389 29.4367C99.389 27.9183 100.801 26.8751 102.864 26.8751C104.928 26.8751 106.34 27.9062 106.495 29.6143H109.081C108.997 26.6611 106.518 24.6326 102.9 24.6326C99.2463 24.6326 96.6726 26.6611 96.6726 29.6143C96.6726 31.9996 98.1318 33.4695 101.275 34.2287L103.493 34.7631C105.711 35.3082 106.648 36.1037 106.648 37.4323C106.648 38.9628 105.095 40.0773 102.936 40.0773ZM58.3107 37.408H51.7863L50.2195 42.0344H47.4561L53.6358 24.9178H56.507L62.6867 42.0344H59.8762L58.3107 37.408ZM52.4639 35.2747H57.6355L55.086 27.7664H55.0146L52.4639 35.2747ZM70.8268 42.164C73.9591 42.164 76.0347 39.6725 76.0347 35.7944C76.0347 31.9272 73.9469 29.4235 70.7796 29.4235C69.1499 29.371 67.6231 30.2186 66.806 31.6297H66.7589V29.5541H64.2795V46.1618H66.841V39.9807H66.9003C67.6827 41.4007 69.2077 42.2487 70.8268 42.164ZM73.4025 35.7948C73.4025 33.2682 72.0968 31.6072 70.1047 31.6072C68.1475 31.6072 66.8311 33.3032 66.8311 35.7948C66.8311 38.3092 68.1475 39.9932 70.1047 39.9932C72.0969 39.9932 73.4025 38.3442 73.4025 35.7948H73.4025ZM84.5584 42.164C87.6907 42.164 89.767 39.6725 89.767 35.7944C89.767 31.9272 87.6786 29.4235 84.5113 29.4235C82.8815 29.371 81.3548 30.2186 80.5377 31.6297H80.4906V29.5541H78.0112V46.1618H80.5727V39.9807H80.632C81.4143 41.4007 82.9394 42.2487 84.5584 42.164ZM87.133 35.7945C87.133 33.268 85.8273 31.6069 83.8351 31.6069C81.878 31.6069 80.5615 33.3029 80.5615 35.7945C80.5615 38.309 81.878 39.9929 83.8351 39.9929C85.8273 39.9929 87.133 38.344 87.133 35.7945ZM114.883 26.6035V29.5568H117.256V31.5853H114.883V38.465C114.883 39.5338 115.358 40.0318 116.401 40.0318C116.683 40.0269 116.964 40.0071 117.244 39.9726V41.989C116.775 42.0766 116.298 42.1163 115.821 42.1074C113.294 42.1074 112.309 41.1584 112.309 38.7382V31.5853H110.495V29.5568H112.309V26.6035H114.883ZM124.55 29.4021C120.944 29.4021 118.632 31.8694 118.632 35.7959C118.632 39.7331 120.921 42.1897 124.55 42.1897C128.181 42.1897 130.47 39.7331 130.47 35.7959C130.47 31.8694 128.169 29.4021 124.55 29.4021ZM127.862 35.7972C127.862 33.1038 126.628 31.5141 124.552 31.5141C122.476 31.5141 121.242 33.1159 121.242 35.7972C121.242 38.5015 122.476 40.0791 124.552 40.0791C126.628 40.0791 127.862 38.5015 127.862 35.7972ZM135.024 29.5544H132.581L132.581 42.0337H135.143V34.6317C135.057 33.8829 135.304 33.1342 135.817 32.5822C136.33 32.0302 137.059 31.73 137.812 31.7606C138.201 31.7492 138.59 31.8015 138.963 31.9154V29.5194C138.675 29.4548 138.38 29.4228 138.085 29.4238C136.677 29.3701 135.424 30.3111 135.083 31.6785H135.024V29.5544ZM150.776 38.3696C150.431 40.635 148.225 42.1897 145.402 42.1897C141.772 42.1897 139.519 39.7574 139.519 35.8551C139.519 31.9408 141.784 29.4021 145.295 29.4021C148.747 29.4021 150.918 31.7739 150.918 35.5576V36.4353H142.104V36.5901C142.022 37.5191 142.343 38.4388 142.985 39.1151C143.627 39.7914 144.529 40.1591 145.461 40.1248C146.704 40.2413 147.876 39.5275 148.343 38.3696L150.776 38.3696ZM148.355 34.6443H142.116C142.114 33.8018 142.449 32.9932 143.045 32.3985C143.642 31.8037 144.452 31.472 145.294 31.477C146.13 31.4591 146.936 31.7906 147.517 32.3919C148.098 32.9931 148.402 33.8095 148.355 34.6443Z" fill="black"/>
<path fill-rule="evenodd" clip-rule="evenodd" d="M81.4541 11.6311H82.679V20.2607H81.4541V11.6311ZM55.0418 13.1626C54.2922 12.371 53.2271 11.9573 52.1396 12.0353H49.1689V20.2598H52.1396C54.5894 20.2598 56.0095 18.7495 56.0095 16.1219C56.1466 15.0403 55.7915 13.9543 55.0418 13.1626ZM52.0009 19.0977H50.4502V13.1986H52.0009C52.7739 13.1557 53.5256 13.4605 54.0505 14.0296C54.5754 14.5988 54.8184 15.3727 54.7132 16.1397C54.8267 16.9099 54.5871 17.6903 54.0609 18.2641C53.5347 18.838 52.778 19.1441 52.0009 19.0977ZM57.4514 17.1558C57.3449 16.0433 57.8784 14.9666 58.828 14.3773C59.7776 13.7881 60.9792 13.7881 61.9288 14.3773C62.8784 14.9666 63.4118 16.0433 63.3054 17.1558C63.4138 18.2695 62.8809 19.3482 61.9304 19.9388C60.98 20.5293 59.7768 20.5293 58.8263 19.9388C57.8759 19.3482 57.3429 18.2695 57.4514 17.1558ZM60.3795 15.0227C61.4402 15.0227 62.0446 15.8095 62.0446 17.1549H62.0446C62.0446 18.5056 61.4402 19.2917 60.3795 19.2917C59.3148 19.2917 58.7158 18.511 58.7158 17.1549C58.7158 15.8095 59.3148 15.0227 60.3795 15.0227ZM71.0864 20.2606H69.8158L68.533 15.6894H68.4361L67.1586 20.2606H65.9001L64.1892 14.0539H65.4316L66.5435 18.79H66.635L67.9111 14.0539H69.0862L70.3623 18.79H70.4592L71.5656 14.0539H72.7906L71.0864 20.2606ZM75.4106 14.0539H74.2315L74.2314 20.2606H75.4564V16.6296C75.4124 16.2166 75.551 15.8049 75.8359 15.5026C76.1208 15.2003 76.5234 15.0374 76.9384 15.0567C77.8443 15.0567 78.2777 15.5528 78.2777 16.5502V20.2606H79.5026V16.2426C79.5924 15.6358 79.4014 15.021 78.9835 14.5719C78.5655 14.1228 77.9661 13.8881 77.3543 13.9341C76.5643 13.8699 75.8204 14.314 75.5021 15.0399H75.4106V14.0539ZM85.7591 14.3751C84.8094 14.9644 84.2759 16.0411 84.3822 17.1536C84.2739 18.2674 84.807 19.3461 85.7575 19.9366C86.708 20.5271 87.9112 20.5271 88.8617 19.9366C89.8122 19.3461 90.3453 18.2674 90.2369 17.1536C90.3433 16.0411 89.8097 14.9644 88.8601 14.3751C87.9104 13.7858 86.7088 13.7858 85.7591 14.3751ZM88.9782 17.1549C88.9782 15.8095 88.3738 15.0227 87.3131 15.0227C86.2484 15.0227 85.6494 15.8095 85.6494 17.1549C85.6494 18.511 86.2484 19.2917 87.3131 19.2917C88.3738 19.2917 88.9782 18.5056 88.9782 17.1549ZM93.8368 16.6542C92.3602 16.7457 91.5283 17.3898 91.5283 18.507C91.5304 19.0368 91.7565 19.5409 92.1506 19.8948C92.5448 20.2487 93.0703 20.4193 93.5972 20.3645C94.3488 20.3993 95.061 20.027 95.4615 19.39H95.5584V20.2623H96.7376V16.0215C96.7376 14.7104 95.86 13.9358 94.3039 13.9358C92.8959 13.9358 91.8931 14.6196 91.7679 15.6857H92.9538C93.0898 15.2469 93.5636 14.9958 94.2474 14.9958C95.0846 14.9958 95.518 15.366 95.518 16.0215V16.5572L93.8368 16.6542ZM95.5169 17.9752V17.4563L94.0012 17.5532C93.1465 17.6104 92.7588 17.9012 92.7588 18.4483C92.7588 19.0069 93.2434 19.332 93.9097 19.332C94.3042 19.372 94.698 19.2501 95.0009 18.9943C95.3039 18.7385 95.4901 18.3708 95.5169 17.9752ZM100.921 13.9511C99.3529 13.9511 98.3447 15.1935 98.3447 17.1547C98.3447 19.1206 99.3422 20.3631 100.921 20.363C101.722 20.3925 102.472 19.9754 102.87 19.2801H102.967V20.2607H104.141V11.6311H102.916V15.04H102.824C102.455 14.3389 101.713 13.9146 100.921 13.9511ZM99.6143 17.1562C99.6143 18.4727 100.235 19.2648 101.273 19.2648C102.305 19.2648 102.943 18.4612 102.943 17.1616C102.943 15.868 102.298 15.053 101.273 15.053C100.242 15.053 99.6143 15.8505 99.6143 17.1562H99.6143ZM110.587 14.3773C109.637 14.9666 109.104 16.0433 109.21 17.1558C109.102 18.2695 109.635 19.3482 110.585 19.9388C111.536 20.5293 112.739 20.5293 113.689 19.9388C114.64 19.3482 115.173 18.2695 115.064 17.1558C115.171 16.0433 114.637 14.9666 113.688 14.3773C112.738 13.7881 111.536 13.7881 110.587 14.3773ZM113.806 17.1549C113.806 15.8095 113.202 15.0227 112.141 15.0227C111.076 15.0227 110.478 15.8095 110.478 17.1549C110.478 18.511 111.077 19.2917 112.141 19.2917C113.202 19.2917 113.806 18.5056 113.806 17.1549ZM117.883 14.0535H116.704V20.2602H117.929V16.6292C117.885 16.2161 118.024 15.8045 118.309 15.5022C118.594 15.1998 118.996 15.037 119.411 15.0563C120.317 15.0563 120.751 15.5523 120.751 16.5498V20.2601H121.975V16.2422C122.065 15.6353 121.874 15.0206 121.456 14.5715C121.038 14.1224 120.439 13.8877 119.827 13.9337C119.037 13.8695 118.293 14.3135 117.975 15.0395H117.883V14.0535ZM128.904 12.509V14.0826H130.249V15.1143H128.904V18.3059C128.904 18.956 129.172 19.2407 129.782 19.2407C129.938 19.2402 130.094 19.2308 130.249 19.2124V20.2327C130.029 20.2721 129.806 20.293 129.582 20.2953C128.22 20.2953 127.678 19.8161 127.678 18.6195V15.1143H126.692V14.0825H127.678V12.509H128.904ZM133.129 11.6311H131.915L131.915 20.2607H133.14V16.6358C133.102 16.2098 133.254 15.7889 133.555 15.4856C133.857 15.1822 134.277 15.0273 134.703 15.0622C135.568 15.0622 136.03 15.5643 136.03 16.5557V20.2607H137.256V16.2535C137.337 15.6497 137.145 15.0413 136.732 14.5938C136.318 14.1464 135.727 13.9065 135.119 13.9396C134.317 13.8745 133.56 14.3192 133.226 15.0515H133.129V11.6311ZM144.4 18.5836C144.057 19.7544 142.924 20.5108 141.711 20.3792C140.883 20.4011 140.088 20.058 139.536 19.4411C138.984 18.8242 138.731 17.9958 138.844 17.1756C138.734 16.3532 138.986 15.5235 139.535 14.9013C140.084 14.2792 140.876 13.9259 141.706 13.933C143.433 13.933 144.474 15.1128 144.474 17.0619V17.4893H140.092V17.5579C140.053 18.0185 140.21 18.4741 140.525 18.8126C140.84 19.1511 141.282 19.3412 141.745 19.336C142.344 19.408 142.927 19.1107 143.221 18.5836L144.4 18.5836ZM143.227 16.585H140.092C140.086 16.157 140.254 15.7449 140.556 15.4422C140.859 15.1395 141.271 14.9718 141.699 14.9772C142.121 14.9675 142.528 15.1366 142.819 15.4428C143.11 15.749 143.258 16.1638 143.227 16.585Z" fill="black"/>
<path fill-rule="evenodd" clip-rule="evenodd" d="M32.137 10.8181C32.2758 12.6302 31.7027 14.4251 30.5395 15.8214C29.411 17.2251 27.701 18.0336 25.9001 18.015C25.7855 16.2551 26.3753 14.5218 27.5394 13.1969C28.7183 11.8541 30.3599 11.0048 32.137 10.8181ZM37.8338 21.4657C35.7621 22.7393 34.4873 24.9854 34.4559 27.4171C34.4589 30.1682 36.1065 32.651 38.6403 33.7227C38.153 35.3058 37.4184 36.8018 36.4638 38.1554C35.1818 40.0731 33.8377 41.9466 31.7043 41.9812C30.6897 42.0047 30.0048 41.7129 29.2911 41.4089C28.5467 41.0918 27.771 40.7613 26.5571 40.7613C25.2698 40.7613 24.4593 41.1024 23.6777 41.4313C23.0022 41.7156 22.3482 41.9909 21.4266 42.0291C19.3948 42.1043 17.8421 39.9823 16.5135 38.0826C13.8581 34.203 11.7904 27.1494 14.5624 22.3499C15.8642 20.0107 18.2981 18.5263 20.9737 18.4399C22.1261 18.4162 23.2318 18.8603 24.2012 19.2497C24.9426 19.5475 25.6042 19.8133 26.146 19.8133C26.6223 19.8133 27.2655 19.558 28.0151 19.2605C29.1959 18.7918 30.6407 18.2184 32.113 18.373C34.4008 18.4446 36.5209 19.5907 37.8338 21.4657Z" fill="black"/>
</svg>
