<svg xmlns="http://www.w3.org/2000/svg" width="72" height="72" viewBox="0 0 72 72">
  <g fill="none" fill-rule="evenodd">
    <path fill="#FF5607" d="M8,72 L64,72 C68.418278,72 72,68.418278 72,64 L72,8 C72,3.581722 68.418278,-8.11624501e-16 64,0 L8,0 C3.581722,8.11624501e-16 -5.41083001e-16,3.581722 0,8 L0,64 C5.41083001e-16,68.418278 3.581722,72 8,72 Z"/>
    <path fill="#FFF" d="M44.5128286,47.3028125 L28.4405934,47.3028125 C26.9317483,47.3028125 25.7094285,46.0695312 25.7094285,44.5971875 C25.7094285,43.1079687 26.9317483,41.8901563 28.4405934,41.8901563 L44.5128286,41.8901563 C46.0061477,41.8901563 47.2284675,43.1079687 47.2284675,44.5971875 C47.2284675,46.0695312 46.0061477,47.3028125 44.5128286,47.3028125 M28.4405934,25.6226563 L36.3489743,25.6226563 C37.8578195,25.6226563 39.0801393,26.8404688 39.0801393,28.3282813 C39.0801393,29.8175 37.8578195,31.049375 36.3489743,31.049375 L28.4405934,31.049375 C26.9317483,31.049375 25.7094285,29.8175 25.7094285,28.3282813 C25.7094285,26.8404688 26.9317483,25.6226563 28.4405934,25.6226563 M57.8524873,31.4107812 C56.9025783,31.004375 52.8277084,31.4557812 51.6957217,30.4334375 C50.8968383,29.6965625 50.846026,28.3634375 50.5340945,26.5845312 C50.0118562,23.6060937 49.7944922,22.9310938 49.2510821,21.7582812 C47.2750455,17.5789062 42.5382034,14 38.2346779,14 L28.2599272,14 C20.4122389,14 14,20.4054687 14,28.2228125 L14,44.8067188 C14,52.61 20.4122389,59 28.2599272,59 L44.6483282,59 C52.4960166,59 58.8645003,52.61 58.9096669,44.8067188 L59,33.3204688 C59,33.3204688 59,31.9001563 57.8524873,31.4107812"/>
  </g>
</svg>
