<svg width="72" height="72" viewBox="0 0 72 72" fill="none" xmlns="http://www.w3.org/2000/svg">
<path fill-rule="evenodd" clip-rule="evenodd" d="M70.56 36.8182C70.56 34.2655 70.3309 31.811 69.9055 29.4546H36V43.38H55.3745C54.54 47.88 52.0036 51.6928 48.1909 54.2455V63.2782H59.8255C66.6327 57.011 70.56 47.7819 70.56 36.8182Z" fill="#4285F4"/>
<path fill-rule="evenodd" clip-rule="evenodd" d="M36 72.0001C45.72 72.0001 53.8691 68.7764 59.8255 63.2783L48.1909 54.2455C44.9673 56.4055 40.8436 57.6819 36 57.6819C26.6236 57.6819 18.6873 51.3492 15.8564 42.8401H3.8291V52.1674C9.75274 63.9328 21.9273 72.0001 36 72.0001Z" fill="#34A853"/>
<path fill-rule="evenodd" clip-rule="evenodd" d="M15.8564 42.84C15.1364 40.68 14.7273 38.3728 14.7273 36C14.7273 33.6273 15.1364 31.32 15.8564 29.16V19.8328H3.82909C1.39091 24.6928 0 30.1909 0 36C0 41.8091 1.39091 47.3073 3.82909 52.1673L15.8564 42.84Z" fill="#FBBC05"/>
<path fill-rule="evenodd" clip-rule="evenodd" d="M36 14.3182C41.2855 14.3182 46.0309 16.1345 49.7618 19.7018L60.0873 9.37636C53.8527 3.56727 45.7036 0 36 0C21.9273 0 9.75274 8.06727 3.8291 19.8327L15.8564 29.16C18.6873 20.6509 26.6236 14.3182 36 14.3182Z" fill="#EA4335"/>
</svg>
