<svg xmlns="http://www.w3.org/2000/svg" width="72" height="72" viewBox="0 0 72 72">
  <g fill="none" fill-rule="evenodd">
    <path fill="#007FFF" d="M8,72 L64,72 C68.418278,72 72,68.418278 72,64 L72,8 C72,3.581722 68.418278,-8.11624501e-16 64,0 L8,0 C3.581722,8.11624501e-16 -5.41083001e-16,3.581722 0,8 L0,64 C5.41083001e-16,68.418278 3.581722,72 8,72 Z"/>
    <path fill="#FFF" d="M36,12 C22.7451429,12 12,21.9491852 12,34.2222222 C12,41.2155556 15.4899876,47.4534815 20.9440994,51.526963 L20.9440994,60 L29.1158758,55.5151111 C31.2967453,56.1186667 33.6071553,56.4444444 36,56.4444444 C49.2548571,56.4444444 60,46.4952593 60,34.2222222 C60,21.9491852 49.2548571,12 36,12 L36,12 Z M38.3850932,41.9259259 L32.2732919,35.4074074 L20.3478261,41.9259259 L33.4658385,28 L39.7267081,34.5185185 L51.5031056,28 L38.3850932,41.9259259 L38.3850932,41.9259259 Z"/>
  </g>
</svg>
