<svg xmlns="http://www.w3.org/2000/svg" width="72" height="72" viewBox="0 0 72 72">
  <g fill="none" fill-rule="evenodd">
    <path fill="#CC2127" d="M8,72 L64,72 C68.418278,72 72,68.418278 72,64 L72,8 C72,3.581722 68.418278,-8.11624501e-16 64,0 L8,0 C3.581722,8.11624501e-16 -5.41083001e-16,3.581722 0,8 L0,64 C5.41083001e-16,68.418278 3.581722,72 8,72 Z"/>
    <path fill="#FFF" d="M39.2423809,46.6909141 C36.2714276,46.6909141 33.4767041,45.0799632 32.519137,43.2533854 C32.519137,43.2533854 30.9205926,49.6050009 30.5837286,50.8315736 C29.3937878,55.1644222 25.8879069,59.5003958 25.6149847,59.8535238 C25.4262785,60.1019633 25.0067581,60.0238377 24.9630905,59.698835 C24.8866723,59.1457054 23.993047,53.6784723 25.0441874,49.2190602 C25.5713172,46.979979 28.5843785,34.1954975 28.5843785,34.1954975 C28.5843785,34.1954975 27.7047891,32.4345453 27.7047891,29.8329611 C27.7047891,25.7469896 30.0690753,22.6969641 33.0135161,22.6969641 C35.5150432,22.6969641 36.7252583,24.5797923 36.7252583,26.8360611 C36.7252583,29.3579571 35.1220352,33.125176 34.2939112,36.6205177 C33.6061472,39.545542 35.761453,41.9299369 38.6372734,41.9299369 C43.8508675,41.9299369 47.3629865,35.220506 47.3629865,27.2704398 C47.3629865,21.2297644 43.3034635,16.7062892 35.9127299,16.7062892 C27.5675482,16.7062892 22.3633115,22.9422787 22.3633115,29.9110868 C22.3633115,32.3111068 23.0713497,34.0079959 24.1801936,35.3173818 C24.6901683,35.9205118 24.7603483,36.1627014 24.5763207,36.8533321 C24.442199,37.3611488 24.1412048,38.583034 24.0148808,39.0674131 C23.8308532,39.7658564 23.2662941,40.0158585 22.6362337,39.7564813 C18.7950484,38.1861557 17,33.965808 17,29.223581 C17,21.3922658 23.5953603,12 36.6691143,12 C47.1758399,12 54.0909091,19.6156885 54.0909091,27.7938816 C54.0909091,38.6111593 48.0897394,46.6909141 39.2423809,46.6909141"/>
  </g>
</svg>
