<svg xmlns="http://www.w3.org/2000/svg" width="72" height="72" viewBox="0 0 72 72">
  <g fill="none" fill-rule="evenodd">
    <path fill="#77D4B6" d="M8,72 L64,72 C68.418278,72 72,68.418278 72,64 L72,8 C72,3.581722 68.418278,-8.11624501e-16 64,0 L8,0 C3.581722,8.11624501e-16 -5.41083001e-16,3.581722 0,8 L0,64 C5.41083001e-16,68.418278 3.581722,72 8,72 Z"/>
    <path fill="#FFF" d="M57.9906725,29.402355 C53.0436637,12.9083256 45.8961509,9.06081869 29.4021215,14.0093275 C12.9095921,18.9563363 9.06058525,26.1038491 14.0090941,42.5978785 C18.9576029,59.0904079 26.1051156,62.9394147 42.597645,57.9909059 C59.0916744,53.0423971 62.9391813,45.8948844 57.9906725,29.402355 M49.6491576,40.109374 L46.5396521,41.1503759 L47.616654,44.3693816 C48.0531548,45.671384 47.3511535,47.0813865 46.0476512,47.5178873 C45.7641507,47.6138874 45.4761502,47.6543875 45.1941497,47.6468875 C44.1771479,47.6198874 43.2396462,46.9688863 42.8991456,45.9488845 L41.8206437,42.7313787 L35.4081322,44.8793825 L36.4851341,48.0968883 C36.9216349,49.4003906 36.2196337,50.8103931 34.9161313,51.2468939 C34.6326308,51.3413941 34.3446303,51.3818941 34.0626298,51.3743941 C33.045628,51.3488941 32.1081263,50.6963929 31.7676257,49.6778911 L30.6891238,46.4588854 L27.5796183,47.5013872 C27.2961178,47.5958874 27.0066172,47.6363875 26.7246167,47.6288875 C25.7091149,47.6033874 24.7716133,46.9508862 24.4296127,45.9308844 C23.9931119,44.6288821 24.6951131,43.2188796 25.9986155,42.7823788 L29.109621,41.739877 L27.0411173,35.5673659 L23.9316118,36.6098678 C23.6481113,36.704368 23.3601107,36.744868 23.0766102,36.737368 C22.0611084,36.711868 21.1236068,36.0593668 20.7816062,35.039365 C20.3451054,33.7373627 21.0486066,32.3273602 22.3506089,31.8908594 L25.4616145,30.8483575 L24.3831126,27.6308518 C23.9466118,26.3273495 24.648613,24.917347 25.9521154,24.4823462 C27.2556177,24.0458454 28.6656202,24.7478467 29.102121,26.051349 L30.1791229,29.2688547 L36.5931343,27.1208509 L35.5146324,23.9033452 C35.0781316,22.5998428 35.7816329,21.1898403 37.0836352,20.7533395 C38.3871375,20.3168388 39.79714,21.02034 40.2336408,22.3223423 L41.3106427,25.5413481 L44.4216483,24.4988462 C45.7251506,24.0623454 47.1336531,24.7658467 47.5701539,26.067849 C48.0066547,27.3713513 47.3046534,28.7813539 46.0011511,29.2178546 L42.8916456,30.2588565 L44.9586493,36.4328675 L48.0696548,35.3903656 C49.3716571,34.9553649 50.7816596,35.6573661 51.2181604,36.9593684 C51.6546612,38.2628708 50.9526599,39.6728733 49.6491576,40.109374 Z M31.7596757,33.9874131 L33.8266794,40.1599241 L40.2406908,38.0119203 L38.1736872,31.8394093 L31.7596757,33.9874131 Z"/>
  </g>
</svg>
