<svg xmlns="http://www.w3.org/2000/svg" width="72" height="72" viewBox="0 0 72 72">
  <g fill="none" fill-rule="evenodd">
    <path fill="#00B2EA" d="M8,72 L64,72 C68.418278,72 72,68.418278 72,64 L72,8 C72,3.581722 68.418278,-8.11624501e-16 64,0 L8,0 C3.581722,8.11624501e-16 -5.41083001e-16,3.581722 0,8 L0,64 C5.41083001e-16,68.418278 3.581722,72 8,72 Z"/>
    <path fill="#FFF" d="M59.9758507,25.4793287 C59.7670024,30.1000139 56.4988081,36.4164401 50.193846,44.4314012 C43.6687465,52.8123295 38.13991,57 33.6214479,57 C30.8273957,57 28.4595071,54.4521978 26.5262488,49.3398315 C25.2308247,44.6493054 23.9438673,39.9587792 22.6512654,35.2822212 C21.2119052,30.1670613 19.6709431,27.6108782 18.0227346,27.6108782 C17.6643057,27.6108782 16.4140379,28.3567808 14.2578199,29.8513796 L12,26.971134 C14.3650664,24.9178065 16.6962654,22.8560982 18.9964194,20.7999771 C22.1460782,18.1013182 24.5139668,16.6849413 26.0944408,16.5368782 C29.8198436,16.179292 32.1171754,18.7019514 32.9836138,24.0964756 C33.9064976,29.9212207 34.5556209,33.5417817 34.9140498,34.9609523 C35.9921588,39.7883669 37.1718697,42.196487 38.4644716,42.196487 C39.4663792,42.196487 40.973474,40.6376343 42.9829337,37.5171354 C44.9923934,34.3910491 46.0620356,32.0164528 46.2087939,30.3793781 C46.4966659,27.6807192 45.4213792,26.3397707 42.9829337,26.3397707 C41.8342678,26.3397707 40.6489123,26.580024 39.4325119,27.0828797 C41.8032228,19.486965 46.3188626,15.7937693 52.9907204,16.0088798 C57.9325237,16.1457683 60.2665451,19.3081719 59.9758507,25.4793287"/>
  </g>
</svg>
