<svg xmlns="http://www.w3.org/2000/svg" width="72" height="72" viewBox="0 0 72 72">
  <g fill="none" fill-rule="evenodd">
    <path fill="#3E6FA1" d="M8,72 L64,72 C68.418278,72 72,68.418278 72,64 L72,8 C72,3.581722 68.418278,-8.11624501e-16 64,0 L8,0 C3.581722,8.11624501e-16 -5.41083001e-16,3.581722 0,8 L0,64 C5.41083001e-16,68.418278 3.581722,72 8,72 Z"/>
    <path fill="#FFF" d="M38.8780564,44.394515 C38.9709596,42.9649666 39.6154757,40.7399343 41.2261854,41.9534827 C42.1993467,42.6885795 42.9716048,43.7534827 43.8460564,44.6883214 C44.6996048,45.598773 45.7180564,46.3942569 47.6156048,46.3454827 C48.7408951,46.3164504 51.972766,46.4232892 52.8147015,46.1167085 C55.3590886,45.1934827 50.8509596,40.974515 49.7500564,40.0303859 C49.2867015,39.6332246 48.7676048,39.0676762 48.3704435,38.6472892 C47.8792177,38.1281924 47.6434757,37.6021279 48.0336693,36.7880633 L49.7396048,34.3888375 C50.244766,33.8372246 52.1132822,31.1650956 52.5650241,30.4334827 C53.2153467,29.3790311 54.5496693,27.3061279 52.8297983,26.9739988 C51.8624435,26.7870311 48.7223144,26.9612246 47.5273467,26.9693537 C45.1734112,26.9844504 45.6518628,26.7243214 44.4905725,29.4057408 C43.7171531,31.1894827 41.3295402,35.3933537 40.0637338,35.8729666 C37.716766,36.762515 39.552766,28.2502569 38.5633467,26.7777408 C37.9629596,25.8847085 35.180508,25.9961924 33.8787015,26.0136117 C32.3667015,26.0321924 30.276379,26.1123214 29.8350886,27.3595472 C29.9697983,27.474515 29.8223144,27.3967085 30.0836048,27.5035472 C30.2717338,27.5801924 30.5655402,27.5976117 30.8848951,27.7683214 C31.1682499,27.9181279 31.4260564,28.1817408 31.5735402,28.418644 C32.2865725,29.5590311 32.200637,34.3632892 31.6107015,35.5280633 C30.5063144,37.7043214 27.2802499,31.5901279 26.7274757,30.5008375 C25.9377983,28.9458698 25.6277338,27.4338698 24.7335402,27.0471601 C24.0855402,26.7684504 20.412379,26.9240633 19.4241209,26.9403214 C18.5194757,26.9542569 17.7390886,27.0970956 18.0828306,28.1689666 C18.2558628,28.7089666 18.6669596,29.4696117 18.9154757,30.0142569 C20.4472177,33.3761924 22.8417983,37.5034182 24.9518628,40.2998053 C27.3336693,43.4550311 30.8547015,46.2502569 35.3059273,46.2862569 C38.5029596,46.3118053 38.744508,46.4534827 38.8780564,44.394515"/>
  </g>
</svg>
