<svg xmlns="http://www.w3.org/2000/svg" width="72" height="72" viewBox="0 0 72 72">
  <g fill="none" fill-rule="evenodd">
    <path fill="#D32200" d="M8,72 L64,72 C68.418278,72 72,68.418278 72,64 L72,8 C72,3.581722 68.418278,-8.11624501e-16 64,0 L8,0 C3.581722,8.11624501e-16 -5.41083001e-16,3.581722 0,8 L0,64 C5.41083001e-16,68.418278 3.581722,72 8,72 Z"/>
    <path fill="#FFF" d="M18.916951,35.1085217 C19.2778875,34.5310279 19.8034353,34.2310311 20.3909011,34.2535308 C20.7760007,34.2580308 21.1173048,34.3840294 28.7377476,37.5774955 C28.7437884,37.5774955 30.9637747,38.4984857 30.9637747,38.4984857 C31.7687085,38.8044825 32.2580116,39.6549734 32.2081752,40.6149632 C32.1553184,41.5539533 31.6267502,42.2889455 30.8414489,42.4899433 C30.8278572,42.4974432 27.6760807,43.5174324 27.6760807,43.5174324 C20.584206,45.8349078 20.3501258,45.9009071 19.9725771,45.8799073 C19.3836011,45.8604075 18.8671145,45.5064113 18.560545,44.9139176 C18.3385464,44.4849221 18.1845065,43.7664298 18.0908744,42.9039389 C17.8265903,40.2924667 18.149772,36.3580085 18.916951,35.1085217 Z M35.9652378,58.9038189 C35.7598513,59.4678129 35.2826297,59.8443089 34.6226746,59.9673076 C32.7273802,60.2958041 26.7892943,58.0758277 25.5524448,56.5788436 C25.3017524,56.2698469 25.1537534,55.9338505 25.1220393,55.5978541 C25.0933456,55.3623566 25.1265698,55.128359 25.2051,54.9033614 C25.3364869,54.5253655 25.5554652,54.2313686 30.8970241,47.8609363 C30.9030649,47.8609363 32.4570553,45.9859562 32.4570553,45.9859562 C32.9886439,45.3109633 33.935536,45.0979656 34.8159795,45.441462 C35.6737702,45.7789584 36.1932772,46.5244505 36.1434407,47.3419418 C36.1419305,47.3779414 36.1238082,50.7214059 36.1238082,50.7214059 C36.1026655,58.2918254 36.0890737,58.5423228 35.9652378,58.9038189 Z M48.0066248,56.2695469 C47.3859347,56.5245442 46.790918,56.4630449 46.3227576,56.0880488 C46.0192085,55.8480514 45.6990472,55.3575566 41.4901343,48.4141304 L40.2381829,46.3456524 C39.7594511,45.6031602 39.8530832,44.6266706 40.4511203,43.8841785 C41.0280147,43.1566862 41.8888258,42.8851891 42.6393926,43.180686 C42.6801678,43.2001858 45.7881487,44.2441747 45.7881487,44.2441747 C52.8739826,46.6066496 53.1065526,46.6966486 53.4055711,46.9261462 C53.8646703,47.2966423 54.071567,47.8801361 53.9779349,48.5551289 C53.7030795,50.4976082 49.7962056,55.5450546 48.0066248,56.2695469 Z M44.3474228,38.3978368 C43.0546961,38.7098335 42.3433944,38.8853316 41.9462132,39.03983 C41.9552743,39.0278301 41.9884986,38.9708307 41.9884986,38.9708307 C41.1835648,39.1973283 40.3046314,38.8043325 39.7851244,37.9973411 C39.28525,37.2173493 39.2897805,36.305359 39.804757,35.6723658 C39.8274099,35.646866 41.7770713,32.9483947 41.7770713,32.9483947 C46.0886774,26.9574583 46.3197372,26.6469616 46.6308374,26.4399638 C47.1292016,26.0994675 47.7362999,26.0784677 48.3403778,26.3739645 C50.0468979,27.2214555 53.5143051,32.4504 53.7212018,34.4573787 C53.7242222,34.4828784 53.7212018,34.5038782 53.7212018,34.5263779 C53.7619771,35.2073707 53.5173255,35.7668647 53.0310428,36.0983612 C52.7123917,36.309859 52.4012916,36.4163578 44.3474228,38.3978368 Z M36.2586686,31.6407086 C36.3915657,34.4066792 35.2241852,34.7741753 34.8421059,34.895674 C34.4585164,35.0171727 33.2850951,35.3846688 31.8443693,33.013194 C31.8443693,33.013194 22.1051232,17.4493594 21.8770837,16.9693645 C21.7366356,16.4308702 21.9118182,15.8188767 22.3784684,15.3238819 C23.8358064,13.7968982 31.6933498,11.557422 33.7472147,12.0764164 C34.4192514,12.2489146 34.8828812,12.68241 35.0490026,13.2869036 C35.1622672,13.9573965 36.1212409,28.399243 36.2586686,31.6407086 Z"/>
  </g>
</svg>
