<svg width="165" height="56" viewBox="0 0 165 56" fill="none" xmlns="http://www.w3.org/2000/svg">
<path d="M151.865 0.000179188H13.2009C12.6954 0.000179188 12.1961 0.000179188 11.692 0.00293592C11.27 0.00569266 10.8513 0.013701 10.4253 0.0204412C9.49975 0.0313328 8.57637 0.112759 7.66319 0.264013C6.75129 0.418559 5.86796 0.709923 5.04308 1.12825C4.2192 1.55012 3.4664 2.09829 2.81198 2.75288C2.15413 3.40563 1.60576 4.16012 1.18796 4.98734C0.769005 5.81291 0.478501 6.69758 0.32648 7.61081C0.173013 8.52288 0.0904318 9.44548 0.079476 10.3703C0.0666848 10.7929 0.065334 11.2169 0.0585938 11.6396V43.4995C0.065334 43.9275 0.0666848 44.3421 0.079476 44.7703C0.0904352 45.695 0.173017 46.6176 0.32648 47.5296C0.478081 48.4434 0.768602 49.3286 1.18796 50.1544C1.60557 50.979 2.15402 51.7304 2.81198 52.3795C3.46391 53.037 4.2172 53.5856 5.04308 54.0042C5.86796 54.4237 6.75119 54.7168 7.66319 54.8737C8.57652 55.0237 9.49981 55.1052 10.4253 55.1174C10.8513 55.1268 11.27 55.1321 11.692 55.1321C12.196 55.1349 12.6955 55.1349 13.2009 55.1349H151.865C152.36 55.1349 152.864 55.1349 153.359 55.1321C153.779 55.1321 154.21 55.1268 154.63 55.1174C155.553 55.1059 156.475 55.0244 157.386 54.8737C158.301 54.7157 159.188 54.4226 160.017 54.0042C160.842 53.5853 161.594 53.0368 162.246 52.3795C162.902 51.7279 163.452 50.977 163.874 50.1544C164.291 49.328 164.578 48.4428 164.728 47.5296C164.881 46.6175 164.967 45.6951 164.984 44.7703C164.989 44.3421 164.989 43.9275 164.989 43.4995C165 42.9988 165 42.5008 165 41.9919V13.1445C165 12.6397 165 12.139 164.989 11.6396C164.989 11.2169 164.989 10.7929 164.984 10.3702C164.967 9.44534 164.881 8.52295 164.728 7.61076C164.578 6.69806 164.29 5.81345 163.874 4.98728C163.024 3.32921 161.674 1.97955 160.017 1.12813C159.188 0.710821 158.301 0.419534 157.386 0.263889C156.475 0.111969 155.554 0.030514 154.63 0.0202482C154.21 0.0135218 153.779 0.00544455 153.359 0.00275674C152.864 0 152.36 0 151.865 0V0.000179188Z" fill="white"/>
<path fill-rule="evenodd" clip-rule="evenodd" d="M57.2416 31.6094V33.8086H62.5197C62.437 34.8444 62.0064 35.8218 61.298 36.582C60.2301 37.6697 58.7524 38.2555 57.2294 38.1948C53.9905 38.1948 51.3648 35.5691 51.3648 32.3302C51.3648 29.0913 53.9905 26.4657 57.2294 26.4657C58.7173 26.4414 60.1541 27.0082 61.2247 28.0418L62.7763 26.4901C61.3162 25.0116 59.3195 24.1873 57.2416 24.2054C54.2836 24.0902 51.4997 25.6027 49.9865 28.1469C48.4733 30.6911 48.4733 33.8594 49.9865 36.4036C51.4997 38.9478 54.2836 40.4603 57.2416 40.3451C59.3575 40.4408 61.4113 39.6166 62.8741 38.0848C64.1541 36.6785 64.8375 34.8297 64.7801 32.9289C64.784 32.4658 64.7431 32.0035 64.6579 31.5483L57.2416 31.6094ZM70.7897 30.0088C67.9236 30.0155 65.6049 32.3433 65.6094 35.2095C65.6139 38.0757 67.9398 40.3962 70.806 40.3939C73.6722 40.3917 75.9946 38.0675 75.9946 35.2013C76.0147 33.8139 75.4707 32.4776 74.4872 31.4987C73.5037 30.5198 72.1649 29.9821 70.7775 30.0088H70.7897ZM76.9961 35.2176C76.9871 32.353 79.2997 30.0222 82.1642 30.0088C83.5516 29.9821 84.8904 30.5198 85.8739 31.4987C86.8574 32.4776 87.4014 33.8139 87.3813 35.2013C87.3812 38.066 85.0614 40.3894 82.1968 40.3939C79.3322 40.3983 77.0051 38.0821 76.9961 35.2176ZM79.1013 36.5696C79.6593 37.7375 80.8744 38.4456 82.1656 38.3553C82.976 38.3365 83.7444 37.9912 84.2965 37.3977C84.8486 36.8041 85.1376 36.0128 85.0978 35.2031C85.0947 33.9088 84.3007 32.748 83.0956 32.2758C81.8905 31.8037 80.5192 32.1161 79.6376 33.0638C78.7561 34.0115 78.5434 35.4017 79.1013 36.5696ZM67.7183 36.5781C68.2801 37.7452 69.4988 38.4498 70.7906 38.3544H70.7784C71.5888 38.3356 72.3573 37.9903 72.9094 37.3968C73.4615 36.8033 73.7505 36.0119 73.7107 35.2022C73.7072 33.9069 72.9116 32.7456 71.705 32.2745C70.4983 31.8033 69.1263 32.1184 68.246 33.0686C67.3658 34.0189 67.1564 35.4109 67.7183 36.5781ZM108.151 30.0104C110.177 30.085 111.946 31.4022 112.598 33.3214L112.855 33.8712L105.903 36.7424C106.339 37.7347 107.337 38.3598 108.42 38.3185C109.466 38.3212 110.436 37.7735 110.973 36.8768L112.745 38.0986C111.781 39.5421 110.156 40.4049 108.42 40.3955C107.04 40.4158 105.711 39.874 104.739 38.8947C103.766 37.9153 103.234 36.5827 103.264 35.2029C103.18 33.8547 103.657 32.5317 104.583 31.548C105.509 30.5643 106.8 30.0077 108.151 30.0104ZM105.51 35.0569C105.46 34.2935 105.719 33.542 106.23 32.972C106.74 32.402 107.458 32.0613 108.222 32.0268C109.028 31.9738 109.788 32.4064 110.153 33.1265L105.51 35.0569ZM102.152 40.0902H99.8674V24.8179H102.152V40.0902ZM96.13 31.1706H96.0445C95.348 30.3919 94.3524 29.9475 93.3077 29.9488C90.5344 30.0833 88.355 32.371 88.355 35.1475C88.355 37.9241 90.5344 40.2117 93.3077 40.3462C94.3558 40.3639 95.3579 39.9165 96.0445 39.1244H96.1178V39.8697C96.1178 41.8612 95.0548 42.9242 93.3443 42.9242C92.1791 42.8969 91.146 42.168 90.7297 41.0793L88.7382 41.9101C89.5051 43.7756 91.3275 44.9888 93.3443 44.9768C96.0201 44.9768 98.2315 43.4007 98.2315 39.5643V30.3154H96.13V31.1706ZM93.5108 38.3547L93.5146 38.3551H93.5023L93.5108 38.3547ZM95.5696 37.3749C95.0452 37.9683 94.3017 38.322 93.5108 38.3547C91.879 38.209 90.6279 36.8416 90.6279 35.2028C90.6279 33.5628 91.8809 32.1946 93.5146 32.0506C94.304 32.0911 95.0436 32.4487 95.5658 33.0421C96.0879 33.6356 96.3483 34.4147 96.288 35.2028C96.3554 35.9946 96.0958 36.7795 95.5696 37.3749ZM123.302 24.8156H117.841V40.088H120.125V34.2967H123.314C125.089 34.4242 126.787 33.5496 127.713 32.0302C128.639 30.5109 128.639 28.6014 127.713 27.0821C126.787 25.5627 125.089 24.6881 123.314 24.8156H123.302ZM120.114 32.1469H123.303L123.351 32.1835C124.799 32.1835 125.972 31.0102 125.972 29.5628C125.972 28.1154 124.799 26.9421 123.351 26.9421H120.114V32.1469ZM137.39 29.9498C135.69 29.8482 134.092 30.7648 133.321 32.2834L135.349 33.1264C135.758 32.3734 136.573 31.9326 137.427 32.0024C138.012 31.9339 138.601 32.1037 139.061 32.4736C139.52 32.8435 139.812 33.3825 139.87 33.9694V34.1283C139.136 33.7398 138.318 33.5383 137.488 33.5418C135.301 33.5418 133.089 34.7636 133.089 36.975C133.133 37.9277 133.56 38.8222 134.273 39.455C134.987 40.0879 135.926 40.4052 136.877 40.335C138.049 40.4191 139.173 39.8569 139.809 38.8688H139.882V40.0906H142.082V34.2138C142.082 31.5381 140.053 29.9864 137.451 29.9864L137.39 29.9498ZM135.328 37.0227C135.328 37.939 136.367 38.3178 137.112 38.3178L137.173 38.3544C138.549 38.3209 139.691 37.2786 139.849 35.9109C139.215 35.557 138.497 35.3798 137.772 35.3977C136.623 35.3977 135.328 35.8009 135.328 37.0227ZM150.098 30.3164L147.483 36.9385H147.41L144.697 30.3164H142.254L146.322 39.5775L144.001 44.7213H146.384L152.639 30.3164H150.098ZM131.844 40.0902H129.559V24.8179H131.844V40.0902Z" fill="black"/>
<path fill-rule="evenodd" clip-rule="evenodd" d="M83.4678 12.9297C82.0264 14.4554 82.0264 16.8409 83.4678 18.3666C84.9547 19.8453 87.3567 19.8453 88.8436 18.3666C90.2911 16.8433 90.2911 14.4529 88.8436 12.9297C88.1325 12.2134 87.165 11.8105 86.1557 11.8105C85.1464 11.8105 84.1788 12.2134 83.4678 12.9297ZM55.9323 18.3903C56.5594 17.7355 56.8906 16.8523 56.8487 15.9467C56.8487 15.7623 56.8324 15.5783 56.7998 15.3969H53.2444V16.2766H55.8957C55.8776 16.8307 55.6607 17.3597 55.2848 17.7671C54.4474 18.5766 53.2052 18.8028 52.1362 18.3405C51.0671 17.8781 50.3813 16.8181 50.3976 15.6535C50.371 14.8828 50.6596 14.1345 51.1967 13.5812C51.7339 13.0279 52.4733 12.7174 53.2444 12.7212C54.0115 12.6793 54.7537 13.0006 55.2481 13.5886L55.8957 12.9411C55.5829 12.5813 55.1893 12.3008 54.7472 12.1225C54.2723 11.9193 53.7609 11.8153 53.2444 11.8171C52.231 11.7945 51.2535 12.1925 50.5443 12.9167C49.4526 14.0154 49.126 15.6615 49.7155 17.0938C50.305 18.5261 51.6956 19.4655 53.2444 19.4777C54.2542 19.5136 55.2316 19.1182 55.9323 18.3903ZM59.146 12.8936H62.4448V11.9895H58.1686V19.3202H62.4448V18.4161H59.146V16.0947H62.1516V15.215H59.146V12.8936ZM66.4506 19.3202H65.5098V12.8936H63.4572V11.9895H68.5521V12.8936H66.4506V19.3202ZM72.1445 11.9893V19.32H73.0853V11.9893H72.1445ZM77.2668 19.32H76.326V12.8934H74.2734V11.9893H79.3072V12.8934H77.2668V19.32ZM84.1657 17.7543C85.2669 18.851 87.0475 18.851 88.1487 17.7543C89.2302 16.5621 89.2302 14.7436 88.1487 13.5514C87.0475 12.4547 85.2669 12.4547 84.1657 13.5514C83.0841 14.7436 83.0841 16.5621 84.1657 17.7543ZM91.2578 11.9893V19.32H92.2108V13.3454L95.9373 19.32H96.9147V11.9893H95.9739V17.695L92.4063 11.9893H91.2578Z" fill="black"/>
<path d="M83.4678 18.3666L83.3789 18.4506L83.3816 18.4532L83.4678 18.3666ZM83.4678 12.9297L83.381 12.8436L83.3789 12.8458L83.4678 12.9297ZM88.8436 18.3666L88.9298 18.4533L88.9322 18.4508L88.8436 18.3666ZM88.8436 12.9297L88.9322 12.8455L88.9303 12.8436L88.8436 12.9297ZM56.8487 15.9467L56.7264 15.9466L56.7266 15.9523L56.8487 15.9467ZM55.9323 18.3903L56.0203 18.475L56.0206 18.4748L55.9323 18.3903ZM56.7998 15.3969L56.9201 15.3753L56.902 15.2747H56.7998V15.3969ZM53.2444 15.3969V15.2747H53.1222V15.3969H53.2444ZM53.2444 16.2766H53.1222V16.3987H53.2444V16.2766ZM55.8957 16.2766L56.0178 16.2806L56.0219 16.1544H55.8957V16.2766ZM55.2848 17.7671L55.3698 17.8551L55.3746 17.85L55.2848 17.7671ZM52.1362 18.3405L52.1847 18.2283L52.1362 18.3405ZM50.3976 15.6535L50.5199 15.6552L50.5197 15.6492L50.3976 15.6535ZM51.1967 13.5812L51.2844 13.6663L51.1967 13.5812ZM53.2444 12.7212L53.2438 12.8436L53.2511 12.8432L53.2444 12.7212ZM55.2481 13.5886L55.1546 13.6673L55.2403 13.7692L55.3345 13.675L55.2481 13.5886ZM55.8957 12.9411L55.9821 13.0275L56.0626 12.9469L55.9879 12.8609L55.8957 12.9411ZM54.7472 12.1225L54.6991 12.2348L54.7015 12.2358L54.7472 12.1225ZM53.2444 11.8171L53.2417 11.9392L53.2448 11.9392L53.2444 11.8171ZM50.5443 12.9167L50.6309 13.0028L50.6315 13.0022L50.5443 12.9167ZM49.7155 17.0938L49.8285 17.0473L49.7155 17.0938ZM53.2444 19.4777L53.2487 19.3555L53.2454 19.3555L53.2444 19.4777ZM62.4448 12.8936V13.0158H62.567V12.8936H62.4448ZM59.146 12.8936V12.7715H59.0238V12.8936H59.146ZM62.4448 11.9895H62.567V11.8673H62.4448V11.9895ZM58.1686 11.9895V11.8673H58.0464V11.9895H58.1686ZM58.1686 19.3202H58.0464V19.4424H58.1686V19.3202ZM62.4448 19.3202V19.4424H62.567V19.3202H62.4448ZM62.4448 18.4161H62.567V18.2939H62.4448V18.4161ZM59.146 18.4161H59.0238V18.5383H59.146V18.4161ZM59.146 16.0947V15.9725H59.0238V16.0947H59.146ZM62.1516 16.0947V16.2169H62.2738V16.0947H62.1516ZM62.1516 15.215H62.2738V15.0929H62.1516V15.215ZM59.146 15.215H59.0238V15.3372H59.146V15.215ZM65.5098 19.3202H65.3877V19.4424H65.5098V19.3202ZM66.4506 19.3202V19.4424H66.5728V19.3202H66.4506ZM65.5098 12.8936H65.632V12.7715H65.5098V12.8936ZM63.4572 12.8936H63.3351V13.0158H63.4572V12.8936ZM63.4572 11.9895V11.8673H63.3351V11.9895H63.4572ZM68.5521 11.9895H68.6743V11.8673H68.5521V11.9895ZM68.5521 12.8936V13.0158H68.6743V12.8936H68.5521ZM66.4506 12.8936V12.7715H66.3284V12.8936H66.4506ZM72.1445 19.32H72.0224V19.4422H72.1445V19.32ZM72.1445 11.9893V11.8671H72.0224V11.9893H72.1445ZM73.0853 19.32V19.4422H73.2075V19.32H73.0853ZM73.0853 11.9893H73.2075V11.8671H73.0853V11.9893ZM76.326 19.32H76.2039V19.4422H76.326V19.32ZM77.2668 19.32V19.4422H77.389V19.32H77.2668ZM76.326 12.8934H76.4482V12.7712H76.326V12.8934ZM74.2734 12.8934H74.1513V13.0156H74.2734V12.8934ZM74.2734 11.9893V11.8671H74.1513V11.9893H74.2734ZM79.3072 11.9893H79.4294V11.8671H79.3072V11.9893ZM79.3072 12.8934V13.0156H79.4294V12.8934H79.3072ZM77.2668 12.8934V12.7712H77.1446V12.8934H77.2668ZM88.1487 17.7543L88.235 17.841L88.2392 17.8364L88.1487 17.7543ZM84.1657 17.7543L84.075 17.8365L84.0794 17.8409L84.1657 17.7543ZM88.1487 13.5514L88.2393 13.4692L88.2349 13.4648L88.1487 13.5514ZM84.1657 13.5514L84.0793 13.4647L84.0752 13.4693L84.1657 13.5514ZM91.2578 19.32H91.1356V19.4422H91.2578V19.32ZM91.2578 11.9893V11.8671H91.1356V11.9893H91.2578ZM92.2108 19.32V19.4422H92.333V19.32H92.2108ZM92.2108 13.3454L92.3145 13.2808L92.0886 12.9187V13.3454H92.2108ZM95.9373 19.32L95.8336 19.3846L95.8695 19.4422H95.9373V19.32ZM96.9147 19.32V19.4422H97.0369V19.32H96.9147ZM96.9147 11.9893H97.0369V11.8671H96.9147V11.9893ZM95.9739 11.9893V11.8671H95.8517V11.9893H95.9739ZM95.9739 17.695L95.8703 17.7598L96.0961 18.1209V17.695H95.9739ZM92.4063 11.9893L92.5099 11.9245L92.474 11.8671H92.4063V11.9893ZM83.5566 18.2827C82.1597 16.8041 82.1597 14.4922 83.5566 13.0136L83.3789 12.8458C81.8931 14.4186 81.8931 16.8777 83.3789 18.4505L83.5566 18.2827ZM88.7575 18.28C87.3182 19.7112 84.9932 19.7112 83.5539 18.28L83.3816 18.4532C84.9162 19.9793 87.3952 19.9793 88.9298 18.4532L88.7575 18.28ZM88.755 13.0138C90.1578 14.4899 90.1578 16.8063 88.755 18.2824L88.9322 18.4508C90.4245 16.8803 90.4245 14.4159 88.9322 12.8455L88.755 13.0138ZM86.1557 11.9327C87.1324 11.9327 88.0688 12.3226 88.7569 13.0157L88.9303 12.8436C88.1963 12.1042 87.1975 11.6884 86.1557 11.6884V11.9327ZM83.5545 13.0157C84.2426 12.3226 85.1789 11.9327 86.1557 11.9327V11.6884C85.1138 11.6884 84.1151 12.1042 83.381 12.8436L83.5545 13.0157ZM56.7266 15.9523C56.767 16.8246 56.4481 17.6752 55.8441 18.3057L56.0206 18.4748C56.6708 17.7959 57.0142 16.8801 56.9707 15.941L56.7266 15.9523ZM56.6795 15.4185C56.7108 15.5928 56.7266 15.7695 56.7265 15.9466L56.9708 15.9467C56.9709 15.7551 56.9539 15.5639 56.9201 15.3753L56.6795 15.4185ZM53.2444 15.5191H56.7998V15.2747H53.2444V15.5191ZM53.3666 16.2766V15.3969H53.1222V16.2766H53.3666ZM55.8957 16.1544H53.2444V16.3987H55.8957V16.1544ZM55.3746 17.85C55.7704 17.421 55.9987 16.864 56.0178 16.2806L55.7736 16.2726C55.7564 16.7973 55.5511 17.2984 55.195 17.6843L55.3746 17.85ZM52.0877 18.4526C53.202 18.9346 54.4968 18.6988 55.3697 17.855L55.1999 17.6793C54.3979 18.4545 53.2084 18.6711 52.1847 18.2283L52.0877 18.4526ZM50.2755 15.6517C50.2584 16.8657 50.9733 17.9707 52.0877 18.4526L52.1847 18.2283C51.1609 17.7856 50.5041 16.7704 50.5198 15.6552L50.2755 15.6517ZM51.1091 13.4961C50.5488 14.0733 50.2478 14.8538 50.2755 15.6577L50.5197 15.6492C50.4943 14.9118 50.7704 14.1958 51.2844 13.6663L51.1091 13.4961ZM53.245 12.599C52.4406 12.595 51.6694 12.919 51.1091 13.4961L51.2844 13.6663C51.7984 13.1369 52.5059 12.8397 53.2438 12.8433L53.245 12.599ZM55.3416 13.51C54.8225 12.8925 54.0432 12.5552 53.2377 12.5992L53.2511 12.8432C53.9798 12.8033 54.6849 13.1086 55.1546 13.6673L55.3416 13.51ZM55.8093 12.8547L55.1617 13.5022L55.3345 13.675L55.9821 13.0275L55.8093 12.8547ZM54.7015 12.2358C55.1257 12.4069 55.5033 12.6761 55.8035 13.0213L55.9879 12.8609C55.6624 12.4866 55.2529 12.1947 54.7929 12.0092L54.7015 12.2358ZM53.2448 11.9392C53.7447 11.9376 54.2396 12.0382 54.6991 12.2348L54.7953 12.0102C54.3051 11.8004 53.7772 11.6931 53.244 11.6949L53.2448 11.9392ZM50.6315 13.0022C51.3172 12.3022 52.2621 11.9174 53.2417 11.9392L53.2471 11.6949C52.2 11.6716 51.1899 12.0829 50.457 12.8312L50.6315 13.0022ZM49.8285 17.0473C49.2577 15.6605 49.574 14.0667 50.6309 13.0028L50.4576 12.8305C49.3313 13.9642 48.9943 15.6626 49.6025 17.1403L49.8285 17.0473ZM53.2454 19.3555C51.7457 19.3437 50.3992 18.4342 49.8285 17.0473L49.6025 17.1403C50.2107 18.6181 51.6455 19.5873 53.2434 19.5998L53.2454 19.3555ZM55.8443 18.3055C55.1676 19.0085 54.2238 19.3903 53.2487 19.3555L53.2401 19.5998C54.2845 19.6369 55.2955 19.228 56.0203 18.475L55.8443 18.3055ZM62.4448 12.7715H59.146V13.0158H62.4448V12.7715ZM62.3227 11.9895V12.8936H62.567V11.9895H62.3227ZM58.1686 12.1117H62.4448V11.8673H58.1686V12.1117ZM58.2908 19.3202V11.9895H58.0464V19.3202H58.2908ZM62.4448 19.1981H58.1686V19.4424H62.4448V19.1981ZM62.3227 18.4161V19.3202H62.567V18.4161H62.3227ZM59.146 18.5383H62.4448V18.2939H59.146V18.5383ZM59.0238 16.0947V18.4161H59.2682V16.0947H59.0238ZM62.1516 15.9725H59.146V16.2169H62.1516V15.9725ZM62.0294 15.215V16.0947H62.2738V15.215H62.0294ZM59.146 15.3372H62.1516V15.0929H59.146V15.3372ZM59.0238 12.8936V15.215H59.2682V12.8936H59.0238ZM65.5098 19.4424H66.4506V19.1981H65.5098V19.4424ZM65.3877 12.8936V19.3202H65.632V12.8936H65.3877ZM63.4572 13.0158H65.5098V12.7715H63.4572V13.0158ZM63.3351 11.9895V12.8936H63.5794V11.9895H63.3351ZM68.5521 11.8673H63.4572V12.1117H68.5521V11.8673ZM68.6743 12.8936V11.9895H68.4299V12.8936H68.6743ZM66.4506 13.0158H68.5521V12.7715H66.4506V13.0158ZM66.5728 19.3202V12.8936H66.3284V19.3202H66.5728ZM72.2667 19.32V11.9893H72.0224V19.32H72.2667ZM73.0853 19.1978H72.1445V19.4422H73.0853V19.1978ZM72.9631 11.9893V19.32H73.2075V11.9893H72.9631ZM72.1445 12.1114H73.0853V11.8671H72.1445V12.1114ZM76.326 19.4422H77.2668V19.1978H76.326V19.4422ZM76.2039 12.8934V19.32H76.4482V12.8934H76.2039ZM74.2734 13.0156H76.326V12.7712H74.2734V13.0156ZM74.1513 11.9893V12.8934H74.3956V11.9893H74.1513ZM79.3072 11.8671H74.2734V12.1114H79.3072V11.8671ZM79.4294 12.8934V11.9893H79.185V12.8934H79.4294ZM77.2668 13.0156H79.3072V12.7712H77.2668V13.0156ZM77.389 19.32V12.8934H77.1446V19.32H77.389ZM88.0625 17.6677C87.0089 18.7169 85.3054 18.7169 84.2519 17.6677L84.0794 17.8409C85.2283 18.985 87.086 18.985 88.2349 17.8409L88.0625 17.6677ZM88.0582 13.6335C89.0975 14.7791 89.0975 16.5265 88.0582 17.6722L88.2392 17.8364C89.3629 16.5976 89.3629 14.7081 88.2392 13.4693L88.0582 13.6335ZM84.2519 13.6379C85.3054 12.5888 87.0089 12.5888 88.0625 13.6379L88.2349 13.4648C87.086 12.3207 85.2283 12.3207 84.0794 13.4648L84.2519 13.6379ZM84.2561 17.6722C83.2169 16.5265 83.2169 14.7791 84.2561 13.6335L84.0752 13.4693C82.9514 14.7081 82.9514 16.5976 84.0752 17.8364L84.2561 17.6722ZM91.38 19.32V11.9893H91.1356V19.32H91.38ZM92.2108 19.1978H91.2578V19.4422H92.2108V19.1978ZM92.0886 13.3454V19.32H92.333V13.3454H92.0886ZM96.0409 19.2553L92.3145 13.2808L92.1071 13.4101L95.8336 19.3846L96.0409 19.2553ZM96.9147 19.1978H95.9373V19.4422H96.9147V19.1978ZM96.7925 11.9893V19.32H97.0369V11.9893H96.7925ZM95.9739 12.1114H96.9147V11.8671H95.9739V12.1114ZM96.0961 17.695V11.9893H95.8517V17.695H96.0961ZM92.3027 12.054L95.8703 17.7598L96.0775 17.6302L92.5099 11.9245L92.3027 12.054ZM91.2578 12.1114H92.4063V11.8671H91.2578V12.1114Z" fill="black"/>
<path d="M11.6641 12.648C11.2658 13.1259 11.0648 13.7376 11.102 14.3585V41.3844C11.0648 42.0054 11.2658 42.6171 11.6641 43.0949L11.7496 43.1805L26.8875 28.0548V27.7004L11.7496 12.5625L11.6641 12.648Z" fill="url(#paint0_linear)"/>
<path d="M31.896 33.1011L26.8867 28.0551V27.7008L31.896 22.6426L32.006 22.7037L38.005 26.1125C39.7155 27.0777 39.7155 28.666 38.005 29.6434L32.0304 33.04L31.896 33.1011Z" fill="url(#paint1_linear)"/>
<path d="M32.0435 33.027L26.8875 27.8711L11.6641 43.0946C12.3833 43.7269 13.4508 43.7576 14.2054 43.1679L32.0557 33.027" fill="url(#paint2_linear)"/>
<path d="M32.044 22.7156L14.1937 12.5748C13.4391 11.985 12.3716 12.0158 11.6523 12.6481L26.888 27.8716L32.044 22.7156Z" fill="url(#paint3_linear)"/>
<path opacity="0.2" d="M31.8968 32.9189L14.1932 42.9987C13.4687 43.5403 12.4741 43.5403 11.7496 42.9987L11.6641 43.0842L11.7496 43.1697C12.4727 43.7155 13.4701 43.7155 14.1932 43.1697L32.0435 33.0289L31.8968 32.9189Z" fill="black"/>
<path opacity="0.12" fill-rule="evenodd" clip-rule="evenodd" d="M31.8943 32.9171L38.0032 29.4594C38.6345 29.1478 39.0857 28.5612 39.225 27.8711C39.162 28.634 38.696 29.305 38.0032 29.6305L32.0042 33.027L31.8943 32.9171ZM11.0994 41.4502C11.1195 41.9878 11.3168 42.5062 11.6641 42.9229L11.7496 43.0206L11.6641 43.1062C11.2775 42.6423 11.0768 42.0523 11.0994 41.4502ZM11.0994 41.4502C11.1001 41.432 11.1009 41.4138 11.102 41.3956V41.2124C11.0973 41.2919 11.0964 41.3713 11.0994 41.4502Z" fill="black"/>
<path opacity="0.25" d="M14.1932 12.747L38.0058 26.2844C38.6371 26.596 39.0883 27.1826 39.2276 27.8727C39.1646 27.1099 38.6986 26.4388 38.0058 26.1134L14.1932 12.576C12.4827 11.6108 11.0898 12.4171 11.0898 14.372V14.5553C11.1265 12.5882 12.4949 11.7818 14.1932 12.747Z" fill="white"/>
<defs>
<linearGradient id="paint0_linear" x1="20.2572" y1="-5.79969" x2="-3.98238" y2="0.646869" gradientUnits="userSpaceOnUse">
<stop stop-color="#00A0FF"/>
<stop offset="0.01" stop-color="#00A1FF"/>
<stop offset="0.26" stop-color="#00BEFF"/>
<stop offset="0.51" stop-color="#00D2FF"/>
<stop offset="0.76" stop-color="#00DFFF"/>
<stop offset="1" stop-color="#00E3FF"/>
</linearGradient>
<linearGradient id="paint1_linear" x1="40.2408" y1="15.4092" x2="10.6858" y2="15.4092" gradientUnits="userSpaceOnUse">
<stop stop-color="#FFE000"/>
<stop offset="0.41" stop-color="#FFBD00"/>
<stop offset="0.78" stop-color="#FFA500"/>
<stop offset="1" stop-color="#FF9C00"/>
</linearGradient>
<linearGradient id="paint2_linear" x1="11.2168" y1="19.9631" x2="-8.25417" y2="52.715" gradientUnits="userSpaceOnUse">
<stop stop-color="#FF3A44"/>
<stop offset="1" stop-color="#C31162"/>
</linearGradient>
<linearGradient id="paint3_linear" x1="-0.223395" y1="8.44029" x2="8.46752" y2="23.0656" gradientUnits="userSpaceOnUse">
<stop stop-color="#32A071"/>
<stop offset="0.07" stop-color="#2DA771"/>
<stop offset="0.48" stop-color="#15CF74"/>
<stop offset="0.8" stop-color="#06E775"/>
<stop offset="1" stop-color="#00F076"/>
</linearGradient>
</defs>
</svg>
