<svg width="580" height="341" viewBox="0 0 580 341" fill="none" xmlns="http://www.w3.org/2000/svg">
<path fill-rule="evenodd" clip-rule="evenodd" d="M437.02 282.72C437.74 281.387 438.457 280.053 439.17 278.72L437.31 278L435 281.8L437.02 282.72Z" fill="black"/>
<path fill-rule="evenodd" clip-rule="evenodd" d="M213 170.19L213.51 170.55L213.83 170L213 170.19Z" fill="black"/>
<path fill-rule="evenodd" clip-rule="evenodd" d="M543.06 293.42C542.33 293.42 541.61 293.42 540.89 293.42C547.01 301.07 545.25 290.36 540 289C541.06 290.42 542.11 291.88 543.06 293.42Z" fill="black"/>
<path fill-rule="evenodd" clip-rule="evenodd" d="M419.43 45.71C418.59 46.84 417.78 48 417 49.18C420.26 50.58 419.07 49.6 421.77 45C421.01 45.26 420.22 45.54 419.43 45.71Z" fill="black"/>
<path fill-rule="evenodd" clip-rule="evenodd" d="M339.74 58.37C340.641 58.099 341.471 57.631 342.17 57L338.39 56C338.29 56.66 338.16 57.35 338 58.05L339.74 58.37Z" fill="black"/>
<path fill-rule="evenodd" clip-rule="evenodd" d="M169.66 217.62C169.66 217.41 169.74 217.21 169.79 217C169.19 217.07 168.59 217.15 168 217.25L169.66 217.62Z" fill="black"/>
<path fill-rule="evenodd" clip-rule="evenodd" d="M153.48 156.83C153.64 156.51 153.81 156.19 153.98 155.83C153.25 155.56 152.53 155.29 151.82 155C151.55 155.56 151.27 156.11 151 156.66L153.48 156.83Z" fill="black"/>
<path fill-rule="evenodd" clip-rule="evenodd" d="M510.79 65.41C510.45 64.94 510.12 64.48 509.79 64C509.51 64.75 509.25 65.51 509 66.27L510.61 66.98L510.79 65.41Z" fill="black"/>
<path fill-rule="evenodd" clip-rule="evenodd" d="M46.089 323.49C46.626 321.032 46.838 318.513 46.719 316C40.346 316 37.919 318.783 39.439 324.35C41.649 324.05 43.869 323.77 46.089 323.49Z" fill="black"/>
<path fill-rule="evenodd" clip-rule="evenodd" d="M288.12 108.984C300.12 107.504 286.91 105.104 286 106.344L288.12 108.984Z" fill="black"/>
<path fill-rule="evenodd" clip-rule="evenodd" d="M561.75 123.35C563.083 122.21 564.417 121.047 565.75 119.86C564.008 118.34 562.358 116.717 560.81 115C559.88 115.85 558.93 116.68 558 117.52C559.24 119.45 560.5 121.4 561.75 123.35Z" fill="black"/>
<path fill-rule="evenodd" clip-rule="evenodd" d="M242 210.78L243.78 210.17L243.48 209C242.96 209.58 242.47 210.17 242 210.78Z" fill="black"/>
<path fill-rule="evenodd" clip-rule="evenodd" d="M526.36 187.7C526.548 186.344 526.098 184.978 525.14 184C524.78 185.387 524.4 186.777 524 188.17C524.78 188.04 525.57 187.9 526.36 187.7Z" fill="black"/>
<path fill-rule="evenodd" clip-rule="evenodd" d="M257.4 263.74L257.8 263H257L257.4 263.74Z" fill="black"/>
<path fill-rule="evenodd" clip-rule="evenodd" d="M121.23 163C121.15 163.23 121.08 163.46 121 163.69L121.3 163.01L121.23 163Z" fill="black"/>
<path fill-rule="evenodd" clip-rule="evenodd" d="M379.21 98.64C380.21 96.93 379.88 95.72 378.29 95C377.19 95.93 376.1 96.85 375 97.76C376.36 100.11 377.73 100.4 379.21 98.64Z" fill="black"/>
<path fill-rule="evenodd" clip-rule="evenodd" d="M460.75 77.5496C459.48 71.5496 459.47 72.8296 453 73.9296C453.54 78.1496 456.123 79.3566 460.75 77.5496Z" fill="black"/>
<path fill-rule="evenodd" clip-rule="evenodd" d="M310 249.465C309 249.715 308 249.945 307 250.185C310.653 257.558 316.417 259.225 324.29 255.185C323.783 249.932 319.02 248.025 310 249.465Z" fill="black"/>
<path fill-rule="evenodd" clip-rule="evenodd" d="M227 243.24C227.83 243.66 228.42 243.58 228.79 243L227 243.18V243.24Z" fill="black"/>
<path fill-rule="evenodd" clip-rule="evenodd" d="M74.18 143.21C74.175 143.14 74.175 143.07 74.18 143L74 143.07L74.18 143.21Z" fill="black"/>
<path fill-rule="evenodd" clip-rule="evenodd" d="M88 223L88.05 223.17H88.16L88 223Z" fill="black"/>
<path fill-rule="evenodd" clip-rule="evenodd" d="M23.42 32.05C20.75 32.5 17.84 33.53 15 34.05C15.62 36.537 17.62 38.167 21 38.94C21 38.03 21 37.14 21 36.24C22.313 36.86 23.707 37.294 25.14 37.53C25.02 35.09 24.26 30.25 21.55 30C22.17 30.7 22.8 31.37 23.42 32.05Z" fill="black"/>
<path fill-rule="evenodd" clip-rule="evenodd" d="M402.89 309.746C404.89 301.566 394.18 298.476 393 307.396C396.33 308.066 399.64 308.846 402.89 309.746Z" fill="black"/>
<path fill-rule="evenodd" clip-rule="evenodd" d="M199 149.39L199.49 149.55L199.15 149C199.1 149.13 199.04 149.26 199 149.39Z" fill="black"/>
<path fill-rule="evenodd" clip-rule="evenodd" d="M494.27 22C493.84 22.76 493.42 23.52 493 24.29C494.09 24.64 494.88 24.01 495.38 22.39L494.27 22Z" fill="black"/>
<path fill-rule="evenodd" clip-rule="evenodd" d="M185.13 235.54L183.38 235C183.23 235.58 183.1 236.18 183 236.79L185.39 236.08L185.13 235.54Z" fill="black"/>
<path fill-rule="evenodd" clip-rule="evenodd" d="M60 229.37L60.72 229.24L60.2 229L60 229.37Z" fill="black"/>
<path fill-rule="evenodd" clip-rule="evenodd" d="M356 130.53C356.87 132.8 357.74 135.07 358.59 137.34C359.432 135.788 360.357 134.283 361.36 132.83C360.19 131.58 359.03 130.3 357.9 129L356 130.53Z" fill="black"/>
<path fill-rule="evenodd" clip-rule="evenodd" d="M475.299 194C472.739 197.333 473.962 200.313 478.969 202.94C481.619 199.81 478.469 196.29 475.299 194Z" fill="black"/>
<path fill-rule="evenodd" clip-rule="evenodd" d="M103.214 84C101.714 84.587 101.604 86.177 102.884 88.77C104.635 88.566 106.346 88.108 107.964 87.41C106.377 86.337 104.794 85.2 103.214 84Z" fill="black"/>
<path fill-rule="evenodd" clip-rule="evenodd" d="M272.12 177.6C271.75 177.07 271.38 176.53 271 176C271 176.79 271 177.58 271 178.38C271.351 178.089 271.725 177.828 272.12 177.6Z" fill="black"/>
<path fill-rule="evenodd" clip-rule="evenodd" d="M135 270C135.3 271.38 136.35 272.74 137.38 270.88L135 270Z" fill="black"/>
</svg>
