<svg width="138" height="125" viewBox="0 0 138 125" fill="none" xmlns="http://www.w3.org/2000/svg">
<path fill-rule="evenodd" clip-rule="evenodd" d="M137.37 64.9024C137.32 65.04 137.197 65.3852 137.04 65.8196C137.178 65.8865 137.328 65.9577 137.536 66.0577C137.642 66.4416 138.225 66.8477 137.87 67.3669C137.551 67.8339 138.395 68.3276 137.75 68.7065C137.86 69.6862 137.17 70.393 136.715 71.0775C136.303 71.6984 136.202 72.4736 135.579 73.013C135.037 73.4822 134.732 74.2265 134.321 74.8517C133.963 74.868 133.631 74.8821 133.17 74.9028C133.254 75.1681 133.316 75.3671 133.414 75.6808C133.29 75.82 133.087 76.0499 132.866 76.2989C133.002 76.7176 133.13 77.1112 133.281 77.5733C133.066 77.8174 132.854 78.0599 132.622 78.3247C132.804 78.3899 132.976 78.4508 133.267 78.5546C132.934 78.7911 132.66 78.9858 132.372 79.1902C132.428 79.256 132.515 79.3577 132.651 79.5169C131.67 79.8823 130.796 79.0026 129.713 79.4278C129.044 79.91 128.548 80.8941 127.555 81.2578C127.171 81.3986 127.499 82.101 126.843 82.0184C126.609 81.989 126.782 82.7415 126.234 82.5952C126.029 83.277 125.421 83.551 124.941 83.9805C124.542 84.3361 124.179 84.7998 123.858 85.2636C123.59 85.6496 123.305 86.0236 123.022 86.3988C122.766 86.7386 122.465 87.0512 122.254 87.4165C122.074 87.7281 122.09 88.2603 121.847 88.4011C121.521 88.5903 121.298 88.7947 121.229 89.2346C120.908 89.0432 120.712 88.9269 120.515 88.8094C119.903 89.109 119.289 89.3939 118.679 88.6447V87.0882C117.506 86.4276 116.28 85.8508 115.731 84.3573C115.774 83.8647 115.535 83.1666 116.009 82.5903C115.32 81.2159 115.918 80.0525 116.581 78.9064C117.378 77.5271 118.425 76.3495 119.652 75.2649C118.93 74.1824 118.176 73.1739 117.561 72.0871C117.138 71.3395 116.671 70.524 116.648 69.6688C116.624 68.7826 116.345 67.8579 116.873 66.9592C117.109 66.5568 116.882 65.974 117.147 65.4439C117.306 65.1253 117.404 64.7714 117.649 64.4659C117.781 64.3011 117.775 64.0255 117.884 63.5884C118.128 63.3617 118.74 63.0561 118.868 62.6125C119.053 61.9677 119.878 62.2134 119.866 61.4594C120.079 61.6208 120.174 61.6926 120.321 61.804C120.663 61.7029 121.049 61.5887 121.451 61.4702C121.598 61.7486 121.722 61.9818 121.871 62.2656C121.576 62.8001 121.254 63.384 120.883 64.0549C121.616 63.9825 122.182 63.926 122.665 63.8782C122.862 64.0755 122.967 64.1799 123.084 64.2962C122.886 64.6844 122.686 65.077 122.423 65.5951C122.888 65.6429 123.249 65.6799 123.696 65.7256C123.586 66.2497 123.476 66.7754 123.368 67.2924C123.179 67.461 122.974 67.6436 122.764 67.8318C122.897 67.965 122.952 68.0362 122.964 68.0291C123.157 67.922 123.346 67.8051 123.576 67.6659C123.654 67.8736 123.702 68.0014 123.765 68.1667C123.345 68.3792 122.946 68.5815 122.491 68.8115C122.702 68.8821 122.869 68.9381 123.179 69.0414C122.826 69.3954 122.512 69.7096 122.103 70.1201C122.625 70.5316 123.087 70.897 123.582 71.2884C124.312 71.4271 124.898 71.1194 125.471 70.6235C126.798 69.478 128.257 68.4782 129.565 67.3267C130.903 66.1475 132.327 64.9921 133.28 63.4122C133.503 63.0425 133.895 62.775 134.231 62.4391H135.791C135.877 62.5472 136.024 62.7337 136.176 62.9251C136.005 63.4117 135.83 63.913 135.602 64.5643C136.075 64.4343 136.458 64.3289 136.958 64.1913C137.037 64.3272 137.159 64.5387 137.37 64.9024" fill="#172327"/>
<path fill-rule="evenodd" clip-rule="evenodd" d="M43.276 96.1286C42.7949 96.2776 42.3996 96.4004 41.8886 96.5586C42.0131 96.2917 42.0952 96.1156 42.199 95.8921C41.8587 95.3794 41.4737 94.9206 40.7697 95.0222C40.7153 94.8145 40.6805 94.6808 40.6316 94.4949H39.4067C39.2844 94.3725 39.1784 94.3144 39.1506 94.2306C38.9631 93.6652 38.9234 92.9932 38.583 92.5496C38.1448 91.9793 38.3628 91.4198 38.3427 90.8675C38.3259 90.4189 38.5069 89.9595 38.6173 89.5094C39.0131 87.9001 39.6253 86.3696 40.4049 84.9142C40.8849 84.0193 41.4226 83.1478 42.012 82.3209C42.5877 81.513 43.2624 80.7752 43.9132 79.982C43.7365 79.8689 43.543 79.7374 43.3418 79.6183C41.3971 78.4679 39.6938 77.0195 38.1144 75.4135C37.369 74.6556 37.3647 73.6384 37.1472 72.7022C37.0597 72.3276 37.1331 71.915 37.1331 71.5197C37.5316 70.7597 38.3346 70.6955 39.1137 70.3856C39.3763 70.8477 39.6459 71.3229 39.9504 71.8574C40.0037 71.8182 40.0961 71.7502 40.2619 71.6279C40.3636 71.729 40.5424 71.8264 40.5925 71.9693C40.9023 72.8506 41.6222 73.2992 42.3871 73.6808C43.9437 74.4588 45.5143 75.2064 47.1856 76.0181C47.5765 75.6049 47.9674 74.971 48.535 74.654C49.058 74.3615 49.0852 73.5248 49.9007 73.6053C49.7844 73.4623 49.7033 73.3628 49.5826 73.2149C49.8327 73.0398 50.0861 72.8626 50.4389 72.6158C50.5504 72.37 50.7206 71.9954 50.8869 71.6285C51.1392 71.6138 51.3735 71.6002 51.7111 71.5806C51.5676 71.3958 51.4926 71.2995 51.3762 71.1495C52.0058 71.0576 52.0477 70.4057 52.444 70.0556C52.8626 69.6854 53.1589 69.177 53.5558 68.6682C53.6439 68.7329 53.7358 68.8003 53.9108 68.9291C53.988 68.7475 54.0603 68.5763 54.1511 68.3615C54.2582 68.448 54.3572 68.5273 54.5355 68.672C54.7296 67.6308 55.32 66.7957 55.9474 66.0449C56.5939 65.2707 57.1751 64.3818 58.233 63.8637C58.3657 63.973 58.5435 64.1192 58.7446 64.2845C58.3266 65.0875 57.9215 65.8835 57.0647 66.3026V67.4884C57.2675 67.4389 57.4735 67.4482 57.5165 67.3688C57.6883 67.0486 57.8095 66.7011 57.8775 66.5375C58.5821 65.9569 59.1578 65.4828 59.8842 64.8847C59.9255 65.4387 59.9516 65.8003 59.9777 66.1471C59.7564 66.2379 59.5879 66.307 59.4106 66.3798C59.4563 66.4434 59.5134 66.5663 59.5438 66.5598C59.9038 66.4858 60.2599 66.3923 60.6975 66.2841C60.8215 66.5027 60.9726 66.7686 61.1249 67.036C61.0433 67.1268 60.946 67.2345 60.8411 67.3508C60.903 67.7803 61.4195 68.1593 61.0199 68.6513C60.9036 68.5464 60.8003 68.4529 60.6948 68.3566C60.6459 68.4485 60.5507 68.5458 60.5703 68.6073C60.6247 68.7812 60.7263 68.9405 60.8405 69.1656C60.759 69.9186 60.1571 70.4188 59.5988 70.9271C59.0703 71.4083 58.4891 71.8307 57.8095 72.376C58.089 72.5364 58.332 72.6767 58.6055 72.8343C58.4348 73.1622 58.3315 73.3601 58.2227 73.5678C58.2858 73.6379 58.3804 73.7412 58.5272 73.9032C58.2048 73.9548 57.9329 73.9989 57.5431 74.0625C57.6491 74.3327 57.7399 74.5627 57.8449 74.8296H56.8576C56.6743 75.2053 56.5145 75.5331 56.3623 75.8452C56.5036 75.9974 56.6026 76.104 56.745 76.2573C56.4422 76.3133 56.1709 76.3639 55.7762 76.4378C55.8719 76.6901 55.9594 76.9173 56.0622 77.1875C55.8088 77.225 55.5359 77.2653 55.1803 77.3175C55.2847 77.5991 55.3695 77.8274 55.5098 78.2058C55.1238 78.0558 54.8427 77.9465 54.5034 77.8149C54.3436 78.1194 54.1805 78.4304 54.0217 78.7327C54.0783 78.8403 54.1006 78.9583 54.1675 78.9947C54.2854 79.0589 54.4447 79.0469 54.5616 79.1121C55.0156 79.3655 55.1216 79.9527 55.568 80.2044C56.0491 80.4762 56.2584 80.9427 56.5651 81.3581C56.8412 81.7321 57.0462 82.0474 57.0152 82.521C57.0043 82.683 57.149 82.8548 57.2387 83.0576C57.1604 83.1908 57.0484 83.3805 56.8956 83.6404C56.4949 83.6866 56.2035 84.2232 55.4723 83.94C54.1952 83.4447 52.8659 83.001 51.479 82.8341C51.4018 82.8249 51.3382 82.702 51.212 82.5759C50.8065 83.0331 50.4036 83.4871 49.898 84.0574C49.8915 84.1112 49.8643 84.3445 49.8344 84.5962C49.5506 84.6408 49.2787 84.6837 48.8563 84.75C49.1352 85.1415 49.3434 85.434 49.6539 85.87C49.3032 85.7673 49.0694 85.6993 48.7726 85.6123C48.7111 85.6852 48.5866 85.8325 48.4513 85.9923C48.6231 86.467 48.485 86.7573 47.9288 87.0732C47.7624 87.6712 47.6026 88.2459 47.4694 88.7254C47.2182 88.8178 47.0779 88.8695 46.8969 88.9363L47.2215 89.2609C46.7784 89.6002 46.27 89.8747 45.9264 90.2868C45.616 90.6582 45.4866 91.1801 45.2452 91.7064C45.2686 91.7422 45.3659 91.8879 45.5203 92.119C45.1936 92.4555 44.8728 92.7861 44.564 93.1036C44.6841 93.2537 44.7728 93.364 44.9261 93.5554C44.7081 93.8044 44.4939 94.049 44.2552 94.3214V95.1859C43.9051 95.5229 43.55 95.8649 43.276 96.1286" fill="#172327"/>
<path fill-rule="evenodd" clip-rule="evenodd" d="M79.7388 102.037C80.4238 102.866 80.4244 102.867 81.2556 102.408C81.279 102.673 81.2709 102.904 81.328 103.118C81.3687 103.269 81.497 103.396 81.5797 103.525C81.4742 103.631 81.4041 103.7 81.3149 103.79C81.522 103.886 81.7199 103.979 82.044 104.131C81.7069 104.611 81.3888 105.063 81.0713 105.516C81.4807 106.252 80.6147 106.383 80.4902 106.777C80.2982 107.386 79.5578 107.517 79.5365 108.168C79.5121 108.927 78.7335 109.02 78.3954 109.462C78.1018 109.847 77.5799 110.098 77.5124 110.588C77.6293 110.788 77.7218 110.946 77.8734 111.207C77.4347 111.455 77.0525 111.672 76.6692 111.889L75.7444 112.326C75.4633 112.657 75.1823 112.989 74.8066 113.432V113.722C73.86 114.418 72.976 115.069 71.9496 115.823C72.2432 115.973 72.4209 116.064 72.7156 116.214C72.3079 116.784 71.8952 117.362 71.4516 117.982C72.5906 118.37 73.6621 118.736 74.7674 119.114C74.6582 119.333 74.5657 119.519 74.4407 119.77C74.9333 119.945 75.3937 120.11 75.9195 120.297V120.942C76.25 121.246 76.5398 121.512 76.8399 121.788C76.8584 122.136 76.8753 122.469 76.8921 122.787L77.4298 123.324L76.0657 124.459C75.7444 124.817 75.4095 124.751 75.0496 124.512C74.9403 124.44 74.787 124.399 74.6544 124.401C73.1234 124.435 71.7397 123.852 70.3468 123.343C69.3193 122.968 68.3303 122.488 67.2647 122.029C66.9739 122.318 66.521 122.538 66.4628 123.136C65.8474 123.282 65.2162 123.432 64.6257 123.572C64.3213 123.263 64.0783 123.018 63.8347 122.771C63.9271 122.669 64.0228 122.563 64.1642 122.407C64.0174 122.102 63.8592 121.773 63.7646 121.577C63.3062 121.648 62.9007 121.711 62.5049 121.772C62.2858 121.339 62.089 120.948 61.8873 120.548C61.7888 120.647 61.7193 120.716 61.6937 120.742C61.3659 120.409 61.0353 120.073 60.5786 119.61C60.7205 118.581 60.0621 117.4 60.2388 116.123C60.2763 115.855 60.0714 115.468 59.8555 115.266C58.9808 114.445 58.9433 113.259 58.5322 112.249C58.3751 111.864 58.2077 111.374 58.1941 110.908C58.1712 110.168 58.0848 109.408 58.2115 108.69C58.4115 107.553 58.6268 106.34 59.9507 105.893C60.3883 105.745 60.87 105.729 61.4469 105.633V107.945C61.9487 107.622 62.2847 107.406 62.7859 107.083C62.8555 107.288 62.9393 107.531 63.0219 107.775C63.0964 107.718 63.1709 107.662 63.2453 107.605V108.969C63.5003 108.84 63.6846 108.746 63.8586 108.658C64.4876 109.208 64.4713 109.912 64.3843 110.637C64.5947 110.712 64.766 110.772 65.0406 110.869C64.9237 111.187 64.8068 111.502 64.6654 111.883C64.8367 111.852 64.9226 111.861 64.9704 111.823C65.0857 111.732 65.1651 111.568 65.2912 111.521C66.5574 111.039 67.1946 109.693 68.4657 109.225C68.7212 108.305 69.6917 108.108 70.2587 107.488C70.8486 106.843 71.681 106.424 72.3927 105.886C73.0815 105.365 73.4697 104.488 74.3684 104.212C74.9588 103.137 75.8086 102.323 76.866 101.715C76.829 100.987 77.8305 100.897 77.8071 100.129H79.144C79.2397 100.224 79.3794 100.364 79.5191 100.504C78.8792 100.822 78.6455 101.44 78.2361 102.094C79.1217 102.277 79.6317 101.199 80.4662 101.696C80.2248 101.809 80.0275 101.902 79.7388 102.037" fill="#172327"/>
<path fill-rule="evenodd" clip-rule="evenodd" d="M76.2997 86.366C76.2307 85.6728 77.206 85.5967 76.7439 84.9508C76.6259 85.0563 76.521 85.1493 76.4161 85.2423C76.3813 85.2069 76.3209 85.1759 76.315 85.1368C76.2051 84.4104 76.2492 83.7216 76.7646 83.1295C77.3316 82.4793 77.8938 81.8236 78.4375 81.1538C78.6093 80.9423 78.7153 80.6776 78.8844 80.3796C78.6158 79.6799 78.2477 78.9547 77.928 78.2337C77.585 77.4596 77.5926 76.6201 77.2196 75.8541C77.0212 75.4474 77.5388 74.7336 77.4175 74.2356C77.2811 73.6783 76.9522 73.2042 77.4328 72.679C77.4425 71.21 78.4413 70.2945 79.315 69.2745H81.7849C81.9295 69.4115 82.0725 69.5475 82.3041 69.7666C81.9284 70.2455 81.5522 70.7245 81.1363 71.2546C81.1825 71.3535 81.2939 71.59 81.4429 71.907C81.5821 71.907 81.8485 71.9869 81.9436 71.8929C82.3563 71.4878 82.8331 71.6515 83.2675 71.6036C83.4279 71.951 83.5616 72.2414 83.7106 72.5638C83.4877 72.8421 83.2577 73.1297 82.9086 73.5652C83.4366 73.6326 83.7905 73.6778 84.2559 73.737V75.1582C85.2573 75.1908 85.3671 73.9779 86.2104 73.9828C86.5931 73.3999 87.1515 72.9944 87.6544 72.5295C88.2345 71.994 88.7863 71.4264 89.3332 70.8561C89.8367 70.3304 90.3477 69.8068 90.8001 69.2392C91.2655 68.6542 91.6656 68.017 91.9347 67.631C92.5474 67.4114 92.8927 67.2874 93.3211 67.1341C93.4614 67.3336 93.6913 67.5364 93.7501 67.7805C93.7952 67.9681 93.6457 68.2176 93.5451 68.4204C93.4304 68.6509 93.2733 68.8597 93.2749 69.2653C93.7071 69.0832 94.1393 68.9005 94.615 68.6999C94.8689 69.1946 95.1408 69.7242 95.5529 70.5272C95.5529 70.5103 95.529 70.8023 95.561 71.0877C95.586 71.3095 95.6801 71.5237 95.7633 71.8081C95.7046 71.9103 95.5969 72.0995 95.4974 72.2745C95.6469 72.436 95.7464 72.5431 95.835 72.6383C94.976 74.0137 94.2029 75.4376 93.2607 76.7691C92.4697 77.8869 92.5806 77.9652 92.0011 78.2816C92.0935 78.3843 92.187 78.4876 92.262 78.5708C91.0888 79.8854 89.9253 81.1897 88.7444 82.5135V83.0056C89.672 83.5965 90.5696 84.168 91.5079 84.7654C91.372 85.0318 91.2888 85.195 91.1605 85.4478C91.5156 85.7528 91.7542 86.3394 92.4414 86.123C92.592 86.422 92.7149 86.6661 92.8356 86.9064C92.7492 87.0271 92.6415 87.1766 92.4942 87.3816C92.866 87.754 93.1999 88.0884 93.5609 88.4499C93.4233 88.8039 93.3064 89.1056 93.1765 89.44C93.2716 89.6031 93.3858 89.7999 93.4913 89.9809C93.4391 90.0935 93.4228 90.2098 93.3581 90.2528C93.2124 90.3479 92.9982 90.3664 92.8916 90.4871C92.2539 91.2069 92.1397 91.2471 91.3378 90.9731C90.2994 90.6181 89.1826 90.4093 88.2339 89.8912C86.9628 89.1975 85.8206 88.2678 84.5076 87.3593C83.9563 87.7671 83.3376 88.3265 82.7417 88.9632C82.1654 89.5791 81.4059 90.0674 80.3501 90.3816C80.5361 90.0744 80.6122 89.9488 80.7769 89.6748C80.1152 89.7982 79.5602 89.9015 79.0056 90.0048L78.9105 89.814C79.2443 89.5536 79.5776 89.2937 79.9114 89.0338L79.3954 88.5179H78.3831C78.2483 88.1792 78.0982 87.7997 77.921 87.3539H76.6923C76.5232 86.9282 76.3715 86.5465 76.2997 86.366" fill="#172327"/>
<path fill-rule="evenodd" clip-rule="evenodd" d="M82.731 57.2728C82.2221 57.3946 81.7736 57.5023 81.1407 57.6539C80.491 57.1739 79.7141 56.5758 78.9122 56.0148C77.9559 55.3455 77.1251 54.493 76.0334 54.0217C75.7806 53.9124 75.5153 53.8335 75.1641 53.7074C74.7384 53.0697 74.6889 51.8856 73.4401 52.016C72.8752 51.4996 72.8062 50.6025 71.9804 50.5155C71.7101 50.055 71.5394 49.5282 71.1844 49.1993C69.5637 47.696 68.391 45.8905 67.3825 43.712C67.295 43.0394 67.2944 42.1429 67.1493 41.2437C66.9209 39.8274 67.6755 38.6112 68.9021 37.8261C69.2408 37.6098 69.4153 37.134 69.978 37.1846C70.3694 37.2199 70.7826 37.0117 71.3024 36.884C71.4563 37.021 71.6601 37.202 71.9173 37.4303C71.4992 38.1322 70.7087 38.5753 70.6489 39.5181C71.5791 39.8285 71.9961 38.795 72.9323 38.6759C73.0465 38.7781 73.2493 38.9586 73.4396 39.1293C73.1079 39.6268 72.8845 39.9617 72.4729 40.5788C73.1128 40.3765 73.5679 40.3733 73.7359 40.152C74.1605 39.592 74.8471 39.3675 75.2457 38.7444C75.617 38.1643 76.2259 37.7321 76.8484 37.3276C77.7286 36.7562 78.4419 35.9347 79.2672 35.2703C80.4802 34.2939 81.617 33.2239 82.968 32.4122C83.5024 32.092 83.8977 31.5342 84.3413 31.0694C84.7447 30.6464 85.3857 30.4615 85.5124 29.8309H87.5066V31.1172C87.4511 31.1727 87.2598 31.364 87.0293 31.5951C87.2935 31.5478 87.5572 31.5103 87.816 31.4516C88.0791 31.3918 88.3379 31.3113 88.7369 31.202C88.676 32.1594 88.7223 33.007 89.4138 33.6246C89.2681 33.8209 89.1849 33.9329 89.0175 34.1596C89.2284 34.276 89.4731 34.4097 89.9281 34.6592C89.4595 34.7875 89.3002 34.831 89.0827 34.8908C89.1654 35.08 89.2763 35.2567 89.3165 35.4487C89.3573 35.6379 89.3257 35.8417 89.3257 36.0358C88.7761 36.7904 88.2259 37.5451 87.6219 38.3736C87.511 38.3861 87.2772 38.4117 86.9336 38.4492C87.038 38.5927 87.1021 38.6824 87.1864 38.7988C87.0978 39.0108 86.9994 39.2462 86.889 39.5083C85.5842 39.4452 85.5749 40.7897 84.7681 41.3133C84.9388 41.5378 85.0236 41.6493 85.0622 41.7004C84.5256 42.2375 83.9841 42.779 83.4372 43.3254C83.4812 43.3656 83.4111 43.302 83.4416 43.3292C83.198 43.5722 82.9468 43.8234 82.6956 44.0751C82.6141 44.0115 82.5331 43.9485 82.4515 43.8849V44.6656C82.2792 44.5237 82.1791 44.441 81.9546 44.2567C82.0041 44.5895 82.0372 44.8107 82.0835 45.1217C81.7132 45.6012 81.2679 46.1781 80.7857 46.8033C80.5688 46.6445 80.4209 46.5353 80.2893 46.4385C79.7554 47.0626 79.208 47.7025 78.6556 48.3484C78.8682 48.4544 79.0644 48.5517 79.3504 48.6936C79.084 49.0313 78.8551 49.3216 78.6404 49.594C78.6752 49.7141 78.6752 49.825 78.7301 49.887C79.6331 50.8993 80.7042 51.8046 81.4082 52.9387C82.2014 54.2157 83.1925 55.5342 82.731 57.2728" fill="#172327"/>
<path fill-rule="evenodd" clip-rule="evenodd" d="M103.303 35.8366C103.394 35.7453 103.464 35.6752 103.537 35.6029C103.483 35.5343 103.438 35.4555 103.375 35.3973C102.99 35.0467 102.505 34.746 102.194 34.4024C101.889 34.0664 101.547 33.8104 101.238 33.5026C100.828 33.0933 100.37 32.5072 100.348 31.9804C100.31 31.0376 100.253 30.0922 100.477 29.1043C100.863 27.3988 101.757 26.1076 102.94 24.9294C104.441 23.4338 105.938 21.9333 107.514 20.3577C106.916 19.8428 106.885 18.8707 105.938 18.6815C105.54 17.9079 105.144 17.1342 104.746 16.3606C104.379 15.6467 104.445 14.8764 104.448 14.1136C104.452 13.5705 104.449 13.0273 104.449 12.4842C104.949 11.8465 105.449 11.2087 105.94 10.5824H108.41C108.014 11.2582 107.676 11.8361 107.343 12.4037C108.257 13.067 108.592 11.6301 109.395 12.0683C109.895 12.7539 108.964 13.0768 108.668 13.7401C109.238 13.6036 109.569 13.5237 109.974 13.4264C110.215 14.131 110.094 14.7475 109.715 15.4097C109.918 15.4885 110.077 15.5505 110.317 15.6435C110.489 15.8272 110.133 15.8539 110.073 16.1246C110.311 16.4889 110.601 16.9325 110.959 17.4811C113.405 14.9139 116.525 13.1931 118.433 10.2611H119.92C119.806 10.7504 119.705 11.1777 119.568 11.7622C119.982 11.6165 120.3 11.5045 120.736 11.3506V12.501C120.974 12.5636 121.108 12.5984 121.241 12.6337C121.279 12.7169 121.338 12.7979 121.348 12.8843C121.366 13.03 121.328 13.1844 121.357 13.3274C121.658 14.8671 120.892 16.0888 120.087 17.2424C119.217 18.4907 118.207 19.6417 117.186 20.9253C117.915 21.8001 119.08 22.2252 120.105 23.0418C120.124 23.1766 120.155 23.4039 120.192 23.6654C120.463 24.0052 120.903 24.3341 121.027 24.756C121.3 25.6808 121.975 26.542 121.516 27.7359C121.404 27.787 121.158 27.9082 120.905 28.0159C120.653 28.123 120.395 28.2154 120.109 28.3269C119.716 27.9278 118.83 28.0545 118.949 27.2776C118.043 27.0161 117.247 26.7855 116.475 26.5621C116.298 26.2549 116.138 25.9766 115.957 25.6618H114.319C114.278 25.4851 114.246 25.3513 114.207 25.1861C113.601 24.7201 113.092 25.2687 112.738 25.3633C112.254 25.9244 111.884 26.3539 111.475 26.8274C111.357 26.7382 111.263 26.6665 111.1 26.5431C110.925 26.7904 110.736 27.0568 110.507 27.3814C110.476 27.3417 110.551 27.438 110.661 27.5804C109.974 27.7527 109.914 28.4432 109.612 29.0113C109.374 28.8651 109.218 28.7689 108.979 28.6215C108.938 28.8771 108.898 29.1271 108.85 29.4229C108.748 29.4506 108.615 29.4865 108.377 29.5512C108.313 30.152 108.228 30.8838 107.337 30.6842C107.038 31.0719 106.537 31.4323 106.571 31.7324C106.674 32.6344 105.918 33.0655 105.712 33.7707C105.615 34.6618 105.629 34.6612 105.905 35.2565C105.26 35.7708 104.532 36.1172 103.695 36.3308C103.586 36.1927 103.463 36.0394 103.303 35.8366" fill="#172327"/>
<path fill-rule="evenodd" clip-rule="evenodd" d="M16.5921 19.0847C16.223 19.1304 16.0006 19.1581 15.7201 19.1929C15.8908 19.3821 15.9881 19.4892 16.1436 19.6616C15.7755 20.3461 15.078 20.7565 14.605 21.3551L14.8366 21.5867C14.4598 21.8825 14.0825 22.1782 13.7618 22.43C13.5845 22.897 13.9629 23.4238 13.3393 23.713C13.8917 24.0833 14.3968 24.4138 14.8931 24.7563C16.4497 25.8317 18.1144 26.7543 19.3975 28.2027C20.1325 29.0318 20.8246 29.8332 20.8377 31.0238C20.8399 31.2244 21.0437 31.4223 21.2063 31.7165C20.7588 31.9997 20.3397 32.2645 19.8145 32.5967C16.8553 30.8629 13.796 29.3178 10.9901 27.0534C10.7889 27.1681 10.3497 27.2648 10.2686 27.4905C9.94734 28.3843 9.31776 29.0117 8.67677 29.6516C8.59848 29.7299 8.62784 29.9153 8.60664 30.0523C8.33208 30.0827 8.09884 30.1077 7.74274 30.1469C7.81124 30.3812 7.86941 30.5802 7.97108 30.9287C7.40022 31.4066 6.97398 32.1177 6.74945 33.0006C6.61896 33.5133 6.12748 33.9336 5.68711 34.5528V37.7746C5.40657 37.7926 5.17279 37.8072 4.90802 37.8241C4.85094 37.9845 4.79004 38.1563 4.71719 38.3623H3.69508C3.53524 37.8991 3.3716 37.4239 3.1824 36.8765C2.89806 37.0015 2.61426 37.126 2.27609 37.2744C2.2065 37.0591 2.15159 36.8906 2.09668 36.7221C2.01296 36.6873 1.92053 36.6101 1.84496 36.6242C1.21756 36.7433 0.788058 36.2126 0.710856 35.875C0.396069 34.5006 -0.493382 33.1414 0.36073 31.6659C0.376496 30.2045 1.28389 29.0894 1.7982 27.8183C1.9662 27.4035 2.6882 27.4763 2.49248 26.7598C2.41201 26.4651 2.94699 25.9981 3.21013 25.6148C3.4488 25.2674 3.67334 24.9069 3.94789 24.59C4.27029 24.2176 4.66282 23.9055 4.9825 23.5314C5.24836 23.2194 5.45333 22.8557 5.71375 22.4729C3.91201 21.1197 2.80998 19.1973 1.54703 17.4048C1.14199 15.6705 0.442281 13.9861 0.715205 11.9555C1.1322 11.4765 1.66555 10.8633 2.23912 10.2049C2.87414 10.3354 3.58798 9.94176 4.16808 10.6034C3.78805 11.1155 3.41074 11.6239 3.02963 12.1377C3.13456 12.2486 3.23187 12.353 3.3281 12.4552C4.13274 12.6215 4.42741 11.4505 5.26793 11.7217C5.39298 11.9642 5.51748 12.2072 5.64796 12.4595C5.38917 12.6253 5.09287 12.8156 4.78189 13.0146C4.97163 13.2049 5.11136 13.3446 5.25108 13.4843C5.6708 13.0499 6.07855 13.0445 6.57166 13.6387C6.52708 13.9698 6.7837 14.4483 6.28841 14.8337C6.49392 14.9327 6.69508 15.0295 6.98268 15.167C6.74618 15.4851 6.53633 15.7667 6.32157 16.0554C6.52165 16.1266 6.69345 16.1869 7.05282 16.3147C6.72226 16.4039 6.56568 16.4457 6.29167 16.5197C6.32049 16.7605 6.26286 17.09 6.39986 17.2743C6.96746 18.0376 7.59377 18.7569 8.26521 19.5729C8.63491 19.2413 8.91871 18.9945 9.19326 18.7384C10.8156 17.2259 12.1731 15.4122 14.1853 14.3412C14.1744 13.7839 14.7578 13.823 15.0089 13.5246C15.2933 13.1869 15.6092 12.876 15.813 12.658H16.8096C16.3578 13.3229 15.588 13.6985 15.8391 14.6565C16.4828 14.2727 17.113 13.897 17.8806 13.4398C17.8121 13.8785 17.7588 14.2167 17.699 14.601C17.9676 14.7364 18.3667 14.9392 18.7951 15.1556C18.6847 15.3845 18.5923 15.5753 18.4847 15.7988C18.6396 15.8314 18.7744 15.8591 18.9152 15.8885C18.9299 15.9461 18.9865 16.0445 18.9593 16.0809C18.5983 16.5681 18.115 16.9986 17.885 17.5385C17.5968 18.2159 16.9613 18.5209 16.5921 19.0847" fill="#172327"/>
<path fill-rule="evenodd" clip-rule="evenodd" d="M43.657 34.2189C44.8384 32.7695 45.8361 31.5647 46.813 30.3431C47.7384 29.1861 48.5294 27.9368 49.2487 26.6564C49.1568 26.5428 49.0677 26.433 48.9149 26.2448C49.1661 25.96 49.4145 25.6773 49.6782 25.3777H50.6552C51.0205 25.743 51.3147 26.2644 51.7327 26.3976C52.2433 26.5596 52.3156 26.9679 52.5216 27.2729C53.236 28.3293 53.7329 29.4014 53.1838 30.778C52.8462 31.6245 52.5042 32.4715 52.153 33.3142C52.0475 33.5681 51.9703 33.834 51.836 34.2205L51.0874 34.9697V35.9027C50.5013 36.9645 50.0137 37.8496 49.4798 38.8173C50.2175 39.3186 50.8971 39.8019 51.5974 40.2532C52.9848 41.1475 54.1325 42.2582 54.8181 43.7843C54.9654 44.1127 55.0329 44.4775 55.1862 44.9902C55.1334 45.1071 55.0046 45.3947 54.8621 45.71C54.5566 45.8525 54.2266 46.0063 53.9689 46.1259C53.2719 45.8851 52.6554 45.7051 52.066 45.4599C51.4761 45.2153 50.9134 44.9054 50.3388 44.6243C50.2409 43.7658 49.2623 44.1127 48.8594 43.5288C48.5289 43.0493 47.7938 42.8497 47.149 42.4741C45.2168 44.4454 43.5151 46.5989 41.9537 48.8671C41.8335 49.0411 41.8721 49.3244 41.8373 49.5565C41.1567 50.0806 40.4836 50.0007 39.8083 49.5244V49.0531C38.9309 48.5273 38.1083 48.0348 37.2085 47.4954C36.7779 46.9909 36.997 46.1982 36.7165 45.585C36.4039 44.9021 36.6681 44.241 36.5496 43.7387C37.5303 41.5525 38.6911 39.6377 40.3531 37.9855V36.9764C39.3924 36.3072 38.7955 35.2639 38.1909 34.2407C37.9881 33.8976 37.9566 33.4496 37.8636 33.0462C37.675 32.2253 37.3928 31.431 37.4178 30.5589C37.4662 28.8909 38.4133 27.7008 40.0057 27.1022C41.0099 26.7249 41.9852 26.9147 43.065 26.8086C42.4838 28.0118 41.0914 27.909 40.2775 28.9175C41.6813 28.8556 42.5365 27.5334 43.968 27.7856C43.9125 28.1227 43.8571 28.4603 43.7984 28.8159C44.061 28.9083 44.4464 29.0448 44.8172 29.1763V31.0591C44.4356 31.7251 44.0164 32.3895 43.6744 33.0919C43.564 33.3175 43.657 33.6426 43.657 34.2189" fill="#172327"/>
<path fill-rule="evenodd" clip-rule="evenodd" d="M68.7128 15.7622C68.1577 16.4581 67.651 17.0942 67.0904 17.7966V19.6989C66.569 19.9083 66.0618 20.1127 65.4888 20.3427C64.8113 19.6848 64.5368 18.8122 64.3199 17.9875C64.0295 18.0957 63.7729 18.1908 63.3918 18.3322C63.0928 17.9021 62.7291 17.5221 62.5328 17.0697C61.9456 15.7144 61.9924 14.2671 62.0565 12.9052C62.3028 12.3441 62.5225 11.8429 62.7965 11.2171C62.3866 11.1557 62.0234 11.2127 61.8728 11.0605C60.9148 10.0922 59.9694 9.10709 59.0913 8.06704C58.6184 7.50597 58.1193 6.8715 57.9306 6.1881C57.6555 5.18774 57.649 4.11344 57.519 2.99619C57.9703 2.36172 58.3373 1.61852 58.9103 1.10638C59.4371 0.635555 60.1863 0.413736 60.9986 0C61.1878 0.204965 61.3721 0.403406 61.5585 0.605109C61.4498 0.709495 60.002 2.10402 60.002 2.10402C60.1064 2.20895 60.2113 2.31388 60.3657 2.46774C61.0285 1.98441 61.6885 1.35212 62.766 1.76912C62.4986 2.13555 62.2903 2.42044 61.9244 2.92116C62.4192 2.72816 62.6954 2.62105 63.0781 2.47209C63.2586 2.74392 63.4522 3.03588 63.687 3.39035C63.2782 3.79974 62.9569 4.12105 62.5692 4.50923C62.8193 4.56034 62.9542 4.58861 63.1781 4.63482C62.8422 5.20133 63.0319 5.98477 62.1658 6.274C63.0254 7.33145 63.9822 7.91427 64.9532 8.55906C68.2218 5.84885 71.4192 3.19735 74.6595 0.51051H76.0899C75.8392 1.01287 75.6402 1.41355 75.4385 1.81913C75.868 2.14697 76.2078 1.7789 76.5884 1.61363C77.6877 2.63954 77.9465 3.92044 77.7203 5.34921C77.2637 5.93529 76.7945 6.53714 76.3155 7.15149C76.3465 7.17976 76.4177 7.24609 76.6134 7.42713C76.3497 7.46084 76.0958 7.49346 75.8414 7.52608C75.9409 7.63264 76.0404 7.73975 76.1399 7.84685H75.5881C74.5719 9.75895 72.8545 11.06 71.5969 12.8019C73.3204 13.762 75.2488 14.4764 77.0723 15.5632C77.1277 15.8372 77.1903 16.1482 77.2637 16.5157C77.4877 16.2787 77.6557 16.1009 77.8177 15.9297C78.5516 16.0286 78.5364 16.8724 79.1524 17.1812C79.6917 17.4519 80.0065 18.1707 80.4262 18.698V20.4585C80.2838 20.6009 80.144 20.7406 79.9483 20.9364C78.4217 20.7733 77.1593 19.9034 75.7691 19.1999C75.7408 19.2254 75.6375 19.3189 75.5924 19.3597C74.6198 19.1194 74.0397 18.0755 72.9175 18.2316C72.3945 17.559 71.5344 17.5069 70.8635 17.1105C70.1856 16.7104 69.5288 16.276 68.7128 15.7622" fill="#172327"/>
<path fill-rule="evenodd" clip-rule="evenodd" d="M111.891 39.4508C112.197 39.6237 112.438 39.7596 112.792 39.9591C112.711 40.4419 112.63 40.9285 112.53 41.5276C112.779 41.9593 112.987 42.6166 113.741 42.8819C114.078 42.4111 114.286 41.8723 114.935 41.6092C115.391 41.4238 115.659 40.7741 116.009 40.3299C116.393 39.8412 116.927 39.5073 117.23 38.912C117.485 38.4113 118.032 38.0688 118.377 37.6023C118.733 37.1201 119.003 36.5737 119.31 36.0561H120.981C121.069 36.5247 121.214 36.988 120.662 37.4718C121.138 37.4936 121.507 37.5104 121.844 37.5257C121.994 38.2172 122.13 38.8435 122.264 39.4557C122.024 39.5498 121.854 39.6161 121.653 39.6944C121.674 39.8303 121.671 39.9722 121.719 40.0929C122.132 41.1134 122.065 41.4635 121.271 42.2513C120.939 42.5796 120.8 43.0907 120.935 43.4098C121.147 43.9111 120.511 43.7181 120.811 44.1808C120.493 43.9182 120.393 43.8355 120.22 43.6931V44.5189C119.907 44.5793 119.636 44.6309 119.314 44.6924V45.503C118.935 45.8982 118.667 46.1777 118.444 46.4104C118.961 46.9165 119.438 47.383 119.834 47.7717V48.8884C120.154 49.2081 120.488 49.5425 120.831 49.8861C120.724 50.0753 120.656 50.1943 120.537 50.4037C120.693 50.719 120.884 51.1072 121.13 51.6079C120.844 52.2049 120.528 52.8643 120.228 53.4906H118.992C117.553 52.667 116.157 51.8672 114.765 51.0702C114.518 51.4513 114.322 51.7547 114.156 52.0119C113.899 51.8868 113.701 51.79 113.361 51.6242V53.0041C112.91 52.8361 112.594 52.7186 112.004 52.499C112.247 52.8317 112.314 52.9225 112.443 53.0976C112.171 53.3531 111.883 53.6233 111.428 54.0506C111.337 53.4988 111.28 53.153 111.217 52.7725C111.425 52.7007 111.594 52.6425 111.808 52.568C111.829 52.4566 111.855 52.3217 111.886 52.157C111.698 52.0918 111.526 52.0331 111.353 51.9733C111.417 51.7112 111.481 51.447 111.591 50.999C111.317 51.2507 111.211 51.348 111.148 51.4057C110.516 51.2871 109.919 51.1757 109.29 51.0582C109.194 50.8723 109.068 50.6298 108.92 50.346C109.032 49.9122 109.159 49.4196 109.288 48.9173C109.577 48.9651 109.945 49.0265 110.314 49.0874C110.329 49.0331 110.343 48.9787 110.359 48.9238C109.975 48.7308 109.591 48.5378 109.252 48.3676C109.451 47.9577 109.648 47.5494 109.854 47.1242C108.878 45.4676 107.815 43.904 107.215 42.1045C106.854 40.8649 107.281 39.64 107.459 38.42C107.598 37.4713 108.382 36.8004 109.241 36.3203C109.363 36.2518 109.479 36.173 109.675 36.0512H111.149C111.382 36.2839 111.591 36.4938 111.738 36.6411C111.448 36.9314 111.153 37.2261 110.978 37.4006V38.3129C111.305 38.2281 111.618 38.1471 111.977 38.0541C112.165 38.2297 112.338 38.3912 112.577 38.6146C112.326 38.9213 112.119 39.1741 111.891 39.4508" fill="#172327"/>
<path fill-rule="evenodd" clip-rule="evenodd" d="M22.7223 54.6792C22.8897 54.8467 23.0295 54.9864 23.2274 55.1843C22.3189 55.9612 21.4153 56.7332 20.5122 57.5058C20.5324 57.558 20.553 57.6102 20.5737 57.6618C20.7656 57.6058 20.9999 57.6009 21.1396 57.4835C21.4006 57.2649 21.6061 56.9817 21.9644 56.911C22.5978 56.5538 23.2312 56.1961 23.8471 55.8481C24.3843 56.2825 23.9923 56.6256 23.7612 57.1524C24.113 57.0192 24.3408 56.9328 24.586 56.8393C24.6931 56.9464 24.8328 57.0861 24.9731 57.2263C24.9736 57.8184 24.9736 58.411 24.9736 59.0107C24.8008 59.1792 24.6246 59.3521 24.4381 59.5337C24.4653 59.6022 24.4724 59.6968 24.5229 59.7338C24.86 59.9866 25.1965 60.2427 25.5521 60.4677C25.9343 60.7091 26.4693 60.7787 26.484 61.3969C26.4856 61.4681 26.6063 61.5486 26.6857 61.6046C26.9907 61.8193 27.3479 61.9819 27.5963 62.2477C27.8442 62.5125 27.9851 62.8773 28.2357 63.3057C28.2357 63.5563 28.2357 63.9516 28.2351 64.3463C27.9899 64.591 27.7458 64.8356 27.5414 65.04C25.6717 64.3719 23.8238 63.7118 21.9764 63.0518C21.5659 63.2709 21.1239 63.5063 20.6813 63.7417C20.6628 63.7118 20.6444 63.6819 20.6259 63.652C20.2415 64.0359 19.8571 64.4202 19.3662 64.9112C19.3591 65.0281 19.345 65.2575 19.327 65.55C18.5485 66.2986 17.7335 67.0832 17.0762 67.716C16.7462 68.7397 16.9137 69.7912 15.5496 70.007C15.2674 69.5558 14.254 69.4835 14.4851 68.4315C14.2045 68.3505 13.8599 68.2499 13.4842 68.1412C13.3994 68.1982 13.2466 68.3004 13.1275 68.3798C12.7459 67.9764 12.4126 67.623 11.9282 67.1103C11.82 66.1856 11.6813 65.002 11.5356 63.7564C12.7671 62.425 13.9805 61.1131 15.268 59.7207C14.7645 59.4054 14.2453 59.1417 13.8006 58.7856C13.3406 58.417 12.953 57.9581 12.5219 57.527C12.6409 57.1426 12.7622 56.7506 12.8927 56.3271C12.6513 56.2445 12.4789 56.1852 12.2647 56.1113V55.1098C12.3474 55.0266 12.4523 54.9223 12.5735 54.8005C12.9976 54.7162 13.4429 54.6276 13.9931 54.5178C15.4577 55.3398 17.0594 56.2385 18.6175 57.1122C20.1801 56.5179 21.1929 55.1473 22.7223 54.6792" fill="#172327"/>
</svg>
