<svg width="139" height="135" viewBox="0 0 139 135" fill="none" xmlns="http://www.w3.org/2000/svg">
<path d="M49.6092 81.6711C49.4903 81.7794 50.1453 80.5324 50.1891 80.407C49.7135 81.7604 50.5094 81.1299 50.5587 81.5078C50.4578 81.1363 50.4736 80.7761 50.6059 80.426C50.6337 80.6375 50.6967 80.9628 50.7844 81.1489C51.0024 79.431 51.1485 78.0675 50.7483 76.0919C50.7489 76.2388 50.7503 76.2603 50.7535 76.1571C50.7589 76.2692 50.7546 76.3793 50.74 76.4876C50.3853 74.9722 50.0627 73.0713 49.7158 72.7212C49.8138 73.7783 49.6213 72.763 49.4726 72.5997C49.4471 74.462 49.5983 74.0822 49.166 73.5859C49.1935 74.1512 49.2213 74.7171 49.2491 75.283C48.9864 73.6302 48.9617 74.367 48.7586 72.6889C48.7368 73.234 48.3524 73.6479 48.4509 73.6682C48.5145 72.9092 48.31 72.8288 48.671 72.3611C48.4461 72.756 48.3856 72.4921 48.4899 71.5692C48.3595 71.4958 47.9195 72.406 47.7244 70.6691C47.8682 70.15 47.2534 71.8882 47.3379 72.1705C47.1663 70.0627 46.8807 73.3935 47.0666 70C47.0666 70.3108 47.038 70.6064 46.9812 70.8862C47.093 70.3982 47.0829 70.1722 46.9511 70.207C46.9274 70.6013 46.748 72.4668 46.7449 72.4484C46.83 72.5313 45.9811 71.204 46.1799 72.187C46.0464 70.6052 46.2653 72.8978 46.1028 71.2172C46.1885 71.7907 45.9751 72.8124 46.0407 70.5039C45.9977 71.2742 45.9822 71.2514 45.9943 70.4349C45.955 71.297 45.886 70.0943 45.908 70.231C45.867 70.9058 45.6519 71.1096 45.7989 71.8863C45.7562 71.6616 45.7304 71.4483 45.6828 71.1502C45.7588 72.5314 45.3691 70.3937 45.5654 71.9154C45.5657 71.8927 45.5502 71.1096 45.5528 71.116C45.362 71.0906 45.6015 72.218 45.3093 70.7564C45.2926 71.3002 43.3453 70.3785 43.3356 71.6844C43.3642 71.9237 43.1394 70.6577 43.1451 70.7792C43.2571 70.5387 42.1681 72.8086 42.3902 71.2198C42.2446 72.2598 40.3291 72.1452 40.3271 72.1781C39.9541 75.0298 39.91 78.0789 40.1444 81.0014C40.2541 81.0147 49.4061 82.6909 49.6092 81.6711Z" fill="black"/>
<path d="M25.732 9.99885C25.66 10.04 26.2484 8.9681 26.2611 8.93454C25.8225 10.0779 26.5403 9.53166 26.5855 9.88733C26.4977 9.57497 26.5145 9.26747 26.6362 8.96431C26.6923 9.39739 26.6041 9.08503 26.791 9.59012C26.9983 8.15336 27.1286 6.86278 26.8014 5.26415C26.801 5.38975 26.8023 5.40924 26.8059 5.32046C26.8 5.13044 26.0483 2.51407 25.8773 2.34841C25.9537 3.16749 25.8397 2.50919 25.6532 2.23852C25.6243 3.66228 25.8687 3.62492 25.365 3.0749C25.389 3.55942 25.412 4.04393 25.4347 4.52844C25.2043 3.1285 25.1758 3.74024 24.9925 2.30186C24.9925 2.77013 24.5395 3.09438 24.706 3.13606C24.7567 2.11073 24.659 2.20169 24.7463 1.34094C24.5504 1.43026 24.2037 1.93859 24.0358 0.568418C24.0426 1.18502 24.0249 1.24781 23.9842 0.75788C24.0385 1.23211 23.4655 1.20125 23.6787 1.85467C23.4542 -0.240923 23.2266 3.44249 23.4221 0C23.4244 0.257686 23.3986 0.510487 23.3452 0.75897C23.5144 0.349163 23.5045 0.155358 23.3157 0.178095C23.2818 0.719452 23.0704 1.76643 23.1311 2.09829C23.1963 2.13781 22.4097 1.01342 22.607 1.885C22.4635 0.421173 22.7034 2.605 22.5305 1.0578C22.6491 1.80541 22.431 1.99924 22.469 0.449335C22.4332 1.10925 22.4187 1.09027 22.4251 0.39138C22.3948 1.11193 22.3219 0.101778 22.3436 0.219794C22.3029 1.14822 22.02 0.551643 22.2522 1.63815C22.2106 1.44326 22.1798 1.23049 22.1395 1.01124C22.2355 2.42256 21.7983 0.0687566 22.0359 1.66901C22.0363 1.56777 22.0961 1.1666 22.0187 0.986331C21.9363 0.937609 22.0848 1.95969 21.7897 0.687501C21.787 0.800644 20.9162 0.969027 20.2709 1.45354C20.2021 0.780094 19.9627 0.970117 19.9676 1.5759C19.9722 1.60513 19.7825 0.880249 19.7785 0.814745C19.9907 0.599826 18.8964 2.68351 19.0842 1.24459C19.0385 1.4909 19.0145 1.73991 19.0123 1.9911C18.4235 1.76102 17.1834 2.42798 17.1948 2.24608C16.916 4.74661 16.9454 7.30018 17.226 9.80017C16.5689 9.73791 25.7605 9.86675 25.732 9.99885Z" fill="black"/>
<path d="M34.4836 42.5932C34.5602 42.6091 36.3337 42.0546 35.1594 43.4184C35.338 43.1271 35.5706 42.9609 35.8571 42.9201C35.7866 43.0025 35.5383 43.3801 35.5188 43.4533C36.7352 42.7878 37.5914 42.3381 38.6276 40.8798C38.5367 40.9541 38.5241 40.9666 38.5903 40.9178C39.2068 40.3607 40.0009 38.079 40.007 37.8944C38.7684 38.8641 39.1746 38.6596 39.2114 38.0935L38.2134 39.0289C39.0925 37.9206 38.6167 38.2766 39.5175 37.2465C39.102 37.4396 38.8072 37.4622 38.7265 37.4416C39.0626 37.3115 39.1189 36.8898 39.6666 36.9955C39.3068 37.0226 39.433 36.8308 40.0458 36.4198C39.978 36.2728 39.2045 36.2649 40.137 35.2182C40.5636 35.0845 39.0509 35.468 38.9782 35.6004C39.7958 34.7022 38.582 35.3315 40.1526 34.2352C39.4076 34.7438 39.6106 34.4637 39.9556 34.2271C39.5049 34.5363 39.076 34.8753 38.6415 35.2171C38.6264 35.2251 38.5547 34.0748 38.2748 34.4746C39.0449 33.6691 38.0077 34.7911 38.8252 33.9067C38.4717 34.3019 37.848 34.5302 39.2272 33.4826C38.7279 33.8322 38.7327 33.8053 39.2418 33.4021C38.675 33.8113 39.3744 33.1389 39.3157 33.2141C39.0861 33.3629 38.4128 33.6985 38.2327 33.9479C38.3616 33.7699 38.4051 33.7306 38.6164 33.4594C38.0434 34.0135 38.6047 33.1091 38.0761 33.733C38.0883 33.7232 38.5454 33.3326 38.5596 33.3143C38.5689 33.4934 37.79 30.6892 36.9046 31.4125C36.726 31.6203 37.5272 30.5897 37.3483 30.76C37.4414 30.7324 35.7741 30.7019 36.6389 30.2352C35.8779 30.6457 34.9822 28.5894 34.8661 28.6694C32.9414 29.7522 30.9959 31.3285 29.3677 33.0433C29.6321 33.7603 32.6793 43.3555 34.4836 42.5932Z" fill="black"/>
<path d="M16.6009 47.8414C16.541 47.951 16.4579 46.9862 16.4498 46.9536C16.6579 47.0566 16.8311 47.2267 16.9695 47.464C16.9793 47.378 16.6281 47.0949 16.657 46.8445C16.7766 47.0029 16.823 47.0696 16.9875 47.206C16.5165 46.1732 16.1024 45.3171 15.2624 44.3333C15.3119 44.4165 15.3206 44.4289 15.287 44.3689C15.243 44.2999 13.7185 42.751 13.6152 42.7168C14.0167 43.2816 13.6003 42.7746 13.455 42.7213C14.0558 43.7552 14.0492 43.5378 13.6403 43.3751C13.8461 43.6882 14.0519 44.0017 14.2576 44.3147C14.0924 43.991 13.9904 43.8884 13.9516 44.0074C13.4889 43.6026 13.7083 43.7491 13.1371 42.9906C13.3294 43.3091 13.2315 43.6603 13.3224 43.642C12.9297 42.9013 12.9376 43.0659 12.625 42.4377C12.5712 42.5486 12.5854 43.0251 11.9468 42.1696C12.1965 42.5759 12.2129 42.6237 11.9957 42.313C12.183 42.5673 11.9474 42.8276 12.2759 43.1455C11.4514 42.0143 12.4866 44.0047 11.4008 42.0037C11.5062 42.1772 11.5939 42.3538 11.664 42.5334C11.561 42.217 11.4784 42.0919 11.4164 42.1584C11.5747 42.4536 12.0276 43.4216 12.0887 43.4956C12.1473 43.5123 11.2904 43.0363 11.7311 43.5343C11.1005 42.6542 12.0393 43.9375 11.3606 43.0121C11.6313 43.3507 11.8069 43.8814 11.085 42.6297C11.3305 43.0799 11.3152 43.0719 11.0389 42.6062C11.3156 43.1022 10.8689 42.4487 10.9278 42.5201C11.2147 43.0233 11.0104 42.9877 11.4477 43.4921C11.35 43.3792 11.2558 43.2574 11.1383 43.1154C11.6941 43.9325 10.6682 42.7153 11.3477 43.5873C11.3318 43.5601 11.0899 43.1603 11.0655 43.1401C10.9979 43.1195 11.4732 43.7485 10.8271 43.0208C11.0044 43.3282 9.78349 43.4968 10.236 44.2364C10.3065 44.3268 9.81487 43.7702 9.83309 43.7969C9.80896 43.6117 10.1126 45.3185 9.64434 44.3201C9.93913 44.9481 9.05388 45.6171 9.06339 45.6348C9.91406 47.3785 10.9627 49.0817 12.102 50.6335C12.016 50.687 16.6853 48.0593 16.6009 47.8414Z" fill="black"/>
<path d="M109.77 120.804C109.598 120.886 110.266 119.769 110.282 119.727C110.486 119.976 110.587 120.275 110.586 120.627C110.669 120.538 110.413 119.999 110.656 119.741C110.693 119.993 110.703 120.097 110.82 120.354C111.007 118.91 111.129 117.698 110.766 116.069C110.767 116.193 110.769 116.212 110.771 116.124C110.767 116.02 109.916 113.324 109.801 113.22C109.898 114.103 109.734 113.274 109.576 113.121C109.568 114.65 109.735 114.406 109.302 113.962C109.332 114.441 109.362 114.92 109.393 115.398C109.427 114.934 109.369 114.755 109.219 114.861C108.908 114.115 109.092 114.419 108.918 113.212C108.926 113.688 108.506 114.012 108.646 114.051C108.704 112.98 108.582 113.166 108.659 112.271C108.495 112.359 108.128 112.893 107.939 111.536C107.955 112.146 107.939 112.209 107.891 111.726C107.943 112.128 107.406 112.263 107.603 112.826C107.381 111.045 107.197 113.91 107.319 111C107.324 111.26 107.302 111.511 107.253 111.755C107.368 111.339 107.355 111.147 107.215 111.181C107.195 111.609 107.035 112.969 107.06 113.091C107.127 113.147 106.329 112.067 106.534 112.902C106.377 111.523 106.633 113.546 106.446 112.086C106.545 112.635 106.357 113.334 106.375 111.486C106.349 112.141 106.335 112.123 106.33 111.43C106.31 112.156 106.223 111.146 106.247 111.263C106.235 112.004 105.982 111.832 106.177 112.672C106.133 112.484 106.102 112.289 106.055 112.056C106.16 113.317 105.73 111.311 105.961 112.712C105.961 112.672 105.951 112.074 105.934 112.036C105.857 111.97 106.004 112.971 105.702 111.75C105.697 112.204 103.873 111.6 103.898 112.708C103.922 112.854 103.695 111.921 103.698 111.963C103.815 111.743 102.85 113.822 103.013 112.418C102.911 113.301 101.145 113.466 101.143 113.491C100.904 115.965 100.972 118.522 101.288 120.971C101.125 120.974 109.71 121.099 109.77 120.804Z" fill="black"/>
<path d="M101.146 88.3945C100.625 88.363 100.173 88.97 100.451 87.7493C100.893 84.954 92.3343 94.9005 96.0166 93.1977C95.6941 92.2775 97.1115 90.2286 97.6427 90.7769C97.6378 90.7928 97.7049 90.5682 97.7447 90.5643C97.6902 90.649 97.7327 90.6438 97.872 90.5485C97.0526 92.1363 96.7014 92.6935 96.7182 93.2572C97.6999 92.2465 97.3849 92.4607 97.361 92.941C97.6271 92.6244 97.8931 92.3077 98.1589 91.9915C97.4629 93.0481 97.8427 92.6718 97.1274 93.6799C97.4113 93.4738 97.7772 93.3729 97.7698 93.3602C97.4666 93.5523 97.4716 93.8619 97.011 93.9104C97.3067 93.8234 97.2082 94.0022 96.7149 94.4471C96.7772 94.5521 97.4111 94.3914 96.681 95.4177C96.3294 95.6177 97.5653 94.9981 97.6275 94.8606C96.8348 95.9049 98.2006 94.7581 96.7145 96.1903C96.8741 96.0178 97.0344 95.8772 97.1951 95.769C96.9053 95.9866 96.8003 96.1142 96.8799 96.1511C97.2399 95.8082 97.5812 95.4426 97.9269 95.0807C97.9394 95.0709 98.0541 95.9586 98.2776 95.5625C97.6561 96.398 98.5054 95.2236 97.85 96.1302C98.0612 95.8061 98.7347 95.3113 97.5388 96.5515C97.9372 96.1629 97.9352 96.1845 97.5318 96.6166C97.9807 96.1685 97.4354 96.8543 97.4823 96.7782C97.6899 96.5895 98.1878 96.2298 98.3481 95.953C98.2557 96.1128 98.2052 96.1803 98.0578 96.4188C98.5463 95.8021 98.0398 96.7611 98.4961 96.0759C98.504 96.0676 98.0981 96.5687 98.1166 96.5147C98.1573 96.6834 98.5352 95.9536 98.0844 96.8525C98.3503 96.5756 99.0713 98.1945 99.7129 97.4732C99.8405 97.2796 99.2799 98.2241 99.3992 98.0717C99.7205 97.8951 101.943 98.6856 101.869 98.7613C103.427 97.3771 104.909 95.6763 106.111 93.9655C106.014 93.7027 101.867 87.911 101.146 88.3945Z" fill="black"/>
<path d="M85.8886 85.1065C86.0055 85.0528 86.3494 83.0002 86.7227 84.8935C86.6181 84.6084 86.6174 84.3172 86.7199 84.0194C86.773 84.285 86.7626 84.3136 86.9081 84.5875C87.0309 83.2036 87.0949 82.0169 86.6719 80.5196C86.6782 80.6376 86.6807 80.6559 86.6793 80.5722C86.6681 80.4495 85.7284 77.9969 85.5958 77.8963C85.7253 78.7045 85.5444 77.9842 85.3691 77.8217C85.4244 79.2445 85.6025 79.0478 85.1337 78.6447C85.184 79.0968 85.2341 79.5494 85.2844 80.0015C85.3107 79.5545 85.2456 79.3895 85.0903 79.5065C84.7348 78.7949 84.9511 79.1239 84.7226 77.9653C84.7495 78.4159 84.3364 78.7586 84.4882 78.7852C84.4801 77.7952 84.3878 77.9254 84.4256 77.0927C84.2587 77.1934 83.9263 77.7282 83.6818 76.4572C83.7234 77.0355 83.7098 77.0968 83.6419 76.6417C83.7154 77.0411 83.1749 77.1678 83.4033 77.7114C83.0937 75.953 83.0486 78.9272 83.0454 76C83.0615 76.2452 83.0507 76.4858 83.0129 76.7234C83.121 76.3183 83.1004 76.138 82.9503 76.1814C82.9482 76.6304 82.8317 77.8299 82.8782 78.0097C82.9352 78.049 82.1117 77.0994 82.3499 77.8759C82.1316 76.5568 82.4787 78.5022 82.2275 77.1086C82.359 77.6675 82.1908 78.2237 82.132 76.5441C82.1348 77.1688 82.1194 77.153 82.0858 76.4955C82.097 77.1842 81.9676 76.234 81.9962 76.3443C82.0186 77.1132 81.7353 76.8302 81.9868 77.6889C81.9357 77.5142 81.8948 77.3247 81.8406 77.1142C82.0043 78.3489 81.4732 76.375 81.7758 77.7451C81.773 77.6925 81.7556 77.1709 81.7199 77.1055C81.6681 77.0662 81.8266 77.976 81.4778 76.8536C81.4928 77.2869 79.6621 76.8705 79.7345 77.9208C79.7572 78.0235 79.5039 77.2235 79.5046 77.2291C79.5963 77.0391 78.7462 79.0565 78.8462 77.7206C78.784 78.5517 77.0428 78.9027 77.0428 78.9032C76.9116 81.2802 77.0869 83.6945 77.5042 86C77.1929 86.0046 85.8631 85.2623 85.8886 85.1065Z" fill="black"/>
<path d="M79.5888 106.401C79.3782 106.351 80.3497 106.156 80.3818 106.14C80.5477 106.36 80.5907 106.558 80.51 106.734C80.6228 106.733 80.4523 106.341 80.7808 106.336C80.7672 106.458 80.7625 106.565 80.8235 106.718C81.3426 106.101 81.7217 105.578 81.6976 104.589C81.6716 104.651 81.6694 104.661 81.6904 104.619C81.6757 104.668 81.6518 104.712 81.6184 104.751C81.5721 103.954 81.6144 103.044 81.3443 102.733C81.2417 103.208 81.2606 102.724 81.1422 102.575C80.7819 103.317 81.0018 103.27 80.6742 102.848L80.4341 103.588C80.496 102.789 80.3359 103.082 80.466 102.296C80.3339 102.503 79.9096 102.512 79.995 102.564C80.3094 102.076 80.1422 102.107 80.4316 101.715C80.2551 101.676 79.7568 101.749 79.9056 101.004C79.7714 101.303 79.7402 101.325 79.8119 101.071C79.7656 101.285 79.2078 101.085 79.2597 101.447C79.4884 100.493 78.5981 101.745 79.4402 100.436C79.38 100.562 79.2955 100.67 79.1871 100.761C79.4002 100.621 79.4359 100.524 79.2947 100.469C79.1709 100.656 78.6674 101.234 78.6616 101.292C78.7136 101.354 78.2144 100.429 78.1975 100.926C78.4032 100.199 78.1246 101.277 78.3234 100.496C78.2769 100.803 77.9124 101.038 78.4116 100.178C78.2161 100.471 78.207 100.455 78.3835 100.129C78.1745 100.459 78.3554 99.9389 78.3471 100.007C78.1464 100.339 77.942 100.145 77.9107 100.629C77.9177 100.519 77.9389 100.41 77.9557 100.277C77.7262 100.915 77.8375 99.7627 77.6921 100.533C77.7018 100.515 77.8499 100.225 77.8446 100.203C77.6896 100.098 77.6646 100.688 77.699 99.945C77.5687 100.162 76.0107 98.8797 75.7216 99.3933C75.7011 99.4794 75.7567 98.9159 75.746 98.9412C75.9332 98.9084 74.4043 99.2973 74.972 98.7561C74.6141 99.0971 72.9051 98.1269 72.9065 98.1251C71.9072 99.056 71.1683 100.22 70.7107 101.489C70.6655 101.453 79.1889 106.746 79.5888 106.401Z" fill="black"/>
<path d="M89.5835 16.478C89.6254 16.4137 89.6843 14.3814 90.2288 16.1852C90.0997 15.8859 90.0554 15.5828 90.096 15.2736C90.1351 15.4024 90.2745 15.7626 90.3327 15.846C90.2213 14.3607 90.1328 13.2605 89.5306 11.6314C89.5536 11.7539 89.5583 11.7722 89.5442 11.6852C89.5654 11.7791 89.5793 11.8721 89.5855 11.9632C89.1198 10.8023 88.5601 9.20491 88.2902 8.99113C88.5208 9.85771 88.2154 9.04995 88.1012 8.92757C88.3763 10.536 88.3857 10.1179 88.0363 9.79787C88.1422 10.2656 88.2477 10.7334 88.3536 11.2011C87.9123 9.8503 88.0106 10.4771 87.6132 9.10961C87.5889 9.46388 87.5596 9.97244 87.5458 9.97221C87.4806 9.25478 87.3473 9.43932 87.5015 8.84874C87.4187 9.20755 87.336 8.99594 87.2538 8.21391C87.1513 8.21114 86.9714 8.96468 86.5784 7.56907C86.6014 7.09005 86.4532 8.69698 86.533 8.8725C86.1321 7.28292 86.3608 9.6956 86.0133 7.09424C86.0606 7.36025 86.0852 7.61126 86.0871 7.84508C86.0772 7.42058 86.036 7.2326 85.9631 7.28124C86.0379 7.86267 86.1368 8.44085 86.2322 9.02019C86.2342 9.05258 85.5277 8.50561 85.7158 9.02508C85.4021 7.79363 85.8638 9.53597 85.5152 8.22404C85.6546 8.68463 85.666 9.57935 85.3636 7.63465C85.4491 8.28292 85.4348 8.2653 85.3206 7.58292C85.4236 8.31482 85.1949 7.31688 85.2289 7.42209C85.284 7.85808 85.236 8.34708 85.4002 8.81629C85.334 8.62684 85.2961 8.48957 85.2073 8.21415C85.4363 9.21801 84.9265 7.80367 85.2386 8.86621C85.2388 8.86726 85.088 8.15931 85.1097 8.19959C84.9615 8.1112 85.3294 9.04086 84.8828 7.92347C84.9539 8.38876 83.4275 7.78249 83.6141 8.87208C83.6842 9.11923 83.3046 7.9526 83.3434 8.13008C83.3627 7.97049 82.9374 9.77706 82.8679 8.54896C82.9197 9.46422 81.5148 9.37256 81.5239 9.45005C81.6705 11.8311 82.0911 14.4171 82.6862 16.8362C82.9679 16.9114 89.6052 18.0248 89.5835 16.478Z" fill="black"/>
<path d="M73.1211 134.824C73.2867 134.793 73.9128 133.163 74.2385 134.751C74.1263 134.506 74.1506 134.267 74.3112 134.036C74.3576 134.26 74.3401 134.279 74.5089 134.521C74.7882 133.402 74.9598 132.442 74.5439 131.169C74.5421 131.266 74.5439 131.281 74.549 131.212C74.5444 131.11 73.5696 128.996 73.4128 128.898C73.5011 129.57 73.3465 128.97 73.1368 128.808C73.0751 129.965 73.3263 129.848 72.7655 129.45C72.7858 129.826 72.8064 130.201 72.8267 130.577C72.9072 130.216 72.841 130.073 72.6285 130.149C72.2453 129.512 72.49 129.825 72.3175 128.842C72.2706 129.202 71.7866 129.442 71.943 129.479C72.0304 128.673 71.9053 128.763 72.035 128.09C71.8161 128.148 71.3501 128.539 71.1845 127.467C71.1739 127.944 71.1509 127.992 71.1159 127.611C71.1642 127.956 70.4775 127.963 70.7052 128.448C70.5156 126.928 70.1214 129.455 70.4544 127C70.4466 127.201 70.4066 127.396 70.3325 127.584C70.5207 127.272 70.5156 127.122 70.3174 127.133C70.2622 127.512 69.9774 128.433 70.0198 128.611C70.0768 128.646 69.1807 127.749 69.3812 128.418C69.2713 127.3 69.4641 128.957 69.3228 127.773C69.4208 128.275 69.1466 128.633 69.274 127.298C69.2009 127.807 69.1839 127.791 69.2234 127.251C69.1535 127.812 69.1107 127.019 69.1324 127.113C69.0491 127.744 68.7492 127.457 68.9558 128.205C68.9134 128.055 68.8867 127.891 68.8467 127.714C68.8946 128.762 68.4829 127.029 68.688 128.217C68.6926 128.17 68.7405 127.755 68.6995 127.687C68.6595 127.659 68.7207 128.405 68.4341 127.441C68.3959 127.803 66.2127 127.128 66.1497 127.988C66.1607 128.064 65.9685 127.391 65.9685 127.383C66.1686 127.227 64.754 128.737 65.0894 127.65C64.8879 128.3 62.6808 128.242 62.6859 128.216C62.1086 130.101 61.9084 132.086 62.0377 134.04C61.6853 134.002 73.0098 135.114 73.1211 134.824Z" fill="black"/>
<path d="M66.7862 57.7678C66.7273 57.9201 66.7498 56.7061 66.7319 56.5865C66.9089 57.7728 67.3029 56.9561 67.499 57.1983C67.2582 56.9784 67.1193 56.7128 67.0814 56.4008C67.1777 56.5192 67.4124 56.7629 67.5328 56.8328C66.9847 55.4909 66.5474 54.4698 65.3711 53.2286C65.4333 53.3336 65.4442 53.3485 65.4029 53.2727C65.4549 53.3508 65.4978 53.4323 65.5311 53.5159C64.6204 52.6162 63.5182 51.3868 63.1102 51.3044C63.6286 52.0073 63.05 51.3981 62.8603 51.3308C63.6341 52.6979 63.5651 52.3286 63.0237 52.1804C63.2842 52.5732 63.544 52.9653 63.8051 53.3584C62.8916 52.2928 63.1839 52.8356 62.3132 51.7264C62.4258 52.109 62.464 52.5736 62.4716 52.571C62.2053 51.9915 61.9906 52.0288 62.1036 51.532C62.0925 51.9134 61.9324 51.7515 61.623 51.047C61.4852 51.0541 61.5044 51.9084 60.617 50.751C60.5145 50.2987 60.7587 51.8561 60.9267 52.0036C59.9398 50.6129 61.0157 52.9987 59.7953 50.5671C59.9259 50.7929 60.0262 51.0178 60.0954 51.2421C59.9747 50.8435 59.872 50.6855 59.7868 50.7677C60.0406 51.282 60.3227 51.7818 60.6016 52.2842C60.6163 52.322 59.5808 52.1101 59.974 52.5325C59.2219 51.4802 60.323 52.9812 59.5057 51.8702C59.7972 52.2197 60.0875 53.1152 59.1564 51.3845C59.4418 51.957 59.4194 51.947 59.0888 51.3554C59.4175 51.9952 58.859 51.1602 58.9327 51.2468C59.1532 51.6963 59.1381 52.0489 59.5317 52.4845C59.4009 52.3401 59.3005 52.2094 59.1283 52.0064C59.7338 52.9163 58.6022 51.6633 59.3493 52.6084C59.3447 52.6002 58.9844 52.0231 59.0057 52.0393C58.8389 52.1014 59.4963 52.8014 58.6537 51.8865C58.8682 52.2894 56.8526 52.4557 57.384 53.3979C57.5233 53.5789 56.7745 52.7116 56.8488 52.826C56.8343 52.7386 56.8163 54.5736 56.3931 53.4572C56.707 54.2855 55.0106 54.9408 55.0308 54.9845C55.8807 57.185 57.1039 59.4164 58.5046 61.4264C58.7169 61.3838 67.1448 58.9028 66.7862 57.7678Z" fill="black"/>
<path d="M120.38 24.8421C120.323 24.6462 120.296 25.9806 120.272 26.0863C120.527 24.9419 120.961 26.217 121.207 26.1326C120.914 26.1479 120.74 26.3093 120.683 26.6173C120.821 26.5704 121.053 26.5244 121.235 26.5648C120.541 27.5193 119.963 28.242 118.539 28.4988C118.617 28.442 118.63 28.4354 118.578 28.4799C118.642 28.4431 118.696 28.3944 118.739 28.3331C117.601 28.4684 116.29 28.7962 115.772 28.4851C116.423 28.1977 115.703 28.3466 115.475 28.2185C116.43 27.4562 116.376 27.8004 115.699 27.4363C116.023 27.2504 116.347 27.0647 116.672 26.8789C115.55 27.1869 115.914 26.8665 114.835 27.2613C115.101 27.0197 114.949 26.3609 115.055 26.4803C114.717 26.8597 114.478 26.6269 114.578 27.2765C114.57 26.8313 114.373 26.8565 113.988 27.3527C113.824 27.2131 113.88 26.2881 112.778 26.7164C112.643 27.1054 112.967 25.6304 113.197 25.629C111.922 26.2329 113.401 24.5594 111.793 26.1287C111.957 26.0069 112.085 25.8542 112.178 25.6713C112.028 26.0068 111.9 26.0824 111.791 25.8985C111.976 25.7133 112.785 24.751 112.773 24.7541C112.898 24.8316 111.384 24.2549 112.092 24.1267C111.131 24.5738 112.548 23.9586 111.508 24.407C111.892 24.293 112.224 23.6171 111.072 24.606C111.436 24.2488 111.41 24.2377 110.991 24.5731C111.407 24.1847 110.708 24.5666 110.801 24.5415C111.117 24.2243 111.017 23.8666 111.567 23.7522C111.408 23.7851 111.271 23.8353 111.068 23.8907C111.868 23.4478 110.369 23.7817 111.358 23.4392C111.347 23.4485 110.92 23.7352 110.925 23.736C110.729 23.4995 111.552 23.3673 110.502 23.5623C110.772 23.3278 108.415 21.1733 109.093 20.6492C109.247 20.5925 108.364 20.7978 108.434 20.7576C108.415 20.9966 108.562 18.7008 107.94 19.6099C108.347 19.0146 106.445 16.585 106.461 16.5695C107.603 14.9708 109.165 13.7196 110.929 12.8777C111.041 13.0142 120.722 24.1804 120.38 24.8421Z" fill="black"/>
<path d="M31.7334 115.145C31.6697 115.108 32.1908 116.057 32.202 116.087C31.8136 115.075 32.4493 115.558 32.4894 115.243C32.4116 115.52 32.4264 115.792 32.5343 116.061C32.584 115.677 32.5058 115.954 32.6713 115.507C32.8549 116.779 32.9703 117.922 32.6806 119.338C32.6802 119.227 32.6814 119.209 32.6846 119.288C32.6794 119.456 32.0136 121.773 31.8621 121.92C31.9298 121.195 31.8288 121.778 31.6637 122.017C31.638 120.757 31.8545 120.79 31.4084 121.277C31.4296 120.848 31.4501 120.419 31.4701 119.989C31.2661 121.229 31.2408 120.687 31.0785 121.961C31.0785 121.547 30.6773 121.259 30.8248 121.223C30.8697 122.131 30.7831 122.05 30.8605 122.812C30.6869 122.733 30.3799 122.283 30.2312 123.497C30.2372 122.95 30.2216 122.895 30.1855 123.329C30.2336 122.909 29.7262 122.936 29.915 122.357C29.7162 124.213 29.5145 120.951 29.6877 124C29.6897 123.772 29.6669 123.548 29.6196 123.328C29.7695 123.691 29.7606 123.862 29.5935 123.842C29.5634 123.363 29.3763 122.436 29.43 122.142C29.4877 122.107 28.7911 123.102 28.9658 122.331C28.8388 123.627 29.0512 121.693 28.8981 123.063C29.0031 122.401 28.8099 122.229 28.8436 123.602C28.8119 123.018 28.7991 123.034 28.8047 123.653C28.7778 123.015 28.7133 123.91 28.7326 123.805C28.6965 122.983 28.446 123.511 28.6516 122.549C28.6147 122.722 28.5875 122.91 28.5518 123.104C28.6368 121.854 28.2496 123.939 28.46 122.522C28.4604 122.612 28.5133 122.967 28.4448 123.126C28.3718 123.17 28.5033 122.264 28.242 123.391C28.2396 123.291 27.4684 123.142 26.8968 122.713C26.8359 123.309 26.6239 123.141 26.6283 122.604C26.6323 122.578 26.4643 123.22 26.4607 123.278C26.6487 123.469 25.6795 121.623 25.8459 122.898C25.8054 122.68 25.7842 122.459 25.7822 122.237C25.2607 122.44 24.1625 121.85 24.1725 122.011C23.9256 119.796 23.9517 117.535 24.2002 115.321C23.6182 115.376 31.7587 115.262 31.7334 115.145Z" fill="black"/>
<path d="M98.7334 45.1446C98.6697 45.1081 99.1908 46.0575 99.202 46.0872C98.8136 45.0746 99.4493 45.5583 99.4894 45.2433C99.4116 45.52 99.4264 45.7923 99.5343 46.0608C99.584 45.6773 99.5058 45.9539 99.6713 45.5066C99.8549 46.779 99.9703 47.922 99.6806 49.3378C99.6802 49.2266 99.6814 49.2093 99.6846 49.288C99.6794 49.4563 99.0136 51.7734 98.8621 51.9201C98.9298 51.1947 98.8288 51.7777 98.6637 52.0175C98.638 50.7565 98.8545 50.7896 98.4084 51.2767C98.4296 50.8476 98.4501 50.4185 98.4701 49.9894C98.2661 51.2293 98.2408 50.6875 98.0785 51.9614C98.0785 51.5466 97.6773 51.2595 97.8248 51.2226C97.8697 52.1306 97.7831 52.0501 97.8605 52.8124C97.6869 52.7333 97.3799 52.2831 97.2312 53.4966C97.2372 52.9505 97.2216 52.8949 97.1855 53.3288C97.2336 52.9088 96.7262 52.9361 96.915 52.3574C96.7162 54.2134 96.5145 50.9512 96.6877 54C96.6897 53.7718 96.6669 53.5479 96.6196 53.3278C96.7695 53.6908 96.7606 53.8624 96.5935 53.8423C96.5634 53.3628 96.3763 52.4356 96.43 52.1417C96.4877 52.1067 95.7911 53.1025 95.9658 52.3306C95.8388 53.627 96.0512 51.6929 95.8981 53.0632C96.0031 52.401 95.8099 52.2294 95.8436 53.602C95.8119 53.0176 95.7991 53.0344 95.8047 53.6534C95.7778 53.0152 95.7133 53.9099 95.7326 53.8053C95.6965 52.9831 95.446 53.5114 95.6516 52.5492C95.6147 52.7218 95.5875 52.9102 95.5518 53.1044C95.6368 51.8545 95.2496 53.9391 95.46 52.5219C95.4604 52.6115 95.5133 52.9668 95.4448 53.1265C95.3718 53.1696 95.5033 52.2644 95.242 53.3911C95.2396 53.2909 94.4684 53.1418 93.8968 52.7127C93.8359 53.3091 93.6239 53.1408 93.6283 52.6043C93.6323 52.5784 93.4643 53.2204 93.4607 53.2784C93.6487 53.4688 92.6795 51.6234 92.8459 52.8977C92.8054 52.6796 92.7842 52.4591 92.7822 52.2366C92.2607 52.4404 91.1625 51.8497 91.1725 52.0108C90.9256 49.7962 90.9517 47.5346 91.2002 45.3205C90.6182 45.3757 98.7587 45.2616 98.7334 45.1446Z" fill="black"/>
<path d="M44.7335 94.1446C44.6697 94.1081 45.1908 95.0575 45.202 95.0872C44.8136 94.0746 45.4493 94.5583 45.4894 94.2433C45.4116 94.52 45.4265 94.7923 45.5343 95.0608C45.584 94.6773 45.5058 94.9539 45.6714 94.5066C45.8549 95.779 45.9704 96.922 45.6806 98.3378C45.6802 98.2266 45.6814 98.2093 45.6846 98.288C45.6794 98.4563 45.0136 100.773 44.8621 100.92C44.9299 100.195 44.8288 100.778 44.6637 101.017C44.6381 99.7565 44.8545 99.7896 44.4084 100.277C44.4297 99.8476 44.4501 99.4185 44.4701 98.9894C44.2661 100.229 44.2408 99.6875 44.0785 100.961C44.0785 100.547 43.6773 100.259 43.8248 100.223C43.8697 101.131 43.7831 101.05 43.8605 101.812C43.6869 101.733 43.3799 101.283 43.2312 102.497C43.2372 101.95 43.2216 101.895 43.1855 102.329C43.2336 101.909 42.7262 101.936 42.915 101.357C42.7162 103.213 42.5146 99.9512 42.6877 103C42.6897 102.772 42.6669 102.548 42.6196 102.328C42.7695 102.691 42.7607 102.862 42.5935 102.842C42.5635 102.363 42.3763 101.436 42.43 101.142C42.4877 101.107 41.7911 102.102 41.9658 101.331C41.8388 102.627 42.0512 100.693 41.8981 102.063C42.0031 101.401 41.8099 101.229 41.8436 102.602C41.8119 102.018 41.7991 102.034 41.8047 102.653C41.7779 102.015 41.7133 102.91 41.7326 102.805C41.6965 101.983 41.446 102.511 41.6516 101.549C41.6147 101.722 41.5875 101.91 41.5518 102.104C41.6368 100.854 41.2496 102.939 41.46 101.522C41.4604 101.612 41.5133 101.967 41.4448 102.126C41.3718 102.17 41.5033 101.264 41.242 102.391C41.2396 102.291 40.4684 102.142 39.8968 101.713C39.8359 102.309 39.6239 102.141 39.6283 101.604C39.6323 101.578 39.4644 102.22 39.4607 102.278C39.6487 102.469 38.6796 100.623 38.8459 101.898C38.8054 101.68 38.7842 101.459 38.7822 101.237C38.2607 101.44 37.1625 100.85 37.1725 101.011C36.9256 98.7962 36.9517 96.5346 37.2002 94.3205C36.6182 94.3757 44.7587 94.2616 44.7335 94.1446Z" fill="black"/>
<path d="M76.6843 45.4641C76.65 45.5044 75.389 46.0144 76.7292 46.1333C76.4829 46.0768 76.2701 46.1009 76.0911 46.2056C76.1719 46.213 76.5005 46.279 76.5484 46.3042C75.5389 46.5233 74.8379 46.6862 73.526 46.4644C73.6139 46.4593 73.6272 46.4596 73.5659 46.4658C72.9428 46.4761 71.3472 45.7727 71.2503 45.6908C72.4262 45.6015 72.0981 45.6828 71.7907 45.4393L72.8164 45.4379C71.7688 45.3088 72.2121 45.2669 71.1922 45.183C71.5196 45.0925 71.694 44.9758 71.7282 44.9317C71.4764 45.0168 71.2316 44.8479 70.9825 45.1323C71.1951 44.9897 71.0281 44.9562 70.4812 45.0319C70.4441 44.9353 70.8674 44.5984 69.8216 44.5206C69.518 44.6431 70.5483 44.1671 70.6556 44.1965C69.7484 44.1371 70.7381 43.9025 69.3146 44.0769C69.984 43.989 69.7298 43.9481 69.4193 43.9883C69.825 43.9358 70.2339 43.9063 70.6472 43.8758C70.6596 43.8729 70.1161 43.315 70.4734 43.3776C69.6395 43.3403 70.7814 43.4075 69.8814 43.3545C70.277 43.3833 70.7374 43.2192 69.4442 43.3333C69.8974 43.2784 69.8811 43.2682 69.3954 43.3028C69.916 43.2461 69.1886 43.2393 69.2592 43.2485C69.4615 43.2177 70.0037 43.0814 70.2296 43.1181C70.0682 43.0921 70.0242 43.0928 69.7699 43.0595C70.3675 43.0666 69.5988 42.894 70.2072 42.9522C70.1955 42.9529 69.7449 42.9709 69.7277 42.9686C69.8134 43.0547 68.822 41.4342 69.6779 41.3842C69.8819 41.4024 68.9167 41.2754 69.102 41.2764C69.0365 41.3038 69.9422 40.5715 69.2278 40.7303C69.8563 40.5905 69.3087 39.2624 69.4134 39.249C71.0257 38.9159 72.8998 38.8 74.6688 38.8842C74.8863 39.3266 78.0676 45.036 76.6843 45.4641Z" fill="black"/>
<path d="M57.9454 4.28171C57.6919 4.21711 58.6778 5.09703 58.7002 5.12954C59.0014 4.93405 59.1511 4.69802 59.1492 4.42147C59.2722 4.49114 58.8948 4.91589 59.2535 5.11856C59.3077 4.92012 59.3227 4.83861 59.4948 4.63637C59.7708 5.773 59.9513 6.72723 59.4157 8.00952C59.4172 7.91199 59.42 7.89678 59.4233 7.96602C59.4163 8.04836 58.161 10.1701 57.9912 10.2524C58.1339 9.5574 57.8916 10.2098 57.6591 10.3301C57.6465 9.12629 57.8934 9.31841 57.2541 9.66801C57.299 9.29139 57.3434 8.91434 57.3883 8.53772C57.4388 8.90294 57.3537 9.04398 57.1321 8.96038C56.6728 9.54769 56.945 9.3087 56.6882 10.2583C56.699 9.88377 56.0788 9.62875 56.286 9.59835C56.3721 10.4416 56.1911 10.2946 56.3057 10.9993C56.0629 10.9305 55.5213 10.5095 55.243 11.5778C55.266 11.0977 55.2421 11.0479 55.171 11.4283C55.2487 11.1121 54.4564 11.0061 54.7459 10.5628C54.4185 11.965 54.1468 9.70939 54.3278 12C54.3353 11.7956 54.3026 11.5976 54.2305 11.4059C54.3994 11.7332 54.3807 11.8839 54.1744 11.8577C54.144 11.5208 53.9087 10.4496 53.9447 10.3542C54.0444 10.3098 52.8663 11.1598 53.1689 10.5028C52.9364 11.5883 53.3148 9.99568 53.0384 11.145C53.1852 10.7131 52.9079 10.1629 52.9341 11.6175C52.8958 11.1015 52.8742 11.1163 52.8681 11.6614C52.8387 11.0897 52.7101 11.8847 52.7447 11.7927C52.7274 11.2096 52.3532 11.3447 52.6413 10.6839C52.5772 10.8317 52.5309 10.9854 52.4612 11.1686C52.6165 10.176 51.9814 11.7555 52.3233 10.6523C52.3233 10.6839 52.3088 11.1543 52.2831 11.1843C52.1699 11.2366 52.3864 10.4483 51.9398 11.4093C51.9332 11.0521 49.2408 11.528 49.2782 10.6552C49.3137 10.5408 48.9774 11.2746 48.9826 11.2421C49.1552 11.4152 47.7306 9.77864 47.971 10.8841C47.8204 10.1887 45.2135 10.059 45.2116 10.0388C44.859 8.09142 44.9586 6.07826 45.4244 4.15039C45.185 4.14785 57.8565 4.04949 57.9454 4.28171Z" fill="black"/>
<path d="M29.6482 63.2373C29.5214 63.6623 28.9411 63.7923 29.9264 64.0299C32.1265 64.7285 22.2858 67.7765 24.6091 65.4986C25.1986 66.0992 27.1262 65.745 26.8726 65.1186C26.8593 65.1165 27.0452 65.1476 27.0596 65.1175C26.981 65.1289 26.9971 65.0972 27.1079 65.0226C25.6945 65.0761 25.1802 65.1453 24.767 64.9205C25.7992 64.5221 25.5497 64.6913 25.1866 64.53C25.498 64.438 25.8095 64.3461 26.1205 64.2542C25.1365 64.4092 25.525 64.2495 24.5714 64.4379C24.806 64.2904 24.9862 64.0384 24.9934 64.0489C24.7636 64.217 24.5356 64.097 24.3669 64.4437C24.5166 64.2421 24.3556 64.253 23.8837 64.4768C23.8237 64.3881 24.1255 63.9463 23.1542 64.1397C22.9046 64.3432 23.72 63.5966 23.8399 63.599C22.8372 63.8351 24.081 63.1834 22.5909 63.8233C22.7647 63.7616 22.9151 63.6873 23.0416 63.6006C22.7969 63.7486 22.672 63.7839 22.6675 63.707C23.0255 63.5504 23.395 63.4173 23.7629 63.2792C23.7737 63.273 23.1484 62.8492 23.5066 62.8207C22.708 62.9995 23.8235 62.7674 22.9624 62.9465C23.2637 62.9008 23.8245 62.5529 22.5603 63.0349C22.9633 62.8651 22.9467 62.8586 22.5101 63.0161C22.9717 62.8286 22.306 63.0032 22.376 62.9947C22.5757 62.901 22.9859 62.6416 23.2373 62.6184C23.0922 62.6317 23.0277 62.6463 22.8083 62.6737C23.4064 62.518 22.5492 62.5595 23.1887 62.455C23.1972 62.4519 22.7087 62.5855 22.7542 62.5911C22.6407 62.4956 23.2908 62.47 22.4944 62.4899C22.7763 62.3832 21.7834 61.2048 22.503 60.9671C22.6833 60.9387 21.8216 61.0285 21.9689 60.9912C22.1924 60.803 22.2463 58.7458 22.1688 58.7763C23.644 58.0613 25.3319 57.5257 26.9469 57.215C27.1137 57.3907 30.2145 62.8474 29.6482 63.2373Z" fill="black"/>
<path d="M136.624 110.618C136.682 110.762 135.672 112.098 137.143 111.565C136.884 111.597 136.702 111.736 136.596 111.983C136.804 111.909 136.813 111.885 137.098 111.9C136.331 112.691 135.642 113.326 134.378 113.618C134.457 113.568 134.47 113.562 134.417 113.601C134.332 113.648 132.069 113.877 131.902 113.791C132.507 113.533 131.917 113.697 131.679 113.597C132.608 112.969 132.625 113.244 132.007 112.963C132.328 112.796 132.65 112.629 132.971 112.463C132.713 112.704 132.559 112.718 132.51 112.504C131.789 112.487 132.163 112.548 131.263 112.874C131.564 112.684 131.455 112.101 131.59 112.242C130.967 112.71 130.976 112.554 130.487 112.993C130.419 112.775 130.492 112.182 129.509 112.545C129.902 112.309 129.93 112.266 129.593 112.416C129.899 112.299 129.556 111.69 130.073 111.66C128.735 112.193 130.553 110.716 128.727 112.121C128.892 112.019 129.034 111.893 129.152 111.74C128.984 112.045 128.856 112.11 128.765 111.938C129.043 111.719 129.7 111.024 129.848 110.985C129.917 111.024 128.682 110.647 129.352 110.514C128.359 110.928 129.843 110.343 128.778 110.76C129.229 110.624 129.444 110.186 128.352 110.934C128.743 110.637 128.721 110.629 128.285 110.911C128.723 110.591 128.03 110.917 128.121 110.893C128.618 110.546 128.22 110.395 128.951 110.237C128.803 110.269 128.652 110.319 128.479 110.365C129.376 109.937 127.731 110.349 128.821 109.996C128.786 110.018 128.448 110.252 128.379 110.247C128.314 110.214 129.005 109.936 128.033 110.123C128.315 109.93 126.624 108.277 127.335 107.845C127.417 107.818 126.72 107.947 126.724 107.945C126.677 108.129 127.27 106.297 126.516 107.042C126.985 106.579 125.842 104.647 125.842 104.646C127.221 103.37 128.862 102.386 130.625 101.699C130.385 101.382 136.701 110.518 136.624 110.618Z" fill="black"/>
<path d="M0.635592 84.3017C0.538229 84.4903 1.91094 83.6094 1.97718 83.5801C1.6663 83.4361 1.28195 83.4025 0.822167 83.4798C0.936653 83.3781 1.61279 83.5217 1.94669 83.2254C1.66947 83.2408 1.43429 83.2478 1.1656 83.1967C3.00479 82.7129 4.50439 82.3577 6.61037 82.3539C6.4518 82.3789 6.4283 82.3812 6.53995 82.3612C6.41952 82.3757 6.30063 82.3984 6.18473 82.4295C7.85482 82.4507 9.8591 82.3892 10.264 82.6247C9.13794 82.7295 10.2008 82.6999 10.4054 82.8029C8.45179 83.1468 8.77019 82.9473 9.35684 83.2318L7.527 83.4673C9.30883 83.3909 8.52178 83.5428 10.342 83.4053C9.76796 83.5297 9.33147 83.9125 9.30378 83.8368C10.6626 83.5408 10.4322 83.6924 11.5613 83.4213C11.4716 83.5794 10.8256 84.0306 12.576 83.8773C11.8007 84.006 11.7224 84.0346 12.341 83.9635C11.834 84.0108 11.717 84.5085 10.9884 84.4709C13.2676 84.2403 9.6957 85.0751 13.3438 84.2822C13.0133 84.3398 12.6967 84.4187 12.3954 84.5188C12.906 84.3231 13.1507 84.2884 13.1288 84.4143C12.6053 84.5307 10.8646 84.9995 10.7356 85.0062C10.6525 84.9609 12.1556 85.3872 11.0671 85.4153C12.8353 85.2111 10.2402 85.49 12.117 85.2907C11.4099 85.3405 10.5461 85.6751 12.8901 85.203C12.0661 85.3867 12.0923 85.3945 12.9686 85.2271C12.0521 85.4239 13.3497 85.2475 13.1959 85.2567C12.2836 85.4461 12.5005 85.6255 11.4271 85.6662C11.671 85.657 11.9259 85.635 12.23 85.6165C10.6287 85.8398 13.2211 85.7098 11.4189 85.8608C11.4664 85.8515 12.2379 85.7105 12.2795 85.7148C12.354 85.8518 11.0583 85.8895 12.6924 85.8394C12.0976 85.9624 13.3306 87.3341 11.9401 87.6079C11.7343 87.6286 13.0031 87.564 12.9382 87.5743C13.1926 87.4047 10.8537 88.7931 12.5773 88.2673C11.4913 88.5987 11.904 90.1145 11.9094 90.1132C8.92261 91.0381 5.68977 91.7342 2.50591 92.1793C2.53948 92.2191 -0.499551 84.6711 0.635592 84.3017Z" fill="black"/>
<path d="M121.657 74.4725C121.744 74.5047 123.571 73.9337 122.374 75.1901C122.545 74.933 122.779 74.7811 123.08 74.7339C122.995 74.8239 122.777 75.1134 122.745 75.2129C123.971 74.6017 124.875 74.1412 125.878 72.8678C125.786 72.9356 125.774 72.9472 125.84 72.902C125.773 72.9584 125.701 73.0054 125.625 73.0421C126.314 72.0887 127.319 70.8786 127.315 70.4718C126.718 71.0365 127.21 70.3964 127.236 70.2142C126.019 71.0703 126.393 70.9494 126.425 70.4089C126.09 70.6903 125.754 70.9714 125.418 71.2528C126.291 70.2698 125.81 70.5922 126.729 69.659C126.401 69.7409 125.933 69.8655 125.923 69.848C126.507 69.5385 126.25 69.4297 126.879 69.4358C126.505 69.4458 126.632 69.2748 127.26 68.9233C127.19 68.7937 126.4 68.8069 127.347 67.8703C127.784 67.7471 126.267 68.0709 126.169 68.2269C127.28 67.2188 125.324 68.2719 127.362 67.0098C127.162 67.1535 126.959 67.2641 126.755 67.3407C127.12 67.1935 127.256 67.0821 127.162 67.0061C126.704 67.2845 126.267 67.5923 125.825 67.896C125.798 67.9088 125.776 66.8477 125.454 67.2488C126.312 66.4639 125.11 67.5969 126.015 66.7426C125.709 67.0639 124.931 67.3622 126.425 66.3651C125.916 66.6783 125.921 66.6547 126.44 66.2947C125.87 66.6563 126.584 66.0524 126.516 66.1285C126.172 66.336 125.708 66.431 125.413 66.7862C125.532 66.6429 125.626 66.5517 125.805 66.3527C125.085 66.959 125.965 65.8697 125.254 66.599C125.253 66.5996 125.768 66.1855 125.748 66.2256C125.72 66.0113 125.165 66.7685 125.829 65.8529C125.471 66.0899 124.918 63.9802 124.093 64.5604C123.926 64.7268 124.681 63.8798 124.553 63.9848C124.707 63.9584 122.817 63.9975 123.846 63.5205C123.079 63.8761 122.16 62.0822 122.099 62.1183C120.111 63.0582 118.139 64.4072 116.437 65.9225C116.571 66.3002 120.314 74.9906 121.657 74.4725Z" fill="black"/>
<path d="M21.2656 26.176C21.4185 26.2066 21.9964 27.8371 22.2971 26.2494C22.1935 26.4945 22.216 26.7328 22.3641 26.9644C22.407 26.7399 22.3909 26.7211 22.5467 26.479C22.8044 27.5976 22.9629 28.558 22.579 29.8314C22.5773 29.7337 22.579 29.7194 22.5837 29.7878C22.5794 29.8902 21.6797 32.0045 21.5349 32.1022C21.6164 31.4305 21.4737 32.03 21.2801 32.192C21.2232 31.0348 21.455 31.1523 20.9374 31.5501C20.9561 31.1741 20.9752 30.7986 20.9939 30.4226C21.0682 30.7843 21.0071 30.9274 20.8109 30.8514C20.4572 31.4879 20.6831 31.1753 20.5238 32.1584C20.4805 31.7976 20.0338 31.5584 20.1782 31.5207C20.2588 32.3271 20.1434 32.2373 20.2631 32.9099C20.061 32.852 19.6309 32.4605 19.478 33.5334C19.4682 33.0555 19.447 33.0077 19.4147 33.3887C19.4593 33.0442 18.8253 33.0375 19.0355 32.5524C18.8606 34.0722 18.4967 31.5446 18.8041 34C18.7969 33.7986 18.7599 33.6039 18.6916 33.4155C18.8652 33.7281 18.8606 33.8783 18.6776 33.8666C18.6266 33.4877 18.3638 32.5667 18.4029 32.3892C18.4555 32.3536 17.6283 33.2506 17.8135 32.5822C17.712 33.7 17.8899 32.0431 17.7595 33.2267C17.85 32.7249 17.5969 32.3674 17.7145 33.7017C17.647 33.1931 17.6313 33.2087 17.6678 33.7487C17.6033 33.1881 17.5638 33.9811 17.5837 33.8867C17.5069 33.2556 17.2301 33.5431 17.4207 32.7945C17.3816 32.9448 17.357 33.1088 17.32 33.2859C17.3642 32.2377 16.9842 33.971 17.1736 32.7832C17.1778 32.8298 17.222 33.2447 17.1842 33.3127C17.1472 33.3408 17.2037 32.5952 16.9392 33.5594C16.9039 33.1969 14.8886 33.8725 14.8305 33.0119C14.8407 32.9364 14.6632 33.6094 14.6632 33.6169C14.8479 33.7734 13.5422 32.2633 13.8517 33.3505C13.6658 32.7001 11.6284 32.7576 11.6331 32.7844C11.1002 30.8988 10.9155 28.9142 11.0348 26.9598C10.7095 26.9984 21.1629 25.8856 21.2656 26.176Z" fill="black"/>
<path d="M96.6538 127.499C96.6816 127.328 96.0843 128.387 96.0086 128.477C96.7594 127.579 96.6759 128.55 96.9635 128.476C96.6496 128.5 96.3981 128.634 96.208 128.876C96.349 128.84 96.6698 128.791 96.8064 128.813C95.6649 129.592 94.7793 130.171 93.1611 130.434C93.2666 130.386 93.2834 130.38 93.2102 130.417C93.2935 130.386 93.3709 130.345 93.4413 130.296C92.2197 130.447 90.6697 130.75 90.2851 130.542C91.0774 130.292 90.2822 130.421 90.0886 130.349C91.4326 129.703 91.1871 129.973 90.6571 129.73C91.0753 129.571 91.4926 129.411 91.9114 129.252C90.6032 129.544 91.1243 129.277 89.8298 129.635C90.1186 129.383 90.3865 129.01 90.3915 129.017C89.8737 129.334 89.7123 129.155 89.5551 129.659C89.7393 129.324 89.5226 129.353 88.9052 129.747C88.7929 129.647 89.2427 128.926 87.9098 129.314C87.5942 129.633 88.5897 128.461 88.8057 128.449C87.2708 128.97 89.3856 127.655 87.1261 128.911C87.3505 128.806 87.5489 128.681 87.7209 128.536C87.4172 128.796 87.2507 128.861 87.2209 128.733C87.695 128.464 88.1858 128.227 88.675 127.986C88.7065 127.964 87.7291 127.438 88.2738 127.344C87.1079 127.734 88.7947 127.197 87.5443 127.593C87.9665 127.492 88.6649 126.92 87.0043 127.772C87.5346 127.475 87.5107 127.468 86.9328 127.751C87.5336 127.425 86.6406 127.761 86.7465 127.737C87.1599 127.502 87.3261 127.188 87.8779 127.083C87.6947 127.118 87.5441 127.161 87.2963 127.218C88.2668 126.85 86.6802 127.153 87.7876 126.852C87.7795 126.856 87.184 127.105 87.21 127.106C87.1015 126.939 88.009 126.786 86.8367 126.997C87.2215 126.797 85.6126 125.277 86.5372 124.83C86.7461 124.77 85.6769 125.003 85.7974 124.956C85.7408 125.021 86.657 123.432 85.7349 124.102C86.419 123.604 85.3264 121.882 85.3656 121.858C87.1965 120.548 89.3566 119.466 91.5535 118.695C91.7102 118.877 97.5311 126.769 96.6538 127.499Z" fill="black"/>
</svg>
