<svg width="1440" height="30" viewBox="0 0 1440 30" fill="none" xmlns="http://www.w3.org/2000/svg">
<path d="M1356.89 19.7764C1356.89 18.554 1356.89 18.554 1356.47 17.9068C1352.22 22.8682 1346.23 17.5473 1341.35 20.3515C1340.34 19.1919 1339.27 18.1814 1338.16 17.3315C1336.6 18.7033 1334.87 19.4186 1333.11 19.4167L1332.64 18.2663L1328.99 19.7764L1329.46 17.9068C1324.78 20.5673 1317.95 17.2596 1314.08 18.2663C1303.55 20.8548 1290.56 18.9853 1279.3 20.9986C1275.61 21.6458 1270.81 19.2011 1266.56 20.3515C1260.7 21.5848 1254.77 21.3912 1248.94 19.7764C1244.68 19.7765 1240.43 20.1844 1236.2 20.9986C1233.15 20.2793 1230.07 20.2793 1227.02 20.9986C1225.79 21.5019 1223.84 19.1291 1222.48 19.4167C1214.33 21.2143 1204.77 19.4168 1195 20.6392C1191.49 20.1219 1187.96 20.2423 1184.47 20.9986L1183.89 20.8503C1182.39 20.4692 1180.92 20.0947 1179.42 19.7764C1177.72 19.4169 1178.48 21.0707 1177.85 21.574C1177.21 22.0773 1171.14 20.0639 1169.35 20.3515C1161.33 21.7177 1153.09 19.9201 1146.72 20.3515C1145.23 20.9267 1143.79 21.5739 1142.47 22.1491C1140.61 22.3555 1138.75 21.9401 1136.99 20.9266L1131.94 21.574C1130.16 21.8902 1128.37 21.5717 1126.67 20.6392C1123.89 21.8222 1121.01 22.0423 1118.18 21.2863C1118.18 19.4887 1118.48 19.2731 1117.71 18.1945H1117.5C1117.4 19.1129 1117.15 19.9671 1116.78 20.6644C1116.42 21.3617 1115.94 21.8752 1115.42 22.1491C1111.99 21.4194 1108.51 21.736 1105.14 23.0839C1102.3 23.1547 1099.46 22.842 1096.65 22.1491L1090.91 23.0839C1085.73 23.0839 1078.17 22.7243 1073.93 22.1491C1073.93 24.234 1073.93 25.1692 1072.82 25.8163C1072.83 25.2213 1072.74 24.634 1072.58 24.1069C1072.42 23.5798 1072.18 23.1294 1071.89 22.7962C1069.95 23.8054 1067.88 23.8054 1065.94 22.7962C1065.79 22.7665 1065.63 22.7665 1065.48 22.7962L1065.94 23.659C1067.22 24.5219 1068.53 25.3128 1069.81 26.1037V26.6791H1068.7C1061.57 22.0053 1056.98 23.8029 1048.06 22.7962L1047.85 23.659L1048.53 26.1037H1047.64L1046.02 23.3716C1039.92 22.1091 1033.73 22.6196 1027.72 24.8815C1027.64 25.3994 1027.49 25.8831 1027.3 26.3034C1027.1 26.7237 1026.85 27.0717 1026.57 27.3262C1025.85 27.3262 1023.35 25.1691 1023.81 24.8815C1020.1 23.8408 1016.31 23.8408 1012.6 24.8815C1011.37 24.8815 1010.18 24.2343 1008.95 23.9467C1002.8 25.31 996.592 21.8415 990.392 21.4831L989.925 20.2608C989.555 20.8919 989.081 21.3181 988.566 21.4831C988.099 20.6202 987.546 20.6203 986.994 19.9732C988.99 18.5351 988.735 14.5804 992.218 15.7309C991.496 14.2209 991.029 14.5085 991.326 12.9985L992.322 12.9654V9.9454H991.6C989.647 11.3835 991.156 11.6323 989.5 12.9985H986.272C984.527 13.913 983.595 17.6491 983.118 19.5612L983.087 19.6855C982.661 19.3076 982.188 19.1101 981.707 19.1101C981.226 19.1101 980.753 19.3076 980.327 19.6855V20.9079L981.728 22.7055L981.261 23.5683H980.114C979.469 22.4873 978.684 21.6751 977.821 21.1956L977.354 21.7708C978.203 22.2741 977.906 21.7709 978.288 22.9932L975.74 23.6403H975.528C975.528 21.6989 975.273 21.8427 974.849 19.9732C976.912 20.4295 979.007 19.6948 980.794 17.8879L978.968 18.4908H978.288C977.903 19.9352 977.246 17.141 976.42 17.8879L973.235 19.7132V19.1379C974.424 18.6346 975.061 17.0528 974.636 15.4709C974.212 13.8891 974.084 13.8889 973.49 13.098H973.235C972.177 15.3432 971.542 18.0729 971.409 20.9355C970.709 21.355 970.027 17.8774 969.37 18.4632L967.756 17.6004L969.37 21.7708L970.984 22.4179C971.706 21.0517 971.918 20.9078 973.022 21.4831L973.702 24.2155H973.235C973.065 24.2155 971.578 23.4246 970.729 22.9932L970.517 26.085L969.837 25.4379C968.181 22.0584 965.123 25.0065 962.278 25.4379C961.556 24.4313 961.598 24.3594 960.452 24.5751L960.197 21.1956H960.664C962.193 20.4766 963.722 19.8294 965.251 19.1104H964.784C964.455 18.8982 964.121 18.7131 963.782 18.5553C963.762 18.6521 963.742 18.7504 963.722 18.8504C962.556 19.2153 961.406 19.7198 960.282 20.3603L960.348 19.7194C959.848 20.274 959.295 20.6861 958.711 20.9355C958.463 20.7062 958.206 20.5153 957.942 20.3635C957.936 21.3603 957.952 22.3573 957.989 23.3526C956.63 23.9279 956.46 24.8626 954.804 25.1502C953.147 25.4378 953.869 24.2155 953.869 23.6403C952.723 24.3594 952.595 25.2221 951.364 25.7973C950.387 25.2221 950.217 25.222 949.75 23.9278C948.391 24.8623 947.032 25.7975 945.503 26.6601L945.036 23.9278C943.805 24.4311 943.592 25.3659 942.998 26.6601C940.301 26.1533 937.571 26.5691 934.971 27.8826C932.848 27.8826 930.724 27.4511 928.558 27.3073C923.632 26.8051 918.688 27.6058 913.907 29.6802L913.015 28.1703C909.958 31.6217 904.946 28.1703 901.336 28.8174C899.438 29.5065 897.467 29.3828 895.603 28.4577C890.054 30.8018 884.31 26.5314 878.616 25.615L878.191 24.9679C880.272 20.2222 875.304 20.5098 872.925 20.4379L873.138 22.8826H873.605C874.747 23.1357 875.903 23.1357 877.045 22.8826L877.724 25.0396C874.975 24.7335 872.223 25.5473 869.698 27.4126C868.339 28.8506 854.367 20.4435 850.502 23.1758C849.186 24.1106 841.074 22.0252 839.715 22.6005L839.078 23.9667H837.932C837.252 23.9667 837.082 22.2409 835.639 22.7442C832.239 23.8385 828.766 24.1291 825.319 23.6072C822.898 23.6072 820.435 25.2542 818.014 25.5418C814.858 25.4766 811.714 24.8744 808.629 23.7442C803.108 22.3061 800.857 26.8362 795.888 22.522C795.888 22.522 786.291 25.2543 785.144 24.9667C780.897 23.8881 775.079 23.1691 771.639 22.522C770.493 22.522 770.62 23.6724 770.026 24.0319C767.933 24.6723 765.775 24.247 763.825 22.8096L757.88 24.9667C756.637 23.9597 755.344 23.1416 754.015 22.522C752.085 24.0736 749.94 24.6955 747.815 24.3195C746.838 22.2343 744.885 22.3063 743.908 21.012C739.661 25.1825 739.151 22.1625 735.414 21.012C733.546 20.4368 734.395 22.522 732.866 21.012L728.067 24.0319C726.411 22.9533 725.986 21.5152 723.82 21.2995C722.513 22.5167 721.063 23.2289 719.574 23.3848L717.068 20.6524C714.18 20.6524 713.246 23.1691 710.655 22.8096L706.069 20.0773C704.706 21.7785 703.164 23.023 701.525 23.7442L697.278 20.6524C696.706 23.3499 695.938 24.0513 694.481 25.3808L694.305 25.5418H694.093C691.806 23.0734 689.099 21.9665 686.399 22.3962C683.699 22.826 681.161 24.768 679.187 27.9147C674.833 27.5033 670.702 24.5272 667.508 19.5019H667.296C667.16 22.1689 666.519 24.6906 665.47 26.6923C663.601 26.6923 662.242 26.6924 661.562 24.3195C660.203 24.8948 658.462 26.1891 657.018 27.0519C649.289 21.2277 650.985 27.0518 642.873 22.45C642.598 23.4069 642.178 24.2235 641.656 24.817C641.134 25.4105 640.528 25.7597 639.901 25.8295C638.542 25.1823 637.182 24.6071 635.654 24.0319C629.326 24.3914 622.913 24.8228 616.67 25.1824C614.547 24.2476 612.424 22.0904 610.937 23.0971C609.621 27.7708 602.656 26.0451 599.046 26.6923C597.169 24.2358 594.969 22.5832 592.634 21.8748C591.742 21.8748 590.893 24.751 589.194 24.6072L582.781 23.0971L582.767 23.1041C581.328 23.8208 579.889 24.5373 578.534 25.1824C566.176 24.4633 553.436 25.6138 542.352 26.1171C534.665 26.1171 525.365 28.5618 519.037 24.8947C517.381 28.2022 514.28 23.888 512.369 24.8947C511.477 24.8947 510.883 26.9799 509.651 27.3394C507.146 27.9865 506.211 25.8295 504.598 25.8295C500.563 25.8295 494.958 30.719 488.333 28.8495L481.495 26.6923C477.677 27.0996 473.847 27.0996 470.029 26.6923L465.018 25.8295C450.876 30.2875 468.533 24.0319 451.758 27.627H440.291C430.254 29.1852 437.807 29.5937 427.737 28.8495C425.614 28.4181 423.49 28.0585 421.324 27.627L418.352 29.4246H411.26C403.092 30.3634 394.89 30.0505 386.756 28.4899C385.318 28.7905 383.897 29.2958 382.509 30C378.598 29.6404 374.7 28.9444 370.83 27.9147C368.913 27.6219 366.98 27.8156 365.097 28.4899C360.298 28.4899 355.499 28.1304 350.7 27.9147L326.196 28.4048C320.718 26.9667 314.645 26.1038 308.784 25.3848C307.893 25.8162 306.958 26.1758 306.067 26.6072C305.175 27.0386 297.785 25.0971 297.785 25.0971C297.53 26.3194 297.998 25.9601 297.106 26.6072C292.859 29.6272 288.612 24.45 283.856 25.0971C281.155 25.1167 278.462 24.6101 275.829 23.5872C274.385 23.1557 272.05 24.0186 270.096 23.5872C262.869 21.0819 255.517 25.7577 248.14 25.6326C247.733 24.7499 247.166 24.1183 246.526 23.835C246.187 25.0573 246.526 24.9135 245.38 25.3449C243.639 22.8283 237.438 24.3382 234.848 25.3449C234.15 24.3501 233.597 23.0948 233.234 21.6777H232.809V24.6978C232.045 24.6978 232.087 25.201 231.408 25.0572C227.508 25.8605 223.553 23.3474 219.772 21.5473C218.2 25.2863 210.386 20.3968 208.772 22.4101C206.352 23.2729 202.02 21.5473 200.279 22.4101C195.623 24.1554 190.863 24.9758 186.095 24.8548C181.147 22.9928 176.048 22.5795 171.018 23.6326C169.107 24.4235 153.012 23.201 152.927 23.0572C147.406 27.3714 136.237 21.6911 127.446 24.2077C118.656 26.7243 106.892 23.201 96.9968 24.8548C88.0361 26.2929 79.2877 21.4235 72.0681 22.4301C69.5201 22.8616 67.0145 23.221 64.5088 23.6524C62.2332 22.9723 59.9047 22.9723 57.629 23.6524C57.0769 23.6524 57.3317 24.8748 56.27 24.8748C54.1466 24.8748 53.4672 22.6459 52.0233 22.4301C51.3438 23.6525 50.6642 24.8749 49.9423 26.0253C47.4367 25.4501 44.4639 28.1104 41.4487 27.2476C40.3021 27.2476 40.3446 25.3063 39.6226 24.8748C37.4568 23.5087 34.3565 25.522 32.2756 24.2277L29.5577 19.9855C26.8822 19.9855 24.2067 23.6258 21.5312 23.4101C15.5566 20.6878 4.37577 26.4061 0 19V5.73224e-06L1437.76 1.01945e-08C1438.48 1.88017e-08 1439.5 -1.65594e-08 1440 1.01945e-08V19C1437.05 18.9426 1433.8 20.2721 1431.17 22.5031C1424.03 17.1104 1417.96 24.0186 1409.42 21.2863C1405.52 20.1358 1398.3 22.2929 1396.34 18.5539C1392.81 20.0282 1389.13 20.0282 1385.6 18.5539V18.9134L1386.28 20.4235H1385.6C1384.51 19.5899 1383.35 19.079 1382.16 18.9134C1382.16 17.691 1382.16 17.9787 1381.69 17.4034C1379.82 16.8282 1376.72 20.2078 1374.34 19.7764L1372.52 18.2663C1367.29 17.9744 1362.06 18.4799 1356.89 19.7764Z" fill="white"/>
</svg>
