<svg width="207" height="118" viewBox="0 0 207 118" fill="none" xmlns="http://www.w3.org/2000/svg">
<path fill-rule="evenodd" clip-rule="evenodd" d="M29.1751 115.919C29.159 115.857 29.1435 115.795 29.1274 115.734H19.5915C19.5958 115.795 19.5995 115.857 19.6045 115.919H29.1751ZM122.169 41.6271C118.968 44.7786 115.466 47.6922 113.769 52.0277C116.568 48.5602 119.368 45.0939 122.169 41.6271ZM105.756 77.5403C105.756 78.1586 105.706 78.7818 105.763 79.3945C106.692 89.2716 114.781 91.8228 122.005 89.8106C124.361 89.1551 126.345 87.8758 128.242 86.4806C129.933 85.2379 131.615 83.8625 132.922 82.24C136.183 78.1895 138.043 73.418 139.041 68.3602C140.429 61.3236 140.711 54.2883 138.047 47.4307C136.486 43.4175 134.19 39.9717 130.405 37.6534C129.317 36.9868 128.616 37.1776 127.775 37.9867C121.604 43.9242 115.929 50.2626 111.731 57.7929C108.304 63.9386 105.817 70.3773 105.756 77.5403ZM49.278 111.846C44.221 113.016 39.1646 114.184 34.1076 115.353C38.0704 114.766 42.0134 114.012 45.9279 113.133C47.0754 112.875 48.1429 112.26 49.2501 111.812C51.6045 111.859 53.3882 110.49 55.2321 109.275C53.2476 110.132 51.2625 110.989 49.278 111.846ZM131.887 34.3656C138.124 38.2872 141.99 43.7613 143.778 50.4943C147.197 63.3674 145.221 75.4246 137.003 86.0686C133.143 91.0676 127.834 94.1931 121.51 95.1255C116.171 95.9123 111.503 94.1324 107.555 90.5274C103.628 86.9422 101.095 82.4692 100.67 77.1908C100.306 72.6677 100.707 68.0739 102.442 63.7732C103.83 60.333 105.257 56.8934 106.955 53.6012C107.978 51.6181 109.495 49.8729 110.892 48.1011C114.174 43.9385 117.518 39.8242 120.785 35.332C119.562 35.6821 118.286 35.9107 117.124 36.4063C113.375 38.0065 110.375 40.6494 107.694 43.6392C101.236 50.8431 96.924 59.3653 92.8503 68.0324C89.3076 75.5708 85.7023 83.0794 80.8504 89.9035C71.3467 103.269 58.6429 111.787 42.6002 115.367C32.7743 117.559 22.8282 117.186 12.8809 117.145C9.13681 117.13 5.39085 117.434 1.64551 117.585C1.44106 117.594 1.23288 117.532 0.796692 117.472C1.25023 117.047 1.55382 116.762 1.61516 116.705C1.08295 116.272 0.541428 115.831 -7.62939e-05 115.39C0.4646 114.838 0.825821 114.079 1.41875 113.781C2.2973 113.34 3.32767 113.086 4.31528 112.996C7.02777 112.752 9.7533 112.661 12.4707 112.46C15.5736 112.231 18.6715 111.932 21.7749 111.706C22.529 111.651 23.3041 111.851 24.0538 111.778C27.6417 111.429 31.2507 111.185 34.8009 110.594C37.988 110.063 41.0828 108.983 44.2674 108.424C46.6937 107.997 48.9223 107.142 51.1398 106.176C56.4756 103.85 61.5605 101.219 65.9632 97.2232C72.1385 91.619 77.0536 85.0483 81.3349 78.0254C83.8857 73.8398 85.5263 69.1085 87.7301 64.6994C90.0065 60.1465 92.4327 55.6667 94.8646 51.1937C96.0901 48.9399 97.276 46.6192 98.8342 44.6026C100.822 42.0285 103.103 39.6675 105.384 37.3387C106.865 35.8289 108.435 34.3259 110.205 33.1972C114.313 30.5753 118.839 29.7798 123.586 31.1013C125.035 31.504 126.068 31.3695 127.242 30.3405C135.925 22.7259 145.611 16.6366 156.146 11.9493C162.432 9.15215 168.738 6.32278 175.241 4.1154C183.629 1.26869 192.328 -0.318535 201.264 0.0538025C202.709 0.113899 204.175 0.394547 205.561 0.811485C206.137 0.984955 206.526 1.78228 207 2.29525C206.48 2.6428 205.989 3.21586 205.434 3.28772C204.486 3.41039 203.496 3.2301 202.526 3.1539C201.87 3.10248 201.21 2.90237 200.567 2.95503C193.638 3.52747 186.872 4.9846 180.289 7.1647C163.139 12.8451 147.427 21.179 133.57 32.8638C133.06 33.2938 132.573 33.7522 131.887 34.3656Z" fill="#172327"/>
</svg>
