<svg width="138" height="116" viewBox="0 0 138 116" fill="none" xmlns="http://www.w3.org/2000/svg">
<path fill-rule="evenodd" clip-rule="evenodd" d="M91.1393 57.3046C91.5015 58.3184 92.3487 59.2126 92.2739 60.3809C92.2578 60.6324 92.4205 60.7702 92.5777 60.9473C92.7624 61.1552 92.988 63.2175 93.0789 63.4984C93.3328 64.2857 92.6057 65.1288 93.0687 65.7852C93.6198 66.5656 93.4182 67.2705 93.4056 68.0953C93.3752 70.1145 92.9654 72.0129 92.0994 74.149C92.0614 73.4347 91.9709 72.9784 91.5848 72.6773C91.821 72.4925 92.1113 72.5648 92.2074 72.2383C91.673 70.8492 92.2726 69.3918 92.1936 67.9245C92.1214 66.5558 92.2829 65.1677 92.0609 63.7802C91.716 61.628 91.4427 59.4639 91.1393 57.3046ZM74.5391 89.6871C73.959 90.1908 73.6062 90.8257 73.0564 91.3393C71.7403 92.5677 70.1988 93.4442 68.745 94.4568C68.127 94.8868 67.3607 94.8473 66.9092 94.3049C65.3977 92.4876 63.8113 90.7232 62.7765 88.5581C62.2923 87.5448 61.7516 86.5594 61.248 85.5546C60.7125 84.4874 60.425 83.3199 59.9974 82.2112C59.5846 81.1391 59.5714 79.9297 59.1532 78.8011C58.5779 77.2493 59.2402 75.5339 58.7794 73.9287C59.3332 73.3247 58.8126 72.6332 58.9373 71.9841C59.2104 70.563 59.4321 69.1318 59.6544 67.7012C60.036 65.2361 60.9199 62.8984 62.0085 60.7144C62.8505 59.0251 63.8183 57.3348 65.167 55.8859C66.1154 54.8666 67.0679 53.8808 68.1953 53.0978C70.083 51.7852 72.052 50.6038 74.4432 50.4463C74.7889 50.4235 75.1358 50.3773 75.4727 50.301C77.8628 49.7608 79.2107 50.9765 80.6858 52.5253C81.4441 53.3214 81.7921 54.4259 82.7377 55.0511C82.6555 55.3255 82.1574 55.5857 82.6585 55.8956C82.961 56.0825 82.9657 56.3626 82.9787 56.6377C83.0042 57.1713 83.6257 56.665 83.7055 57.0682C83.1562 57.7731 83.5228 58.1868 84.1389 58.5204C84.2516 58.3986 84.3536 58.2879 84.5422 58.084C84.8462 59.246 84.9446 60.3438 85.3507 61.4002C85.9369 62.9286 85.6141 64.6458 85.6173 66.2555C85.6215 67.7713 85.5399 69.3801 85.0056 70.8771C84.9871 70.9285 85.2413 71.0778 85.3769 71.1879C84.3799 72.108 84.2186 73.4472 83.8113 74.6C83.0615 76.721 82.346 78.8262 80.9868 80.6441C80.778 80.9227 80.9464 81.2338 80.8385 81.4308C80.585 81.895 80.7252 82.3989 80.5792 82.8686L79.9258 82.9604C79.5409 83.1706 79.8049 83.5859 79.5402 83.8788C79.3172 84.1254 78.9388 84.1072 78.7874 84.6258C78.5601 85.4038 77.9068 86.0995 77.3163 86.7171C76.7427 87.3169 76.7393 88.3897 75.6579 88.5905C75.2871 88.6593 75.3836 89.2723 75.1793 89.5972L74.5391 89.6871ZM75.0987 103.658C75.7433 104.578 76.7689 104.062 77.5937 104.262C78.1723 104.401 78.9777 104.806 79.518 104.372C80.0978 103.907 80.6178 104.42 81.1618 104.209C81.5383 104.062 82.0253 103.884 82.4624 104.278C82.5787 104.383 82.9671 104.353 83.1043 104.237C83.4656 103.932 83.7587 103.553 84.2113 104.09C85.0306 103.4 86.1239 103.618 87.0428 103.23C88.1 102.784 89.1652 102.335 90.3072 102.14C90.5878 101.769 90.8668 101.399 91.1445 101.03C91.5355 101.384 91.915 101.392 92.3504 101.07C93.944 99.8918 95.8156 99.0685 97.2198 97.6761C98.2795 96.6257 99.5318 95.7802 100.409 94.5068C101.332 93.1665 102.561 92.05 103.534 90.7271C104.941 88.8145 106.059 86.7207 107.395 84.7654C107.447 83.8297 108.163 83.2183 108.527 82.436C108.92 81.591 109.489 80.85 109.822 79.9602C110.144 79.0975 110.478 78.2154 111.048 77.4549C111.276 77.1497 111.015 76.9423 110.692 76.7338C111.059 76.0924 111.783 75.7374 111.901 74.8265C111.996 74.098 112.64 73.4113 112.973 72.6391C113.955 70.3589 114.847 68.0522 115.614 65.6948C115.895 64.831 115.983 63.8755 116.404 63.0948C116.832 62.3008 116.768 61.4167 117.163 60.6248C117.565 59.8211 117.801 58.9174 118 58.0335C118.601 55.3732 119.468 52.7879 120.068 50.12C120.701 47.3022 121.409 44.5048 121.915 41.6554C122.091 40.6611 122.401 39.6911 122.553 38.6731C122.736 37.4516 122.851 36.216 123.094 35.0072C123.329 33.8435 123.723 32.7208 123.644 31.4963C123.629 31.2332 123.997 30.9006 123.818 30.5679C123.661 30.2765 124.367 30.1032 123.84 29.7256C123.59 29.5474 124.151 29.2502 124.251 28.9579C124.399 28.5291 124.221 28.0985 124.271 27.645C124.509 25.4404 124.938 23.2617 125.007 21.0245C125.045 19.7623 125.016 18.4487 125.393 17.1632C125.611 16.422 125.095 15.523 125.455 14.6968C125.05 13.4283 125.66 12.1101 125.268 10.8379C125.159 10.4875 125.651 10.1196 125.147 9.70478C124.957 9.54841 125.486 8.96193 125.3 8.46121C125.142 8.03811 125.151 7.55169 125.087 7.09362C125.023 6.63556 124.942 6.17908 124.897 5.71898C124.779 4.52123 124.277 3.57078 123.457 2.64579C122.722 1.81745 121.977 1.09968 121.002 0.596713C120.653 0.416494 120.363 0.516346 120.065 0.66684C119.747 1.34692 120.443 1.64752 120.62 2.13922C120.761 2.52934 121.277 2.68934 121.207 3.28909C121.163 3.66727 121.672 4.00757 121.246 4.53525C120.837 5.04111 121.932 5.26567 121.681 5.89857C121.552 5.94489 121.4 5.99907 121.225 6.06221C121.208 6.08457 121.136 6.13903 121.144 6.17576C121.388 7.28328 121.214 8.39875 121.22 9.51005C121.221 9.79907 121.503 9.83454 121.653 10.0377C121.461 10.136 121.271 10.2334 121.082 10.3301C120.981 10.7393 120.994 11.1114 121.42 11.3651C121.395 11.4457 121.396 11.5594 121.339 11.6097C120.894 12.0058 121.054 12.5185 120.985 13.0152C120.62 15.6309 120.723 18.304 120.015 20.8754C120.22 22.3705 119.578 23.7459 119.389 25.1866C119.271 26.0854 119.112 27.0053 119.005 27.8884C118.895 28.7995 118.158 29.6286 118.579 30.6045C117.956 31.997 118.022 33.5522 117.551 34.9748C117.213 35.999 117.196 37.0769 116.898 38.1205C116.611 39.1253 116.442 40.22 116.176 41.2431C115.773 42.7917 115.537 44.383 114.932 45.8969C114.606 46.7164 114.347 47.6285 114.167 48.5051C113.33 52.5654 111.864 56.4196 110.489 60.3061C110.077 61.4671 109.413 62.5615 109.372 63.8209C109.35 64.4774 108.728 64.8045 108.712 65.4885C108.7 65.9669 108.115 66.4057 107.975 66.9144C107.814 67.4985 107.578 68.0264 107.341 68.5757C106.96 69.4568 106.453 70.3511 106.776 71.3318C106.521 71.6157 106.467 71.2994 106.327 71.2948C105.429 72.4431 105.405 72.6046 105.995 73.5818C105.858 73.7546 105.721 73.9288 105.59 74.0943C105.443 74.0019 105.311 73.9189 105.204 73.8511C104.235 74.8573 103.678 75.9719 104.135 77.3405C103.768 77.5412 103.626 77.0394 103.271 77.275C102.619 78.5071 102.046 79.8823 101.21 81.0728C100.588 81.9589 99.9561 82.8527 99.2845 83.7111C98.5722 84.6227 97.888 85.5561 97.1922 86.4801C96.4958 87.4043 95.895 88.423 95.0826 89.2311C93.6159 90.6901 92.1697 92.1636 90.5318 93.47C89.2115 94.5224 87.8081 95.3987 86.3962 96.266C85.4428 96.8517 84.3357 97.2309 83.2509 97.5401C82.7116 97.6937 82.2151 97.8688 81.7266 98.1283C81.546 98.2237 81.2823 98.2634 81.0931 98.0464C80.9508 97.6417 81.2283 97.3123 81.4775 97.1745C82.9353 96.3689 83.8535 95.0248 84.8842 93.8095C85.8929 92.6204 86.8061 91.3465 87.7128 90.076C89.1936 88.0033 90.3871 85.7795 91.3268 83.3999C91.9206 81.8964 92.6257 80.4442 93.1484 78.9019C93.9617 76.5047 94.5785 74.0728 94.8634 71.5649C94.9024 71.2156 95.2703 70.9628 95.1044 70.6372C94.8635 70.1667 95.6559 69.6968 95.2157 69.4124C94.6108 69.0219 95.3803 68.7737 95.1826 68.4186C95.0053 68.0984 95.0237 67.6898 95.3183 67.3033C95.506 67.0572 95.1263 66.8382 94.8978 66.6479C95.598 66.2032 95.3555 65.4425 95.3168 64.8973C95.193 63.1709 95.047 61.4097 94.5787 59.7555C94.241 58.5597 93.9584 57.3118 93.4225 56.1734C92.8986 55.0609 92.2244 54.0171 91.7396 52.8901C91.4045 52.1103 90.7595 51.6034 90.3372 50.9213C89.9274 50.2593 89.2896 49.7623 88.9015 49.1589C88.3332 48.2743 87.3608 48.0486 86.7 47.3422C86.0876 46.688 85.0742 46.4173 84.2292 46.1011C83.1949 45.7138 82.1147 45.315 81.0057 45.1554C79.9408 45.0024 78.899 44.7447 77.8079 44.6661C76.372 44.562 74.9624 44.3977 73.5214 44.6048C72.8789 44.697 72.2408 44.3575 71.5517 44.5295C70.6907 44.7443 69.8158 44.7869 68.9778 45.2202C68.2117 45.6163 67.2837 45.5688 66.416 45.9098C63.1919 47.177 62.5905 47.2089 59.6657 49.3252C59.2329 49.6379 59.0407 50.2958 58.3878 50.3041C56.8036 52.6008 54.7721 54.5909 53.6258 57.1872C52.2313 60.3452 51.2821 63.6308 50.7922 67.053C50.6555 68.0096 50.2451 68.9251 50.3816 69.9326C49.58 68.2019 50.6433 66.4873 50.4533 64.3487C49.8038 65.9724 49.767 67.2921 49.6338 68.5753C49.4585 70.2815 49.3882 71.985 49.5677 73.7197C49.6492 74.5049 49.5703 75.3655 49.6228 76.1966C49.6707 76.9442 50.3255 77.4471 50.2981 78.24C50.2746 78.9231 50.3425 79.6621 50.5853 80.2923C51.3831 82.3577 52.0981 84.4501 53.0099 86.4809C53.9909 88.6651 55.3065 90.6018 56.668 92.5173C57.5553 93.765 58.5137 95.0162 59.8475 95.8472C60.3902 96.184 60.5612 96.9619 61.3198 97.0242C61.3647 97.0282 61.3316 97.3509 61.5245 97.4433C61.9365 97.6405 61.7151 98.0494 61.906 98.3291C60.1279 99.0904 58.3783 99.6852 56.6486 100.329C55.3487 100.813 53.9915 101.004 52.691 101.461C51.4072 101.913 49.9631 102.048 48.5858 102.064C46.567 102.086 44.5273 102.18 42.5221 101.852C40.5643 101.531 38.7008 100.835 36.8093 100.255C36.2163 100.073 35.9453 99.2964 35.2029 99.4225C33.9547 98.1169 32.0446 97.7564 30.8856 96.2391C30.1909 95.3286 29.0593 94.7654 28.229 93.8958C27.02 92.631 25.9171 91.2754 24.7168 90.0081C23.7428 88.9801 22.9819 87.7859 22.1 86.6948C20.8025 85.089 19.8204 83.2076 18.8516 81.3661C18.3046 80.3263 17.6539 79.3447 17.2161 78.2278C16.5974 76.6462 15.722 75.1629 15.6027 73.4179C15.5545 72.7044 15.8872 72.0222 15.6817 71.2691C15.5588 70.8192 15.306 70.6074 14.9931 70.3744C14.6121 71.2112 14.5884 72.1854 13.8322 73.1276C13.9613 72.4136 12.8981 72.3285 13.4881 71.4604C13.7648 71.0521 13.2771 70.2751 13.8144 69.7459C13.5062 69.5547 13.3112 69.4337 12.9198 69.1906C12.7654 69.4732 12.5279 69.795 12.4129 70.1556C12.3148 70.4637 12.4367 70.8783 11.7526 70.7701C12.1133 70.1 11.8758 69.4523 11.7696 68.7284C11.0547 68.8584 10.3762 68.7436 9.86017 69.2601C9.6216 69.1536 9.83507 68.7799 9.50459 68.728C9.26952 69.0624 8.89836 69.3336 8.77837 69.7919C8.67852 70.1741 8.5427 70.5472 8.41898 70.9379C8.00482 70.6884 8.34724 70.1943 7.96609 69.9877C7.68015 70.5727 7.53766 71.1498 7.65176 71.8245C7.9292 73.4785 8.18259 75.1398 8.34572 76.808C8.42925 77.6675 8.87159 78.3873 9.10897 79.1758C9.62046 80.8676 10.3223 82.5333 11.1815 84.0793C11.9063 85.3826 12.3842 86.8446 13.4384 87.9584C14.8332 91.0945 17.5038 93.2539 19.5512 95.8897C20.051 96.5339 20.7697 97.0574 21.4069 97.5725C23.809 99.5133 26.0337 101.682 28.6311 103.376C32.2145 105.713 36.0366 107.572 40.1774 108.667C41.879 109.117 43.6425 109.371 45.4069 109.595C46.6918 109.759 48.0063 109.653 49.2667 110.017C49.3684 110.046 49.4872 110.018 49.5975 110.017C51.606 109.984 59.1748 109.293 60.6614 108.775C62.2724 108.214 63.9503 107.887 65.5362 107.271C67.0428 106.684 68.5206 106.022 70.0129 105.398C70.1168 105.356 70.2831 105.405 70.3492 105.34C71.6237 104.077 73.2558 103.799 75.0987 103.658Z" fill="black"/>
</svg>
