<svg width="170" height="170" viewBox="0 0 170 170" fill="none" xmlns="http://www.w3.org/2000/svg">
<g clip-path="url(#clip0)">
<path d="M125.223 191.188C149.769 175.874 168.816 150.339 190.887 130.158" stroke="black" stroke-width="2" stroke-linecap="round" stroke-linejoin="round"/>
<path d="M-8 219.98C16.1294 205.457 39.4333 186.172 64.9885 176.105C85.7876 167.912 105.582 158.174 125.223 145.92C149.769 130.607 168.816 105.072 190.887 84.8911" stroke="black" stroke-width="2" stroke-linecap="round" stroke-linejoin="round"/>
<path d="M125.223 221.366C149.769 206.052 168.816 180.517 190.887 160.337" stroke="black" stroke-width="2" stroke-linecap="round" stroke-linejoin="round"/>
<path d="M-8 235.069C16.1294 220.546 39.4333 201.261 64.9885 191.194C85.7876 183.001 105.582 173.263 125.223 161.01C149.769 145.696 168.816 120.161 190.887 99.9802" stroke="black" stroke-width="2" stroke-linecap="round" stroke-linejoin="round"/>
<path d="M125.223 206.277C149.769 190.963 168.816 165.428 190.887 145.248" stroke="black" stroke-width="2" stroke-linecap="round" stroke-linejoin="round"/>
<path d="M64.9885 206.283C85.7876 198.09 105.582 188.352 125.223 176.099C149.769 160.785 168.816 135.25 190.887 115.069" stroke="black" stroke-width="2" stroke-linecap="round" stroke-linejoin="round"/>
<path d="M-8 174.713C16.1294 160.19 39.4333 140.905 64.9885 130.838C85.7876 122.644 105.582 112.906 125.223 100.653C149.769 85.3396 168.816 59.8044 190.887 39.6238" stroke="black" stroke-width="2" stroke-linecap="round" stroke-linejoin="round"/>
<path d="M-8 189.802C16.1294 175.279 39.4333 155.994 64.9885 145.927C85.7876 137.733 105.582 127.995 125.223 115.742C149.769 100.429 168.816 74.8935 190.887 54.7129" stroke="black" stroke-width="2" stroke-linecap="round" stroke-linejoin="round"/>
<path d="M-8 129.446C16.1294 114.923 39.4333 95.6375 64.9885 85.5705C85.7876 77.377 105.582 67.6388 125.223 55.3857C149.769 40.0723 168.816 14.537 190.887 -5.64355" stroke="black" stroke-width="2" stroke-linecap="round" stroke-linejoin="round"/>
<path d="M-8 84.1783C16.1294 69.6553 39.4333 50.3702 64.9885 40.3031C85.7876 32.1097 105.582 22.3715 125.223 10.1184C149.769 -5.19505 168.816 -30.7303 190.887 -50.9109" stroke="black" stroke-width="2" stroke-linecap="round" stroke-linejoin="round"/>
<path d="M-8 204.891C16.1294 190.368 39.4333 171.083 64.9885 161.016C85.7876 152.823 105.582 143.084 125.223 130.831C149.769 115.518 168.816 89.9826 190.887 69.802" stroke="black" stroke-width="2" stroke-linecap="round" stroke-linejoin="round"/>
<path d="M-8 144.535C16.1294 130.012 39.4333 110.727 64.9885 100.66C85.7876 92.4661 105.582 82.728 125.223 70.4748C149.769 55.1614 168.816 29.6261 190.887 9.44556" stroke="black" stroke-width="2" stroke-linecap="round" stroke-linejoin="round"/>
<path d="M-8 99.2674C16.1294 84.7444 39.4333 65.4593 64.9885 55.3923C85.7876 47.1988 105.582 37.4606 125.223 25.2075C149.769 9.89404 168.816 -15.6412 190.887 -35.8218" stroke="black" stroke-width="2" stroke-linecap="round" stroke-linejoin="round"/>
<path d="M-8 159.624C16.1294 145.101 39.4333 125.816 64.9885 115.749C85.7876 107.555 105.582 97.8171 125.223 85.564C149.769 70.2505 168.816 44.7152 190.887 24.5347" stroke="black" stroke-width="2" stroke-linecap="round" stroke-linejoin="round"/>
<path d="M-8 114.356C16.1294 99.8335 39.4333 80.5484 64.9885 70.4814C85.7876 62.2879 105.582 52.5497 125.223 40.2966C149.769 24.9832 168.816 -0.552092 190.887 -20.7327" stroke="black" stroke-width="2" stroke-linecap="round" stroke-linejoin="round"/>
<path d="M-8 69.0891C16.1294 54.5662 39.4333 35.2811 64.9885 25.214C85.7876 17.0205 105.582 7.2824 125.223 -4.97071C149.769 -20.2842 168.816 -45.8194 190.887 -66" stroke="black" stroke-width="2" stroke-linecap="round" stroke-linejoin="round"/>
<path d="M-8 54C16.1294 39.4771 39.4333 20.192 64.9885 10.1249C85.7876 1.93144 105.582 -7.80671 125.223 -20.0598" stroke="black" stroke-width="2" stroke-linecap="round" stroke-linejoin="round"/>
<path d="M-8 38.9109C16.1294 24.388 39.4333 5.10287 64.9885 -4.96418C85.7876 -13.1577 105.582 -22.8958 125.223 -35.1489" stroke="black" stroke-width="2" stroke-linecap="round" stroke-linejoin="round"/>
<path d="M-8 23.8218C16.1294 9.2989 39.4333 -9.98621 64.9885 -20.0533" stroke="black" stroke-width="2" stroke-linecap="round" stroke-linejoin="round"/>
<path d="M-8 8.73271C16.1294 -5.79023 39.4333 -25.0753 64.9885 -35.1424" stroke="black" stroke-width="2" stroke-linecap="round" stroke-linejoin="round"/>
</g>
<defs>
<clipPath id="clip0">
<rect width="170" height="170" fill="white"/>
</clipPath>
</defs>
</svg>
