<svg width="170" height="159" viewBox="0 0 170 159" fill="none" xmlns="http://www.w3.org/2000/svg">
<path fill-rule="evenodd" clip-rule="evenodd" d="M20.2278 141.686C24.9373 141.688 28.7541 145.507 28.7527 150.216C28.7512 154.926 24.9318 158.743 20.2223 158.741C15.5128 158.739 11.696 154.92 11.6975 150.211C11.699 145.501 15.5183 141.685 20.2278 141.686ZM43.769 141.686C48.4788 141.688 52.2952 145.507 52.2938 150.216C52.2923 154.926 48.4729 158.743 43.7634 158.741C39.0539 158.739 35.2371 154.92 35.239 150.211C35.2404 145.501 39.0595 141.685 43.769 141.686ZM67.3102 141.686C72.0201 141.688 75.8365 145.507 75.8351 150.216C75.8336 154.926 72.0142 158.743 67.3047 158.741C62.5952 158.739 58.7784 154.92 58.7799 150.211C58.7817 145.501 62.6007 141.685 67.3102 141.686ZM90.8515 141.686C95.561 141.688 99.3778 145.507 99.3763 150.216C99.3748 154.926 95.5555 158.743 90.846 158.741C86.1365 158.739 82.3197 154.92 82.3212 150.211C82.3226 145.501 86.142 141.685 90.8515 141.686ZM114.393 141.686C119.102 141.688 122.919 145.507 122.917 150.216C122.916 154.926 119.097 158.743 114.387 158.741C109.678 158.739 105.861 154.92 105.863 150.211C105.864 145.501 109.683 141.685 114.393 141.686ZM137.934 141.686C142.644 141.688 146.46 145.507 146.459 150.216C146.457 154.926 142.638 158.743 137.928 158.741C133.219 158.739 129.402 154.92 129.404 150.211C129.405 145.501 133.224 141.685 137.934 141.686ZM161.475 141.686C166.185 141.688 170.001 145.507 170 150.216C169.999 154.926 166.179 158.743 161.47 158.741C156.76 158.739 152.943 154.92 152.945 150.211C152.946 145.501 156.766 141.685 161.475 141.686ZM8.53036 117.999C13.2399 118 17.0566 121.819 17.0551 126.529C17.0537 131.238 13.2343 135.055 8.52481 135.054C3.81531 135.052 -0.00147757 131.233 4.29107e-07 126.523C0.00148043 121.814 3.82087 117.997 8.53036 117.999ZM32.0714 117.999C36.7813 118 40.5977 121.819 40.5963 126.529C40.5948 131.238 36.7754 135.055 32.0663 135.054C27.3564 135.052 23.5396 131.233 23.5415 126.523C23.543 121.814 27.3619 117.997 32.0714 117.999ZM55.6127 117.999C60.3226 118 64.139 121.819 64.1375 126.529C64.1361 131.238 60.3167 135.055 55.6072 135.054C50.8977 135.052 47.0809 131.233 47.0824 126.523C47.0842 121.814 50.9032 117.997 55.6127 117.999ZM79.154 117.999C83.8639 118 87.6803 121.819 87.6788 126.529C87.6774 131.238 83.858 135.055 79.1485 135.054C74.439 135.052 70.6222 131.233 70.6237 126.523C70.6252 121.814 74.4445 117.997 79.154 117.999ZM102.695 117.999C107.405 118 111.221 121.819 111.22 126.529C111.218 131.238 107.399 135.055 102.69 135.054C97.9801 135.052 94.1633 131.233 94.1651 126.523C94.1666 121.814 97.9856 117.997 102.695 117.999ZM126.236 117.999C130.946 118 134.763 121.819 134.761 126.529C134.76 131.238 130.94 135.055 126.231 135.054C121.521 135.052 117.705 131.233 117.706 126.523C117.708 121.814 121.527 117.997 126.236 117.999ZM149.778 117.999C154.488 118 158.304 121.819 158.302 126.529C158.301 131.238 154.482 135.055 149.772 135.054C145.063 135.052 141.246 131.233 141.247 126.523C141.249 121.814 145.068 117.997 149.778 117.999ZM90.8515 94.4573C95.561 94.4592 99.3778 98.2782 99.3763 102.988C99.3748 107.697 95.5555 111.514 90.846 111.513C86.1365 111.511 82.3197 107.692 82.3212 102.982C82.3226 98.2726 86.142 94.4559 90.8515 94.4573ZM20.2278 94.4573C24.9373 94.4592 28.7541 98.2782 28.7527 102.988C28.7512 107.697 24.9318 111.514 20.2223 111.513C15.5128 111.511 11.696 107.692 11.6975 102.982C11.699 98.2726 15.5183 94.4559 20.2278 94.4573ZM114.393 94.4573C119.102 94.4592 122.919 98.2782 122.917 102.988C122.916 107.697 119.097 111.514 114.387 111.513C109.678 111.511 105.861 107.692 105.863 102.982C105.864 98.2726 109.683 94.4559 114.393 94.4573ZM67.3102 94.4573C72.0201 94.4592 75.8365 98.2782 75.8351 102.988C75.8336 107.697 72.0142 111.514 67.3047 111.513C62.5952 111.511 58.7784 107.692 58.7799 102.982C58.7817 98.2726 62.6007 94.4559 67.3102 94.4573ZM137.934 94.4573C142.644 94.4592 146.46 98.2782 146.459 102.988C146.457 107.697 142.638 111.514 137.928 111.513C133.219 111.511 129.402 107.692 129.404 102.982C129.405 98.2726 133.224 94.4559 137.934 94.4573ZM43.769 94.4573C48.4788 94.4592 52.2952 98.2782 52.2938 102.988C52.2923 107.697 48.4729 111.514 43.7634 111.513C39.0539 111.511 35.2371 107.692 35.239 102.982C35.2404 98.2726 39.0595 94.4559 43.769 94.4573ZM161.475 94.4573C166.185 94.4592 170.001 98.2782 170 102.988C169.999 107.697 166.179 111.514 161.47 111.513C156.76 111.511 152.943 107.692 152.945 102.982C152.946 98.2726 156.766 94.4559 161.475 94.4573ZM126.236 70.7698C130.946 70.7717 134.763 74.5907 134.761 79.3002C134.76 84.0097 130.94 87.8265 126.231 87.825C121.521 87.8235 117.705 84.0042 117.706 79.2947C117.708 74.5852 121.527 70.7684 126.236 70.7698ZM8.53036 70.7698C13.2399 70.7717 17.0566 74.5907 17.0551 79.3002C17.0537 84.0097 13.2343 87.8265 8.52481 87.825C3.81531 87.8235 -0.00147757 84.0042 4.29107e-07 79.2947C0.00148043 74.5852 3.82087 70.7684 8.53036 70.7698ZM55.6127 70.7698C60.3226 70.7717 64.139 74.5907 64.1375 79.3002C64.1361 84.0097 60.3167 87.8265 55.6072 87.825C50.8977 87.8235 47.0809 84.0042 47.0824 79.2947C47.0842 74.5852 50.9032 70.7684 55.6127 70.7698ZM102.695 70.7698C107.405 70.7717 111.221 74.5907 111.22 79.3002C111.218 84.0097 107.399 87.8265 102.69 87.825C97.9801 87.8235 94.1633 84.0042 94.1651 79.2947C94.1666 74.5852 97.9856 70.7684 102.695 70.7698ZM32.0714 70.7698C36.7813 70.7717 40.5977 74.5907 40.5963 79.3002C40.5948 84.0097 36.7754 87.8265 32.0663 87.825C27.3564 87.8235 23.5396 84.0042 23.5415 79.2947C23.543 74.5852 27.3619 70.7684 32.0714 70.7698ZM149.778 70.7698C154.488 70.7717 158.304 74.5907 158.302 79.3002C158.301 84.0097 154.482 87.8265 149.772 87.825C145.063 87.8235 141.246 84.0042 141.247 79.2947C141.249 74.5852 145.068 70.7684 149.778 70.7698ZM79.154 70.7698C83.8639 70.7717 87.6803 74.5907 87.6788 79.3002C87.6774 84.0097 83.858 87.8265 79.1485 87.825C74.439 87.8235 70.6222 84.0042 70.6237 79.2947C70.6252 74.5852 74.4445 70.7684 79.154 70.7698ZM161.475 47.2286C166.185 47.2305 170.001 51.0495 170 55.759C169.999 60.4685 166.179 64.2853 161.47 64.2838C156.76 64.2823 152.943 60.463 152.945 55.7535C152.946 51.044 156.766 47.2272 161.475 47.2286ZM43.769 47.2286C48.4788 47.2305 52.2952 51.0495 52.2938 55.759C52.2923 60.4685 48.4729 64.2853 43.7634 64.2838C39.0539 64.2823 35.2371 60.463 35.239 55.7535C35.2404 51.044 39.0595 47.2272 43.769 47.2286ZM90.8515 47.2286C95.561 47.2305 99.3778 51.0495 99.3763 55.759C99.3748 60.4685 95.5555 64.2853 90.846 64.2838C86.1365 64.2823 82.3197 60.463 82.3212 55.7535C82.3226 51.044 86.142 47.2272 90.8515 47.2286ZM114.393 47.2286C119.102 47.2305 122.919 51.0495 122.917 55.759C122.916 60.4685 119.097 64.2853 114.387 64.2838C109.678 64.2823 105.861 60.463 105.863 55.7535C105.864 51.044 109.683 47.2272 114.393 47.2286ZM67.3102 47.2286C72.0201 47.2305 75.8365 51.0495 75.8351 55.759C75.8336 60.4685 72.0142 64.2853 67.3047 64.2838C62.5952 64.2823 58.7784 60.463 58.7799 55.7535C58.7817 51.044 62.6007 47.2272 67.3102 47.2286ZM137.934 47.2286C142.644 47.2305 146.46 51.0495 146.459 55.759C146.457 60.4685 142.638 64.2853 137.928 64.2838C133.219 64.2823 129.402 60.463 129.404 55.7535C129.405 51.044 133.224 47.2272 137.934 47.2286ZM20.2278 47.2286C24.9373 47.2305 28.7541 51.0495 28.7527 55.759C28.7512 60.4685 24.9318 64.2853 20.2223 64.2838C15.5128 64.2823 11.696 60.463 11.6975 55.7535C11.699 51.044 15.5183 47.2272 20.2278 47.2286ZM8.53036 23.5412C13.2399 23.543 17.0566 27.3621 17.0551 32.0716C17.0537 36.7811 13.2343 40.5979 8.52481 40.5964C3.81531 40.5949 -0.00147757 36.7755 4.29107e-07 32.066C0.00148043 27.3565 3.82087 23.5397 8.53036 23.5412ZM32.0714 23.5412C36.7813 23.543 40.5977 27.3621 40.5963 32.0716C40.5948 36.7811 36.7754 40.5979 32.0663 40.5964C27.3564 40.5949 23.5396 36.7755 23.5415 32.066C23.543 27.3565 27.3619 23.5397 32.0714 23.5412ZM55.6127 23.5412C60.3226 23.543 64.139 27.3621 64.1375 32.0716C64.1361 36.7811 60.3167 40.5979 55.6072 40.5964C50.8977 40.5949 47.0809 36.7755 47.0824 32.066C47.0842 27.3565 50.9032 23.5397 55.6127 23.5412ZM79.154 23.5412C83.8639 23.543 87.6803 27.3621 87.6788 32.0716C87.6774 36.7811 83.858 40.5979 79.1485 40.5964C74.439 40.5949 70.6222 36.7755 70.6237 32.066C70.6252 27.3565 74.4445 23.5397 79.154 23.5412ZM102.695 23.5412C107.405 23.543 111.221 27.3621 111.22 32.0716C111.218 36.7811 107.399 40.5979 102.69 40.5964C97.9801 40.5949 94.1633 36.7755 94.1651 32.066C94.1666 27.3565 97.9856 23.5397 102.695 23.5412ZM126.236 23.5412C130.946 23.543 134.763 27.3621 134.761 32.0716C134.76 36.7811 130.94 40.5979 126.231 40.5964C121.521 40.5949 117.705 36.7755 117.706 32.066C117.708 27.3565 121.527 23.5397 126.236 23.5412ZM149.778 23.5412C154.488 23.543 158.304 27.3621 158.302 32.0716C158.301 36.7811 154.482 40.5979 149.772 40.5964C145.063 40.5949 141.246 36.7755 141.247 32.066C141.249 27.3565 145.068 23.5397 149.778 23.5412ZM20.2278 4.2911e-07C24.9373 0.00148043 28.7541 3.82083 28.7527 8.53033C28.7512 13.2398 24.9318 17.0567 20.2223 17.0552C15.5128 17.0537 11.696 13.2343 11.6975 8.52478C11.699 3.81528 15.5183 -0.00147757 20.2278 4.2911e-07ZM43.769 4.2911e-07C48.4788 0.00148043 52.2952 3.82083 52.2938 8.53033C52.2923 13.2398 48.4729 17.0567 43.7634 17.0552C39.0539 17.0537 35.2371 13.2343 35.239 8.52478C35.2404 3.81528 39.0595 -0.00147757 43.769 4.2911e-07ZM67.3102 4.2911e-07C72.0201 0.00148043 75.8365 3.82083 75.8351 8.53033C75.8336 13.2398 72.0142 17.0567 67.3047 17.0552C62.5952 17.0537 58.7784 13.2343 58.7799 8.52478C58.7817 3.81528 62.6007 -0.00147757 67.3102 4.2911e-07ZM90.8515 4.2911e-07C95.561 0.00148043 99.3778 3.82083 99.3763 8.53033C99.3748 13.2398 95.5555 17.0567 90.846 17.0552C86.1365 17.0537 82.3197 13.2343 82.3212 8.52478C82.3226 3.81528 86.142 -0.00147757 90.8515 4.2911e-07ZM114.393 4.2911e-07C119.102 0.00148043 122.919 3.82083 122.917 8.53033C122.916 13.2398 119.097 17.0567 114.387 17.0552C109.678 17.0537 105.861 13.2343 105.863 8.52478C105.864 3.81528 109.683 -0.00147757 114.393 4.2911e-07ZM137.934 4.2911e-07C142.644 0.00148043 146.46 3.82083 146.459 8.53033C146.457 13.2398 142.638 17.0567 137.928 17.0552C133.219 17.0537 129.402 13.2343 129.404 8.52478C129.405 3.81528 133.224 -0.00147757 137.934 4.2911e-07ZM161.475 4.2911e-07C166.185 0.00148043 170.001 3.82083 170 8.53033C169.999 13.2398 166.179 17.0567 161.47 17.0552C156.76 17.0537 152.943 13.2343 152.945 8.52478C152.946 3.81528 156.766 -0.00147757 161.475 4.2911e-07Z" fill="#050916"/>
</svg>
