<svg width="147" height="146" viewBox="0 0 147 146" fill="none" xmlns="http://www.w3.org/2000/svg">
<path d="M1.02359 2.39178C1.02359 1.45755 1.78094 0.700211 2.71518 0.700211C3.64942 0.700211 4.40675 1.45755 4.40675 2.39178C4.40675 3.32602 3.64942 4.08337 2.71518 4.08337C1.78094 4.08337 1.02359 3.32602 1.02359 2.39178Z" fill="black"/>
<path d="M1.02359 15.2479C1.02359 14.3136 1.78094 13.5563 2.71518 13.5563C3.64942 13.5563 4.40675 14.3136 4.40675 15.2479C4.40675 16.1821 3.64942 16.9395 2.71518 16.9395C1.78094 16.9395 1.02359 16.1821 1.02359 15.2479Z" fill="black"/>
<path d="M1.02359 28.104C1.02359 27.1697 1.78094 26.4124 2.71518 26.4124C3.64942 26.4124 4.40675 27.1697 4.40675 28.104C4.40675 29.0382 3.64942 29.7955 2.71518 29.7955C1.78094 29.7955 1.02359 29.0382 1.02359 28.104Z" fill="black"/>
<path d="M1.02359 40.96C1.02359 40.0257 1.78094 39.2684 2.71518 39.2684C3.64942 39.2684 4.40675 40.0257 4.40675 40.96C4.40675 41.8942 3.64942 42.6516 2.71518 42.6516C1.78094 42.6516 1.02359 41.8942 1.02359 40.96Z" fill="black"/>
<path d="M1.02359 53.816C1.02359 52.8818 1.78094 52.1245 2.71518 52.1245C3.64942 52.1245 4.40675 52.8818 4.40675 53.816C4.40675 54.7503 3.64942 55.5076 2.71518 55.5076C1.78094 55.5076 1.02359 54.7503 1.02359 53.816Z" fill="black"/>
<path d="M1.02359 66.6721C1.02359 65.7378 1.78094 64.9805 2.71518 64.9805C3.64942 64.9805 4.40675 65.7378 4.40675 66.6721C4.40675 67.6063 3.64942 68.3636 2.71518 68.3636C1.78094 68.3636 1.02359 67.6063 1.02359 66.6721Z" fill="black"/>
<path d="M1.02359 79.5281C1.02359 78.5939 1.78094 77.8366 2.71518 77.8366C3.64942 77.8366 4.40675 78.5939 4.40675 79.5281C4.40675 80.4624 3.64942 81.2197 2.71518 81.2197C1.78094 81.2197 1.02359 80.4624 1.02359 79.5281Z" fill="black"/>
<path d="M1.02359 92.3842C1.02359 91.45 1.78094 90.6926 2.71518 90.6926C3.64942 90.6926 4.40675 91.45 4.40675 92.3842C4.40675 93.3185 3.64942 94.0758 2.71518 94.0758C1.78094 94.0758 1.02359 93.3185 1.02359 92.3842Z" fill="black"/>
<path d="M1.02359 105.24C1.02359 104.306 1.78094 103.549 2.71518 103.549C3.64942 103.549 4.40675 104.306 4.40675 105.24C4.40675 106.174 3.64942 106.932 2.71518 106.932C1.78094 106.932 1.02359 106.174 1.02359 105.24Z" fill="black"/>
<path d="M1.02359 118.096C1.02359 117.162 1.78094 116.405 2.71518 116.405C3.64942 116.405 4.40675 117.162 4.40675 118.096C4.40675 119.031 3.64942 119.788 2.71518 119.788C1.78094 119.788 1.02359 119.031 1.02359 118.096Z" fill="black"/>
<path d="M1.02359 130.952C1.02359 130.018 1.78094 129.261 2.71518 129.261C3.64942 129.261 4.40675 130.018 4.40675 130.952C4.40675 131.887 3.64942 132.644 2.71518 132.644C1.78094 132.644 1.02359 131.887 1.02359 130.952Z" fill="black"/>
<path d="M1.02359 143.808C1.02359 142.874 1.78094 142.117 2.71518 142.117C3.64942 142.117 4.40675 142.874 4.40675 143.808C4.40675 144.743 3.64942 145.5 2.71518 145.5C1.78094 145.5 1.02359 144.743 1.02359 143.808Z" fill="black"/>
<path d="M13.8796 15.2479C13.8796 14.3136 14.637 13.5563 15.5712 13.5563C16.5055 13.5563 17.2628 14.3136 17.2628 15.2479C17.2628 16.1821 16.5055 16.9395 15.5712 16.9395C14.637 16.9395 13.8796 16.1821 13.8796 15.2479Z" fill="black"/>
<path d="M13.8796 28.104C13.8796 27.1697 14.637 26.4124 15.5712 26.4124C16.5055 26.4124 17.2628 27.1697 17.2628 28.104C17.2628 29.0382 16.5055 29.7955 15.5712 29.7955C14.637 29.7955 13.8796 29.0382 13.8796 28.104Z" fill="black"/>
<path d="M13.8796 40.96C13.8796 40.0257 14.637 39.2684 15.5712 39.2684C16.5055 39.2684 17.2628 40.0257 17.2628 40.96C17.2628 41.8942 16.5055 42.6516 15.5712 42.6516C14.637 42.6516 13.8796 41.8942 13.8796 40.96Z" fill="black"/>
<path d="M13.8796 53.816C13.8796 52.8818 14.637 52.1245 15.5712 52.1245C16.5055 52.1245 17.2628 52.8818 17.2628 53.816C17.2628 54.7503 16.5055 55.5076 15.5712 55.5076C14.637 55.5076 13.8796 54.7503 13.8796 53.816Z" fill="black"/>
<path d="M13.8796 66.6721C13.8796 65.7378 14.637 64.9805 15.5712 64.9805C16.5055 64.9805 17.2628 65.7378 17.2628 66.6721C17.2628 67.6063 16.5055 68.3636 15.5712 68.3636C14.637 68.3636 13.8796 67.6063 13.8796 66.6721Z" fill="black"/>
<path d="M13.8796 79.5281C13.8796 78.5939 14.637 77.8366 15.5712 77.8366C16.5055 77.8366 17.2628 78.5939 17.2628 79.5281C17.2628 80.4624 16.5055 81.2197 15.5712 81.2197C14.637 81.2197 13.8796 80.4624 13.8796 79.5281Z" fill="black"/>
<path d="M13.8796 92.3842C13.8796 91.45 14.637 90.6926 15.5712 90.6926C16.5055 90.6926 17.2628 91.45 17.2628 92.3842C17.2628 93.3185 16.5055 94.0758 15.5712 94.0758C14.637 94.0758 13.8796 93.3185 13.8796 92.3842Z" fill="black"/>
<path d="M13.8796 105.24C13.8796 104.306 14.637 103.549 15.5712 103.549C16.5055 103.549 17.2628 104.306 17.2628 105.24C17.2628 106.174 16.5055 106.932 15.5712 106.932C14.637 106.932 13.8796 106.174 13.8796 105.24Z" fill="black"/>
<path d="M13.8796 118.096C13.8796 117.162 14.637 116.405 15.5712 116.405C16.5055 116.405 17.2628 117.162 17.2628 118.096C17.2628 119.031 16.5055 119.788 15.5712 119.788C14.637 119.788 13.8796 119.031 13.8796 118.096Z" fill="black"/>
<path d="M13.8796 130.952C13.8796 130.018 14.637 129.261 15.5712 129.261C16.5055 129.261 17.2628 130.018 17.2628 130.952C17.2628 131.887 16.5055 132.644 15.5712 132.644C14.637 132.644 13.8796 131.887 13.8796 130.952Z" fill="black"/>
<path d="M13.8796 143.808C13.8796 142.874 14.637 142.117 15.5712 142.117C16.5055 142.117 17.2628 142.874 17.2628 143.808C17.2628 144.743 16.5055 145.5 15.5712 145.5C14.637 145.5 13.8796 144.743 13.8796 143.808Z" fill="black"/>
<path d="M26.7357 28.104C26.7357 27.1697 27.493 26.4124 28.4273 26.4124C29.3615 26.4124 30.1189 27.1697 30.1189 28.104C30.1189 29.0382 29.3615 29.7955 28.4273 29.7955C27.493 29.7955 26.7357 29.0382 26.7357 28.104Z" fill="black"/>
<path d="M26.7357 40.96C26.7357 40.0257 27.493 39.2684 28.4273 39.2684C29.3615 39.2684 30.1189 40.0257 30.1189 40.96C30.1189 41.8942 29.3615 42.6516 28.4273 42.6516C27.493 42.6516 26.7357 41.8942 26.7357 40.96Z" fill="black"/>
<path d="M26.7357 53.816C26.7357 52.8818 27.493 52.1245 28.4273 52.1245C29.3615 52.1245 30.1189 52.8818 30.1189 53.816C30.1189 54.7503 29.3615 55.5076 28.4273 55.5076C27.493 55.5076 26.7357 54.7503 26.7357 53.816Z" fill="black"/>
<path d="M26.7357 66.6721C26.7357 65.7378 27.493 64.9805 28.4273 64.9805C29.3615 64.9805 30.1189 65.7378 30.1189 66.6721C30.1189 67.6063 29.3615 68.3636 28.4273 68.3636C27.493 68.3636 26.7357 67.6063 26.7357 66.6721Z" fill="black"/>
<path d="M26.7357 79.5281C26.7357 78.5939 27.493 77.8366 28.4273 77.8366C29.3615 77.8366 30.1189 78.5939 30.1189 79.5281C30.1189 80.4624 29.3615 81.2197 28.4273 81.2197C27.493 81.2197 26.7357 80.4624 26.7357 79.5281Z" fill="black"/>
<path d="M26.7357 92.3842C26.7357 91.45 27.493 90.6926 28.4273 90.6926C29.3615 90.6926 30.1189 91.45 30.1189 92.3842C30.1189 93.3185 29.3615 94.0758 28.4273 94.0758C27.493 94.0758 26.7357 93.3185 26.7357 92.3842Z" fill="black"/>
<path d="M26.7357 105.24C26.7357 104.306 27.493 103.549 28.4273 103.549C29.3615 103.549 30.1189 104.306 30.1189 105.24C30.1189 106.174 29.3615 106.932 28.4273 106.932C27.493 106.932 26.7357 106.174 26.7357 105.24Z" fill="black"/>
<path d="M26.7357 118.096C26.7357 117.162 27.493 116.405 28.4273 116.405C29.3615 116.405 30.1189 117.162 30.1189 118.096C30.1189 119.031 29.3615 119.788 28.4273 119.788C27.493 119.788 26.7357 119.031 26.7357 118.096Z" fill="black"/>
<path d="M26.7357 130.952C26.7357 130.018 27.493 129.261 28.4273 129.261C29.3615 129.261 30.1189 130.018 30.1189 130.952C30.1189 131.887 29.3615 132.644 28.4273 132.644C27.493 132.644 26.7357 131.887 26.7357 130.952Z" fill="black"/>
<path d="M26.7357 143.808C26.7357 142.874 27.493 142.117 28.4273 142.117C29.3615 142.117 30.1189 142.874 30.1189 143.808C30.1189 144.743 29.3615 145.5 28.4273 145.5C27.493 145.5 26.7357 144.743 26.7357 143.808Z" fill="black"/>
<path d="M39.5917 40.96C39.5917 40.0257 40.3491 39.2684 41.2833 39.2684C42.2176 39.2684 42.9749 40.0257 42.9749 40.96C42.9749 41.8942 42.2176 42.6516 41.2833 42.6516C40.3491 42.6516 39.5917 41.8942 39.5917 40.96Z" fill="black"/>
<path d="M39.5917 53.816C39.5917 52.8818 40.3491 52.1245 41.2833 52.1245C42.2176 52.1245 42.9749 52.8818 42.9749 53.816C42.9749 54.7503 42.2176 55.5076 41.2833 55.5076C40.3491 55.5076 39.5917 54.7503 39.5917 53.816Z" fill="black"/>
<path d="M39.5917 66.6721C39.5917 65.7378 40.3491 64.9805 41.2833 64.9805C42.2176 64.9805 42.9749 65.7378 42.9749 66.6721C42.9749 67.6063 42.2176 68.3636 41.2833 68.3636C40.3491 68.3636 39.5917 67.6063 39.5917 66.6721Z" fill="black"/>
<path d="M39.5917 79.5281C39.5917 78.5939 40.3491 77.8366 41.2833 77.8366C42.2176 77.8366 42.9749 78.5939 42.9749 79.5281C42.9749 80.4624 42.2176 81.2197 41.2833 81.2197C40.3491 81.2197 39.5917 80.4624 39.5917 79.5281Z" fill="black"/>
<path d="M39.5917 92.3842C39.5917 91.45 40.3491 90.6926 41.2833 90.6926C42.2176 90.6926 42.9749 91.45 42.9749 92.3842C42.9749 93.3185 42.2176 94.0758 41.2833 94.0758C40.3491 94.0758 39.5917 93.3185 39.5917 92.3842Z" fill="black"/>
<path d="M39.5917 105.24C39.5917 104.306 40.3491 103.549 41.2833 103.549C42.2176 103.549 42.9749 104.306 42.9749 105.24C42.9749 106.174 42.2176 106.932 41.2833 106.932C40.3491 106.932 39.5917 106.174 39.5917 105.24Z" fill="black"/>
<path d="M39.5917 118.096C39.5917 117.162 40.3491 116.405 41.2833 116.405C42.2176 116.405 42.9749 117.162 42.9749 118.096C42.9749 119.031 42.2176 119.788 41.2833 119.788C40.3491 119.788 39.5917 119.031 39.5917 118.096Z" fill="black"/>
<path d="M39.5917 130.952C39.5917 130.018 40.3491 129.261 41.2833 129.261C42.2176 129.261 42.9749 130.018 42.9749 130.952C42.9749 131.887 42.2176 132.644 41.2833 132.644C40.3491 132.644 39.5917 131.887 39.5917 130.952Z" fill="black"/>
<path d="M39.5917 143.808C39.5917 142.874 40.3491 142.117 41.2833 142.117C42.2176 142.117 42.9749 142.874 42.9749 143.808C42.9749 144.743 42.2176 145.5 41.2833 145.5C40.3491 145.5 39.5917 144.743 39.5917 143.808Z" fill="black"/>
<path d="M52.4478 53.816C52.4478 52.8818 53.2052 52.1245 54.1394 52.1245C55.0736 52.1245 55.831 52.8818 55.831 53.816C55.831 54.7503 55.0736 55.5076 54.1394 55.5076C53.2052 55.5076 52.4478 54.7503 52.4478 53.816Z" fill="black"/>
<path d="M52.4478 66.6721C52.4478 65.7378 53.2052 64.9805 54.1394 64.9805C55.0736 64.9805 55.831 65.7378 55.831 66.6721C55.831 67.6063 55.0736 68.3636 54.1394 68.3636C53.2052 68.3636 52.4478 67.6063 52.4478 66.6721Z" fill="black"/>
<path d="M52.4478 79.5281C52.4478 78.5939 53.2052 77.8366 54.1394 77.8366C55.0736 77.8366 55.831 78.5939 55.831 79.5281C55.831 80.4624 55.0736 81.2197 54.1394 81.2197C53.2052 81.2197 52.4478 80.4624 52.4478 79.5281Z" fill="black"/>
<path d="M52.4478 92.3842C52.4478 91.45 53.2052 90.6926 54.1394 90.6926C55.0736 90.6926 55.831 91.45 55.831 92.3842C55.831 93.3185 55.0736 94.0758 54.1394 94.0758C53.2052 94.0758 52.4478 93.3185 52.4478 92.3842Z" fill="black"/>
<path d="M52.4478 105.24C52.4478 104.306 53.2052 103.549 54.1394 103.549C55.0736 103.549 55.831 104.306 55.831 105.24C55.831 106.174 55.0736 106.932 54.1394 106.932C53.2052 106.932 52.4478 106.174 52.4478 105.24Z" fill="black"/>
<path d="M52.4478 118.096C52.4478 117.162 53.2052 116.405 54.1394 116.405C55.0736 116.405 55.831 117.162 55.831 118.096C55.831 119.031 55.0736 119.788 54.1394 119.788C53.2052 119.788 52.4478 119.031 52.4478 118.096Z" fill="black"/>
<path d="M52.4478 130.952C52.4478 130.018 53.2052 129.261 54.1394 129.261C55.0736 129.261 55.831 130.018 55.831 130.952C55.831 131.887 55.0736 132.644 54.1394 132.644C53.2052 132.644 52.4478 131.887 52.4478 130.952Z" fill="black"/>
<path d="M52.4478 143.808C52.4478 142.874 53.2052 142.117 54.1394 142.117C55.0736 142.117 55.831 142.874 55.831 143.808C55.831 144.743 55.0736 145.5 54.1394 145.5C53.2052 145.5 52.4478 144.743 52.4478 143.808Z" fill="black"/>
<path d="M65.3039 66.6721C65.3039 65.7378 66.0612 64.9805 66.9954 64.9805C67.9297 64.9805 68.687 65.7378 68.687 66.6721C68.687 67.6063 67.9297 68.3636 66.9954 68.3636C66.0612 68.3636 65.3039 67.6063 65.3039 66.6721Z" fill="black"/>
<path d="M65.3039 79.5281C65.3039 78.5939 66.0612 77.8366 66.9954 77.8366C67.9297 77.8366 68.687 78.5939 68.687 79.5281C68.687 80.4624 67.9297 81.2197 66.9954 81.2197C66.0612 81.2197 65.3039 80.4624 65.3039 79.5281Z" fill="black"/>
<path d="M65.3039 92.3842C65.3039 91.45 66.0612 90.6926 66.9954 90.6926C67.9297 90.6926 68.687 91.45 68.687 92.3842C68.687 93.3185 67.9297 94.0758 66.9954 94.0758C66.0612 94.0758 65.3039 93.3185 65.3039 92.3842Z" fill="black"/>
<path d="M65.3039 105.24C65.3039 104.306 66.0612 103.549 66.9954 103.549C67.9297 103.549 68.687 104.306 68.687 105.24C68.687 106.174 67.9297 106.932 66.9954 106.932C66.0612 106.932 65.3039 106.174 65.3039 105.24Z" fill="black"/>
<path d="M65.3039 118.096C65.3039 117.162 66.0612 116.405 66.9954 116.405C67.9297 116.405 68.687 117.162 68.687 118.096C68.687 119.031 67.9297 119.788 66.9954 119.788C66.0612 119.788 65.3039 119.031 65.3039 118.096Z" fill="black"/>
<path d="M65.3039 130.952C65.3039 130.018 66.0612 129.261 66.9954 129.261C67.9297 129.261 68.687 130.018 68.687 130.952C68.687 131.887 67.9297 132.644 66.9954 132.644C66.0612 132.644 65.3039 131.887 65.3039 130.952Z" fill="black"/>
<path d="M65.3039 143.808C65.3039 142.874 66.0612 142.117 66.9954 142.117C67.9297 142.117 68.687 142.874 68.687 143.808C68.687 144.743 67.9297 145.5 66.9954 145.5C66.0612 145.5 65.3039 144.743 65.3039 143.808Z" fill="black"/>
<path d="M78.1599 79.5281C78.1599 78.5939 78.9173 77.8366 79.8515 77.8366C80.7857 77.8366 81.5431 78.5939 81.5431 79.5281C81.5431 80.4624 80.7857 81.2197 79.8515 81.2197C78.9173 81.2197 78.1599 80.4624 78.1599 79.5281Z" fill="black"/>
<path d="M78.1599 92.3842C78.1599 91.45 78.9173 90.6926 79.8515 90.6926C80.7857 90.6926 81.5431 91.45 81.5431 92.3842C81.5431 93.3185 80.7857 94.0758 79.8515 94.0758C78.9173 94.0758 78.1599 93.3185 78.1599 92.3842Z" fill="black"/>
<path d="M78.1599 105.24C78.1599 104.306 78.9173 103.549 79.8515 103.549C80.7857 103.549 81.5431 104.306 81.5431 105.24C81.5431 106.174 80.7857 106.932 79.8515 106.932C78.9173 106.932 78.1599 106.174 78.1599 105.24Z" fill="black"/>
<path d="M78.1599 118.096C78.1599 117.162 78.9173 116.405 79.8515 116.405C80.7857 116.405 81.5431 117.162 81.5431 118.096C81.5431 119.031 80.7857 119.788 79.8515 119.788C78.9173 119.788 78.1599 119.031 78.1599 118.096Z" fill="black"/>
<path d="M78.1599 130.952C78.1599 130.018 78.9173 129.261 79.8515 129.261C80.7857 129.261 81.5431 130.018 81.5431 130.952C81.5431 131.887 80.7857 132.644 79.8515 132.644C78.9173 132.644 78.1599 131.887 78.1599 130.952Z" fill="black"/>
<path d="M78.1599 143.808C78.1599 142.874 78.9173 142.117 79.8515 142.117C80.7857 142.117 81.5431 142.874 81.5431 143.808C81.5431 144.743 80.7857 145.5 79.8515 145.5C78.9173 145.5 78.1599 144.743 78.1599 143.808Z" fill="black"/>
<path d="M91.016 92.3842C91.016 91.45 91.7733 90.6926 92.7076 90.6926C93.6418 90.6926 94.3991 91.45 94.3991 92.3842C94.3991 93.3185 93.6418 94.0758 92.7076 94.0758C91.7733 94.0758 91.016 93.3185 91.016 92.3842Z" fill="black"/>
<path d="M91.016 105.24C91.016 104.306 91.7733 103.549 92.7076 103.549C93.6418 103.549 94.3991 104.306 94.3991 105.24C94.3991 106.174 93.6418 106.932 92.7076 106.932C91.7733 106.932 91.016 106.174 91.016 105.24Z" fill="black"/>
<path d="M91.016 118.096C91.016 117.162 91.7733 116.405 92.7076 116.405C93.6418 116.405 94.3991 117.162 94.3991 118.096C94.3991 119.031 93.6418 119.788 92.7076 119.788C91.7733 119.788 91.016 119.031 91.016 118.096Z" fill="black"/>
<path d="M91.016 130.952C91.016 130.018 91.7733 129.261 92.7076 129.261C93.6418 129.261 94.3991 130.018 94.3991 130.952C94.3991 131.887 93.6418 132.644 92.7076 132.644C91.7733 132.644 91.016 131.887 91.016 130.952Z" fill="black"/>
<path d="M91.016 143.808C91.016 142.874 91.7733 142.117 92.7076 142.117C93.6418 142.117 94.3991 142.874 94.3991 143.808C94.3991 144.743 93.6418 145.5 92.7076 145.5C91.7733 145.5 91.016 144.743 91.016 143.808Z" fill="black"/>
<path d="M103.872 118.096C103.872 117.162 104.629 116.405 105.564 116.405C106.498 116.405 107.255 117.162 107.255 118.096C107.255 119.031 106.498 119.788 105.564 119.788C104.629 119.788 103.872 119.031 103.872 118.096Z" fill="black"/>
<path d="M103.872 105.278C103.872 104.344 104.629 103.586 105.564 103.586C106.498 103.586 107.255 104.344 107.255 105.278C107.255 106.212 106.498 106.969 105.564 106.969C104.629 106.969 103.872 106.212 103.872 105.278Z" fill="black"/>
<path d="M103.872 130.952C103.872 130.018 104.629 129.261 105.564 129.261C106.498 129.261 107.255 130.018 107.255 130.952C107.255 131.887 106.498 132.644 105.564 132.644C104.629 132.644 103.872 131.887 103.872 130.952Z" fill="black"/>
<path d="M103.872 143.808C103.872 142.874 104.629 142.117 105.564 142.117C106.498 142.117 107.255 142.874 107.255 143.808C107.255 144.743 106.498 145.5 105.564 145.5C104.629 145.5 103.872 144.743 103.872 143.808Z" fill="black"/>
<path d="M116.728 118.096C116.728 117.162 117.485 116.405 118.42 116.405C119.354 116.405 120.111 117.162 120.111 118.096C120.111 119.031 119.354 119.788 118.42 119.788C117.485 119.788 116.728 119.031 116.728 118.096Z" fill="black"/>
<path d="M116.728 130.952C116.728 130.018 117.485 129.261 118.42 129.261C119.354 129.261 120.111 130.018 120.111 130.952C120.111 131.887 119.354 132.644 118.42 132.644C117.485 132.644 116.728 131.887 116.728 130.952Z" fill="black"/>
<path d="M116.728 143.808C116.728 142.874 117.485 142.117 118.42 142.117C119.354 142.117 120.111 142.874 120.111 143.808C120.111 144.743 119.354 145.5 118.42 145.5C117.485 145.5 116.728 144.743 116.728 143.808Z" fill="black"/>
<path d="M129.584 130.952C129.584 130.018 130.341 129.261 131.276 129.261C132.21 129.261 132.967 130.018 132.967 130.952C132.967 131.887 132.21 132.644 131.276 132.644C130.341 132.644 129.584 131.887 129.584 130.952Z" fill="black"/>
<path d="M129.584 143.808C129.584 142.874 130.341 142.117 131.276 142.117C132.21 142.117 132.967 142.874 132.967 143.808C132.967 144.743 132.21 145.5 131.276 145.5C130.341 145.5 129.584 144.743 129.584 143.808Z" fill="black"/>
<path d="M142.44 143.808C142.44 142.874 143.198 142.117 144.132 142.117C145.066 142.117 145.823 142.874 145.823 143.808C145.823 144.743 145.066 145.5 144.132 145.5C143.198 145.5 142.44 144.743 142.44 143.808Z" fill="black"/>
</svg>
