<svg width="200" height="134" viewBox="0 0 200 134" fill="none" xmlns="http://www.w3.org/2000/svg">
<path fill-rule="evenodd" clip-rule="evenodd" d="M85.7098 129.759C86.8705 129.759 87.8113 130.709 87.8113 131.88C87.8113 133.051 86.8705 134 85.7098 134C84.5492 134 83.6083 133.051 83.6083 131.88C83.6083 130.709 84.5492 129.759 85.7098 129.759ZM71.4197 129.759C72.5803 129.759 73.5212 130.709 73.5212 131.88C73.5212 133.051 72.5803 134 71.4197 134C70.259 134 69.3182 133.051 69.3182 131.88C69.3182 130.709 70.259 129.759 71.4197 129.759ZM100 129.759C101.161 129.759 102.101 130.709 102.101 131.88C102.101 133.051 101.161 134 100 134C98.8394 134 97.8985 133.051 97.8985 131.88C97.8985 130.709 98.8394 129.759 100 129.759ZM114.29 129.759C115.451 129.759 116.392 130.709 116.392 131.88C116.392 133.051 115.451 134 114.29 134C113.13 134 112.189 133.051 112.189 131.88C112.189 130.709 113.13 129.759 114.29 129.759ZM128.58 129.759C129.741 129.759 130.682 130.709 130.682 131.88C130.682 133.051 129.741 134 128.58 134C127.42 134 126.479 133.051 126.479 131.88C126.479 130.709 127.42 129.759 128.58 129.759ZM85.7098 115.342C86.8705 115.342 87.8113 116.291 87.8113 117.462C87.8113 118.633 86.8705 119.582 85.7098 119.582C84.5492 119.582 83.6083 118.633 83.6083 117.462C83.6083 116.291 84.5492 115.342 85.7098 115.342ZM71.4197 115.342C72.5803 115.342 73.5212 116.291 73.5212 117.462C73.5212 118.633 72.5803 119.582 71.4197 119.582C70.259 119.582 69.3182 118.633 69.3182 117.462C69.3182 116.291 70.259 115.342 71.4197 115.342ZM100 115.342C101.161 115.342 102.101 116.291 102.101 117.462C102.101 118.633 101.161 119.582 100 119.582C98.8394 119.582 97.8985 118.633 97.8985 117.462C97.8985 116.291 98.8394 115.342 100 115.342ZM114.29 115.342C115.451 115.342 116.392 116.291 116.392 117.462C116.392 118.633 115.451 119.582 114.29 119.582C113.13 119.582 112.189 118.633 112.189 117.462C112.189 116.291 113.13 115.342 114.29 115.342ZM128.58 115.342C129.741 115.342 130.682 116.291 130.682 117.462C130.682 118.633 129.741 119.582 128.58 119.582C127.42 119.582 126.479 118.633 126.479 117.462C126.479 116.291 127.42 115.342 128.58 115.342ZM85.7098 100.924C86.8705 100.924 87.8113 101.873 87.8113 103.044C87.8113 104.215 86.8705 105.165 85.7098 105.165C84.5492 105.165 83.6083 104.215 83.6083 103.044C83.6083 101.873 84.5492 100.924 85.7098 100.924ZM71.4197 100.924C72.5803 100.924 73.5212 101.873 73.5212 103.044C73.5212 104.215 72.5803 105.165 71.4197 105.165C70.259 105.165 69.3182 104.215 69.3182 103.044C69.3182 101.873 70.259 100.924 71.4197 100.924ZM100 100.924C101.161 100.924 102.101 101.873 102.101 103.044C102.101 104.215 101.161 105.165 100 105.165C98.8394 105.165 97.8985 104.215 97.8985 103.044C97.8985 101.873 98.8394 100.924 100 100.924ZM114.29 100.924C115.451 100.924 116.392 101.873 116.392 103.044C116.392 104.215 115.451 105.165 114.29 105.165C113.13 105.165 112.189 104.215 112.189 103.044C112.189 101.873 113.13 100.924 114.29 100.924ZM128.58 100.924C129.741 100.924 130.682 101.873 130.682 103.044C130.682 104.215 129.741 105.165 128.58 105.165C127.42 105.165 126.479 104.215 126.479 103.044C126.479 101.873 127.42 100.924 128.58 100.924ZM71.4197 86.5063C72.5803 86.5063 73.5212 87.4556 73.5212 88.6266C73.5212 89.7976 72.5803 90.7468 71.4197 90.7468C70.259 90.7468 69.3182 89.7976 69.3182 88.6266C69.3182 87.4556 70.259 86.5063 71.4197 86.5063ZM100 86.5063C101.161 86.5063 102.101 87.4556 102.101 88.6266C102.101 89.7976 101.161 90.7468 100 90.7468C98.8394 90.7468 97.8985 89.7976 97.8985 88.6266C97.8985 87.4556 98.8394 86.5063 100 86.5063ZM114.29 86.5063C115.451 86.5063 116.392 87.4556 116.392 88.6266C116.392 89.7976 115.451 90.7468 114.29 90.7468C113.13 90.7468 112.189 89.7976 112.189 88.6266C112.189 87.4556 113.13 86.5063 114.29 86.5063ZM128.58 86.5063C129.741 86.5063 130.682 87.4556 130.682 88.6266C130.682 89.7976 129.741 90.7468 128.58 90.7468C127.42 90.7468 126.479 89.7976 126.479 88.6266C126.479 87.4556 127.42 86.5063 128.58 86.5063ZM85.7098 86.5063C86.8705 86.5063 87.8113 87.4556 87.8113 88.6266C87.8113 89.7976 86.8705 90.7468 85.7098 90.7468C84.5492 90.7468 83.6083 89.7976 83.6083 88.6266C83.6083 87.4556 84.5492 86.5063 85.7098 86.5063ZM128.58 72.0886C129.741 72.0886 130.682 73.0379 130.682 74.2089C130.682 75.3798 129.741 76.3291 128.58 76.3291C127.42 76.3291 126.479 75.3798 126.479 74.2089C126.479 73.0379 127.42 72.0886 128.58 72.0886ZM85.7098 72.0886C86.8705 72.0886 87.8113 73.0379 87.8113 74.2089C87.8113 75.3798 86.8705 76.3291 85.7098 76.3291C84.5492 76.3291 83.6083 75.3798 83.6083 74.2089C83.6083 73.0379 84.5492 72.0886 85.7098 72.0886ZM71.4197 72.0886C72.5803 72.0886 73.5212 73.0379 73.5212 74.2089C73.5212 75.3798 72.5803 76.3291 71.4197 76.3291C70.259 76.3291 69.3182 75.3798 69.3182 74.2089C69.3182 73.0379 70.259 72.0886 71.4197 72.0886ZM100 72.0886C101.161 72.0886 102.101 73.0379 102.101 74.2089C102.101 75.3798 101.161 76.3291 100 76.3291C98.8394 76.3291 97.8985 75.3798 97.8985 74.2089C97.8985 73.0379 98.8394 72.0886 100 72.0886ZM114.29 72.0886C115.451 72.0886 116.392 73.0379 116.392 74.2089C116.392 75.3798 115.451 76.3291 114.29 76.3291C113.13 76.3291 112.189 75.3798 112.189 74.2089C112.189 73.0379 113.13 72.0886 114.29 72.0886ZM85.7098 57.6709C86.8705 57.6709 87.8113 58.6202 87.8113 59.7911C87.8113 60.9621 86.8705 61.9114 85.7098 61.9114C84.5492 61.9114 83.6083 60.9621 83.6083 59.7911C83.6083 58.6202 84.5492 57.6709 85.7098 57.6709ZM114.29 57.6709C115.451 57.6709 116.392 58.6202 116.392 59.7911C116.392 60.9621 115.451 61.9114 114.29 61.9114C113.13 61.9114 112.189 60.9621 112.189 59.7911C112.189 58.6202 113.13 57.6709 114.29 57.6709ZM71.4197 57.6709C72.5803 57.6709 73.5212 58.6202 73.5212 59.7911C73.5212 60.9621 72.5803 61.9114 71.4197 61.9114C70.259 61.9114 69.3182 60.9621 69.3182 59.7911C69.3182 58.6202 70.259 57.6709 71.4197 57.6709ZM100 57.6709C101.161 57.6709 102.101 58.6202 102.101 59.7911C102.101 60.9621 101.161 61.9114 100 61.9114C98.8394 61.9114 97.8985 60.9621 97.8985 59.7911C97.8985 58.6202 98.8394 57.6709 100 57.6709ZM128.58 57.6709C129.741 57.6709 130.682 58.6202 130.682 59.7911C130.682 60.9621 129.741 61.9114 128.58 61.9114C127.42 61.9114 126.479 60.9621 126.479 59.7911C126.479 58.6202 127.42 57.6709 128.58 57.6709ZM128.58 43.2532C129.741 43.2532 130.682 44.2024 130.682 45.3734C130.682 46.5444 129.741 47.4937 128.58 47.4937C127.42 47.4937 126.479 46.5444 126.479 45.3734C126.479 44.2024 127.42 43.2532 128.58 43.2532ZM100 43.2532C101.161 43.2532 102.101 44.2024 102.101 45.3734C102.101 46.5444 101.161 47.4937 100 47.4937C98.8394 47.4937 97.8985 46.5444 97.8985 45.3734C97.8985 44.2024 98.8394 43.2532 100 43.2532ZM85.7098 43.2532C86.8705 43.2532 87.8113 44.2024 87.8113 45.3734C87.8113 46.5444 86.8705 47.4937 85.7098 47.4937C84.5492 47.4937 83.6083 46.5444 83.6083 45.3734C83.6083 44.2024 84.5492 43.2532 85.7098 43.2532ZM71.4197 43.2532C72.5803 43.2532 73.5212 44.2024 73.5212 45.3734C73.5212 46.5444 72.5803 47.4937 71.4197 47.4937C70.259 47.4937 69.3182 46.5444 69.3182 45.3734C69.3182 44.2024 70.259 43.2532 71.4197 43.2532ZM114.29 43.2532C115.451 43.2532 116.392 44.2024 116.392 45.3734C116.392 46.5444 115.451 47.4937 114.29 47.4937C113.13 47.4937 112.189 46.5444 112.189 45.3734C112.189 44.2024 113.13 43.2532 114.29 43.2532ZM114.29 28.8354C115.451 28.8354 116.392 29.7847 116.392 30.9557C116.392 32.1267 115.451 33.0759 114.29 33.0759C113.13 33.0759 112.189 32.1267 112.189 30.9557C112.189 29.7847 113.13 28.8354 114.29 28.8354ZM128.58 28.8354C129.741 28.8354 130.682 29.7847 130.682 30.9557C130.682 32.1267 129.741 33.0759 128.58 33.0759C127.42 33.0759 126.479 32.1267 126.479 30.9557C126.479 29.7847 127.42 28.8354 128.58 28.8354ZM71.4197 28.8354C72.5803 28.8354 73.5212 29.7847 73.5212 30.9557C73.5212 32.1267 72.5803 33.0759 71.4197 33.0759C70.259 33.0759 69.3182 32.1267 69.3182 30.9557C69.3182 29.7847 70.259 28.8354 71.4197 28.8354ZM85.7098 28.8354C86.8705 28.8354 87.8113 29.7847 87.8113 30.9557C87.8113 32.1267 86.8705 33.0759 85.7098 33.0759C84.5492 33.0759 83.6083 32.1267 83.6083 30.9557C83.6083 29.7847 84.5492 28.8354 85.7098 28.8354ZM100 28.8354C101.161 28.8354 102.101 29.7847 102.101 30.9557C102.101 32.1267 101.161 33.0759 100 33.0759C98.8394 33.0759 97.8985 32.1267 97.8985 30.9557C97.8985 29.7847 98.8394 28.8354 100 28.8354ZM85.7098 14.4177C86.8705 14.4177 87.8113 15.367 87.8113 16.538C87.8113 17.709 86.8705 18.6582 85.7098 18.6582C84.5492 18.6582 83.6083 17.709 83.6083 16.538C83.6083 15.367 84.5492 14.4177 85.7098 14.4177ZM100 14.4177C101.161 14.4177 102.101 15.367 102.101 16.538C102.101 17.709 101.161 18.6582 100 18.6582C98.8394 18.6582 97.8985 17.709 97.8985 16.538C97.8985 15.367 98.8394 14.4177 100 14.4177ZM114.29 14.4177C115.451 14.4177 116.392 15.367 116.392 16.538C116.392 17.709 115.451 18.6582 114.29 18.6582C113.13 18.6582 112.189 17.709 112.189 16.538C112.189 15.367 113.13 14.4177 114.29 14.4177ZM128.58 14.4177C129.741 14.4177 130.682 15.367 130.682 16.538C130.682 17.709 129.741 18.6582 128.58 18.6582C127.42 18.6582 126.479 17.709 126.479 16.538C126.479 15.367 127.42 14.4177 128.58 14.4177ZM71.4197 14.4177C72.5803 14.4177 73.5212 15.367 73.5212 16.538C73.5212 17.709 72.5803 18.6582 71.4197 18.6582C70.259 18.6582 69.3182 17.709 69.3182 16.538C69.3182 15.367 70.259 14.4177 71.4197 14.4177ZM85.7098 0C86.8705 0 87.8113 0.94927 87.8113 2.12025C87.8113 3.29124 86.8705 4.24051 85.7098 4.24051C84.5492 4.24051 83.6083 3.29124 83.6083 2.12025C83.6083 0.94927 84.5492 0 85.7098 0ZM100 0C101.161 0 102.101 0.94927 102.101 2.12025C102.101 3.29124 101.161 4.24051 100 4.24051C98.8394 4.24051 97.8985 3.29124 97.8985 2.12025C97.8985 0.94927 98.8394 0 100 0ZM114.29 0C115.451 0 116.392 0.94927 116.392 2.12025C116.392 3.29124 115.451 4.24051 114.29 4.24051C113.13 4.24051 112.189 3.29124 112.189 2.12025C112.189 0.94927 113.13 0 114.29 0ZM128.58 0C129.741 0 130.682 0.94927 130.682 2.12025C130.682 3.29124 129.741 4.24051 128.58 4.24051C127.42 4.24051 126.479 3.29124 126.479 2.12025C126.479 0.94927 127.42 0 128.58 0ZM71.4197 0C72.5803 0 73.5212 0.94927 73.5212 2.12025C73.5212 3.29124 72.5803 4.24051 71.4197 4.24051C70.259 4.24051 69.3182 3.29124 69.3182 2.12025C69.3182 0.94927 70.259 0 71.4197 0Z" fill="black"/>
<path fill-rule="evenodd" clip-rule="evenodd" d="M155.028 129.759C156.189 129.759 157.13 130.709 157.13 131.88C157.13 133.051 156.189 134 155.028 134C153.867 134 152.927 133.051 152.927 131.88C152.927 130.709 153.867 129.759 155.028 129.759ZM140.738 129.759C141.898 129.759 142.839 130.709 142.839 131.88C142.839 133.051 141.898 134 140.738 134C139.577 134 138.636 133.051 138.636 131.88C138.636 130.709 139.577 129.759 140.738 129.759ZM169.318 129.759C170.479 129.759 171.42 130.709 171.42 131.88C171.42 133.051 170.479 134 169.318 134C168.158 134 167.217 133.051 167.217 131.88C167.217 130.709 168.158 129.759 169.318 129.759ZM183.608 129.759C184.769 129.759 185.71 130.709 185.71 131.88C185.71 133.051 184.769 134 183.608 134C182.448 134 181.507 133.051 181.507 131.88C181.507 130.709 182.448 129.759 183.608 129.759ZM197.899 129.759C199.059 129.759 200 130.709 200 131.88C200 133.051 199.059 134 197.899 134C196.738 134 195.797 133.051 195.797 131.88C195.797 130.709 196.738 129.759 197.899 129.759ZM155.028 115.342C156.189 115.342 157.13 116.291 157.13 117.462C157.13 118.633 156.189 119.582 155.028 119.582C153.867 119.582 152.927 118.633 152.927 117.462C152.927 116.291 153.867 115.342 155.028 115.342ZM140.738 115.342C141.898 115.342 142.839 116.291 142.839 117.462C142.839 118.633 141.898 119.582 140.738 119.582C139.577 119.582 138.636 118.633 138.636 117.462C138.636 116.291 139.577 115.342 140.738 115.342ZM169.318 115.342C170.479 115.342 171.42 116.291 171.42 117.462C171.42 118.633 170.479 119.582 169.318 119.582C168.158 119.582 167.217 118.633 167.217 117.462C167.217 116.291 168.158 115.342 169.318 115.342ZM183.608 115.342C184.769 115.342 185.71 116.291 185.71 117.462C185.71 118.633 184.769 119.582 183.608 119.582C182.448 119.582 181.507 118.633 181.507 117.462C181.507 116.291 182.448 115.342 183.608 115.342ZM197.899 115.342C199.059 115.342 200 116.291 200 117.462C200 118.633 199.059 119.582 197.899 119.582C196.738 119.582 195.797 118.633 195.797 117.462C195.797 116.291 196.738 115.342 197.899 115.342ZM155.028 100.924C156.189 100.924 157.13 101.873 157.13 103.044C157.13 104.215 156.189 105.165 155.028 105.165C153.867 105.165 152.927 104.215 152.927 103.044C152.927 101.873 153.867 100.924 155.028 100.924ZM140.738 100.924C141.898 100.924 142.839 101.873 142.839 103.044C142.839 104.215 141.898 105.165 140.738 105.165C139.577 105.165 138.636 104.215 138.636 103.044C138.636 101.873 139.577 100.924 140.738 100.924ZM169.318 100.924C170.479 100.924 171.42 101.873 171.42 103.044C171.42 104.215 170.479 105.165 169.318 105.165C168.158 105.165 167.217 104.215 167.217 103.044C167.217 101.873 168.158 100.924 169.318 100.924ZM183.608 100.924C184.769 100.924 185.71 101.873 185.71 103.044C185.71 104.215 184.769 105.165 183.608 105.165C182.448 105.165 181.507 104.215 181.507 103.044C181.507 101.873 182.448 100.924 183.608 100.924ZM197.899 100.924C199.059 100.924 200 101.873 200 103.044C200 104.215 199.059 105.165 197.899 105.165C196.738 105.165 195.797 104.215 195.797 103.044C195.797 101.873 196.738 100.924 197.899 100.924ZM140.738 86.5063C141.898 86.5063 142.839 87.4556 142.839 88.6266C142.839 89.7976 141.898 90.7468 140.738 90.7468C139.577 90.7468 138.636 89.7976 138.636 88.6266C138.636 87.4556 139.577 86.5063 140.738 86.5063ZM169.318 86.5063C170.479 86.5063 171.42 87.4556 171.42 88.6266C171.42 89.7976 170.479 90.7468 169.318 90.7468C168.158 90.7468 167.217 89.7976 167.217 88.6266C167.217 87.4556 168.158 86.5063 169.318 86.5063ZM183.608 86.5063C184.769 86.5063 185.71 87.4556 185.71 88.6266C185.71 89.7976 184.769 90.7468 183.608 90.7468C182.448 90.7468 181.507 89.7976 181.507 88.6266C181.507 87.4556 182.448 86.5063 183.608 86.5063ZM197.899 86.5063C199.059 86.5063 200 87.4556 200 88.6266C200 89.7976 199.059 90.7468 197.899 90.7468C196.738 90.7468 195.797 89.7976 195.797 88.6266C195.797 87.4556 196.738 86.5063 197.899 86.5063ZM155.028 86.5063C156.189 86.5063 157.13 87.4556 157.13 88.6266C157.13 89.7976 156.189 90.7468 155.028 90.7468C153.867 90.7468 152.927 89.7976 152.927 88.6266C152.927 87.4556 153.867 86.5063 155.028 86.5063ZM197.899 72.0886C199.059 72.0886 200 73.0379 200 74.2089C200 75.3798 199.059 76.3291 197.899 76.3291C196.738 76.3291 195.797 75.3798 195.797 74.2089C195.797 73.0379 196.738 72.0886 197.899 72.0886ZM155.028 72.0886C156.189 72.0886 157.13 73.0379 157.13 74.2089C157.13 75.3798 156.189 76.3291 155.028 76.3291C153.867 76.3291 152.927 75.3798 152.927 74.2089C152.927 73.0379 153.867 72.0886 155.028 72.0886ZM140.738 72.0886C141.898 72.0886 142.839 73.0379 142.839 74.2089C142.839 75.3798 141.898 76.3291 140.738 76.3291C139.577 76.3291 138.636 75.3798 138.636 74.2089C138.636 73.0379 139.577 72.0886 140.738 72.0886ZM169.318 72.0886C170.479 72.0886 171.42 73.0379 171.42 74.2089C171.42 75.3798 170.479 76.3291 169.318 76.3291C168.158 76.3291 167.217 75.3798 167.217 74.2089C167.217 73.0379 168.158 72.0886 169.318 72.0886ZM183.608 72.0886C184.769 72.0886 185.71 73.0379 185.71 74.2089C185.71 75.3798 184.769 76.3291 183.608 76.3291C182.448 76.3291 181.507 75.3798 181.507 74.2089C181.507 73.0379 182.448 72.0886 183.608 72.0886ZM155.028 57.6709C156.189 57.6709 157.13 58.6202 157.13 59.7911C157.13 60.9621 156.189 61.9114 155.028 61.9114C153.867 61.9114 152.927 60.9621 152.927 59.7911C152.927 58.6202 153.867 57.6709 155.028 57.6709ZM183.608 57.6709C184.769 57.6709 185.71 58.6202 185.71 59.7911C185.71 60.9621 184.769 61.9114 183.608 61.9114C182.448 61.9114 181.507 60.9621 181.507 59.7911C181.507 58.6202 182.448 57.6709 183.608 57.6709ZM140.738 57.6709C141.898 57.6709 142.839 58.6202 142.839 59.7911C142.839 60.9621 141.898 61.9114 140.738 61.9114C139.577 61.9114 138.636 60.9621 138.636 59.7911C138.636 58.6202 139.577 57.6709 140.738 57.6709ZM169.318 57.6709C170.479 57.6709 171.42 58.6202 171.42 59.7911C171.42 60.9621 170.479 61.9114 169.318 61.9114C168.158 61.9114 167.217 60.9621 167.217 59.7911C167.217 58.6202 168.158 57.6709 169.318 57.6709ZM197.899 57.6709C199.059 57.6709 200 58.6202 200 59.7911C200 60.9621 199.059 61.9114 197.899 61.9114C196.738 61.9114 195.797 60.9621 195.797 59.7911C195.797 58.6202 196.738 57.6709 197.899 57.6709ZM197.899 43.2532C199.059 43.2532 200 44.2024 200 45.3734C200 46.5444 199.059 47.4937 197.899 47.4937C196.738 47.4937 195.797 46.5444 195.797 45.3734C195.797 44.2024 196.738 43.2532 197.899 43.2532ZM169.318 43.2532C170.479 43.2532 171.42 44.2024 171.42 45.3734C171.42 46.5444 170.479 47.4937 169.318 47.4937C168.158 47.4937 167.217 46.5444 167.217 45.3734C167.217 44.2024 168.158 43.2532 169.318 43.2532ZM155.028 43.2532C156.189 43.2532 157.13 44.2024 157.13 45.3734C157.13 46.5444 156.189 47.4937 155.028 47.4937C153.867 47.4937 152.927 46.5444 152.927 45.3734C152.927 44.2024 153.867 43.2532 155.028 43.2532ZM140.738 43.2532C141.898 43.2532 142.839 44.2024 142.839 45.3734C142.839 46.5444 141.898 47.4937 140.738 47.4937C139.577 47.4937 138.636 46.5444 138.636 45.3734C138.636 44.2024 139.577 43.2532 140.738 43.2532ZM183.608 43.2532C184.769 43.2532 185.71 44.2024 185.71 45.3734C185.71 46.5444 184.769 47.4937 183.608 47.4937C182.448 47.4937 181.507 46.5444 181.507 45.3734C181.507 44.2024 182.448 43.2532 183.608 43.2532ZM183.608 28.8354C184.769 28.8354 185.71 29.7847 185.71 30.9557C185.71 32.1267 184.769 33.0759 183.608 33.0759C182.448 33.0759 181.507 32.1267 181.507 30.9557C181.507 29.7847 182.448 28.8354 183.608 28.8354ZM197.899 28.8354C199.059 28.8354 200 29.7847 200 30.9557C200 32.1267 199.059 33.0759 197.899 33.0759C196.738 33.0759 195.797 32.1267 195.797 30.9557C195.797 29.7847 196.738 28.8354 197.899 28.8354ZM140.738 28.8354C141.898 28.8354 142.839 29.7847 142.839 30.9557C142.839 32.1267 141.898 33.0759 140.738 33.0759C139.577 33.0759 138.636 32.1267 138.636 30.9557C138.636 29.7847 139.577 28.8354 140.738 28.8354ZM155.028 28.8354C156.189 28.8354 157.13 29.7847 157.13 30.9557C157.13 32.1267 156.189 33.0759 155.028 33.0759C153.867 33.0759 152.927 32.1267 152.927 30.9557C152.927 29.7847 153.867 28.8354 155.028 28.8354ZM169.318 28.8354C170.479 28.8354 171.42 29.7847 171.42 30.9557C171.42 32.1267 170.479 33.0759 169.318 33.0759C168.158 33.0759 167.217 32.1267 167.217 30.9557C167.217 29.7847 168.158 28.8354 169.318 28.8354ZM155.028 14.4177C156.189 14.4177 157.13 15.367 157.13 16.538C157.13 17.709 156.189 18.6582 155.028 18.6582C153.867 18.6582 152.927 17.709 152.927 16.538C152.927 15.367 153.867 14.4177 155.028 14.4177ZM169.318 14.4177C170.479 14.4177 171.42 15.367 171.42 16.538C171.42 17.709 170.479 18.6582 169.318 18.6582C168.158 18.6582 167.217 17.709 167.217 16.538C167.217 15.367 168.158 14.4177 169.318 14.4177ZM183.608 14.4177C184.769 14.4177 185.71 15.367 185.71 16.538C185.71 17.709 184.769 18.6582 183.608 18.6582C182.448 18.6582 181.507 17.709 181.507 16.538C181.507 15.367 182.448 14.4177 183.608 14.4177ZM197.899 14.4177C199.059 14.4177 200 15.367 200 16.538C200 17.709 199.059 18.6582 197.899 18.6582C196.738 18.6582 195.797 17.709 195.797 16.538C195.797 15.367 196.738 14.4177 197.899 14.4177ZM140.738 14.4177C141.898 14.4177 142.839 15.367 142.839 16.538C142.839 17.709 141.898 18.6582 140.738 18.6582C139.577 18.6582 138.636 17.709 138.636 16.538C138.636 15.367 139.577 14.4177 140.738 14.4177ZM155.028 0C156.189 0 157.13 0.94927 157.13 2.12025C157.13 3.29124 156.189 4.24051 155.028 4.24051C153.867 4.24051 152.927 3.29124 152.927 2.12025C152.927 0.94927 153.867 0 155.028 0ZM169.318 0C170.479 0 171.42 0.94927 171.42 2.12025C171.42 3.29124 170.479 4.24051 169.318 4.24051C168.158 4.24051 167.217 3.29124 167.217 2.12025C167.217 0.94927 168.158 0 169.318 0ZM183.608 0C184.769 0 185.71 0.94927 185.71 2.12025C185.71 3.29124 184.769 4.24051 183.608 4.24051C182.448 4.24051 181.507 3.29124 181.507 2.12025C181.507 0.94927 182.448 0 183.608 0ZM197.899 0C199.059 0 200 0.94927 200 2.12025C200 3.29124 199.059 4.24051 197.899 4.24051C196.738 4.24051 195.797 3.29124 195.797 2.12025C195.797 0.94927 196.738 0 197.899 0ZM140.738 0C141.898 0 142.839 0.94927 142.839 2.12025C142.839 3.29124 141.898 4.24051 140.738 4.24051C139.577 4.24051 138.636 3.29124 138.636 2.12025C138.636 0.94927 139.577 0 140.738 0Z" fill="black"/>
<path fill-rule="evenodd" clip-rule="evenodd" d="M16.3917 129.759C17.5523 129.759 18.4932 130.709 18.4932 131.88C18.4932 133.051 17.5523 134 16.3917 134C15.231 134 14.2902 133.051 14.2902 131.88C14.2902 130.709 15.231 129.759 16.3917 129.759ZM2.10149 129.759C3.26212 129.759 4.20299 130.709 4.20299 131.88C4.20299 133.051 3.26212 134 2.10149 134C0.940871 134 0 133.051 0 131.88C0 130.709 0.940871 129.759 2.10149 129.759ZM30.6818 129.759C31.8424 129.759 32.7833 130.709 32.7833 131.88C32.7833 133.051 31.8424 134 30.6818 134C29.5212 134 28.5803 133.051 28.5803 131.88C28.5803 130.709 29.5212 129.759 30.6818 129.759ZM44.972 129.759C46.1326 129.759 47.0735 130.709 47.0735 131.88C47.0735 133.051 46.1326 134 44.972 134C43.8114 134 42.8705 133.051 42.8705 131.88C42.8705 130.709 43.8114 129.759 44.972 129.759ZM59.2621 129.759C60.4228 129.759 61.3636 130.709 61.3636 131.88C61.3636 133.051 60.4228 134 59.2621 134C58.1015 134 57.1606 133.051 57.1606 131.88C57.1606 130.709 58.1015 129.759 59.2621 129.759ZM16.3917 115.342C17.5523 115.342 18.4932 116.291 18.4932 117.462C18.4932 118.633 17.5523 119.582 16.3917 119.582C15.231 119.582 14.2902 118.633 14.2902 117.462C14.2902 116.291 15.231 115.342 16.3917 115.342ZM2.10149 115.342C3.26212 115.342 4.20299 116.291 4.20299 117.462C4.20299 118.633 3.26212 119.582 2.10149 119.582C0.940871 119.582 0 118.633 0 117.462C0 116.291 0.940871 115.342 2.10149 115.342ZM30.6818 115.342C31.8424 115.342 32.7833 116.291 32.7833 117.462C32.7833 118.633 31.8424 119.582 30.6818 119.582C29.5212 119.582 28.5803 118.633 28.5803 117.462C28.5803 116.291 29.5212 115.342 30.6818 115.342ZM44.972 115.342C46.1326 115.342 47.0735 116.291 47.0735 117.462C47.0735 118.633 46.1326 119.582 44.972 119.582C43.8114 119.582 42.8705 118.633 42.8705 117.462C42.8705 116.291 43.8114 115.342 44.972 115.342ZM59.2621 115.342C60.4228 115.342 61.3636 116.291 61.3636 117.462C61.3636 118.633 60.4228 119.582 59.2621 119.582C58.1015 119.582 57.1606 118.633 57.1606 117.462C57.1606 116.291 58.1015 115.342 59.2621 115.342ZM16.3917 100.924C17.5523 100.924 18.4932 101.873 18.4932 103.044C18.4932 104.215 17.5523 105.165 16.3917 105.165C15.231 105.165 14.2902 104.215 14.2902 103.044C14.2902 101.873 15.231 100.924 16.3917 100.924ZM2.10149 100.924C3.26212 100.924 4.20299 101.873 4.20299 103.044C4.20299 104.215 3.26212 105.165 2.10149 105.165C0.940871 105.165 0 104.215 0 103.044C0 101.873 0.940871 100.924 2.10149 100.924ZM30.6818 100.924C31.8424 100.924 32.7833 101.873 32.7833 103.044C32.7833 104.215 31.8424 105.165 30.6818 105.165C29.5212 105.165 28.5803 104.215 28.5803 103.044C28.5803 101.873 29.5212 100.924 30.6818 100.924ZM44.972 100.924C46.1326 100.924 47.0735 101.873 47.0735 103.044C47.0735 104.215 46.1326 105.165 44.972 105.165C43.8114 105.165 42.8705 104.215 42.8705 103.044C42.8705 101.873 43.8114 100.924 44.972 100.924ZM59.2621 100.924C60.4228 100.924 61.3636 101.873 61.3636 103.044C61.3636 104.215 60.4228 105.165 59.2621 105.165C58.1015 105.165 57.1606 104.215 57.1606 103.044C57.1606 101.873 58.1015 100.924 59.2621 100.924ZM2.10149 86.5063C3.26212 86.5063 4.20299 87.4556 4.20299 88.6266C4.20299 89.7976 3.26212 90.7468 2.10149 90.7468C0.940871 90.7468 0 89.7976 0 88.6266C0 87.4556 0.940871 86.5063 2.10149 86.5063ZM30.6818 86.5063C31.8424 86.5063 32.7833 87.4556 32.7833 88.6266C32.7833 89.7976 31.8424 90.7468 30.6818 90.7468C29.5212 90.7468 28.5803 89.7976 28.5803 88.6266C28.5803 87.4556 29.5212 86.5063 30.6818 86.5063ZM44.972 86.5063C46.1326 86.5063 47.0735 87.4556 47.0735 88.6266C47.0735 89.7976 46.1326 90.7468 44.972 90.7468C43.8114 90.7468 42.8705 89.7976 42.8705 88.6266C42.8705 87.4556 43.8114 86.5063 44.972 86.5063ZM59.2621 86.5063C60.4228 86.5063 61.3636 87.4556 61.3636 88.6266C61.3636 89.7976 60.4228 90.7468 59.2621 90.7468C58.1015 90.7468 57.1606 89.7976 57.1606 88.6266C57.1606 87.4556 58.1015 86.5063 59.2621 86.5063ZM16.3917 86.5063C17.5523 86.5063 18.4932 87.4556 18.4932 88.6266C18.4932 89.7976 17.5523 90.7468 16.3917 90.7468C15.231 90.7468 14.2902 89.7976 14.2902 88.6266C14.2902 87.4556 15.231 86.5063 16.3917 86.5063ZM59.2621 72.0886C60.4228 72.0886 61.3636 73.0379 61.3636 74.2089C61.3636 75.3798 60.4228 76.3291 59.2621 76.3291C58.1015 76.3291 57.1606 75.3798 57.1606 74.2089C57.1606 73.0379 58.1015 72.0886 59.2621 72.0886ZM16.3917 72.0886C17.5523 72.0886 18.4932 73.0379 18.4932 74.2089C18.4932 75.3798 17.5523 76.3291 16.3917 76.3291C15.231 76.3291 14.2902 75.3798 14.2902 74.2089C14.2902 73.0379 15.231 72.0886 16.3917 72.0886ZM2.10149 72.0886C3.26212 72.0886 4.20299 73.0379 4.20299 74.2089C4.20299 75.3798 3.26212 76.3291 2.10149 76.3291C0.940871 76.3291 0 75.3798 0 74.2089C0 73.0379 0.940871 72.0886 2.10149 72.0886ZM30.6818 72.0886C31.8424 72.0886 32.7833 73.0379 32.7833 74.2089C32.7833 75.3798 31.8424 76.3291 30.6818 76.3291C29.5212 76.3291 28.5803 75.3798 28.5803 74.2089C28.5803 73.0379 29.5212 72.0886 30.6818 72.0886ZM44.972 72.0886C46.1326 72.0886 47.0735 73.0379 47.0735 74.2089C47.0735 75.3798 46.1326 76.3291 44.972 76.3291C43.8114 76.3291 42.8705 75.3798 42.8705 74.2089C42.8705 73.0379 43.8114 72.0886 44.972 72.0886ZM16.3917 57.6709C17.5523 57.6709 18.4932 58.6202 18.4932 59.7911C18.4932 60.9621 17.5523 61.9114 16.3917 61.9114C15.231 61.9114 14.2902 60.9621 14.2902 59.7911C14.2902 58.6202 15.231 57.6709 16.3917 57.6709ZM44.972 57.6709C46.1326 57.6709 47.0735 58.6202 47.0735 59.7911C47.0735 60.9621 46.1326 61.9114 44.972 61.9114C43.8114 61.9114 42.8705 60.9621 42.8705 59.7911C42.8705 58.6202 43.8114 57.6709 44.972 57.6709ZM2.10149 57.6709C3.26212 57.6709 4.20299 58.6202 4.20299 59.7911C4.20299 60.9621 3.26212 61.9114 2.10149 61.9114C0.940871 61.9114 0 60.9621 0 59.7911C0 58.6202 0.940871 57.6709 2.10149 57.6709ZM30.6818 57.6709C31.8424 57.6709 32.7833 58.6202 32.7833 59.7911C32.7833 60.9621 31.8424 61.9114 30.6818 61.9114C29.5212 61.9114 28.5803 60.9621 28.5803 59.7911C28.5803 58.6202 29.5212 57.6709 30.6818 57.6709ZM59.2621 57.6709C60.4228 57.6709 61.3636 58.6202 61.3636 59.7911C61.3636 60.9621 60.4228 61.9114 59.2621 61.9114C58.1015 61.9114 57.1606 60.9621 57.1606 59.7911C57.1606 58.6202 58.1015 57.6709 59.2621 57.6709ZM59.2621 43.2532C60.4228 43.2532 61.3636 44.2024 61.3636 45.3734C61.3636 46.5444 60.4228 47.4937 59.2621 47.4937C58.1015 47.4937 57.1606 46.5444 57.1606 45.3734C57.1606 44.2024 58.1015 43.2532 59.2621 43.2532ZM30.6818 43.2532C31.8424 43.2532 32.7833 44.2024 32.7833 45.3734C32.7833 46.5444 31.8424 47.4937 30.6818 47.4937C29.5212 47.4937 28.5803 46.5444 28.5803 45.3734C28.5803 44.2024 29.5212 43.2532 30.6818 43.2532ZM16.3917 43.2532C17.5523 43.2532 18.4932 44.2024 18.4932 45.3734C18.4932 46.5444 17.5523 47.4937 16.3917 47.4937C15.231 47.4937 14.2902 46.5444 14.2902 45.3734C14.2902 44.2024 15.231 43.2532 16.3917 43.2532ZM2.10149 43.2532C3.26212 43.2532 4.20299 44.2024 4.20299 45.3734C4.20299 46.5444 3.26212 47.4937 2.10149 47.4937C0.940871 47.4937 0 46.5444 0 45.3734C0 44.2024 0.940871 43.2532 2.10149 43.2532ZM44.972 43.2532C46.1326 43.2532 47.0735 44.2024 47.0735 45.3734C47.0735 46.5444 46.1326 47.4937 44.972 47.4937C43.8114 47.4937 42.8705 46.5444 42.8705 45.3734C42.8705 44.2024 43.8114 43.2532 44.972 43.2532ZM44.972 28.8354C46.1326 28.8354 47.0735 29.7847 47.0735 30.9557C47.0735 32.1267 46.1326 33.0759 44.972 33.0759C43.8114 33.0759 42.8705 32.1267 42.8705 30.9557C42.8705 29.7847 43.8114 28.8354 44.972 28.8354ZM59.2621 28.8354C60.4228 28.8354 61.3636 29.7847 61.3636 30.9557C61.3636 32.1267 60.4228 33.0759 59.2621 33.0759C58.1015 33.0759 57.1606 32.1267 57.1606 30.9557C57.1606 29.7847 58.1015 28.8354 59.2621 28.8354ZM2.10149 28.8354C3.26212 28.8354 4.20299 29.7847 4.20299 30.9557C4.20299 32.1267 3.26212 33.0759 2.10149 33.0759C0.940871 33.0759 0 32.1267 0 30.9557C0 29.7847 0.940871 28.8354 2.10149 28.8354ZM16.3917 28.8354C17.5523 28.8354 18.4932 29.7847 18.4932 30.9557C18.4932 32.1267 17.5523 33.0759 16.3917 33.0759C15.231 33.0759 14.2902 32.1267 14.2902 30.9557C14.2902 29.7847 15.231 28.8354 16.3917 28.8354ZM30.6818 28.8354C31.8424 28.8354 32.7833 29.7847 32.7833 30.9557C32.7833 32.1267 31.8424 33.0759 30.6818 33.0759C29.5212 33.0759 28.5803 32.1267 28.5803 30.9557C28.5803 29.7847 29.5212 28.8354 30.6818 28.8354ZM16.3917 14.4177C17.5523 14.4177 18.4932 15.367 18.4932 16.538C18.4932 17.709 17.5523 18.6582 16.3917 18.6582C15.231 18.6582 14.2902 17.709 14.2902 16.538C14.2902 15.367 15.231 14.4177 16.3917 14.4177ZM30.6818 14.4177C31.8424 14.4177 32.7833 15.367 32.7833 16.538C32.7833 17.709 31.8424 18.6582 30.6818 18.6582C29.5212 18.6582 28.5803 17.709 28.5803 16.538C28.5803 15.367 29.5212 14.4177 30.6818 14.4177ZM44.972 14.4177C46.1326 14.4177 47.0735 15.367 47.0735 16.538C47.0735 17.709 46.1326 18.6582 44.972 18.6582C43.8114 18.6582 42.8705 17.709 42.8705 16.538C42.8705 15.367 43.8114 14.4177 44.972 14.4177ZM59.2621 14.4177C60.4228 14.4177 61.3636 15.367 61.3636 16.538C61.3636 17.709 60.4228 18.6582 59.2621 18.6582C58.1015 18.6582 57.1606 17.709 57.1606 16.538C57.1606 15.367 58.1015 14.4177 59.2621 14.4177ZM2.10149 14.4177C3.26212 14.4177 4.20299 15.367 4.20299 16.538C4.20299 17.709 3.26212 18.6582 2.10149 18.6582C0.940871 18.6582 0 17.709 0 16.538C0 15.367 0.940871 14.4177 2.10149 14.4177ZM16.3917 0C17.5523 0 18.4932 0.94927 18.4932 2.12025C18.4932 3.29124 17.5523 4.24051 16.3917 4.24051C15.231 4.24051 14.2902 3.29124 14.2902 2.12025C14.2902 0.94927 15.231 0 16.3917 0ZM30.6818 0C31.8424 0 32.7833 0.94927 32.7833 2.12025C32.7833 3.29124 31.8424 4.24051 30.6818 4.24051C29.5212 4.24051 28.5803 3.29124 28.5803 2.12025C28.5803 0.94927 29.5212 0 30.6818 0ZM44.972 0C46.1326 0 47.0735 0.94927 47.0735 2.12025C47.0735 3.29124 46.1326 4.24051 44.972 4.24051C43.8114 4.24051 42.8705 3.29124 42.8705 2.12025C42.8705 0.94927 43.8114 0 44.972 0ZM59.2621 0C60.4228 0 61.3636 0.94927 61.3636 2.12025C61.3636 3.29124 60.4228 4.24051 59.2621 4.24051C58.1015 4.24051 57.1606 3.29124 57.1606 2.12025C57.1606 0.94927 58.1015 0 59.2621 0ZM2.10149 0C3.26212 0 4.20299 0.94927 4.20299 2.12025C4.20299 3.29124 3.26212 4.24051 2.10149 4.24051C0.940871 4.24051 0 3.29124 0 2.12025C0 0.94927 0.940871 0 2.10149 0Z" fill="black"/>
</svg>
