<svg width="78" height="172" viewBox="0 0 78 172" fill="none" xmlns="http://www.w3.org/2000/svg">
<path fill-rule="evenodd" clip-rule="evenodd" d="M20.8356 165.774C22.3109 165.774 23.5068 166.981 23.5068 168.469C23.5068 169.958 22.3109 171.164 20.8356 171.164C19.3603 171.164 18.1644 169.958 18.1644 168.469C18.1644 166.981 19.3603 165.774 20.8356 165.774ZM2.67123 165.774C4.14651 165.774 5.34247 166.981 5.34247 168.469C5.34247 169.958 4.14651 171.164 2.67123 171.164C1.19595 171.164 0 169.958 0 168.469C0 166.981 1.19595 165.774 2.67123 165.774ZM39 165.774C40.4753 165.774 41.6712 166.981 41.6712 168.469C41.6712 169.958 40.4753 171.164 39 171.164C37.5247 171.164 36.3288 169.958 36.3288 168.469C36.3288 166.981 37.5247 165.774 39 165.774ZM57.1644 165.774C58.6397 165.774 59.8356 166.981 59.8356 168.469C59.8356 169.958 58.6397 171.164 57.1644 171.164C55.6891 171.164 54.4931 169.958 54.4931 168.469C54.4931 166.981 55.6891 165.774 57.1644 165.774ZM75.3288 165.774C76.804 165.774 78 166.981 78 168.469C78 169.958 76.804 171.164 75.3288 171.164C73.8535 171.164 72.6575 169.958 72.6575 168.469C72.6575 166.981 73.8535 165.774 75.3288 165.774ZM20.8356 147.448C22.3109 147.448 23.5068 148.654 23.5068 150.143C23.5068 151.631 22.3109 152.838 20.8356 152.838C19.3603 152.838 18.1644 151.631 18.1644 150.143C18.1644 148.654 19.3603 147.448 20.8356 147.448ZM2.67123 147.448C4.14651 147.448 5.34247 148.654 5.34247 150.143C5.34247 151.631 4.14651 152.838 2.67123 152.838C1.19595 152.838 0 151.631 0 150.143C0 148.654 1.19595 147.448 2.67123 147.448ZM39 147.448C40.4753 147.448 41.6712 148.654 41.6712 150.143C41.6712 151.631 40.4753 152.838 39 152.838C37.5247 152.838 36.3288 151.631 36.3288 150.143C36.3288 148.654 37.5247 147.448 39 147.448ZM57.1644 147.448C58.6397 147.448 59.8356 148.654 59.8356 150.143C59.8356 151.631 58.6397 152.838 57.1644 152.838C55.6891 152.838 54.4931 151.631 54.4931 150.143C54.4931 148.654 55.6891 147.448 57.1644 147.448ZM75.3288 147.448C76.804 147.448 78 148.654 78 150.143C78 151.631 76.804 152.838 75.3288 152.838C73.8535 152.838 72.6575 151.631 72.6575 150.143C72.6575 148.654 73.8535 147.448 75.3288 147.448ZM20.8356 129.121C22.3109 129.121 23.5068 130.328 23.5068 131.816C23.5068 133.305 22.3109 134.511 20.8356 134.511C19.3603 134.511 18.1644 133.305 18.1644 131.816C18.1644 130.328 19.3603 129.121 20.8356 129.121ZM2.67123 129.121C4.14651 129.121 5.34247 130.328 5.34247 131.816C5.34247 133.305 4.14651 134.511 2.67123 134.511C1.19595 134.511 0 133.305 0 131.816C0 130.328 1.19595 129.121 2.67123 129.121ZM39 129.121C40.4753 129.121 41.6712 130.328 41.6712 131.816C41.6712 133.305 40.4753 134.511 39 134.511C37.5247 134.511 36.3288 133.305 36.3288 131.816C36.3288 130.328 37.5247 129.121 39 129.121ZM57.1644 129.121C58.6397 129.121 59.8356 130.328 59.8356 131.816C59.8356 133.305 58.6397 134.511 57.1644 134.511C55.6891 134.511 54.4931 133.305 54.4931 131.816C54.4931 130.328 55.6891 129.121 57.1644 129.121ZM75.3288 129.121C76.804 129.121 78 130.328 78 131.816C78 133.305 76.804 134.511 75.3288 134.511C73.8535 134.511 72.6575 133.305 72.6575 131.816C72.6575 130.328 73.8535 129.121 75.3288 129.121ZM2.67123 110.795C4.14651 110.795 5.34247 112.001 5.34247 113.49C5.34247 114.978 4.14651 116.185 2.67123 116.185C1.19595 116.185 0 114.978 0 113.49C0 112.001 1.19595 110.795 2.67123 110.795ZM39 110.795C40.4753 110.795 41.6712 112.001 41.6712 113.49C41.6712 114.978 40.4753 116.185 39 116.185C37.5247 116.185 36.3288 114.978 36.3288 113.49C36.3288 112.001 37.5247 110.795 39 110.795ZM57.1644 110.795C58.6397 110.795 59.8356 112.001 59.8356 113.49C59.8356 114.978 58.6397 116.185 57.1644 116.185C55.6891 116.185 54.4931 114.978 54.4931 113.49C54.4931 112.001 55.6891 110.795 57.1644 110.795ZM75.3288 110.795C76.804 110.795 78 112.001 78 113.49C78 114.978 76.804 116.185 75.3288 116.185C73.8535 116.185 72.6575 114.978 72.6575 113.49C72.6575 112.001 73.8535 110.795 75.3288 110.795ZM20.8356 110.795C22.3109 110.795 23.5068 112.001 23.5068 113.49C23.5068 114.978 22.3109 116.185 20.8356 116.185C19.3603 116.185 18.1644 114.978 18.1644 113.49C18.1644 112.001 19.3603 110.795 20.8356 110.795ZM75.3288 92.4682C76.804 92.4682 78 93.6748 78 95.1633C78 96.6517 76.804 97.8584 75.3288 97.8584C73.8535 97.8584 72.6575 96.6517 72.6575 95.1633C72.6575 93.6748 73.8535 92.4682 75.3288 92.4682ZM20.8356 92.4682C22.3109 92.4682 23.5068 93.6748 23.5068 95.1633C23.5068 96.6517 22.3109 97.8584 20.8356 97.8584C19.3603 97.8584 18.1644 96.6517 18.1644 95.1633C18.1644 93.6748 19.3603 92.4682 20.8356 92.4682ZM2.67123 92.4682C4.14651 92.4682 5.34247 93.6748 5.34247 95.1633C5.34247 96.6517 4.14651 97.8584 2.67123 97.8584C1.19595 97.8584 0 96.6517 0 95.1633C0 93.6748 1.19595 92.4682 2.67123 92.4682ZM39 92.4682C40.4753 92.4682 41.6712 93.6748 41.6712 95.1633C41.6712 96.6517 40.4753 97.8584 39 97.8584C37.5247 97.8584 36.3288 96.6517 36.3288 95.1633C36.3288 93.6748 37.5247 92.4682 39 92.4682ZM57.1644 92.4682C58.6397 92.4682 59.8356 93.6748 59.8356 95.1633C59.8356 96.6517 58.6397 97.8584 57.1644 97.8584C55.6891 97.8584 54.4931 96.6517 54.4931 95.1633C54.4931 93.6748 55.6891 92.4682 57.1644 92.4682ZM20.8356 74.1417C22.3109 74.1417 23.5068 75.3483 23.5068 76.8368C23.5068 78.3252 22.3109 79.5318 20.8356 79.5318C19.3603 79.5318 18.1644 78.3252 18.1644 76.8368C18.1644 75.3483 19.3603 74.1417 20.8356 74.1417ZM57.1644 74.1417C58.6397 74.1417 59.8356 75.3483 59.8356 76.8368C59.8356 78.3252 58.6397 79.5318 57.1644 79.5318C55.6891 79.5318 54.4931 78.3252 54.4931 76.8368C54.4931 75.3483 55.6891 74.1417 57.1644 74.1417ZM2.67123 74.1417C4.14651 74.1417 5.34247 75.3483 5.34247 76.8368C5.34247 78.3252 4.14651 79.5318 2.67123 79.5318C1.19595 79.5318 0 78.3252 0 76.8368C0 75.3483 1.19595 74.1417 2.67123 74.1417ZM39 74.1417C40.4753 74.1417 41.6712 75.3483 41.6712 76.8368C41.6712 78.3252 40.4753 79.5318 39 79.5318C37.5247 79.5318 36.3288 78.3252 36.3288 76.8368C36.3288 75.3483 37.5247 74.1417 39 74.1417ZM75.3288 74.1417C76.804 74.1417 78 75.3483 78 76.8368C78 78.3252 76.804 79.5318 75.3288 79.5318C73.8535 79.5318 72.6575 78.3252 72.6575 76.8368C72.6575 75.3483 73.8535 74.1417 75.3288 74.1417ZM75.3288 55.8152C76.804 55.8152 78 57.0218 78 58.5102C78 59.9987 76.804 61.2053 75.3288 61.2053C73.8535 61.2053 72.6575 59.9987 72.6575 58.5102C72.6575 57.0218 73.8535 55.8152 75.3288 55.8152ZM39 55.8152C40.4753 55.8152 41.6712 57.0218 41.6712 58.5102C41.6712 59.9987 40.4753 61.2053 39 61.2053C37.5247 61.2053 36.3288 59.9987 36.3288 58.5102C36.3288 57.0218 37.5247 55.8152 39 55.8152ZM20.8356 55.8152C22.3109 55.8152 23.5068 57.0218 23.5068 58.5102C23.5068 59.9987 22.3109 61.2053 20.8356 61.2053C19.3603 61.2053 18.1644 59.9987 18.1644 58.5102C18.1644 57.0218 19.3603 55.8152 20.8356 55.8152ZM2.67123 55.8152C4.14651 55.8152 5.34247 57.0218 5.34247 58.5102C5.34247 59.9987 4.14651 61.2053 2.67123 61.2053C1.19595 61.2053 0 59.9987 0 58.5102C0 57.0218 1.19595 55.8152 2.67123 55.8152ZM57.1644 55.8152C58.6397 55.8152 59.8356 57.0218 59.8356 58.5102C59.8356 59.9987 58.6397 61.2053 57.1644 61.2053C55.6891 61.2053 54.4931 59.9987 54.4931 58.5102C54.4931 57.0218 55.6891 55.8152 57.1644 55.8152ZM57.1644 37.4886C58.6397 37.4886 59.8356 38.6953 59.8356 40.1837C59.8356 41.6722 58.6397 42.8788 57.1644 42.8788C55.6891 42.8788 54.4931 41.6722 54.4931 40.1837C54.4931 38.6953 55.6891 37.4886 57.1644 37.4886ZM75.3288 37.4886C76.804 37.4886 78 38.6953 78 40.1837C78 41.6722 76.804 42.8788 75.3288 42.8788C73.8535 42.8788 72.6575 41.6722 72.6575 40.1837C72.6575 38.6953 73.8535 37.4886 75.3288 37.4886ZM2.67123 37.4886C4.14651 37.4886 5.34247 38.6953 5.34247 40.1837C5.34247 41.6722 4.14651 42.8788 2.67123 42.8788C1.19595 42.8788 0 41.6722 0 40.1837C0 38.6953 1.19595 37.4886 2.67123 37.4886ZM20.8356 37.4886C22.3109 37.4886 23.5068 38.6953 23.5068 40.1837C23.5068 41.6722 22.3109 42.8788 20.8356 42.8788C19.3603 42.8788 18.1644 41.6722 18.1644 40.1837C18.1644 38.6953 19.3603 37.4886 20.8356 37.4886ZM39 37.4886C40.4753 37.4886 41.6712 38.6953 41.6712 40.1837C41.6712 41.6722 40.4753 42.8788 39 42.8788C37.5247 42.8788 36.3288 41.6722 36.3288 40.1837C36.3288 38.6953 37.5247 37.4886 39 37.4886ZM20.8356 19.1621C22.3109 19.1621 23.5068 20.3687 23.5068 21.8572C23.5068 23.3456 22.3109 24.5523 20.8356 24.5523C19.3603 24.5523 18.1644 23.3456 18.1644 21.8572C18.1644 20.3687 19.3603 19.1621 20.8356 19.1621ZM39 19.1621C40.4753 19.1621 41.6712 20.3687 41.6712 21.8572C41.6712 23.3456 40.4753 24.5523 39 24.5523C37.5247 24.5523 36.3288 23.3456 36.3288 21.8572C36.3288 20.3687 37.5247 19.1621 39 19.1621ZM57.1644 19.1621C58.6397 19.1621 59.8356 20.3687 59.8356 21.8572C59.8356 23.3456 58.6397 24.5523 57.1644 24.5523C55.6891 24.5523 54.4931 23.3456 54.4931 21.8572C54.4931 20.3687 55.6891 19.1621 57.1644 19.1621ZM75.3288 19.1621C76.804 19.1621 78 20.3687 78 21.8572C78 23.3456 76.804 24.5523 75.3288 24.5523C73.8535 24.5523 72.6575 23.3456 72.6575 21.8572C72.6575 20.3687 73.8535 19.1621 75.3288 19.1621ZM2.67123 19.1621C4.14651 19.1621 5.34247 20.3687 5.34247 21.8572C5.34247 23.3456 4.14651 24.5523 2.67123 24.5523C1.19595 24.5523 0 23.3456 0 21.8572C0 20.3687 1.19595 19.1621 2.67123 19.1621ZM20.8356 0.835571C22.3109 0.835571 23.5068 2.0422 23.5068 3.53065C23.5068 5.0191 22.3109 6.22573 20.8356 6.22573C19.3603 6.22573 18.1644 5.0191 18.1644 3.53065C18.1644 2.0422 19.3603 0.835571 20.8356 0.835571ZM39 0.835571C40.4753 0.835571 41.6712 2.0422 41.6712 3.53065C41.6712 5.0191 40.4753 6.22573 39 6.22573C37.5247 6.22573 36.3288 5.0191 36.3288 3.53065C36.3288 2.0422 37.5247 0.835571 39 0.835571ZM57.1644 0.835571C58.6397 0.835571 59.8356 2.0422 59.8356 3.53065C59.8356 5.0191 58.6397 6.22573 57.1644 6.22573C55.6891 6.22573 54.4931 5.0191 54.4931 3.53065C54.4931 2.0422 55.6891 0.835571 57.1644 0.835571ZM75.3288 0.835571C76.804 0.835571 78 2.0422 78 3.53065C78 5.0191 76.804 6.22573 75.3288 6.22573C73.8535 6.22573 72.6575 5.0191 72.6575 3.53065C72.6575 2.0422 73.8535 0.835571 75.3288 0.835571ZM2.67123 0.835571C4.14651 0.835571 5.34247 2.0422 5.34247 3.53065C5.34247 5.0191 4.14651 6.22573 2.67123 6.22573C1.19595 6.22573 0 5.0191 0 3.53065C0 2.0422 1.19595 0.835571 2.67123 0.835571Z" fill="black"/>
</svg>
