<svg width="50" height="49" viewBox="0 0 50 49" fill="none" xmlns="http://www.w3.org/2000/svg">
<path fill-rule="evenodd" clip-rule="evenodd" d="M47.6501 31.8207C47.7377 32.8763 47.4946 33.858 46.9823 34.7506C46.7712 35.1189 46.2645 35.3556 45.9043 35.0608C44.7269 34.0979 43.5251 34.6324 42.3727 34.9664C35.0413 37.0919 28.2124 40.3699 21.6192 44.1633C19.2129 45.5474 16.8599 47.0245 14.4748 48.445C14.151 48.6378 13.8699 48.9622 13.3743 48.619C12.8797 48.2768 13.2422 47.8931 13.151 47.5795C12.4581 45.1981 14.2153 44.2413 15.6508 43.0865C22.9102 37.2455 31.1404 33.3531 40.0955 30.9219C41.7342 30.4772 43.4063 30.1964 45.1098 30.2982C46.1951 30.3635 47.1954 30.6635 47.6501 31.8207Z" fill="black"/>
<path fill-rule="evenodd" clip-rule="evenodd" d="M27.7557 15.186C28.5501 15.317 28.9323 15.665 28.8456 16.4182C28.7606 17.1583 28.493 17.5833 27.6841 17.8004C25.9539 18.265 24.7101 19.5458 23.4427 20.7165C18.9788 24.8375 14.8343 29.2777 10.6276 33.6553C10.2963 33.9998 9.97702 34.374 9.3745 34.2339C8.64111 34.0643 9.14522 33.4714 8.93806 33.1283C8.25615 31.9986 8.95858 31.1751 9.59505 30.3679C12.9006 26.1774 16.1139 21.9043 20.2091 18.4148C21.5527 17.2701 22.9229 16.1653 24.4072 15.1999C25.0639 14.773 25.9756 15.0753 26.5341 14.2684C26.7612 13.9398 27.49 13.9013 28.0179 14.1584C28.2923 14.2919 28.6364 14.4125 28.6115 14.7557C28.5824 15.1584 28.1462 15.0201 27.7557 15.186Z" fill="black"/>
<path fill-rule="evenodd" clip-rule="evenodd" d="M12.4887 1.28433C12.7504 2.704 12.3972 3.65586 11.5967 4.66105C10.0544 6.59732 9.35192 8.98211 8.62074 11.316C7.65345 14.4009 6.89472 17.5368 6.39178 20.7356C6.26473 21.5461 5.98965 22.3377 5.73187 23.1212C5.63383 23.4195 5.47775 23.7757 5.00161 23.6297C4.61346 23.5113 4.58443 23.2406 4.48263 22.8848C3.68869 20.1092 4.62347 17.446 5.05615 14.7837C5.6461 11.1545 6.59921 7.59412 8.20122 4.2471C8.78929 3.01874 9.51489 1.88251 10.4098 0.857252C10.7935 0.41793 11.2187 0.0737825 11.875 0.236297C12.5946 0.414882 12.5193 0.955534 12.4887 1.28433Z" fill="black"/>
</svg>
