<svg width="202" height="203" viewBox="0 0 202 203" fill="none" xmlns="http://www.w3.org/2000/svg">
<path fill-rule="evenodd" clip-rule="evenodd" d="M97.05 202.27L100.278 202.339C77.4145 202.227 56.3507 194.472 39.4921 181.489L39.68 181.31C39.78 181.21 39.95 181.04 39.94 181.02C39.9993 181.035 40.1246 181.116 40.2384 181.189L40.2988 181.228C40.3167 181.239 40.3339 181.25 40.35 181.26L40.3714 181.275C40.7167 181.512 41.1199 181.788 41.6 181.71C41.954 181.653 42.2349 181.458 42.4862 181.283L42.52 181.26L42.5442 181.243C42.6969 181.138 42.8555 181.029 42.96 181.01C43.2363 180.953 43.5073 180.873 43.77 180.77C43.8176 180.753 43.8647 180.736 43.9115 180.719C44.0611 180.664 44.2076 180.611 44.36 180.58C44.506 180.551 44.6995 180.579 44.9034 180.608L44.92 180.61C45.2 180.65 45.52 180.69 45.85 180.63C45.92 180.62 46.16 180.7 46.3 180.75C46.62 180.87 46.98 181 47.38 180.93C47.7435 180.863 48.0246 180.668 48.276 180.494L48.31 180.47C48.46 180.36 48.64 180.24 48.75 180.22C49.02 180.17 49.28 180.07 49.54 179.97C49.5847 179.954 49.6289 179.938 49.6729 179.922C49.8258 179.866 49.977 179.811 50.14 179.78C50.53 179.7 50.83 179.45 51.07 179.24L51.39 178.97C51.47 178.98 51.68 179.12 51.8 179.2C52.15 179.43 52.6 179.71 53.09 179.6C53.5 179.51 53.8 179.21 54.04 178.97C54.14 178.87 54.31 178.7 54.39 178.67C54.5528 178.629 54.7156 178.615 54.8838 178.601L54.946 178.595L55 178.59C55.28 178.57 55.57 178.54 55.84 178.47C56.2 178.39 56.48 178.18 56.73 177.99C56.8899 177.87 57.05 177.75 57.16 177.72C57.3085 177.68 57.506 177.69 57.7137 177.7L57.72 177.7L57.7808 177.702C58.0459 177.712 58.3429 177.724 58.64 177.64C58.79 177.603 58.94 177.582 59.09 177.561C59.14 177.554 59.19 177.548 59.24 177.54L59.3199 177.529L59.3787 177.521C59.622 177.489 59.8631 177.457 60.09 177.39C60.44 177.29 60.71 177.08 60.95 176.89C61.1 176.77 61.26 176.65 61.37 176.61C61.44 176.6 61.67 176.66 61.81 176.7C62.14 176.8 62.56 176.92 62.97 176.79C63.2858 176.685 63.5375 176.506 63.769 176.342L63.8 176.32C63.97 176.19 64.13 176.08 64.26 176.03C64.3211 176.013 64.5192 176.056 64.6617 176.087L64.72 176.1L64.7226 176.101C65.0619 176.181 65.441 176.27 65.85 176.14C65.9821 176.091 66.1191 176.052 66.2576 176.013C66.3182 175.996 66.3791 175.978 66.44 175.96L67.26 175.7C67.64 175.56 67.89 175.27 68.11 175.01C68.21 174.89 68.37 174.7 68.45 174.67C68.8103 174.531 69.0511 174.231 69.2513 173.981L69.3 173.92C69.4 173.79 69.55 173.6 69.62 173.57C69.76 173.51 69.97 173.5 70.18 173.49L70.2012 173.489C70.486 173.469 70.8078 173.447 71.12 173.32C71.2801 173.253 71.4544 173.221 71.631 173.188L71.6679 173.182L71.73 173.17C72.01 173.12 72.29 173.07 72.58 172.95C72.83 172.85 73.08 172.71 73.32 172.57L73.91 172.26C73.9741 172.233 74.1894 172.264 74.3326 172.285L74.37 172.29C74.71 172.34 75.12 172.4 75.5 172.24C75.85 172.1 76.1 171.84 76.32 171.61C76.46 171.46 76.61 171.31 76.71 171.27C77.1 171.11 77.34 170.78 77.54 170.49L77.5792 170.437C77.6669 170.319 77.7809 170.165 77.85 170.13C78.02 170.05 78.24 170.01 78.47 169.97C78.74 169.92 79.01 169.87 79.28 169.75C79.36 169.74 79.59 169.8 79.73 169.84C80.09 169.94 80.55 170.06 80.97 169.87C81.27 169.74 81.52 169.55 81.74 169.38L81.8139 169.326C81.9665 169.215 82.1107 169.11 82.24 169.05C82.6065 168.892 82.8454 168.596 83.054 168.337L83.06 168.33C83.17 168.19 83.31 168.02 83.39 167.98C83.54 167.92 83.74 167.89 83.96 167.86L84.0193 167.852C84.2859 167.814 84.5909 167.771 84.87 167.65C85.13 167.54 85.37 167.38 85.61 167.22L85.67 167.18C85.8282 167.074 85.9812 166.971 86.15 166.9C86.46 166.77 86.71 166.55 86.92 166.36C86.9599 166.327 86.9987 166.294 87.0363 166.262L87.0373 166.262C87.1593 166.158 87.2684 166.066 87.36 166.02C87.43 166.01 87.67 166.07 87.81 166.11L87.8177 166.112C88.1766 166.212 88.633 166.339 89.05 166.15C89.4 165.99 89.64 165.71 89.84 165.46C89.95 165.32 90.1 165.15 90.19 165.11C90.35 165.04 90.56 165 90.77 164.97L90.8216 164.961C91.0779 164.913 91.3583 164.862 91.63 164.74L92.37 164.38L92.95 164.09C93.0712 164.038 93.2375 164.016 93.4228 163.992L93.51 163.98L93.5412 163.977C93.8136 163.948 94.1215 163.915 94.42 163.78L95.18 163.42L95.75 163.14C96.0621 163.013 96.3076 162.81 96.5329 162.624L96.55 162.61C96.7099 162.48 96.87 162.35 96.99 162.29C97.2688 162.179 97.5044 162.007 97.7129 161.854L97.76 161.82L97.8041 161.788C97.9663 161.671 98.1132 161.564 98.26 161.5C98.46 161.42 98.67 161.36 98.88 161.3L99.66 161.04C99.92 160.93 100.16 160.78 100.4 160.63C100.439 160.606 100.478 160.582 100.516 160.558C100.655 160.47 100.793 160.383 100.95 160.32C101.06 160.27 101.27 160.27 101.47 160.27C101.78 160.27 102.12 160.27 102.46 160.13C102.67 160.04 102.89 159.97 103.11 159.9L103.85 159.64C104.06 159.553 104.277 159.48 104.489 159.41L104.58 159.38L105.21 159.16C105.56 159.02 105.82 158.76 106.04 158.53L106.36 158.21C106.437 158.21 106.653 158.303 106.794 158.363L106.81 158.37C107.21 158.55 107.67 158.74 108.13 158.57C108.6 158.39 108.8 157.91 108.97 157.49L108.986 157.45C109.046 157.301 109.127 157.098 109.1 157.08C109.177 157.07 109.394 157.154 109.526 157.205L109.54 157.21L109.544 157.211C109.903 157.341 110.342 157.5 110.78 157.35C111.136 157.225 111.39 156.971 111.613 156.747L111.64 156.72C111.76 156.59 111.91 156.44 111.99 156.41C112.06 156.39 112.3 156.45 112.44 156.49L112.472 156.498C112.797 156.577 113.203 156.676 113.59 156.54L114.13 156.35L114.96 156.06C115.41 155.913 115.64 155.508 115.847 155.144L115.86 155.12L116.08 154.74L117.47 154.29C117.67 154.23 117.88 154.21 118.09 154.19C118.38 154.16 118.66 154.12 118.92 154.04C119.22 153.96 119.48 153.82 119.72 153.69L120.27 153.44C120.34 153.43 120.57 153.51 120.71 153.56C121.04 153.68 121.46 153.82 121.88 153.7C122.004 153.667 122.163 153.668 122.34 153.669C122.376 153.67 122.413 153.67 122.45 153.67C122.73 153.68 123.04 153.69 123.35 153.61L124.77 153.26C125.029 153.191 125.259 153.084 125.471 152.986C125.505 152.97 125.538 152.955 125.57 152.94C125.589 152.931 125.607 152.922 125.626 152.913L125.682 152.886C125.832 152.813 125.976 152.742 126.12 152.71C126.3 152.67 126.5 152.67 126.72 152.67C126.99 152.67 127.29 152.66 127.58 152.59C128.05 152.48 128.34 152.08 128.57 151.75L128.81 151.41C128.89 151.4 129.12 151.48 129.26 151.53L129.282 151.538C129.606 151.656 129.969 151.788 130.37 151.7C130.67 151.64 130.94 151.52 131.18 151.41C131.38 151.32 131.58 151.23 131.74 151.2C131.969 151.164 132.199 151.137 132.43 151.12L133.2 151.03C133.597 150.962 133.9 150.707 134.145 150.501L134.17 150.48C134.28 150.38 134.47 150.22 134.54 150.21C134.612 150.201 134.798 150.281 134.936 150.341L134.98 150.36C135.29 150.5 135.67 150.66 136.08 150.6C136.228 150.575 136.396 150.585 136.573 150.594C136.612 150.596 136.651 150.598 136.69 150.6C136.95 150.62 137.25 150.64 137.54 150.59C137.79 150.56 138.04 150.5 138.29 150.44L138.361 150.424L138.392 150.417C138.581 150.373 138.777 150.327 138.98 150.31C139.225 150.281 139.48 150.27 139.726 150.261L139.74 150.26L140.43 150.22C140.726 150.192 140.996 150.088 141.24 149.993L141.3 149.97L141.373 149.942C141.554 149.872 141.719 149.809 141.86 149.8C142.02 149.79 142.23 149.83 142.45 149.88L142.539 149.897C142.777 149.945 143.047 149.998 143.34 149.98C143.67 149.96 143.97 149.85 144.23 149.75C144.43 149.67 144.62 149.6 144.77 149.6C145.12 149.59 145.43 149.47 145.7 149.36C145.9 149.28 146.09 149.21 146.22 149.2C146.29 149.21 146.49 149.35 146.61 149.44C146.9 149.65 147.26 149.9 147.69 149.9C148.003 149.9 148.287 149.823 148.543 149.755L148.56 149.75C148.77 149.69 148.97 149.64 149.14 149.64C149.41 149.64 149.68 149.6 149.94 149.56L150.58 149.49C150.93 149.49 151.24 149.39 151.52 149.29L151.96 149.14C152.04 149.18 152.21 149.37 152.31 149.49L152.318 149.499C152.626 149.847 152.974 150.24 153.48 150.24C153.831 150.24 154.129 150.123 154.397 150.017L154.44 150C154.62 149.92 154.81 149.85 154.92 149.85C155.09 149.86 155.28 149.91 155.49 149.97C155.52 149.978 155.55 149.986 155.581 149.995C155.817 150.06 156.078 150.131 156.37 150.14C156.83 150.16 157.21 149.87 157.51 149.64L157.84 149.39C157.896 149.406 158.028 149.504 158.135 149.584L158.188 149.624L158.21 149.64C158.48 149.86 158.82 150.12 159.26 150.16C159.395 150.168 159.542 150.203 159.7 150.242C159.752 150.255 159.806 150.268 159.86 150.28C160.11 150.35 160.4 150.42 160.7 150.44C160.96 150.46 161.22 150.44 161.48 150.42C161.7 150.4 161.92 150.39 162.15 150.41C162.597 150.44 162.974 150.184 163.283 149.975L163.29 149.97C163.41 149.89 163.61 149.75 163.58 149.72C163.65 149.76 163.81 149.95 163.91 150.07C164.19 150.41 164.52 150.8 165.01 150.84C165.429 150.88 165.809 150.671 166.099 150.511L166.1 150.51C166.22 150.44 166.43 150.33 166.51 150.33C166.669 150.339 166.855 150.402 167.051 150.467L167.09 150.48C167.34 150.56 167.63 150.65 167.92 150.68C168.092 150.696 168.252 150.736 168.414 150.777C168.459 150.788 168.504 150.799 168.55 150.81L169.35 150.97C169.661 151.007 169.956 150.943 170.219 150.886L170.29 150.87C170.5 150.82 170.69 150.78 170.84 150.79C171.11 150.82 171.38 150.81 171.65 150.8C171.87 150.79 172.09 150.78 172.3 150.81C172.38 150.81 172.58 150.93 172.73 151.04L172.768 151.064C173.026 151.227 173.289 151.393 173.67 151.45C173.835 151.474 174.006 151.516 174.174 151.557C174.219 151.568 174.265 151.579 174.31 151.59L175.09 151.76C175.29 151.79 175.5 151.85 175.71 151.91L175.753 151.923C176.008 151.998 176.254 152.072 176.51 152.1L177.27 152.17L177.96 152.23C178.407 152.29 178.804 152.054 179.123 151.864L179.13 151.86C179.25 151.79 179.45 151.66 179.44 151.64C179.51 151.68 179.66 151.87 179.75 151.99L179.768 152.013C180.015 152.329 180.321 152.722 180.79 152.8C181.279 152.88 181.689 152.581 182.058 152.312L182.06 152.31L182.122 152.264C182.241 152.176 182.39 152.065 182.39 152.04C182.56 152.07 182.76 152.15 182.96 152.23C183.2 152.33 183.48 152.44 183.78 152.49C183.842 152.508 183.982 152.635 184.082 152.726L184.12 152.76L184.131 152.77C184.379 152.998 184.686 153.281 185.11 153.35L186.53 153.58L186.89 153.66L190.23 147.69C190.22 147.68 190.21 147.673 190.2 147.665C190.197 147.663 190.195 147.661 190.192 147.659C190.189 147.656 190.185 147.654 190.181 147.651L190.176 147.646L190.17 147.64C189.96 147.41 189.66 147.16 189.25 147.08C188.785 146.993 188.377 147.215 188.034 147.402L188 147.42L187.61 147.63C187.53 147.59 187.37 147.39 187.27 147.27C187.02 146.96 186.7 146.58 186.23 146.49C185.73 146.42 185.27 146.71 184.91 146.96L184.54 147.22C184.46 147.2 184.27 147.03 184.16 146.92C183.9 146.68 183.57 146.38 183.13 146.31C183.008 146.294 182.866 146.224 182.714 146.151L182.681 146.134C182.657 146.123 182.634 146.111 182.61 146.1L182.58 146.085C182.328 145.959 182.047 145.818 181.72 145.77C181.25 145.692 180.837 145.959 180.501 146.177L180.48 146.19L180.12 146.43C179.91 146.4 179.7 146.35 179.49 146.3L178.65 146.14C178.516 146.133 178.37 146.075 178.214 146.013C178.187 146.002 178.159 145.991 178.131 145.981C178.104 145.97 178.077 145.96 178.05 145.95C177.81 145.85 177.53 145.74 177.21 145.69C176.841 145.642 176.5 145.744 176.206 145.832L176.18 145.84C176 145.9 175.79 145.96 175.69 145.95L174.22 145.77L173.64 145.68L172.76 145.55C172.69 145.53 172.51 145.36 172.41 145.26C172.14 145.01 171.8 144.7 171.37 144.64C171.069 144.602 170.776 144.645 170.51 144.683L170.46 144.69L170.44 144.693C170.227 144.722 170.025 144.749 169.87 144.73C169.535 144.693 169.226 144.768 168.951 144.835L168.89 144.85C168.69 144.9 168.49 144.95 168.35 144.94C168.04 144.91 167.75 144.94 167.48 144.97L167.456 144.972L167.402 144.978L167.375 144.981C167.2 144.999 167.025 145.017 166.85 145C166.758 144.982 166.598 144.879 166.464 144.792L166.43 144.77C166.15 144.58 165.84 144.37 165.43 144.33C165.15 144.31 164.86 144.33 164.57 144.36L163.94 144.39C163.826 144.39 163.659 144.291 163.497 144.196L163.47 144.18L163.451 144.17C163.176 144.023 162.871 143.859 162.49 143.82C162.02 143.79 161.63 144.07 161.32 144.3L160.96 144.55C160.75 144.54 160.54 144.49 160.33 144.44L159.52 144.3C159.45 144.27 159.27 144.11 159.16 144.01L159.152 144.003C158.864 143.734 158.516 143.41 158.04 143.4L156.55 143.34C156.09 143.32 155.71 143.59 155.41 143.81C155.29 143.9 155.1 144.04 155.05 144.05L154.59 144.03L153.56 143.99C153.271 143.99 152.991 144.033 152.744 144.072L152.69 144.08C152.49 144.12 152.28 144.16 152.08 144.15C151.87 144.15 151.66 144.1 151.46 144.05C151.19 143.99 150.91 143.93 150.59 143.93C150.459 143.93 150.284 143.869 150.098 143.803L150.06 143.79L150.026 143.778C149.754 143.681 149.445 143.57 149.1 143.57C148.75 143.57 148.438 143.693 148.164 143.801L148.14 143.81L148.11 143.822C147.921 143.898 147.741 143.97 147.57 143.97C147.24 144 146.94 144.11 146.68 144.21C146.5 144.28 146.32 144.35 146.17 144.36C146.08 144.3 145.92 144.13 145.82 144.02C145.49 143.67 145.12 143.28 144.59 143.3C144.174 143.319 143.842 143.545 143.567 143.732L143.54 143.75C143.42 143.84 143.21 143.98 143.13 143.98C143.024 143.99 142.836 143.916 142.661 143.848L142.64 143.84C142.34 143.72 142 143.59 141.62 143.62L140.98 143.63L140.12 143.66C139.79 143.69 139.48 143.79 139.21 143.89C139.01 143.96 138.81 144.03 138.65 144.05C138.24 144.1 137.91 144.34 137.65 144.54C137.52 144.64 137.33 144.78 137.25 144.79C137.17 144.799 136.994 144.736 136.836 144.68L136.78 144.66L136.744 144.646C136.433 144.53 136.094 144.402 135.7 144.46C135.29 144.52 134.98 144.76 134.71 144.98C134.677 145.005 134.639 145.034 134.6 145.065L134.599 145.066C134.496 145.147 134.386 145.233 134.35 145.24C134.23 145.21 134.06 145.1 133.94 145.02L133.922 145.009C133.586 144.801 133.182 144.551 132.72 144.63C132.33 144.698 132.036 144.928 131.771 145.134L131.75 145.15C131.62 145.26 131.44 145.4 131.35 145.42C131.28 145.42 131.05 145.33 130.91 145.27L130.908 145.269C130.588 145.129 130.179 144.95 129.75 145.04C129.4 145.11 129.11 145.28 128.85 145.44C128.67 145.55 128.49 145.66 128.35 145.68C127.969 145.758 127.684 145.989 127.428 146.195L127.41 146.21L127.356 146.252C127.227 146.355 127.079 146.473 127 146.49C126.92 146.51 126.69 146.44 126.54 146.39C126.21 146.29 125.84 146.18 125.45 146.27C125.15 146.34 124.88 146.46 124.64 146.57C124.452 146.664 124.254 146.738 124.05 146.79C123.917 146.823 123.757 146.822 123.58 146.821C123.544 146.82 123.507 146.82 123.47 146.82C123.19 146.81 122.88 146.8 122.55 146.88C122.14 146.98 121.84 147.28 121.61 147.53C121.51 147.64 121.33 147.82 121.27 147.83C121.13 147.87 120.93 147.86 120.72 147.84C120.42 147.82 120.09 147.81 119.75 147.9C119.45 147.99 119.19 148.12 118.94 148.25C118.893 148.273 118.846 148.296 118.799 148.319C118.66 148.387 118.523 148.455 118.38 148.5C118.068 148.588 117.803 148.742 117.568 148.88L117.55 148.89C117.36 149 117.18 149.1 117.02 149.15L116.33 149.35L115.6 149.56C115.524 149.585 115.357 149.554 115.205 149.526L115.162 149.518L115.12 149.51C114.79 149.44 114.42 149.37 114.03 149.49C113.68 149.6 113.41 149.81 113.17 150C113.01 150.13 112.85 150.25 112.72 150.29C112.654 150.309 112.434 150.265 112.284 150.235L112.26 150.23L112.237 150.225C111.912 150.156 111.521 150.073 111.13 150.2C110.67 150.36 110.43 150.81 110.24 151.18L110.223 151.214L110.203 151.252C110.135 151.386 110.055 151.543 110.08 151.56C110 151.56 109.77 151.47 109.64 151.41L109.612 151.399C109.246 151.25 108.788 151.064 108.34 151.23C107.924 151.385 107.686 151.755 107.49 152.059L107.47 152.09L107.22 152.45C107.109 152.493 106.954 152.492 106.774 152.491C106.744 152.49 106.712 152.49 106.68 152.49L106.62 152.49C106.335 152.489 106.017 152.489 105.7 152.61C105.589 152.653 105.426 152.652 105.25 152.65C105.221 152.65 105.19 152.65 105.16 152.65L105.1 152.65C104.815 152.649 104.497 152.649 104.17 152.77L102.79 153.29C102.45 153.42 102.2 153.66 101.98 153.88L101.931 153.926C101.797 154.052 101.666 154.176 101.55 154.22C101.288 154.328 101.059 154.486 100.855 154.625L100.79 154.67C100.61 154.8 100.44 154.92 100.28 154.99C100.17 155.04 99.9601 155.04 99.7602 155.04C99.4602 155.04 99.11 155.04 98.77 155.18C98.6182 155.248 98.4522 155.279 98.2839 155.312C98.2527 155.318 98.2213 155.324 98.19 155.33C97.92 155.38 97.62 155.44 97.34 155.57C96.922 155.739 96.6922 156.126 96.5027 156.445L96.5 156.45L96.4832 156.479C96.4121 156.601 96.3062 156.783 96.26 156.82C96.11 156.88 95.9 156.91 95.68 156.94L95.6242 156.948C95.3677 156.986 95.0788 157.028 94.79 157.14C94.48 157.27 94.22 157.46 94 157.63C93.83 157.76 93.67 157.88 93.54 157.94C93.3257 158.026 93.1114 158.134 92.9035 158.238L92.8 158.29L92.2 158.57L91.55 158.89L90.91 159.2C90.83 159.2 90.59 159.13 90.45 159.08L90.4175 159.069C90.0351 158.941 89.5975 158.795 89.16 158.98C88.7286 159.166 88.5183 159.612 88.3501 159.969L88.16 160.37C88.04 160.42 87.84 160.43 87.63 160.43L87.5666 160.432C87.2739 160.441 86.957 160.45 86.64 160.59C86.38 160.7 86.14 160.86 85.9 161.02L85.38 161.34C85.3312 161.347 85.205 161.315 85.0855 161.285L85.0836 161.285C85.0322 161.272 84.982 161.259 84.94 161.25C84.57 161.14 84.11 161.01 83.69 161.21C83.3201 161.376 83.0923 161.712 82.9052 161.988L82.89 162.01L82.8766 162.03C82.7961 162.151 82.6756 162.332 82.6 162.37L82.03 162.65L81.28 163C81.14 163.06 80.94 163.09 80.73 163.12L80.6956 163.125C80.4247 163.163 80.1273 163.206 79.83 163.34L79.13 163.63L78.48 163.89C78.15 164.03 77.9 164.25 77.68 164.45C77.53 164.59 77.38 164.72 77.26 164.77C77.16 164.81 76.95 164.8 76.77 164.79C76.44 164.77 76.07 164.75 75.72 164.9C75.31 165.07 75.07 165.43 74.88 165.73L74.63 166.08C74.5 166.13 74.3 166.14 74.08 166.15C73.79 166.16 73.45 166.18 73.13 166.31C73.0468 166.343 72.8874 166.342 72.7211 166.341C72.6875 166.34 72.6536 166.34 72.62 166.34L72.5713 166.339C72.2647 166.328 71.9323 166.318 71.6 166.46C71.3 166.58 71.05 166.77 70.83 166.94C70.7988 166.963 70.7682 166.985 70.7381 167.007C70.5946 167.113 70.4622 167.21 70.33 167.26L69.63 167.58L69 167.87C68.6607 168.008 68.4307 168.271 68.2253 168.507L68.17 168.57L67.86 168.91C67.78 168.91 67.55 168.83 67.41 168.78L67.4027 168.777C67.0145 168.638 66.5772 168.481 66.14 168.65C65.72 168.81 65.49 169.19 65.29 169.53C65.2758 169.553 65.2604 169.579 65.2444 169.605C65.1698 169.729 65.0811 169.875 65.04 169.9C64.92 169.94 64.71 169.93 64.51 169.92C64.21 169.9 63.86 169.88 63.52 170C63.43 170.03 63.2 169.99 63.04 169.96C62.71 169.9 62.35 169.84 61.97 169.96C61.47 170.13 61.25 170.64 61.06 171.09L60.9 171.45C60.8371 171.421 60.7643 171.38 60.6949 171.34C60.6429 171.31 60.5928 171.281 60.55 171.26C60.15 171.02 59.7 170.75 59.21 170.89C58.7335 171.026 58.4934 171.474 58.2783 171.876L58.26 171.91L58.07 172.31C58.0051 172.329 57.7856 172.27 57.6344 172.229L57.6334 172.229L57.6 172.22C57.27 172.13 56.9 172.03 56.5 172.13C56.1639 172.217 55.9015 172.395 55.6598 172.56L55.63 172.58C55.46 172.7 55.29 172.81 55.16 172.84C54.9202 172.903 54.6833 172.976 54.45 173.06L53.76 173.27L53.05 173.41L52.3 173.56C52.2342 173.568 52.074 173.509 51.9413 173.46L51.9396 173.459C51.9114 173.449 51.8845 173.439 51.86 173.43L51.8253 173.417C51.5113 173.299 51.125 173.154 50.72 173.25C50.48 173.3 50.24 173.33 50 173.36L49.27 173.47C48.8749 173.549 48.5871 173.804 48.3296 174.032L48.32 174.04C48.21 174.14 48.01 174.31 47.94 174.32C47.6361 174.375 47.3746 174.507 47.1477 174.621L47.09 174.65C46.9 174.75 46.71 174.84 46.54 174.87L45.1 175.15C44.9498 175.179 44.7945 175.182 44.6377 175.185C44.6091 175.185 44.5799 175.186 44.5512 175.187C44.5175 175.187 44.4837 175.189 44.45 175.19C44.1691 175.187 43.8884 175.204 43.61 175.24C43.34 175.29 43.07 175.37 42.8 175.45C42.59 175.52 42.38 175.59 42.17 175.62C41.96 175.66 41.73 175.66 41.51 175.66C41.4636 175.662 41.4171 175.663 41.3708 175.665C41.1374 175.671 40.9052 175.678 40.68 175.72C40.47 175.76 40.24 175.75 40.02 175.74C39.743 175.725 39.4652 175.735 39.19 175.77C39.1138 175.779 38.9515 175.73 38.8004 175.684C38.773 175.676 38.746 175.668 38.72 175.66C38.4 175.55 38.05 175.43 37.67 175.49C37.26 175.55 36.95 175.8 36.67 176.03C36.6426 176.051 36.6126 176.075 36.5817 176.099C36.4658 176.191 36.3373 176.292 36.29 176.3C36.2252 176.309 36.0232 176.216 35.8904 176.154L35.86 176.14C35.54 175.99 35.14 175.81 34.71 175.88C34.3664 175.939 34.0806 176.104 33.8242 176.252L33.81 176.26C33.676 176.337 33.5511 176.404 33.4442 176.445C27.4314 171.021 22.072 164.881 17.4989 158.16C17.7859 158.149 18.0727 158.098 18.33 157.92C18.45 157.82 18.64 157.75 18.85 157.69C19.11 157.61 19.42 157.51 19.69 157.32L20.89 156.52C21.15 156.35 21.35 156.14 21.52 155.95L21.5241 155.946C21.6726 155.787 21.8114 155.639 21.96 155.55C22.11 155.46 22.3 155.38 22.51 155.31C22.76 155.22 23.03 155.12 23.29 154.95C23.69 154.69 23.82 154.21 23.92 153.83L24.04 153.42C24.1099 153.39 24.3497 153.39 24.4898 153.39C24.8098 153.39 25.22 153.39 25.58 153.19C25.8401 153.041 26.0398 152.841 26.2192 152.661C26.2329 152.647 26.2465 152.634 26.26 152.62C26.2767 152.603 26.2934 152.587 26.3099 152.57C26.4414 152.437 26.5667 152.311 26.7 152.24L27.34 151.91L27.98 151.59C28.34 151.39 28.54 151.03 28.7 150.74C28.77 150.61 28.89 150.4 28.95 150.36C29.02 150.33 29.25 150.34 29.39 150.36L29.4158 150.362C29.7506 150.381 30.1491 150.405 30.5 150.21C30.67 150.12 30.87 150.06 31.09 150L31.1356 149.986C31.3814 149.911 31.634 149.833 31.86 149.72C32.0428 149.629 32.214 149.514 32.3868 149.398C32.4409 149.362 32.4952 149.326 32.55 149.29C32.5949 149.26 32.6393 149.229 32.6836 149.199C32.8168 149.107 32.9499 149.015 33.1 148.94C33.33 148.82 33.57 148.72 33.81 148.62L34.42 148.35C34.6678 148.23 34.8718 148.052 35.0569 147.891C35.0885 147.863 35.1194 147.836 35.15 147.81C35.31 147.66 35.46 147.52 35.6 147.46C35.7299 147.4 35.9398 147.37 36.1497 147.34L36.1881 147.334C36.4481 147.296 36.734 147.254 37.02 147.13C37.32 146.99 37.56 146.79 37.77 146.6C37.93 146.46 38.08 146.33 38.23 146.27C38.5358 146.132 38.7638 145.926 38.9715 145.738L38.98 145.73C38.9991 145.713 39.0181 145.697 39.0369 145.68C39.1753 145.558 39.3031 145.445 39.4 145.41C39.47 145.4 39.7 145.46 39.84 145.5L39.8623 145.506C40.1987 145.595 40.6189 145.707 41.02 145.55C41.2917 145.447 41.5195 145.291 41.7282 145.149L41.77 145.12C41.95 144.99 42.13 144.87 42.28 144.81C42.525 144.715 42.7624 144.601 42.99 144.47C43.032 144.449 43.0735 144.428 43.1159 144.406C43.2755 144.323 43.4472 144.235 43.7 144.14C43.7743 144.094 43.9693 144.125 44.1489 144.154C44.1627 144.156 44.1764 144.158 44.19 144.16C44.49 144.21 44.84 144.26 45.19 144.14C45.48 144.04 45.73 143.87 45.95 143.72C46.1299 143.6 46.31 143.48 46.47 143.43L47.19 143.16L47.82 142.92C48.1889 142.807 48.4504 142.532 48.6638 142.308C48.676 142.295 48.6881 142.283 48.7 142.27L48.99 141.97C49.07 141.97 49.29 142.07 49.42 142.14L49.4331 142.146C49.7812 142.305 50.2256 142.508 50.67 142.38C51.1009 142.256 51.3575 141.893 51.5717 141.59L51.6 141.55L51.84 141.22C51.95 141.19 52.15 141.21 52.35 141.24L52.3837 141.244C52.6846 141.283 53.013 141.326 53.36 141.22C53.44 141.2 53.67 141.25 53.83 141.29C54.15 141.37 54.51 141.45 54.89 141.35C55.4 141.22 55.64 140.71 55.84 140.27L56.02 139.92L56.33 140.12L56.3461 140.131C56.7321 140.388 57.167 140.678 57.67 140.55C58.1565 140.421 58.4064 139.967 58.6253 139.569L58.63 139.56C58.71 139.42 58.83 139.19 58.81 139.17C58.868 139.153 59.0428 139.206 59.1807 139.247C59.2091 139.255 59.236 139.263 59.26 139.27L59.2929 139.28C59.6145 139.378 59.9732 139.487 60.36 139.39C60.69 139.31 60.97 139.13 61.21 138.97C61.39 138.85 61.56 138.74 61.7 138.71C61.93 138.66 62.16 138.59 62.39 138.51L63.09 138.32L63.8 138.19L64.53 138.06C64.61 138.06 64.83 138.14 64.96 138.2C65.28 138.33 65.67 138.48 66.08 138.4C66.2599 138.363 66.4399 138.342 66.6198 138.321C66.6799 138.314 66.7399 138.308 66.8 138.3L67.52 138.2C67.92 138.12 68.22 137.86 68.46 137.65C68.4811 137.633 68.5047 137.613 68.5297 137.592C68.6349 137.504 68.7634 137.396 68.82 137.38C69.15 137.32 69.43 137.18 69.68 137.05C69.87 136.95 70.05 136.86 70.2 136.84L71.63 136.57C71.8049 136.537 71.9868 136.538 72.1699 136.54C72.2066 136.54 72.2433 136.54 72.28 136.54C72.56 136.54 72.82 136.54 73.08 136.5C73.3525 136.455 73.6203 136.385 73.88 136.29C73.9095 136.281 73.9392 136.272 73.9691 136.263C74.1419 136.21 74.3209 136.156 74.5 136.13C74.6579 136.108 74.8214 136.102 74.9864 136.096C75.0408 136.094 75.0954 136.093 75.15 136.09C75.43 136.09 75.7 136.08 75.97 136.04C76.1378 136.016 76.3121 136.018 76.4876 136.019C76.5317 136.02 76.5758 136.02 76.62 136.02C76.8934 136.033 77.1675 136.027 77.44 136C77.5076 135.985 77.6429 136.032 77.7738 136.078C77.8172 136.093 77.8601 136.108 77.9 136.12L77.9395 136.134C78.2389 136.241 78.5669 136.358 78.95 136.3C79.36 136.24 79.67 135.98 79.92 135.77C80.03 135.68 80.23 135.52 80.28 135.51C80.3443 135.51 80.4925 135.581 80.6157 135.64C80.6458 135.655 80.6744 135.668 80.7 135.68L80.7214 135.69C81.0274 135.839 81.3996 136.019 81.81 135.97C82.1512 135.923 82.4385 135.767 82.689 135.632C82.7028 135.625 82.7164 135.617 82.73 135.61C82.9 135.51 83.08 135.41 83.2 135.4C83.35 135.38 83.55 135.41 83.76 135.45C84.04 135.5 84.35 135.55 84.68 135.51L85.41 135.4L86.29 135.27L86.49 135.25L86.64 135.11C86.8175 134.941 86.9556 134.836 87.0754 134.744C87.0905 134.733 87.1054 134.721 87.12 134.71L87.1449 134.691C87.3949 134.499 87.6215 134.325 87.97 133.86C88.33 133.38 88.35 132.99 88.36 132.7L88.3608 132.681C88.3701 132.475 88.3741 132.385 88.51 132.22C88.7299 131.933 88.8425 131.745 88.9385 131.585C88.956 131.556 88.973 131.528 88.99 131.5C89.09 131.33 89.19 131.17 89.43 130.86C89.5692 130.681 89.6886 130.611 89.857 130.512L89.86 130.51C90.2774 130.303 90.597 129.94 90.75 129.5L91.1 128.57L90.11 128.67C89.98 128.68 89.69 128.59 89.48 128.52C89.11 128.4 88.73 128.28 88.35 128.31C87.8528 128.36 87.5238 128.746 87.235 129.084L87.23 129.09L86.92 129.44C86.8936 129.419 86.8087 129.387 86.7139 129.351C86.629 129.318 86.5361 129.283 86.47 129.25L86.4555 129.243C86.1289 129.074 85.7534 128.881 85.31 128.93C84.87 128.98 84.54 129.27 84.26 129.52L83.91 129.81C83.83 129.79 83.61 129.64 83.48 129.55L83.4658 129.54C83.1092 129.293 82.7037 129.011 82.23 129.07C81.8511 129.119 81.5383 129.309 81.2641 129.475L81.24 129.49C81.07 129.6 80.88 129.72 80.76 129.73C80.44 129.77 80.15 129.86 79.88 129.96C79.68 130.03 79.47 130.1 79.27 130.13C79.11 130.15 78.9 130.12 78.68 130.08L78.6327 130.073C78.3652 130.035 78.0704 129.992 77.74 130.03C77.659 130.039 77.481 129.967 77.3369 129.909C77.3208 129.902 77.3051 129.896 77.29 129.89C77.2738 129.884 77.2575 129.877 77.2409 129.871C76.9403 129.754 76.5786 129.613 76.19 129.67C75.81 129.73 75.51 129.92 75.25 130.09C75.08 130.2 74.9099 130.31 74.79 130.33C74.5 130.37 74.22 130.46 73.94 130.56C73.74 130.63 73.54 130.69 73.35 130.73C72.973 130.785 72.6805 131.001 72.4338 131.183C72.4122 131.199 72.3909 131.215 72.37 131.23L72.01 131.49C71.93 131.47 71.72 131.33 71.6 131.24L71.595 131.237C71.246 130.997 70.8276 130.71 70.33 130.79C69.91 130.86 69.59 131.15 69.34 131.38C69.23 131.48 69.04 131.65 68.97 131.67C68.8017 131.702 68.6269 131.708 68.4509 131.715C68.4073 131.716 68.3636 131.718 68.32 131.72L67.49 131.79C67.13 131.86 66.83 132.05 66.57 132.22L66.5446 132.236C66.3822 132.342 66.2135 132.451 66.09 132.47C65.9458 132.499 65.7554 132.482 65.5455 132.462L65.52 132.46C65.24 132.43 64.91 132.4 64.58 132.47C64.3649 132.505 64.1478 132.525 63.93 132.53C63.65 132.54 63.37 132.56 63.1 132.62C62.7599 132.686 62.4823 132.868 62.2335 133.032C62.2189 133.041 62.2044 133.051 62.19 133.06L62.1616 133.079C61.9931 133.191 61.8431 133.292 61.72 133.32C61.6668 133.343 61.5213 133.285 61.3931 133.234C61.3525 133.218 61.3136 133.202 61.28 133.19C60.96 133.07 60.55 132.92 60.13 133.01C59.8115 133.085 59.5457 133.239 59.2996 133.381C59.283 133.391 59.2664 133.401 59.25 133.41C59.07 133.52 58.89 133.63 58.76 133.66C58.68 133.68 58.4402 133.6 58.2902 133.55C57.9502 133.44 57.57 133.32 57.16 133.42C56.93 133.48 56.7 133.52 56.47 133.56L55.7 133.72C55.31 133.82 55.03 134.08 54.78 134.32C54.66 134.44 54.48 134.6 54.4 134.62C53.99 134.73 53.7 135.03 53.46 135.28C53.439 135.301 53.4155 135.325 53.3905 135.351C53.2965 135.449 53.1832 135.566 53.12 135.59C52.98 135.63 52.77 135.62 52.56 135.61C52.27 135.59 51.94 135.58 51.61 135.68C51.43 135.73 51.22 135.75 50.99 135.76L50.9817 135.761C50.7042 135.78 50.4171 135.801 50.13 135.89C49.85 135.97 49.57 136.09 49.31 136.21L48.74 136.45C48.67 136.47 48.43 136.41 48.28 136.37L48.2664 136.367C47.9391 136.287 47.5445 136.192 47.15 136.31C46.8251 136.409 46.5816 136.615 46.3608 136.801C46.3369 136.821 46.3134 136.841 46.29 136.86L46.2796 136.869C46.1326 136.996 45.9774 137.131 45.87 137.17C45.471 137.3 45.2014 137.618 44.9817 137.878L44.98 137.88C44.9646 137.897 44.9477 137.916 44.93 137.936C44.8326 138.045 44.7076 138.185 44.64 138.21C44.4974 138.26 44.3268 138.283 44.1457 138.306C44.1108 138.311 44.0755 138.315 44.04 138.32L44.0039 138.324C43.7434 138.353 43.4576 138.384 43.19 138.48C43.1 138.48 42.88 138.41 42.74 138.36C42.38 138.24 41.93 138.09 41.49 138.25C41.1915 138.359 40.9326 138.528 40.7035 138.678L40.7 138.68C40.6664 138.701 40.6335 138.722 40.6011 138.743C40.45 138.841 40.31 138.931 40.17 138.98C39.7949 139.115 39.5401 139.407 39.3344 139.642L39.31 139.67C39.2868 139.695 39.263 139.722 39.2388 139.749C39.1378 139.861 39.0326 139.978 38.96 140.01C38.82 140.07 38.61 140.09 38.39 140.11L38.3521 140.114C38.0813 140.143 37.7761 140.175 37.48 140.29C37.2256 140.395 37.0097 140.531 36.7985 140.664C36.7689 140.683 36.7394 140.702 36.71 140.72L36.6739 140.743C36.5146 140.847 36.3466 140.956 36.17 141.03C35.84 141.17 35.59 141.39 35.37 141.59L34.97 141.91C34.9191 141.925 34.7786 141.892 34.648 141.861C34.5988 141.849 34.551 141.838 34.51 141.83L34.4818 141.823C34.1168 141.734 33.6694 141.625 33.26 141.82C32.91 141.99 32.68 142.28 32.48 142.54L32.4723 142.55C32.3636 142.688 32.2279 142.861 32.14 142.9C31.99 142.97 31.78 143.02 31.57 143.07L31.5598 143.072C31.2919 143.132 30.9765 143.202 30.7 143.35L29.96 143.77L29.41 144.09C29.27 144.16 29.07 144.2 28.86 144.24C28.57 144.29 28.24 144.36 27.94 144.52C27.71 144.64 27.49 144.78 27.27 144.92L26.67 145.28C26.37 145.44 26.14 145.67 25.94 145.88C25.79 146.03 25.64 146.18 25.5 146.26C25.21 146.42 24.98 146.64 24.78 146.84L24.35 147.21C24.17 147.31 23.98 147.4 23.78 147.48L23 147.87C22.77 148.01 22.56 148.19 22.35 148.38C22.3312 148.396 22.3125 148.413 22.2937 148.43C22.152 148.555 22.0066 148.683 21.83 148.78C21.7384 148.838 21.5777 148.869 21.4111 148.901C21.3774 148.907 21.3436 148.913 21.31 148.92C21.01 148.97 20.67 149.03 20.36 149.22L19.81 149.54L19.07 149.98L18.51 150.32L17.81 150.76C17.49 150.97 17.3 151.28 17.14 151.56L16.89 151.95C16.81 151.97 16.56 151.93 16.41 151.9L16.3928 151.897C15.9762 151.828 15.4744 151.744 15.07 152.03C14.65 152.33 14.57 152.85 14.51 153.31C14.5048 153.336 14.5023 153.365 14.4997 153.395C14.4976 153.419 14.4955 153.443 14.4919 153.468C5.29391 138.206 0 120.309 0 101.17C0 83.8319 4.34456 67.5126 12.0004 53.2491L9.53997 58.1601C9.54997 58.1801 9.56997 58.2001 9.57997 58.2101C9.65997 58.4001 9.76997 58.5801 9.87997 58.7501C9.97997 58.9101 10.08 59.0701 10.14 59.2301L10.49 60.3401C10.55 60.5801 10.67 60.7901 10.78 60.9801C10.7938 61.0063 10.8077 61.032 10.8213 61.0572C10.896 61.1958 10.963 61.3201 10.98 61.4301C11.0291 61.7152 11.0396 62.0198 11.0495 62.3056L11.05 62.3201L11.06 62.5301C11.06 62.6185 11.0052 62.754 10.951 62.8879C10.9439 62.9054 10.9369 62.9228 10.93 62.9401C10.9239 62.9545 10.9177 62.9691 10.9114 62.9839C10.8352 63.1636 10.7485 63.3683 10.73 63.5901C10.72 63.6901 10.64 63.8201 10.55 63.9601C10.5411 63.9751 10.5321 63.9904 10.5229 64.0058C10.4292 64.1641 10.3246 64.3405 10.27 64.5501C10.1968 64.8246 10.2575 65.0824 10.3144 65.3234C10.3196 65.3458 10.3249 65.368 10.33 65.3901C10.36 65.4901 10.4 65.6701 10.4 65.7201C10.3657 65.7971 10.2655 65.8962 10.162 65.9985C10.1446 66.0156 10.1272 66.0328 10.11 66.0501C9.95997 66.1901 9.79997 66.3501 9.66997 66.5601C9.62997 66.6301 9.49997 66.7101 9.36997 66.7901C9.18997 66.9001 8.98997 67.0301 8.82997 67.2301C8.71484 67.3644 8.57209 67.4803 8.41939 67.6043L8.39997 67.6201L7.96997 67.9901C7.67997 68.2701 7.65997 68.6801 7.64997 69.0501C7.6486 69.1603 7.64192 69.2704 7.62997 69.3801C7.52997 69.3701 7.38997 69.3401 7.29997 69.3201C7.28441 69.3168 7.2688 69.3135 7.25315 69.3102C6.88648 69.2324 6.49523 69.1495 6.14997 69.3701C5.87997 69.5501 5.72997 69.8201 5.59997 70.0601C5.53997 70.1801 5.43997 70.3601 5.37997 70.3901C5.29997 70.4301 5.10997 70.4401 4.94997 70.4401C4.91997 70.4401 4.88747 70.4426 4.85497 70.4451C4.82247 70.4476 4.78997 70.4501 4.75997 70.4501L3.13997 76.1201L3.42997 76.0401C3.46997 76.0501 3.64997 76.0801 3.78997 76.1001C4.04997 76.1501 4.37997 76.2001 4.69997 76.0901C4.98624 75.9914 5.19455 75.8049 5.38262 75.6366L5.38997 75.6301C5.40805 75.6148 5.42594 75.5995 5.44361 75.5844C5.55297 75.4908 5.65388 75.4045 5.73997 75.3701C5.79997 75.3401 5.99997 75.3601 6.12997 75.3801L6.15901 75.3831C6.44126 75.4125 6.75062 75.4447 7.05997 75.2901C7.41997 75.1101 7.55997 74.7101 7.66997 74.3901C7.67638 74.3708 7.68356 74.3498 7.69102 74.328C7.7301 74.2135 7.77677 74.0769 7.75997 74.0601C7.8086 74.052 7.9492 74.0767 8.06463 74.097C8.09162 74.1018 8.11723 74.1063 8.13997 74.1101L8.15843 74.1134C8.48517 74.1729 8.88628 74.246 9.21997 74.0301C9.5282 73.8278 9.64159 73.4864 9.73888 73.1934L9.74997 73.1601C9.75856 73.1365 9.76807 73.1091 9.7781 73.0803C9.81481 72.9749 9.85856 72.8493 9.88997 72.8101C9.96995 72.7501 10.1199 72.7001 10.2699 72.6501L10.2884 72.6439C10.5242 72.5654 10.7958 72.475 11.02 72.2801C11.1 72.2101 11.25 72.1501 11.4 72.0901L11.4117 72.0854C11.6587 71.9866 11.9329 71.877 12.12 71.6801C12.2085 71.6004 12.3126 71.5286 12.4255 71.4508C12.4402 71.4406 12.455 71.4304 12.47 71.4201C12.7 71.2601 12.96 71.0701 13.16 70.8301C13.4296 70.493 13.3469 70.0355 13.2779 69.6538C13.2752 69.6391 13.2726 69.6245 13.27 69.6101L13.19 69.2301C13.23 69.1701 13.39 69.0801 13.52 69.0101L13.5311 69.0038C13.7791 68.865 14.0825 68.6952 14.25 68.3701C14.41 68.0601 14.41 67.7501 14.41 67.4601L14.42 67.0801C14.47 67.0301 14.66 66.9201 14.78 66.8601L14.7963 66.8517C15.1237 66.6831 15.5318 66.473 15.64 66.0501C15.71 65.7801 15.75 65.4701 15.78 65.1701L15.84 64.7201C15.8964 64.3625 15.7226 64.0403 15.5769 63.7702C15.5678 63.7533 15.5588 63.7366 15.55 63.7201C15.48 63.6101 15.38 63.4201 15.37 63.3401C15.38 63.0201 15.29 62.7501 15.2 62.5101C15.14 62.3501 15.09 62.2001 15.08 62.1201C15.1 62.0501 15.24 61.8901 15.33 61.7901L15.3464 61.7702C15.5834 61.4841 15.8686 61.1398 15.81 60.7001C15.77 60.4401 15.69 60.1901 15.6 59.9601L15.46 59.5201C15.3705 59.1123 15.0041 58.8925 14.705 58.7131L14.7 58.7101L14.42 58.5401C14.41 58.4801 14.46 58.3001 14.49 58.2001C14.57 57.9201 14.66 57.5801 14.54 57.2401L14.2 56.4301L14.07 56.1301C14.01 56.0001 13.96 55.8601 13.91 55.7201L13.6 55.0001C13.5688 54.9378 13.5559 54.8269 13.5422 54.71C13.5383 54.6769 13.5344 54.6432 13.53 54.6101C13.51 54.3401 13.48 54.0401 13.32 53.7801C13.11 53.4101 12.68 53.3301 12.3 53.2601C12.208 53.2387 12.115 53.222 12.0213 53.2102C17.346 43.3002 24.2696 34.3836 32.4452 26.8086C32.6362 26.9056 32.8401 26.9536 33.025 26.9971L33.08 27.0101L33.1679 27.0298C33.3433 27.0689 33.4752 27.0984 33.57 27.1501L34.14 27.4401L34.66 27.7001C34.71 27.7301 34.81 27.9101 34.87 28.0201C35.01 28.2801 35.18 28.5701 35.48 28.7301C35.58 28.7801 35.69 28.9101 35.7999 29.04C35.9599 29.23 36.15 29.4501 36.42 29.5901C36.6231 29.6897 36.8338 29.7732 37.05 29.8401L37.56 30.0401L37.93 30.2301L38.65 30.5901C38.9604 30.7356 39.2802 30.7023 39.5638 30.6728L39.59 30.6701C39.6134 30.6681 39.6403 30.6654 39.6688 30.6625C39.7862 30.6506 39.9317 30.6359 39.98 30.6601C40.181 30.7562 40.3974 30.8065 40.5889 30.8511L40.67 30.8701C40.85 30.9101 41.02 30.9501 41.15 31.0101L41.28 31.3601C41.41 31.7001 41.56 32.0901 41.93 32.2601C42.29 32.4201 42.67 32.2901 43 32.1701L43.033 32.159C43.1537 32.1185 43.3252 32.0609 43.38 32.0701C43.38 32.0901 43.47 32.2601 43.53 32.3701L43.5412 32.3911C43.689 32.6673 43.8689 33.0036 44.22 33.1401C44.3484 33.19 44.4717 33.2501 44.5935 33.3095C44.6425 33.3334 44.6912 33.3571 44.74 33.3801C44.93 33.4801 45.13 33.5701 45.33 33.6501C45.5033 33.7243 45.697 33.7714 45.8943 33.8193C45.9361 33.8294 45.9781 33.8396 46.02 33.8501L46.52 33.9901C46.6887 34.0543 46.8574 34.0992 47.0313 34.1455C47.0594 34.153 47.0877 34.1606 47.1162 34.1682C47.1307 34.1721 47.1453 34.1761 47.16 34.1801L47.69 34.3301C47.99 34.4401 48.29 34.4201 48.55 34.4001C48.5777 34.3983 48.6058 34.3963 48.6337 34.3943C48.7665 34.3846 48.8956 34.3753 48.97 34.4001C49.1141 34.4481 49.2455 34.5154 49.3743 34.5814C49.4061 34.5977 49.4383 34.6142 49.47 34.6301C49.67 34.7401 49.87 34.8401 50.08 34.9101C50.19 34.9501 50.32 35.0501 50.46 35.1601C50.6634 35.332 50.893 35.4703 51.14 35.5701C51.3249 35.6373 51.5169 35.6763 51.716 35.7167C51.7537 35.7244 51.7917 35.7321 51.83 35.7401C52 35.7701 52.17 35.8001 52.34 35.8601C52.5653 35.9322 52.7906 35.9312 52.9939 35.9303L53.06 35.9301C53.28 35.9201 53.46 35.9201 53.63 35.9901C53.76 36.0301 53.89 36.1401 54.02 36.2501C54.22 36.4201 54.44 36.6001 54.73 36.6901C54.958 36.7602 55.1783 36.7689 55.3774 36.7767C55.4054 36.7778 55.4329 36.7788 55.46 36.7801C55.4937 36.7819 55.5271 36.7835 55.56 36.785C55.7026 36.7915 55.8362 36.7976 55.95 36.8301C56.17 36.8901 56.4 36.9201 56.63 36.9501L56.6485 36.9522C56.813 36.9716 56.9861 36.9919 57.15 37.0401C57.26 37.0701 57.3999 37.1701 57.5399 37.27C57.7399 37.41 57.97 37.5701 58.25 37.6401C58.5511 37.7178 58.8334 37.6634 59.0876 37.6144L59.11 37.6101L59.1434 37.6033C59.2859 37.5746 59.4458 37.5423 59.52 37.5701C59.62 37.6001 59.75 37.6901 59.89 37.7901L59.9207 37.8106C60.1224 37.9454 60.344 38.0935 60.62 38.1601C60.72 38.1801 60.86 38.2801 60.99 38.3801C61.19 38.5301 61.42 38.6901 61.72 38.7601C62.08 38.8401 62.42 38.7001 62.69 38.5801C62.8 38.5301 62.98 38.4601 63.04 38.4601C63.3 38.5101 63.54 38.5101 63.76 38.5101C63.94 38.5101 64.12 38.5101 64.26 38.5401C64.38 38.5701 64.53 38.6501 64.68 38.7301L64.7396 38.7615C64.9335 38.8638 65.1453 38.9757 65.39 39.0301L66.57 39.2901C66.65 39.3101 66.8 39.4201 66.91 39.5101L66.9271 39.5239C67.133 39.6908 67.3686 39.8817 67.68 39.9401C67.8184 39.9645 67.9502 40.0155 68.0808 40.0659C68.1106 40.0774 68.1403 40.0889 68.17 40.1001C68.2038 40.1124 68.2375 40.1249 68.2714 40.1374L68.2736 40.1382C68.4593 40.2071 68.6461 40.2763 68.84 40.3101C69.24 40.3901 69.59 40.1501 69.89 39.9301C69.99 39.8601 70.17 39.7401 70.23 39.7201C70.23 39.7262 70.2414 39.7401 70.2573 39.7592C70.2671 39.771 70.2785 39.7848 70.29 39.8001C70.285 39.8051 70.2825 39.8101 70.28 39.8151C70.2789 39.8172 70.2778 39.8194 70.2765 39.8216C70.2748 39.8244 70.2728 39.8272 70.27 39.8301L69.94 40.4701L70.65 40.5601C70.78 40.5801 71 40.6701 71.19 40.7601L71.2326 40.7791C71.4894 40.8935 71.7547 41.0116 72.02 41.0401C72.2291 41.0667 72.4393 41.0834 72.65 41.0901L73.22 41.1401C73.5137 41.1792 73.7787 41.1129 74.015 41.0538L74.03 41.0501C74.18 41.0401 74.32 41.0101 74.45 40.9801C74.63 41.0001 74.79 40.9801 74.95 40.9601C75.0437 41.0142 75.1339 41.0743 75.22 41.1401C75.44 41.3101 75.7 41.5001 76.03 41.5501C76.21 41.5701 76.38 41.5701 76.54 41.5601C76.62 41.6001 76.71 41.6201 76.81 41.6401C77.02 41.6701 77.22 41.6201 77.4 41.5501C77.6607 41.5501 77.9122 41.4661 78.1182 41.3973L78.32 41.3301C78.3499 41.3375 78.3812 41.3436 78.4134 41.3499C78.4672 41.3603 78.5237 41.3713 78.58 41.3901L78.81 41.4401L78.89 41.4901C79.11 41.6401 79.37 41.8101 79.69 41.8501C79.937 41.8657 80.185 41.8556 80.43 41.8201L80.65 41.8001L80.81 41.9001C81.04 42.0601 81.29 42.2301 81.62 42.2701C81.96 42.3001 82.25 42.1701 82.51 42.0401C82.57 42.0101 82.65 41.9801 82.73 41.9501C82.88 42.0201 83.04 42.0801 83.21 42.1101L83.2207 42.1178C83.4387 42.2765 83.7055 42.4706 84.04 42.5001C84.2599 42.5201 84.4899 42.5101 84.7199 42.5001L84.7297 42.4995C84.9061 42.4897 85.0732 42.4804 85.25 42.5001C85.53 42.5301 85.79 42.4801 86.02 42.4301L86.0544 42.4236C86.2014 42.3959 86.3386 42.3701 86.45 42.3701C86.5937 42.4755 86.7627 42.5411 86.94 42.5601C87.0513 42.5686 87.1773 42.6139 87.3179 42.6643L87.39 42.6901C87.6 42.7701 87.84 42.8601 88.1 42.8801H88.14C88.4 42.9001 88.65 42.8601 88.87 42.8201L88.8935 42.8161C89.0648 42.7875 89.2265 42.7605 89.37 42.7701C89.46 42.7801 89.55 42.7601 89.63 42.7401C89.76 42.8101 89.91 42.8701 90.08 42.8801C90.2108 42.8866 90.3374 42.9017 90.4653 42.917C90.5327 42.925 90.601 42.9332 90.67 42.9401L91.28 43.0001L92.1 43.0401L92.5 43.0601C92.5313 43.0601 92.5627 43.0573 92.5926 43.0547C92.62 43.0523 92.6461 43.0501 92.67 43.0501C92.7721 43.1023 92.8852 43.1297 93 43.1301C93.32 43.1401 93.6 43.0101 93.85 42.8901L93.98 42.8301C93.9838 42.8339 93.9876 42.8363 93.9909 42.8383C93.9961 42.8415 94 42.8439 94 42.8501C94.23 43.0601 94.52 43.3201 94.9 43.3401C95.21 43.3501 95.48 43.2501 95.72 43.1501L95.7396 43.1422C95.8845 43.0842 96.0434 43.0205 96.12 43.0301C96.2 43.0301 96.36 43.1301 96.48 43.2101C96.71 43.3501 96.98 43.5101 97.31 43.5201C97.67 43.5401 97.93 43.3301 98.17 43.1001H98.25L99.07 43.1301L99.69 43.1201L100.25 43.1101C100.45 43.2901 100.68 43.4501 100.98 43.4601C101.146 43.4692 101.311 43.4995 101.47 43.5501L101.53 43.5638C101.733 43.6105 101.953 43.661 102.19 43.6701H102.23C102.484 43.6701 102.728 43.6034 102.944 43.5444L102.96 43.5401C103.13 43.4901 103.29 43.4501 103.42 43.4501C103.786 43.4501 104.077 43.2187 104.312 43.032L104.34 43.0101C104.344 43.0062 104.348 43.0039 104.351 43.0019C104.356 42.9986 104.36 42.9962 104.36 42.9901C104.59 43.0601 104.84 43.1301 105.12 43.1301C105.298 43.1318 105.475 43.1486 105.65 43.1801L106.33 43.2401C106.4 43.2401 106.47 43.2301 106.53 43.2101C106.68 43.2901 106.84 43.3501 107.02 43.3501C107.31 43.3401 107.6 43.2401 107.84 43.1301C107.93 43.0901 108.02 43.0501 108.11 43.0301C108.3 43.1301 108.51 43.2101 108.75 43.2001C108.832 43.2001 108.905 43.1753 108.985 43.1483L109.01 43.1401C109.16 43.1701 109.31 43.1901 109.47 43.1901C109.603 43.1806 109.763 43.2163 109.934 43.2542L109.96 43.2601L110.013 43.2698C110.22 43.3077 110.451 43.3501 110.69 43.3501C111.003 43.3403 111.268 43.1966 111.504 43.0686L111.52 43.0601L111.547 43.0456C111.671 42.9783 111.816 42.9001 111.9 42.9001C111.99 42.9001 112.14 42.9701 112.27 43.0401L112.297 43.0527C112.532 43.1604 112.812 43.2893 113.13 43.2701C113.268 43.2609 113.423 43.2855 113.595 43.3129L113.64 43.3201L113.722 43.3315C113.919 43.3591 114.131 43.3888 114.35 43.3801C114.678 43.3602 114.946 43.1923 115.185 43.0431L115.19 43.0401C115.31 42.9601 115.47 42.8601 115.53 42.8601C115.637 42.8511 115.769 42.8903 115.917 42.9345L115.97 42.9501C116.2 43.0201 116.47 43.1001 116.77 43.0901C116.99 43.0701 117.21 43.0301 117.43 42.9901C117.61 42.9501 117.79 42.9201 117.97 42.9001L118.59 42.8401L119.17 42.7801C119.45 42.7601 119.68 42.6101 119.87 42.4501L120.52 42.4201L120.4 42.1401C120.46 42.183 120.52 42.2334 120.574 42.2784L120.6 42.3001C120.88 42.5401 121.2 42.8101 121.61 42.7601C121.802 42.7434 121.993 42.692 122.185 42.6406L122.221 42.6311C122.247 42.624 122.274 42.617 122.3 42.6101L122.342 42.5977C122.496 42.552 122.644 42.5084 122.8 42.4901C123.105 42.4624 123.341 42.3068 123.557 42.1651L123.61 42.1301C123.73 42.0501 123.88 41.9501 123.97 41.9401L125.17 41.7801C125.431 41.7521 125.657 41.6546 125.857 41.5686L125.9 41.5501C126.06 41.4801 126.22 41.4101 126.34 41.3901C126.48 41.3701 126.66 41.3901 126.84 41.4101L126.907 41.4164C127.109 41.4354 127.326 41.456 127.56 41.4201C127.609 41.4201 127.737 41.4863 127.837 41.5379L127.862 41.5505C127.875 41.5576 127.888 41.5642 127.9 41.5701C128.16 41.7101 128.49 41.8801 128.85 41.8301C129.134 41.7922 129.364 41.6557 129.575 41.5309L129.61 41.5101C129.75 41.4201 129.9 41.3401 130 41.3201C130.265 41.2847 130.483 41.1635 130.682 41.053C130.708 41.0384 130.734 41.024 130.76 41.0101L130.815 40.9808C130.944 40.9114 131.062 40.8476 131.15 40.8301C131.23 40.8101 131.4 40.8601 131.55 40.9101L131.589 40.9212C131.83 40.9891 132.107 41.0669 132.41 41.0101C132.693 40.9612 132.929 40.8266 133.135 40.7086L133.15 40.7001C133.3 40.6101 133.44 40.5301 133.56 40.5101C133.73 40.4801 133.91 40.4701 134.09 40.4601L134.77 40.4001C134.908 40.3705 135.075 40.3798 135.252 40.3896L135.26 40.3901C135.49 40.4001 135.74 40.4101 136 40.3601C136.3 40.3001 136.54 40.1301 136.75 39.9801C136.772 39.9659 136.794 39.9515 136.816 39.9371C136.934 39.86 137.05 39.7838 137.16 39.7501C137.321 39.7026 137.492 39.7182 137.697 39.737L137.779 39.7446C137.987 39.764 138.218 39.7856 138.45 39.7301C138.62 39.6901 138.8 39.6701 138.97 39.6601C139.21 39.6401 139.45 39.6101 139.67 39.5501C139.949 39.4804 140.178 39.3314 140.377 39.2018L140.38 39.2001C140.398 39.1894 140.415 39.1787 140.433 39.1681L140.462 39.1502C140.578 39.0787 140.682 39.0145 140.78 38.9901C140.995 38.9283 141.206 38.8515 141.41 38.7601C141.441 38.7472 141.473 38.7339 141.504 38.7206C141.643 38.6619 141.783 38.6027 141.93 38.5701C142.02 38.5501 142.19 38.5701 142.35 38.6001L142.372 38.6035C142.627 38.6428 142.919 38.6878 143.21 38.6101C143.388 38.5638 143.568 38.5271 143.75 38.5001L144.4 38.3701C144.554 38.3218 144.727 38.3015 144.892 38.2822L144.91 38.2801C145.15 38.2501 145.39 38.2101 145.61 38.1401C145.82 38.0801 146.02 38.0001 146.22 37.9201L146.76 37.7201C147.127 37.6109 147.347 37.2752 147.516 37.016L147.52 37.0101L147.69 36.7201C147.754 36.7201 147.917 36.7948 148.029 36.8459L148.06 36.8601L148.068 36.8637C148.386 37.0028 148.743 37.159 149.11 37.0401C149.495 36.9117 149.675 36.5396 149.834 36.2126L150 35.8701C150.113 35.8298 150.245 35.809 150.386 35.7868C150.417 35.7819 150.448 35.7769 150.48 35.7717L150.49 35.7701L150.519 35.7661C150.731 35.7373 150.961 35.7061 151.2 35.6201C151.26 35.6001 151.47 35.6401 151.59 35.6701C151.88 35.7301 152.2 35.7901 152.53 35.6701L153.27 35.3701L153.66 35.2101C153.83 35.1401 154 35.1001 154.18 35.0601C154.226 35.0476 154.272 35.0355 154.319 35.0234C154.495 34.9775 154.672 34.9313 154.83 34.8601C155.106 34.7555 155.3 34.5607 155.473 34.3871L155.5 34.3601C155.62 34.2401 155.74 34.1201 155.85 34.0801C156.17 33.9401 156.36 33.6701 156.52 33.4201L156.547 33.3817C156.617 33.2799 156.716 33.1377 156.76 33.1201L157.89 32.6601C158 32.6101 158.16 32.5901 158.34 32.5701L158.365 32.5669C158.599 32.5378 158.859 32.5055 159.1 32.3801C159.151 32.363 159.305 32.3897 159.423 32.4103L159.48 32.4201L159.503 32.424C159.789 32.4735 160.148 32.5357 160.47 32.3701C160.75 32.2301 160.94 31.9901 161.1 31.7801L161.136 31.7333C161.224 31.6181 161.31 31.5053 161.38 31.4701C161.44 31.4401 161.64 31.4501 161.77 31.4601L161.811 31.4615C162.09 31.4716 162.394 31.4825 162.68 31.3301C163.02 31.1501 163.17 30.7801 163.29 30.4801C163.296 30.4645 163.302 30.4474 163.309 30.4294C163.315 30.4126 163.322 30.3951 163.329 30.3774C163.367 30.2792 163.407 30.1746 163.4 30.1601C163.46 30.1501 163.67 30.1901 163.79 30.2201L163.799 30.2219C164.117 30.2916 164.513 30.3783 164.85 30.1801C165.199 29.9808 165.309 29.5831 165.409 29.2241L165.41 29.2201L165.5 28.8701C165.56 28.8401 165.76 28.8501 165.89 28.8601C166.19 28.8801 166.52 28.8901 166.82 28.7101C166.906 28.6553 167.022 28.6251 167.155 28.5906C167.192 28.581 167.231 28.571 167.27 28.5601L167.326 28.5454C167.542 28.4898 167.779 28.4287 167.99 28.3001C168.337 28.0918 168.448 27.6968 168.538 27.3782L168.54 27.3701L168.64 27.0301C168.78 26.9401 168.92 26.8601 169.07 26.7901L165.49 23.6301C165.488 23.6324 165.485 23.6354 165.483 23.6384C165.475 23.6484 165.465 23.6601 165.45 23.6601C165.26 23.7801 165.09 23.9301 164.93 24.0901C164.807 24.2123 164.673 24.3228 164.53 24.4201C164.483 24.4516 164.355 24.4583 164.234 24.4646C164.202 24.4663 164.17 24.4679 164.14 24.4701L164.134 24.4703C163.866 24.4802 163.568 24.4912 163.29 24.6501C163.1 24.7655 162.923 24.8995 162.76 25.0501C162.726 25.0769 162.694 25.1037 162.662 25.13L162.661 25.131C162.55 25.2222 162.446 25.3082 162.33 25.3701C162.261 25.4094 162.096 25.4197 161.938 25.4296L161.93 25.4301L161.866 25.435C161.631 25.4527 161.367 25.4727 161.12 25.6101C160.801 25.779 160.667 26.1063 160.552 26.3856L160.53 26.4401C160.49 26.5501 160.42 26.7301 160.39 26.7701C160.237 26.8464 160.076 26.9067 159.91 26.9501C159.7 27.0127 159.496 27.093 159.3 27.1901C159.24 27.2001 159.05 27.1601 158.94 27.1301L158.925 27.1266C158.618 27.0572 158.244 26.9729 157.91 27.1401L156.85 27.6501C156.521 27.8094 156.352 28.1371 156.212 28.4065L156.21 28.4101C156.16 28.5101 156.07 28.6801 156.04 28.7101L155.37 29.0101L154.96 29.1901C154.773 29.2702 154.602 29.3821 154.425 29.4974L154.36 29.5401C154.22 29.6401 154.08 29.7401 153.92 29.8101C153.816 29.8582 153.679 29.887 153.536 29.9172C153.501 29.9246 153.466 29.9322 153.43 29.9401L153.393 29.947C153.193 29.9849 152.977 30.0258 152.77 30.1201C152.67 30.1601 152.5 30.1701 152.33 30.1701L152.265 30.1726C152.043 30.181 151.805 30.1899 151.55 30.2901C151.28 30.4001 151.08 30.5801 150.91 30.7401C150.79 30.8601 150.67 30.9601 150.57 31.0001C150.419 31.0567 150.259 31.0867 150.107 31.1151L150.08 31.1201C149.85 31.1601 149.62 31.2001 149.4 31.2801C149.15 31.3727 148.96 31.5426 148.79 31.6943L148.75 31.7301L148.745 31.7344C148.627 31.8432 148.499 31.9605 148.4 31.9901C148.267 32.04 148.127 32.0622 147.98 32.0855C147.95 32.0903 147.92 32.095 147.89 32.1001C147.66 32.1401 147.44 32.1801 147.25 32.2501C147.19 32.2501 147.01 32.1901 146.9 32.1501L146.879 32.143C146.593 32.0441 146.242 31.9229 145.91 32.0401L144.78 32.3901C144.38 32.5201 144.2 32.9001 144.04 33.2501L143.89 33.5501C143.81 33.5201 143.68 33.4501 143.6 33.4001C143.29 33.2301 142.93 33.0401 142.54 33.1501C142.412 33.1876 142.285 33.2082 142.157 33.2288C142.115 33.2357 142.072 33.2426 142.03 33.2501L141.37 33.3701C141.14 33.4401 140.93 33.5501 140.75 33.6501C140.59 33.7401 140.43 33.8201 140.29 33.8601C140.078 33.9252 139.871 34.0054 139.67 34.1001C139.66 34.1043 139.651 34.1086 139.641 34.1129C139.623 34.1206 139.606 34.1285 139.588 34.1363C139.455 34.1961 139.319 34.2569 139.17 34.2901C139.1 34.3076 138.961 34.2791 138.827 34.2516L138.712 34.2282C138.475 34.1801 138.207 34.1255 137.93 34.1901C137.683 34.245 137.477 34.3588 137.291 34.4621L137.24 34.4901C137.09 34.5801 136.94 34.6601 136.82 34.6901C136.47 34.7701 136.24 35.0201 136.04 35.2501C135.96 35.3401 135.82 35.4901 135.76 35.5101L135.16 35.6401L134.58 35.7601C134.523 35.7696 134.348 35.7156 134.219 35.6759L134.2 35.6701C133.93 35.5801 133.63 35.4801 133.3 35.5501C133 35.6101 132.76 35.7701 132.55 35.9101C132.527 35.9246 132.505 35.9394 132.482 35.954L132.481 35.9549C132.365 36.0306 132.257 36.1017 132.19 36.1101C131.961 36.1535 131.737 36.217 131.52 36.3001L131.476 36.3157C131.322 36.3703 131.174 36.4227 131.01 36.4501C130.874 36.474 130.739 36.4725 130.598 36.4709C130.562 36.4705 130.526 36.4701 130.49 36.4701C130.25 36.4701 130.02 36.4701 129.79 36.5101C129.576 36.5472 129.38 36.6188 129.177 36.6929L129.13 36.7101C128.95 36.7801 128.78 36.8401 128.63 36.8601C128.494 36.8841 128.352 36.8825 128.208 36.8809C128.172 36.8805 128.136 36.8801 128.1 36.8801L127.41 36.9101C127.33 36.9201 127.16 36.8601 127.02 36.8101C126.76 36.7201 126.47 36.6201 126.15 36.6701C125.827 36.7191 125.58 36.9122 125.354 37.0893L125.34 37.1001L125.322 37.1143C125.222 37.1946 125.077 37.3106 125.03 37.3201C124.97 37.3201 124.78 37.2401 124.67 37.1901C124.42 37.0701 124.11 36.9301 123.77 36.9701C123.47 37.0101 123.22 37.1501 123.01 37.2701L122.981 37.2869C122.849 37.3622 122.712 37.4408 122.61 37.4501L122.03 37.5001L121.41 37.5601C121.183 37.5862 120.972 37.658 120.782 37.7223C120.763 37.729 120.743 37.7355 120.724 37.7419L120.7 37.7501L120.651 37.7676C120.499 37.8214 120.356 37.872 120.23 37.8901C120.16 37.9001 119.98 37.8101 119.86 37.7501C119.61 37.6301 119.32 37.5001 118.99 37.5201C118.65 37.5501 118.37 37.7501 118.15 37.9101C118.132 37.9228 118.111 37.9375 118.09 37.9531C117.992 38.0231 117.871 38.1101 117.83 38.1101C117.77 38.1001 117.6 38.0001 117.5 37.9301C117.25 37.7701 116.93 37.5701 116.57 37.6001C116.354 37.6221 116.141 37.6589 115.93 37.7101C115.75 37.7501 115.57 37.7901 115.37 37.8001C115.268 37.8079 115.16 37.8342 115.055 37.8597C115.027 37.8667 114.998 37.8736 114.97 37.8801C114.913 37.845 114.86 37.8048 114.81 37.7601L114.777 37.7365C114.534 37.5607 114.244 37.3509 113.88 37.3701C113.66 37.3701 113.43 37.4001 113.2 37.4301L112.68 37.4801C112.42 37.4801 112.19 37.6101 112 37.7501C111.92 37.7301 111.84 37.7201 111.75 37.7201C111.41 37.7401 111.14 37.9201 110.9 38.0901C110.895 38.0951 110.887 38.1001 110.88 38.1051C110.872 38.1101 110.865 38.1151 110.86 38.1201L110.29 38.1001C110.05 38.1001 109.83 38.1801 109.64 38.2601C109.595 38.2601 109.55 38.2576 109.505 38.2551C109.46 38.2526 109.415 38.2501 109.37 38.2501C109.179 38.2501 109.006 38.2318 108.826 38.2128L108.8 38.2101L108.16 38.1701C108.02 38.1701 107.89 38.2101 107.77 38.2601C107.62 38.2601 107.48 38.2501 107.33 38.2301L106.67 38.1901C106.63 38.1801 106.46 38.0701 106.36 38.0001C106.12 37.8301 105.81 37.6301 105.45 37.6301L104.25 37.6201C103.98 37.6201 103.76 37.7501 103.58 37.9101L103.34 37.8901C103.11 37.8901 102.91 37.9901 102.74 38.1301C102.5 37.8801 102.23 37.6101 101.84 37.6101C101.619 37.6101 101.398 37.6469 101.169 37.6853L101.14 37.6901C100.97 37.7201 100.8 37.7501 100.63 37.7501C100.362 37.7501 100.121 37.8235 99.899 37.8912L99.87 37.9001C99.845 37.9051 99.8225 37.9126 99.8 37.9201C99.7876 37.9242 99.7752 37.9283 99.7623 37.9321C99.7519 37.9351 99.7412 37.9378 99.73 37.9401H99.72C99.59 37.9401 99.47 37.9701 99.35 38.0101C99.11 38.0201 98.89 38.0701 98.69 38.1201C98.51 38.1701 98.35 38.2101 98.21 38.2001C97.9614 38.1912 97.7285 38.2454 97.5254 38.2926L97.45 38.3101C97.4173 38.3178 97.385 38.3258 97.3532 38.3337C97.2196 38.3671 97.095 38.3981 96.99 38.3901C96.9614 38.3829 96.8716 38.3095 96.7898 38.2426C96.7571 38.2158 96.7257 38.1901 96.7 38.1701C96.47 37.9701 96.16 37.7301 95.8 37.7101C95.5211 37.7005 95.2884 37.8018 95.0665 37.8985L95.04 37.9101C95.015 37.9051 94.9925 37.8976 94.97 37.8901C94.9475 37.8826 94.925 37.8751 94.9 37.8701C94.64 37.8601 94.39 37.9801 94.18 38.1101C94.05 38.1301 93.93 38.1601 93.82 38.1901C93.65 38.2301 93.48 38.2701 93.36 38.2701C93.24 38.2701 93.09 38.2001 92.94 38.1301C92.72 38.0301 92.47 37.9201 92.18 37.9001C92.12 37.9101 91.94 37.7901 91.83 37.7101C91.6 37.5601 91.33 37.3901 91 37.3601C90.7731 37.3516 90.5459 37.3583 90.32 37.3801L89.79 37.4001C89.765 37.4001 89.7375 37.4026 89.71 37.4051C89.6825 37.4076 89.655 37.4101 89.63 37.4101C89.62 37.4101 89.61 37.4101 89.59 37.4001C89.36 37.3401 89.13 37.2801 88.9 37.2601C88.62 37.2401 88.39 37.3601 88.19 37.5201C87.98 37.2701 87.74 37.0401 87.4 37.0101C87.17 36.9901 86.94 37.0001 86.71 37.0201C86.366 37.0505 86.0195 37.0131 85.69 36.9101C85.48 36.8401 85.25 36.7701 85 36.7501C84.5842 36.7105 84.2664 36.9942 83.9885 37.2425L83.98 37.2501L83.74 37.4401H83.59C83.557 37.4181 83.521 37.39 83.4836 37.3609C83.453 37.3371 83.4215 37.3126 83.39 37.2901C83.16 37.1201 82.9 36.9301 82.57 36.9001C82.3571 36.8818 82.1433 36.8785 81.93 36.8901C81.8825 36.8901 81.835 36.8907 81.7875 36.8913C81.645 36.8932 81.5025 36.8951 81.36 36.8801L80.72 36.8401L80.15 36.8101C80.1028 36.8006 79.9579 36.6846 79.8577 36.6043L79.84 36.5901C79.62 36.4101 79.36 36.2001 79.02 36.1501C78.78 36.1201 78.56 36.2001 78.36 36.3101C78.28 36.2801 78.19 36.2501 78.1 36.2401C77.9471 36.2221 77.7942 36.1879 77.634 36.1521L77.58 36.1401L76.91 36.0201C76.66 35.9901 76.45 36.0601 76.25 36.1601L76.06 36.1001C75.84 36.0201 75.63 35.9501 75.41 35.9201C75.2226 35.8912 75.0384 35.8443 74.86 35.7801C74.8137 35.7668 74.7679 35.7531 74.7223 35.7395C74.5609 35.6912 74.4015 35.6435 74.23 35.6201C73.87 35.5601 73.54 35.7301 73.27 35.8701C73.2362 35.8854 73.1969 35.9054 73.1567 35.9258C73.066 35.972 72.9716 36.0201 72.93 36.0201C72.88 36.0101 72.72 35.8701 72.63 35.7901L72.6152 35.7774C72.4082 35.5999 72.162 35.3887 71.83 35.3301C71.5213 35.2818 71.2312 35.3825 70.9777 35.4705L70.95 35.4801C70.82 35.5301 70.63 35.6001 70.57 35.5801C70.44 35.5501 70.28 35.4801 70.12 35.4001C69.92 35.3001 69.69 35.1901 69.42 35.1501L68.81 35.0401L68.23 34.9401C68.1456 34.9232 68.0329 34.8494 67.9156 34.7728C67.8939 34.7585 67.8719 34.7442 67.85 34.7301L67.8226 34.7118C67.6199 34.5764 67.397 34.4275 67.11 34.3701C66.785 34.3032 66.4784 34.4098 66.2249 34.4979L66.19 34.5101C66.08 34.5501 65.88 34.6201 65.82 34.6101C65.77 34.6001 65.62 34.4601 65.53 34.3701C65.33 34.1701 65.09 33.9501 64.76 33.8701C64.45 33.7901 64.14 33.8701 63.88 33.9401C63.74 33.9801 63.56 34.0201 63.48 34.0001C63.26 33.9501 63.03 33.9301 62.79 33.9101C62.61 33.9001 62.43 33.8901 62.26 33.8501C62.11 33.8101 61.95 33.7401 61.78 33.6501C61.57 33.5501 61.36 33.4501 61.14 33.3901C60.91 33.3301 60.68 33.3101 60.44 33.2901L60.4328 33.2896C60.2649 33.2798 60.0877 33.2694 59.93 33.2201C59.7912 33.1874 59.659 33.1281 59.5281 33.0693C59.4988 33.0561 59.4693 33.0429 59.44 33.0301C59.4044 33.0148 59.3688 32.9993 59.3331 32.9837C59.1584 32.9074 58.9808 32.8299 58.79 32.7801C58.7231 32.7634 58.6213 32.6838 58.5138 32.5997C58.4927 32.5832 58.4713 32.5665 58.45 32.5501L58.4348 32.5379C58.2388 32.381 58.0224 32.2078 57.73 32.1201C57.4168 32.032 57.1133 32.0971 56.8381 32.1562L56.82 32.1601L56.7671 32.1725C56.6431 32.2018 56.4922 32.2375 56.44 32.2201L55.87 32.0501L55.28 31.8701C55.2288 31.8445 55.134 31.7244 55.0576 31.6275L55.02 31.5801C54.84 31.3401 54.63 31.0701 54.29 30.9601C54.17 30.9201 54.03 30.8301 53.89 30.7301L53.8574 30.7078C53.676 30.5833 53.4752 30.4455 53.23 30.3701C52.9528 30.2745 52.6757 30.3068 52.4248 30.336L52.39 30.3401C52.24 30.3601 52.07 30.3801 51.99 30.3501C51.8665 30.3065 51.7535 30.2471 51.6396 30.1871C51.5968 30.1646 51.5537 30.142 51.51 30.1201C51.31 30.0101 51.11 29.9001 50.91 29.8301C50.77 29.7801 50.62 29.6801 50.47 29.5801L50.465 29.5769C50.2961 29.4676 50.0977 29.3392 49.87 29.2501C49.6612 29.1749 49.4473 29.1148 49.23 29.0701L48.73 28.9301C48.36 28.7901 47.98 28.9501 47.66 29.0901L47.36 29.2101C47.3366 29.1634 47.3099 29.0963 47.2837 29.0306C47.265 28.9838 47.2466 28.9375 47.23 28.9001L47.2273 28.8929C47.0979 28.5445 46.9473 28.139 46.56 27.9801L45.46 27.5401C45.1318 27.3909 44.7641 27.489 44.465 27.5687L44.46 27.5701C44.3455 27.6031 44.2284 27.6265 44.11 27.6401C43.93 27.5601 43.71 27.4901 43.48 27.4401C43.31 27.4001 43.14 27.3501 42.99 27.2801C42.9012 27.2446 42.8046 27.1381 42.707 27.0307L42.67 26.9901C42.51 26.8101 42.32 26.6101 42.06 26.4801C41.85 26.3801 41.63 26.3201 41.4 26.2601C41.23 26.2201 41.07 26.1801 40.92 26.1001C40.8312 26.0606 40.7231 25.9435 40.6051 25.8156L40.6 25.8101C40.44 25.6301 40.26 25.4301 40 25.3001C39.74 25.1701 39.47 25.1401 39.24 25.1201C39.07 25.1001 38.9 25.0801 38.81 25.0301C38.6107 24.9257 38.4025 24.8663 38.2023 24.8093L38.17 24.8001C38.0045 24.7604 37.8436 24.7034 37.69 24.6301C37.54 24.5501 37.41 24.4401 37.28 24.3301C37.1 24.1801 36.92 24.0401 36.72 23.9301L36.33 23.7201L36.0891 23.591C53.5936 8.86574 76.1555 0 100.78 0C156.439 0 201.56 45.295 201.56 101.17C201.56 134.806 185.209 164.608 160.051 183.003C159.902 183.05 159.746 183.105 159.59 183.16L159.503 183.19C159.24 183.281 158.977 183.372 158.86 183.39C158.791 183.373 158.632 183.266 158.512 183.185L158.46 183.15L158.45 183.143C158.122 182.914 157.715 182.631 157.24 182.7C156.79 182.76 156.47 183.08 156.21 183.34C156.194 183.356 156.177 183.373 156.158 183.392C156.059 183.493 155.931 183.623 155.88 183.64C155.767 183.656 155.621 183.627 155.458 183.593C155.419 183.586 155.38 183.578 155.34 183.57L155.27 183.555C154.997 183.498 154.692 183.434 154.37 183.48C154.256 183.498 154.089 183.462 153.922 183.425L153.85 183.41C153.55 183.34 153.21 183.27 152.85 183.32L152.13 183.42L151.38 183.53C151.021 183.588 150.728 183.769 150.473 183.926L150.45 183.94C150.28 184.05 150.1 184.16 149.99 184.18C149.693 184.226 149.422 184.342 149.177 184.446L149.12 184.47C148.92 184.56 148.73 184.64 148.56 184.67C148.43 184.69 148.23 184.65 148.03 184.61L148.006 184.605C147.712 184.546 147.39 184.482 147.04 184.55C146.881 184.583 146.709 184.582 146.54 184.581C146.507 184.58 146.473 184.58 146.44 184.58C146.17 184.58 145.86 184.58 145.56 184.64C145.122 184.718 144.827 185.051 144.59 185.318L144.57 185.34C144.47 185.45 144.31 185.63 144.26 185.65C144.102 185.68 143.895 185.67 143.678 185.66L143.67 185.66L143.594 185.657C143.335 185.647 143.051 185.636 142.76 185.7C142.44 185.77 142.17 185.9 141.93 186.03C141.73 186.13 141.55 186.22 141.38 186.26L140.62 186.46L139.96 186.64C139.686 186.7 139.415 186.777 139.15 186.87L138.57 187.05C138.49 187.04 138.28 186.93 138.15 186.86C137.79 186.67 137.35 186.44 136.89 186.56C136.434 186.667 136.157 187.065 135.931 187.39L135.91 187.42L135.67 187.77C135.55 187.8 135.35 187.78 135.14 187.75C134.84 187.71 134.5 187.67 134.14 187.77C133.906 187.831 133.68 187.936 133.454 188.042L133.447 188.045L133.35 188.09C133.316 188.106 133.281 188.123 133.247 188.14C133.091 188.215 132.937 188.289 132.79 188.33C132.71 188.33 132.49 188.24 132.35 188.18C132 188.03 131.56 187.85 131.11 187.98C130.71 188.1 130.44 188.4 130.21 188.66L130.193 188.679C130.092 188.79 129.936 188.962 129.87 188.99L129.05 189.27L128.48 189.47C128.33 189.51 128.12 189.52 127.91 189.53L127.9 189.53C127.613 189.54 127.296 189.551 126.97 189.65L126.28 189.85L125.55 190.07C125.22 190.18 124.96 190.37 124.73 190.54C124.56 190.67 124.39 190.79 124.26 190.83C124.16 190.86 123.94 190.84 123.75 190.81L123.724 190.807C123.411 190.768 123.06 190.724 122.69 190.85C122.286 190.988 122.038 191.319 121.83 191.597L121.82 191.61C121.73 191.73 121.58 191.92 121.51 191.95C121.38 192 121.17 192 120.96 192C120.67 192 120.34 192 120.01 192.12C119.917 192.154 119.76 192.145 119.592 192.135L119.588 192.135C119.559 192.133 119.529 192.132 119.5 192.13L119.415 192.124C119.117 192.104 118.788 192.082 118.46 192.21C118.217 192.299 118.006 192.441 117.813 192.571L117.769 192.601L117.721 192.633L117.68 192.66C117.5 192.79 117.33 192.91 117.17 192.97L116.42 193.3L115.81 193.57C115.448 193.703 115.213 193.982 115.002 194.233L114.97 194.27L114.67 194.6C114.61 194.61 114.36 194.53 114.22 194.48C113.85 194.35 113.38 194.2 112.94 194.38C112.521 194.55 112.291 194.959 112.111 195.278L112.11 195.28C112.04 195.41 111.92 195.62 111.87 195.65C111.76 195.7 111.56 195.7 111.36 195.7C111.05 195.7 110.69 195.7 110.34 195.85C110.27 195.885 110.083 195.874 109.917 195.864L109.85 195.86C109.52 195.83 109.14 195.8 108.78 195.96C108.301 196.169 108.141 196.697 108.001 197.156L108 197.16L107.86 197.57C107.75 197.54 107.59 197.47 107.48 197.42C107.05 197.23 106.56 197.02 106.11 197.24C105.645 197.443 105.48 197.928 105.334 198.358L105.32 198.4L105.2 198.82C105.135 198.848 104.918 198.833 104.767 198.823L104.73 198.82C104.39 198.79 104 198.76 103.63 198.93C103.34 199.066 103.124 199.284 102.93 199.48L102.87 199.54C102.842 199.568 102.815 199.595 102.789 199.622L102.788 199.623C102.672 199.742 102.568 199.849 102.47 199.89L101.76 200.29L101.17 200.63L100.54 200.93L99.85 201.25C99.7949 201.274 99.6348 201.26 99.496 201.248L99.4459 201.244L99.4357 201.243C99.4197 201.242 99.4044 201.241 99.39 201.24L99.3364 201.235C98.9968 201.206 98.5913 201.17 98.24 201.36C97.95 201.51 97.65 201.76 97.36 202.01L97.05 202.27ZM179.86 41.0601L180.47 40.4801C180.65 40.3001 180.84 40.1301 181.06 40.1101L184.71 45.2501L184.62 45.3601C184.45 45.6001 184.27 45.8401 184.07 46.0401C183.98 46.1201 183.9 46.3301 183.83 46.5201L183.82 46.5464C183.702 46.8498 183.572 47.188 183.29 47.4601C182.98 47.7597 182.591 47.8598 182.241 47.9497L182.24 47.9501C182.204 47.9614 182.163 47.9732 182.121 47.9854C181.977 48.0272 181.816 48.0736 181.77 48.1201C181.54 48.36 181.254 48.5078 180.993 48.643L180.96 48.6601C180.76 48.7601 180.57 48.8601 180.46 48.9701C180.322 49.0991 180.214 49.2502 180.104 49.4045C180.086 49.4296 180.068 49.4549 180.05 49.4801C179.88 49.7201 179.7 49.9601 179.49 50.1701C179.4 50.2501 179.32 50.4601 179.25 50.6501L179.24 50.6765C179.122 50.9798 178.992 51.318 178.71 51.5901C178.33 51.9401 177.82 51.9401 177.37 51.9401C177.21 51.9401 176.95 51.9401 176.87 51.9701L176.8 52.3801L176.792 52.4151C176.714 52.7788 176.619 53.2201 176.28 53.5301C175.95 53.8401 175.5 53.9101 175.13 53.9601C174.98 53.9801 174.73 54.0201 174.67 54.0601L174.65 54.5001C174.63 54.9401 174.6 55.4801 174.21 55.8301C173.96 56.0501 173.68 56.2101 173.43 56.3401C173.411 56.3508 173.391 56.3614 173.372 56.3719L173.342 56.3881C173.173 56.4799 173.011 56.5677 172.9 56.6701C172.655 56.8773 172.392 57.0136 172.154 57.1373L172.11 57.1601L172.061 57.1856C171.869 57.2857 171.69 57.3794 171.57 57.4901L171.07 57.9901C170.886 58.199 170.689 58.3961 170.48 58.5801C170.42 58.6301 170.33 58.8801 170.28 59.0301L170.273 59.0484C170.155 59.3837 170.024 59.7551 169.71 60.0301C169.44 60.2501 169.14 60.3901 168.88 60.5101C168.67 60.6001 168.47 60.6901 168.35 60.8001L167.17 61.8001C166.925 62.0164 166.637 62.1443 166.378 62.2586L166.33 62.2801C166.13 62.3701 165.93 62.4601 165.81 62.5601C165.7 62.6401 165.6 62.83 165.5 63.0199L165.496 63.0273C165.347 63.3055 165.177 63.6221 164.89 63.8601C164.561 64.1488 164.104 64.1996 163.745 64.2395L163.74 64.2401L163.7 64.2454C163.549 64.2653 163.334 64.2935 163.27 64.3301C163.21 64.3801 163.12 64.6201 163.07 64.7701C162.95 65.1101 162.81 65.5001 162.47 65.7701C162.15 66.0301 161.74 66.1201 161.41 66.1801C161.381 66.1866 161.35 66.193 161.319 66.1996L161.318 66.1999C161.159 66.2338 160.988 66.2699 160.93 66.3201C160.71 66.5001 160.44 66.6501 160.18 66.7901L160.131 66.8159C159.956 66.9075 159.775 67.0022 159.62 67.1301L158.89 67.6101L158.83 67.646C158.652 67.7525 158.482 67.8542 158.32 67.9801C158.185 68.0851 158.067 68.207 157.949 68.3289C157.926 68.3524 157.903 68.376 157.88 68.3995C157.863 68.4164 157.847 68.4333 157.83 68.4501C157.63 68.6601 157.43 68.8601 157.2 69.0401C156.96 69.2201 156.7 69.3601 156.44 69.5001C156.24 69.6001 156.04 69.7101 155.86 69.8401L155.27 70.2901L154.65 70.7701C154.53 70.8557 154.425 70.9928 154.309 71.1435L154.308 71.1444C154.289 71.1693 154.27 71.1946 154.25 71.2201C154.08 71.4501 153.88 71.7101 153.6 71.9201C153.541 71.9619 153.462 72.1371 153.396 72.281L153.394 72.2848C153.382 72.3114 153.371 72.3368 153.36 72.3601L153.349 72.3847C153.212 72.6994 153.051 73.0665 152.72 73.3101L152.04 73.7501C151.994 73.7782 151.949 73.806 151.904 73.8336C151.739 73.9335 151.577 74.0326 151.42 74.1501C151.067 74.4049 150.628 74.4292 150.272 74.4489L150.25 74.4501L150.191 74.4536C150.035 74.4628 149.832 74.4747 149.77 74.5101L149.03 75.0101L148.49 75.3701L147.92 75.8101L147.27 76.3101C147.156 76.3959 147.041 76.5546 146.918 76.7253L146.9 76.7501C146.73 77.0001 146.52 77.2901 146.22 77.5001C145.86 77.7501 145.43 77.7801 145.08 77.8001C144.93 77.8101 144.67 77.8301 144.6 77.8701C144.591 78.0213 144.571 78.1718 144.54 78.3201C144.46 78.8001 144.37 79.3401 143.93 79.6301C143.48 79.9201 142.94 79.7901 142.47 79.6701C142.35 79.6401 142.18 79.6001 142.06 79.5801L141.99 80.0101C141.93 80.5101 141.85 81.0801 141.39 81.3801C141.036 81.6062 140.653 81.639 140.307 81.6686L140.29 81.6701C140.1 81.6801 139.87 81.7001 139.79 81.7501C139.45 81.9601 139.1 82.0201 138.78 82.0701C138.749 82.0759 138.719 82.0816 138.688 82.0871C138.511 82.1197 138.344 82.1503 138.25 82.2101C138.21 82.2501 138.12 82.4901 138.07 82.6301L138.047 82.6883C137.912 83.0384 137.748 83.4634 137.36 83.7001C136.941 83.9595 136.432 83.8705 136.033 83.8005L136.03 83.8001C135.88 83.7701 135.63 83.7301 135.55 83.7501C135.51 83.7738 135.427 83.916 135.35 84.0486C135.329 84.0839 135.309 84.1186 135.29 84.1501L135.28 84.166C135.103 84.462 134.904 84.7939 134.56 85.0101C134.35 85.1329 134.146 85.2664 133.95 85.4101L133.26 85.8601C133.13 85.94 132.98 86.09 132.82 86.2499C132.62 86.4599 132.38 86.7001 132.08 86.8701C131.747 87.066 131.385 87.0988 131.06 87.1282L131.04 87.1301L131.029 87.1311C130.822 87.1508 130.608 87.1711 130.51 87.2301C130.19 87.4101 129.84 87.4701 129.54 87.5201L129.456 87.5351C129.268 87.5684 129.095 87.599 128.99 87.6601C128.933 87.7009 128.849 87.8615 128.782 87.9898C128.767 88.0188 128.753 88.0461 128.74 88.0701L128.719 88.109C128.554 88.4219 128.354 88.7989 127.97 89.0101C127.62 89.2101 127.23 89.2301 126.89 89.2401C126.7 89.2401 126.48 89.2501 126.39 89.3001C126.25 89.3701 126.1 89.5301 125.95 89.6901C125.75 89.9001 125.51 90.1501 125.2 90.3201L123.8 91.0201C123.5 91.1701 123.18 91.2401 122.9 91.3001L122.813 91.3195C122.625 91.3613 122.449 91.4006 122.31 91.4701L121.72 91.8001L120.97 92.2101C120.902 92.2488 120.769 92.4659 120.688 92.5976L120.68 92.6101C120.48 92.9301 120.26 93.2801 119.87 93.4801C119.42 93.6901 118.96 93.5801 118.56 93.4801C118.41 93.4401 118.15 93.3901 118.08 93.4001C117.924 93.478 117.776 93.586 117.622 93.698L117.55 93.7501C117.31 93.9301 117.07 94.1001 116.8 94.2301C116.46 94.3901 116.1 94.4101 115.78 94.4201L115.773 94.4204C115.565 94.4303 115.349 94.4406 115.24 94.4901L115.05 94.8901L115.044 94.9039C114.875 95.2816 114.664 95.7525 114.2 95.9501C113.741 96.1496 113.252 95.9908 112.853 95.8609L112.85 95.8601C112.7 95.8101 112.45 95.7301 112.38 95.7401L111.77 96.0501L111.04 96.4101L110.43 96.7001L109.63 97.0701C109.503 97.1254 109.371 97.2184 109.227 97.3191C109.189 97.3457 109.15 97.3729 109.11 97.4001C108.88 97.5701 108.61 97.7601 108.3 97.8901C107.98 98.0201 107.65 98.0601 107.36 98.0901C107.13 98.1101 106.91 98.1401 106.76 98.2001C106.706 98.2271 106.595 98.4086 106.515 98.5393L106.49 98.5801L106.482 98.5933C106.273 98.9207 106.024 99.3123 105.59 99.4801C105.316 99.5896 105.026 99.6408 104.765 99.6869L104.69 99.7001C104.646 99.7089 104.601 99.7172 104.557 99.7256C104.398 99.7552 104.236 99.7855 104.08 99.8401C103.71 99.9701 103.35 99.9601 103.04 99.9501L103.03 99.9496C102.814 99.9398 102.618 99.9309 102.49 99.9801C102.361 100.028 102.226 100.116 102.078 100.211C102.043 100.233 102.007 100.257 101.97 100.28L101.949 100.294C101.714 100.451 101.441 100.633 101.12 100.74C101 100.79 100.84 100.93 100.68 101.07L100.662 101.085C100.426 101.292 100.151 101.533 99.8 101.65L99.04 101.89L98.33 102.12C97.96 102.24 97.6 102.22 97.28 102.2C97.08 102.18 96.87 102.17 96.74 102.21C96.37 102.32 96.02 102.3 95.71 102.28L95.7037 102.28C95.486 102.27 95.2787 102.26 95.15 102.3C95.094 102.324 94.9934 102.463 94.9093 102.579C94.8882 102.608 94.8681 102.636 94.85 102.66C94.63 102.97 94.35 103.36 93.91 103.5C93.4193 103.637 92.9576 103.419 92.5814 103.24L92.56 103.23C92.5372 103.22 92.5121 103.209 92.4856 103.197L92.4336 103.173C92.3083 103.115 92.1686 103.05 92.11 103.05C92.14 103.07 92.01 103.29 91.93 103.42L91.9282 103.423C91.7084 103.783 91.4286 104.24 90.94 104.38C90.5128 104.489 90.1053 104.381 89.7666 104.292L89.76 104.29C89.6 104.24 89.36 104.18 89.27 104.2C89.13 104.24 88.96 104.35 88.78 104.48L88.7668 104.489C88.5198 104.657 88.2337 104.852 87.88 104.94C87.4874 105.045 87.104 104.949 86.7913 104.87L86.75 104.86L86.6928 104.846C86.5317 104.808 86.3402 104.762 86.26 104.78L85.24 105.02L84.75 105.13C84.59 105.17 84.3901 105.27 84.1901 105.37C83.9401 105.5 83.65 105.64 83.32 105.72C83.13 105.76 82.92 105.85 82.7101 105.94L82.6186 105.979C82.3845 106.079 82.1328 106.187 81.85 106.24C81.5193 106.316 81.1975 106.284 80.9016 106.255L80.85 106.25C80.63 106.22 80.42 106.2 80.28 106.23C80.2007 106.248 80.0439 106.382 79.9188 106.489L79.87 106.53C79.61 106.77 79.31 107.03 78.89 107.12C78.5675 107.175 78.2706 107.154 77.999 107.135L77.93 107.13L77.9051 107.128C77.6848 107.109 77.4838 107.091 77.32 107.12C77.11 107.16 76.9 107.24 76.7 107.32C76.6568 107.335 76.6131 107.35 76.5688 107.366L76.5675 107.367C76.345 107.446 76.1063 107.53 75.84 107.58C75.41 107.64 75.04 107.51 74.71 107.39C74.54 107.32 74.31 107.24 74.22 107.26C74.1475 107.276 74.0231 107.364 73.8938 107.455C73.8626 107.476 73.8311 107.499 73.8 107.52C73.52 107.73 73.2 107.96 72.79 108.02C72.6616 108.038 72.4996 108.124 72.3271 108.215L72.28 108.24C72 108.39 71.68 108.56 71.3 108.61C70.86 108.67 70.48 108.48 70.14 108.31C70.1151 108.298 70.0864 108.283 70.0559 108.267C69.9142 108.193 69.7311 108.097 69.69 108.13C69.6091 108.139 69.4395 108.261 69.3043 108.358L69.26 108.39L69.2248 108.415C68.9532 108.61 68.6425 108.832 68.24 108.88C67.7471 108.939 67.332 108.658 66.9946 108.43L66.98 108.42C66.9628 108.409 66.9437 108.396 66.9235 108.382L66.9216 108.381C66.8008 108.299 66.6381 108.189 66.57 108.18C66.52 108.19 66.31 108.34 66.18 108.44C65.9 108.65 65.56 108.9 65.13 108.94C64.71 108.99 64.34 108.83 64.02 108.69C63.84 108.61 63.63 108.53 63.53 108.53C63.46 108.54 63.26 108.68 63.12 108.78C62.84 108.98 62.48 109.23 62.05 109.26C61.87 109.27 61.67 109.33 61.45 109.4L61.3736 109.422C61.1124 109.497 60.8195 109.582 60.51 109.6H58.96C58.57 109.63 58.21 109.48 57.91 109.35C57.73 109.27 57.51 109.18 57.42 109.19C57.33 109.19 57.12 109.33 56.99 109.42L56.9771 109.428C56.6894 109.617 56.3336 109.85 55.91 109.86C55.3293 109.831 54.9908 109.462 54.6561 109.098L54.64 109.08C54.57 109 54.45 108.87 54.36 108.79L54.08 109.1L54.077 109.104C53.7677 109.463 53.4083 109.88 52.88 109.89C52.5787 109.887 52.278 109.864 51.98 109.82C51.77 109.79 51.56 109.76 51.35 109.76C50.99 109.76 50.67 109.65 50.38 109.54C50.18 109.46 49.99 109.39 49.85 109.39C49.5196 109.39 49.2159 109.292 48.9474 109.205L48.9 109.19C48.8544 109.177 48.8098 109.164 48.7663 109.15C48.6094 109.103 48.4674 109.06 48.35 109.06C48.2815 109.07 48.0791 109.194 47.9486 109.275L47.94 109.28C47.65 109.47 47.28 109.7 46.85 109.7C46.48 109.7 46.16 109.58 45.87 109.47L45.8299 109.456C45.6448 109.391 45.4712 109.33 45.35 109.33C44.97 109.32 44.65 109.2 44.37 109.09L44.3325 109.075C44.1464 109 43.9712 108.93 43.84 108.93L43.05 108.9L42.33 108.87C42.2155 108.87 42.0545 108.917 41.8743 108.969L41.8 108.99C41.52 109.08 41.18 109.17 40.83 109.17L39.3 109.16L38.68 109.23C38.6339 109.236 38.5879 109.242 38.542 109.248C38.2784 109.284 38.0169 109.319 37.77 109.31C37.65 109.31 37.45 109.39 37.25 109.47C36.96 109.59 36.62 109.73 36.24 109.73C35.95 109.73 35.66 109.69 35.37 109.64C35.326 109.634 35.2821 109.628 35.2381 109.621C35.0621 109.596 34.886 109.57 34.71 109.57C34.22 109.57 33.84 109.24 33.53 108.97C33.42 108.87 33.23 108.7 33.15 108.68L32.41 108.72L31.57 108.76C31.31 108.76 31.03 108.73 30.76 108.69L30.7323 108.686C30.5224 108.658 30.3207 108.63 30.11 108.63L29.77 108.92C29.47 109.19 29.1 109.52 28.61 109.53C28.24 109.53 27.9 109.42 27.61 109.32L27.5436 109.298C27.36 109.236 27.194 109.18 27.06 109.18C26.92 109.18 26.72 109.26 26.52 109.34C26.24 109.46 25.91 109.59 25.54 109.6C25.0561 109.619 24.7163 109.35 24.4009 109.1L24.35 109.06C24.3421 109.054 24.3339 109.048 24.3255 109.042C24.3136 109.033 24.3011 109.023 24.2882 109.013C24.1701 108.923 24.0174 108.807 23.95 108.79C23.98 108.81 23.81 109.03 23.7 109.16C23.39 109.54 23.04 109.96 22.5 109.99C22.1146 110.009 21.7849 109.871 21.484 109.744L21.45 109.73C21.28 109.66 21.06 109.57 20.96 109.57C20.5709 109.608 20.2268 109.457 19.9192 109.322L19.87 109.3L19.8051 109.273C19.6515 109.209 19.4862 109.14 19.39 109.14C19.3208 109.149 19.1618 109.27 19.0425 109.36L18.99 109.4L18.9823 109.406C18.7037 109.625 18.3659 109.89 17.93 109.93C17.8022 109.948 17.6327 110.025 17.452 110.107L17.4 110.13C17.13 110.26 16.82 110.4 16.45 110.44C16.03 110.49 15.63 110.29 15.31 110.13C15.18 110.06 14.97 109.95 14.87 109.95L14.66 109.98L13.37 110.15C13.05 110.19 12.74 110.17 12.46 110.14L12.4346 110.138C12.2045 110.119 11.9939 110.101 11.83 110.13C11.71 110.15 11.53 110.27 11.36 110.39C11.09 110.58 10.78 110.78 10.4 110.85L9.67997 110.95C9.42191 110.976 9.16503 111.013 8.90997 111.06C8.5595 111.138 8.22799 111.074 7.92466 111.015L7.89997 111.01C7.68997 110.97 7.47997 110.93 7.35997 110.96L7.11997 111.32C6.89997 111.66 6.61997 112.09 6.13997 112.22L5.54997 112.36C5.25997 112.42 4.96997 112.49 4.68997 112.58C4.40249 112.666 4.11502 112.688 3.86274 112.708L3.82997 112.71C3.58997 112.72 3.36997 112.74 3.18997 112.8C2.78147 112.94 2.39282 112.851 2.0438 112.771L2.03997 112.77C1.87997 112.73 1.61997 112.67 1.53997 112.7C1.56997 112.71 1.46997 112.97 1.40997 113.12L1.39392 113.158C1.25836 113.478 1.10968 113.829 0.849971 114.06L0.219971 107.15C0.245233 107.137 0.268722 107.121 0.291932 107.105C0.323807 107.083 0.355275 107.062 0.389971 107.05C0.799971 106.91 1.21997 107 1.55997 107.08C1.70997 107.12 1.95997 107.17 2.02997 107.15C1.99997 107.14 2.10997 106.88 2.17997 106.72L2.18602 106.706C2.38463 106.249 2.61531 105.719 3.13997 105.57C3.57997 105.44 4.01997 105.6 4.36997 105.73C4.39555 105.739 4.42447 105.75 4.45508 105.761C4.592 105.813 4.76276 105.876 4.81997 105.86C5.18997 105.77 5.54997 105.82 5.86997 105.87C6.06997 105.9 6.26997 105.93 6.38997 105.9C6.57997 105.85 6.76997 105.76 6.94997 105.67L7.00067 105.647C7.24755 105.532 7.52126 105.406 7.82997 105.34L8.09997 104.98L8.10824 104.969C8.36634 104.621 8.66515 104.219 9.14997 104.13C9.68135 104.032 10.1159 104.388 10.5012 104.705L10.52 104.72L10.5377 104.735C10.6684 104.846 10.864 105.011 10.95 105.04C10.93 105.02 11.1 104.85 11.21 104.75L11.2149 104.745C11.474 104.496 11.7928 104.19 12.24 104.12C12.4 104.09 12.59 104.01 12.79 103.92L12.8318 103.901C13.0909 103.786 13.3779 103.658 13.71 103.62C14.0061 103.595 14.3038 103.595 14.6 103.62C14.6383 103.622 14.6762 103.624 14.714 103.626C14.8931 103.636 15.0665 103.645 15.24 103.62C15.6 103.58 15.92 103.64 16.21 103.7C16.43 103.75 16.63 103.79 16.79 103.77C16.92 103.76 17.11 103.67 17.3 103.58C17.58 103.44 17.9 103.29 18.27 103.26C18.76 103.24 19.16 103.51 19.48 103.75C19.6 103.84 19.8 103.98 19.88 104C19.8653 103.985 19.9579 103.88 20.0478 103.777C20.0612 103.762 20.0746 103.746 20.0876 103.731C20.1063 103.71 20.1241 103.689 20.14 103.67C20.43 103.35 20.79 102.96 21.3 102.93C21.5985 102.903 21.8971 102.966 22.1661 103.022L22.25 103.04C22.2922 103.048 22.3336 103.057 22.3743 103.065C22.5356 103.098 22.6842 103.128 22.82 103.12C23.0112 103.112 23.2023 103.076 23.3878 103.041C23.4254 103.034 23.4628 103.027 23.5 103.02C23.78 102.96 24.05 102.91 24.33 102.9C24.69 102.88 25.03 102.98 25.32 103.07C25.52 103.13 25.76 103.2 25.86 103.19C26.19 103.19 26.5 103.25 26.77 103.31C26.98 103.36 27.2 103.41 27.36 103.4C27.4265 103.392 27.5831 103.293 27.7087 103.215L27.7383 103.196L27.78 103.17C28.08 102.97 28.42 102.75 28.85 102.74C29.08 102.74 29.29 102.7 29.5 102.66C29.79 102.6 30.08 102.55 30.37 102.55C30.78 102.55 31.12 102.72 31.42 102.88L31.4638 102.902C31.6165 102.979 31.798 103.07 31.88 103.07C32.28 103.07 32.62 103.23 32.92 103.38L32.9712 103.404C33.1286 103.479 33.2999 103.56 33.39 103.56C33.561 103.56 33.759 103.515 33.967 103.468L34 103.46C34.28 103.4 34.6 103.34 34.93 103.33C35.1109 103.33 35.3099 103.294 35.5184 103.256L35.55 103.25C35.83 103.19 36.12 103.14 36.4 103.14H36.89C37.23 103.13 37.58 103.13 37.92 103.14C38.2 103.15 38.49 103.19 38.77 103.24C38.99 103.28 39.21 103.32 39.43 103.32L39.78 103.05C40.09 102.8 40.48 102.53 40.95 102.51C41.3 102.52 41.61 102.63 41.88 102.73C42.08 102.81 42.27 102.88 42.42 102.88C42.6242 102.878 42.828 102.861 43.03 102.83L43.1 102.823L43.1751 102.815C43.4167 102.788 43.6583 102.762 43.9 102.77L44.7 102.86C44.7424 102.866 44.7849 102.872 44.8274 102.878C45.0049 102.904 45.1847 102.93 45.37 102.93C45.84 102.94 46.2 103.21 46.49 103.43C46.6 103.52 46.8 103.66 46.87 103.68C47.04 103.68 47.25 103.64 47.47 103.59C47.73 103.53 48.02 103.47 48.33 103.47C48.83 103.48 49.32 103.48 49.81 103.48L50.12 103.2C50.42 102.93 50.8 102.6 51.29 102.6L52.76 102.59C53.2821 102.59 53.6043 102.894 53.8968 103.171L53.96 103.23L54.0061 103.272C54.115 103.372 54.2591 103.504 54.32 103.53L54.9 103.44C55.18 103.39 55.46 103.34 55.74 103.33C55.83 103.32 56.03 103.22 56.19 103.13L56.2497 103.099C56.5239 102.956 56.8266 102.799 57.19 102.78C57.4745 102.761 57.759 102.805 58.0094 102.844L58.05 102.85C58.2536 102.894 58.4617 102.914 58.67 102.91C59.08 102.9 59.44 103.06 59.73 103.2C59.7886 103.227 59.8675 103.254 59.9411 103.279C60.0307 103.31 60.1125 103.338 60.14 103.36C60.3613 103.336 60.5389 103.294 60.7123 103.252L60.7821 103.236C60.8046 103.23 60.8273 103.225 60.85 103.22C61.1399 103.15 61.43 103.08 61.72 103.06L63.25 102.96L63.59 102.67C63.87 102.41 64.22 102.09 64.69 102.04L66.21 101.89C66.68 101.85 67.08 102.11 67.42 102.34C67.4518 102.36 67.4884 102.383 67.5268 102.408C67.645 102.485 67.7796 102.573 67.84 102.58C68.09 102.55 68.37 102.56 68.65 102.57L68.6573 102.57C68.8946 102.58 69.1223 102.59 69.35 102.56L69.67 102.23C69.94 101.92 70.26 101.57 70.73 101.5C71.13 101.44 71.49 101.55 71.81 101.65L71.8457 101.661C72.0257 101.718 72.2162 101.779 72.31 101.76C72.485 101.735 72.66 101.675 72.835 101.616L72.8378 101.615C72.8534 101.609 72.8691 101.604 72.8848 101.599C72.9032 101.592 72.9216 101.586 72.94 101.58C73.2199 101.48 73.5 101.38 73.79 101.34C74.1891 101.272 74.5693 101.403 74.8844 101.511L74.91 101.52L74.9423 101.531C75.0912 101.581 75.2962 101.649 75.38 101.64C75.58 101.61 75.79 101.53 76.01 101.44C76.26 101.34 76.54 101.23 76.85 101.17C76.9826 101.151 77.16 101.042 77.3313 100.938L77.36 100.92C77.62 100.76 77.92 100.58 78.27 100.51C78.44 100.47 78.63 100.38 78.84 100.28L78.8466 100.277C79.0951 100.158 79.3829 100.019 79.71 99.9501C80.18 99.8601 80.6 100.05 80.94 100.21L80.9934 100.233C81.1307 100.293 81.3096 100.37 81.38 100.37L82.14 100.22L82.87 100.07L84.36 99.7101C84.4476 99.6926 84.5812 99.583 84.7205 99.4687L84.78 99.4201C85.03 99.2101 85.32 98.9701 85.71 98.8701C85.9944 98.7901 86.2788 98.7812 86.5351 98.7732L86.63 98.7701C86.648 98.7693 86.6659 98.7686 86.6838 98.7679C86.7019 98.7672 86.72 98.7665 86.7379 98.7658C86.9284 98.7588 87.1084 98.7522 87.26 98.7101L88 98.5601C88.0128 98.5575 88.0257 98.5549 88.0385 98.5524C88.054 98.5494 88.0694 98.5464 88.0849 98.5434L88.1789 98.5254C88.3687 98.4893 88.5573 98.4533 88.74 98.4001L88.98 98.0201L88.9819 98.017C89.2114 97.6477 89.4713 97.2297 89.95 97.0901C90.3 97.0001 90.63 97.0001 90.93 97.0101C91.15 97.0201 91.36 97.0201 91.51 96.9801C91.92 96.8501 92.35 96.9701 92.7 97.0801C92.7156 97.0842 92.7322 97.0888 92.7495 97.0937L92.7675 97.0988L92.8075 97.1103C92.9459 97.15 93.1052 97.1957 93.16 97.1801C93.1521 97.1564 93.2311 97.0024 93.2992 96.8697C93.3176 96.834 93.3351 96.7998 93.35 96.7701C93.56 96.3501 93.8 95.8801 94.3 95.7201C94.77 95.5701 95.24 95.7701 95.62 95.9401C95.76 96.0101 96 96.1101 96.08 96.1101C96.06 96.0901 96.19 95.8701 96.27 95.7401C96.48 95.3901 96.74 94.9601 97.2 94.8001C97.61 94.6601 98.02 94.7401 98.35 94.8101L98.4166 94.8221C98.5775 94.8513 98.77 94.8863 98.84 94.8601C98.9086 94.8343 99.0361 94.7056 99.1593 94.5811L99.22 94.5201C99.45 94.2801 99.71 94.0101 100.08 93.8701C100.52 93.7001 100.97 93.8301 101.33 93.9401C101.356 93.9476 101.386 93.9565 101.417 93.9659C101.551 94.0065 101.715 94.0563 101.78 94.0401C102.09 93.9201 102.43 93.9001 102.73 93.8901C102.96 93.8801 103.17 93.8701 103.31 93.8201L103.98 93.6001L104.76 93.3301C104.824 93.2979 104.928 93.1553 105.013 93.0384L105.042 92.9974C105.052 92.9842 105.061 92.9717 105.07 92.9601C105.27 92.6701 105.52 92.3201 105.93 92.1501C106.04 92.1101 106.19 91.9601 106.34 91.8101L106.369 91.7813C106.591 91.5587 106.835 91.3143 107.18 91.1801L107.95 90.9401C108.18 90.8801 108.4 90.8201 108.62 90.7301L109.44 90.3701L110.01 90.1101C110.397 89.9361 110.811 89.9957 111.155 90.045L111.19 90.0501L111.248 90.058C111.398 90.0787 111.598 90.1064 111.66 90.0801C111.924 89.9576 112.197 89.8972 112.453 89.8405L112.5 89.8301C112.74 89.7801 112.96 89.7301 113.13 89.6501L113.27 89.2201C113.42 88.7801 113.6 88.2801 114.07 88.0601C114.53 87.8401 115.03 88.0001 115.43 88.1301C115.58 88.1801 115.82 88.2601 115.91 88.2501L116.06 87.8701C116.22 87.5101 116.43 87.0601 116.87 86.8501L117.48 86.5001C117.71 86.3549 117.947 86.2215 118.19 86.1001L118.99 85.7901L119.043 85.7726C119.236 85.7082 119.437 85.6418 119.62 85.5501L120.38 85.2301C120.6 85.1501 120.82 85.0701 121.03 84.9601C121.38 84.7801 121.75 84.7601 122.07 84.7501L122.083 84.7494C122.279 84.7396 122.492 84.729 122.59 84.6801C122.774 84.5837 122.935 84.4644 123.099 84.3422L123.17 84.2901C123.4 84.1201 123.63 83.95 123.87 83.8201C124 83.7501 124.14 83.6001 124.29 83.4301L124.316 83.4017C124.519 83.1789 124.743 82.9331 125.05 82.7701L125.85 82.4101L125.925 82.3801C126.102 82.3098 126.284 82.2376 126.45 82.1501C126.72 82.0001 126.99 81.9101 127.26 81.8301C127.289 81.82 127.317 81.8103 127.346 81.8008L127.395 81.7842C127.572 81.7246 127.734 81.6702 127.87 81.5901C127.918 81.558 127.998 81.4036 128.064 81.2767C128.081 81.2454 128.096 81.2158 128.11 81.1901L128.121 81.1696C128.288 80.8445 128.478 80.4755 128.85 80.2601C129.291 80.0053 129.78 80.125 130.223 80.2334L130.25 80.2401C130.4 80.2801 130.66 80.3401 130.74 80.3301C130.713 80.3211 130.783 80.1251 130.834 79.984L130.85 79.9401L130.857 79.9228C130.995 79.5658 131.166 79.1261 131.56 78.8801C131.78 78.7501 131.97 78.6001 132.15 78.4501C132.35 78.2801 132.56 78.1101 132.79 77.9701C133.05 77.8201 133.32 77.7201 133.59 77.6201C133.82 77.5401 134.03 77.4601 134.2 77.3601C134.583 77.1246 135.033 77.149 135.399 77.1689L135.42 77.1701C135.58 77.1801 135.83 77.1901 135.9 77.1601L136.03 76.7601L136.045 76.7149C136.172 76.3428 136.326 75.8899 136.73 75.6401C136.998 75.481 137.287 75.3812 137.545 75.2916L137.55 75.2901L137.622 75.2639C137.816 75.1943 137.997 75.129 138.13 75.0401C138.25 74.9601 138.37 74.7801 138.48 74.6101L138.496 74.5855C138.662 74.3313 138.85 74.0435 139.16 73.8401C139.613 73.5543 140.135 73.6764 140.599 73.7853L140.62 73.7901C140.787 73.8336 140.958 73.8637 141.13 73.8801L141.43 73.4901C141.61 73.2501 141.82 72.9701 142.12 72.7701L142.64 72.3301C142.85 72.1401 143.07 71.9501 143.3 71.7901C143.437 71.6923 143.574 71.5372 143.72 71.3715L143.73 71.3601C143.92 71.1401 144.13 70.9001 144.41 70.7101C144.775 70.4572 145.211 70.4587 145.568 70.4599L145.64 70.4601C145.79 70.4701 146.04 70.4701 146.11 70.4401C146.22 70.3601 146.35 70.1901 146.48 70.0001L146.523 69.9429C146.69 69.718 146.873 69.4735 147.14 69.2801C147.26 69.1901 147.39 69.0201 147.52 68.8401C147.69 68.6001 147.9 68.3301 148.18 68.1301C148.447 67.9424 148.743 67.8327 149.01 67.7337L149.02 67.7301C149.05 67.7187 149.079 67.7076 149.109 67.6966C149.288 67.6298 149.459 67.5658 149.57 67.4801C149.7 67.3801 149.83 67.2101 149.96 67.0301L149.994 66.9842C150.155 66.7648 150.338 66.5163 150.6 66.3201L151.25 65.8701L151.85 65.4501L152.33 65.0001C152.53 64.7856 152.747 64.5882 152.98 64.4101C153.21 64.2401 153.47 64.1001 153.73 63.9701C153.93 63.8701 154.13 63.7701 154.3 63.6401C154.628 63.3799 155.039 63.3333 155.381 63.2944L155.42 63.2901L155.459 63.2849C155.61 63.265 155.825 63.2368 155.88 63.2001C155.96 63.1401 156.05 62.8901 156.1 62.7501L156.116 62.7105C156.241 62.39 156.383 62.0293 156.7 61.7701L157.36 61.2901C157.406 61.2581 157.451 61.2266 157.497 61.1953C157.65 61.0897 157.801 60.9857 157.94 60.8701C158.064 60.7651 158.188 60.6056 158.321 60.4348L158.34 60.4101C158.51 60.1801 158.7 59.9301 158.96 59.7201C159.297 59.4522 159.713 59.391 160.052 59.3413L160.06 59.3401C160.21 59.3201 160.47 59.2801 160.53 59.2301L160.59 58.7801C160.64 58.3501 160.71 57.8601 161.09 57.5401C161.321 57.3552 161.573 57.1975 161.84 57.0701C161.872 57.0525 161.904 57.0351 161.936 57.0179C162.102 56.9275 162.262 56.8409 162.38 56.7401C162.52 56.6201 162.65 56.4501 162.79 56.2601L162.809 56.2351C162.974 56.0213 163.159 55.7822 163.39 55.5801L163.58 55.4201L164.56 54.5901C164.811 54.3758 165.089 54.2484 165.336 54.1349L165.39 54.1101C165.411 54.0994 165.433 54.089 165.454 54.0787C165.478 54.0671 165.502 54.0558 165.525 54.0445C165.677 53.9723 165.817 53.9051 165.91 53.8201C166.25 53.5201 166.71 53.4701 167.08 53.4301C167.23 53.4201 167.47 53.3901 167.54 53.3501C167.68 53.2201 167.81 53.0501 167.94 52.8801C168.11 52.6501 168.3 52.4001 168.55 52.1901C168.77 52.001 169.008 51.8336 169.26 51.6901C169.46 51.5701 169.65 51.4501 169.79 51.3201L170.91 50.2901L170.96 49.8401C170.99 49.4201 171.03 48.9101 171.4 48.5701L171.93 48.0601L172.49 47.5201C172.803 47.2164 173.232 47.143 173.579 47.0837L173.6 47.0801C173.75 47.0601 174 47.0201 174.06 46.9701C174.127 46.9026 174.204 46.7052 174.272 46.5299L174.28 46.5101L174.282 46.504C174.402 46.1857 174.532 45.8383 174.83 45.5601C175.172 45.238 175.647 45.2017 176.032 45.1722L176.06 45.1701L176.123 45.1661C176.272 45.157 176.469 45.1449 176.53 45.1101C176.48 45.1101 176.47 44.8401 176.47 44.6801C176.46 44.2101 176.45 43.6701 176.82 43.3001C177.19 42.9301 177.73 42.9301 178.16 42.9301C178.32 42.9301 178.57 42.9301 178.65 42.9001C178.69 42.8501 178.77 42.6501 178.84 42.4501L178.86 42.4006C178.975 42.1122 179.105 41.7854 179.36 41.5301L179.86 41.0601ZM198.53 84.6501C198.72 84.4401 198.94 84.2001 199.27 84.1101C199.472 84.0615 199.668 84.0654 199.831 84.0686C199.869 84.0693 199.906 84.0701 199.94 84.0701C200 84.0701 200.05 84.0801 200.1 84.0801L200.85 89.3101C200.79 89.3401 200.73 89.3701 200.66 89.3901C200.3 89.4801 199.96 89.3401 199.67 89.2101C199.55 89.1601 199.35 89.0801 199.29 89.0801C199.24 89.1001 199.11 89.2601 199.03 89.3601C198.85 89.5801 198.65 89.8201 198.34 89.9501C198.05 90.0601 197.75 90.0501 197.49 90.0301C197.32 90.0201 197.13 90.0101 197.05 90.0501C196.994 90.078 196.895 90.227 196.817 90.3442L196.8 90.3701C196.66 90.6101 196.49 90.8701 196.2 91.0301C196.088 91.0906 195.975 91.196 195.856 91.3074C195.838 91.3249 195.819 91.3425 195.8 91.3601C195.781 91.3776 195.762 91.3957 195.743 91.414C195.607 91.5421 195.454 91.6864 195.27 91.8001L194.84 92.0501C194.64 92.1601 194.45 92.2701 194.26 92.4101C194.037 92.5774 193.779 92.641 193.551 92.6973C193.534 92.7016 193.517 92.7058 193.5 92.7101C193.34 92.7501 193.16 92.7901 193.09 92.8501C193.04 92.8901 192.98 93.0901 192.94 93.2201C192.87 93.4801 192.78 93.7801 192.55 94.0101C192.26 94.2907 191.857 94.2904 191.478 94.2901L191.44 94.2901C191.34 94.2901 191.2 94.2901 191.1 94.3001C191.11 94.4001 191.13 94.5401 191.15 94.6301L191.152 94.644C191.212 95.0103 191.277 95.4142 191.06 95.7401C190.958 95.8983 190.844 96.0487 190.72 96.1901C190.59 96.3501 190.47 96.5101 190.38 96.6701C190.26 96.8901 190.09 97.0601 189.94 97.2101C189.916 97.2368 189.891 97.2629 189.867 97.2883C189.791 97.3674 189.723 97.4395 189.7 97.5001C189.62 97.7301 189.49 97.9201 189.37 98.0901C189.356 98.112 189.342 98.1339 189.327 98.1557C189.251 98.2729 189.177 98.3857 189.16 98.4701C189.16 98.5201 189.24 98.6801 189.29 98.7801L189.309 98.817C189.424 99.0468 189.549 99.2959 189.53 99.5901C189.52 99.8301 189.45 100.03 189.38 100.22C189.32 100.38 189.27 100.52 189.28 100.62C189.308 100.843 189.267 101.058 189.228 101.256C189.226 101.271 189.223 101.285 189.22 101.3C189.19 101.46 189.16 101.63 189.18 101.73L189.23 101.93C189.239 101.966 189.248 102.003 189.257 102.04C189.319 102.29 189.384 102.555 189.48 102.79C189.53 102.91 189.64 103.05 189.77 103.19C189.91 103.35 190.07 103.54 190.18 103.76L190.75 104.77C190.828 104.899 190.935 105.014 191.046 105.133C191.064 105.152 191.082 105.171 191.1 105.19C191.25 105.34 191.39 105.49 191.51 105.66C191.55 105.725 191.656 105.783 191.769 105.845C191.796 105.86 191.823 105.875 191.85 105.89L191.886 105.91C192.087 106.025 192.311 106.152 192.49 106.36C192.62 106.5 192.73 106.67 192.84 106.84C192.852 106.857 192.863 106.875 192.875 106.893C192.964 107.027 193.055 107.165 193.17 107.28C193.426 107.546 193.459 107.899 193.489 108.215L193.49 108.23C193.5 108.35 193.52 108.55 193.55 108.61L194.02 108.97L194.48 109.33L194.91 109.75C195.05 109.9 195.19 110.04 195.34 110.16L195.69 110.14C196.02 110.11 196.39 110.08 196.7 110.3C196.92 110.46 197.08 110.67 197.21 110.85L197.224 110.87C197.329 111.012 197.424 111.143 197.52 111.2C197.6 111.25 197.76 111.29 197.93 111.32L197.958 111.326C198.19 111.374 198.44 111.426 198.68 111.57C198.998 111.753 199.13 112.103 199.238 112.388L199.25 112.42C199.29 112.54 199.36 112.72 199.4 112.77L199.94 112.73C200.29 112.7 200.62 112.68 200.9 112.77L200.58 115.3C200.559 115.322 200.54 115.346 200.523 115.368C200.508 115.388 200.494 115.406 200.48 115.42C200.38 115.54 200.35 115.58 200.34 115.71C200.35 115.71 200.42 115.8 200.47 115.87C200.47 115.89 200.48 115.9 200.49 115.91L200.09 118.45L199.93 118.37C199.66 118.24 199.42 117.98 199.2 117.73C199.07 117.58 198.9 117.39 198.81 117.34L197.75 116.78C197.533 116.662 197.355 116.495 197.197 116.346L197.19 116.34C197.162 116.314 197.135 116.288 197.108 116.263C197.012 116.171 196.924 116.087 196.83 116.04C196.75 116 196.59 115.98 196.43 115.96L196.41 115.958C196.155 115.928 195.873 115.896 195.62 115.74L195.1 115.36L194.66 115.04C194.413 114.884 194.266 114.645 194.143 114.445C194.132 114.426 194.121 114.408 194.11 114.39L194.102 114.377C194.034 114.26 193.957 114.128 193.89 114.08L193.55 114.11C193.22 114.15 192.82 114.19 192.5 113.95L191.89 113.44L191.57 113.16C191.37 112.999 191.225 112.801 191.091 112.619L191.07 112.59C191.05 112.564 191.031 112.538 191.011 112.513C190.934 112.41 190.86 112.312 190.78 112.24C190.527 112.006 190.444 111.687 190.376 111.422L190.37 111.4C190.35 111.29 190.3 111.1 190.26 111.06C190.24 111.07 190.03 111.08 189.9 111.08C189.51 111.1 189.08 111.11 188.79 110.79C188.578 110.569 188.496 110.301 188.419 110.05L188.41 110.02C188.397 109.985 188.386 109.949 188.374 109.913C188.339 109.806 188.305 109.703 188.26 109.65L187.81 109.01C187.783 108.97 187.758 108.93 187.732 108.89C187.681 108.81 187.63 108.73 187.57 108.65L187.38 108.39L186.87 107.67C186.68 107.36 186.7 107.01 186.72 106.72C186.73 106.61 186.74 106.42 186.72 106.37L186.41 106.27C186.08 106.16 185.67 106.02 185.5 105.64L185.27 105.24L185.249 105.207C185.125 105.007 184.995 104.797 184.91 104.56C184.75 104.14 184.97 103.73 185.15 103.4C185.158 103.384 185.167 103.366 185.176 103.347C185.236 103.23 185.311 103.08 185.32 103.02C185.29 102.94 185.21 102.8 185.12 102.66C184.98 102.44 184.83 102.19 184.78 101.88C184.76 101.81 184.62 101.65 184.53 101.55C184.31 101.31 184.05 101.02 184.03 100.63L183.99 100.17C183.96 99.8701 183.94 99.5601 183.95 99.2801C183.98 98.8401 184.34 98.5401 184.63 98.3101C184.657 98.2853 184.691 98.2568 184.726 98.2273C184.818 98.1492 184.918 98.0636 184.94 98.0201L184.87 97.6401C184.866 97.6173 184.862 97.5943 184.857 97.5711C184.81 97.3095 184.757 97.0232 184.84 96.7201C184.94 96.3701 185.2 96.1401 185.42 95.9501C185.53 95.8601 185.66 95.7401 185.69 95.6701C185.68 95.6501 185.58 95.4501 185.53 95.3201C185.37 94.9601 185.18 94.5201 185.38 94.1101C185.508 93.8541 185.703 93.6399 185.88 93.4446C185.897 93.4263 185.914 93.4081 185.93 93.3901C186.03 93.2801 186.13 93.1701 186.21 93.0601C186.359 92.8309 186.608 92.6613 186.828 92.5117L186.83 92.5101C186.97 92.4201 187.11 92.3201 187.17 92.2401C187.35 92.0026 187.585 91.8644 187.797 91.7397L187.83 91.7201C187.97 91.6401 188.1 91.5601 188.17 91.4801C188.2 91.4301 188.22 91.2301 188.23 91.1101L188.232 91.0856C188.262 90.7803 188.297 90.413 188.56 90.1501C188.838 89.872 189.236 89.8606 189.559 89.8513L189.6 89.8501C189.72 89.8501 189.92 89.8501 189.98 89.8201C189.96 89.8101 189.98 89.6001 190 89.4801C190.04 89.1401 190.1 88.7201 190.41 88.4701C190.686 88.2535 191 88.2211 191.286 88.1915L191.3 88.1901C191.43 88.1801 191.63 88.1601 191.69 88.1201C191.78 88.0501 191.88 87.9301 191.98 87.7901L191.988 87.7797C192.136 87.5821 192.304 87.3573 192.56 87.2001C192.846 87.0224 193.172 87.0104 193.44 87.0005L193.45 87.0001C193.479 86.9981 193.51 86.9965 193.54 86.995C193.663 86.9885 193.784 86.9822 193.84 86.9501L194.56 86.5701L194.9 86.4001C195.03 86.3301 195.16 86.2301 195.29 86.1201C195.47 85.9701 195.67 85.8101 195.92 85.7001C196.05 85.6432 196.167 85.5667 196.281 85.4917C196.307 85.4743 196.334 85.457 196.36 85.4401C196.55 85.3101 196.76 85.1701 197 85.0801C197.27 84.9701 197.56 84.9601 197.81 84.9601C197.97 84.9601 198.13 84.9501 198.23 84.9201C198.285 84.9044 198.376 84.8091 198.461 84.7205C198.485 84.6959 198.508 84.6718 198.53 84.6501Z" fill="black"/>
<path d="M14.6587 153.743C15.5165 155.156 16.4078 156.547 17.3316 157.913L14.6587 153.743Z" fill="black"/>
<path d="M147.817 190.668C137.151 196.329 125.351 200.124 112.848 201.622C112.866 201.605 112.883 201.588 112.901 201.572C112.94 201.535 112.977 201.5 113.01 201.46C113.03 201.44 113.05 201.42 113.07 201.399C113.189 201.279 113.304 201.163 113.39 201.12C113.65 201.01 113.89 200.87 114.13 200.71C114.159 200.692 114.188 200.675 114.217 200.657C114.368 200.563 114.522 200.467 114.69 200.4L116.05 199.84C116.351 199.714 116.587 199.521 116.802 199.345L116.82 199.33C116.99 199.19 117.15 199.06 117.29 199C117.51 198.91 117.74 198.83 117.97 198.75C118.158 198.687 118.34 198.618 118.526 198.548L118.593 198.523L118.68 198.49C118.8 198.44 119.01 198.44 119.22 198.44L119.29 198.438C119.571 198.429 119.876 198.42 120.18 198.3C120.32 198.25 120.53 198.24 120.74 198.24C121.03 198.24 121.35 198.23 121.67 198.12C122.064 197.982 122.322 197.65 122.531 197.382L122.54 197.37C122.63 197.25 122.78 197.06 122.85 197.03C122.99 196.98 123.2 196.97 123.41 196.97L123.425 196.97C123.701 196.96 124.025 196.948 124.34 196.84C124.451 196.797 124.613 196.798 124.795 196.8C124.826 196.8 124.858 196.8 124.89 196.8C125.18 196.81 125.51 196.82 125.83 196.71C125.998 196.654 126.166 196.624 126.334 196.593C126.376 196.586 126.418 196.578 126.46 196.57C126.73 196.525 126.997 196.465 127.26 196.39C127.75 196.23 127.97 195.75 128.16 195.33C128.21 195.22 128.28 195.07 128.34 194.96C128.465 195.02 128.586 195.091 128.7 195.17C129.1 195.42 129.56 195.69 130.05 195.55C130.45 195.43 130.73 195.12 130.95 194.87L130.982 194.834L131.001 194.814C131.098 194.705 131.221 194.567 131.28 194.55C131.39 194.52 131.61 194.55 131.8 194.58C132.11 194.63 132.45 194.68 132.82 194.58C133.056 194.511 133.297 194.458 133.54 194.42C133.589 194.41 133.638 194.4 133.686 194.39L133.69 194.389C133.877 194.352 134.059 194.315 134.24 194.26C134.528 194.183 134.788 194.042 135.02 193.916L135.05 193.9L135.061 193.894C135.256 193.787 135.433 193.689 135.6 193.65C135.99 193.54 136.27 193.27 136.51 193.02C136.62 192.91 136.8 192.73 136.87 192.71C136.958 192.691 137.168 192.737 137.346 192.777L137.36 192.78C137.68 192.86 138.04 192.95 138.42 192.86C138.83 192.76 139.13 192.47 139.37 192.23C139.48 192.12 139.65 191.95 139.68 191.94C139.739 191.94 139.867 192.005 139.983 192.063C140.015 192.079 140.045 192.094 140.073 192.107L140.1 192.12C140.45 192.3 140.87 192.51 141.34 192.41C141.711 192.324 141.983 192.085 142.224 191.872L142.26 191.84C142.39 191.72 142.56 191.57 142.64 191.55C142.793 191.585 142.944 191.632 143.09 191.69L143.109 191.697C143.444 191.825 143.817 191.968 144.22 191.88C144.568 191.81 144.847 191.632 145.096 191.473L145.1 191.47L145.149 191.44C145.311 191.341 145.463 191.247 145.59 191.22C145.947 191.145 146.216 190.937 146.463 190.746L146.51 190.71C146.65 190.6 146.83 190.46 146.92 190.44C147 190.431 147.183 190.486 147.342 190.533L147.4 190.55C147.442 190.562 147.485 190.575 147.527 190.588C147.622 190.617 147.717 190.647 147.817 190.668Z" fill="black"/>
<path d="M33.7127 176.686L39.1386 181.215C37.2771 179.768 35.4673 178.258 33.7127 176.686Z" fill="black"/>
</svg>
