<svg width="37" height="73" viewBox="0 0 37 73" fill="none" xmlns="http://www.w3.org/2000/svg">
<path d="M18.5 70C15.1667 66.2222 15.1667 62.4444 18.5 58.6667C21.8333 54.8889 21.8333 51.1111 18.5 47.3333C15.1667 43.5556 15.1667 39.7778 18.5 36C21.8333 32.2222 21.8333 28.4444 18.5 24.6667C15.1667 20.8889 15.1667 17.1111 18.5 13.3333C21.8333 9.55556 21.8333 5.77778 18.5 2" stroke="black" stroke-width="2" stroke-linecap="square"/>
<path d="M33.5 70C30.1667 66.2222 30.1667 62.4444 33.5 58.6667C36.8333 54.8889 36.8333 51.1111 33.5 47.3333C30.1667 43.5556 30.1667 39.7778 33.5 36C36.8333 32.2222 36.8333 28.4444 33.5 24.6667C30.1667 20.8889 30.1667 17.1111 33.5 13.3333C36.8333 9.55556 36.8333 5.77778 33.5 2" stroke="black" stroke-width="2" stroke-linecap="square"/>
<path d="M3.5 71C0.166667 67.2222 0.166667 63.4444 3.5 59.6667C6.83333 55.8889 6.83333 52.1111 3.5 48.3333C0.166667 44.5556 0.166667 40.7778 3.5 37C6.83333 33.2222 6.83333 29.4444 3.5 25.6667C0.166667 21.8889 0.166667 18.1111 3.5 14.3333C6.83333 10.5556 6.83333 6.77778 3.5 3" stroke="black" stroke-width="2" stroke-linecap="square"/>
</svg>
