<svg xmlns="http://www.w3.org/2000/svg" viewBox="0 0 1000 1000" fill="none">
<path d="M944 500.591C944 441.698 870.332 385.886 757.386 351.275C783.451 236.026 771.866 144.335 720.824 114.979C709.058 108.093 695.302 104.831 680.279 104.831V145.241C688.605 145.241 695.302 146.872 700.913 149.952C725.53 164.086 736.209 217.905 727.883 287.127C725.892 304.161 722.634 322.1 718.651 340.402C683.175 331.704 644.44 325 603.715 320.651C579.279 287.127 553.939 256.684 528.417 230.046C587.424 175.14 642.811 145.06 680.46 145.06V104.65C630.684 104.65 565.523 140.167 499.638 201.778C433.753 140.529 368.592 105.375 318.816 105.375V145.784C356.284 145.784 411.852 175.684 470.859 230.228C445.518 256.865 420.178 287.127 396.104 320.651C355.198 325 316.463 331.704 280.987 340.583C276.824 322.463 273.746 304.885 271.574 288.033C263.067 218.811 273.565 164.992 298.001 150.677C303.431 147.415 310.49 145.966 318.816 145.966V105.556C303.612 105.556 289.856 108.818 277.909 115.704C227.048 145.06 215.645 236.57 241.89 351.456C129.306 386.248 56 441.879 56 500.591C56 559.483 129.668 615.296 242.614 649.906C216.55 765.155 228.134 856.846 279.177 886.202C290.942 893.088 304.698 896.35 319.902 896.35C369.678 896.35 434.839 860.833 500.724 799.222C566.609 860.471 631.77 895.625 681.546 895.625C696.75 895.625 710.506 892.363 722.453 885.477C773.314 856.122 784.717 764.611 758.472 649.725C870.694 615.114 944 559.302 944 500.591V500.591ZM708.334 379.725C701.637 403.1 693.311 427.201 683.899 451.302C676.478 436.805 668.695 422.309 660.188 407.812C651.861 393.315 642.992 379.181 634.123 365.409C659.826 369.214 684.623 373.926 708.334 379.725ZM625.435 572.712C611.317 597.175 596.837 620.369 581.813 641.933C554.844 644.289 527.512 645.557 500 645.557C472.669 645.557 445.337 644.289 418.549 642.114C403.526 620.551 388.864 597.537 374.746 573.255C360.99 549.517 348.501 525.416 337.097 501.134C348.32 476.852 360.99 452.57 374.565 428.832C388.683 404.369 403.163 381.174 418.187 359.61C445.156 357.255 472.488 355.986 500 355.986C527.331 355.986 554.663 357.255 581.451 359.429C596.475 380.993 611.136 404.006 625.254 428.288C639.01 452.027 651.499 476.127 662.903 500.409C651.499 524.691 639.01 548.973 625.435 572.712ZM683.899 549.154C693.673 573.436 701.999 597.718 708.877 621.275C685.166 627.074 660.188 631.967 634.304 635.772C643.173 621.819 652.042 607.504 660.369 592.826C668.695 578.329 676.478 563.651 683.899 549.154ZM500.362 742.504C483.529 725.108 466.695 705.719 450.043 684.517C466.333 685.242 482.986 685.786 499.819 685.786C516.833 685.786 533.667 685.423 550.138 684.517C533.848 705.719 517.014 725.108 500.362 742.504ZM365.696 635.772C339.993 631.967 315.196 627.255 291.485 621.457C298.182 598.081 306.508 573.98 315.92 549.879C323.341 564.376 331.124 578.873 339.631 593.369C348.139 607.866 356.827 622 365.696 635.772ZM499.457 258.677C516.29 276.073 533.124 295.463 549.776 316.664C533.486 315.939 516.833 315.396 500 315.396C482.986 315.396 466.153 315.758 449.681 316.664C465.972 295.463 482.805 276.073 499.457 258.677ZM365.515 365.409C356.646 379.362 347.777 393.678 339.45 408.355C331.124 422.852 323.341 437.349 315.92 451.845C306.146 427.564 297.82 403.282 290.942 379.725C314.653 374.107 339.632 369.214 365.515 365.409V365.409ZM201.707 592.282C137.632 564.92 96.1826 529.04 96.1826 500.591C96.1826 472.141 137.632 436.08 201.707 408.899C217.274 402.194 234.288 396.214 251.845 390.597C262.162 426.114 275.737 463.08 292.571 500.953C275.918 538.644 262.524 575.43 252.388 610.765C234.469 605.148 217.455 598.987 201.707 592.282ZM299.087 851.229C274.47 837.095 263.791 783.276 272.117 714.054C274.108 697.021 277.367 679.081 281.349 660.779C316.825 669.477 355.56 676.182 396.285 680.531C420.721 714.054 446.061 744.497 471.583 771.135C412.576 826.041 357.189 856.122 319.54 856.122C311.395 855.94 304.517 854.309 299.087 851.229V851.229ZM728.426 713.148C736.933 782.37 726.435 836.189 701.999 850.504C696.569 853.766 689.51 855.216 681.184 855.216C643.716 855.216 588.148 825.316 529.142 770.772C554.482 744.135 579.822 713.873 603.896 680.349C644.802 676 683.537 669.296 719.013 660.416C723.177 678.719 726.435 696.296 728.426 713.148V713.148ZM798.112 592.282C782.546 598.987 765.531 604.967 747.974 610.584C737.657 575.067 724.082 538.101 707.248 500.228C723.901 462.537 737.295 425.751 747.431 390.416C765.35 396.033 782.364 402.194 798.293 408.899C862.368 436.262 903.817 472.141 903.817 500.591C903.636 529.04 862.187 565.101 798.112 592.282V592.282Z" fill="#61DAFB"/>
<path d="M499.819 583.403C545.503 583.403 582.537 546.327 582.537 500.591C582.537 454.855 545.503 417.778 499.819 417.778C454.135 417.778 417.101 454.855 417.101 500.591C417.101 546.327 454.135 583.403 499.819 583.403Z" fill="#61DAFB"/>
</svg>