<svg xmlns="http://www.w3.org/2000/svg" viewBox="0 0 1000 1000" fill="none">
<path d="M118.258 499.989C118.258 651.101 206.072 781.678 333.409 843.566L151.309 344.628C129.479 393.511 118.217 446.453 118.258 499.989V499.989ZM757.717 480.725C757.717 433.546 740.771 400.873 726.235 375.442C706.884 343.996 688.754 317.366 688.754 285.921C688.754 250.829 715.361 218.163 752.851 218.163C754.543 218.163 756.148 218.373 757.805 218.468C689.879 156.245 599.393 118.254 500.007 118.254C366.641 118.254 249.307 186.681 181.048 290.323C190.004 290.591 198.452 290.773 205.614 290.773C245.544 290.773 307.353 285.928 307.353 285.928C327.932 284.715 330.358 314.94 309.808 317.374C309.808 317.374 289.12 319.807 266.108 321.013L405.126 734.513L488.675 483.958L429.191 321.006C408.634 319.8 389.159 317.366 389.159 317.366C368.588 316.16 371 284.708 391.571 285.921C391.571 285.921 454.615 290.766 492.126 290.766C532.048 290.766 593.865 285.921 593.865 285.921C614.458 284.708 616.877 314.933 596.313 317.366C596.313 317.366 575.589 319.8 552.62 321.006L690.577 731.375L728.647 604.132C745.158 551.331 757.717 513.406 757.717 480.725V480.725Z" fill="#00749A"/>
<path d="M506.705 533.382L392.167 866.201C427.184 876.521 463.501 881.761 500.007 881.76C544.463 881.76 587.095 874.068 626.778 860.121C625.713 858.455 624.804 856.694 624.061 854.862L506.705 533.382ZM834.977 316.836C836.618 328.996 837.548 342.056 837.548 356.09C837.548 394.829 830.313 438.376 808.521 492.827L691.913 829.968C805.405 763.787 881.742 640.83 881.742 499.989C881.844 435.972 865.757 372.968 834.977 316.836V316.836Z" fill="#00749A"/>
<path d="M500.007 55C254.639 55 55.0037 254.62 55.0037 499.989C55.0037 745.387 254.631 945.007 500.007 945.007C745.369 945.007 945.033 745.394 945.033 499.989C945.025 254.62 745.369 55 500.007 55ZM500.007 924.603C265.89 924.603 75.4081 734.12 75.4081 499.989C75.4081 265.879 265.883 75.4117 500.007 75.4117C734.117 75.4117 924.585 265.879 924.585 499.989C924.585 734.12 734.11 924.603 500.007 924.603Z" fill="#00749A"/>
</svg>