<svg width="643" height="145" viewBox="0 0 643 145" fill="none" xmlns="http://www.w3.org/2000/svg">
<path d="M90.616 110.528H37.412L28.012 137.224H0L48.88 6H79.148L127.84 137.224H99.828L90.616 110.528ZM83.472 90.412L63.92 34.388L44.368 90.412H83.472Z" fill="white"/>
<path d="M179.935 31.756C192.594 31.756 202.746 34.952 210.391 41.344C218.036 47.736 222.799 56.2587 224.679 66.912H199.863C198.86 61.8987 196.604 57.888 193.095 54.88C189.586 51.872 185.011 50.368 179.371 50.368C174.859 50.368 171.35 51.4333 168.843 53.564C166.336 55.6947 165.083 58.5773 165.083 62.212C165.083 65.0947 166.086 67.4133 168.091 69.168C170.096 70.9227 172.603 72.3013 175.611 73.304C178.619 74.3067 182.943 75.4973 188.583 76.876C196.479 78.6307 202.871 80.5107 207.759 82.516C212.772 84.396 217.034 87.4667 220.543 91.728C224.178 95.864 225.995 101.504 225.995 108.648C225.995 117.547 222.486 124.753 215.467 130.268C208.574 135.783 199.236 138.54 187.455 138.54C173.919 138.54 163.078 135.532 154.931 129.516C146.784 123.375 141.834 114.664 140.079 103.384H165.459C166.086 108.523 168.342 112.596 172.227 115.604C176.112 118.487 181.188 119.928 187.455 119.928C191.967 119.928 195.414 118.863 197.795 116.732C200.176 114.476 201.367 111.593 201.367 108.084C201.367 105.076 200.302 102.632 198.171 100.752C196.166 98.872 193.596 97.4307 190.463 96.428C187.455 95.4253 183.131 94.2347 177.491 92.856C169.72 91.1013 163.391 89.3467 158.503 87.592C153.74 85.712 149.604 82.7667 146.095 78.756C142.711 74.7453 141.019 69.2307 141.019 62.212C141.019 53.188 144.466 45.856 151.359 40.216C158.252 34.576 167.778 31.756 179.935 31.756Z" fill="white"/>
<path d="M283.526 31.756C296.185 31.756 306.337 34.952 313.982 41.344C321.627 47.736 326.39 56.2587 328.27 66.912H303.454C302.451 61.8987 300.195 57.888 296.686 54.88C293.177 51.872 288.602 50.368 282.962 50.368C278.45 50.368 274.941 51.4333 272.434 53.564C269.927 55.6947 268.674 58.5773 268.674 62.212C268.674 65.0947 269.677 67.4133 271.682 69.168C273.687 70.9227 276.194 72.3013 279.202 73.304C282.21 74.3067 286.534 75.4973 292.174 76.876C300.07 78.6307 306.462 80.5107 311.35 82.516C316.363 84.396 320.625 87.4667 324.134 91.728C327.769 95.864 329.586 101.504 329.586 108.648C329.586 117.547 326.077 124.753 319.058 130.268C312.165 135.783 302.827 138.54 291.046 138.54C277.51 138.54 266.669 135.532 258.522 129.516C250.375 123.375 245.425 114.664 243.67 103.384H269.05C269.677 108.523 271.933 112.596 275.818 115.604C279.703 118.487 284.779 119.928 291.046 119.928C295.558 119.928 299.005 118.863 301.386 116.732C303.767 114.476 304.958 111.593 304.958 108.084C304.958 105.076 303.893 102.632 301.762 100.752C299.757 98.872 297.187 97.4307 294.054 96.428C291.046 95.4253 286.722 94.2347 281.082 92.856C273.311 91.1013 266.982 89.3467 262.094 87.592C257.331 85.712 253.195 82.7667 249.686 78.756C246.302 74.7453 244.61 69.2307 244.61 62.212C244.61 53.188 248.057 45.856 254.95 40.216C261.843 34.576 271.369 31.756 283.526 31.756Z" fill="white"/>
<path d="M392.005 31.756C400.778 31.756 408.298 33.824 414.565 37.96C420.832 42.096 425.281 47.6733 427.913 54.692V33.072H454.233V137.224H427.913V115.416C425.281 122.435 420.832 128.075 414.565 132.336C408.298 136.472 400.778 138.54 392.005 138.54C383.232 138.54 375.336 136.409 368.317 132.148C361.298 127.887 355.784 121.745 351.773 113.724C347.888 105.577 345.945 96.052 345.945 85.148C345.945 74.244 347.888 64.7813 351.773 56.76C355.784 48.6133 361.298 42.4093 368.317 38.148C375.336 33.8867 383.232 31.756 392.005 31.756ZM400.277 54.88C392.005 54.88 385.362 57.5747 380.349 62.964C375.336 68.3533 372.829 75.748 372.829 85.148C372.829 94.548 375.336 101.943 380.349 107.332C385.362 112.596 392.005 115.228 400.277 115.228C408.298 115.228 414.878 112.533 420.017 107.144C425.281 101.629 427.913 94.2973 427.913 85.148C427.913 75.8733 425.281 68.5413 420.017 63.152C414.878 57.6373 408.298 54.88 400.277 54.88Z" fill="white"/>
<path d="M542.176 31.568C554.208 31.568 563.796 35.516 570.94 43.412C578.084 51.308 581.656 62.4 581.656 76.688V137.224H555.336V79.696C555.336 71.424 553.205 65.032 548.944 60.52C544.683 55.8827 538.855 53.564 531.46 53.564C523.94 53.564 517.924 56.008 513.412 60.896C508.9 65.784 506.644 72.8027 506.644 81.952V137.224H480.136V33.072H506.644V53.94C509.401 46.9213 513.913 41.4693 520.18 37.584C526.572 33.5733 533.904 31.568 542.176 31.568Z" fill="white"/>
<path d="M628.856 109.588V137.224H600.28V109.588H628.856Z" fill="white"/>
</svg>
