<svg width="355" height="354" viewBox="0 0 355 354" fill="none" xmlns="http://www.w3.org/2000/svg">
<path fill-rule="evenodd" clip-rule="evenodd" d="M354.403 348.829C354.403 345.381 353.239 343.657 350.911 343.657C336.556 343.657 325.693 342.717 318.321 340.837C311.338 338.956 305.324 335.195 300.281 329.554C295.625 323.599 290 313.726 283.404 299.936C276.033 284.892 256.052 239.134 223.463 162.661C190.873 86.1886 168.565 33.6919 156.538 5.1713C155.374 1.72376 152.852 0 148.973 0L97.7606 77.5697L158.284 219.546L165.267 236.47L193.201 301.347C198.245 312.943 200.767 320.622 200.767 324.382C200.767 330.651 196.693 335.352 188.546 338.486C180.786 341.307 167.983 343.031 150.137 343.657C147.421 343.657 146.063 345.381 146.063 348.829C146.063 352.276 147.421 354 150.137 354H350.911C353.239 354 354.403 352.276 354.403 348.829Z" fill="#36363C"/>
<path d="M47.6208 354C34.8199 354 23.7258 349.664 14.3385 340.991C5.37789 331.906 0.897583 320.962 0.897583 308.16C0.897583 295.77 5.37789 285.239 14.3385 276.567C23.7258 267.481 34.8199 262.939 47.6208 262.939C60.8483 262.939 71.9424 267.481 80.903 276.567C90.2903 285.239 94.984 295.77 94.984 308.16C94.984 320.962 90.2903 331.906 80.903 340.991C71.9424 349.664 60.8483 354 47.6208 354Z" fill="#36363C"/>
</svg>
