<svg width="622" height="235" viewBox="0 0 622 235" fill="none" xmlns="http://www.w3.org/2000/svg">
<path d="M0 140L38.4 0H80.2L118.6 140H93.8L85.4 108H33.2L24.8 140H0ZM38.8 86H79.8L61 15H57.6L38.8 86Z" fill="white"/>
<path d="M177.963 142.8C165.163 142.8 154.629 140 146.363 134.4C138.096 128.8 133.096 120.6 131.363 109.8L152.562 104.4C153.496 109.467 155.162 113.467 157.562 116.4C159.962 119.333 162.896 121.4 166.363 122.6C169.963 123.8 173.829 124.4 177.963 124.4C184.229 124.4 188.896 123.267 191.962 121C195.162 118.733 196.762 115.867 196.762 112.4C196.762 108.8 195.229 106.133 192.163 104.4C189.229 102.667 184.696 101.2 178.562 100L172.363 99C165.563 97.6667 159.362 95.8667 153.762 93.6C148.162 91.2 143.629 88 140.163 84C136.829 79.8667 135.163 74.6667 135.163 68.4C135.163 58.8 138.696 51.4 145.762 46.2C152.962 41 162.362 38.4 173.962 38.4C185.029 38.4 194.163 40.8667 201.363 45.8C208.563 50.7333 213.229 57.3333 215.363 65.6L194.163 72C193.096 66.4 190.763 62.4667 187.163 60.2C183.563 57.8 179.162 56.6 173.962 56.6C168.629 56.6 164.496 57.5333 161.562 59.4C158.763 61.2667 157.363 63.9333 157.363 67.4C157.363 70.8667 158.829 73.4667 161.762 75.2C164.696 76.9333 168.629 78.2 173.562 79L179.762 80.2C187.096 81.5333 193.696 83.2667 199.562 85.4C205.562 87.5333 210.296 90.6 213.763 94.6C217.229 98.6 218.963 104 218.963 110.8C218.963 121.067 215.229 129 207.763 134.6C200.429 140.067 190.496 142.8 177.963 142.8Z" fill="white"/>
<path d="M283.041 142.8C270.241 142.8 259.707 140 251.441 134.4C243.174 128.8 238.174 120.6 236.441 109.8L257.641 104.4C258.574 109.467 260.241 113.467 262.641 116.4C265.041 119.333 267.974 121.4 271.441 122.6C275.041 123.8 278.907 124.4 283.041 124.4C289.307 124.4 293.974 123.267 297.041 121C300.241 118.733 301.841 115.867 301.841 112.4C301.841 108.8 300.307 106.133 297.241 104.4C294.307 102.667 289.774 101.2 283.641 100L277.441 99C270.641 97.6667 264.441 95.8667 258.841 93.6C253.241 91.2 248.707 88 245.241 84C241.907 79.8667 240.241 74.6667 240.241 68.4C240.241 58.8 243.774 51.4 250.841 46.2C258.041 41 267.441 38.4 279.041 38.4C290.107 38.4 299.241 40.8667 306.441 45.8C313.641 50.7333 318.307 57.3333 320.441 65.6L299.241 72C298.174 66.4 295.841 62.4667 292.241 60.2C288.641 57.8 284.241 56.6 279.041 56.6C273.707 56.6 269.574 57.5333 266.641 59.4C263.841 61.2667 262.441 63.9333 262.441 67.4C262.441 70.8667 263.907 73.4667 266.841 75.2C269.774 76.9333 273.707 78.2 278.641 79L284.841 80.2C292.174 81.5333 298.774 83.2667 304.641 85.4C310.641 87.5333 315.374 90.6 318.841 94.6C322.307 98.6 324.041 104 324.041 110.8C324.041 121.067 320.307 129 312.841 134.6C305.507 140.067 295.574 142.8 283.041 142.8Z" fill="white"/>
<path d="M377.138 142.8C370.204 142.8 363.937 141.6 358.337 139.2C352.737 136.667 348.271 133.067 344.938 128.4C341.737 123.733 340.138 118 340.138 111.2C340.138 104.533 341.737 98.9333 344.938 94.4C348.271 89.8667 352.804 86.4667 358.538 84.2C364.271 81.8 370.804 80.6 378.138 80.6H406.737V74.6C406.737 69.4 405.137 65.2 401.938 62C398.737 58.6667 393.737 57 386.938 57C380.271 57 375.204 58.6 371.738 61.8C368.404 64.8667 366.204 68.8667 365.138 73.8L343.938 66.8C345.538 61.6 348.071 56.8667 351.538 52.6C355.138 48.3333 359.871 44.9333 365.737 42.4C371.604 39.7333 378.804 38.4 387.337 38.4C400.271 38.4 410.404 41.6667 417.738 48.2C425.204 54.6 428.938 63.9333 428.938 76.2V115C428.938 119 430.804 121 434.538 121H442.938V140H426.738C421.938 140 418.004 138.8 414.938 136.4C411.871 134 410.337 130.733 410.337 126.6V126.2H406.938C406.137 128.067 404.737 130.333 402.737 133C400.737 135.667 397.671 138 393.538 140C389.538 141.867 384.071 142.8 377.138 142.8ZM380.938 124C388.538 124 394.738 121.867 399.538 117.6C404.338 113.2 406.737 107.333 406.737 100V98H379.538C374.604 98 370.604 99.0667 367.538 101.2C364.471 103.333 362.938 106.467 362.938 110.6C362.938 114.6 364.537 117.867 367.737 120.4C370.937 122.8 375.338 124 380.938 124Z" fill="white"/>
<path d="M461.967 140V41.2H484.567V55H487.967C489.701 51.2667 492.834 47.7333 497.367 44.4C501.901 41.0667 508.767 39.4 517.967 39.4C525.567 39.4 532.301 41.1333 538.167 44.6C544.034 48.0667 548.567 52.8667 551.767 59C555.101 65.1333 556.767 72.4 556.767 80.8V140H533.767V82.6C533.767 74.6 531.767 68.6667 527.767 64.8C523.901 60.8 518.367 58.8 511.167 58.8C503.034 58.8 496.634 61.5333 491.967 67C487.301 72.3333 484.967 80 484.967 90V140H461.967Z" fill="white"/>
<path d="M599.214 142.8C594.147 142.8 589.881 141.133 586.414 137.8C583.081 134.467 581.414 130.2 581.414 125C581.414 119.933 583.081 115.733 586.414 112.4C589.881 109.067 594.147 107.4 599.214 107.4C604.281 107.4 608.481 109.067 611.814 112.4C615.147 115.733 616.814 120 616.814 125.2C616.814 130.4 615.147 134.667 611.814 138C608.481 141.2 604.281 142.8 599.214 142.8Z" fill="white"/>
<g opacity="0.5">
<path d="M24.64 234.12C17.9733 234.12 12.6667 232.2 8.71999 228.36C4.77332 224.467 2.79999 218.813 2.79999 211.4V198.6C2.79999 191.187 4.77332 185.56 8.71999 181.72C12.6667 177.827 17.9733 175.88 24.64 175.88C31.2533 175.88 36.32 177.72 39.84 181.4C43.4133 185.08 45.2 190.12 45.2 196.52V196.92H38.56V196.28C38.56 192.067 37.4133 188.627 35.12 185.96C32.88 183.24 29.3867 181.88 24.64 181.88C19.8933 181.88 16.1867 183.347 13.52 186.28C10.8533 189.16 9.51999 193.213 9.51999 198.44V211.56C9.51999 216.787 10.8533 220.867 13.52 223.8C16.1867 226.68 19.8933 228.12 24.64 228.12C29.3867 228.12 32.88 226.787 35.12 224.12C37.4133 221.4 38.56 217.933 38.56 213.72V212.44H45.2V213.48C45.2 219.88 43.4133 224.92 39.84 228.6C36.32 232.28 31.2533 234.12 24.64 234.12Z" fill="white"/>
<path d="M63.7281 233V177H70.4481V226.92H98.7681V233H63.7281Z" fill="white"/>
<path d="M111 233L128.28 177H140.12L157.4 233H150.44L146.12 218.84H122.28L117.96 233H111ZM123.96 212.76H144.36L134.76 181.08H133.64L123.96 212.76Z" fill="white"/>
<path d="M192.196 234.12C188.143 234.12 184.516 233.4 181.316 231.96C178.116 230.52 175.583 228.36 173.716 225.48C171.903 222.547 170.996 218.893 170.996 214.52V212.84H177.636V214.52C177.636 219.16 178.996 222.627 181.716 224.92C184.436 227.16 187.93 228.28 192.196 228.28C196.57 228.28 199.903 227.293 202.196 225.32C204.49 223.347 205.636 220.867 205.636 217.88C205.636 215.8 205.103 214.147 204.036 212.92C203.023 211.693 201.583 210.707 199.716 209.96C197.85 209.16 195.663 208.467 193.156 207.88L188.996 206.84C185.743 205.987 182.863 204.947 180.356 203.72C177.85 202.493 175.876 200.893 174.436 198.92C173.05 196.893 172.356 194.307 172.356 191.16C172.356 188.013 173.13 185.293 174.676 183C176.276 180.707 178.49 178.947 181.316 177.72C184.196 176.493 187.503 175.88 191.236 175.88C195.023 175.88 198.41 176.547 201.396 177.88C204.436 179.16 206.81 181.08 208.516 183.64C210.276 186.147 211.156 189.32 211.156 193.16V196.52H204.516V193.16C204.516 190.44 203.93 188.253 202.756 186.6C201.636 184.947 200.063 183.72 198.036 182.92C196.063 182.12 193.796 181.72 191.236 181.72C187.556 181.72 184.596 182.547 182.356 184.2C180.116 185.8 178.996 188.093 178.996 191.08C178.996 193.053 179.476 194.653 180.436 195.88C181.396 197.107 182.756 198.12 184.516 198.92C186.276 199.667 188.383 200.333 190.836 200.92L194.996 201.96C198.25 202.653 201.156 203.613 203.716 204.84C206.33 206.013 208.41 207.64 209.956 209.72C211.503 211.747 212.276 214.413 212.276 217.72C212.276 221.027 211.45 223.907 209.796 226.36C208.143 228.813 205.796 230.733 202.756 232.12C199.77 233.453 196.25 234.12 192.196 234.12Z" fill="white"/>
<path d="M249.259 234.12C245.205 234.12 241.579 233.4 238.379 231.96C235.179 230.52 232.645 228.36 230.779 225.48C228.965 222.547 228.059 218.893 228.059 214.52V212.84H234.699V214.52C234.699 219.16 236.059 222.627 238.779 224.92C241.499 227.16 244.992 228.28 249.259 228.28C253.632 228.28 256.965 227.293 259.259 225.32C261.552 223.347 262.699 220.867 262.699 217.88C262.699 215.8 262.165 214.147 261.099 212.92C260.085 211.693 258.645 210.707 256.779 209.96C254.912 209.16 252.725 208.467 250.219 207.88L246.059 206.84C242.805 205.987 239.925 204.947 237.419 203.72C234.912 202.493 232.939 200.893 231.499 198.92C230.112 196.893 229.419 194.307 229.419 191.16C229.419 188.013 230.192 185.293 231.739 183C233.339 180.707 235.552 178.947 238.379 177.72C241.259 176.493 244.565 175.88 248.299 175.88C252.085 175.88 255.472 176.547 258.459 177.88C261.499 179.16 263.872 181.08 265.579 183.64C267.339 186.147 268.219 189.32 268.219 193.16V196.52H261.579V193.16C261.579 190.44 260.992 188.253 259.819 186.6C258.699 184.947 257.125 183.72 255.099 182.92C253.125 182.12 250.859 181.72 248.299 181.72C244.619 181.72 241.659 182.547 239.419 184.2C237.179 185.8 236.059 188.093 236.059 191.08C236.059 193.053 236.539 194.653 237.499 195.88C238.459 197.107 239.819 198.12 241.579 198.92C243.339 199.667 245.445 200.333 247.899 200.92L252.059 201.96C255.312 202.653 258.219 203.613 260.779 204.84C263.392 206.013 265.472 207.64 267.019 209.72C268.565 211.747 269.339 214.413 269.339 217.72C269.339 221.027 268.512 223.907 266.859 226.36C265.205 228.813 262.859 230.733 259.819 232.12C256.832 233.453 253.312 234.12 249.259 234.12Z" fill="white"/>
<path d="M287.681 233V177H294.401V233H287.681Z" fill="white"/>
<path d="M335.453 234.12C328.786 234.12 323.479 232.2 319.533 228.36C315.586 224.467 313.612 218.813 313.612 211.4V198.6C313.612 191.187 315.586 185.56 319.533 181.72C323.479 177.827 328.786 175.88 335.453 175.88C342.066 175.88 347.132 177.72 350.652 181.4C354.226 185.08 356.013 190.12 356.013 196.52V196.92H349.372V196.28C349.372 192.067 348.226 188.627 345.932 185.96C343.692 183.24 340.199 181.88 335.453 181.88C330.706 181.88 326.999 183.347 324.332 186.28C321.666 189.16 320.332 193.213 320.332 198.44V211.56C320.332 216.787 321.666 220.867 324.332 223.8C326.999 226.68 330.706 228.12 335.453 228.12C340.199 228.12 343.692 226.787 345.932 224.12C348.226 221.4 349.372 217.933 349.372 213.72V212.44H356.013V213.48C356.013 219.88 354.226 224.92 350.652 228.6C347.132 232.28 342.066 234.12 335.453 234.12Z" fill="white"/>
<path d="M421.649 234.12C417.596 234.12 413.969 233.4 410.769 231.96C407.569 230.52 405.036 228.36 403.169 225.48C401.356 222.547 400.449 218.893 400.449 214.52V212.84H407.089V214.52C407.089 219.16 408.449 222.627 411.169 224.92C413.889 227.16 417.383 228.28 421.649 228.28C426.023 228.28 429.356 227.293 431.649 225.32C433.943 223.347 435.089 220.867 435.089 217.88C435.089 215.8 434.556 214.147 433.489 212.92C432.476 211.693 431.036 210.707 429.169 209.96C427.303 209.16 425.116 208.467 422.609 207.88L418.449 206.84C415.196 205.987 412.316 204.947 409.809 203.72C407.303 202.493 405.329 200.893 403.889 198.92C402.503 196.893 401.809 194.307 401.809 191.16C401.809 188.013 402.583 185.293 404.129 183C405.729 180.707 407.943 178.947 410.769 177.72C413.649 176.493 416.956 175.88 420.689 175.88C424.476 175.88 427.863 176.547 430.849 177.88C433.889 179.16 436.263 181.08 437.969 183.64C439.729 186.147 440.609 189.32 440.609 193.16V196.52H433.969V193.16C433.969 190.44 433.383 188.253 432.209 186.6C431.089 184.947 429.516 183.72 427.489 182.92C425.516 182.12 423.249 181.72 420.689 181.72C417.009 181.72 414.049 182.547 411.809 184.2C409.569 185.8 408.449 188.093 408.449 191.08C408.449 193.053 408.929 194.653 409.889 195.88C410.849 197.107 412.209 198.12 413.969 198.92C415.729 199.667 417.836 200.333 420.289 200.92L424.449 201.96C427.703 202.653 430.609 203.613 433.169 204.84C435.783 206.013 437.863 207.64 439.409 209.72C440.956 211.747 441.729 214.413 441.729 217.72C441.729 221.027 440.903 223.907 439.249 226.36C437.596 228.813 435.249 230.733 432.209 232.12C429.223 233.453 425.703 234.12 421.649 234.12Z" fill="white"/>
<path d="M460.072 233V177H466.792V201.88H493.032V177H499.752V233H493.032V207.96H466.792V233H460.072Z" fill="white"/>
<path d="M540.892 234.12C534.225 234.12 528.892 232.2 524.892 228.36C520.945 224.467 518.972 218.813 518.972 211.4V198.6C518.972 191.187 520.945 185.56 524.892 181.72C528.892 177.827 534.225 175.88 540.892 175.88C547.612 175.88 552.945 177.827 556.892 181.72C560.892 185.56 562.892 191.187 562.892 198.6V211.4C562.892 218.813 560.892 224.467 556.892 228.36C552.945 232.2 547.612 234.12 540.892 234.12ZM540.892 228.12C545.745 228.12 549.505 226.68 552.172 223.8C554.839 220.867 556.172 216.813 556.172 211.64V198.36C556.172 193.187 554.839 189.16 552.172 186.28C549.505 183.347 545.745 181.88 540.892 181.88C536.092 181.88 532.359 183.347 529.692 186.28C527.025 189.16 525.692 193.187 525.692 198.36V211.64C525.692 216.813 527.025 220.867 529.692 223.8C532.359 226.68 536.092 228.12 540.892 228.12Z" fill="white"/>
<path d="M582.088 233V177H603.528C606.888 177 609.874 177.667 612.487 179C615.154 180.28 617.261 182.12 618.807 184.52C620.354 186.92 621.128 189.827 621.128 193.24V194.28C621.128 197.64 620.327 200.547 618.727 203C617.181 205.4 615.074 207.24 612.408 208.52C609.741 209.8 606.781 210.44 603.528 210.44H588.807V233H582.088ZM588.807 204.36H602.807C606.381 204.36 609.207 203.48 611.287 201.72C613.367 199.907 614.408 197.373 614.408 194.12V193.32C614.408 190.067 613.367 187.56 611.287 185.8C609.261 183.987 606.434 183.08 602.807 183.08H588.807V204.36Z" fill="white"/>
</g>
</svg>
