<svg width="172" height="71" viewBox="0 0 172 71" fill="none" xmlns="http://www.w3.org/2000/svg">
<path d="M12.7188 70.0469L17.8281 58.8906L22.7969 48.1562H11.6078L0.859375 70.0469H12.7188Z" fill="#F33361"/>
<path d="M26.4531 17.9219L18.3906 0.34375H46.9375L81.0625 70.0469H50.4531L45.2969 58.8906L40.375 48.1562L31.5625 29.0312L26.4531 17.9219Z" fill="#F33361"/>
<path d="M114.501 47V69.5133H110.873L100.265 54.1783H100.078V69.5133H96V47H99.6496L110.247 62.346H110.445V47H114.501Z" fill="white"/>
<path d="M124.696 69.8431C123.003 69.8431 121.541 69.4913 120.31 68.7878C119.086 68.0769 118.144 67.0729 117.485 65.7757C116.825 64.4713 116.496 62.9359 116.496 61.1698C116.496 59.4329 116.825 57.9085 117.485 56.5967C118.152 55.2776 119.083 54.2516 120.277 53.5187C121.472 52.7786 122.875 52.4085 124.487 52.4085C125.528 52.4085 126.51 52.577 127.433 52.9141C128.364 53.2439 129.185 53.7569 129.896 54.4531C130.614 55.1493 131.178 56.0361 131.589 57.1134C131.999 58.1834 132.204 59.4585 132.204 60.9389V62.1591H118.364V59.4769H128.39C128.382 58.7147 128.218 58.0368 127.895 57.4432C127.573 56.8422 127.122 56.3696 126.543 56.0251C125.971 55.6807 125.304 55.5084 124.542 55.5084C123.729 55.5084 123.014 55.7063 122.399 56.1021C121.783 56.4905 121.303 57.0035 120.959 57.6411C120.622 58.2713 120.449 58.9639 120.442 59.7187V62.0602C120.442 63.0422 120.622 63.885 120.981 64.5885C121.34 65.2847 121.842 65.8197 122.487 66.1935C123.132 66.5599 123.886 66.7431 124.751 66.7431C125.33 66.7431 125.854 66.6625 126.323 66.5013C126.792 66.3327 127.199 66.0872 127.543 65.7648C127.888 65.4423 128.148 65.0429 128.324 64.5665L132.039 64.9843C131.805 65.9663 131.358 66.8237 130.698 67.5566C130.046 68.2821 129.211 68.8464 128.192 69.2495C127.173 69.6452 126.008 69.8431 124.696 69.8431Z" fill="white"/>
<path d="M137.417 69.5133L132.646 52.6283H136.703L139.671 64.5006H139.825L142.859 52.6283H146.871L149.905 64.4346H150.07L152.994 52.6283H157.061L152.279 69.5133H148.135L144.969 58.1028H144.738L141.572 69.5133H137.417Z" fill="white"/>
<path d="M171.637 57.0914L168.01 57.4872C167.907 57.1207 167.727 56.7763 167.471 56.4538C167.222 56.1314 166.885 55.8712 166.46 55.6733C166.035 55.4755 165.514 55.3765 164.899 55.3765C164.071 55.3765 163.374 55.5561 162.81 55.9152C162.253 56.2743 161.978 56.7396 161.986 57.3113C161.978 57.8023 162.158 58.2017 162.524 58.5095C162.898 58.8173 163.514 59.0701 164.371 59.268L167.251 59.8836C168.849 60.228 170.036 60.774 170.813 61.5215C171.597 62.269 171.993 63.2474 172 64.4566C171.993 65.5192 171.681 66.4573 171.066 67.2708C170.457 68.0769 169.611 68.7072 168.526 69.1615C167.442 69.6159 166.196 69.8431 164.789 69.8431C162.722 69.8431 161.058 69.4107 159.798 68.5459C158.537 67.6738 157.786 66.461 157.544 64.9073L161.425 64.5336C161.601 65.2957 161.975 65.871 162.546 66.2594C163.118 66.6478 163.862 66.842 164.778 66.842C165.723 66.842 166.482 66.6478 167.053 66.2594C167.632 65.871 167.922 65.391 167.922 64.8194C167.922 64.3357 167.735 63.9363 167.361 63.6212C166.995 63.306 166.423 63.0642 165.646 62.8956L162.766 62.291C161.146 61.9539 159.948 61.3859 159.171 60.5871C158.395 59.781 158.01 58.7623 158.017 57.5311C158.01 56.4905 158.292 55.5891 158.864 54.8269C159.443 54.0574 160.245 53.4638 161.271 53.0461C162.304 52.621 163.495 52.4085 164.844 52.4085C166.822 52.4085 168.38 52.8299 169.516 53.6726C170.659 54.5154 171.366 55.655 171.637 57.0914Z" fill="white"/>
</svg>
