<svg width="480" height="480" viewBox="0 0 480 480" fill="none" xmlns="http://www.w3.org/2000/svg">
<g clip-path="url(#clip0_77_258)">
<path d="M0 0H640V480H0V0Z" fill="#000066"/>
<path d="M0 0V27.95L307.037 250H345.684V222.05L38.647 0H0ZM345.684 0V27.95L38.647 250H0V222.05L307.037 0H345.684V0Z" fill="white"/>
<path d="M144.035 0V250H201.649V0H144.034H144.035ZM0 83.333V166.666H345.684V83.333H0Z" fill="white"/>
<path d="M0 100V150H345.684V100H0ZM155.558 0V250H190.126V0H155.558ZM0 250L115.228 166.666H140.993L25.765 250H0ZM0 0L115.228 83.333H89.463L0 18.633V0ZM204.69 83.333L319.92 0H345.684L230.456 83.333H204.69ZM345.685 250L230.457 166.666H256.222L345.686 231.366V250H345.685Z" fill="#CC0000"/>
<path fill-rule="evenodd" clip-rule="evenodd" d="M299.762 392.523L256.109 396.318L262.122 439.724L231.935 407.96L201.749 439.724L207.763 396.318L164.11 392.523L201.79 370.159L177.546 333.664L218.516 349.178L231.936 307.465L245.356 349.177L286.326 333.662L262.084 370.156L299.762 392.523ZM486.528 432.528L475.991 416.674L493.801 423.416L499.625 405.291L505.45 423.417L523.257 416.675L512.72 432.529L529.09 442.247L510.125 443.897L512.741 462.747L499.625 448.954L486.508 462.748L489.124 443.898L470.16 442.248L486.528 432.528ZM486.528 150.433L475.991 134.577L493.801 141.319L499.625 123.197L505.45 141.317L523.257 134.577L512.72 150.432L529.09 160.149L510.125 161.799L512.741 180.649L499.625 166.856L486.508 180.65L489.124 161.8L470.16 160.15L486.528 150.433ZM380.742 265.033L370.205 249.18L388.013 255.922L393.838 237.797L399.663 255.922L417.471 249.18L406.935 265.033L423.305 274.753L404.34 276.403L406.955 295.253L393.838 281.458L380.721 295.253L383.338 276.403L364.374 274.753L380.742 265.033ZM580.586 236.824L570.028 220.97L587.85 227.712L593.632 209.587L599.486 227.712L617.258 220.97L606.75 236.824L623.112 246.542L604.142 248.192L606.75 267.042L593.632 253.249L580.515 267.042L583.125 248.192L564.189 246.542L580.586 236.824ZM541.938 319.936L531.571 326.361L534.485 314.521L525.169 306.658L537.334 305.762L541.939 294.472L546.545 305.762L558.71 306.659L549.393 314.522L552.305 326.362" fill="white"/>
</g>
<defs>
<clipPath id="clip0_77_258">
<rect width="480" height="480" rx="240" fill="white"/>
</clipPath>
</defs>
</svg>
