<svg width="480" height="480" viewBox="0 0 480 480" fill="none" xmlns="http://www.w3.org/2000/svg">
<g clip-path="url(#clip0_77_258)">
<g clip-path="url(#clip1_77_258)">
<path d="M70.184 0H409.818V480H70.184V0Z" fill="white"/>
<path d="M-99.632 0H70.1849V480H-99.632V0ZM409.818 0H579.634V480H409.819L409.818 0ZM120.971 231.947L107.783 236.454L169.148 290.31C173.789 304.151 167.536 308.231 163.551 315.491L230.17 307.035L228.436 374.077L242.234 373.681L239.225 307.195L305.909 315.1C301.782 306.384 298.109 301.757 301.927 287.821L363.253 236.797L352.521 232.912C343.746 226.141 356.313 200.302 358.208 183.995C358.208 183.995 322.401 196.309 320.054 189.865L310.935 172.348L278.36 208.132C274.801 208.986 273.285 207.57 272.45 204.562L287.499 129.782L263.668 143.185C261.673 144.038 259.678 143.303 258.364 140.978L235.442 94.9838L211.807 142.749C210.026 144.461 208.242 144.659 206.762 143.496L184.071 130.766L197.692 204.963C196.609 207.907 194.014 208.736 190.961 207.142L159.821 171.763C155.748 178.29 152.987 188.953 147.603 191.343C142.218 193.581 124.184 186.821 112.097 184.183C116.226 199.085 129.137 223.841 120.966 231.955L120.971 231.947Z" fill="#BF0A30"/>
</g>
</g>
<defs>
<clipPath id="clip0_77_258">
<rect width="480" height="480" rx="240" fill="white"/>
</clipPath>
<clipPath id="clip1_77_258">
<rect width="640" height="480" fill="white" transform="translate(-80)"/>
</clipPath>
</defs>
</svg>
