<svg width="480" height="480" viewBox="0 0 480 480" fill="none" xmlns="http://www.w3.org/2000/svg">
<g clip-path="url(#clip0_77_258)">
<path d="M-80 0H560V160H-80V0Z" fill="#FF9933"/>
<path d="M-80 160H560V320H-80V160Z" fill="white"/>
<path d="M-80 320H560V480H-80V320Z" fill="#128807"/>
<path d="M240 304C275.346 304 304 275.346 304 240C304 204.654 275.346 176 240 176C204.654 176 176 204.654 176 240C176 275.346 204.654 304 240 304Z" fill="#000088"/>
<path d="M240 296C270.928 296 296 270.928 296 240C296 209.072 270.928 184 240 184C209.072 184 184 209.072 184 240C184 270.928 209.072 296 240 296Z" fill="white"/>
<path d="M240 251.2C246.186 251.2 251.2 246.186 251.2 240C251.2 233.814 246.186 228.8 240 228.8C233.814 228.8 228.8 233.814 228.8 240C228.8 246.186 233.814 251.2 240 251.2Z" fill="#000088"/>
<path d="M295.156 250.086C296.689 250.287 298.095 249.208 298.297 247.675C298.499 246.142 297.42 244.735 295.887 244.533C294.354 244.332 292.947 245.411 292.745 246.944C292.543 248.477 293.623 249.884 295.156 250.086Z" fill="#000088"/>
<path d="M240 296L241.92 262.4L240 246.4L238.08 262.4L240 296Z" fill="#000088"/>
</g>
<defs>
<clipPath id="clip0_77_258">
<rect width="480" height="480" rx="240" fill="white"/>
</clipPath>
</defs>
</svg>
