<svg width="480" height="480" viewBox="0 0 480 480" fill="none" xmlns="http://www.w3.org/2000/svg">
<g clip-path="url(#clip0_77_258)">
<path d="M176 0H560V480H176V0Z" fill="#FF0000"/>
<path d="M-80 0H176V480H-80V0Z" fill="#006600"/>
<path fill-rule="evenodd" clip-rule="evenodd" d="M259.456 306.176C227.232 305.206 79.466 212.971 78.453 198.283L86.613 184.675C101.27 205.972 252.33 295.673 267.168 292.495L259.456 306.172" fill="#FFFF00"/>
<path d="M259.456 306.176C227.232 305.206 79.466 212.971 78.453 198.283L86.613 184.675C101.27 205.972 252.33 295.673 267.168 292.495L259.456 306.172" stroke="black" stroke-width="0.611" stroke-linecap="round" stroke-linejoin="round"/>
<path fill-rule="evenodd" clip-rule="evenodd" d="M84.896 182.827C82.006 190.607 123.456 216.233 173.326 246.564C223.196 276.894 266.196 295.637 269.382 292.949C269.577 292.601 270.952 290.239 270.825 290.257C270.227 291.157 268.773 291.441 266.505 290.787C253.031 286.901 217.891 270.771 174.372 244.381C130.854 217.989 92.992 193.667 87.107 183.334C86.697 182.618 86.407 181.311 86.465 180.294H86.322L85.069 182.484L84.896 182.826V182.827ZM260.213 306.603C259.667 307.593 258.648 307.627 256.713 307.415C244.66 306.081 208.085 288.295 164.807 262.387C114.449 232.243 72.86 204.777 77.372 197.597L78.6 195.427L78.842 195.503C74.784 207.668 160.919 256.92 165.99 260.06C215.83 290.937 257.846 308.968 261.565 304.282L260.212 306.608V306.606L260.213 306.603Z" fill="#FFFF00" stroke="black" stroke-width="0.611" stroke-linecap="round" stroke-linejoin="round"/>
<path fill-rule="evenodd" clip-rule="evenodd" d="M176.18 207.18C208.434 206.924 248.235 202.77 271.14 193.643L266.204 185.625C252.666 193.118 212.647 198.045 175.909 198.782C132.456 198.382 101.785 194.336 86.419 184.025L81.759 192.563C110.009 204.517 138.957 207.056 176.181 207.179" fill="#FFFF00"/>
<path d="M176.18 207.18C208.434 206.924 248.235 202.77 271.14 193.643L266.204 185.625C252.666 193.118 212.647 198.045 175.909 198.782C132.456 198.382 101.785 194.336 86.419 184.025L81.759 192.563C110.009 204.517 138.957 207.056 176.181 207.179" stroke="black" stroke-width="0.611" stroke-linecap="round" stroke-linejoin="round"/>
<path fill-rule="evenodd" clip-rule="evenodd" d="M272.47 193.824C271.68 195.084 256.743 200.236 234.738 204.038C219.818 206.312 200.355 208.258 176.068 208.28C152.992 208.302 134.142 206.66 119.871 204.725C96.771 201.103 84.851 196.065 80.443 194.283C80.863 193.445 81.135 192.857 81.541 192.073C94.229 197.126 106.207 200.173 120.239 202.331C134.416 204.251 153.039 205.918 175.999 205.897C200.175 205.872 219.423 203.78 234.257 201.573C256.822 197.933 269.149 193.249 270.88 191.073L272.473 193.825H272.471L272.47 193.824ZM268.138 185.694C265.692 187.657 253.506 191.979 232.065 195.404C217.755 197.454 199.561 199.29 176.315 199.312C154.231 199.334 136.188 197.846 122.465 195.847C100.69 193.003 89.1 187.873 84.922 186.377C85.338 185.657 85.762 184.945 86.196 184.229C89.446 185.865 100.631 190.405 122.704 193.532C136.272 195.456 154.342 196.89 176.317 196.867C199.453 196.844 217.44 194.973 231.657 192.933C253.21 189.968 264.807 184.456 266.567 183.076L268.139 185.69V185.693L268.138 185.694ZM70.272 246.037C90.11 256.707 134.172 262.084 175.866 262.454C213.829 262.514 263.286 256.586 281.782 246.784L281.272 236.106C275.487 245.148 222.486 253.822 175.454 253.466C128.421 253.112 84.747 245.848 70.188 236.444L70.272 246.034" fill="#FFFF00"/>
<path d="M70.272 246.037C90.11 256.707 134.172 262.084 175.866 262.454C213.829 262.514 263.286 256.586 281.782 246.784L281.272 236.106C275.487 245.148 222.486 253.822 175.454 253.466C128.421 253.112 84.747 245.848 70.188 236.444L70.272 246.034M272.47 193.824C271.68 195.084 256.743 200.236 234.738 204.038C219.818 206.312 200.355 208.258 176.068 208.28C152.992 208.302 134.142 206.66 119.871 204.725C96.771 201.103 84.851 196.065 80.443 194.283C80.863 193.445 81.135 192.857 81.541 192.073C94.229 197.126 106.207 200.173 120.239 202.331C134.416 204.251 153.039 205.918 175.999 205.897C200.175 205.872 219.423 203.78 234.257 201.573C256.822 197.933 269.149 193.249 270.88 191.073L272.473 193.825H272.471L272.47 193.824ZM268.138 185.694C265.692 187.657 253.506 191.979 232.065 195.404C217.755 197.454 199.561 199.29 176.315 199.312C154.231 199.334 136.188 197.846 122.465 195.847C100.69 193.003 89.1 187.873 84.922 186.377C85.338 185.657 85.762 184.945 86.196 184.229C89.446 185.865 100.631 190.405 122.704 193.532C136.272 195.456 154.342 196.89 176.317 196.867C199.453 196.844 217.44 194.973 231.657 192.933C253.21 189.968 264.807 184.456 266.567 183.076L268.139 185.69V185.693L268.138 185.694Z" stroke="black" stroke-width="0.611" stroke-linecap="round" stroke-linejoin="round"/>
<path fill-rule="evenodd" clip-rule="evenodd" d="M282.795 244.5V247.048C280.015 250.372 262.587 255.395 240.729 258.933C224.094 261.483 202.406 263.407 175.382 263.407C149.709 263.407 129.235 261.577 113.358 259.139C88.258 255.483 72.206 249.083 68.983 247.173L68.998 244.203C78.678 250.638 104.903 255.345 113.708 256.787C129.483 259.207 149.835 261.025 175.38 261.025C202.278 261.025 223.843 259.115 240.374 256.581C256.054 254.315 278.394 248.424 282.792 244.501L282.795 244.5ZM282.805 235.443V237.99C280.027 241.31 262.597 246.335 240.74 249.872C224.105 252.422 202.418 254.346 175.394 254.346C149.72 254.346 129.247 252.518 113.369 250.078C88.271 246.425 72.219 240.025 68.995 238.114L69.009 235.144C78.689 241.578 104.914 246.287 113.721 247.726C129.495 250.149 149.847 251.966 175.391 251.966C202.289 251.966 223.855 250.056 240.385 247.52C256.065 245.255 278.405 239.364 282.803 235.44V235.443H282.805ZM175.776 304.34C130.153 304.07 91.06 291.905 82.806 289.894L88.826 299.318C103.406 305.451 141.544 314.592 176.214 313.58C210.884 312.57 241.184 309.883 262.537 299.488L268.709 289.723C254.156 296.576 204.635 304.271 175.774 304.341" fill="#FFFF00"/>
<path d="M175.776 304.34C130.153 304.07 91.06 291.905 82.806 289.894L88.826 299.318C103.406 305.451 141.544 314.592 176.214 313.58C210.884 312.57 241.184 309.883 262.537 299.488L268.709 289.723C254.156 296.576 204.635 304.271 175.774 304.341M282.795 244.5V247.048C280.015 250.372 262.587 255.395 240.729 258.933C224.094 261.483 202.406 263.407 175.382 263.407C149.709 263.407 129.235 261.577 113.358 259.139C88.258 255.483 72.206 249.083 68.983 247.173L68.998 244.203C78.678 250.638 104.903 255.345 113.708 256.787C129.483 259.207 149.835 261.025 175.38 261.025C202.278 261.025 223.843 259.115 240.374 256.581C256.054 254.315 278.394 248.424 282.792 244.501L282.795 244.5ZM282.805 235.443V237.99C280.027 241.31 262.597 246.335 240.74 249.872C224.105 252.422 202.418 254.346 175.394 254.346C149.72 254.346 129.247 252.518 113.369 250.078C88.271 246.425 72.219 240.025 68.995 238.114L69.009 235.144C78.689 241.578 104.914 246.287 113.721 247.726C129.495 250.149 149.847 251.966 175.391 251.966C202.289 251.966 223.855 250.056 240.385 247.52C256.065 245.255 278.405 239.364 282.803 235.44V235.443H282.805Z" stroke="black" stroke-width="0.611" stroke-linecap="round" stroke-linejoin="round"/>
<path fill-rule="evenodd" clip-rule="evenodd" d="M264.853 297.3C263.953 298.678 263.03 300.04 262.083 301.386C252.013 304.936 236.143 308.666 229.447 309.753C215.767 312.571 194.604 314.653 175.822 314.663C135.406 314.071 102.322 306.159 86.7591 299.41L85.5021 297.25L85.7071 296.927L87.8371 297.753C115.515 307.655 146.601 311.606 176.047 312.315C194.757 312.381 213.483 310.171 228.627 307.463C251.849 302.81 261.239 299.303 264.12 297.713L264.854 297.303L264.853 297.3ZM270.205 288.474C270.228 288.502 270.252 288.528 270.275 288.557C269.586 289.722 268.888 290.882 268.182 292.037C262.81 293.957 248.232 298.222 226.945 301.199C212.92 303.109 204.202 304.959 176.301 305.501C124.019 304.171 90.1691 293.948 82.1271 291.426L80.9351 289.14C111.235 297.05 142.185 302.573 176.305 303.137C201.83 302.593 212.69 300.713 226.599 298.817C251.422 294.957 263.929 290.871 267.682 289.691C267.631 289.618 267.576 289.547 267.518 289.479L270.21 288.474L270.208 288.476L270.205 288.474Z" fill="#FFFF00" stroke="black" stroke-width="0.587" stroke-linecap="round" stroke-linejoin="round"/>
<path fill-rule="evenodd" clip-rule="evenodd" d="M270.752 237.61C270.9 267.623 255.542 294.556 243.17 306.437C225.668 323.247 202.463 334.06 175.363 334.557C145.103 335.114 116.569 315.387 108.915 306.719C93.952 289.774 81.77 268.257 81.379 239.259C83.232 206.502 96.091 183.685 114.731 168.039C133.371 152.392 158.191 144.771 178.861 145.316C202.708 145.946 230.566 157.646 249.816 180.87C262.426 196.09 267.888 212.603 270.751 237.61H270.752ZM175.62 134.847C233.738 134.847 281.536 182.141 281.536 240.13C281.536 298.117 233.738 345.413 175.62 345.413C117.503 345.413 70.1 298.118 70.1 240.129C70.1 182.139 117.503 134.845 175.62 134.845" fill="#FFFF00"/>
<path d="M175.62 134.847C233.738 134.847 281.536 182.141 281.536 240.13C281.536 298.117 233.738 345.413 175.62 345.413C117.503 345.413 70.1 298.118 70.1 240.129C70.1 182.139 117.503 134.845 175.62 134.845M270.752 237.61C270.9 267.623 255.542 294.556 243.17 306.437C225.668 323.247 202.463 334.06 175.363 334.557C145.103 335.114 116.569 315.387 108.915 306.719C93.952 289.774 81.77 268.257 81.379 239.259C83.232 206.502 96.091 183.685 114.731 168.039C133.371 152.392 158.191 144.771 178.861 145.316C202.708 145.946 230.566 157.646 249.816 180.87C262.426 196.09 267.888 212.603 270.751 237.61H270.752Z" stroke="black" stroke-width="0.611" stroke-linecap="round" stroke-linejoin="round"/>
<path fill-rule="evenodd" clip-rule="evenodd" d="M175.904 134.485C234.074 134.485 281.516 181.935 281.516 240.109C281.516 298.282 234.073 345.729 175.904 345.729C117.734 345.729 70.292 298.283 70.292 240.109C70.292 181.933 117.735 134.484 175.904 134.484V134.485ZM72.617 240.11C72.617 296.92 119.267 343.407 175.904 343.407C232.541 343.407 279.194 296.92 279.194 240.109C279.194 183.295 232.54 136.809 175.904 136.809C119.268 136.809 72.617 183.299 72.617 240.109V240.11Z" fill="#FFFF00" stroke="black" stroke-width="0.611" stroke-linecap="round" stroke-linejoin="round"/>
<path fill-rule="evenodd" clip-rule="evenodd" d="M175.99 143.264C229.036 143.264 272.73 186.806 272.73 240.014C272.73 293.224 229.035 336.764 175.99 336.764C122.944 336.764 79.25 293.224 79.25 240.014C79.25 186.806 122.945 143.264 175.99 143.264ZM81.573 240.014C81.573 291.944 124.218 334.44 175.989 334.44C227.759 334.44 270.404 291.945 270.404 240.014C270.404 188.084 227.761 145.588 175.988 145.588C124.216 145.588 81.571 188.083 81.571 240.014H81.573Z" fill="#FFFF00" stroke="black" stroke-width="0.611" stroke-linecap="round" stroke-linejoin="round"/>
<path fill-rule="evenodd" clip-rule="evenodd" d="M180.245 134.06H171.195L171.205 346.283H180.287L180.245 134.06Z" fill="#FFFF00" stroke="black" stroke-width="0.611" stroke-linecap="round" stroke-linejoin="round"/>
<path fill-rule="evenodd" clip-rule="evenodd" d="M179.34 132.85H181.642L181.662 347.516H179.356L179.34 132.849V132.85ZM170.356 132.85H172.678L172.681 347.518H170.358V132.85H170.356Z" fill="#FFFF00" stroke="black" stroke-width="0.611" stroke-linecap="round" stroke-linejoin="round"/>
<path fill-rule="evenodd" clip-rule="evenodd" d="M281.59 244.197V236.352L275.2 230.4L238.933 220.8L186.667 215.466L123.733 218.666L78.9329 229.333L69.8879 236.033V243.879L92.7999 233.6L147.2 225.066H199.467L237.867 229.333L264.533 235.733L281.59 244.197Z" fill="#FFFF00" stroke="black" stroke-width="0.611" stroke-linecap="round" stroke-linejoin="round"/>
<path fill-rule="evenodd" clip-rule="evenodd" d="M175.947 223.755C200.889 223.709 225.087 226.118 244.283 229.855C264.09 233.815 278.029 238.768 282.795 244.331L282.789 247.087C277.041 240.164 258.284 235.089 243.836 232.187C224.786 228.482 200.75 226.089 175.946 226.137C149.772 226.184 125.4 228.663 106.629 232.327C91.569 235.314 71.482 241.251 68.974 247.107V244.239C70.351 240.186 85.308 234.129 106.29 229.929C125.202 226.239 149.62 223.803 175.947 223.756V223.755ZM175.957 214.695C200.899 214.651 225.099 217.061 244.293 220.797C264.1 224.759 278.039 229.71 282.805 235.273L282.8 238.027C277.052 231.107 258.295 226.03 243.847 223.13C224.799 219.423 200.762 217.03 175.957 217.078C149.783 217.125 125.53 219.606 106.757 223.266C92.223 226.022 71.317 232.194 68.985 238.05V235.18C70.362 231.17 85.621 224.896 106.302 220.87C125.212 217.18 149.63 214.746 175.957 214.697V214.695ZM175.445 168.49C214.751 168.294 249.035 173.986 264.72 182.02L270.44 191.92C256.808 184.572 219.822 176.932 175.503 178.075C139.393 178.297 100.807 182.05 81.448 192.379L88.278 180.955C104.168 172.715 141.636 168.535 175.448 168.492" fill="#FFFF00"/>
<path d="M175.445 168.49C214.751 168.294 249.035 173.986 264.72 182.02L270.44 191.92C256.808 184.572 219.822 176.932 175.503 178.075C139.393 178.297 100.807 182.05 81.448 192.379L88.278 180.955C104.168 172.715 141.636 168.535 175.448 168.492M175.947 223.755C200.889 223.709 225.087 226.118 244.283 229.855C264.09 233.815 278.029 238.768 282.795 244.331L282.789 247.087C277.041 240.164 258.284 235.089 243.836 232.187C224.786 228.482 200.75 226.089 175.946 226.137C149.772 226.184 125.4 228.663 106.629 232.327C91.569 235.314 71.482 241.251 68.974 247.107V244.239C70.351 240.186 85.308 234.129 106.29 229.929C125.202 226.239 149.62 223.803 175.947 223.756V223.755ZM175.957 214.695C200.899 214.651 225.099 217.061 244.293 220.797C264.1 224.759 278.039 229.71 282.805 235.273L282.8 238.027C277.052 231.107 258.295 226.03 243.847 223.13C224.799 219.423 200.762 217.03 175.957 217.078C149.783 217.125 125.53 219.606 106.757 223.266C92.223 226.022 71.317 232.194 68.985 238.05V235.18C70.362 231.17 85.621 224.896 106.302 220.87C125.212 217.18 149.63 214.746 175.957 214.697V214.695Z" stroke="black" stroke-width="0.611" stroke-linecap="round" stroke-linejoin="round"/>
<path fill-rule="evenodd" clip-rule="evenodd" d="M175.968 176.66C198.386 176.602 220.048 177.866 237.276 180.975C253.319 183.961 268.62 188.442 270.806 190.852L272.504 193.85C267.184 190.375 253.944 186.507 236.942 183.283C219.869 180.073 198.222 179.011 175.929 179.07C150.624 178.983 130.966 180.32 114.094 183.26C96.251 186.6 83.871 191.37 80.817 193.635L82.479 190.467C88.413 187.439 97.829 183.79 113.651 180.942C131.098 177.755 150.966 176.799 175.968 176.662V176.66ZM175.958 167.61C197.412 167.555 218.595 168.75 235.108 171.72C248.13 174.254 261.008 178.212 265.725 181.734L268.205 185.676C263.988 180.988 248.115 176.546 234.1 174.056C217.715 171.231 197.412 170.113 175.958 169.934C153.443 169.997 132.635 171.376 116.488 174.316C101.085 177.246 91.145 180.718 86.938 183.428L89.121 180.136C94.926 177.08 104.303 174.274 116.111 171.979C132.377 169.017 153.313 167.673 175.961 167.609L175.958 167.61ZM228.427 284.01C208.994 280.383 189.527 279.856 175.929 280.016C110.427 280.784 89.267 293.466 86.685 297.306L81.79 289.326C98.467 277.238 134.135 270.46 176.283 271.153C198.169 271.511 217.056 272.965 232.943 276.043L228.425 284.013" fill="#FFFF00"/>
<path d="M228.427 284.01C208.994 280.383 189.527 279.856 175.929 280.016C110.427 280.784 89.267 293.466 86.685 297.306L81.79 289.326C98.467 277.238 134.135 270.46 176.283 271.153C198.169 271.511 217.056 272.965 232.943 276.043L228.425 284.013M175.968 176.66C198.386 176.602 220.048 177.866 237.276 180.975C253.319 183.961 268.62 188.442 270.806 190.852L272.504 193.85C267.184 190.375 253.944 186.507 236.942 183.283C219.869 180.073 198.222 179.011 175.929 179.07C150.624 178.983 130.966 180.32 114.094 183.26C96.251 186.6 83.871 191.37 80.817 193.635L82.479 190.467C88.413 187.439 97.829 183.79 113.651 180.942C131.098 177.755 150.966 176.799 175.968 176.662V176.66ZM175.958 167.61C197.412 167.555 218.595 168.75 235.108 171.72C248.13 174.254 261.008 178.212 265.725 181.734L268.205 185.676C263.988 180.988 248.115 176.546 234.1 174.056C217.715 171.231 197.412 170.113 175.958 169.934C153.443 169.997 132.635 171.376 116.488 174.316C101.085 177.246 91.145 180.718 86.938 183.428L89.121 180.136C94.926 177.08 104.303 174.274 116.111 171.979C132.377 169.017 153.313 167.673 175.961 167.609L175.958 167.61Z" stroke="black" stroke-width="0.611" stroke-linecap="round" stroke-linejoin="round"/>
<path fill-rule="evenodd" clip-rule="evenodd" d="M175.552 278.89C193.772 279.163 211.658 279.915 228.922 283.134L227.67 285.341C211.637 282.383 194.545 281.251 175.614 281.341C151.44 281.153 126.99 283.411 105.704 289.521C98.987 291.389 87.868 295.707 86.734 299.276L85.49 297.226C85.85 295.116 92.57 290.738 105.132 287.209C129.514 280.227 152.32 279.049 175.552 278.889V278.892V278.89ZM176.379 269.72C195.256 270.074 214.751 270.947 233.701 274.7L232.4 277C215.288 273.603 198.94 272.47 176.49 272.125C152.24 272.169 126.516 273.898 103.127 280.698C95.577 282.898 82.544 287.653 82.109 291.418L80.865 289.215C81.148 285.795 92.43 281.335 102.58 278.382C126.15 271.529 151.94 269.767 176.38 269.722L176.379 269.72Z" fill="#FFFF00" stroke="black" stroke-width="0.587" stroke-linecap="round" stroke-linejoin="round"/>
<path fill-rule="evenodd" clip-rule="evenodd" d="M269.42 290.54L261.548 302.75L238.933 282.667L180.267 243.2L114.133 206.933L79.797 195.189L87.115 181.619L89.6 180.266L110.933 185.599L181.333 221.866L221.867 247.466L256 272L269.867 288L269.42 290.54Z" fill="#FFFF00" stroke="black" stroke-width="0.611" stroke-linecap="round" stroke-linejoin="round"/>
<path fill-rule="evenodd" clip-rule="evenodd" d="M78.56 195.51C84.582 191.425 128.842 211.14 175.152 239.066C221.34 267.07 265.474 298.716 261.49 304.636L260.18 306.698L259.58 307.172C259.708 307.08 260.372 306.268 259.514 304.072C257.546 297.597 226.239 272.615 174.294 241.252C123.654 211.055 81.45 192.855 77.23 198.057L78.56 195.509V195.51ZM271.03 290.365C274.837 282.843 233.786 251.918 182.89 221.808C130.82 192.298 93.295 174.928 86.44 180.108L84.918 182.878C84.904 183.031 84.973 182.69 85.295 182.442C86.541 181.354 88.607 181.427 89.539 181.412C101.341 181.587 135.049 197.1 182.345 224.214C203.068 236.284 269.887 279.137 269.632 291.189C269.65 292.223 269.718 292.437 269.328 292.949L271.028 290.365V290.362L271.03 290.365Z" fill="#FFFF00" stroke="black" stroke-width="0.611" stroke-linecap="round" stroke-linejoin="round"/>
<path d="M112.641 251.745C112.641 269.1 119.748 284.798 131.262 296.27C142.798 307.767 158.474 315.022 175.859 315.022C193.331 315.022 209.188 307.924 220.675 296.473C232.163 285.022 239.281 269.217 239.284 251.801H239.282V167.331L112.626 167.182L112.639 251.745H112.641V251.745Z" fill="white" stroke="black" stroke-width="0.714669"/>
<path d="M115.009 251.863V251.911C115.009 268.505 121.878 283.616 132.902 294.588C143.946 305.579 159.157 312.412 175.797 312.412C192.523 312.412 207.701 305.628 218.699 294.679C229.696 283.729 236.51 268.617 236.512 251.965H236.51V170.017L115.08 169.996L115.005 251.863H115.009ZM212.096 194.531L212.1 246.681L212.058 252.199C212.058 253.649 211.97 255.305 211.802 256.714C210.814 264.959 207.023 272.145 201.406 277.736C194.831 284.281 185.758 288.34 175.756 288.34C165.808 288.34 156.942 284.14 150.339 277.567C143.566 270.826 139.64 261.582 139.64 252.024L139.626 194.4L212.096 194.53V194.532V194.531Z" fill="#FF0000" stroke="black" stroke-width="0.540802"/>
<path d="M122.87 191.393C123.014 185.505 127.192 184.11 127.222 184.089C127.254 184.068 131.736 185.59 131.721 191.447L122.87 191.394" fill="#FFFF00"/>
<path d="M119.265 184.203L118.537 190.971L122.953 190.982C122.996 185.382 127.193 184.45 127.295 184.471C127.391 184.467 131.551 185.709 131.66 190.982H136.089L135.289 184.162L119.266 184.202V184.205L119.265 184.203ZM118.241 190.998H136.316C136.697 190.998 137.01 191.375 137.01 191.834C137.01 192.293 136.697 192.666 136.316 192.666H118.241C117.86 192.666 117.547 192.293 117.547 191.834C117.547 191.376 117.86 190.998 118.241 190.998Z" fill="#FFFF00" stroke="black" stroke-width="0.533335"/>
<path d="M124.811 190.966C124.831 187.432 127.224 186.433 127.237 186.435C127.237 186.435 129.735 187.465 129.754 190.966H124.811ZM118.625 181.387H135.953C136.318 181.387 136.617 181.727 136.617 182.139C136.617 182.552 136.319 182.89 135.953 182.89H118.625C118.26 182.89 117.96 182.553 117.96 182.138C117.96 181.726 118.259 181.386 118.625 181.386V181.387ZM118.987 182.902H135.561C135.91 182.902 136.196 183.24 136.196 183.653C136.196 184.067 135.91 184.404 135.561 184.404H118.987C118.639 184.404 118.353 184.067 118.353 183.653C118.353 183.24 118.639 182.902 118.987 182.902V182.902ZM124.342 171.606L125.651 171.608V172.536H126.606V171.587L127.946 171.592V172.538H128.902V171.589H130.244L130.242 173.733C130.242 174.071 129.971 174.288 129.655 174.288H124.951C124.635 174.288 124.343 174.036 124.343 173.728L124.339 171.605L124.342 171.606ZM129.27 174.475L129.566 181.355L124.976 181.339L125.28 174.457L129.269 174.475" fill="#FFFF00"/>
<path d="M129.27 174.475L129.566 181.355L124.976 181.339L125.28 174.457L129.269 174.475M124.811 190.966C124.831 187.432 127.224 186.433 127.237 186.435C127.237 186.435 129.735 187.465 129.754 190.966H124.811ZM118.625 181.387H135.953C136.318 181.387 136.617 181.727 136.617 182.139C136.617 182.552 136.319 182.89 135.953 182.89H118.625C118.26 182.89 117.96 182.553 117.96 182.138C117.96 181.726 118.259 181.386 118.625 181.386V181.387ZM118.987 182.902H135.561C135.91 182.902 136.196 183.24 136.196 183.653C136.196 184.067 135.91 184.404 135.561 184.404H118.987C118.639 184.404 118.353 184.067 118.353 183.653C118.353 183.24 118.639 182.902 118.987 182.902V182.902ZM124.342 171.606L125.651 171.608V172.536H126.606V171.587L127.946 171.592V172.538H128.902V171.589H130.244L130.242 173.733C130.242 174.071 129.971 174.288 129.655 174.288H124.951C124.635 174.288 124.343 174.036 124.343 173.728L124.339 171.605L124.342 171.606Z" stroke="black" stroke-width="0.533335"/>
<path d="M123.67 177.665L123.809 181.375H119.41L119.534 177.665H123.672H123.67Z" fill="#FFFF00" stroke="black" stroke-width="0.533335"/>
<path d="M118.721 174.977L120.001 174.98V175.91H120.936V174.959L122.248 174.963V175.912H123.187V174.959L124.499 174.961L124.496 177.107C124.496 177.442 124.229 177.66 123.924 177.66H119.319C119.01 177.66 118.724 177.409 118.724 177.1L118.721 174.977V174.977Z" fill="#FFFF00" stroke="black" stroke-width="0.533335"/>
<path d="M126.827 176.651C126.8 175.983 127.763 175.975 127.751 176.651V178.29H126.827V176.651Z" fill="black"/>
<path d="M121.142 179.03C121.139 178.384 122.035 178.371 122.023 179.03V180.296H121.142V179.03Z" fill="black"/>
<path d="M168.146 242.568V242.573C168.137 244.821 168.98 246.99 170.505 248.642C171.961 250.207 173.967 251.179 176.161 251.179C178.366 251.179 180.368 250.213 181.817 248.656C183.266 247.099 184.166 244.953 184.166 242.584V231.098L168.175 231.084L168.145 242.566" fill="#003399"/>
<path d="M171.813 237.037C172.689 237.037 173.398 236.327 173.398 235.452C173.398 234.576 172.689 233.867 171.813 233.867C170.938 233.867 170.228 234.576 170.228 235.452C170.228 236.327 170.938 237.037 171.813 237.037Z" fill="white"/>
<path d="M180.686 237.044C181.561 237.044 182.271 236.335 182.271 235.459C182.271 234.584 181.561 233.874 180.686 233.874C179.81 233.874 179.101 234.584 179.101 235.459C179.101 236.335 179.81 237.044 180.686 237.044Z" fill="white"/>
<path d="M176.241 241.303C177.116 241.303 177.826 240.594 177.826 239.718C177.826 238.843 177.116 238.133 176.241 238.133C175.365 238.133 174.656 238.843 174.656 239.718C174.656 240.594 175.365 241.303 176.241 241.303Z" fill="white"/>
<path d="M171.813 245.763C172.689 245.763 173.398 245.054 173.398 244.178C173.398 243.303 172.689 242.593 171.813 242.593C170.938 242.593 170.228 243.303 170.228 244.178C170.228 245.054 170.938 245.763 171.813 245.763Z" fill="white"/>
<path d="M180.676 245.751C181.551 245.751 182.261 245.042 182.261 244.166C182.261 243.291 181.551 242.581 180.676 242.581C179.801 242.581 179.091 243.291 179.091 244.166C179.091 245.042 179.801 245.751 180.676 245.751Z" fill="white"/>
</g>
<defs>
<clipPath id="clip0_77_258">
<rect width="480" height="480" rx="240" fill="white"/>
</clipPath>
</defs>
</svg>
