<svg width="480" height="480" viewBox="0 0 480 480" fill="none" xmlns="http://www.w3.org/2000/svg">
<g clip-path="url(#clip0_77_258)">
<g clip-path="url(#clip1_77_258)">
<path fill-rule="evenodd" clip-rule="evenodd" d="M-80 0H832V37H-80V0ZM-80 73.9H832V110.9H-80V73.9ZM-80 147.7H832V184.7H-80V147.7ZM-80 221.5H832V258.5H-80V221.5ZM-80 295.5H832V332.3H-80V295.5ZM-80 369.2H832V406.2H-80V369.2ZM-80 443H832V480H-80V443Z" fill="#BD3D44"/>
<path fill-rule="evenodd" clip-rule="evenodd" d="M-80 37H832V73.9H-80V37ZM-80 110.8H832V147.7H-80V110.8ZM-80 184.6H832V221.6H-80V184.6ZM-80 258.5H832V295.5H-80V258.5ZM-80 332.3H832V369.3H-80V332.3ZM-80 406.1H832V443.1H-80V406.1Z" fill="white"/>
<path fill-rule="evenodd" clip-rule="evenodd" d="M-80 0H284.8V258.5H-80V0Z" fill="#192F5D"/>
<path fill-rule="evenodd" clip-rule="evenodd" d="M-49.6 11L-46.2 21.3H-35.5999L-44.2 27.6L-40.9 37.9L-49.6 31.5L-58.2 37.8L-55 27.6L-63.7 21.3H-52.7999L-49.6 11ZM11.2 11L14.5 21.3H25.3L16.6001 27.6L19.8 37.9L11.2 31.5L2.50005 37.8L5.80005 27.6L-2.79995 21.3H7.80005L11.2 11ZM72 11L75.3 21.3H86L77.4 27.6L80.7 37.9L72 31.5L63.3 37.8L66.6001 27.6L57.9 21.3H68.7L72 11ZM132.8 11L136.1 21.3H146.9L138.2 27.6L141.5 37.9L132.8 31.5L124.1 37.8L127.5 27.6L118.7 21.3H129.4L132.8 11ZM193.6 11L196.9 21.3H207.6L199 27.6L202.3 37.9L193.6 31.5L184.9 37.8L188.2 27.6L179.6 21.3H190.3L193.6 11ZM254.4 11L257.7 21.3H268.5L259.7 27.6L263.1 37.9L254.4 31.5L245.7 37.8L249.1 27.6L240.3 21.3H251.1L254.4 11ZM-19.2 37L-15.9 47.2H-4.99995L-13.6999 53.4L-10.5 63.7L-19 57.4L-27.7 63.7L-24.5999 53.4L-33 47.2H-22.2999L-19.2 37ZM41.6001 37L45 47.2H55.7L46.9001 53.4L50.3 63.7L41.6001 57.4L32.9001 63.7L36.2 53.4L27.5 47.2H38.3L41.6001 37ZM102.4 37L105.7 47.2H116.5L107.8 53.4L111.1 63.7L102.4 57.4L93.7 63.7L97 53.4L88.4 47.2H99L102.4 37ZM163.2 37L166.6 47.2H177.3L168.5 53.4L171.9 63.7L163.2 57.4L154.6 63.7L157.8 53.4L149.1 47.2H160L163.2 37ZM224 37L227.3 47.2H238.1L229.4 53.4L232.7 63.7L224 57.4L215.3 63.7L218.6 53.4L210 47.2H220.7L224 37ZM-49.6 62.6L-46.2 73H-35.5999L-44.2 79.3L-40.9 89.5L-49.6 83.2L-58.2 89.5L-55 79.3L-63.7 73H-52.7999L-49.6 62.6ZM11.2 62.6L14.5 73H25.3L16.6001 79.3L19.8 89.5L11.2 83.2L2.50005 89.5L5.80005 79.2L-2.79995 72.9H7.80005L11.2 62.6ZM72 62.6L75.3 72.9H86L77.4 79.2L80.7 89.4L72 83.1L63.3 89.4L66.6001 79.1L57.9 72.8H68.7L72 62.6ZM132.8 62.6L136.1 72.9H146.9L138.2 79.2L141.5 89.4L132.8 83.1L124.1 89.4L127.5 79.1L118.7 72.8H129.4L132.8 62.6ZM193.6 62.6L196.9 72.9H207.6L199 79.2L202.3 89.4L193.6 83.1L184.9 89.4L188.2 79.1L179.6 72.8H190.3L193.6 62.6ZM254.4 62.6L257.7 72.9H268.5L259.7 79.2L263.1 89.4L254.4 83.1L245.7 89.4L249.1 79.1L240.3 72.8H251.1L254.4 62.6ZM-19.2 88.6L-15.9 98.8H-4.99995L-13.6999 105.1L-10.4 115.4L-19.0999 109L-27.7999 115.3L-24.5 105.1L-33.0999 98.8H-22.4L-19.2 88.6ZM41.6001 88.6L45 98.8H55.7L46.9001 105.1L50.3 115.4L41.6001 109L32.9001 115.3L36.2 105.1L27.5 98.8H38.3L41.6001 88.6ZM102.4 88.6L105.7 98.8H116.5L107.8 105.1L111.1 115.4L102.4 109L93.7 115.3L97 105.1L88.4 98.8H99L102.4 88.6ZM163.2 88.6L166.6 98.8H177.3L168.6 105.1L171.9 115.4L163.2 109L154.6 115.3L157.8 105.1L149.1 98.8H160L163.2 88.6ZM224 88.6L227.3 98.8H238.1L229.4 105.1L232.7 115.4L224 109L215.3 115.3L218.6 105.1L210 98.8H220.7L224 88.6ZM-49.6 114.5L-46.2 124.7H-35.5999L-44.2 131L-40.9 141.3L-49.6 134.9L-58.2 141.2L-55 131L-63.7 124.7H-52.7999L-49.6 114.5ZM11.2 114.5L14.5 124.7H25.3L16.6001 131L19.8 141.2L11.2 134.9L2.50005 141.2L5.80005 131L-2.79995 124.7H7.80005L11.2 114.5ZM72 114.5L75.3 124.7H86L77.4 131L80.7 141.3L72 134.9L63.3 141.2L66.6001 131L57.9 124.7H68.7L72 114.5ZM132.8 114.5L136.1 124.7H146.9L138.2 131L141.5 141.3L132.8 134.9L124.1 141.2L127.5 131L118.7 124.7H129.4L132.8 114.5ZM193.6 114.5L196.9 124.7H207.6L199 131L202.3 141.3L193.6 134.9L184.9 141.2L188.2 131L179.6 124.7H190.3L193.6 114.5ZM254.4 114.5L257.7 124.7H268.5L259.7 131L263.1 141.3L254.4 134.9L245.7 141.2L249 131L240.2 124.7H251L254.4 114.5ZM-19.2 140.3L-15.9 150.6H-4.99995L-13.6999 156.8L-10.4 167.1L-19.0999 160.7L-27.7999 167.1L-24.5 156.8L-33.0999 150.5H-22.4L-19.2 140.3ZM41.6001 140.3L45 150.6H55.7L46.9001 156.8L50.3 167.1L41.6001 160.7L32.9001 167.1L36.2 156.8L27.5 150.5H38.3L41.6001 140.3ZM102.4 140.3L105.7 150.6H116.5L107.8 156.8L111.1 167.1L102.4 160.7L93.7 167.1L97 156.8L88.4 150.5H99L102.4 140.3ZM163.2 140.3L166.6 150.6H177.3L168.6 156.8L171.9 167.1L163.2 160.7L154.6 167.1L157.8 156.8L149.1 150.5H160L163.2 140.3ZM224 140.3L227.3 150.6H238.1L229.4 156.8L232.7 167.1L224 160.7L215.3 167.1L218.6 156.8L210 150.5H220.7L224 140.3ZM-49.6 166.1L-46.2 176.4H-35.5999L-44.2 182.7L-40.9 192.8L-49.6 186.6L-58.2 192.8L-55 182.6L-63.7 176.3H-52.7999L-49.6 166.1ZM11.2 166.1L14.5 176.4H25.3L16.6001 182.7L19.9001 192.8L11.2 186.6L2.50005 192.8L5.90005 182.6L-2.79995 176.3H7.80005L11.2 166.1ZM72 166.1L75.3 176.4H86L77.4 182.7L80.7 192.8L72 186.6L63.3 192.8L66.6001 182.6L57.9 176.3H68.7L72 166.1ZM132.8 166.1L136.1 176.4H146.9L138.2 182.7L141.5 192.8L132.8 186.6L124.1 192.8L127.5 182.6L118.7 176.3H129.4L132.8 166.1ZM193.6 166.1L196.9 176.4H207.6L199 182.7L202.3 192.8L193.6 186.6L184.9 192.8L188.2 182.6L179.6 176.3H190.3L193.6 166.1ZM254.4 166.1L257.7 176.4H268.5L259.7 182.7L263.1 192.8L254.4 186.6L245.7 192.8L249.1 182.6L240.3 176.3H251.1L254.4 166.1ZM-19.2 192L-15.9 202.2H-4.99995L-13.6999 208.5L-10.4 218.8L-19.0999 212.4L-27.7999 218.7L-24.5 208.5L-33.0999 202.2H-22.4L-19.2 192ZM41.6001 192L45 202.2H55.7L46.9001 208.5L50.3 218.8L41.6001 212.4L32.9001 218.7L36.2 208.5L27.5 202.2H38.3L41.6001 192ZM102.4 192L105.7 202.2H116.5L107.8 208.5L111.1 218.8L102.4 212.4L93.7 218.7L97 208.5L88.4 202.2H99L102.4 192ZM163.2 192L166.6 202.2H177.3L168.6 208.5L171.9 218.8L163.2 212.4L154.6 218.7L157.8 208.5L149.1 202.2H160L163.2 192ZM224 192L227.3 202.2H238.1L229.4 208.5L232.7 218.8L224 212.4L215.3 218.7L218.6 208.5L210 202.2H220.7L224 192ZM-49.6 217.9L-46.2 228.1H-35.5999L-44.2 234.4L-40.9 244.6L-49.6 238.3L-58.2 244.6L-55 234.3L-63.7 228H-52.7999L-49.6 217.9ZM11.2 217.9L14.5 228.1H25.3L16.6001 234.4L19.9001 244.6L11.2 238.3L2.50005 244.6L5.90005 234.3L-2.79995 228H7.80005L11.2 217.9ZM72 217.9L75.3 228.1H86L77.6001 234.4L80.9 244.6L72.2 238.3L63.5 244.6L66.8 234.3L58.1001 228H68.9L72 217.9ZM132.8 217.9L136.1 228.1H146.9L138.2 234.4L141.5 244.6L132.8 238.3L124.1 244.6L127.5 234.3L118.7 228H129.4L132.8 217.9ZM193.6 217.9L196.9 228.1H207.6L199 234.4L202.3 244.6L193.6 238.3L184.9 244.6L188.2 234.3L179.6 228H190.3L193.6 217.9ZM254.4 217.9L257.7 228.1H268.5L259.7 234.4L263.1 244.6L254.4 238.3L245.7 244.6L249.1 234.3L240.3 228H251.1L254.4 217.9Z" fill="white"/>
</g>
</g>
<defs>
<clipPath id="clip0_77_258">
<rect width="480" height="480" rx="240" fill="white"/>
</clipPath>
<clipPath id="clip1_77_258">
<rect width="640" height="480" fill="white" transform="translate(-80)"/>
</clipPath>
</defs>
</svg>
