<?xml version="1.0" encoding="UTF-8" standalone="no"?>
<!DOCTYPE svg PUBLIC "-//W3C//DTD SVG 1.1//EN" "http://www.w3.org/Graphics/SVG/1.1/DTD/svg11.dtd">
<svg width="100%" height="100%" viewBox="0 0 1440 900" version="1.1" xmlns="http://www.w3.org/2000/svg" xmlns:xlink="http://www.w3.org/1999/xlink" xml:space="preserve" xmlns:serif="http://www.serif.com/" style="fill-rule:evenodd;clip-rule:evenodd;stroke-linejoin:round;stroke-miterlimit:2;">
    <g opacity="0.24">
        <g transform="matrix(4.16667,0,0,4.16667,1219.86,237.535)">
            <path d="M0,0.244L68.893,-68.649L36.65,-68.649L-16.12,-15.877L0,0.244ZM-7.864,72.115L16.133,48.118L-39.927,-7.942C-44.309,-12.323 -44.309,-19.431 -39.927,-23.813L23.941,-87.683C25.982,-89.791 28.84,-91.101 32.004,-91.101L96,-91.101C102.198,-91.101 107.226,-86.073 107.226,-79.875C107.226,-76.616 105.835,-73.683 103.618,-71.632L103.624,-71.625L79.874,-47.875L135.934,8.186C140.315,12.568 140.315,19.676 135.934,24.058L71.938,88.055C69.747,90.246 66.875,91.34 64.002,91.34L64.002,91.345L0.007,91.345C-6.192,91.345 -11.22,86.318 -11.22,80.119C-11.22,76.987 -9.934,74.153 -7.863,72.117L-7.864,72.115ZM96.005,0.001L27.112,68.893L59.356,68.893L112.126,16.122L96.005,0.001ZM15.878,16.122L32.004,32.248L80.128,-15.877L64.002,-32.003L15.878,16.122Z" style="fill:rgb(47,178,126);"/>
        </g>
    </g>
    <rect x="0" y="0" width="1440" height="900" style="fill:none;"/>
</svg>
