<svg width="100" height="30" viewBox="0 0 100 30" fill="none" xmlns="http://www.w3.org/2000/svg">
<g clip-path="url(#clip0)">
<path fill-rule="evenodd" clip-rule="evenodd" d="M57.3682 3.25361V1.00703C57.3709 0.662977 57.6283 0.435259 57.9373 0.435259H68.0134C68.3358 0.435259 68.5932 0.671078 68.5932 1.00433V2.93116C68.5905 3.25361 68.3194 3.67642 67.8345 4.34584L62.6174 11.7984C64.5526 11.7525 66.6041 12.0424 68.3628 13.0315C68.7586 13.2539 68.8669 13.5844 68.8968 13.9096V16.308C68.8968 16.6386 68.5363 17.0209 68.1569 16.8202C65.0539 15.1969 60.9399 15.018 57.5118 16.842C57.1594 17.0263 56.7935 16.6496 56.7935 16.3188V14.0396C56.7935 13.674 56.7991 13.0504 57.1677 12.4951L63.2137 3.8202H57.9508C57.6283 3.8202 57.3709 3.58978 57.3682 3.25361ZM20.6174 17.2936H17.5522C17.2597 17.2747 17.0266 17.0553 17.005 16.7761V1.04416C17.005 0.729808 17.2705 0.477788 17.5983 0.477788H20.452C20.7502 0.491289 20.9914 0.719007 21.0103 1.00635V3.06054H21.0672C21.8098 1.07409 23.2137 0.147237 25.0998 0.147237C27.0185 0.147237 28.219 1.07409 29.0781 3.06054C29.8206 1.07409 31.5092 0.147237 33.3113 0.147237C34.5984 0.147237 36.0023 0.675578 36.8587 1.86795C37.8317 3.1906 37.6337 5.11203 37.6337 6.80034L37.631 16.7272C37.631 17.0416 37.3655 17.2936 37.0403 17.2936H33.9778C33.6689 17.2747 33.4279 17.0308 33.4279 16.7299V8.38851C33.4279 7.72719 33.4846 6.07128 33.341 5.44258C33.1106 4.38297 32.425 4.08482 31.5389 4.08482C30.7936 4.08482 30.0213 4.58076 29.707 5.37755C29.3924 6.17164 29.4223 7.49407 29.4223 8.38851V16.7272C29.4223 17.0416 29.1568 17.2936 28.8315 17.2936H25.7692C25.4602 17.2747 25.219 17.0308 25.219 16.7299L25.2163 8.38851C25.2163 6.63495 25.501 4.05242 23.3275 4.05242C21.1241 4.05242 21.2108 6.56722 21.2108 8.38851L21.2081 16.7272C21.2081 17.0416 20.9453 17.2936 20.6174 17.2936ZM77.2656 0.145436C81.816 0.145436 84.2765 4.05332 84.2765 9.01834C84.2765 13.8177 81.5583 17.6255 77.2656 17.6255C72.8022 17.6255 70.3713 13.7174 70.3713 8.85295C70.3713 3.95319 72.8319 0.145436 77.2656 0.145436ZM77.2956 3.35689C75.0353 3.35689 74.8917 6.43559 74.8917 8.35431C74.8917 10.2757 74.8645 14.3814 77.2656 14.3814C79.6423 14.3814 79.7561 11.0698 79.7561 9.05074C79.7561 7.72561 79.6992 6.13744 79.2982 4.88004C78.954 3.7878 78.2683 3.35689 77.2956 3.35689ZM90.1765 17.2936H87.1221C86.8158 17.2747 86.5719 17.0308 86.5719 16.7299L86.5665 0.989928C86.5938 0.702806 86.8485 0.477788 87.1574 0.477788H90.0003C90.2658 0.491289 90.4881 0.672878 90.5448 0.916798V3.32336H90.6018C91.4609 1.17152 92.6616 0.147237 94.7781 0.147237C96.1521 0.147237 97.4963 0.643176 98.3552 2.00093C99.1574 3.25833 99.1574 5.37755 99.1574 6.9007V16.7977C99.1223 17.0769 98.873 17.2936 98.5694 17.2936H95.4961C95.2117 17.2747 94.984 17.0661 94.9516 16.7977V8.25575C94.9516 6.53482 95.1521 4.01979 93.0329 4.01979C92.2903 4.01979 91.6018 4.51573 91.2604 5.27742C90.8322 6.23667 90.7726 7.19592 90.7726 8.25575V16.7272C90.7672 17.0416 90.5016 17.2936 90.1765 17.2936ZM52.4268 17.2542C52.2236 17.4356 51.9309 17.4493 51.7034 17.3246C50.6843 16.479 50.5027 16.0889 49.9471 15.284C48.2642 16.9966 47.0718 17.5116 44.893 17.5116C42.3129 17.5116 40.3049 15.9181 40.3049 12.7338C40.3049 10.246 41.6516 8.5548 43.573 7.72291C45.237 6.99385 47.5597 6.86109 49.3373 6.6633V6.2648C49.3373 5.53304 49.3943 4.67122 48.9633 4.04252C48.5921 3.47615 47.874 3.24596 47.2426 3.24596C46.0746 3.24596 45.0366 3.84473 44.7791 5.08593C44.7276 5.36247 44.5244 5.6361 44.2479 5.6496L41.2776 5.32715C41.0256 5.27022 40.7466 5.06973 40.8197 4.68765C41.5027 1.08331 44.7575 -0.00622559 47.6735 -0.00622559C49.1641 -0.00622559 51.1152 0.392056 52.2887 1.51962C53.7819 2.91248 53.6383 4.77158 53.6383 6.79606V11.5712C53.6383 13.0075 54.2346 13.6362 54.7956 14.4113C54.9907 14.6904 55.0339 15.0211 54.7846 15.2243C54.1586 15.75 53.0447 16.7176 52.4351 17.2623L52.4268 17.2542ZM49.3373 9.7798V9.11847C47.118 9.11847 44.7764 9.59281 44.7764 12.2026C44.7764 13.5306 45.4648 14.4248 46.6409 14.4248C47.5028 14.4248 48.275 13.8936 48.7629 13.0318C49.3646 11.9694 49.3373 10.9749 49.3373 9.7798ZM12.2461 17.2542C12.0426 17.4356 11.7501 17.4493 11.5224 17.3246C10.5035 16.479 10.3219 16.0889 9.76367 15.284C8.08346 16.9966 6.89086 17.5116 4.71202 17.5116C2.13196 17.5116 0.123901 15.9181 0.123901 12.7338C0.123901 10.246 1.47086 8.5548 3.39229 7.72291C5.05629 6.99385 7.3787 6.86109 9.15657 6.6633V6.2648C9.15657 5.53304 9.2135 4.67122 8.78259 4.04252C8.41131 3.47615 7.69305 3.24596 7.06165 3.24596C5.89358 3.24596 4.85288 3.84473 4.59816 5.08593C4.54663 5.36247 4.34344 5.6361 4.06711 5.6496L1.09688 5.32715C0.844859 5.27022 0.565611 5.06973 0.638742 4.68765C1.32167 1.08331 4.57655 -0.00622559 7.49256 -0.00622559C8.98308 -0.00622559 10.9344 0.392056 12.1106 1.51962C13.6011 2.91248 13.4573 4.77158 13.4573 6.79606V11.5712C13.4573 13.0075 14.0536 13.6362 14.6146 14.4113C14.8097 14.6904 14.8531 15.0211 14.6038 15.2243C13.9778 15.75 12.864 16.7176 12.2542 17.2623L12.2461 17.2542ZM9.15657 9.7798V9.11847C6.93969 9.11847 4.59546 9.59281 4.59546 12.2026C4.59546 13.5306 5.28378 14.4248 6.45995 14.4248C7.32177 14.4248 8.09426 13.8936 8.5821 13.0318C9.18357 11.9694 9.15657 10.9749 9.15657 9.7798Z" fill="#43455B"/>
<path fill-rule="evenodd" clip-rule="evenodd" d="M61.5626 23.3331C55.8091 27.5796 47.4675 29.8372 40.2831 29.8372C30.2154 29.8372 21.1503 26.1163 14.2884 19.9211C13.7517 19.436 14.2314 18.7693 14.879 19.146C22.2803 23.455 31.435 26.0486 40.8875 26.0486C47.2643 26.0486 54.2752 24.726 60.7251 21.9888C61.6981 21.5771 62.5137 22.6313 61.5626 23.3331ZM63.9572 20.6C63.2201 19.657 59.0926 20.1527 57.2362 20.375C56.6752 20.4427 56.5886 19.9522 57.0953 19.5973C60.388 17.2828 65.7837 17.9522 66.4124 18.7247C67.044 19.5078 66.2472 24.917 63.1604 27.4997C62.6861 27.8983 62.2336 27.684 62.4449 27.1611C63.1386 25.4267 64.6944 21.5431 63.9572 20.6Z" fill="#43455B"/>
</g>
<defs>
<clipPath id="clip0">
<rect width="100" height="30" fill="white"/>
</clipPath>
</defs>
</svg>
