<svg width="111" height="37" viewBox="0 0 111 37" fill="none" xmlns="http://www.w3.org/2000/svg">
<path fill-rule="evenodd" clip-rule="evenodd" d="M43.5056 19.2631C43.5056 16.0224 41.154 13.8049 38.4247 13.8049C35.6954 13.8049 33.3438 16.0224 33.3438 19.2631C33.3438 22.4717 35.6954 24.7218 38.4247 24.7218C41.154 24.7218 43.5056 22.468 43.5056 19.2631ZM47.4615 19.2631C47.4615 24.45 43.4041 28.2719 38.4247 28.2719C33.4453 28.2719 29.3879 24.45 29.3879 19.2631C29.3879 14.04 33.4453 10.2547 38.4247 10.2547C43.4041 10.2547 47.4615 14.04 47.4615 19.2631Z" fill="#43455B"/>
<path fill-rule="evenodd" clip-rule="evenodd" d="M63.0008 19.2631C63.0008 16.0224 60.6492 13.8049 57.9199 13.8049C55.1906 13.8049 52.839 16.0224 52.839 19.2631C52.839 22.4717 55.1906 24.7218 57.9199 24.7218C60.6492 24.7218 63.0008 22.468 63.0008 19.2631ZM66.9567 19.2631C66.9567 24.45 62.8993 28.2719 57.9199 28.2719C52.9405 28.2719 48.8831 24.45 48.8831 19.2631C48.8831 14.0441 52.9405 10.2547 57.9199 10.2547C62.8993 10.2547 66.9567 14.04 66.9567 19.2631Z" fill="#43455B"/>
<mask id="mask0" mask-type="alpha" maskUnits="userSpaceOnUse" x="68" y="10" width="18" height="27">
<path d="M68.37 10.255H85.639V36.342H68.37V10.255Z" fill="white"/>
</mask>
<g mask="url(#mask0)">
<path fill-rule="evenodd" clip-rule="evenodd" d="M82.1623 19.2955C82.1623 16.1235 80.0463 13.8044 77.3531 13.8044C74.6238 13.8044 72.3376 16.1235 72.3376 19.2955C72.3376 22.4351 74.6238 24.7217 77.3531 24.7217C80.0463 24.7217 82.1623 22.4351 82.1623 19.2955ZM85.639 10.7989V26.9718C85.639 33.6245 81.7152 36.342 77.0769 36.342C72.7108 36.342 70.0835 33.4214 69.092 31.0333L72.5366 29.5995C73.1499 31.0657 74.6526 32.7959 77.0733 32.7959C80.0418 32.7959 81.8821 30.9642 81.8821 27.516V26.2204H81.744C80.8586 27.3129 79.1528 28.2674 77.0002 28.2674C72.4956 28.2674 68.3695 24.3444 68.3695 19.2955C68.3695 14.2105 72.4956 10.2546 77.0002 10.2546C79.1483 10.2546 80.8541 11.2091 81.744 12.2691H81.8821V10.8029H85.639V10.7989Z" fill="#43455B"/>
</g>
<mask id="mask1" mask-type="alpha" maskUnits="userSpaceOnUse" x="0" y="0" width="111" height="37">
<path d="M0.596008 36.342H110.11V0.291992H0.596008V36.342Z" fill="white"/>
</mask>
<g mask="url(#mask1)">
<path fill-rule="evenodd" clip-rule="evenodd" d="M87.975 27.719H91.833V1.32001H87.975V27.719Z" fill="#43455B"/>
<path fill-rule="evenodd" clip-rule="evenodd" d="M97.418 18.9871L105.468 15.6445C105.025 14.5194 103.693 13.7356 102.125 13.7356C100.115 13.7356 97.3165 15.5104 97.418 18.9871ZM106.869 22.2281L109.94 24.2751C108.949 25.7413 106.56 28.2676 102.434 28.2676C97.3165 28.2676 93.4946 24.3117 93.4946 19.2592C93.4946 13.9021 97.349 10.2508 101.991 10.2508C106.666 10.2508 108.953 13.9711 109.7 15.9816L110.11 17.0051L98.0679 21.9926C98.9898 23.7999 100.424 24.7219 102.434 24.7219C104.448 24.7219 105.846 23.7309 106.869 22.2281Z" fill="#43455B"/>
<path fill-rule="evenodd" clip-rule="evenodd" d="M14.7828 16.9198V13.098H27.6618C27.7877 13.764 27.8527 14.552 27.8527 15.4049C27.8527 18.2723 27.0688 21.818 24.5426 24.3442C22.0854 26.903 18.9459 28.2672 14.7869 28.2672C7.07816 28.2672 0.596008 21.9882 0.596008 14.2798C0.596008 6.57113 7.07816 0.292053 14.7869 0.292053C19.0514 0.292053 22.0894 1.96539 24.372 4.14641L21.6752 6.84325C20.0384 5.308 17.8208 4.11392 14.7828 4.11392C9.15358 4.11392 4.75092 8.65061 4.75092 14.2798C4.75092 19.9087 9.15358 24.4458 14.7828 24.4458C18.4341 24.4458 20.5136 22.9796 21.8458 21.6474C22.9261 20.5666 23.6369 19.0237 23.9171 16.9158L14.7828 16.9198Z" fill="#43455B"/>
</g>
</svg>
