<svg width="96" height="37" viewBox="0 0 96 37" fill="none" xmlns="http://www.w3.org/2000/svg">
<mask id="mask0" mask-type="alpha" maskUnits="userSpaceOnUse" x="0" y="0" width="96" height="37">
<path d="M0.912994 0.130005H95.653V36.619H0.912994V0.130005Z" fill="white"/>
</mask>
<g mask="url(#mask0)">
<path fill-rule="evenodd" clip-rule="evenodd" d="M76.305 11.6251V0.130127H78.6621V10.0073C78.0221 10.3306 77.1269 10.9459 76.305 11.6251ZM72.2111 15.082C72.9332 14.2152 73.6805 13.3342 74.5667 12.5903V0.130127H72.2111V15.082ZM44.9054 24.2143C44.9054 27.2878 46.1272 30.2016 48.3448 32.4211C50.5643 34.6364 53.479 35.8605 56.5507 35.8605C57.8519 35.8605 59.1885 35.5826 60.1338 35.1171V32.7605C59.0297 33.2227 57.6954 33.5021 56.5507 33.5021C51.5181 33.5021 47.2629 29.2493 47.2629 24.2143V22.0903C47.2629 17.0548 51.5181 12.8029 56.5507 12.8029C59.0528 12.8029 61.3919 13.761 63.1374 15.5055C64.8805 17.249 65.838 19.5876 65.838 22.0903V35.8605H68.197V21.6365C68.05 18.631 66.7667 15.8193 64.5846 13.7165C62.3991 11.6062 59.5425 10.4435 56.5507 10.4435C53.479 10.4435 50.5643 11.6662 48.3448 13.8857C46.1272 16.1024 44.9054 19.0181 44.9054 22.0903V24.2143ZM80.192 18.5748C81.2564 17.5132 82.6497 16.9002 84.0076 16.9002C86.9176 16.9002 89.2 19.1788 89.2 22.0903V24.2143C89.2 27.1243 86.9176 29.4071 84.0076 29.4071C82.5982 29.4071 81.2375 28.6325 80.1712 27.2325C79.2259 25.9952 78.6134 24.3206 78.5189 22.8162L76.6089 25.1482C76.9837 26.9324 77.9163 28.6419 79.234 29.8439C80.5937 31.0812 82.2891 31.7656 84.0076 31.7656C88.1725 31.7656 91.5575 28.3777 91.5575 24.2143V22.0903C91.5575 20.1194 90.7602 18.234 89.3125 16.7863C87.8624 15.3372 85.9794 14.5394 84.0076 14.5394C82.7608 14.5394 80.7785 14.986 78.4163 17.1101L78.4078 17.1186C77.7754 17.751 76.2913 19.236 75.3881 20.2947C73.8695 21.9513 71.6623 24.4525 69.7822 26.9551V30.6384C71.8689 27.9576 73.0698 26.456 75.0313 24.1911C76.7876 22.1418 78.9617 19.651 80.192 18.5748ZM24.5097 14.1306V11.3415C22.3753 10.1968 20.0461 9.6859 16.9579 9.6859C13.8073 9.6859 10.8203 10.8424 8.54404 12.9372C6.26593 15.0395 5.00966 17.8049 5.00966 20.7229V21.4848C5.00966 27.5719 9.89247 32.5232 15.8959 32.5232C20.7797 32.5232 22.7841 30.9253 23.2946 30.42V23.3375H15.3235V25.696H21.0873V29.2441L21.0665 29.2512C20.325 29.547 18.7851 30.1634 15.8959 30.1634C13.606 30.1634 11.4635 29.2729 9.86127 27.6513C8.25195 26.0245 7.36859 23.8329 7.36859 21.4848V20.7229C7.36859 16.0192 11.7603 12.0462 16.9579 12.0462C20.5537 12.0462 22.6801 12.6285 24.5097 14.1306ZM41.6858 16.9002C42.5805 16.9002 43.3391 17.0486 43.9426 17.3421C44.2361 16.61 44.5372 16.0065 44.9768 15.2734C44.3349 14.8145 42.8078 14.5394 41.6858 14.5394C37.3815 14.5394 34.135 17.785 34.135 22.0903V35.8605H36.4939V22.0903C36.4939 19.0332 38.6293 16.9002 41.6858 16.9002ZM0.912842 20.7229V21.4848C0.912842 25.575 2.46451 29.3915 5.28331 32.2297C8.09503 35.0618 11.8643 36.6191 15.8959 36.6191C19.1377 36.6191 22.0085 35.8851 24.4312 34.444C26.4291 33.253 27.3143 32.0492 27.3909 31.9391V19.2407H15.3235V21.6006H25.032V31.2065L25.0225 31.214C23.8858 32.3531 21.1871 34.2583 15.8959 34.2583C12.4485 34.2583 9.25677 32.9439 6.90304 30.5528C4.56113 28.1726 3.27177 24.9516 3.27177 21.4848V20.7229C3.27177 17.4499 4.74829 14.1845 7.32038 11.7683C9.94729 9.3059 13.3692 7.94849 16.9579 7.94849C20.3051 7.94849 22.6366 8.45657 24.5097 9.5909V6.94366C22.5596 6.11418 20.229 5.74174 16.9579 5.74174C8.2614 5.74174 0.912842 12.604 0.912842 20.7229ZM64.1015 35.8605V22.0903C64.1015 17.8564 60.7846 14.5394 56.5507 14.5394C54.5784 14.5394 52.6964 15.3372 51.2458 16.7863C49.7981 18.234 49.0003 20.1194 49.0003 22.0903V24.2143C49.0003 28.3059 52.4596 31.7656 56.5507 31.7656C57.6723 31.7656 59.1994 31.4896 60.1338 30.7225V28.2298C59.2159 28.9676 57.8826 29.4071 56.5507 29.4071C53.6402 29.4071 51.3593 27.1243 51.3593 24.2143V22.0903C51.3593 19.1788 53.6402 16.9002 56.5507 16.9002C59.4631 16.9002 61.7421 19.1788 61.7421 22.0903V35.8605H64.1015ZM41.6858 12.8029C43.2885 12.8029 44.6743 13.147 45.9249 13.8555C46.5128 13.1206 47.1065 12.5236 47.5489 12.0822C46.2255 11.0712 43.9847 10.4435 41.6858 10.4435C38.4095 10.4435 35.4342 11.6251 33.3102 13.7718C31.2013 15.8997 30.0367 18.8532 30.0367 22.0903V35.8605H32.3957V22.0903C32.3957 16.6218 36.216 12.8029 41.6858 12.8029ZM92.2145 13.8857C89.9935 11.6662 87.0797 10.4435 84.0076 10.4435C81.7612 10.4435 79.5038 11.2806 78.2632 12.1067C75.6944 13.8177 73.5831 15.6747 69.7822 20.5849V24.115C73.007 19.9138 76.0588 16.6034 78.3752 14.7828C79.8975 13.5606 82.058 12.8029 84.0076 12.8029C89.0402 12.8029 93.294 17.0548 93.294 22.0903V24.2143C93.294 26.7022 92.317 29.0399 90.5366 30.7991C88.7751 32.5421 86.454 33.5021 84.0076 33.5021C79.8716 33.5021 76.2313 30.6629 75.2416 26.7859L73.5793 28.8017C74.7916 32.8635 79.1706 35.8605 84.0076 35.8605C87.0797 35.8605 89.9935 34.6364 92.2145 32.4211C94.4321 30.2016 95.6529 27.2878 95.6529 24.2143V22.0903C95.6529 19.0181 94.4321 16.1024 92.2145 13.8857Z" fill="#43455B"/>
</g>
</svg>
