<svg width="61" height="43" viewBox="0 0 61 43" fill="none" xmlns="http://www.w3.org/2000/svg">
<g clip-path="url(#clip0)">
<path d="M0.238281 1.12128H9.3595V25.5103C9.3595 29.3787 11.117 31.6756 12.5413 32.6427C11.0564 33.9422 6.54134 35.0907 3.1474 32.3102C1.1474 30.6783 0.238281 27.9583 0.238281 25.4197V1.12128ZM57.1777 21.4001V18.8313H59.9656V9.85541H56.9049C55.7231 4.4457 50.9049 0.426147 45.1473 0.426147C38.511 0.426147 33.1171 5.80567 33.1171 12.4243V33.368C34.9959 33.64 37.2686 33.3378 39.1777 31.736C41.1777 30.104 42.0868 27.3841 42.0868 24.8455V24.0597H46.6322V15.0838H42.0868V12.3638C42.0868 10.6714 43.4504 9.3114 45.1473 9.3114C46.8443 9.3114 48.208 10.6714 48.208 12.3638V21.3699C48.208 27.9885 53.6019 33.368 60.2383 33.368V24.4223C58.5413 24.4223 57.1777 23.0623 57.1777 21.4001ZM22.6929 9.8252V23.0321C22.6929 23.7877 22.0565 24.3921 21.299 24.3921C20.5414 24.3921 19.9049 23.7877 19.9049 23.0321V9.8252H10.9049V25.329C10.9049 28.1094 11.8444 31.6453 16.1777 32.7938C20.5111 33.9422 22.9958 31.5547 22.9958 31.5547C22.7534 33.1262 21.2988 34.2746 18.9049 34.5164C17.0867 34.6978 14.7837 34.0933 13.6322 33.6097V41.8301C16.5716 42.7066 19.6625 42.9785 22.7231 42.3741C28.2383 41.3163 31.7231 36.7226 31.7231 30.5876V9.76471H22.6929V9.8252Z" fill="#43455B"/>
</g>
<defs>
<clipPath id="clip0">
<rect width="61" height="43" fill="white"/>
</clipPath>
</defs>
</svg>
