<svg width="126" height="28" viewBox="0 0 126 28" fill="none" xmlns="http://www.w3.org/2000/svg">
<path d="M125.403 12.8532V10.6651H122.686V7.2634L122.594 7.29156L120.042 8.07244L119.992 8.08773V10.6652H115.964V9.22933C115.964 8.56074 116.113 8.04909 116.408 7.70788C116.7 7.37076 117.119 7.19937 117.653 7.19937C118.036 7.19937 118.434 7.28976 118.833 7.46801L118.934 7.51278V5.2084L118.886 5.19107C118.513 5.05699 118.006 4.98947 117.377 4.98947C116.585 4.98947 115.865 5.16194 115.237 5.50376C114.608 5.84606 114.114 6.33471 113.768 6.956C113.423 7.57657 113.247 8.2933 113.247 9.08646V10.6651H111.355V12.8532H113.247V22.0713H115.964V12.8532H119.992V18.7111C119.992 21.1237 121.13 22.3463 123.374 22.3463C123.743 22.3463 124.131 22.3031 124.527 22.2185C124.931 22.1316 125.206 22.0448 125.367 21.9521L125.403 21.931V19.7226L125.293 19.7957C125.145 19.8939 124.962 19.9742 124.746 20.0339C124.53 20.0947 124.35 20.1251 124.21 20.1251C123.684 20.1251 123.295 19.9834 123.054 19.7039C122.81 19.4217 122.686 18.9284 122.686 18.2383V12.8532H125.403ZM105.29 20.1255C104.304 20.1255 103.527 19.7986 102.979 19.1547C102.428 18.5075 102.149 17.5848 102.149 16.4125C102.149 15.2031 102.428 14.2564 102.979 13.5978C103.527 12.9436 104.297 12.6115 105.268 12.6115C106.209 12.6115 106.959 12.9287 107.496 13.5546C108.036 14.1839 108.31 15.1229 108.31 16.3465C108.31 17.5851 108.052 18.5365 107.544 19.173C107.04 19.8046 106.281 20.1255 105.29 20.1255ZM105.411 10.3903C103.53 10.3903 102.036 10.9414 100.971 12.0284C99.9062 13.1154 99.3665 14.6198 99.3665 16.5C99.3665 18.2859 99.8933 19.7224 100.932 20.7689C101.972 21.8158 103.386 22.3461 105.136 22.3461C106.959 22.3461 108.423 21.7873 109.488 20.6853C110.552 19.5845 111.091 18.0943 111.091 16.258C111.091 14.4442 110.585 12.997 109.587 11.9575C108.588 10.9175 107.182 10.3903 105.411 10.3903ZM94.9873 10.3903C93.7079 10.3903 92.6496 10.7176 91.8411 11.3628C91.0277 12.0119 90.6151 12.8632 90.6151 13.8933C90.6151 14.4288 90.7042 14.9045 90.8794 15.3079C91.0558 15.7127 91.3286 16.069 91.6911 16.3681C92.0509 16.6648 92.6062 16.9756 93.3421 17.2918C93.9607 17.5463 94.4221 17.7616 94.7151 17.9313C95.0016 18.0977 95.2049 18.2648 95.3197 18.4277C95.4313 18.587 95.4878 18.8051 95.4878 19.0743C95.4878 19.8406 94.914 20.2134 93.7331 20.2134C93.2952 20.2134 92.7956 20.122 92.2483 19.9417C91.7049 19.7641 91.192 19.5041 90.7277 19.1707L90.6149 19.0898V21.7048L90.6563 21.7241C91.0406 21.9015 91.5252 22.0511 92.0963 22.1688C92.6663 22.2866 93.1842 22.3466 93.6341 22.3466C95.0224 22.3466 96.1404 22.0177 96.9562 21.3686C97.7772 20.7151 98.1933 19.8437 98.1933 18.7779C98.1933 18.0091 97.9693 17.3498 97.5278 16.818C97.0893 16.2906 96.3283 15.8064 95.2669 15.3784C94.4212 15.039 93.8795 14.7573 93.656 14.541C93.4405 14.332 93.3311 14.0365 93.3311 13.6624C93.3311 13.3306 93.4662 13.0649 93.7434 12.8497C94.0227 12.6334 94.4116 12.5234 94.8993 12.5234C95.3518 12.5234 95.8149 12.5949 96.2753 12.735C96.7355 12.8751 97.1396 13.0627 97.477 13.2923L97.588 13.3681V10.8875L97.5454 10.8692C97.2341 10.7357 96.8237 10.6215 96.3252 10.5288C95.8289 10.4368 95.3788 10.3903 94.9873 10.3903ZM83.5344 20.1255C82.5487 20.1255 81.7712 19.7986 81.2236 19.1547C80.6724 18.5075 80.3936 17.5851 80.3936 16.4125C80.3936 15.2031 80.6727 14.2564 81.2242 13.5978C81.7718 12.9436 82.5415 12.6115 83.5126 12.6115C84.454 12.6115 85.2037 12.9287 85.7409 13.5546C86.2807 14.1839 86.5545 15.1229 86.5545 16.3465C86.5545 17.5851 86.2968 18.5365 85.7889 19.173C85.2845 19.8046 84.5263 20.1255 83.5344 20.1255ZM83.6554 10.3903C81.7741 10.3903 80.2801 10.9414 79.2155 12.0284C78.1511 13.1154 77.6111 14.6198 77.6111 16.5C77.6111 18.2866 78.1382 19.7224 79.1774 20.7689C80.2166 21.8158 81.6307 22.3461 83.3803 22.3461C85.2032 22.3461 86.6678 21.7873 87.7324 20.6853C88.7968 19.5845 89.3363 18.0943 89.3363 16.258C89.3363 14.4442 88.8301 12.997 87.8313 11.9575C86.8319 10.9175 85.4269 10.3903 83.6554 10.3903ZM73.4881 12.6404V10.6651H70.805V22.0711H73.4881V16.2365C73.4881 15.2443 73.713 14.4293 74.1569 13.8136C74.5951 13.2054 75.1791 12.8971 75.8921 12.8971C76.1338 12.8971 76.4051 12.937 76.6989 13.0158C76.9896 13.0941 77.2003 13.1792 77.3245 13.2688L77.4373 13.3505V10.6456L77.3938 10.6269C77.1439 10.5208 76.7905 10.4672 76.3432 10.4672C75.669 10.4672 75.0656 10.6839 74.5488 11.1104C74.0952 11.4853 73.7673 11.9994 73.5166 12.6404H73.4881ZM66.0002 10.3903C64.7693 10.3903 63.6714 10.6542 62.7376 11.1746C61.8018 11.6961 61.0781 12.4406 60.5857 13.3873C60.0955 14.3318 59.8466 15.435 59.8466 16.6653C59.8466 17.743 60.0879 18.732 60.5649 19.6036C61.0421 20.4767 61.7175 21.1597 62.5726 21.6334C63.4264 22.1066 64.4132 22.3464 65.5058 22.3464C66.7809 22.3464 67.8695 22.0915 68.7423 21.5888L68.7776 21.5686V19.1105L68.6648 19.1928C68.2695 19.4808 67.8276 19.7107 67.3522 19.8763C66.878 20.0418 66.4457 20.1255 66.0665 20.1255C65.0138 20.1255 64.1686 19.796 63.5552 19.1466C62.9404 18.4963 62.6286 17.5831 62.6286 16.4341C62.6286 15.2778 62.9537 14.3412 63.5944 13.6501C64.2331 12.961 65.0799 12.6115 66.1108 12.6115C66.9927 12.6115 67.8521 12.9101 68.6651 13.4999L68.7776 13.5816V10.9916L68.7413 10.9711C68.4353 10.7999 68.018 10.6585 67.5 10.5512C66.9842 10.4442 66.4796 10.3903 66.0002 10.3903ZM57.9987 10.6652H55.3157V22.0711H57.9987V10.6652ZM56.6846 5.80622C56.243 5.80622 55.8579 5.95655 55.5415 6.25444C55.2237 6.55316 55.0626 6.92928 55.0626 7.37316C55.0626 7.81006 55.2218 8.17932 55.5365 8.47011C55.8492 8.76005 56.2356 8.90701 56.6848 8.90701C57.1338 8.90701 57.5216 8.76005 57.838 8.47059C58.1565 8.17932 58.318 7.81018 58.318 7.37316C58.318 6.94481 58.1608 6.57254 57.8511 6.26647C57.5417 5.961 57.1491 5.80622 56.6846 5.80622ZM49.9903 9.82365V22.0711H52.7285V6.15538H48.9387L44.1218 17.9771L39.4472 6.15538H35.5032V22.0711L38.0763 22.0709V9.82245H38.1646L43.1009 22.0711H45.0428L49.902 9.82365H49.9903Z" fill="#43455B"/>
<path fill-rule="evenodd" clip-rule="evenodd" d="M13.605 13.459H0.983032V0.837006H13.605V13.459Z" fill="#43455B"/>
<path fill-rule="evenodd" clip-rule="evenodd" d="M27.5411 13.459H14.9191V0.837006H27.5411V13.459Z" fill="#43455B"/>
<path fill-rule="evenodd" clip-rule="evenodd" d="M13.605 27.399H0.983032V14.778H13.605V27.399Z" fill="#43455B"/>
<path fill-rule="evenodd" clip-rule="evenodd" d="M27.5411 27.399H14.9191V14.778H27.5411V27.399Z" fill="#43455B"/>
</svg>
