<svg width="119" height="35" viewBox="0 0 119 35" fill="none" xmlns="http://www.w3.org/2000/svg">
<path fill-rule="evenodd" clip-rule="evenodd" d="M52.4253 9.62102H54.8378V25.6583H51.3959L44.0389 12.9156V25.6583H41.6263V9.62102H45.0096L52.4253 22.4654V9.62102ZM64.5805 13.4692C66.801 13.7397 67.9433 14.9779 67.8593 17.3173V18.2269V25.6584C65.5066 26.0353 62.2487 26.007 60.3972 25.7645C58.0211 25.4402 57.1718 24.1285 57.1718 21.8519C57.1718 19.5753 59.024 18.3072 61.1317 18.1555C62.4091 18.1026 63.7145 18.108 65.227 18.1448L65.2272 17.2377C65.2272 16.3072 64.8123 15.7125 63.7103 15.5129C62.9277 15.4044 59.9262 15.5327 58.0021 15.9362V13.7646C60.4349 13.5069 62.7502 13.3272 64.5805 13.4692ZM65.3389 24.0713L65.3757 20.0396C64.6398 20.021 62.7854 20.0393 62.0816 20.0393C61.3802 20.0393 59.7585 20.3431 59.7664 21.8519C59.7764 23.7443 61.0358 24.0234 63.1675 24.0713C63.7481 24.0713 64.7989 24.1008 65.3389 24.0713ZM102.232 13.4692C104.452 13.7397 105.595 14.9779 105.511 17.3173V18.2269V25.6584C103.158 26.0353 99.9002 26.007 98.0487 25.7645C95.6726 25.4402 94.8234 24.1285 94.8234 21.8519C94.8234 19.5753 96.6754 18.3072 98.7831 18.1555C100.061 18.1026 101.366 18.108 102.878 18.1448L102.879 17.2377C102.879 16.3072 102.464 15.7125 101.362 15.5129C100.579 15.4044 97.5778 15.5327 95.6535 15.9362V13.7646C98.0865 13.5069 100.402 13.3272 102.232 13.4692ZM102.991 24.0713L103.027 20.0396C102.291 20.021 100.437 20.0393 99.7332 20.0393C99.0317 20.0393 97.41 20.3431 97.418 21.8519C97.428 23.7443 98.6873 24.0234 100.819 24.0713C101.4 24.0713 102.45 24.1008 102.991 24.0713ZM70.2725 23.2189C72.3047 23.7675 74.2336 23.9651 75.9871 23.5688C77.4681 23.2772 77.7625 21.4841 75.9871 20.9641C74.8665 20.6658 72.7052 20.4007 71.57 19.6252C69.3929 18.2833 69.5904 14.5464 72.7605 13.6943C74.4977 13.1854 76.6147 13.1666 79.1554 13.6943V15.8325C77.2376 15.5352 75.5356 15.3271 74.1017 15.5993C72.3057 15.9567 72.47 17.6014 74.1017 17.9901L77.3867 18.8259C81.0175 19.895 80.6911 24.4047 77.3867 25.493C75.4207 26.1215 73.0153 26.0687 70.2725 25.493V23.2189ZM89.9872 8.73975H92.5753V25.6583C90.9007 25.9447 88.541 26.1393 86.9931 25.9447C83.7199 25.6583 81.4364 23.6087 81.4364 19.5236C81.4364 15.9142 83.7686 13.6963 86.8691 13.4257C88.2019 13.332 89.9872 13.51 89.9872 13.51V8.73975ZM89.9872 24.04V15.6538L88.6238 15.4974C86.1877 15.3312 84.1512 16.3772 84.1512 19.6515C84.3162 22.8094 86.0427 24.04 88.376 24.04H89.9872ZM118.902 29.9101L116.143 31.1735V26.0188C116.143 26.0188 114.37 26.0383 113.037 25.9447C109.937 25.674 107.768 23.6152 107.768 19.6819C107.768 15.4011 110.159 13.7185 113.32 13.432C114.868 13.2376 117.227 13.3545 118.902 13.641V29.9101ZM116.164 23.7772L116.314 15.4887H114.703C112.37 15.4887 110.478 16.5446 110.478 19.8773C110.478 22.906 112.515 24.0824 114.8 23.9336L116.164 23.7772Z" fill="#43455B"/>
<path fill-rule="evenodd" clip-rule="evenodd" d="M20.5796 24.0838C20.3182 24.7998 19.721 25.2351 19.0259 25.2362C18.3488 25.2375 17.7491 24.8443 17.5113 24.2035C16.895 22.5422 16.2898 20.8767 15.6888 19.2098C15.6514 19.1059 15.6572 18.9639 15.6954 18.8586C16.7502 15.9425 17.8095 13.0282 18.8742 10.1159C19.1025 9.49134 19.7309 9.06374 20.382 9.05925C21.0579 9.05465 21.6739 9.47984 21.9235 10.1489C22.3024 11.1644 22.6678 12.1849 23.0391 13.2033C23.2586 13.8053 23.4901 14.4036 23.6907 15.012C23.7421 15.1678 23.7438 15.3726 23.6885 15.5261C22.6598 18.3815 21.6206 21.2329 20.5796 24.0838ZM19.8798 8.75577C19.1155 8.9034 18.6908 9.38493 18.4304 10.1034C15.5745 17.9821 12.7051 25.8558 9.84033 33.7312C9.77387 33.9139 9.71696 34.0689 9.4624 34.0681C6.37902 34.0588 3.29565 34.0589 0.21228 34.0567V33.8869C0.50352 33.1107 0.801314 32.337 1.08508 31.558C3.16366 25.8542 5.23959 20.1494 7.3161 14.4448C7.85776 12.9567 8.40046 11.469 8.9389 9.97971C9.25624 9.10174 9.82044 8.69897 10.7527 8.69885C13.6853 8.69862 16.6178 8.69874 19.5505 8.69874L19.894 8.69871C19.8863 8.73105 19.8853 8.75473 19.8798 8.75577ZM29.6935 0.274994H39.1999C39.1796 0.366172 39.1695 0.461029 39.1379 0.548067C37.3231 5.53513 35.5062 10.5213 33.6903 15.5079C32.6195 18.4485 31.5483 21.3887 30.4812 24.3306C30.1635 25.2063 29.5788 25.6267 28.6421 25.6268C25.7285 25.6275 22.8149 25.627 19.9013 25.627H19.5987L19.5851 25.5725C19.6197 25.5523 19.6519 25.5224 19.6892 25.5131C20.2955 25.3613 20.697 24.9849 20.9095 24.4023C21.8329 21.8695 22.7559 19.3368 23.6781 16.8036C25.3681 12.1625 27.0573 7.52104 28.7468 2.8796C29.0628 2.01163 29.378 1.14319 29.6935 0.274994Z" fill="#43455B"/>
</svg>
