<svg width="121" height="36" viewBox="0 0 121 36" fill="none" xmlns="http://www.w3.org/2000/svg">
<path d="M41.3286 16.2716H39.8109C37.8171 13.4553 35.8397 10.6566 33.865 7.49372H33.8507V16.2716H32.1729V4.03256H33.692C35.6858 6.82914 37.6605 9.60801 39.6168 12.7546H39.6515V4.03256H41.3293V16.2716H41.3286ZM45.3168 11.4275C45.8037 9.81842 46.294 8.33263 46.7318 6.44373H46.7672C47.2561 8.33263 47.694 9.8191 48.1481 11.4275H45.3168ZM46.119 4.03256L41.8904 16.2716H43.7085L44.7721 12.9309H48.4634L49.4242 16.2716H51.7687L47.8683 4.03256H46.119ZM53.7427 16.2716V5.67428H50.5246V4.03256H59.056V5.67428H55.8406V16.2716H53.7427ZM59.7362 4.03256H61.8198V16.2716H59.7362V4.03256ZM68.2887 14.7306C66.1008 14.7306 65.3321 12.3181 65.3321 9.97503C65.3321 7.72047 66.2057 5.56942 68.2887 5.56942C70.3689 5.56942 71.2398 7.72047 71.2398 9.97503C71.2398 12.3181 70.4724 14.7306 68.2887 14.7306ZM68.2887 16.4786C71.487 16.4786 73.4794 13.6303 73.4794 9.97435C73.4794 6.54859 71.28 3.82147 68.2887 3.82147C65.3001 3.82147 63.0911 6.54859 63.0911 9.97435C63.0918 13.6309 65.0876 16.4786 68.2887 16.4786ZM83.9167 16.2716H82.3969C80.4017 13.4553 78.4257 10.6566 76.4523 7.49372H76.4353V16.2716H74.7595V4.03256H76.2794C78.2704 6.82914 80.2465 9.60801 82.2014 12.7546H82.2375V4.03256H83.9174V16.2716H83.9167ZM87.9028 11.4275C88.3938 9.81842 88.8807 8.33263 89.3205 6.44373H89.3553C89.8449 8.33263 90.2806 9.8191 90.7341 11.4275H87.9028ZM88.7091 4.03256L84.4784 16.2716H86.2979L87.3615 12.9309H91.0521L92.0136 16.2716H94.3553L90.4556 4.03256H88.7091ZM94.9648 4.03256H97.0491V14.6271H101.19V16.2716H94.9648V4.03256ZM40.039 26.5087V31.5598C38.9188 31.999 37.747 32.3116 36.5615 32.3116C32.9587 32.3116 30.6864 29.5143 30.6864 25.9122C30.6864 22.5715 32.9587 19.6531 36.6302 19.6531C37.7647 19.6531 38.9018 20.0746 39.6018 20.5982L38.9195 22.0493C38.3612 21.7027 37.4848 21.4051 36.682 21.4051C34.4458 21.4051 32.9233 23.1714 32.9233 25.9517C32.9233 28.8517 34.6726 30.5636 36.4736 30.5636C37.0306 30.5636 37.5052 30.4969 37.9444 30.2674V26.5087H40.039ZM47.5428 21.51H44.0421V24.8649H47.4686V26.5087H44.0421V30.4574H48.1679V32.1032H41.9428V19.8635H47.5428V21.51ZM54.011 30.5629C51.8231 30.5629 51.053 28.1524 51.053 25.808C51.053 23.5548 51.9273 21.4044 54.011 21.4044C56.0898 21.4044 56.9621 23.5548 56.9621 25.808C56.9621 28.1524 56.1913 30.5629 54.011 30.5629ZM54.011 32.3116C57.2086 32.3116 59.2003 29.4619 59.2003 25.8073C59.2003 22.3816 56.9989 19.6524 54.011 19.6524C51.0176 19.6524 48.8175 22.3816 48.8175 25.8073C48.8168 29.4625 50.8065 32.3116 54.011 32.3116ZM69.2692 26.5087V31.5598C68.1491 31.999 66.9806 32.3116 65.7903 32.3116C62.1903 32.3116 59.916 29.5143 59.916 25.9122C59.916 22.5715 62.1903 19.6531 65.8618 19.6531C66.999 19.6531 68.1334 20.0746 68.8314 20.5982L68.1491 22.0493C67.5894 21.7027 66.7205 21.4051 65.915 21.4051C63.674 21.4051 62.1528 23.1714 62.1528 25.9517C62.1528 28.8517 63.9028 30.5636 65.7039 30.5636C66.2649 30.5636 66.7348 30.4969 67.1733 30.2674V26.5087H69.2692ZM73.2949 21.51H74.2189C75.4568 21.51 76.1582 22.2236 76.1582 23.484C76.1582 25.1257 75.1633 25.8591 74.1658 25.9115C73.9554 25.9326 73.4651 25.9503 73.2949 25.9653V21.51ZM78.6082 32.1032L76.1384 27.035C77.4846 26.3201 78.2582 24.8649 78.2582 23.3961C78.2582 21.0163 76.8044 19.8635 74.4613 19.8635H71.1922V32.1032H73.2949V27.4878H74.238L76.2099 32.1032H78.6082ZM82.0686 27.2597C82.5569 25.6487 83.0465 24.1642 83.485 22.276H83.5197C84.0093 24.1642 84.4451 25.6487 84.8999 27.2597H82.0686ZM82.8715 19.8635L78.6395 32.1032H80.4576L81.5253 28.7625H85.2159L86.1719 32.1032H88.5191L84.618 19.8635H82.8715ZM92.4514 19.8635H89.1823V32.1032H91.2809V27.4878H92.2227C94.7244 27.4878 96.2469 25.4594 96.2469 23.3961C96.2469 21.0156 94.7945 19.8635 92.4514 19.8635ZM92.1573 25.9122C91.9394 25.9319 91.4273 25.9483 91.2809 25.9626V21.51H92.2227C93.4463 21.51 94.1483 22.2236 94.1483 23.484C94.1483 25.1257 93.1549 25.8597 92.1573 25.9122ZM105.966 32.1032H103.869V26.2131H99.512V32.1032H97.4372V19.8635H99.512V24.5667H103.869V19.8982H105.966V32.1032ZM107.975 19.8635H110.06V32.1032H107.975V19.8635ZM119.497 22.0854C118.989 21.7701 118.153 21.4044 117.345 21.4044C115.209 21.4044 113.658 23.1708 113.658 25.951C113.658 28.8511 115.37 30.5629 117.399 30.5629C118.142 30.5594 118.869 30.3471 119.497 29.9501L120.075 31.4726C119.442 31.9091 118.327 32.3116 117.314 32.3116C113.711 32.3116 111.437 29.5143 111.437 25.9122C111.437 22.5715 113.692 19.6531 117.345 19.6531C118.432 19.6531 119.442 20.1107 120.163 20.5982L119.497 22.0854Z" fill="#43455B"/>
<path fill-rule="evenodd" clip-rule="evenodd" d="M0.491333 0.497162H25.0293V35.6563H0.491333V0.497162ZM4.02808 32.1168H21.4803V4.03799H4.02808V32.1168Z" fill="#43455B"/>
</svg>
