<svg width="150" height="38" viewBox="0 0 150 38" fill="none" xmlns="http://www.w3.org/2000/svg">
<path fill-rule="evenodd" clip-rule="evenodd" d="M81.8049 13.1279L81.7756 13.1248L81.8049 13.1279Z" fill="#43455B"/>
<path fill-rule="evenodd" clip-rule="evenodd" d="M67.2671 16.0741C67.0959 15.8588 66.8183 15.7517 66.4324 15.7517H65.4926V18.6241H66.3845C66.781 18.6241 67.0685 18.5127 67.2503 18.2924C67.432 18.0733 67.5229 17.7017 67.5229 17.1721C67.5229 16.6548 67.437 16.2876 67.2671 16.0741ZM69.982 18.8457C69.7953 19.325 69.5345 19.714 69.1984 20.0109C68.8623 20.3071 68.4646 20.525 68.0021 20.6619C67.5403 20.7988 67.033 20.8698 66.4841 20.8698H65.4926V25.0611H62.787V13.5067H66.6814C67.1992 13.5067 67.6741 13.5696 68.1092 13.6965C68.5442 13.8241 68.9202 14.0277 69.2395 14.3077C69.5582 14.5878 69.8096 14.9575 69.9895 15.4131C70.1718 15.8694 70.2627 16.4333 70.2627 17.1061C70.2627 17.7889 70.1694 18.3689 69.982 18.8457ZM77.7228 17.559C77.6655 17.0941 77.5833 16.7244 77.475 16.4486C77.3642 16.1729 77.2267 15.9756 77.0624 15.8605C76.8968 15.7447 76.7101 15.6862 76.5004 15.6862C76.2806 15.6862 76.0902 15.741 75.9302 15.8524C75.7721 15.9632 75.6364 16.153 75.5263 16.4237C75.4174 16.6939 75.3383 17.0629 75.2854 17.5266C75.2369 17.9903 75.2145 18.571 75.2145 19.2681C75.2145 19.964 75.2412 20.5447 75.2954 21.0071C75.3501 21.4727 75.4342 21.8418 75.5431 22.1194C75.6533 22.3964 75.7889 22.593 75.9464 22.7082C76.1076 22.8239 76.2962 22.8818 76.5172 22.8818C76.7257 22.8818 76.913 22.8258 77.0786 22.7156C77.2435 22.6061 77.3779 22.415 77.4831 22.1443C77.5871 21.8735 77.6655 21.5069 77.7228 21.0432C77.7769 20.5783 77.8049 19.997 77.8049 19.3005C77.8049 18.604 77.7769 18.0252 77.7228 17.559ZM80.3618 21.9252C80.1763 22.6715 79.9037 23.2926 79.5452 23.7812C79.1879 24.271 78.751 24.6364 78.2331 24.8791C77.7159 25.1188 77.134 25.2426 76.4842 25.2426C75.1865 25.2426 74.1757 24.7615 73.4555 23.7968C72.7348 22.8339 72.375 21.3358 72.375 19.3005C72.375 17.2665 72.7404 15.7596 73.4711 14.7874C74.203 13.8127 75.2182 13.326 76.5172 13.326C77.8161 13.326 78.8281 13.8109 79.5533 14.7806C80.2796 15.7478 80.6425 17.2434 80.6425 19.2681C80.6425 20.2914 80.5485 21.1764 80.3618 21.9252ZM89.9521 23.2859C89.7654 23.7104 89.5034 24.0645 89.1679 24.3521C88.8318 24.6359 88.4347 24.8581 87.9816 25.0112C87.5222 25.1656 87.0243 25.2427 86.4853 25.2427C86.0353 25.2427 85.6276 25.1948 85.2635 25.1102C84.9032 25.0218 84.5683 24.8905 84.2658 24.7143C83.9627 24.5388 83.6857 24.3253 83.4318 24.077C83.1791 23.8299 82.9314 23.5473 82.6899 23.2286L84.5727 21.5288C84.9561 21.99 85.3083 22.3405 85.6276 22.577C85.9457 22.8141 86.2475 22.9317 86.5345 22.9317C86.8214 22.9317 87.0592 22.8583 87.2453 22.7083C87.432 22.5602 87.5254 22.3268 87.5254 22.0075C87.5254 21.8419 87.5085 21.6938 87.4756 21.5612C87.4438 21.4305 87.3741 21.3004 87.2695 21.1734C87.165 21.0483 87.0168 20.9195 86.8233 20.7944C86.6309 20.6674 86.3702 20.5324 86.0403 20.3892C85.4677 20.139 84.9816 19.8876 84.5807 19.638C84.1787 19.3909 83.8519 19.1257 83.6073 18.8382C83.3583 18.5531 83.1791 18.2357 83.0683 17.8909C82.9606 17.5429 82.9058 17.1446 82.9058 16.6927C82.9058 16.2197 82.9874 15.779 83.1517 15.372C83.3179 14.9649 83.5531 14.6108 83.8619 14.3077C84.1687 14.0046 84.5459 13.7662 84.9922 13.5907C85.4378 13.4139 85.9351 13.3261 86.4853 13.3261C86.9253 13.3261 87.3193 13.3654 87.6654 13.4413C88.0121 13.5185 88.327 13.6361 88.6052 13.7979C88.8872 13.956 89.1492 14.1483 89.3926 14.3755C89.6316 14.5996 89.8749 14.8604 90.1164 15.1579L88.2013 16.8732C88.0052 16.6442 87.8341 16.4488 87.6915 16.2876C87.5471 16.1295 87.4102 15.9994 87.2776 15.9004C87.1469 15.8021 87.0106 15.7336 86.8749 15.6938C86.7368 15.6564 86.5787 15.6365 86.4038 15.6365C86.1386 15.6365 85.9351 15.7187 85.7919 15.8842C85.6513 16.0492 85.5785 16.2415 85.5785 16.4606C85.5785 16.6162 85.5996 16.7525 85.6451 16.8732C85.6886 16.9965 85.7646 17.1135 85.8741 17.2299C85.9843 17.3438 86.133 17.4571 86.3222 17.5685C86.5077 17.678 86.7498 17.7981 87.0467 17.932C87.6299 18.1847 88.121 18.4392 88.5237 18.6988C88.9264 18.9564 89.2525 19.2403 89.5058 19.549C89.7598 19.8571 89.9422 20.1938 90.0604 20.5629C90.1743 20.9307 90.2334 21.3589 90.2334 21.8419C90.2334 22.3809 90.1395 22.8627 89.9521 23.2859Z" fill="#43455B"/>
<path fill-rule="evenodd" clip-rule="evenodd" d="M97.2611 15.917V25.061H94.5081V15.917H92.1641V13.507H99.6061V15.917H97.2611Z" fill="#43455B"/>
<path fill-rule="evenodd" clip-rule="evenodd" d="M108.831 25.0611V22.5036C108.831 21.875 108.837 21.2824 108.848 20.7285C108.859 20.1727 108.877 19.6468 108.9 19.1513C108.831 19.3822 108.758 19.638 108.676 19.92C108.591 20.1994 108.502 20.492 108.403 20.7945C108.304 21.0976 108.201 21.3957 108.097 21.6938C107.993 21.9901 107.896 22.2708 107.808 22.5353L106.719 25.4233L105.629 22.5353C105.542 22.2826 105.447 22.0044 105.342 21.7019C105.237 21.3988 105.136 21.0976 105.036 20.7945C104.937 20.492 104.848 20.1994 104.764 19.92C104.681 19.638 104.607 19.3822 104.542 19.1513C104.563 19.6362 104.579 20.159 104.591 20.7198C104.602 21.2812 104.607 21.875 104.607 22.5036V25.0611H102.1V13.5073H104.607L105.629 16.3474C105.885 17.0395 106.108 17.7017 106.308 18.336C106.507 18.9689 106.643 19.4868 106.719 19.8957C106.806 19.4868 106.951 18.9702 107.149 18.3441C107.347 17.7167 107.573 17.0438 107.825 16.3293L108.831 13.5073H111.324V25.0611H108.831ZM118.701 20.2912C118.569 19.5306 118.446 18.836 118.329 18.2036C118.214 17.5707 118.129 16.9899 118.074 16.4609C118.019 16.9899 117.938 17.5707 117.836 18.2036C117.73 18.836 117.605 19.5387 117.463 20.3068L117.397 20.6696H118.766L118.701 20.2912ZM119.658 25.0613L119.229 22.9146H116.951L116.539 25.0613H113.7L116.688 13.507H119.527L122.498 25.0613H119.658Z" fill="#43455B"/>
<path fill-rule="evenodd" clip-rule="evenodd" d="M128.439 15.917V25.061H125.681V15.917H123.338V13.507H130.782V15.917H128.439Z" fill="#43455B"/>
<path fill-rule="evenodd" clip-rule="evenodd" d="M133.274 25.061V13.507H140.042V15.867H136.012V17.832H138.638V20.191H136.012V22.7H140.156V25.061H133.274Z" fill="#43455B"/>
<path fill-rule="evenodd" clip-rule="evenodd" d="M149.596 23.2859C149.408 23.7104 149.148 24.0645 148.812 24.3521C148.476 24.6359 148.081 24.8581 147.624 25.0112C147.167 25.1656 146.669 25.2427 146.131 25.2427C145.678 25.2427 145.274 25.1948 144.911 25.1102C144.546 25.0218 144.214 24.8905 143.909 24.7143C143.609 24.5388 143.33 24.3253 143.076 24.077C142.826 23.8299 142.576 23.5473 142.335 23.2286L144.215 21.5288C144.6 21.99 144.954 22.3405 145.274 22.577C145.59 22.8141 145.894 22.9317 146.179 22.9317C146.468 22.9317 146.702 22.8583 146.891 22.7083C147.076 22.5602 147.171 22.3268 147.171 22.0075C147.171 21.8419 147.154 21.6938 147.121 21.5612C147.087 21.4305 147.019 21.3004 146.915 21.1734C146.809 21.0483 146.66 20.9195 146.47 20.7944C146.276 20.6674 146.014 20.5324 145.686 20.3892C145.113 20.139 144.626 19.8876 144.225 19.638C143.823 19.3909 143.498 19.1257 143.251 18.8382C143.004 18.5531 142.826 18.2357 142.715 17.8909C142.604 17.5429 142.549 17.1446 142.549 16.6927C142.549 16.2197 142.632 15.779 142.796 15.372C142.961 14.9649 143.2 14.6108 143.506 14.3077C143.815 14.0046 144.191 13.7662 144.637 13.5907C145.083 13.4139 145.58 13.3261 146.131 13.3261C146.571 13.3261 146.965 13.3654 147.311 13.4413C147.659 13.5185 147.971 13.6361 148.252 13.7979C148.531 13.956 148.795 14.1483 149.035 14.3755C149.276 14.5996 149.52 14.8604 149.763 15.1579L147.846 16.8732C147.648 16.6442 147.48 16.4488 147.335 16.2876C147.192 16.1295 147.056 15.9994 146.923 15.9004C146.79 15.8021 146.654 15.7336 146.519 15.6938C146.381 15.6564 146.225 15.6365 146.048 15.6365C145.785 15.6365 145.58 15.7187 145.436 15.8842C145.294 16.0492 145.223 16.2415 145.223 16.4606C145.223 16.6162 145.245 16.7525 145.289 16.8732C145.333 16.9965 145.409 17.1135 145.52 17.2299C145.63 17.3438 145.78 17.4571 145.964 17.5685C146.154 17.678 146.393 17.7981 146.692 17.932C147.275 18.1846 147.768 18.4392 148.168 18.6988C148.57 18.9564 148.898 19.2402 149.151 19.549C149.403 19.8571 149.589 20.1938 149.703 20.5629C149.82 20.9307 149.876 21.3589 149.876 21.8419C149.876 22.3809 149.784 22.8627 149.596 23.2859Z" fill="#43455B"/>
<mask id="mask0" mask-type="alpha" maskUnits="userSpaceOnUse" x="0" y="0" width="53" height="38">
<path d="M0.238037 0.553009H52.022V37.726H0.238037V0.553009Z" fill="white"/>
</mask>
<g mask="url(#mask0)">
<path fill-rule="evenodd" clip-rule="evenodd" d="M34.8309 8.40831C35.2168 8.38964 36.0882 8.3635 37.0629 8.42014L41.2187 4.69503L39.3925 4.51142L34.8097 8.40582L34.8129 8.40955C34.8185 8.40893 34.8253 8.40831 34.8309 8.40831ZM4.60994 27.5361L3.26057 25.1342L2.93878 27.8716L0.238159 28.4125L2.7421 29.5608L2.42156 32.2975L4.29065 30.271L6.79397 31.4224L5.44459 29.0199L7.31057 26.9952L4.60994 27.5361ZM13.6373 31.6913L12.2892 29.2888L11.9693 32.0255L9.26803 32.5658L11.772 33.7172L11.4514 36.454L13.3187 34.4262L15.822 35.5782L14.4726 33.1745L16.3398 31.1504L13.6373 31.6913ZM14.8479 20.099L13.4973 17.6971L13.1774 20.4338L10.4761 20.9753L12.9807 22.1268L12.6602 24.8629L14.5267 22.8351L17.0307 23.9865L15.6807 21.5847L17.5492 19.5575L14.8479 20.099ZM48.334 23.5577C47.6911 24.0195 46.9778 24.3301 46.2085 24.4838C44.0923 24.9089 41.9133 24.0513 40.6529 22.2992C39.2736 20.3772 39.3191 17.8645 40.5695 16.0091L45.0035 19.3029C45.0919 19.3689 45.2014 19.3957 45.3023 19.3826C45.4124 19.3708 45.5201 19.3147 45.5911 19.2201C45.7311 19.0347 45.6944 18.7714 45.5095 18.6326L41.2006 15.2374C41.4178 15.0152 41.6512 14.8048 41.9133 14.6187C42.5543 14.1556 43.2707 13.8444 44.04 13.6901C46.1537 13.2656 48.334 14.1251 49.595 15.8766C51.3645 18.3407 50.8 21.7857 48.334 23.5577ZM33.6564 15.6214C32.3394 14.6716 29.6158 15.1297 27.8425 15.4253C28.4456 14.1581 29.5093 12.8448 29.8647 11.3162C30.0545 12.2809 33.2394 13.3764 33.2394 13.3764C33.2394 13.3764 34.6865 13.0558 35.9369 12.5654C35.9506 12.5778 35.9655 12.5909 35.9792 12.6008L36.456 12.9556L33.6564 15.6214ZM35.5741 20.4911L34.3292 17.6218C34.3697 17.1662 34.3442 16.7567 34.2421 16.4156L36.4124 14.3479L35.5741 20.4911ZM35.055 24.2797C34.8278 24.2865 34.5994 24.3494 34.3877 24.4602C34.2695 24.3214 34.0865 24.1826 33.7548 23.9691C33.5046 23.8079 32.3668 23.1264 32.4097 22.9832C32.5747 22.489 32.9463 21.7515 33.4828 20.7077C34.0454 21.3282 34.6118 22.3863 35.1695 23.4525L35.055 24.2797ZM33.3191 26.6815C32.1938 25.1853 30.5238 24.2342 28.7201 23.989L28.9037 22.0135L30.4678 23.1183C30.296 23.7463 30.3695 24.0786 30.8805 24.284L33.6153 25.3434L33.6303 25.3546C33.5164 25.7075 33.527 26.0959 33.6807 26.4475L33.3191 26.6815ZM31.0143 35.2932C30.3726 35.7569 29.6568 36.0681 28.8888 36.2243C26.7751 36.6475 24.5942 35.7886 23.335 34.0371C21.5643 31.5718 22.1307 28.1262 24.5942 26.3554C25.2371 25.8942 25.9529 25.5824 26.7197 25.428C27.0166 25.3683 27.3147 25.3365 27.6116 25.3266L27.09 30.9239C27.0732 31.11 27.1647 31.2905 27.3228 31.3869C27.4305 31.4529 27.5556 31.4728 27.6732 31.4492C27.7323 31.4374 27.7896 31.4149 27.8413 31.3807L32.6705 28.2662C33.929 30.6562 33.2693 33.6749 31.0143 35.2932ZM28.5894 25.3807C29.9755 25.583 31.2558 26.3081 32.1409 27.4427L28.1581 30.0139L28.5894 25.3807ZM32.0761 18.4764C31.5751 20.211 31.0765 21.4309 30.7492 22.2905L29.2106 21.2031L32.0761 18.4764ZM26.0668 18.9811C26.2722 18.9786 26.4875 18.9631 26.7247 18.9183C28.5763 18.7347 29.8709 18.5448 30.7323 18.4042L28.3965 20.628L26.0668 18.9811ZM32.7502 10.6135C33.7722 10.7037 34.8209 10.6185 35.7465 10.4766L36.0838 11.221C35.3562 11.2664 34.6081 11.3448 33.9309 11.4569C33.3919 11.5459 31.9946 10.161 32.7502 10.6135ZM50.729 15.0612C49.1506 12.8647 46.417 11.7892 43.7643 12.3208C42.8002 12.5131 41.9014 12.904 41.0967 13.4828C40.7282 13.7486 40.394 14.0448 40.094 14.3647L38.0855 12.7832C38.6705 12.5647 40.4942 11.8315 39.7386 11.4345C39.5369 11.3262 39.1243 11.254 38.5902 11.2141L40.0149 9.97491L40.3261 9.70478L42.995 7.38258L41.7533 4.96516L37.6628 8.63424C37.6628 8.63424 37.6591 8.62864 37.262 8.99275C37.2577 8.99213 37.2539 8.9915 37.2508 8.9915L37.2539 9.00022L37.2508 9.00209L37.2483 8.99897C36.3801 8.94296 35.5653 9.01702 35.1153 9.08113L35.1141 9.07926C34.1967 9.24358 33.4211 9.36121 33.0521 9.28901C31.7095 9.02885 31.3921 7.60043 30.7834 6.77013C30.4373 6.29897 29.7427 6.2442 29.683 5.84026C29.8759 5.80478 30.0577 5.75001 30.2195 5.67221C30.9558 5.32117 31.2122 4.99005 31.412 4.54441C31.6653 3.9774 31.3946 3.04503 31.0162 2.27262C31.3205 2.05167 32.462 1.16101 32.4178 1.00914C32.4029 0.9525 30.9819 1.14918 30.385 1.26433C30.2973 1.15914 30.2158 1.07636 30.1454 1.02408C29.6581 0.666193 29.2604 0.302708 28.112 0.783206C26.1496 1.60167 26.2516 3.13217 26.9027 4.49586C27.2021 5.1276 27.7274 5.5247 28.3 5.72449C28.257 5.80478 28.2353 5.85022 28.2135 5.8913L28.2676 5.75499C25.1687 8.55084 17.9338 13.2581 16.0286 13.3515C17.6052 13.9664 22.1475 14.051 24.0508 12.9145C23.5168 15.088 23.4838 17.2328 24.4019 18.2959C23.6967 18.8187 22.9691 19.382 22.618 19.7237C22.3429 19.9913 22.4257 20.1288 22.6628 20.432C22.6628 20.432 24.5052 20.4668 25.051 19.9477C25.1973 19.8077 25.3249 19.682 25.4406 19.5649L27.9832 21.3612L27.7429 23.928C27.3116 23.9305 26.8784 23.971 26.4446 24.0581C25.4811 24.251 24.583 24.6425 23.7782 25.2208C20.6886 27.4421 19.9809 31.7604 22.1992 34.8519C23.7782 37.0484 26.5112 38.1226 29.1651 37.593C30.1292 37.3994 31.0267 37.0085 31.8303 36.4297C34.6921 34.3732 35.5062 30.5181 33.8487 27.5044L34.3535 27.1795C34.8601 27.4583 35.5012 27.4446 36.0035 27.0855C36.5102 26.7201 36.7267 26.1083 36.6166 25.5338C37.3056 25.3347 38.0288 25.1006 38.8367 24.8623C39.6738 24.6139 39.7971 24.3631 39.5904 23.9498C39.3091 23.3859 37.1867 23.895 36.9128 23.5757L36.3253 22.222L37.4867 13.7206L39.4473 15.1757C37.844 17.5073 37.7767 20.6884 39.5182 23.1145C41.0967 25.311 43.8321 26.3859 46.4836 25.855C47.4477 25.6614 48.3458 25.2705 49.1487 24.6923C52.2409 22.4722 52.9479 18.1508 50.729 15.0612Z" fill="#43455B"/>
</g>
</svg>
