<svg width="116" height="34" viewBox="0 0 116 34" fill="none" xmlns="http://www.w3.org/2000/svg">
<path fill-rule="evenodd" clip-rule="evenodd" d="M25.2903 6.29956C25.174 6.28978 22.7133 6.10744 22.7133 6.10744C22.7133 6.10744 21.0044 4.41083 20.8169 4.22335C20.7467 4.15314 20.652 4.11739 20.553 4.10196L19.1725 32.34L29.0646 30.2C29.0646 30.2 25.5917 6.72056 25.5698 6.55931C25.5477 6.39831 25.4068 6.30933 25.2903 6.29956Z" fill="#43455B"/>
<path fill-rule="evenodd" clip-rule="evenodd" d="M14.4119 1.6122C14.2401 1.4939 14.0605 1.43346 13.8823 1.43346C10.9168 1.43346 9.25078 5.32716 8.5492 7.71584C9.19731 7.51504 9.88875 7.30095 10.5989 7.08107L11.0714 6.93479C11.6703 3.80311 13.0887 2.23484 14.4119 1.6122ZM15.528 5.37602C15.528 4.14388 15.3629 3.23089 15.1091 2.59463C14.1022 3.02669 12.9506 4.17191 12.3362 6.5431L15.527 5.55502L15.527 5.55264C15.5275 5.49507 15.528 5.43818 15.528 5.37602ZM16.61 5.21992L18.1548 4.74182C17.7634 3.54594 17.1552 2.50693 16.2417 2.39223C16.4693 3.04392 16.6107 3.86587 16.6107 4.88687C16.6107 5.00389 16.6105 5.11113 16.61 5.21992ZM25.2903 6.29956C25.4068 6.30933 25.5477 6.39831 25.5698 6.55931C25.5917 6.7203 29.0647 30.2 29.0647 30.2L19.1715 32.3403L0.913025 28.9193C0.913025 28.9193 3.25619 10.7984 3.34491 10.1596C3.46244 9.31576 3.49048 9.28747 4.38623 9.00663C4.5318 8.96085 5.67161 8.60748 7.2759 8.11035C7.89442 5.48738 9.86698 0.32605 13.9957 0.32605C14.535 0.32605 15.1595 0.615634 15.6633 1.28224C15.714 1.27941 15.7644 1.27736 15.8132 1.27736C17.5857 1.27736 18.5931 2.787 19.164 4.4296C19.747 4.24932 20.0994 4.14053 20.1205 4.13436C20.2627 4.09244 20.6292 4.03561 20.8169 4.22309C21.0044 4.41083 22.7134 6.10744 22.7134 6.10744C22.7134 6.10744 25.174 6.28978 25.2903 6.29956ZM14.5934 15.3944L15.8132 11.7659C15.8132 11.7659 14.9887 11.2878 13.3196 11.2878C8.98768 11.2878 6.84204 14.181 6.84204 17.1708C6.84204 19.1662 7.96048 20.0711 8.94078 20.8643C9.70554 21.4831 10.3862 22.0338 10.3862 22.9812C10.3862 23.5038 10.0164 24.219 9.1083 24.219C7.71799 24.219 6.0705 22.8045 6.0705 22.8045L5.23132 25.5772C5.23132 25.5772 6.83381 27.5279 9.96831 27.5279C12.5802 27.5279 14.517 25.5612 14.517 22.5072C14.517 20.1594 12.9368 18.9993 11.6879 18.0824C10.8718 17.4833 10.1972 16.9881 10.1972 16.3331C10.1972 16.0294 10.2939 14.824 12.2145 14.824C13.5246 14.824 14.5934 15.3944 14.5934 15.3944Z" fill="#43455B"/>
<path fill-rule="evenodd" clip-rule="evenodd" d="M40.5974 18.5683C39.6106 18.0328 39.1034 17.5818 39.1034 16.9614C39.1034 16.1722 39.8081 15.6647 40.9075 15.6647C42.188 15.6647 43.3317 16.2004 43.3317 16.2004L44.2339 13.4378C44.2339 13.4378 43.4045 12.7895 40.9638 12.7895C37.5668 12.7895 35.213 14.7345 35.213 17.4691C35.213 19.0194 36.3125 20.2034 37.7784 21.049C38.9625 21.7254 39.3853 22.2048 39.3853 22.9097C39.3853 23.6427 38.7932 24.2345 37.6938 24.2345C36.0558 24.2345 34.5084 23.3889 34.5084 23.3889L33.5499 26.1515C33.5499 26.1515 34.979 27.1097 37.3836 27.1097C40.8795 27.1097 43.3883 25.3902 43.3883 22.2894C43.3883 20.6262 42.1196 19.4422 40.5974 18.5683ZM54.5231 12.7612C52.8036 12.7612 51.4506 13.5788 50.4075 14.8191L50.3511 14.7908L51.8451 6.98236H47.955L44.1775 26.8562H48.0676L49.3646 20.0625C49.872 17.4971 51.1967 15.9186 52.4371 15.9186C53.311 15.9186 53.6495 16.5103 53.6495 17.3562C53.6495 17.8917 53.5929 18.54 53.4802 19.0757L52.0143 26.8562H55.9047L57.4267 18.8221C57.5959 17.9763 57.7088 16.9614 57.7088 16.2851C57.7088 14.0862 56.5528 12.7612 54.5231 12.7612ZM64.5873 24.1499C63.2623 24.1499 62.6986 23.0224 62.6986 21.613C62.6986 19.3859 63.8543 15.7493 65.9686 15.7493C67.3497 15.7493 67.8008 16.9334 67.8008 18.0892C67.8008 20.4853 66.645 24.1499 64.5873 24.1499ZM66.5041 12.7612C61.8247 12.7612 58.7239 16.9897 58.7239 21.6974C58.7239 24.7139 60.5843 27.138 64.0799 27.138C68.6747 27.138 71.7755 23.0224 71.7755 18.2018C71.7755 15.4112 70.1406 12.7612 66.5041 12.7612ZM78.0059 24.2062C76.9957 24.2062 76.399 23.6427 76.399 23.6427L77.0474 20.0059C77.4985 17.5818 78.7669 15.9749 80.1202 15.9749C81.304 15.9749 81.6704 17.0743 81.6704 18.1172C81.6704 20.6262 80.1765 24.2062 78.0059 24.2062ZM81.727 12.7612C79.1012 12.7612 77.6111 15.0727 77.6111 15.0727H77.5548L77.7803 12.9867H74.3413C74.1721 14.3963 73.862 16.5386 73.5518 18.1455L70.8455 32.3814H74.7359L75.807 26.6306H75.8916C75.8916 26.6306 76.6902 27.138 78.1751 27.138C82.7418 27.138 85.7298 22.4586 85.7298 17.7227C85.7298 15.101 84.574 12.7612 81.727 12.7612ZM91.2836 7.17962C90.0434 7.17962 89.0566 8.16616 89.0566 9.43482C89.0566 10.5906 89.7896 11.3801 90.889 11.3801H90.9454C92.1574 11.3801 93.2006 10.5623 93.2289 9.12492C93.2289 7.99719 92.4676 7.17962 91.2836 7.17962Z" fill="#43455B"/>
<path fill-rule="evenodd" clip-rule="evenodd" d="M85.843 26.856H89.733L92.383 13.071H88.465L85.843 26.856Z" fill="#43455B"/>
<path fill-rule="evenodd" clip-rule="evenodd" d="M102.277 13.0431H99.5712L99.7121 12.3947C99.9377 11.07 100.727 9.88592 102.024 9.88592C102.716 9.88592 103.264 10.0832 103.264 10.0832L104.025 7.03869C104.025 7.03869 103.349 6.7005 101.911 6.7005C100.53 6.7005 99.1484 7.09527 98.1053 7.9972C96.7803 9.12493 96.1602 10.7598 95.8501 12.3947L95.7374 13.0431H93.9333L93.3696 15.9749H95.1737L93.1157 26.8562H97.0058L99.0638 15.9749H101.742L102.277 13.0431ZM111.636 13.0713C111.636 13.0713 109.205 19.1986 108.113 22.5433H108.057C107.982 21.4665 107.098 13.0713 107.098 13.0713H103.01L105.35 25.7287C105.407 26.0103 105.379 26.1795 105.266 26.377C104.815 27.2509 104.054 28.0965 103.151 28.7166C102.419 29.2523 101.601 29.5905 100.953 29.816L102.024 33.1144C102.813 32.9451 104.448 32.2968 105.829 31.0001C107.605 29.3369 109.24 26.7716 110.932 23.276L115.696 13.0713H111.636Z" fill="#43455B"/>
</svg>
