<svg width="101" height="26" viewBox="0 0 101 26" fill="none" xmlns="http://www.w3.org/2000/svg">
<path fill-rule="evenodd" clip-rule="evenodd" d="M32.5 20.26L33.75 17.26C35.1814 18.3102 36.9147 18.8681 38.69 18.85C40.01 18.85 40.84 18.33 40.84 17.54C40.81 15.34 32.96 17.06 32.9 11.54C32.88 8.73001 35.31 6.57001 38.75 6.57001C40.79 6.57001 42.84 7.09001 44.3 8.27001L43.12 11.32C41.7679 10.4005 40.184 9.88061 38.55 9.82001C37.48 9.82001 36.77 10.35 36.77 11.02C36.79 13.17 44.7 11.99 44.78 17.27C44.78 20.13 42.41 22.15 39.01 22.15C36.52 22.15 34.24 21.55 32.5 20.25V20.26ZM80.64 16.19C80.3297 16.7582 79.873 17.2331 79.3174 17.5654C78.7618 17.8977 78.1274 18.0754 77.48 18.08C75.48 18.08 73.86 16.41 73.86 14.36C73.8534 13.878 73.9418 13.3995 74.1201 12.9517C74.2985 12.5039 74.5633 12.0956 74.8995 11.7502C75.2356 11.4047 75.6365 11.1289 76.0793 10.9384C76.5221 10.7479 76.998 10.6465 77.48 10.64C78.84 10.64 80.01 11.41 80.64 12.53L84.1 10.56C83.4573 9.36038 82.5034 8.35592 81.3386 7.6521C80.1738 6.94827 78.8409 6.57104 77.48 6.56001C75.4413 6.59161 73.4983 7.43054 72.0773 8.89279C70.6563 10.355 69.8733 12.3212 69.9 14.36C69.9 18.66 73.3 22.15 77.48 22.15C80.34 22.15 82.81 20.55 84.1 18.16L80.64 16.19ZM46.53 0.100006H50.86V21.85H46.53V0.100006ZM85.8 0.100006V21.86H90.13V15.33L95.27 21.86H100.82L94.28 14.11L100.33 6.88001H95.03L90.13 12.88V0.100006H85.8Z" fill="#43455B"/>
<path d="M63.72 16.23C63.36 16.8 62.8608 17.2689 62.2695 17.5926C61.6781 17.9162 61.0141 18.084 60.34 18.08C58.34 18.08 56.72 16.41 56.72 14.36C56.7134 13.878 56.8018 13.3995 56.9801 12.9517C57.1585 12.5039 57.4233 12.0956 57.7595 11.7502C58.0956 11.4047 58.4965 11.1289 58.9393 10.9384C59.3821 10.7479 59.858 10.6465 60.34 10.64C61.8 10.64 63.1 11.47 63.72 12.55V16.23ZM63.72 6.88001V8.64001C63.02 7.42001 61.25 6.57001 59.42 6.57001C55.61 6.57001 52.62 10.02 52.62 14.34C52.62 18.66 55.61 22.15 59.42 22.15C61.25 22.15 63.02 21.3 63.72 20.07V21.84H68.05V6.88001H63.72Z" fill="#43455B"/>
<path fill-rule="evenodd" clip-rule="evenodd" d="M5.58005 16.4C5.58005 16.934 5.4217 17.456 5.12502 17.9C4.82834 18.3441 4.40666 18.6901 3.9133 18.8945C3.41994 19.0988 2.87706 19.1523 2.35331 19.0481C1.82956 18.9439 1.34847 18.6868 0.970867 18.3092C0.593265 17.9316 0.336115 17.4505 0.231935 16.9267C0.127755 16.403 0.181224 15.8601 0.38558 15.3668C0.589937 14.8734 0.936003 14.4517 1.38002 14.155C1.82403 13.8584 2.34605 13.7 2.88005 13.7H5.58005V16.4ZM6.93005 16.4C6.93005 15.6813 7.21557 14.992 7.7238 14.4837C8.23202 13.9755 8.92132 13.69 9.64006 13.69C10.3588 13.69 11.0481 13.9755 11.5563 14.4837C12.0645 14.992 12.3501 15.6813 12.3501 16.4V23.17C12.3501 23.8887 12.0645 24.578 11.5563 25.0863C11.0481 25.5945 10.3588 25.88 9.64006 25.88C8.92132 25.88 8.23202 25.5945 7.7238 25.0863C7.21557 24.578 6.93005 23.8887 6.93005 23.17V16.41V16.4Z" fill="#43455B"/>
<path fill-rule="evenodd" clip-rule="evenodd" d="M9.64003 5.54002C9.10644 5.54001 8.58482 5.38191 8.14103 5.08567C7.69724 4.78943 7.35117 4.36834 7.14652 3.87556C6.94187 3.38278 6.88782 2.84041 6.9912 2.31694C7.09457 1.79346 7.35073 1.31236 7.72733 0.93436C8.10393 0.556363 8.58409 0.298427 9.10718 0.193121C9.63027 0.0878139 10.1728 0.139858 10.6664 0.342682C11.1599 0.545506 11.5823 0.890015 11.8801 1.33271C12.178 1.77541 12.338 2.29644 12.34 2.83002V5.53002H9.64003V5.54002ZM9.64003 6.91002C9.99525 6.91002 10.347 6.97998 10.6752 7.11592C11.0034 7.25186 11.3016 7.45111 11.5527 7.70229C11.8039 7.95347 12.0032 8.25167 12.1391 8.57986C12.2751 8.90804 12.345 9.25979 12.345 9.61502C12.345 9.97024 12.2751 10.322 12.1391 10.6502C12.0032 10.9784 11.8039 11.2766 11.5527 11.5277C11.3016 11.7789 11.0034 11.9782 10.6752 12.1141C10.347 12.25 9.99525 12.32 9.64003 12.32H2.85002C2.49546 12.32 2.14436 12.2502 1.81678 12.1145C1.4892 11.9788 1.19155 11.7799 0.940836 11.5292C0.690118 11.2785 0.491237 10.9808 0.35555 10.6533C0.219862 10.3257 0.150024 9.97459 0.150024 9.62002C0.150024 9.26545 0.219862 8.91435 0.35555 8.58677C0.491237 8.25919 0.690118 7.96155 0.940836 7.71083C1.19155 7.46011 1.4892 7.26123 1.81678 7.12554C2.14436 6.98985 2.49546 6.92002 2.85002 6.92002H9.64003V6.91002Z" fill="#43455B"/>
<path fill-rule="evenodd" clip-rule="evenodd" d="M20.49 9.62C20.49 9.08599 20.6484 8.56397 20.9451 8.11996C21.2417 7.67595 21.6634 7.32988 22.1568 7.12553C22.6501 6.92117 23.193 6.8677 23.7168 6.97188C24.2405 7.07606 24.7216 7.33321 25.0992 7.71081C25.4768 8.08841 25.734 8.56951 25.8382 9.09326C25.9423 9.617 25.8889 10.1599 25.6845 10.6532C25.4802 11.1466 25.1341 11.5683 24.6901 11.865C24.2461 12.1616 23.724 12.32 23.19 12.32H20.49V9.62ZM19.13 9.62C19.13 10.3374 18.845 11.0254 18.3378 11.5327C17.8305 12.04 17.1424 12.325 16.425 12.325C15.7076 12.325 15.0196 12.04 14.5123 11.5327C14.005 11.0254 13.72 10.3374 13.72 9.62V2.83C13.72 2.11259 14.005 1.42456 14.5123 0.917276C15.0196 0.40999 15.7076 0.125 16.425 0.125C17.1424 0.125 17.8305 0.40999 18.3378 0.917276C18.845 1.42456 19.13 2.11259 19.13 2.83V9.62Z" fill="#43455B"/>
<path fill-rule="evenodd" clip-rule="evenodd" d="M16.43 20.47C16.9636 20.472 17.4846 20.632 17.9273 20.9299C18.37 21.2278 18.7145 21.6501 18.9174 22.1437C19.1202 22.6372 19.1722 23.1798 19.0669 23.7029C18.9616 24.2259 18.7037 24.7061 18.3257 25.0827C17.9477 25.4593 17.4666 25.7155 16.9431 25.8188C16.4196 25.9222 15.8773 25.8682 15.3845 25.6635C14.8917 25.4589 14.4706 25.1128 14.1744 24.669C13.8781 24.2252 13.72 23.7036 13.72 23.17V20.47H16.42H16.43ZM16.43 19.11C15.7126 19.11 15.0246 18.825 14.5173 18.3177C14.01 17.8105 13.725 17.1224 13.725 16.405C13.725 15.6876 14.01 14.9996 14.5173 14.4923C15.0246 13.985 15.7126 13.7 16.43 13.7H23.21C23.9274 13.7 24.6155 13.985 25.1228 14.4923C25.63 14.9996 25.915 15.6876 25.915 16.405C25.915 17.1224 25.63 17.8105 25.1228 18.3177C24.6155 18.825 23.9274 19.11 23.21 19.11H16.43Z" fill="#43455B"/>
</svg>
