<svg width="111" height="30" viewBox="0 0 111 30" fill="none" xmlns="http://www.w3.org/2000/svg">
<path fill-rule="evenodd" clip-rule="evenodd" d="M6.21375 14.0081C7.75234 13.307 12.0597 11.9989 16.1852 11.0349C16.1852 11.0349 8.25547 18.3544 6.05151 20.6233L7.87244 15.6863C6.4572 15.894 5.834 15.9752 3.89935 16.3874L6.21375 14.0081ZM16.1074 6.13025C16.7922 6.46461 19.3273 8.18813 20.2297 8.82434C17.3408 8.89249 11.7026 10.1422 9.35583 10.9245C11.2839 9.47354 14.8642 6.70804 16.1074 6.13025ZM26.2963 13.3297L22.5927 13.6997C22.5927 13.6997 22.2519 14.4106 21.9306 15.3909C19.1618 15.5564 14.8025 16.4717 12.6732 17.241C13.7702 16.2316 20.7685 9.20093 20.7685 9.20093C23.4821 11.0543 26.2963 13.3297 26.2963 13.3297ZM20.1193 20.7077C13.186 21.1232 5.64574 23.6323 4.85046 23.9828L5.77557 21.3796C8.12567 20.2922 13.9748 18.1434 21.1678 17.6306C21.0282 18.1629 20.2687 20.1235 20.1193 20.7077ZM0.595703 29.1598V0.668335H29.0872V29.1598H0.595703ZM42.0419 22.2321C42.0419 22.2321 42.9447 22.2251 43.7617 22.2251H50.5917L49.5409 25.5518H36.8742V22.6924L44.5314 9.5415C45.0865 8.60797 45.3847 7.88519 45.3847 7.88519C45.3847 7.88519 44.9403 7.84912 43.7144 7.84912H37.4686L38.3739 4.46368H50.515V7.41144L42.7993 20.9125C42.3605 21.642 42.0419 22.2321 42.0419 22.2321ZM55.2809 5.85925C56.5957 5.85925 57.6458 6.93947 57.6458 8.28217C57.6458 9.62449 56.5673 10.7047 55.2246 10.7047C53.9103 10.7047 52.8315 9.62449 52.8315 8.28217C52.8315 6.93947 53.9397 5.85925 55.2809 5.85925ZM53.2755 12.4415L57.172 11.5682L57.1802 25.5826H53.2688L53.2755 12.4415ZM60.9974 4.86023L64.9959 3.95581L65.0242 25.5423H61.0258L60.9974 4.86023ZM68.7681 4.86023L72.7682 3.95581L72.7952 25.5423H68.7965L68.7681 4.86023ZM105.431 15.9509L106.569 10.61H110.596L106.336 25.5518H102.746L101.403 20.4169C101.083 19.2197 100.731 17.7892 100.558 16.7966C100.442 16.0962 100.412 15.8924 100.324 15.309C100.235 15.9509 100.207 16.1553 99.9731 17.2337C99.6823 18.5194 99.0386 21.0883 98.6886 22.488L97.9308 25.5518H94.2818L90.1217 10.6082H94.1134L95.3052 16.184C95.6836 17.9058 96.1492 20.825 96.1492 20.825C96.1492 20.825 96.53 18.1686 97.2303 15.6296L98.6308 10.61H102.309L103.505 15.5428C104.177 18.315 104.613 20.825 104.613 20.825C104.702 20.1824 105.022 17.8477 105.431 15.9509ZM82.4653 10.3179C84.5966 10.3179 86.2599 11.0473 87.5438 12.5658C88.7412 13.967 89.2661 15.6005 89.2661 18.0227C89.2661 20.5911 88.6826 22.3424 87.3975 23.8016C86.2599 25.0862 84.7709 25.8723 82.4653 25.8723C78.4088 25.8723 75.7532 22.8387 75.7532 18.1403C75.7532 13.4409 78.4382 10.3179 82.4653 10.3179ZM82.582 23.0438C84.2746 23.0438 85.0046 21.5261 85.0046 17.9943C85.0046 15.9796 84.7426 14.6666 84.2172 13.995C83.8376 13.4993 83.2255 13.2074 82.5251 13.2074C81.5893 13.2074 80.8314 13.7916 80.5108 14.7248C80.2491 15.5127 80.1016 16.5631 80.1016 18.0521C80.1016 19.7735 80.2773 21.0581 80.5979 21.8173C80.9479 22.6343 81.8239 23.0438 82.582 23.0438Z" fill="#43455B"/>
</svg>
