<svg width="512" height="512" viewBox="0 0 512 512" fill="none" xmlns="http://www.w3.org/2000/svg">
<g opacity="0.25">
<path d="M476 459.3L462.3 473C459 476.3 453.7 476.3 450.3 473.1L348.8 374.4C344.6 370.3 338.2 369.6 333.2 372.7L317.5 381.7C291.7 396.7 261.9 405.5 229.9 405.5H228.9C228.9 380.4 245 358 269 350.5C320.1 334.5 355.2 288 355.2 230.2C355.2 172.7 320.5 126.5 269.9 110.2C245.5 102.4 228.9 79.6 228.9 54H229.9C326.8 54 405.6 132.8 405.6 229.7C405.6 273.9 389 314.3 362 345.2L476 459.3Z" fill="black"/>
<path d="M260 264.8C260 245.2 247.4 228.4 230 222.1C234.8 220.3 240 219.4 245.4 219.4C270.4 219.4 290.8 239.8 290.8 264.8C290.8 289.8 270.4 310.2 245.4 310.2C240 310.2 234.8 309.2 230 307.5C247.4 301.2 260 284.4 260 264.8Z" fill="black"/>
<path d="M74.9 439.099C74.9 464.099 56.1999 484.499 33.2999 484.499C28.3999 484.499 23.6 483.499 19.2 481.799C35.2 475.499 46.7 458.699 46.7 439.099C46.7 419.499 35.2 402.699 19.2 396.399C23.6 394.599 28.2999 393.699 33.2999 393.699C56.1999 393.699 74.9 414.199 74.9 439.099Z" fill="black"/>
</g>
<path d="M492.5 344.499C471.9 344.499 455.1 327.699 455.1 307.099C455.1 286.499 471.9 269.699 492.5 269.699C496.9 269.699 500.5 266.099 500.5 261.699C500.5 257.299 496.9 253.699 492.5 253.699C467.4 253.699 446.3 271.099 440.6 294.499L404.8 285.799C410.6 267.799 413.6 248.899 413.6 229.799C413.6 128.499 331.2 46.0991 229.9 46.0991C128.6 46.0991 46.2001 128.499 46.2001 229.799C46.2001 286.499 72 337.299 112.5 370.999L69.3001 406.799C59.5001 393.999 44.1 385.699 26.8 385.699C22.4 385.699 18.8 389.299 18.8 393.699C18.8 398.099 22.4 401.699 26.8 401.699C47.4 401.699 64.2 418.499 64.2 439.099C64.2 459.699 47.4 476.499 26.8 476.499C22.4 476.499 18.8 480.099 18.8 484.499C18.8 488.899 22.4 492.499 26.8 492.499C56.2 492.499 80.2 468.499 80.2 439.099C80.2 432.799 79.1 426.699 77.1 421.099L125.6 380.999C155.3 401.499 191.2 413.599 229.9 413.599C261.9 413.599 293.6 404.999 321.5 388.799C325.3 386.599 326.6 381.699 324.4 377.899C322.2 374.099 317.3 372.799 313.5 374.999C288 389.799 259.1 397.699 230 397.699C196.3 397.699 164.9 387.699 138.5 370.499L211.4 310.199C219.7 315.499 229.5 318.599 240.1 318.599C266.1 318.599 287.9 299.899 292.6 275.099L332.6 284.799C327.1 295.199 320 304.899 311.3 313.499C289.3 335.299 260 347.399 229 347.399C224.6 347.399 221 350.999 221 355.399C221 359.799 224.6 363.399 229 363.399C264.3 363.399 297.5 349.699 322.6 324.899C333.4 314.199 342.1 301.999 348.6 288.799L383.6 297.299C376.8 312.799 367.6 327.299 356.2 340.299C353.4 343.499 353.6 348.199 356.6 351.199L464.9 459.499L454.3 470.099L344.3 363.199C341.1 360.099 336.1 360.199 333 363.399C329.9 366.599 330 371.599 333.2 374.699L448.8 487.099C450.4 488.599 452.4 489.399 454.4 489.399C456.4 489.399 458.5 488.599 460.1 487.099L481.9 465.299C485 462.199 485 457.099 481.9 453.999L372.9 344.899C383.8 331.399 392.6 316.599 399.2 300.899L439.2 310.599C441 338.399 464.2 360.499 492.5 360.499C496.9 360.499 500.5 356.899 500.5 352.499C500.5 348.099 497 344.499 492.5 344.499ZM240.1 302.399C231.3 302.399 223.1 299.299 216.7 294.199C216.4 293.899 216.1 293.699 215.8 293.399C207.8 286.499 202.7 276.399 202.7 264.999C202.7 244.399 219.5 227.599 240.1 227.599C260.7 227.599 277.5 244.399 277.5 264.999C277.5 285.599 260.7 302.399 240.1 302.399ZM293.1 258.699C289.9 232.299 267.4 211.699 240.1 211.699C228.9 211.699 218.5 215.199 210 221.099L148.7 148.699C148.2 148.099 147.6 147.599 147 147.199C168.1 126.399 197.1 113.499 229.1 113.499C293.6 113.499 346 165.999 346 230.399C346 244.099 343.7 257.399 339.2 269.899L293.1 258.699ZM354.7 273.599C359.4 259.799 361.9 245.199 361.9 230.299C361.9 156.999 302.3 97.3991 229 97.3991C155.7 97.3991 96.1001 156.999 96.1001 230.299C96.1001 234.699 99.7001 238.299 104.1 238.299H178.5C182.9 238.299 186.5 234.699 186.5 230.299C186.5 225.899 182.9 222.299 178.5 222.299H112.4C114 198.499 122.8 176.699 136.5 158.899L198.3 231.899C191.1 240.999 186.7 252.499 186.7 264.999C186.7 278.099 191.4 289.999 199.2 299.299L125.1 360.599C86.8001 329.799 62.2001 282.599 62.2001 229.799C62.2001 137.299 137.4 62.0991 229.9 62.0991C322.4 62.0991 397.6 137.299 397.6 229.799C397.6 247.699 394.7 265.299 389.2 281.999L354.7 273.599ZM57.2001 135.699C47.0001 125.799 41.3 112.399 41.1 98.0991C40.9 83.7991 46.3001 70.2991 56.2001 60.0991C66.2001 49.9991 79.5 44.2991 93.8 44.0991C108.1 43.8991 121.6 49.2991 131.8 59.1991C135 62.2991 135 67.2991 131.9 70.4991C128.8 73.6991 123.8 73.6991 120.6 70.5991C105.8 56.1991 82.1 56.4991 67.7 71.2991C60.8 78.3991 57.0001 87.8991 57.2001 97.8991C57.3001 107.899 61.3001 117.299 68.4001 124.199C71.6001 127.299 71.6 132.299 68.5 135.499C66.9 137.099 64.9 137.899 62.8 137.899C60.8 137.899 58.8001 137.199 57.2001 135.699Z" fill="black"/>
<path opacity="0.25" d="M123.2 451.199H209.4L166.3 494.299L123.2 451.199Z" fill="black"/>
<path opacity="0.25" d="M182.9 299.9C182.9 304.3 179.3 307.9 174.9 307.9H134.1C129.7 307.9 126.1 304.3 126.1 299.9C126.1 295.5 129.7 291.9 134.1 291.9H174.9C179.3 291.9 182.9 295.5 182.9 299.9ZM355.5 426.2H312.5C308.1 426.2 304.5 429.8 304.5 434.2C304.5 438.6 308.1 442.2 312.5 442.2H355.5C359.9 442.2 363.5 438.6 363.5 434.2C363.5 429.8 359.9 426.2 355.5 426.2ZM334 456.2H260.2C255.8 456.2 252.2 459.8 252.2 464.2C252.2 468.6 255.8 472.2 260.2 472.2H334C338.4 472.2 342 468.6 342 464.2C342 459.8 338.4 456.2 334 456.2ZM429.7 23.5004C425.3 23.5004 421.7 27.1004 421.7 31.5004C421.7 42.9004 412.4 52.3004 400.9 52.3004C396.5 52.3004 392.9 55.9004 392.9 60.3004C392.9 64.7004 396.5 68.3004 400.9 68.3004C421.2 68.3004 437.7 51.8004 437.7 31.5004C437.7 27.0004 434.2 23.5004 429.7 23.5004ZM479.7 68.2004C484.1 68.2004 487.7 64.6004 487.7 60.2004C487.7 55.8004 484.1 52.2004 479.7 52.2004C468.3 52.2004 458.9 42.9004 458.9 31.4004C458.9 27.0004 455.3 23.4004 450.9 23.4004C446.5 23.4004 442.9 27.0004 442.9 31.4004C443 51.7004 459.5 68.2004 479.7 68.2004ZM479.7 73.5004C459.4 73.5004 442.9 90.0004 442.9 110.3C442.9 114.7 446.5 118.3 450.9 118.3C455.3 118.3 458.9 114.7 458.9 110.3C458.9 98.9004 468.2 89.5004 479.7 89.5004C484.1 89.5004 487.7 85.9004 487.7 81.5004C487.7 77.1004 484.2 73.5004 479.7 73.5004ZM401 73.5004C396.6 73.5004 393 77.1004 393 81.5004C393 85.9004 396.6 89.5004 401 89.5004C412.4 89.5004 421.8 98.8004 421.8 110.3C421.8 114.7 425.4 118.3 429.8 118.3C434.2 118.3 437.8 114.7 437.8 110.3C437.7 89.9004 421.3 73.5004 401 73.5004ZM465.4 175.2C459.5 175.2 454.6 180 454.6 186C454.6 192 459.4 196.8 465.4 196.8C471.4 196.8 476.2 192 476.2 186C476.2 180 471.3 175.2 465.4 175.2ZM31.4001 303C25.5001 303 20.6001 307.8 20.6001 313.8C20.6001 319.8 25.4001 324.6 31.4001 324.6C37.3001 324.6 42.2001 319.8 42.2001 313.8C42.2001 307.8 37.4001 303 31.4001 303ZM376.8 470.4C370.9 470.4 366 475.2 366 481.2C366 487.1 370.8 492 376.8 492C382.8 492 387.6 487.2 387.6 481.2C387.5 475.2 382.7 470.4 376.8 470.4Z" fill="black"/>
</svg>
