<svg width="512" height="512" viewBox="0 0 512 512" fill="none" xmlns="http://www.w3.org/2000/svg">
<g opacity="0.25">
<path d="M19.1 33.5999L79.9 94.5999L19 94.5L19.1 33.5999ZM249.6 18.7V34.0999L486.7 34.4V19L249.6 18.7Z" fill="black"/>
<path d="M423.8 69.5V54.9L484.9 55V69.5999L423.8 69.5ZM397.7 69.4V54.7999L336.6 54.7V69.3L397.7 69.4Z" fill="black"/>
<path d="M421.2 478.1L421.3 417L482.4 417.1L482.3 478.2L421.2 478.1Z" fill="black"/>
</g>
<path opacity="0.25" d="M164.3 25C159.4 25 155.5 29 155.4 33.8C155.4 38.7 159.4 42.6 164.2 42.7C166.6 42.7 168.8 41.8 170.4 40.1C172.1 38.4 173 36.2 173 33.8C173 31.4 172.1 29.2 170.4 27.5C168.7 25.8 166.7 25 164.3 25ZM150.7 59.1C148.3 59.1 146.1 60 144.4 61.7C142.7 63.4 141.8 65.6 141.8 68C141.8 72.9 145.8 76.8 150.6 76.9C153 76.9 155.2 76 156.8 74.3C158.5 72.6 159.4 70.4 159.4 68C159.4 65.6 158.5 63.4 156.8 61.7C155.3 60 153.1 59.1 150.7 59.1ZM212.7 68.3C207.8 68.3 203.9 72.3 203.8 77.1C203.8 82 207.8 85.9 212.6 85.9C215 85.9 217.2 85 218.8 83.3C220.5 81.6 221.4 79.4 221.4 77C221.4 74.6 220.5 72.4 218.8 70.8C217.3 69.3 215.1 68.3 212.7 68.3ZM442.7 317.3C442.7 321.7 439.1 325.3 434.7 325.3L345.9 325.2C341.5 325.2 337.9 321.6 337.9 317.2C337.9 312.8 341.5 309.2 345.9 309.2L434.7 309.3C439.1 309.3 442.7 312.9 442.7 317.3ZM423.5 371.7C423.5 376.1 419.9 379.7 415.5 379.7L240.1 379.5C235.7 379.5 232.1 375.9 232.1 371.5C232.1 367.1 235.7 363.5 240.1 363.5L415.5 363.7C419.9 363.7 423.5 367.3 423.5 371.7ZM38.9 186.9C36.5 186.9 34.3 187.8 32.6 189.5C30.9 191.2 30 193.4 30 195.8C30 200.7 34 204.6 38.8 204.7C41.2 204.7 43.4 203.8 45 202.1C46.7 200.4 47.6 198.2 47.6 195.8C47.7 190.9 43.8 186.9 38.9 186.9ZM39 143.1C36.6 143.1 34.4 144 32.7 145.7C31 147.4 30.1 149.6 30.1 152C30.1 156.9 34.1 160.8 38.9 160.9C41.3 160.9 43.5 160 45.1 158.3C46.8 156.6 47.7 154.4 47.7 152C47.7 149.6 46.8 147.4 45.1 145.7C43.5 144 41.3 143.1 39 143.1ZM479.6 134.9C479.6 139.3 476 142.9 471.6 142.9H460.2V154.3C460.2 158.7 456.6 162.3 452.2 162.3C447.8 162.3 444.2 158.7 444.2 154.3V142.9H432.8C428.4 142.9 424.8 139.3 424.8 134.9C424.8 130.5 428.4 126.9 432.8 126.9H444.2V115.5C444.2 111.1 447.8 107.5 452.2 107.5C456.6 107.5 460.2 111.1 460.2 115.5V126.9H471.6C476.1 126.9 479.7 130.5 479.6 134.9ZM265.4 256C265.4 251.6 269 248 273.4 248L347.2 248.1C351.6 248.1 355.2 251.7 355.2 256.1C355.2 260.5 351.6 264.1 347.2 264.1L273.4 264C269 264 265.4 260.4 265.4 256Z" fill="black"/>
<path opacity="0.25" d="M240.8 492.4L71.2 492.2C53.1 492.2 38.4 477.4 38.4 459.3C38.4 453.6 40 447.9 42.9 442.9L103.8 339C103.8 339 134.5 339.8 164.4 355.5C171.4 359.2 185.8 360.6 198.5 361C213.3 361.5 226.9 369.6 234.3 382.5L269.2 443.1C272.2 448.2 273.7 453.9 273.7 459.5C273.7 477.7 258.9 492.4 240.8 492.4Z" fill="black"/>
<path d="M290.1 500.4C290.1 500.4 290 500.4 290.1 500.4L71.3 500.1C60.4 500.1 50.2 495.8 42.5 488.1C34.8 480.4 30.6 470.1 30.6 459.2C30.6 452.1 32.6 445 36.2 438.7L129.3 279.2L129.5 120.2C129.5 118.1 130.3 116 131.9 114.5C133.4 113 135.4 112.2 137.5 112.2L225 112.3C227.1 112.3 229.2 113.1 230.7 114.7C232.2 116.2 233 118.2 233 120.4L232.8 261.4C232.8 265.8 229.2 269.4 224.8 269.4C220.4 269.4 216.8 265.8 216.8 261.4L217 128.4L145.5 128.3L145.3 281.4C145.3 282.8 144.9 284.2 144.2 285.4L49.9 446.9C47.6 450.8 46.4 455.1 46.4 459.3C46.4 465.9 49 472.1 53.7 476.8C58.4 481.5 64.6 484.1 71.2 484.1L290 484.4C296.6 484.4 302.8 481.8 307.5 477.1C312.2 472.4 314.8 466.2 314.8 459.6C314.8 455.3 313.6 451 311.4 447.2L220 290.6L180.8 290.5C176.4 290.5 172.8 286.9 172.8 282.5V260.6C172.8 258.5 173.6 256.4 175.2 254.9C176.7 253.4 178.7 252.6 180.8 252.6H194.7V246.7H180.8C176.4 246.7 172.8 243.1 172.8 238.7V216.8C172.8 214.7 173.6 212.6 175.2 211.1C176.7 209.6 178.7 208.8 180.8 208.8H194.7V202.9H180.8C176.4 202.9 172.8 199.3 172.8 194.9V173C172.8 168.6 176.4 165 180.8 165H194.7V151.1C194.7 146.7 198.3 143.1 202.7 143.1C207.1 143.1 210.7 146.7 210.7 151.1V173C210.7 177.4 207.1 181 202.7 181H188.8V186.9H202.7C207.1 186.9 210.7 190.5 210.7 194.9V216.8C210.7 221.2 207.1 224.8 202.7 224.8H188.8V230.7H202.7C207.1 230.7 210.7 234.3 210.7 238.7V260.6C210.7 262.7 209.9 264.8 208.3 266.3C206.8 267.8 204.8 268.6 202.7 268.6H188.8V274.5H224.4C224.7 274.5 225 274.5 225.3 274.5C226.5 274.6 227.5 275 228.5 275.5C229.5 276 230.3 276.8 231 277.7C231.2 278 231.4 278.2 231.5 278.5L325.1 439C328.8 445.3 330.7 452.4 330.7 459.5C330.7 470.4 326.4 480.6 318.7 488.3C311.2 496.2 301 500.4 290.1 500.4Z" fill="black"/>
</svg>
