<svg width="512" height="512" viewBox="0 0 512 512" fill="none" xmlns="http://www.w3.org/2000/svg">
<g opacity="0.25">
<path d="M473.3 462.1V485.3H450.8V462.1H473.3ZM361 462.1V485.3H383.5V462.1H361Z" fill="black"/>
<path d="M428.1 462.7L427.8 485.9L406.3 485.7L406.6 462.5L428.1 462.7ZM316.7 461.5L316.4 484.7L337.9 484.9L338.2 461.7L316.7 461.5Z" fill="black"/>
</g>
<path opacity="0.25" d="M109.2 466.701C109.2 471.101 105.6 474.701 101.2 474.701H42C37.6 474.701 34 471.101 34 466.701C34 462.301 37.6 458.701 42 458.701H101.2C105.7 458.701 109.2 462.301 109.2 466.701ZM487.5 36.8008H312.5C308.1 36.8008 304.5 40.4008 304.5 44.8008C304.5 49.2008 308.1 52.8008 312.5 52.8008H487.5C491.9 52.8008 495.5 49.2008 495.5 44.8008C495.5 40.4008 491.9 36.8008 487.5 36.8008ZM55.7 68.7008H59.6V72.6008C59.6 77.0008 63.2 80.6008 67.6 80.6008C72 80.6008 75.6 77.0008 75.6 72.6008V68.7008H79.5C83.9 68.7008 87.5 65.1008 87.5 60.7008C87.5 56.3008 83.9 52.7008 79.5 52.7008H75.6V48.8008C75.6 44.4008 72 40.8008 67.6 40.8008C63.2 40.8008 59.6 44.4008 59.6 48.8008V52.7008H55.7C51.3 52.7008 47.7 56.3008 47.7 60.7008C47.7 65.1008 51.3 68.7008 55.7 68.7008Z" fill="black"/>
<path opacity="0.25" d="M247.9 117.6C252.7 103 245.5 50.3999 261.5 60.2999C273.6 67.7999 279.1 82.8999 274.6 96.4999C270.4 108.7 259.6 116.5 247.9 117.6ZM218.1 422.3C215.5 422.3 212.9 422.1 210.5 421.8C218.5 432.2 230.7 439.9 248.7 439.9C282.7 439.9 296 412.5 299.5 391.1H273.6C268 391.1 262.7 394.1 259.9 398.9C252.1 411.9 239.1 422.3 218.1 422.3ZM359 313C349.6 247.9 337 161.1 271.3 145.2C310.8 176.7 308.5 298.5 308.5 298.7C308.9 331.9 299.3 336.7 268.4 336.7H164.1C134.9 336.7 130.5 361.9 129.1 369.1C128.9 370.1 128.8 370.9 128.6 371.7H368C363.2 337 361.8 332.3 359 313Z" fill="black"/>
<path d="M248.7 447.999C209.7 447.999 196.2 421.399 191.7 406.499H124.8C120.4 406.499 116.8 402.899 116.8 398.499C116.8 394.099 120.4 390.499 124.8 390.499H198C201.8 390.499 205.1 393.199 205.9 396.999C207.9 407.499 216.2 431.999 248.8 431.999C281.4 431.999 289.7 407.499 291.7 396.999C292.4 393.199 295.7 390.499 299.6 390.499H372.3C376.7 390.499 380.3 394.099 380.3 398.499C380.3 402.899 376.7 406.499 372.3 406.499H305.9C301.3 421.299 287.8 447.999 248.7 447.999ZM128.6 379.599C128.1 379.599 127.5 379.499 127 379.399C122.7 378.499 119.9 374.299 120.7 369.999C122.9 358.999 128.6 324.999 130.5 311.899C135.6 276.399 142 232.299 158.1 197.499C177.4 155.799 207.9 134.599 248.7 134.599C289.5 134.599 320 155.699 339.3 197.499C355.4 232.299 361.8 276.399 366.9 311.899C368 319.399 368.9 324.699 369.8 330.399C371.3 339.299 372.9 349.399 375.9 370.499C376.2 372.799 375.5 375.099 374 376.899C372.5 378.599 370.3 379.599 368 379.599H154C149.6 379.599 146 375.999 146 371.599C146 367.199 149.6 363.599 154 363.599H358.8C356.7 348.699 355.3 340.399 354.1 332.999C353.2 327.299 352.3 321.799 351.2 314.199C346.2 279.699 340.1 236.899 324.9 204.199C308.2 168.099 283.3 150.599 248.8 150.599C214.3 150.599 189.4 168.099 172.7 204.199C157.6 236.799 151.4 279.699 146.4 314.099C144.5 327.399 138.7 361.899 136.5 373.099C135.7 376.999 132.4 379.599 128.6 379.599ZM248.7 129.899C227.1 129.899 209.6 112.399 209.6 90.7992C209.6 69.1992 227.1 51.6992 248.7 51.6992C270.3 51.6992 287.8 69.1992 287.8 90.7992C287.8 112.399 270.3 129.899 248.7 129.899ZM248.7 67.6992C236 67.6992 225.6 78.0992 225.6 90.7992C225.6 103.499 236 113.899 248.7 113.899C261.4 113.899 271.8 103.499 271.8 90.7992C271.8 78.0992 261.5 67.6992 248.7 67.6992Z" fill="black"/>
</svg>
