<svg width="512" height="512" viewBox="0 0 512 512" fill="none" xmlns="http://www.w3.org/2000/svg">
<path opacity="0.25" d="M24.5 332.7H82.3L24.5 448.3V332.7Z" fill="black"/>
<path opacity="0.25" d="M448.4 135.4H470.2V192.3H448.4V135.4Z" fill="black"/>
<path opacity="0.25" d="M395.1 58.5V80.3H338.2V58.5H395.1Z" fill="black"/>
<path opacity="0.25" d="M470.2 58.5V60.3V80.3V117.2H448.4V80.3H413.3V58.5H470.2Z" fill="black"/>
<path opacity="0.25" d="M135.4 474.7C135.4 480.6 130.6 485.5 124.6 485.5C118.7 485.5 113.8 480.7 113.8 474.7C113.8 468.8 118.6 463.9 124.6 463.9C130.6 464 135.4 468.8 135.4 474.7ZM464.8 353.2H449V337.4C449 333 445.4 329.4 441 329.4C436.6 329.4 433 333 433 337.4V353.2H417.2C412.8 353.2 409.2 356.8 409.2 361.2C409.2 365.6 412.8 369.2 417.2 369.2H433V385C433 389.4 436.6 393 441 393C445.4 393 449 389.4 449 385V369.2H464.8C469.2 369.2 472.8 365.6 472.8 361.2C472.8 356.8 469.2 353.2 464.8 353.2ZM428 285.3C432.4 285.3 436 281.7 436 277.3C436 271.6 440.7 266.9 446.4 266.9C452.1 266.9 456.8 271.6 456.8 277.3C456.8 281.7 460.4 285.3 464.8 285.3C469.2 285.3 472.8 281.7 472.8 277.3C472.8 262.7 461 250.9 446.4 250.9C431.8 250.9 420 262.8 420 277.3C420 281.7 423.6 285.3 428 285.3ZM107.8 257.5C107.8 253.1 104.2 249.5 99.8 249.5H32C27.6 249.5 24 253.1 24 257.5C24 261.9 27.6 265.5 32 265.5H99.8C104.2 265.5 107.8 261.9 107.8 257.5ZM119 127C120.6 128.6 122.6 129.3 124.7 129.3C126.8 129.3 128.8 128.5 130.4 127C133.5 123.9 133.5 118.8 130.4 115.7L82.4 67.8001C79.3 64.7001 74.2 64.7001 71.1 67.8001C68 70.9001 68 76 71.1 79.1L119 127ZM254.3 7.80005C249.9 7.80005 246.3 11.4 246.3 15.8V73.6C246.3 78 249.9 81.6 254.3 81.6C258.7 81.6 262.3 78 262.3 73.6V15.8C262.3 11.4 258.7 7.80005 254.3 7.80005ZM179.6 59C177.2 58.5 174.8 58.9001 172.8 60.2001C170.8 61.5001 169.4 63.5001 168.9 65.9001C168.4 68.3001 168.8 70.7 170.1 72.7C171.4 74.7 173.4 76.1 175.8 76.6C176.4 76.7 177.1 76.8 177.7 76.8C181.9 76.8 185.6 73.9 186.5 69.7C187 67.3 186.6 64.9001 185.3 62.9001C184 60.9001 182 59.5 179.6 59ZM101.2 170.4C96.3 169.3 91.5 172.4 90.5 177.3C89.4 182.2 92.5 187 97.4 188C98 188.1 98.7 188.2 99.3 188.2C101 188.2 102.7 187.7 104.2 186.8C106.2 185.5 107.6 183.5 108.1 181.1C108.6 178.7 108.2 176.3 106.9 174.3C105.6 172.3 103.6 170.9 101.2 170.4ZM133.2 370.1L103.7 399.6C100.6 402.7 100.6 407.8 103.7 410.9C105.3 412.5 107.3 413.2 109.4 413.2C111.5 413.2 113.5 412.4 115.1 410.9L144.6 381.4C147.7 378.3 147.7 373.2 144.6 370.1C141.4 367 136.4 367 133.2 370.1Z" fill="black"/>
<g opacity="0.25">
<path d="M253.2 415.2C253.2 428.1 261.3 410.5 261.3 410.5L261 387.2L308 366L328.9 356.6V385.8C333.7 388.8 339.4 391.8 346.2 394.7C393.6 415.4 422.8 429.2 428 487.7H279L263.6 495.9C263.6 495.9 233.4 507.6 211.1 458.1C205.7 446.2 202.4 431.8 202.4 415.3H253.2V415.2Z" fill="black"/>
<path d="M344.6 283C338.1 337.7 290.6 357.2 270.1 363.1C279.4 363 288.4 361.5 295 357.7C317 344.8 295 373.6 295 373.6L264.8 385.7V181.4C264.8 166.2 278 154.5 293.1 156.3C316.7 159.1 344.6 162.9 344.6 162.9C344.6 162.9 352.9 213 344.6 283Z" fill="black"/>
</g>
<path d="M442.1 495C442.1 490.6 441.7 475 434.7 456.9C427.2 437.4 410.3 411 372.7 395.8C358.4 390 346.3 384.2 336.9 378.5V356.6C336.9 353.9 335.5 351.4 333.2 349.9C330.9 348.4 328 348.2 325.6 349.3L322.4 350.7C324.6 348.9 326.7 346.9 328.8 344.8C343 330.5 351.1 313.3 355.4 301.5C358.3 293.5 359.8 285.1 359.8 276.5V154.3C359.8 151.7 358.5 149.2 356.3 147.7C354.1 146.2 351.4 145.9 348.9 146.8C333.8 152.6 318.9 148.9 303.2 144.9C289.5 141.5 275.3 137.9 260.1 140.4C255.7 141.1 252.8 145.2 253.5 149.6C254.2 154 258.3 156.9 262.7 156.2C274.6 154.3 286.6 157.3 299.3 160.4C313.5 164 328.2 167.6 343.8 164.7V276.3C343.8 283 342.7 289.6 340.4 295.8C332.4 317.9 311.9 354.9 264.9 354.9H210C207.8 328.8 194.9 313.5 181.2 297.5L181.1 297.3C176.5 291.9 171.8 286.3 167.5 280.3C154.4 262 147.5 240.5 147.5 218C147.5 158.9 195.6 110.8 254.7 110.8C254.7 110.8 254.7 110.8 254.8 110.8C260.4 110.9 270.4 111.3 274.1 111.8C283.1 113.1 291.3 115.5 299.3 117.7C310.6 120.9 322.1 124.2 334.9 124.2C343.9 124.2 353.6 122.6 364.2 118.1C368.3 116.4 370.2 111.7 368.5 107.6C366.8 103.5 362.1 101.6 358 103.3C337.4 111.9 322.5 107.6 303.5 102.3C295 99.9 286.3 97.4 276.3 95.9C270.6 95 257.8 94.7 254.7 94.7H254.6C186.7 94.7 131.4 150 131.4 217.9C131.4 243.7 139.3 268.5 154.4 289.5C159.1 296.1 164 301.9 168.9 307.5L169 307.7C182.9 324 193.8 336.9 194.3 361.1C194.2 361.6 194.1 362.2 194.1 362.7C194.1 363.3 194.2 363.9 194.3 364.4V414.9C194.3 431.9 196.7 442.5 201 456C211.3 488.1 238.5 503 259.9 503.5C260.3 503.5 260.6 503.6 261 503.6H434.1C438.6 503.6 442.2 500 442.2 495.5C442.1 495.5 442.1 495.2 442.1 495ZM419.5 462C423.5 472.2 425.1 481.6 425.7 487.8H286.9C286.9 486.8 286.8 485.9 286.4 484.9L276.2 457.2L294.9 439.7C297.6 437.2 298.2 433.1 296.4 429.9L289.7 418.2L332.1 399.1C333.5 398.5 334.7 397.4 335.5 396.2C344.4 401 354.8 405.9 366.7 410.7C392.4 420.9 410.2 438.2 419.5 462ZM261.4 449.1L257.8 452.5H216.6C216.5 452.1 216.3 451.8 216.2 451.4C212.9 441 211 433.3 210.4 422.5H254.2C255.4 422.5 256.5 422.2 257.6 421.7C258.6 422.2 259.8 422.5 261 422.5H273.9L279.5 432.3L261.4 449.1C261.4 449.1 261.5 449.1 261.4 449.1ZM276.8 406.5H269V392.4L320.9 369V386.7L276.8 406.5ZM257.7 379.9C254.8 381.2 253 384 253 387.2V406.5H210.3V371H264.7C269.9 371 274.9 370.6 279.8 369.9L257.7 379.9ZM225.2 468.5H261C261 468.5 261 468.5 261.1 468.5C261.2 468.5 261.2 468.5 261.3 468.5C261.6 468.5 261.9 468.5 262.1 468.4C262.2 468.4 262.3 468.4 262.3 468.4C262.6 468.3 262.9 468.3 263.2 468.2L270.4 487.8H261C260.7 487.8 260.5 487.8 260.2 487.8C248.5 487.5 234.8 481 225.2 468.5Z" fill="black"/>
</svg>
