<svg width="512" height="512" viewBox="0 0 512 512" fill="none" xmlns="http://www.w3.org/2000/svg">
<g opacity="0.25">
<path d="M482.5 18.9V37H444.7V18.9H482.5Z" fill="black"/>
<path d="M480.4 444.9V487.3H383.7V444.9H480.4Z" fill="black"/>
</g>
<path opacity="0.25" d="M95.1 462.3C95.1 466.7 91.5 470.3 87.1 470.3H71.3V486.1C71.3 490.5 67.7 494.1 63.3 494.1C58.9 494.1 55.3 490.5 55.3 486.1V470.3H39.5C35.1 470.3 31.5 466.7 31.5 462.3C31.5 457.9 35.1 454.3 39.5 454.3H55.3V438.5C55.3 434.1 58.9 430.5 63.3 430.5C67.7 430.5 71.3 434.1 71.3 438.5V454.3H87.1C91.5 454.3 95.1 457.9 95.1 462.3ZM47 56.2C52.5 56.2 56.9 51.8 56.9 46.3C56.9 40.8 52.5 36.4 47 36.4C41.5 36.4 37.1 40.8 37.1 46.3C37.1 51.8 41.5 56.2 47 56.2ZM102.3 36.4C96.8 36.4 92.4 40.8 92.4 46.3C92.4 51.8 96.8 56.2 102.3 56.2C107.8 56.2 112.2 51.8 112.2 46.3C112.2 40.8 107.8 36.4 102.3 36.4Z" fill="black"/>
<path opacity="0.25" d="M83.9999 300.2L152.8 231.4C159.7 224.5 170.8 224.5 177.6 231.4L182.6 236.4C189.5 243.3 189.5 254.4 182.6 261.2L113.9 330C114 330 109.2 335.6 107.6 343.7C104.2 360.8 117.3 378.2 128.9 389.8C138.8 399.7 153.7 411.5 168.6 411.5C177.7 411.5 184.9 407.1 188 404.9C188.8 404.4 189.5 403.8 190.1 403.1L257.4 335.8C264.3 328.9 275.4 329 282.2 335.8L287.2 340.8C294.1 347.7 294.1 358.8 287.2 365.6L218.4 434.4C218.1 434.7 198.7 453.6 168.6 453.6C149.1 453.6 125.1 445.6 99.0999 419.5C64.8999 385.3 62.3999 354.8 66.2999 335.3C70.4999 313.9 83.4999 300.7 83.9999 300.2ZM312.3 71.9L243.5 140.7C236.6 147.6 236.6 158.7 243.5 165.5L248.5 170.5C255.4 177.4 266.5 177.4 273.3 170.5L342.1 101.7C342.1 101.8 347.7 97 355.8 95.4C372.9 92 390.3 105.1 401.9 116.7C411.8 126.6 423.6 141.5 423.6 156.4C423.6 165.5 419.2 172.7 417 175.8C416.5 176.6 415.9 177.3 415.2 177.9L348 245.2C341.1 252.1 341.2 263.2 348 270L353 275C359.9 281.9 371 281.9 377.8 275L446.6 206.2C446.9 205.9 465.8 186.5 465.8 156.4C465.8 136.9 457.8 112.9 431.7 86.9C397.5 52.7 367 50.2 347.5 54.1C326 58.4 312.8 71.4 312.3 71.9Z" fill="black"/>
<path d="M168.5 461.7C142.8 461.7 117.5 449.4 93.3001 425.3C56.6001 388.6 54.0001 355.3 58.3001 333.9C63.0001 310.4 76.8001 296.1 78.3001 294.6L158.8 214.1C161.9 211 167 211 170.1 214.1C173.2 217.2 173.2 222.3 170.1 225.4L89.6001 305.9C89.5001 306 77.8001 317.9 74.0001 337.1C70.5001 354.7 72.9001 382.4 104.6 414.1C125.7 435.2 147.2 445.8 168.5 445.8C194.9 445.8 212.4 429.2 212.7 428.9L293.2 348.4C296.3 345.3 301.4 345.3 304.5 348.4C307.6 351.5 307.6 356.6 304.5 359.7L224 440.2C223.8 440.3 202.4 461.7 168.5 461.7ZM366.1 294.8C364.1 294.8 362 294 360.4 292.5C357.3 289.4 357.3 284.3 360.4 281.2L440.9 200.7C441 200.6 452.7 188.7 456.6 169.5C460.1 151.9 457.7 124.2 426 92.5C394.4 60.9 366.7 58.4 349.1 62C330 65.8 318.1 77.5 317.9 77.6L237.4 158.1C234.3 161.2 229.2 161.2 226.1 158.1C223 155 223 149.9 226.1 146.8L306.6 66.3C308.2 64.7 322.4 51 345.9 46.3C367.4 42 400.6 44.6 437.2 81.2C473.9 117.9 476.5 151.2 472.2 172.6C467.3 196.9 452.7 211.4 452.1 212L371.6 292.5C370.2 294 368.1 294.8 366.1 294.8ZM157.2 179.3C157.2 174.9 153.6 171.3 149.2 171.3H85.9001C81.5001 171.3 77.9001 174.9 77.9001 179.3C77.9001 183.7 81.5001 187.3 85.9001 187.3H149.2C153.6 187.3 157.2 183.7 157.2 179.3ZM220.5 137.1V73.8C220.5 69.4 216.9 65.8 212.5 65.8C208.1 65.8 204.5 69.4 204.5 73.8V137.1C204.5 141.5 208.1 145.1 212.5 145.1C216.9 145.1 220.5 141.5 220.5 137.1ZM452.7 327.1C452.7 322.7 449.1 319.1 444.7 319.1H381.4C377 319.1 373.4 322.7 373.4 327.1C373.4 331.5 377 335.1 381.4 335.1H444.7C449.1 335.1 452.7 331.5 452.7 327.1ZM326.1 432.6V369.3C326.1 364.9 322.5 361.3 318.1 361.3C313.7 361.3 310.1 364.9 310.1 369.3V432.6C310.1 437 313.7 440.6 318.1 440.6C322.5 440.6 326.1 437 326.1 432.6ZM177.8 150.8C180.9 147.7 180.9 142.6 177.8 139.5L133 94.7C129.9 91.6 124.8 91.6 121.7 94.7C118.6 97.8 118.6 102.9 121.7 106L166.5 150.8C168.1 152.4 170.1 153.1 172.2 153.1C174.2 153.1 176.2 152.3 177.8 150.8ZM408.9 411.7C412 408.6 412 403.5 408.9 400.4L364.1 355.6C361 352.5 355.9 352.5 352.8 355.6C349.7 358.7 349.7 363.8 352.8 366.9L397.6 411.7C399.2 413.3 401.2 414 403.3 414C405.4 414 407.4 413.3 408.9 411.7Z" fill="black"/>
</svg>
