<svg width="512" height="512" viewBox="0 0 512 512" fill="none" xmlns="http://www.w3.org/2000/svg">
<path opacity="0.25" d="M398.8 379.6L417.4 472.4L354.5 441V346C335.1 346 319.4 330.3 319.4 310.9C319.4 291.5 335.1 275.8 354.5 275.8V229C399.6 229 436.3 265.7 436.3 310.8C436.3 333.7 426.8 354.4 411.5 369.3C407.7 373.1 403.4 376.6 398.8 379.6Z" fill="black"/>
<path d="M109 190.3C104.6 190.3 101 186.7 101 182.3C101 177.9 104.6 174.3 109 174.3H405V158.9C405 154.5 408.6 150.9 413 150.9C417.4 150.9 421 154.5 421 158.9V182.3C421 186.7 417.4 190.3 413 190.3H109ZM407.7 383.2C411 380.8 414.1 378.1 417.1 375.2C434.7 358.2 444.3 335.4 444.3 311C444.3 261.5 404 221.2 354.5 221.2C305 221.2 264.7 261.5 264.7 311C264.7 316 265 320.2 265.8 324.1C266.6 328.4 270.8 331.3 275.1 330.5C279.4 329.7 282.3 325.5 281.5 321.2C281 318.2 280.7 314.9 280.7 310.9C280.7 270.2 313.8 237.1 354.5 237.1C395.2 237.1 428.3 270.2 428.3 310.9C428.3 330.9 420.4 349.7 405.9 363.6C402.2 367.1 398.4 370.2 394.4 372.8C391.6 374.6 390.2 377.9 390.9 381.1L406.3 457.9L358 433.8C355.7 432.7 353.1 432.7 350.8 433.8L302.5 457.9L317.8 381.2C318.4 378 317.1 374.8 314.4 373C310.7 370.5 307.1 367.5 303 363.6C301.5 362.2 299.5 361.3 297.4 361.3H46.8V285.7C46.8 281.3 43.2 277.7 38.8 277.7C34.4 277.7 30.8 281.3 30.8 285.7V369.3C30.8 373.7 34.4 377.3 38.8 377.3H294.4C296.7 379.4 299 381.3 301.2 383.1L283.7 470.8C283.1 473.8 284.3 476.9 286.7 478.7C289.1 480.6 292.4 480.9 295.1 479.5L354.4 449.8L413.7 479.5C414.8 480.1 416.1 480.3 417.3 480.3C419 480.3 420.7 479.7 422.2 478.7C424.6 476.8 425.8 473.8 425.2 470.8L407.7 383.2ZM483.1 80.8H38.8C34.4 80.8 30.8 84.4 30.8 88.8V252.6C30.8 257 34.4 260.6 38.8 260.6C43.2 260.6 46.8 257 46.8 252.6V96.8H475.1V361.4H446.7C442.3 361.4 438.7 365 438.7 369.4C438.7 373.8 442.3 377.4 446.7 377.4H483.1C487.5 377.4 491.1 373.8 491.1 369.4V88.8C491.1 84.4 487.6 80.8 483.1 80.8ZM352.1 377.5C353 377.5 353.8 377.4 354.7 377.4C372.4 377.1 389.1 370.2 401.5 357.8C414.1 345.3 421 328.7 421 311C421 274.4 391.2 244.5 354.5 244.5C317.8 244.5 288 274.3 288 311C288 315.4 291.6 319 296 319C300.4 319 304 315.4 304 311C304 283.2 326.6 260.5 354.5 260.5C382.4 260.5 405 283.1 405 311C405 338.9 382.8 361 354.4 361.5C353.5 361.5 352.5 361.5 351.5 361.6C347.7 361.7 343.7 361.9 337.8 360.7C337 360.5 336.2 360.5 335.4 360.6C334.1 360.8 332.8 361.3 331.8 362C330.9 362.6 330.2 363.5 329.7 364.4C329.3 365.1 329 365.8 328.9 366.6C328.9 366.6 328.9 366.6 328.9 366.7L316 428.5C315.4 431.5 316.6 434.6 319 436.4C320.4 437.5 322.1 438 323.9 438C325.1 438 326.3 437.7 327.5 437.2L354.6 423.7L381.7 437.2C384.4 438.6 387.7 438.3 390.1 436.4C392.5 434.5 393.7 431.5 393.1 428.5L385 387.9C384.1 383.6 379.9 380.8 375.6 381.6C371.3 382.5 368.5 386.7 369.3 391L374.2 415.6L358.2 407.6C355.9 406.5 353.3 406.5 351 407.6L335 415.6L342.7 377.4C346.4 377.7 349.4 377.6 352.1 377.5Z" fill="black"/>
<path opacity="0.25" d="M38.2 427.7L99.0999 488.6H38.2V427.7Z" fill="black"/>
<path opacity="0.25" d="M201.5 437.8C204.6 440.9 204.6 446 201.5 449.1C199.9 450.7 197.9 451.4 195.8 451.4C193.7 451.4 191.7 450.6 190.1 449.1L187.4 446.4L184.7 449.1C183.1 450.7 181.1 451.4 179 451.4C177 451.4 174.9 450.6 173.3 449.1C170.2 446 170.2 440.9 173.3 437.8L176 435.1L173.3 432.4C170.2 429.3 170.2 424.2 173.3 421.1C176.4 418 181.5 418 184.6 421.1L187.3 423.8L190 421.1C193.1 418 198.2 418 201.3 421.1C204.4 424.2 204.4 429.3 201.3 432.4L198.6 435.1L201.5 437.8ZM104.5 277.8H32.8C28.4 277.8 24.8 281.4 24.8 285.8C24.8 290.2 28.4 293.8 32.8 293.8H104.4C108.8 293.8 112.4 290.2 112.4 285.8C112.4 281.4 108.9 277.8 104.5 277.8ZM86.3 254.9C86.3 250.5 82.7 246.9 78.3 246.9H17.6C13.2 246.9 9.59998 250.5 9.59998 254.9C9.59998 259.3 13.2 262.9 17.6 262.9H78.3C82.8 262.9 86.3 259.4 86.3 254.9ZM141.2 30.4001H64C59.6 30.4001 56 34.0001 56 38.4001C56 42.8001 59.6 46.4001 64 46.4001H141.2C145.6 46.4001 149.2 42.8001 149.2 38.4001C149.2 34.0001 145.6 30.4001 141.2 30.4001ZM187.4 49.2001C193.3 49.2001 198.2 44.4001 198.2 38.4001C198.2 32.4001 193.4 27.6001 187.4 27.6001C181.5 27.6001 176.6 32.4001 176.6 38.4001C176.6 44.4001 181.5 49.2001 187.4 49.2001Z" fill="black"/>
</svg>
