<svg width="512" height="512" viewBox="0 0 512 512" fill="none" xmlns="http://www.w3.org/2000/svg">
<path opacity="0.25" d="M132.5 268.3H181.9V465.9H132.5V268.3ZM256 465.9H305.4V218.9H256V465.9ZM379.5 317.7V465.9H428.9V317.7H379.5Z" fill="black"/>
<path d="M453.6 457.9H436.9V317.7C436.9 313.3 433.3 309.7 428.9 309.7H379.5C375.1 309.7 371.5 313.3 371.5 317.7V457.9H313.4V218.9C313.4 214.5 309.8 210.9 305.4 210.9H256C251.6 210.9 248 214.5 248 218.9V457.9H189.9V268.3C189.9 263.9 186.3 260.3 181.9 260.3H132.5C128.1 260.3 124.5 263.9 124.5 268.3V457.9H66.3999V144.8C66.3999 140.4 62.7999 136.8 58.3999 136.8C53.9999 136.8 50.3999 140.4 50.3999 144.8V465.9C50.3999 470.3 53.9999 473.9 58.3999 473.9H132.5H181.9H256H305.4H379.5H428.9H453.6C458 473.9 461.6 470.3 461.6 465.9C461.6 461.5 458 457.9 453.6 457.9ZM140.5 457.9V276.3H173.9V457.9H140.5ZM264 457.9V226.9H297.4V457.9H264ZM387.5 457.9V325.7H420.9V457.9H387.5Z" fill="black"/>
<g opacity="0.25">
<path d="M52 26H132.3V63.3H52V26Z" fill="black"/>
<path d="M145.3 26.7998H218.4V62.5998H145.3V26.7998Z" fill="black"/>
</g>
<path opacity="0.25" d="M86.5 136.6C86.5 132.2 90.1 128.6 94.5 128.6H110.3V112.8C110.3 108.4 113.9 104.8 118.3 104.8C122.7 104.8 126.3 108.4 126.3 112.8V128.6H142.1C146.5 128.6 150.1 132.2 150.1 136.6C150.1 141 146.5 144.6 142.1 144.6H126.3V160.4C126.3 164.8 122.7 168.4 118.3 168.4C113.9 168.4 110.3 164.8 110.3 160.4V144.6H94.5C90.1 144.6 86.5 141 86.5 136.6ZM443.3 164.5C439.6 162 434.7 163 432.2 166.7L377.9 247.6L261.3 145.7C258.8 143.5 255.1 143.1 252.2 144.7L92.6 233C88.7 235.1 87.3 240 89.5 243.9C91.6 247.8 96.5 249.2 100.4 247L255 161.5L374.3 265.6C375.8 266.9 377.6 267.6 379.6 267.6C379.9 267.6 380.3 267.6 380.6 267.5C382.9 267.2 384.9 265.9 386.2 264L445.6 175.6C448 171.9 447 166.9 443.3 164.5ZM467.6 109.7L388.1 154.5C384.3 156.7 382.9 161.5 385.1 165.4C387.3 169.2 392.1 170.6 396 168.4L463.6 130.3V210.6C463.6 215 467.2 218.6 471.6 218.6C476 218.6 479.6 215 479.6 210.6V116.6C479.6 113.8 478.1 111.1 475.6 109.7C473.1 108.4 470.1 108.3 467.6 109.7ZM353 117.1C349.9 114 344.8 114 341.7 117.1L339 119.8L336.3 117.1C333.2 114 328.1 114 325 117.1C321.9 120.2 321.9 125.3 325 128.4L327.8 131.2L325 134C321.9 137.1 321.9 142.2 325 145.3C326.6 146.9 328.6 147.6 330.7 147.6C332.8 147.6 334.8 146.8 336.4 145.3L339.1 142.6L341.8 145.3C343.4 146.9 345.4 147.6 347.5 147.6C349.6 147.6 351.6 146.8 353.2 145.3C356.3 142.2 356.3 137.1 353.2 134L350.4 131.2L353.2 128.4C356.2 125.3 356.2 120.2 353 117.1ZM493.6 383.8H489.7V379.9C489.7 375.5 486.1 371.9 481.7 371.9C477.3 371.9 473.7 375.5 473.7 379.9V383.8H469.8C465.4 383.8 461.8 387.4 461.8 391.8C461.8 396.2 465.4 399.8 469.8 399.8H473.7V403.7C473.7 408.1 477.3 411.7 481.7 411.7C486.1 411.7 489.7 408.1 489.7 403.7V399.8H493.6C498 399.8 501.6 396.2 501.6 391.8C501.6 387.4 498 383.8 493.6 383.8ZM267.7 76.5004H385.1C389.5 76.5004 393.1 72.9004 393.1 68.5004C393.1 64.1004 389.5 60.5004 385.1 60.5004H267.7C263.3 60.5004 259.7 64.1004 259.7 68.5004C259.7 72.9004 263.3 76.5004 267.7 76.5004ZM409.3 46.9004H468.5C472.9 46.9004 476.5 43.3004 476.5 38.9004C476.5 34.5004 472.9 30.9004 468.5 30.9004H409.3C404.9 30.9004 401.3 34.5004 401.3 38.9004C401.3 43.3004 404.9 46.9004 409.3 46.9004Z" fill="black"/>
</svg>
