<svg width="512" height="512" viewBox="0 0 512 512" fill="none" xmlns="http://www.w3.org/2000/svg">
<path d="M370 85.2L324.9 140.6C317.5 149.7 318.9 163.1 328 170.5L342.8 182.5C351.9 189.9 353.3 203.3 345.9 212.4L220.9 365.5C213 375.2 198.4 376 189.5 367.1L108 285.7C99.7 277.4 86.3 277.4 78 285.7L63 300.7L191.9 429.4C200.8 438.3 215.5 437.5 223.4 427.7L447.9 149.7C448.4 149.1 448.3 148.3 447.7 147.8L370 85.2Z" fill="black" fill-opacity="0.25"/>
<path d="M208.5 454.1C206.4 454.1 204.4 453.3 202.8 451.8L57.3 306.4C55.8 304.9 55 302.9 55 300.7C55 298.6 55.8 296.5 57.3 295L81.1 271.2C84.2 268.1 89.3 268.1 92.4 271.2C95.5 274.3 95.5 279.4 92.4 282.5L74.3 300.6L207.9 434L437.5 149.8L388.8 110.5C385.4 107.7 384.8 102.7 387.6 99.1999C390.4 95.7999 395.4 95.1999 398.9 97.9999L453.8 142.3C455.5 143.6 456.5 145.6 456.7 147.7C456.9 149.8 456.3 151.9 455 153.6L214.8 451.1C213.4 452.9 211.3 453.9 209 454.1C208.8 454.1 208.7 454.1 208.5 454.1ZM200.3 303.1C198.2 303.1 196.2 302.3 194.6 300.8L134.3 240.6L116.1 258.8C113 261.9 107.9 261.9 104.8 258.8C101.7 255.7 101.7 250.6 104.8 247.5L128.7 223.6C131.8 220.5 136.9 220.5 140 223.6L199.7 283.2L363.7 80.2999C366.5 76.8999 371.5 76.2999 375 79.0999C378.4 81.8999 379 86.8999 376.2 90.3999L206.6 300.1C205.2 301.9 203.1 302.9 200.8 303.1C200.6 303.1 200.5 303.1 200.3 303.1Z" fill="black"/>
<path d="M118.5 435.6C118.5 440 114.9 443.6 110.5 443.6H45.5001C41.1001 443.6 37.5001 440 37.5001 435.6C37.5001 431.2 41.1001 427.6 45.5001 427.6H110.5C114.9 427.6 118.5 431.2 118.5 435.6ZM115.5 274.6C115.5 270.2 111.9 266.6 107.5 266.6H20.6001C16.2001 266.6 12.6001 270.2 12.6001 274.6C12.6001 279 16.2001 282.6 20.6001 282.6H107.4C111.9 282.6 115.5 279.1 115.5 274.6ZM173 44.3999C173 49.3999 168.9 53.3999 164 53.3999C159.1 53.3999 155 49.2999 155 44.3999C155 39.4999 159.1 35.3999 164 35.3999C168.9 35.3999 173 39.3999 173 44.3999ZM203 44.3999C203 49.3999 198.9 53.3999 194 53.3999C189.1 53.3999 185 49.2999 185 44.3999C185 39.4999 189.1 35.3999 194 35.3999C198.9 35.3999 203 39.3999 203 44.3999ZM214.9 44.3999C214.9 39.3999 219 35.3999 223.9 35.3999C228.8 35.3999 232.9 39.4999 232.9 44.3999C232.9 49.2999 228.8 53.3999 223.9 53.3999C219 53.3999 214.9 49.3999 214.9 44.3999ZM133 36.3999H45.5001C41.1001 36.3999 37.5001 39.9999 37.5001 44.3999V222C37.5001 226.4 41.1001 230 45.5001 230C49.9001 230 53.5001 226.4 53.5001 222V52.3999H133C137.4 52.3999 141 48.7999 141 44.3999C141 39.9999 137.4 36.3999 133 36.3999ZM253.4 52.3999H341C345.4 52.3999 349 48.7999 349 44.3999C349 39.9999 345.4 36.3999 341 36.3999H253.4C249 36.3999 245.4 39.9999 245.4 44.3999C245.4 48.7999 249 52.3999 253.4 52.3999ZM487.4 467.6H225C220.6 467.6 217 471.2 217 475.6C217 480 220.6 483.6 225 483.6H487.4C491.8 483.6 495.4 480 495.4 475.6C495.4 471.2 491.8 467.6 487.4 467.6ZM487.4 427.6H291.6C287.2 427.6 283.6 431.2 283.6 435.6C283.6 440 287.2 443.6 291.6 443.6H487.4C491.8 443.6 495.4 440 495.4 435.6C495.4 431.2 491.8 427.6 487.4 427.6ZM333 395.6C333 400 336.6 403.6 341 403.6H487.4C491.8 403.6 495.4 400 495.4 395.6C495.4 391.2 491.8 387.6 487.4 387.6H341C336.5 387.6 333 391.2 333 395.6Z" fill="black"/>
<path opacity="0.25" d="M87.4998 99.7999C79.0998 99.7999 72.2998 92.9999 72.2998 84.5999C72.2998 76.1999 79.0998 69.3999 87.4998 69.3999C95.8998 69.3999 102.7 76.1999 102.7 84.5999C102.7 92.9999 95.8998 99.7999 87.4998 99.7999ZM152.7 84.5999C152.7 76.1999 145.9 69.3999 137.5 69.3999C129.1 69.3999 122.3 76.1999 122.3 84.5999C122.3 92.9999 129.1 99.7999 137.5 99.7999C145.9 99.7999 152.7 92.9999 152.7 84.5999ZM202.7 84.5999C202.7 76.1999 195.9 69.3999 187.5 69.3999C179.1 69.3999 172.3 76.1999 172.3 84.5999C172.3 92.9999 179.1 99.7999 187.5 99.7999C195.9 99.7999 202.7 92.9999 202.7 84.5999ZM152.7 134.6C152.7 126.2 145.9 119.4 137.5 119.4C129.1 119.4 122.3 126.2 122.3 134.6C122.3 143 129.1 149.8 137.5 149.8C145.9 149.8 152.7 143 152.7 134.6ZM102.7 134.6C102.7 126.2 95.8998 119.4 87.4998 119.4C79.0998 119.4 72.2998 126.2 72.2998 134.6C72.2998 143 79.0998 149.8 87.4998 149.8C95.8998 149.8 102.7 143 102.7 134.6ZM102.7 184.6C102.7 176.2 95.8998 169.4 87.4998 169.4C79.0998 169.4 72.2998 176.2 72.2998 184.6C72.2998 193 79.0998 199.8 87.4998 199.8C95.8998 199.8 102.7 193 102.7 184.6Z" fill="black"/>
<path opacity="0.25" d="M487.4 235.2V360.3H362.3L487.4 235.2Z" fill="black"/>
</svg>
