<svg width="512" height="512" viewBox="0 0 512 512" fill="none" xmlns="http://www.w3.org/2000/svg">
<path opacity="0.25" d="M488.4 73.2L414.3 165C414.3 165.2 414.3 165.5 414.3 165.7V434.8C414.3 452.8 399.7 467.3 381.8 467.3H304.6C286.6 467.3 272.1 452.7 272.1 434.8V144.2C272.1 126.2 286.7 111.7 304.6 111.7H360.3C368.9 111.7 377.2 115.1 383.3 121.2L390 128C391.1 129.1 433.9 73.2001 437 69.4001L455.9 46.3L488.4 72.5C488.5 72.6 488.6 72.9 488.4 73.2Z" fill="black"/>
<path opacity="0.25" d="M74.7 12.3L13.8 73.3001V12.3H74.7Z" fill="black"/>
<path opacity="0.25" d="M505.2 429.9C505.2 434.3 501.6 437.9 497.2 437.9H481.4V453.7C481.4 458.1 477.8 461.7 473.4 461.7C469 461.7 465.4 458.1 465.4 453.7V437.9H449.6C445.2 437.9 441.6 434.3 441.6 429.9C441.6 425.5 445.2 421.9 449.6 421.9H465.4V406.1C465.4 401.7 469 398.1 473.4 398.1C477.8 398.1 481.4 401.7 481.4 406.1V421.9H497.2C501.6 421.9 505.2 425.5 505.2 429.9ZM459.6 204.4C465.5 204.4 470.4 199.6 470.4 193.6C470.4 187.6 465.6 182.8 459.6 182.8C453.7 182.8 448.8 187.6 448.8 193.6C448.8 199.6 453.6 204.4 459.6 204.4ZM264.7 20.6001H161.9C157.5 20.6001 153.9 24.2001 153.9 28.6001C153.9 33.0001 157.5 36.6001 161.9 36.6001H264.7C269.1 36.6001 272.7 33.0001 272.7 28.6001C272.7 24.2001 269.2 20.6001 264.7 20.6001ZM401.7 20.6001H298.9C294.5 20.6001 290.9 24.2001 290.9 28.6001C290.9 33.0001 294.5 36.6001 298.9 36.6001H401.7C406.1 36.6001 409.7 33.0001 409.7 28.6001C409.7 24.2001 406.2 20.6001 401.7 20.6001ZM86.8 241.6H43.8C39.4 241.6 35.8 245.2 35.8 249.6C35.8 254 39.4 257.6 43.8 257.6H86.8C91.2 257.6 94.8 254 94.8 249.6C94.8 245.2 91.2 241.6 86.8 241.6ZM73.8 221.6C73.8 217.2 70.2 213.6 65.8 213.6H22.8C18.4 213.6 14.8 217.2 14.8 221.6C14.8 226 18.4 229.6 22.8 229.6H65.8C70.2 229.6 73.8 226.1 73.8 221.6ZM451 254V339C451 343.4 454.6 347 459 347C463.4 347 467 343.4 467 339V254C467 249.6 463.4 246 459 246C454.6 246 451 249.6 451 254Z" fill="black"/>
<path d="M351.2 182.8C351.2 187.2 347.6 190.8 343.2 190.8H224.6C220.2 190.8 216.6 187.2 216.6 182.8V159.1C216.6 154.7 220.2 151.1 224.6 151.1C229 151.1 232.6 154.7 232.6 159.1V174.8H343.1C347.6 174.8 351.2 178.3 351.2 182.8ZM343.2 245.9H232.6V230.2C232.6 225.8 229 222.2 224.6 222.2C220.2 222.2 216.6 225.8 216.6 230.2V253.9C216.6 258.3 220.2 261.9 224.6 261.9H343.1C347.5 261.9 351.1 258.3 351.1 253.9C351.1 249.5 347.6 245.9 343.2 245.9ZM343.2 317H232.6V301.3C232.6 296.9 229 293.3 224.6 293.3C220.2 293.3 216.6 296.9 216.6 301.3V325C216.6 329.4 220.2 333 224.6 333H343.1C347.5 333 351.1 329.4 351.1 325C351.1 320.6 347.6 317 343.2 317ZM224.6 364.4C220.2 364.4 216.6 368 216.6 372.4V396.1C216.6 400.5 220.2 404.1 224.6 404.1H343.1C347.5 404.1 351.1 400.5 351.1 396.1C351.1 391.7 347.5 388.1 343.1 388.1H232.6V372.4C232.6 368 229 364.4 224.6 364.4ZM208.9 159.1C208.9 154.7 205.3 151.1 200.9 151.1H177.2C172.8 151.1 169.2 154.7 169.2 159.1C169.2 163.5 172.8 167.1 177.2 167.1H192.9V182.8C192.9 187.2 196.5 190.8 200.9 190.8C205.3 190.8 208.9 187.2 208.9 182.8V159.1ZM208.9 230.2C208.9 225.8 205.3 222.2 200.9 222.2H177.2C172.8 222.2 169.2 225.8 169.2 230.2C169.2 234.6 172.8 238.2 177.2 238.2H192.9V253.9C192.9 258.3 196.5 261.9 200.9 261.9C205.3 261.9 208.9 258.3 208.9 253.9V230.2ZM208.9 301.3C208.9 296.9 205.3 293.3 200.9 293.3H177.2C172.8 293.3 169.2 296.9 169.2 301.3C169.2 305.7 172.8 309.3 177.2 309.3H192.9V325C192.9 329.4 196.5 333 200.9 333C205.3 333 208.9 329.4 208.9 325V301.3ZM200.9 404.1C205.3 404.1 208.9 400.5 208.9 396.1V372.4C208.9 368 205.3 364.4 200.9 364.4H177.2C172.8 364.4 169.2 368 169.2 372.4C169.2 376.8 172.8 380.4 177.2 380.4H192.9V396.1C192.9 400.5 196.5 404.1 200.9 404.1ZM388.4 205C388.5 205 388.7 205 388.8 205C391.1 204.9 393.2 203.8 394.6 202L495 77.7999C497.8 74.3999 497.2 69.3999 493.8 66.5999L461.1 39.7999C457.7 36.9999 452.6 37.4999 449.8 40.8999C449.7 40.9999 449.6 41.0999 449.6 41.1999L404.3 97.1999L365.6 58.4999C364.1 56.9999 362.1 56.1999 359.9 56.1999H106.1C101.7 56.1999 98.1 59.7999 98.1 64.1999V467.2C98.1 471.6 101.7 475.2 106.1 475.2H414.3C418.7 475.2 422.3 471.6 422.3 467.2V216C422.3 211.6 418.7 208 414.3 208C409.9 208 406.3 211.6 406.3 216V459.3H114.1V72.2999H356.7L394.2 109.8L384.3 122L363 100.7C359.9 97.5999 354.8 97.5999 351.7 100.7L341.7 110.7C338.6 113.8 338.6 118.9 341.7 122C344.8 125.1 349.9 125.1 353 122L357.3 117.7L379.2 139.6C380.8 141.2 383 142 385.3 141.9C387.6 141.8 389.7 140.7 391.1 138.9L457.1 57.1999L477.4 73.7999L387.6 184.9L333.1 130.4C330 127.3 324.9 127.3 321.8 130.4C318.7 133.5 318.7 138.6 321.8 141.7L382.6 202.4C384.2 204.2 386.3 205 388.4 205Z" fill="black"/>
</svg>
