<svg width="512" height="512" viewBox="0 0 512 512" fill="none" xmlns="http://www.w3.org/2000/svg">
<path opacity="0.25" d="M198.5 328.4H164.6C153 328.4 142.1 325.9 132.2 321.4C125.5 318.4 127.6 308.4 135 308.4H198.6V328.4H198.5ZM401.6 209.9H400.9C396.5 179.5 372.3 155.4 341.9 151.3C341.9 151.3 332.7 71.7 253.5 71.7H253.3C245.2 71.7 240.4 81 244.9 87.7C250 95.2 253.6 102.8 256.2 109.6C260.7 121.7 269.8 131.6 281.5 137.1C300.5 145.9 314.8 163 319.7 183.8C320.6 187.4 323.6 190 327.3 190.3C327.3 190.3 327.3 190.3 327.4 190.3C357.8 193.2 381.5 219.2 380.9 250.4C380.3 282.8 353.2 308.6 320.8 308.6H256.3H252.6C241.5 308.6 232.6 317.6 232.6 328.6V416C232.6 421.4 228.2 425.8 222.8 425.8H211.5C208.4 425.8 205.8 428.3 205.8 431.5V437.2C205.8 440.3 208.3 442.9 211.5 442.9L230.8 465.2L312.3 375L291.3 354L256.3 379.2V328.6H400.8C433.3 328.6 460.5 302.8 460.9 270.2C461.4 236.9 434.6 209.9 401.6 209.9Z" fill="black"/>
<path d="M468.9 269.1C468.9 306.2 438.7 336.4 401.6 336.4H265.7V364.8L283.9 346.6C287 343.5 292.1 343.5 295.2 346.6L319.2 370.6C322.3 373.7 322.3 378.8 319.2 381.9L234.3 466.8C232.7 468.4 230.7 469.1 228.6 469.1C226.6 469.1 224.5 468.3 222.9 466.8L137.9 381.9C136.4 380.4 135.6 378.4 135.6 376.2C135.6 374.1 136.4 372 137.9 370.5L161.9 346.5C163.4 345 165.4 344.2 167.6 344.2C169.7 344.2 171.8 345 173.3 346.5L193 366.2L192.9 239C192.9 236.9 193.7 234.8 195.2 233.3C196.7 231.8 198.7 231 200.9 231H257C261.4 231 265 234.6 265 239V278.5C265 282.9 261.4 286.5 257 286.5C252.6 286.5 249 282.9 249 278.5V247H208.9L209 385.7C209 388.9 207.1 391.9 204.1 393.1C201.1 394.3 197.7 393.7 195.4 391.4L167.7 363.7L155 376.2L228.7 449.8L302.3 376.2L289.6 363.5L263.4 389.7C261.1 392 257.7 392.7 254.7 391.4C251.7 390.2 249.8 387.2 249.8 384V304.7C249.8 300.3 253.4 296.7 257.8 296.7C262.2 296.7 265.8 300.3 265.8 304.7V320.2H401.7C430 320.2 453 297.2 453 268.9C453 240.6 430 217.6 401.7 217.6H401C397 217.6 393.6 214.7 393.1 210.7C389.2 183.8 367.8 162.5 340.9 158.9C336.5 158.3 333.5 154.3 334.1 149.9C334.7 145.5 338.7 142.5 343.1 143.1C374.8 147.4 400.5 171.2 407.7 201.9C441.9 205.1 468.9 234 468.9 269.1ZM179.2 336.4C183.6 336.4 187.2 332.8 187.2 328.4C187.2 324 183.6 320.4 179.2 320.4H164.6C125.4 320.4 93.6 288.5 93.6 249.4C93.6 206.9 119.3 179.5 165.9 172.1C169.8 171.5 172.6 168.1 172.6 164.2V160.5C172.6 115.9 208.9 79.6001 253.5 79.6001C284 79.6001 311.6 96.5001 325.6 123.8C327.6 127.7 332.4 129.3 336.4 127.3C340.3 125.3 341.9 120.5 339.9 116.5C323.2 83.9001 290.1 63.6001 253.6 63.6001C201.2 63.6001 158.4 105.4 156.8 157.5C106.4 167.8 77.7 201 77.7 249.4C77.7 297.4 116.7 336.4 164.7 336.4H179.2Z" fill="black"/>
<g opacity="0.25">
<path d="M21.6001 433.1H38.0001V449.5H21.6001V433.1Z" fill="black"/>
<path d="M21.6001 292.1H38.0001V406.5H21.6001V292.1Z" fill="black"/>
<path d="M21.6001 473.1H38.0001V489.5H21.6001V473.1ZM475 108.7L414.1 47.8H475V108.7Z" fill="black"/>
</g>
<path opacity="0.25" d="M53.4001 49.4C53.4001 53.8 49.8001 57.4 45.4001 57.4H41.5001V61.3C41.5001 65.7 37.9001 69.3 33.5001 69.3C29.1001 69.3 25.5001 65.7 25.5001 61.3V57.4H21.6001C17.2001 57.4 13.6001 53.8 13.6001 49.4C13.6001 45 17.2001 41.4 21.6001 41.4H25.5001V37.5C25.5001 33.1 29.1001 29.5 33.5001 29.5C37.9001 29.5 41.5001 33.1 41.5001 37.5V41.4H45.4001C49.8001 41.4 53.4001 45 53.4001 49.4ZM373 120.7C373 116.3 369.4 112.7 365 112.7H278.2C273.8 112.7 270.2 116.3 270.2 120.7C270.2 125.1 273.8 128.7 278.2 128.7H365C369.4 128.7 373 125.1 373 120.7ZM404.7 151.7C404.7 147.3 401.1 143.7 396.7 143.7H328.5C324.1 143.7 320.5 147.3 320.5 151.7C320.5 156.1 324.1 159.7 328.5 159.7H396.7C401.1 159.7 404.7 156.1 404.7 151.7ZM456 461.2H369.2C364.8 461.2 361.2 464.8 361.2 469.2C361.2 473.6 364.8 477.2 369.2 477.2H456C460.4 477.2 464 473.6 464 469.2C464 464.8 460.4 461.2 456 461.2ZM402.8 441.1C402.8 436.7 399.2 433.1 394.8 433.1H337.4C333 433.1 329.4 436.7 329.4 441.1C329.4 445.5 333 449.1 337.4 449.1H394.8C399.3 449.1 402.8 445.5 402.8 441.1ZM115.4 112.7H99.6001V96.9C99.6001 92.5 96.0001 88.9 91.6001 88.9C87.2001 88.9 83.6001 92.5 83.6001 96.9V112.7H67.9001C63.5001 112.7 59.9001 116.3 59.9001 120.7C59.9001 125.1 63.5001 128.7 67.9001 128.7H83.7001V144.5C83.7001 148.9 87.3001 152.5 91.7001 152.5C96.1001 152.5 99.7001 148.9 99.7001 144.5V128.7H115.5C119.9 128.7 123.5 125.1 123.5 120.7C123.5 116.3 119.8 112.7 115.4 112.7Z" fill="black"/>
</svg>
