<svg width="512" height="512" viewBox="0 0 512 512" fill="none" xmlns="http://www.w3.org/2000/svg">
<path opacity="0.25" d="M486 306.2C469.1 289.3 352.1 172.3 352 172.1V173.3V226.8C352 229.8 355.9 230.8 357.4 228.2C360 223.7 364.7 221.3 369.4 221.3C372.8 221.3 376.2 222.5 378.9 225.2L453.8 297.5C456.9 300.5 456.9 305.4 453.9 308.4L344.3 420.8L344.2 420.9C338.7 426.4 338.8 435.4 344.3 440.9L351.3 447.9L486 310.3C487.1 309.2 487.1 307.4 486 306.2ZM30.0999 193.6C46.9999 210.5 164 327.5 164.1 327.7V326.5V273C164.1 270 160.2 269 158.7 271.6C156.1 276.1 151.4 278.5 146.7 278.5C143.3 278.5 139.9 277.3 137.2 274.6L62.2999 202.3C59.1999 199.3 59.1999 194.4 62.1999 191.4L171.9 79.1L172 79C177.5 73.5 177.4 64.5 171.9 59L164.9 52L30.0999 189.5C28.9999 190.6 28.9999 192.5 30.0999 193.6ZM255.4 360.5H255.7L226.7 449.2H193.1C177.5 449.2 161.4 446 166.3 431.1L185.4 375.8C188.4 366.7 196.9 360.5 206.5 360.5C215.6 360.5 223.6 354.7 226.4 346L307.4 95.4C313.5 76.5 331.2 63.6 351 63.6H351.2L255.4 360.5Z" fill="black"/>
<path d="M488.6 322.2L362.8 448C361.2 449.6 359.2 450.3 357.1 450.3C355.1 450.3 353 449.5 351.4 448C348.3 444.9 348.3 439.8 351.4 436.7L477.2 310.9C478.2 310 478.3 308.8 478.3 308.3C478.3 307.7 478.2 306.6 477.2 305.7L353.2 181.7V227.2C353.2 231.6 349.6 235.2 345.2 235.2C340.8 235.2 337.2 231.6 337.2 227.2V162.4C337.2 159.2 339.1 156.2 342.1 155C345.1 153.8 348.5 154.4 350.8 156.7L488.4 294.3C496.3 302 496.3 314.5 488.6 322.2ZM391.6 308.3C391.6 309.6 391.1 310.9 390.1 311.8L351.8 350.1C348.7 353.2 348.7 358.3 351.8 361.4C353.4 363 355.4 363.7 357.5 363.7C359.5 363.7 361.6 362.9 363.2 361.4L401.5 323.1C409.7 314.9 409.7 301.6 401.5 293.5L358.6 250.6C355.5 247.5 350.4 247.5 347.3 250.6C344.2 253.7 344.2 258.8 347.3 261.9L390.2 304.8C391.1 305.7 391.6 307 391.6 308.3ZM170.8 345.5C171.8 345.5 172.9 345.3 173.9 344.9C176.9 343.7 178.8 340.7 178.8 337.5V272.7C178.8 268.3 175.2 264.7 170.8 264.7C166.4 264.7 162.8 268.3 162.8 272.7V318.2L38.8002 194.2C37.4002 192.8 37.4002 190.4 38.8002 188.9L164.6 63.1001C167.7 60.0001 167.7 54.9001 164.6 51.8001C161.5 48.7001 156.4 48.7001 153.3 51.8001L27.5002 177.6C23.8002 181.3 21.7002 186.3 21.7002 191.5C21.7002 196.8 23.7002 201.7 27.5002 205.4L165.1 343C166.7 344.7 168.8 345.5 170.8 345.5ZM126 188L164.3 149.7C167.4 146.6 167.4 141.5 164.3 138.4C161.2 135.3 156.1 135.3 153 138.4L114.7 176.7C106.5 184.9 106.5 198.2 114.7 206.3L157.6 249.2C159.2 250.8 161.2 251.5 163.3 251.5C165.4 251.5 167.4 250.7 169 249.2C172.1 246.1 172.1 241 169 237.9L126 195.1C124.1 193.1 124.1 190 126 188ZM353.9 56.1001C349.7 54.7001 345.2 57.0001 343.8 61.3001L220.9 441.2H171.1L290.6 71.7001H318.5C322.9 71.7001 326.5 68.1001 326.5 63.7001C326.5 59.3001 322.9 55.7001 318.5 55.7001H284.8C281.3 55.7001 278.3 57.9001 277.2 61.2001L152.5 446.8C151.7 449.2 152.1 451.9 153.6 454C155.1 456.1 157.5 457.3 160.1 457.3H226.7C230.2 457.3 233.2 455.1 234.3 451.8L359 66.2001C360.4 62.0001 358.1 57.5001 353.9 56.1001Z" fill="black"/>
<path opacity="0.25" d="M360.1 111.1C360.1 106.7 363.7 103.1 368.1 103.1H425.5C429.9 103.1 433.5 106.7 433.5 111.1C433.5 115.5 429.9 119.1 425.5 119.1H368.1C363.7 119.1 360.1 115.5 360.1 111.1ZM113.3 354.3C113.3 349.9 109.7 346.3 105.3 346.3H18.3999C13.9999 346.3 10.3999 349.9 10.3999 354.3C10.3999 358.7 13.9999 362.3 18.3999 362.3H105.2C109.7 362.3 113.3 358.8 113.3 354.3ZM134 377.2H76.5999C72.1999 377.2 68.5999 380.8 68.5999 385.2C68.5999 389.6 72.1999 393.2 76.5999 393.2H134C138.4 393.2 142 389.6 142 385.2C142 380.8 138.4 377.2 134 377.2ZM482 130.8H354.8C350.4 130.8 346.8 134.4 346.8 138.8C346.8 143.2 350.4 146.8 354.8 146.8H482C486.4 146.8 490 143.2 490 138.8C490 134.4 486.4 130.8 482 130.8ZM21.2999 52.0001C21.2999 37.4001 33.0999 25.6001 47.6999 25.6001C62.2999 25.6001 74.0999 37.4001 74.0999 52.0001C74.0999 66.6001 62.1999 78.4001 47.6999 78.4001C33.1999 78.4001 21.2999 66.5001 21.2999 52.0001ZM37.2999 52.0001C37.2999 57.7001 41.9999 62.4001 47.6999 62.4001C53.3999 62.4001 58.0999 57.7001 58.0999 52.0001C58.0999 46.3001 53.3999 41.6001 47.6999 41.6001C41.9999 41.6001 37.2999 46.3001 37.2999 52.0001ZM312 439.8H308.1V435.9C308.1 431.5 304.5 427.9 300.1 427.9C295.7 427.9 292.1 431.5 292.1 435.9V439.8H288.2C283.8 439.8 280.2 443.4 280.2 447.8C280.2 452.2 283.8 455.8 288.2 455.8H292.1V459.7C292.1 464.1 295.7 467.7 300.1 467.7C304.5 467.7 308.1 464.1 308.1 459.7V455.8H312C316.4 455.8 320 452.2 320 447.8C320 443.4 316.4 439.8 312 439.8Z" fill="black"/>
<g opacity="0.25">
<path d="M423.5 473.6L484.4 412.7V473.6H423.5Z" fill="black"/>
<path d="M488.8 17.8V81H454V17.8H488.8Z" fill="black"/>
</g>
</svg>
