<svg width="512" height="512" viewBox="0 0 512 512" fill="none" xmlns="http://www.w3.org/2000/svg">
<path opacity="0.25" d="M419.3 28.7H446.7V56.0999H419.3V28.7ZM488 56.0999V28.7H460.6V56.0999H488V56.0999ZM488 98.3V70.8H460.6V98.2H488V98.3Z" fill="black"/>
<path opacity="0.25" d="M89.6 109.2C89.6 113.6 86 117.2 81.6 117.2H26.6C22.2 117.2 18.6 113.6 18.6 109.2C18.6 104.8 22.2 101.2 26.6 101.2H81.6C86 101.2 89.6 104.8 89.6 109.2ZM472.3 449.2H379.4C375 449.2 371.4 452.8 371.4 457.2C371.4 461.6 375 465.2 379.4 465.2H472.3C476.7 465.2 480.3 461.6 480.3 457.2C480.3 452.8 476.7 449.2 472.3 449.2ZM481.9 158.5C486.1 154.3 486.1 147.5 481.9 143.3C477.7 139.1 470.9 139.1 466.7 143.3C462.5 147.5 462.5 154.3 466.7 158.5C470.9 162.7 477.7 162.7 481.9 158.5ZM482.8 307.9H478.9V304C478.9 299.6 475.3 296 470.9 296C466.5 296 462.9 299.6 462.9 304V307.9H459C454.6 307.9 451 311.5 451 315.9C451 320.3 454.6 323.9 459 323.9H462.9V327.8C462.9 332.2 466.5 335.8 470.9 335.8C475.3 335.8 478.9 332.2 478.9 327.8V323.9H482.8C487.2 323.9 490.8 320.3 490.8 315.9C490.8 311.5 487.2 307.9 482.8 307.9Z" fill="black"/>
<path opacity="0.25" d="M398.2 227.1L354.8 222.1C354.8 207 352.9 202.9 337.8 202.9C321 202.9 309.2 208.1 301.2 218.3C293.2 228.4 288.9 243.4 287.1 263C286.8 265.8 286.7 268.7 286.7 271.6V272.4C286.7 358.1 287.2 348.5 243.3 348.5H190C129.7 348.5 126.8 358.1 127 388C127.1 397.9 151.4 413 161.3 413H283.5C306.7 413 325.5 394.2 325.5 371L381.5 372.1L414.4 341.6L432.6 269.8C435 252.5 415.5 229.1 398.2 227.1ZM392.8 289.7C384.3 330.5 365.7 347.4 365.7 347.4H335.4C346.6 319.1 351.9 284.1 354.3 259.1C378.1 250.9 401.3 248.9 392.8 289.7Z" fill="black"/>
<path d="M270.2 421.1H174.7C157.3 421.1 141.9 414.7 128.9 402.1C118.2 391.8 109.1 377.2 101.8 358.7C89 326.3 84 287.7 82 261C82 260.9 82 260.8 82 260.6C82 259.7 82.1 258.7 82.4 257.9C82.8 256.7 83.4 255.7 84.2 254.8C85 253.9 86 253.3 87.1 252.8C87.9 252.5 88.8 252.3 89.7 252.2C89.8 252.2 90 252.2 90.1 252.2H318C322.4 252.2 326 255.8 326 260.2C326 264.6 322.4 268.2 318 268.2H98.7C103.1 315.3 118.8 405 174.7 405H270.2C290.1 405 306.7 393.5 319.5 370.9C320.9 368.4 323.6 366.8 326.5 366.8H365.7C387.6 366.8 401.4 349.2 409.2 334.5C418.7 316.4 424.6 291.6 424.6 269.8C424.6 230.5 386.5 230.1 384.9 230.1H354.8C351.3 230.1 348.2 227.8 347.1 224.4C343.9 213.8 333.3 211 327.5 211H117.5C105.1 211 100.1 218.4 98.1 224.6C96.7 228.8 92.2 231.1 88 229.7C83.8 228.3 81.5 223.8 82.9 219.6C87.9 204.2 100.9 195 117.5 195H327.6C339.6 195 353.5 201 360.2 214.1H384.9C389.5 214.1 405.4 214.9 419.7 225.3C429.3 232.3 440.7 245.7 440.7 269.8C440.7 294.4 434.3 321.4 423.5 341.9C409.5 368.7 389.5 382.8 365.9 382.8H331.2C315.5 408.2 295.1 421.1 270.2 421.1ZM365.7 355.4H335.4C332.8 355.4 330.3 354.1 328.8 351.9C327.3 349.7 327 346.9 328 344.5C339.1 316.5 344 283.1 346.2 259.9C346.6 255.5 350.5 252.3 354.9 252.7C359.3 253.1 362.5 257 362.1 261.4C360.1 282.7 355.8 312.3 346.8 339.4H365.7C370.1 339.4 373.7 343 373.7 347.4C373.7 351.8 370.1 355.4 365.7 355.4ZM221.8 178.8C218.6 178.8 215.6 176.9 214.4 173.8C205.2 150.7 214.2 139.5 223.7 127.6C233.4 115.5 243.4 103 233.5 78.3999C231.9 74.2999 233.8 69.5999 237.9 67.9999C242 66.3999 246.7 68.2999 248.3 72.3999C261.7 105.7 246.3 124.9 236.2 137.5C227.5 148.4 223.5 153.4 229.2 167.9C230.8 172 228.8 176.7 224.7 178.3C223.8 178.6 222.8 178.8 221.8 178.8ZM164.5 178.8C161.3 178.8 158.3 176.9 157.1 173.8C147.9 150.7 156.9 139.5 166.4 127.6C176.1 115.5 186.1 103 176.2 78.3999C174.6 74.2999 176.5 69.5999 180.6 67.9999C184.7 66.3999 189.4 68.2999 191 72.3999C204.4 105.7 189 124.9 178.9 137.5C170.2 148.4 166.2 153.4 171.9 167.9C173.5 172 171.5 176.7 167.4 178.3C166.5 178.6 165.5 178.8 164.5 178.8ZM279.1 178.8C275.9 178.8 272.9 176.9 271.7 173.8C262.4 150.8 271.4 139.5 280.9 127.6C290.6 115.5 300.6 103 290.7 78.2999C289.1 74.1999 291.1 69.4999 295.2 67.8999C299.3 66.2999 304 68.2999 305.6 72.3999C318.9 105.8 303.6 124.9 293.4 137.6C284.6 148.6 280.7 153.5 286.5 167.9C288.2 172 286.2 176.7 282.1 178.3C281.1 178.6 280.1 178.8 279.1 178.8Z" fill="black"/>
</svg>
