<svg width="512" height="512" viewBox="0 0 512 512" fill="none" xmlns="http://www.w3.org/2000/svg">
<path opacity="0.25" d="M321.4 284.7C321.4 361.6 259.2 423.6 182.4 423.6C114.8 423.6 58.6 375.4 46 311.6C43.3 297.6 53.9 284.6 68.2 284.6C78.9 284.6 88.3 292.1 90.3 302.6C98.8 346.2 137.5 379.1 183.7 378.4C234.2 377.7 275.5 336.4 276.2 285.9C276.8 239.6 244 200.9 200.4 192.5C189.9 190.5 182.4 181.1 182.4 170.4C182.4 156.2 195.4 145.5 209.4 148.2C273.2 160.8 321.4 217.1 321.4 284.7ZM398.3 369.4V367V314.8V314.5H447.4V262.3H383.7C369.3 262.3 357.6 274 357.6 288.4C357.6 300.5 365.8 310.7 377 313.6V314.7H353.3C338.9 314.7 327.2 326.4 327.2 340.8C327.2 355.2 338.9 366.9 353.3 366.9H377V370.2C365.8 373.1 357.6 383.3 357.6 395.4C357.6 409.8 369.3 421.5 383.7 421.5H449.4V369.3H398.3V369.4Z" fill="black"/>
<path d="M449.4 361.4H406.3V322.5H447.4C451.8 322.5 455.4 318.9 455.4 314.5V262.3C455.4 257.9 451.8 254.3 447.4 254.3H326.3C325.5 250.3 324.5 246.4 323.3 242.5H359.2C363.6 242.5 367.2 238.9 367.2 234.5C367.2 230.1 363.6 226.5 359.2 226.5H285.4C281 226.5 277.4 230.1 277.4 234.5C277.4 238.9 281 242.5 285.4 242.5H306.5C309 249.7 310.7 257.2 311.9 264.7C312.1 266 312.3 267.3 312.4 268.6C312.5 269.1 312.5 269.5 312.5 270C312.6 271.3 312.8 272.6 312.9 273.9C313 274.5 313 275.2 313 275.8C313.1 276.9 313.2 278.1 313.2 279.2C313.3 281 313.3 282.8 313.3 284.5C313.3 285.7 313.3 286.8 313.3 288C313.3 288.4 313.3 288.8 313.3 289.2C313.3 290 313.2 290.7 313.2 291.5C313.2 292 313.1 292.5 313.1 293C313.1 293.6 313 294.3 313 294.9C313 295.5 312.9 296.1 312.8 296.7C312.8 297.2 312.7 297.7 312.7 298.2C312.6 298.9 312.5 299.6 312.5 300.3C312.5 300.7 312.4 301.1 312.4 301.5C312.3 302.3 312.2 303.1 312.1 303.9C312.1 304.2 312 304.4 312 304.7C311.9 305.6 311.7 306.5 311.6 307.4C311.6 307.6 311.5 307.7 311.5 307.9C311.3 308.9 311.1 309.8 310.9 310.8C310.9 310.9 310.9 310.9 310.9 311C298.6 370.6 245.8 415.5 182.6 415.5C110.4 415.5 51.6 356.7 51.6 284.5C51.6 212.3 110.4 153.5 182.6 153.5C224.8 153.5 264.6 174 289.2 208.3C289.9 209.3 290.8 210.1 291.8 210.6C293.2 211.7 295 212.4 296.9 212.4H339.9C344.3 212.4 347.9 208.8 347.9 204.4C347.9 200 344.3 196.4 339.9 196.4H300.3C272.6 159.4 228.8 137.4 182.6 137.4C101.5 137.4 35.6 203.3 35.6 284.4C35.6 365.5 101.5 431.4 182.6 431.4C194.6 431.4 206.2 430 217.3 427.2C218.7 428.5 220.6 429.3 222.7 429.3H449.6C454 429.3 457.6 425.7 457.6 421.3V369.1C457.4 365 453.8 361.4 449.4 361.4ZM324.4 322.8H390.3V359H309.2C315.9 347.7 321 335.6 324.4 322.8ZM328.7 270.4H439.4V306.6H327.8C327.9 306.2 327.9 305.9 327.9 305.5C328.1 304.3 328.2 303.2 328.4 302C328.5 301.5 328.5 301 328.6 300.5C328.8 298.9 328.9 297.4 329 295.8C329 295.6 329 295.4 329 295.2C329.1 293.8 329.2 292.3 329.2 290.9C329.2 290.5 329.2 290 329.2 289.6C329.3 288 329.3 286.3 329.3 284.7C329.3 283.6 329.3 282.4 329.3 281.3C329.3 281 329.3 280.8 329.3 280.5C329.3 279.6 329.2 278.7 329.2 277.9C329.2 277.6 329.2 277.4 329.2 277.1C329.2 276.2 329.1 275.3 329 274.4C329 274.2 329 274 329 273.8C328.9 272.8 328.8 271.7 328.7 270.7C328.7 270.5 328.7 270.4 328.7 270.4ZM441.4 413.6H253.1C269.6 404.5 284.3 392.3 296.4 377.4H441.4V413.6ZM153.2 264.5C153.2 278.5 163.6 289.2 180.4 292.4C198.9 295.9 207.1 299.7 207.1 312.4C207.1 317.1 205.2 332.4 181.1 332.4C173.3 332.4 166.3 330.4 160.2 326.6L148.3 338.5C146.7 340.1 144.7 340.8 142.6 340.8C140.6 340.8 138.5 340 136.9 338.5C133.8 335.4 133.8 330.3 136.9 327.2L159.5 304.6L165.2 310.3C169.3 314.4 174.5 316.4 181 316.4C185.9 316.4 188.4 315.5 189.4 315C190.5 314.4 190.9 314 190.9 312.4C190.9 312.2 190.9 311.9 190.9 311.8C189.7 311.1 186.3 309.8 177.2 308.1C152.8 303.4 137 286.3 137 264.5C137 245.4 148.3 229.6 166.4 223.4C170.6 222 175.1 224.2 176.6 228.4C178 232.6 175.8 237.1 171.6 238.6C160.2 242.5 153.2 252.2 153.2 264.5ZM212.3 374C210.5 369.9 212.4 365.2 216.5 363.5C248 349.9 268.3 318.9 268.3 284.7C268.3 244 240.1 209.5 201.2 200.9V223.2C209.9 226 218 231.1 225.3 238.4L231 244.1L208.4 266.7C206.8 268.3 204.8 269 202.7 269C200.7 269 198.6 268.2 197 266.7C193.9 263.6 193.9 258.5 197 255.4L207.9 244.5C202.8 240.8 197.4 238.3 191.7 237.3L185.2 236.1V193.6C184.9 192.6 184.8 191.6 185 190.6C185.1 189.5 185.5 188.4 186 187.5C187.3 184.8 190 182.9 193.2 182.9C194.7 182.9 196 183.3 197.2 184C247.1 191.2 284.3 234 284.3 284.8C284.3 325.5 260.2 362.2 222.9 378.3C221.9 378.7 220.8 379 219.7 379C216.5 378.8 213.6 377 212.3 374ZM201.2 353.3V376.9V377C201.7 381.4 198.6 385.4 194.2 385.9C190.3 386.3 186.4 386.6 182.4 386.6C126.2 386.6 80.6 340.9 80.6 284.8C80.6 235.1 116.1 192.9 165 184.4C169.4 183.7 173.5 186.6 174.2 190.9C175 195.3 172 199.4 167.7 200.1C126.5 207.2 96.6 242.8 96.6 284.7C96.6 332 135.1 370.5 182.4 370.5C183.3 370.5 184.3 370.5 185.2 370.5V340.8L191.5 339.5C206.3 336.4 215.1 326.3 215.1 312.6C215.1 308.2 218.7 304.6 223.1 304.6C227.5 304.6 231.1 308.2 231.1 312.6C231.1 331.8 219.8 347 201.2 353.3Z" fill="black"/>
<path opacity="0.25" d="M35.6 413.7H13.9V356.8H35.7V413.7H35.6ZM35.6 431.8H13.9V490.5H70.8V468.7H35.6V431.8ZM89 468.7V490.5H145.9V468.7H89Z" fill="black"/>
<path opacity="0.25" d="M400 66.5999C400 70.9999 396.4 74.5999 392 74.5999H376.2V90.3999C376.2 94.7999 372.6 98.3999 368.2 98.3999C363.8 98.3999 360.2 94.7999 360.2 90.3999V74.5999H344.4C340 74.5999 336.4 70.9999 336.4 66.5999C336.4 62.1999 340 58.5999 344.4 58.5999H360.2V42.8999C360.2 38.4999 363.8 34.8999 368.2 34.8999C372.6 34.8999 376.2 38.4999 376.2 42.8999V58.6999H392C396.4 58.5999 400 62.1999 400 66.5999ZM77.9 31.9999C73.5 31.9999 69.9 35.5999 69.9 39.9999C69.9 51.3999 60.6 60.7999 49.1 60.7999C44.7 60.7999 41.1 64.3999 41.1 68.7999C41.1 73.1999 44.7 76.7999 49.1 76.7999C69.4 76.7999 85.9 60.2999 85.9 39.9999C85.9 35.5999 82.3 31.9999 77.9 31.9999ZM127.9 60.6999C116.5 60.6999 107.1 51.3999 107.1 39.8999C107.1 35.4999 103.5 31.8999 99.1 31.8999C94.7 31.8999 91.1 35.4999 91.1 39.8999C91.1 60.1999 107.6 76.6999 127.9 76.6999C132.3 76.6999 135.9 73.0999 135.9 68.6999C135.9 64.2999 132.3 60.6999 127.9 60.6999ZM127.9 81.9999C107.6 81.9999 91.1 98.4999 91.1 118.8C91.1 123.2 94.7 126.8 99.1 126.8C103.5 126.8 107.1 123.2 107.1 118.8C107.1 107.4 116.4 97.9999 127.9 97.9999C132.3 97.9999 135.9 94.3999 135.9 89.9999C135.9 85.5999 132.3 81.9999 127.9 81.9999ZM49.2 81.9999C44.8 81.9999 41.2 85.5999 41.2 89.9999C41.2 94.3999 44.8 97.9999 49.2 97.9999C60.6 97.9999 70 107.3 70 118.8C70 123.2 73.6 126.8 78 126.8C82.4 126.8 86 123.2 86 118.8C85.9 98.4999 69.4 81.9999 49.2 81.9999ZM455.7 189.8C461.6 189.8 466.5 185 466.5 179C466.5 173 461.7 168.2 455.7 168.2C449.8 168.2 444.9 173 444.9 179C444.9 185 449.7 189.8 455.7 189.8ZM465.8 454.7C461.4 454.7 457.8 458.3 457.8 462.7C457.8 468.4 453.1 473.1 447.4 473.1C441.7 473.1 437 468.4 437 462.7C437 458.3 433.4 454.7 429 454.7C424.6 454.7 421 458.3 421 462.7C421 477.3 432.8 489.1 447.4 489.1C462 489.1 473.8 477.3 473.8 462.7C473.8 458.3 470.2 454.7 465.8 454.7Z" fill="black"/>
</svg>
