<svg width="512" height="512" viewBox="0 0 512 512" fill="none" xmlns="http://www.w3.org/2000/svg">
<g opacity="0.25">
<path d="M353.9 482.8H290.2C274.2 482.8 261.3 469.9 261.3 453.9V433.8C261.3 422.9 268.4 413.4 278.8 410.1C281 409.4 283.3 408.6 285.6 407.6C285.6 407.6 282.3 419.8 308.5 431.3C334.8 442.7 351.1 450.3 353.9 482.8Z" fill="black"/>
<path d="M261.1 297.5C262.8 296.5 307.6 302.7 307.6 302.7C307.6 302.7 312.2 330.4 307.6 369.3C304.9 391.8 289.8 403.5 277.5 409.4C269.9 413.1 261.1 407.4 261.1 399V302.1C261.1 302.1 259.4 298.5 261.1 297.5Z" fill="black"/>
<path d="M499.7 251H436C420 251 407.1 238.1 407.1 222.1V202C407.1 191.1 414.2 181.6 424.6 178.3C426.8 177.6 429.1 176.8 431.4 175.8C431.4 175.8 428.1 188 454.3 199.5C480.6 210.9 496.9 218.6 499.7 251Z" fill="black"/>
<path d="M407 65.8001C408.7 64.8001 453.5 71.0001 453.5 71.0001C453.5 71.0001 458.1 98.7001 453.5 137.6C450.8 160.1 435.7 171.8 423.4 177.7C415.8 181.4 407 175.7 407 167.3V70.4001C407 70.4001 405.3 66.7001 407 65.8001Z" fill="black"/>
<path d="M210.4 245.7H146.7C130.7 245.7 117.8 232.8 117.8 216.8V196.7C117.8 185.8 124.9 176.3 135.3 173C137.5 172.3 139.8 171.5 142.1 170.5C142.1 170.5 138.8 182.7 165 194.2C191.3 205.6 207.6 213.3 210.4 245.7Z" fill="black"/>
<path d="M117.7 60.5C119.4 59.5 164.2 65.7 164.2 65.7C164.2 65.7 168.8 93.4 164.2 132.3C161.5 154.8 146.4 166.5 134.1 172.4C126.5 176.1 117.7 170.4 117.7 162V65.1C117.7 65.1 116 61.4 117.7 60.5Z" fill="black"/>
</g>
<path d="M75.9999 258.3H207.1C211.4 258.3 214.9 255 215.1 250.7C215.8 236.2 208.2 205.2 174.4 191.5C154.3 183.4 147.4 177.1 145.1 174.4C157.6 164.9 164 151.3 166.8 143.8C168.6 139 169.4 133.9 169.4 128.7V86.8C170.5 87.4 171.8 87.7 173 87.7C174.2 87.7 175.5 87.4 176.6 86.8C194.9 77.4 214.6 71.3 235 68.5C239.4 67.9 242.4 63.9 241.8 59.5C241.2 55.1 237.2 52.1 232.8 52.7C210.6 55.7 189.3 62.4 169.3 72.6V60.9C169.3 58.3 168 55.8 165.8 54.3C163.6 52.8 160.9 52.5 158.4 53.4C151.1 56.2 143.7 54.4 135.2 52.2C123.5 49.3 108.9 45.6 93.5999 56.5C89.9999 59.1 89.0999 64.1 91.6999 67.7C94.2999 71.3 99.2999 72.2 102.9 69.6C111.7 63.3 119.5 64.8 131.4 67.8C138.1 69.5 145.5 71.3 153.4 70.8V128.7C153.4 132 152.8 135.3 151.7 138.3C147.6 149.7 137.1 168.7 113.2 168.7C90.7999 168.7 79.9999 153.4 74.7999 140.6C73.4999 137.3 72.7999 133.8 72.7999 130.1V66.9C72.7999 59.4 77.3999 53.8 81.2999 50.5C90.3999 42.6 104.4 39 117.8 41C122.6 41.7 127 43 131.3 44.2C142.6 47.4 154.3 50.7 169.7 44.3C173.8 42.6 175.7 37.9 174 33.8C172.3 29.7 167.6 27.8 163.5 29.5C153.2 33.8 145.8 31.7 135.6 28.8C131 27.5 125.8 26 120.1 25.2C102.2 22.5 83.2999 27.6 70.7999 38.4C61.7999 46.2 56.7999 56.3 56.7999 66.9V130.1C56.7999 135.8 57.8999 141.3 59.8999 146.5C62.6999 153.4 69.0999 165.9 81.1999 174.7C79.0999 177.1 74.2999 181.5 63.2999 186.7C6.89988 208.1 11.7999 249.6 11.9999 251.3C12.4999 255.3 15.8999 258.2 19.8999 258.2H59.8999C60.5999 278.3 64.1999 298 70.7999 316.9C71.8999 320.2 74.9999 322.3 78.3999 322.3C79.2999 322.3 80.1999 322.2 80.9999 321.9C85.1999 320.5 87.3999 315.9 85.8999 311.7C80.0999 294.5 76.6999 276.6 75.9999 258.3ZM69.3999 201.5C69.4999 201.4 69.6999 201.4 69.7999 201.3C69.8999 201.3 69.9999 201.2 69.9999 201.2C69.9999 201.2 70.0999 201.2 70.0999 201.1C84.9999 194 92.2999 187.2 95.6999 181.9C100.8 183.5 106.6 184.5 113 184.5C119.6 184.5 125.4 183.5 130.6 181.8C134.8 188.4 145.2 196.9 168.2 206.2C190.2 215.1 196.5 232.2 198.2 242.2H28.2999C29.9999 232.2 37.4999 213.5 69.3999 201.5ZM419.3 373.6C397.2 402.3 367.5 424.5 334.1 437.8C354.2 453.2 359.1 476 358.5 487.8C358.3 492.1 354.8 495.4 350.5 495.4H163.5C159.2 495.4 155.7 492 155.5 487.7C155.4 486.3 155.2 473.8 163.5 457.8C165.5 453.9 170.4 452.4 174.3 454.4C178.2 456.4 179.7 461.3 177.7 465.2C174.9 470.7 173.3 475.6 172.5 479.4H341.9C340.2 469.8 334.3 453.6 314.3 444.5C313.6 444.7 312.9 444.9 312.2 445.1C311.5 445.3 310.8 445.4 310.1 445.4C306.6 445.4 303.3 443 302.4 439.5V439.4C285.9 431.7 277.9 424.8 274.3 419.1C269.1 420.8 263.3 421.8 256.7 421.8C250.2 421.8 244.1 420.8 238.4 418.8C234.1 424.5 224.8 434 207 442.5C206.7 442.6 206.4 442.8 206.1 442.9C206 442.9 206 442.9 205.9 443C205.6 443.1 205.3 443.2 205 443.2C204.9 443.2 204.8 443.2 204.7 443.2C204.3 443.3 203.9 443.3 203.6 443.3C203.2 443.3 202.9 443.3 202.5 443.2C202.4 443.2 202.3 443.1 202.2 443.1C201.9 443 201.7 443 201.4 442.9H201.3C162.5 430.9 128.6 407.6 103.2 375.6C100.5 372.1 101 367.1 104.5 364.4C108 361.7 113 362.2 115.7 365.7C138.4 394.4 168.5 415.4 202.9 426.7C214 421 220.5 415.1 223.9 411.2C215.2 404.7 208.2 395.4 203.5 383.6C201.4 378.4 200.4 372.9 200.4 367.2V304C200.4 293.4 205.4 283.3 214.4 275.5C227 264.7 245.9 259.6 263.7 262.3C269.5 263.2 274.6 264.6 279.2 265.9C289.4 268.8 296.8 270.9 307.1 266.6C311.2 264.9 315.9 266.8 317.6 270.9C319.3 275 317.4 279.7 313.3 281.4C297.9 287.8 286.2 284.5 274.9 281.3C270.6 280.1 266.1 278.8 261.4 278.1C248 276.1 234 279.7 224.9 287.6C221 290.9 216.4 296.5 216.4 304V367.2C216.4 370.8 217.1 374.4 218.4 377.7C223.6 390.5 234.4 405.8 256.8 405.8C280.7 405.8 291.2 386.7 295.3 375.4C296.4 372.3 297 369.1 297 365.8V307.9C289.1 308.4 281.8 306.6 275 304.9C263.1 301.9 255.4 300.4 246.5 306.7C242.9 309.3 237.9 308.4 235.3 304.8C232.7 301.2 233.6 296.2 237.2 293.6C252.5 282.8 267.1 286.4 278.8 289.3C287.3 291.4 294.7 293.3 302 290.5C304.5 289.6 307.2 289.9 309.4 291.4C311.6 292.9 312.9 295.4 312.9 298V365.7C312.9 370.9 312 376 310.3 380.8C307.6 388.3 301.2 402 288.6 411.4C290.8 414.1 297.2 419.9 315.3 427.5C351.3 416.3 383.5 393.9 406.6 363.8C409.3 360.3 414.3 359.7 417.8 362.3C421.3 365 422 370.1 419.3 373.6ZM463.7 196.8C443.6 188.7 436.7 182.4 434.4 179.7C446.9 170.2 453.3 156.6 456.1 149.1C457.9 144.3 458.7 139.2 458.7 134V66.2C458.7 63.6 457.4 61.1 455.2 59.6C453 58.1 450.3 57.8 447.8 58.7C440.5 61.5 433.1 59.7 424.6 57.5C412.9 54.6 398.3 50.9 383 61.8C379.4 64.4 378.5 69.4 381.1 73C383.7 76.6 388.6 77.5 392.3 74.9C401.1 68.6 408.9 70.1 420.8 73.1C427.5 74.8 434.9 76.6 442.8 76.1V134C442.8 137.3 442.2 140.6 441.1 143.6C437 155 426.5 174 402.6 174C380.2 174 369.4 158.7 364.2 145.9C362.9 142.6 362.2 139.1 362.2 135.4V72.1C362.2 64.6 366.8 59 370.7 55.7C379.8 47.8 393.8 44.2 407.2 46.2C412 46.9 416.4 48.2 420.7 49.4C432 52.6 443.7 55.9 459.1 49.5C463.2 47.8 465.1 43.1 463.4 39C461.7 34.9 457 33 452.9 34.7C442.6 39 435.2 36.9 425 34C420.4 32.7 415.2 31.2 409.5 30.4C391.6 27.7 372.7 32.8 360.2 43.6C351.8 50.9 346.9 60.2 346.2 70C323.8 59.4 299.9 53.1 274.9 51.3C270.5 51 266.7 54.3 266.4 58.7C266.1 63.1 269.4 66.9 273.8 67.3C299.3 69.1 323.6 76.1 346.1 87.9V135.4C346.1 141.1 347.2 146.6 349.2 151.8C354.1 164 361.4 173.5 370.5 180C368.3 182.6 363.5 186.8 352.8 191.9C326.8 200.1 314.1 216.7 308.1 229.2C301.5 242.9 301.2 254.8 301.2 255.3C301.2 257.4 302 259.5 303.5 261.1C305 262.7 307.1 263.5 309.2 263.5H444.4C443.3 280 440.1 296.1 434.7 311.7C433.3 315.9 435.5 320.4 439.6 321.9C440.5 322.2 441.4 322.3 442.2 322.3C445.5 322.3 448.6 320.2 449.8 316.9C455.8 299.7 459.3 281.7 460.4 263.5H496.3C500.6 263.5 504.1 260.2 504.3 255.9C505.1 241.4 497.5 210.4 463.7 196.8ZM460 247.6C458.7 245 456 243.3 452.9 243.3C449.8 243.3 447.1 245.1 445.8 247.6H318.5C321.2 236.1 330.1 215.7 358.2 207H358.3C358.4 207 358.5 206.9 358.6 206.9C358.8 206.8 358.9 206.8 359.1 206.7C359.1 206.7 359.2 206.7 359.2 206.6C374.2 199.4 381.5 192.6 385 187.3C390.4 189 396.2 189.9 402.3 189.9C408.9 189.9 414.7 188.9 419.9 187.2C424.1 193.8 434.5 202.3 457.5 211.6C479.5 220.5 485.8 237.6 487.5 247.6H460V247.6Z" fill="black"/>
<g opacity="0.25">
<path d="M8.3999 335.8H43.5999V358.3H8.3999V335.8ZM8.3999 424H43.5999V401.5H8.3999V424Z" fill="black"/>
<path d="M8.3999 369.2H43.5999V390.8H8.3999V369.2Z" fill="black"/>
</g>
<path opacity="0.25" d="M79.7 440C65.1 440 53.3 451.8 53.3 466.4C53.3 481 65.1 492.8 79.7 492.8C94.3 492.8 106.1 481 106.1 466.4C106.1 451.8 94.2 440 79.7 440ZM79.7 476.8C74 476.8 69.3001 472.1 69.3001 466.4C69.3001 460.7 74 456 79.7 456C85.4 456 90.1 460.7 90.1 466.4C90.1 472.1 85.4 476.8 79.7 476.8ZM208.7 458C208.7 462.4 205.1 466 200.7 466H131.7C127.3 466 123.7 462.4 123.7 458C123.7 453.6 127.3 450 131.7 450H200.7C205.1 450 208.7 453.6 208.7 458ZM506.2 157.2C506.2 161.6 502.6 165.2 498.2 165.2H494.3V169.1C494.3 173.5 490.7 177.1 486.3 177.1C481.9 177.1 478.3 173.5 478.3 169.1V165.2H474.4C470 165.2 466.4 161.6 466.4 157.2C466.4 152.8 470 149.2 474.4 149.2H478.3V145.3C478.3 140.9 481.9 137.3 486.3 137.3C490.7 137.3 494.3 140.9 494.3 145.3V149.2H498.2C502.6 149.2 506.2 152.8 506.2 157.2ZM51.6 31.4C51.6 35.8 48 39.4 43.6 39.4H39.7001V43.3C39.7001 47.7 36.1001 51.3 31.7001 51.3C27.3001 51.3 23.7 47.7 23.7 43.3V39.4H19.8C15.4 39.4 11.8 35.8 11.8 31.4C11.8 27 15.4 23.4 19.8 23.4H23.7V19.5C23.7 15.1 27.3001 11.5 31.7001 11.5C36.1001 11.5 39.7001 15.1 39.7001 19.5V23.4H43.6C48 23.4 51.6 27 51.6 31.4ZM495 436.8C495 441.2 491.4 444.8 487 444.8C475.6 444.8 466.2 454.1 466.2 465.6C466.2 470 462.6 473.6 458.2 473.6C453.8 473.6 450.2 470 450.2 465.6C450.2 445.3 466.7 428.8 487 428.8C491.4 428.8 495 432.3 495 436.8ZM445 465.5C445 469.9 441.4 473.5 437 473.5C432.6 473.5 429 469.9 429 465.5C429 454.1 419.7 444.7 408.2 444.7C403.8 444.7 400.2 441.1 400.2 436.7C400.2 432.3 403.8 428.7 408.2 428.7C428.5 428.8 445 445.3 445 465.5ZM445 386.8C445 407.1 428.5 423.6 408.2 423.6C403.8 423.6 400.2 420 400.2 415.6C400.2 411.2 403.8 407.6 408.2 407.6C419.6 407.6 429 398.3 429 386.8C429 382.4 432.6 378.8 437 378.8C441.4 378.8 445 382.3 445 386.8ZM495 415.5C495 419.9 491.4 423.5 487 423.5C466.7 423.5 450.2 407 450.2 386.7C450.2 382.3 453.8 378.7 458.2 378.7C462.6 378.7 466.2 382.3 466.2 386.7C466.2 398.1 475.5 407.5 487 407.5C491.4 407.5 495 411.1 495 415.5ZM143.4 307.3C148.9 307.3 153.3 302.9 153.3 297.4C153.3 291.9 148.9 287.5 143.4 287.5C137.9 287.5 133.5 291.9 133.5 297.4C133.5 302.9 137.9 307.3 143.4 307.3ZM330.7 22.5C325.2 22.5 320.8 26.9 320.8 32.4C320.8 37.9 325.2 42.3 330.7 42.3C336.2 42.3 340.6 37.9 340.6 32.4C340.6 26.9 336.1 22.5 330.7 22.5ZM409.8 317.8H350.6C346.2 317.8 342.6 314.2 342.6 309.8C342.6 305.4 346.2 301.8 350.6 301.8H409.8C414.2 301.8 417.8 305.4 417.8 309.8C417.8 314.2 414.2 317.8 409.8 317.8Z" fill="black"/>
</svg>
