<svg width="512" height="512" viewBox="0 0 512 512" fill="none" xmlns="http://www.w3.org/2000/svg">
<path opacity="0.25" d="M51.2999 360.3C36.6999 360.3 24.8999 348.5 24.8999 333.9C24.8999 319.3 36.6999 307.5 51.2999 307.5C55.6999 307.5 59.2999 311.1 59.2999 315.5C59.2999 319.9 55.6999 323.5 51.2999 323.5C45.5999 323.5 40.8999 328.2 40.8999 333.9C40.8999 339.6 45.5999 344.3 51.2999 344.3C55.6999 344.3 59.2999 347.9 59.2999 352.3C59.2999 356.7 55.6999 360.3 51.2999 360.3ZM150 435.8H70.4999C66.0999 435.8 62.4999 439.4 62.4999 443.8C62.4999 448.2 66.0999 451.8 70.4999 451.8H150C154.4 451.8 158 448.2 158 443.8C158 439.4 154.5 435.8 150 435.8ZM113.5 410.3C113.5 405.9 109.9 402.3 105.5 402.3H46.4999C42.0999 402.3 38.4999 405.9 38.4999 410.3C38.4999 414.7 42.0999 418.3 46.4999 418.3H105.5C110 418.3 113.5 414.7 113.5 410.3ZM60.4999 85.6C64.6999 81.4 64.6999 74.6001 60.4999 70.4001C56.2999 66.2001 49.4999 66.2001 45.2999 70.4001C41.0999 74.6001 41.0999 81.4 45.2999 85.6C49.4999 89.8 56.2999 89.8 60.4999 85.6ZM460.8 462.8C456.6 467 456.6 473.8 460.8 478C465 482.2 471.8 482.2 476 478C480.2 473.8 480.2 467 476 462.8C471.8 458.6 465 458.6 460.8 462.8ZM480.3 282.1H476.4V278.2C476.4 273.8 472.8 270.2 468.4 270.2C464 270.2 460.4 273.8 460.4 278.2V282.1H456.5C452.1 282.1 448.5 285.7 448.5 290.1C448.5 294.5 452.1 298.1 456.5 298.1H460.4V302C460.4 306.4 464 310 468.4 310C472.8 310 476.4 306.4 476.4 302V298.1H480.3C484.7 298.1 488.3 294.5 488.3 290.1C488.3 285.7 484.7 282.1 480.3 282.1ZM456.7 82.1V78.2H460.6C465 78.2 468.6 74.6 468.6 70.2C468.6 65.8 465 62.2001 460.6 62.2001H456.7V58.3C456.7 53.9 453.1 50.3 448.7 50.3C444.3 50.3 440.7 53.9 440.7 58.3V62.2001H436.8C432.4 62.2001 428.8 65.8 428.8 70.2C428.8 74.6 432.4 78.2 436.8 78.2H440.7V82.1C440.7 86.5 444.3 90.1 448.7 90.1C453.1 90.1 456.7 86.5 456.7 82.1ZM326.1 127.6H284.8C280.4 127.6 276.8 131.2 276.8 135.6C276.8 140 280.4 143.6 284.8 143.6H326.1C330.5 143.6 334.1 140 334.1 135.6C334.1 131.2 330.5 127.6 326.1 127.6Z" fill="black"/>
<path opacity="0.25" d="M388.4 309.6C388.4 309.6 379.3 311.9 388 316C405.1 324.1 418.3 339.3 423.8 357.7C426.9 363.3 428.7 369.8 428.7 376.7C428.7 383.6 426.9 390.1 423.8 395.7C417 418.8 398.1 436.7 374.4 442.1C379.2 443.2 384.2 443.8 389.4 443.8C426.8 443.8 457.1 413.1 456.5 375.6C456 338.8 425.2 309.6 388.4 309.6ZM391.4 73.1C385.5 72.9 379.8 73.5 374.4 74.8C398 80.2 417 98.1 423.8 121.2C426.9 126.8 428.7 133.3 428.7 140.2C428.7 147.1 426.9 153.6 423.8 159.2C415.6 187 389.8 207.3 359.4 207.3H389.4C427.8 207.3 458.8 174.8 456.4 135.9C454.2 101.5 425.8 74.1 391.4 73.1ZM322.3 214.3V302.6C322.3 310.3 328.5 316.5 336.2 316.5C343.9 316.5 350.1 310.3 350.1 302.6V214.3C350.1 206.6 343.9 200.4 336.2 200.4C328.5 200.4 322.3 206.6 322.3 214.3Z" fill="black"/>
<path d="M389.4 451.8C348 451.8 314.3 418.1 314.3 376.7V345.4H228V376.7C228 418.1 194.3 451.8 152.9 451.8C137.3 451.8 122.3 447 109.5 438C105.9 435.4 105 430.4 107.6 426.8C110.2 423.2 115.2 422.3 118.8 424.9C128.8 432 140.6 435.8 152.9 435.8C185.5 435.8 212 409.3 212 376.7V337.4C212 333 215.6 329.4 220 329.4H322.2C326.6 329.4 330.2 333 330.2 337.4V376.7C330.2 409.3 356.7 435.8 389.3 435.8C421.9 435.8 448.4 409.3 448.4 376.7C448.4 344.1 421.9 317.6 389.3 317.6C384.9 317.6 381.3 314 381.3 309.6C381.3 305.2 384.9 301.6 389.3 301.6C430.7 301.6 464.4 335.3 464.4 376.7C464.5 418.1 430.8 451.8 389.4 451.8ZM389.4 424C363.3 424 342.1 402.8 342.1 376.7V337.4C342.1 333 345.7 329.4 350.1 329.4H389.4C415.5 329.4 436.7 350.6 436.7 376.7C436.7 402.8 415.5 424 389.4 424ZM358.1 345.4V376.7C358.1 394 372.1 408 389.4 408C406.7 408 420.7 394 420.7 376.7C420.7 359.4 406.7 345.4 389.4 345.4H358.1ZM152.9 424C126.8 424 105.6 402.8 105.6 376.7C105.6 350.6 126.8 329.4 152.9 329.4H192.2C196.6 329.4 200.2 333 200.2 337.4V376.7C200.2 402.8 179 424 152.9 424ZM152.9 345.4C135.6 345.4 121.6 359.4 121.6 376.7C121.6 394 135.6 408 152.9 408C170.2 408 184.2 394 184.2 376.7V345.4H152.9ZM94.8 418.3C92 418.3 89.4 416.9 87.9 414.3C81.3 402.9 77.8 389.9 77.8 376.7C77.8 335.3 111.5 301.6 152.9 301.6H184.2V215.4H152.9C111.5 215.4 77.8 181.7 77.8 140.3C77.8 98.9001 111.5 65.2001 152.9 65.2001C194.3 65.2001 228 98.8001 228 140.2V171.5H291.8C296.2 171.5 299.8 175.1 299.8 179.5C299.8 183.9 296.2 187.5 291.8 187.5H220C215.6 187.5 212 183.9 212 179.5V140.2C212 107.6 185.5 81.1001 152.9 81.1001C120.3 81.1001 93.8 107.6 93.8 140.2C93.8 172.8 120.3 199.3 152.9 199.3H192.2C196.6 199.3 200.2 202.9 200.2 207.3V309.5C200.2 313.9 196.6 317.5 192.2 317.5H152.9C120.3 317.5 93.8 344 93.8 376.6C93.8 387 96.5 397.2 101.8 406.2C104 410 102.7 414.9 98.9 417.1C97.6 418 96.2 418.3 94.8 418.3ZM350.1 317.6C345.7 317.6 342.1 314 342.1 309.6V207.3C342.1 202.9 345.7 199.3 350.1 199.3H389.4C422 199.3 448.5 172.8 448.5 140.2C448.5 107.6 422 81.1001 389.4 81.1001C356.8 81.1001 330.3 107.6 330.3 140.2V179.5C330.3 183.9 326.7 187.5 322.3 187.5C317.9 187.5 314.3 183.9 314.3 179.5V140.2C314.3 98.8001 348 65.1001 389.4 65.1001C430.8 65.1001 464.5 98.8001 464.5 140.2C464.5 181.6 430.8 215.3 389.4 215.3H358.1V309.5C358.1 314 354.5 317.6 350.1 317.6ZM322.3 317.6H220C215.6 317.6 212 314 212 309.6C212 305.2 215.6 301.6 220 301.6H314.2V215.4H228V279C228 283.4 224.4 287 220 287C215.6 287 212 283.4 212 279V207.3C212 202.9 215.6 199.3 220 199.3H322.2C326.6 199.3 330.2 202.9 330.2 207.3V309.5C330.3 314 326.7 317.6 322.3 317.6ZM389.4 187.5H350.1C345.7 187.5 342.1 183.9 342.1 179.5V140.2C342.1 114.1 363.3 92.9001 389.4 92.9001C415.5 92.9001 436.7 114.1 436.7 140.2C436.7 166.3 415.5 187.5 389.4 187.5ZM358.1 171.5H389.4C406.7 171.5 420.7 157.5 420.7 140.2C420.7 122.9 406.7 108.9 389.4 108.9C372.1 108.9 358.1 122.9 358.1 140.2V171.5ZM192.2 187.5H152.9C126.8 187.5 105.6 166.3 105.6 140.2C105.6 114.1 126.8 92.9001 152.9 92.9001C179 92.9001 200.2 114.1 200.2 140.2V179.5C200.2 183.9 196.6 187.5 192.2 187.5ZM152.9 108.9C135.6 108.9 121.6 122.9 121.6 140.2C121.6 157.5 135.6 171.5 152.9 171.5H184.2V140.2C184.2 123 170.2 108.9 152.9 108.9Z" fill="black"/>
</svg>
