<svg width="512" height="512" viewBox="0 0 512 512" fill="none" xmlns="http://www.w3.org/2000/svg">
<g opacity="0.25">
<path d="M449.4 27.5H465.8V43.9H449.4V27.5Z" fill="black"/>
<path d="M378.5 94.9999H394.9V111.4H378.5V94.9999ZM418.9 65.8999V114.9H461.9V65.8999H418.9Z" fill="black"/>
<path d="M480.4 27.5H496.8V141.9H480.4V27.5ZM440.4 316.5V361.1H481.7V316.5H440.4ZM481.6 426.5V381.9H440.3V426.5H481.6Z" fill="black"/>
</g>
<path opacity="0.25" d="M154.5 469.6C154.5 474 150.9 477.6 146.5 477.6H45.4C41 477.6 37.4 474 37.4 469.6C37.4 465.2 41 461.6 45.4 461.6H146.5C150.9 461.6 154.5 465.2 154.5 469.6ZM73.4 358.9V362.8H69.5C65.1 362.8 61.5 366.4 61.5 370.8C61.5 375.2 65.1 378.8 69.5 378.8H73.4V382.7C73.4 387.1 77 390.7 81.4 390.7C85.8 390.7 89.4 387.1 89.4 382.7V378.8H93.3C97.7 378.8 101.3 375.2 101.3 370.8C101.3 366.4 97.7 362.8 93.3 362.8H89.4V358.9C89.4 354.5 85.8 350.9 81.4 350.9C77 350.9 73.4 354.5 73.4 358.9ZM373.9 43.2999C373.9 38.8999 370.3 35.2999 365.9 35.2999H322.9C318.5 35.2999 314.9 38.8999 314.9 43.2999C314.9 47.6999 318.5 51.2999 322.9 51.2999H365.9C370.3 51.2999 373.9 47.7999 373.9 43.2999ZM39 141.4C39 145.8 42.6 149.4 47 149.4C51.4 149.4 55 145.8 55 141.4V125.6H70.8C75.2 125.6 78.8 122 78.8 117.6C78.8 113.2 75.2 109.6 70.8 109.6H55V93.7999C55 89.3999 51.4 85.7999 47 85.7999C42.6 85.7999 39 89.3999 39 93.7999V109.6H23.2C18.8 109.6 15.2 113.2 15.2 117.6C15.2 122 18.8 125.6 23.2 125.6H39V141.4ZM37.0999 43.2999C37.0999 37.7999 41.5 33.3999 47 33.3999C52.5 33.3999 56.9 37.7999 56.9 43.2999C56.9 48.7999 52.5 53.1999 47 53.1999C41.5 53.1999 37.0999 48.7999 37.0999 43.2999ZM92.4 43.2999C92.4 37.7999 96.8 33.3999 102.3 33.3999C107.8 33.3999 112.2 37.7999 112.2 43.2999C112.2 48.7999 107.8 53.1999 102.3 53.1999C96.9 53.1999 92.4 48.7999 92.4 43.2999ZM167.6 43.2999C167.6 48.7999 163.2 53.1999 157.7 53.1999C152.2 53.1999 147.8 48.7999 147.8 43.2999C147.8 37.7999 152.2 33.3999 157.7 33.3999C163.2 33.3999 167.6 37.8999 167.6 43.2999ZM482.5 448.5H439.5C435.1 448.5 431.5 452.1 431.5 456.5C431.5 460.9 435.1 464.5 439.5 464.5H482.5C486.9 464.5 490.5 460.9 490.5 456.5C490.5 452.1 486.9 448.5 482.5 448.5ZM455 478.5H362C357.6 478.5 354 482.1 354 486.5C354 490.9 357.6 494.5 362 494.5H455C459.4 494.5 463 490.9 463 486.5C463 482.1 459.4 478.5 455 478.5Z" fill="black"/>
<path opacity="0.25" d="M402.5 315.4L336 385.6C328.4 378.4 322.5 372.8 319.2 369.7C295.2 346.9 275 337.8 248.6 337.8C239.9 337.8 231.9 338.8 224.3 340.9C204 346.5 182.2 340.4 167.7 325.1C139.4 295.2 151.1 246.2 189.8 232.2C208.2 225.6 228 222 248.6 222C315.5 222 373.5 259.9 402.5 315.4Z" fill="black"/>
<path d="M260.2 450C257.3 450 254.6 448.5 253.1 445.8L240.8 422.6C238.7 418.7 240.2 413.9 244.1 411.8C248 409.7 252.8 411.2 254.9 415.1L263.5 431.2L269.8 427.8L261.2 411.7C259.9 409.2 260 406.1 261.5 403.7C263 401.3 263.8 398.5 263.8 395.7C263.8 387.6 257.2 380.8 249.2 380.6C246.3 380.5 243.8 378.9 242.4 376.4L195.7 288.8L182.3 295.9C178.4 298 173.6 296.5 171.5 292.6C169.4 288.7 170.9 283.9 174.8 281.8L195.2 270.9C199.1 268.8 203.9 270.3 206 274.2L254.5 365.2C269 367.9 279.8 380.6 279.8 395.8C279.8 400 279 404.1 277.3 408L287.7 427.5C288.7 429.4 288.9 431.6 288.3 433.6C287.7 435.6 286.3 437.3 284.4 438.3L263.9 449C262.7 449.6 261.4 450 260.2 450ZM336 393.6C334 393.6 332 392.9 330.5 391.4C327.3 388.4 327.2 383.3 330.2 380.1L458.2 244.9L456.4 242.5C407.9 176.7 330.2 137.5 248.5 137.5C166.9 137.5 89.1999 176.8 40.5999 242.5L38.7999 244.9L167 380.1C170 383.3 169.9 388.4 166.7 391.4C163.5 394.4 158.4 394.3 155.4 391.1L22.6999 251C19.9999 248.2 19.7999 243.9 22.0999 240.7L27.8999 232.9C79.3999 163.1 162 121.4 248.7 121.4C335.4 121.4 417.9 163.1 469.4 232.9L475.2 240.7C477.5 243.8 477.2 248.1 474.6 251L341.8 391.1C340.2 392.8 338.1 393.6 336 393.6ZM140.4 225.2C137.5 225.2 134.8 223.7 133.3 221L117.2 190.7C115.1 186.8 116.6 182 120.5 179.9C124.4 177.8 129.2 179.3 131.3 183.2L147.4 213.5C149.5 217.4 148 222.2 144.1 224.3C143 224.9 141.7 225.2 140.4 225.2ZM336.3 214.3C335 214.3 333.7 214 332.5 213.4C328.6 211.3 327.1 206.5 329.2 202.6L345.3 172.3C347.4 168.4 352.2 166.9 356.1 169C360 171.1 361.5 175.9 359.4 179.8L343.3 210.1C341.9 212.8 339.2 214.3 336.3 214.3ZM237 195.3C232.6 195.3 229 191.7 229 187.3V152.9C229 148.5 232.6 144.9 237 144.9C241.4 144.9 245 148.5 245 152.9V187.3C245 191.7 241.4 195.3 237 195.3Z" fill="black"/>
</svg>
