<svg width="512" height="512" viewBox="0 0 512 512" fill="none" xmlns="http://www.w3.org/2000/svg">
<path opacity="0.25" d="M256.4 448.3L156.6 437.8C140.7 437.8 126.4 431.4 116 421C105.7 410.8 99.2998 396.6 99.1998 380.9C98.8998 349 125.8 338.6 157.6 338.6L256.5 341C290.9 341 318.9 290.9 318.9 256.5V178.2C318.9 143.8 346.8 126.8 381.3 126.8L408.2 115.8V384.5C408.2 411.7 386.2 433.7 359 448.4H256.4V448.3Z" fill="black"/>
<path d="M256.4 456.9C199.3 456.9 162.3 448.5 141.2 441.4C124.8 435.9 97.3999 424.1 97.3999 406.9V113.6C97.3999 112.3 97.6999 111.2 98.1999 110.1C97.6999 108.5 97.3999 106.8 97.3999 105C97.3999 87.8 124.8 76 141.2 70.5C162.2 63.4 199.3 55 256.4 55C313.5 55 350.5 63.4 371.6 70.5C388 76 415.4 87.8 415.4 105C415.4 122.2 388 134 371.6 139.5C350.6 146.6 313.5 155 256.4 155C199.3 155 162.3 146.6 141.2 139.5C133.1 136.8 122.3 132.5 113.4 126.8V205.7C113.7 207.5 120.9 216.7 148.6 225.6C168.5 232 203.3 239.6 256.4 239.6C309.4 239.6 344.3 232 364.2 225.6C391.7 216.7 399 207.6 399.4 205.7V147C399.4 142.6 403 139 407.4 139C411.8 139 415.4 142.6 415.4 147V306.5C415.4 306.6 415.4 306.6 415.4 306.7C415 323.7 387.3 335.4 370.9 340.9C349.8 347.9 312.8 356.3 256.5 356.3C200.2 356.3 163.2 347.9 142.1 340.9C133.8 338.1 122.6 333.8 113.6 328V407C113.8 408.7 120.8 417.9 148.1 426.8C167.9 433.2 202.8 440.9 256.6 440.9C310.4 440.9 345.3 433.2 365.1 426.8C392.4 417.9 399.3 408.7 399.6 406.9V348.2C399.6 343.8 403.2 340.2 407.6 340.2C412 340.2 415.6 343.8 415.6 348.2V407C415.6 424.2 388.2 436 371.8 441.5C350.6 448.5 313.5 456.9 256.4 456.9ZM113.5 306.3C113.8 308.1 121 317.3 148.7 326.2C168.6 332.6 203.4 340.2 256.5 340.2C309.5 340.2 344.4 332.6 364.3 326.2C391.8 317.3 399.1 308.2 399.5 306.3V227.3C390.4 233.1 379.3 237.5 371 240.2C349.9 247.2 312.9 255.6 256.6 255.6C200.3 255.6 163.3 247.2 142.2 240.2C133.9 237.4 122.7 233.1 113.7 227.3V306.3H113.5ZM113.5 105C113.9 106.9 121 116 148 124.8C167.8 131.2 202.7 138.9 256.5 138.9C310.3 138.9 345.2 131.2 365 124.8C392 116 399.1 106.9 399.5 105C399.1 103.1 392 94 365 85.2C345.2 78.8 310.3 71.1 256.5 71.1C202.7 71.1 167.8 78.7 148 85.2C121 94 113.9 103.1 113.5 105Z" fill="black"/>
<path opacity="0.25" d="M463.9 252.6C463.9 257 460.3 260.6 455.9 260.6H412.9C408.5 260.6 404.9 257 404.9 252.6C404.9 248.2 408.5 244.6 412.9 244.6H455.9C460.3 244.6 463.9 248.2 463.9 252.6ZM434.4 274.6H360.6C356.2 274.6 352.6 278.2 352.6 282.6C352.6 287 356.2 290.6 360.6 290.6H434.4C438.8 290.6 442.4 287 442.4 282.6C442.4 278.2 438.8 274.6 434.4 274.6ZM483.5 53.0002H467.7V37.2002C467.7 32.8002 464.1 29.2002 459.7 29.2002C455.3 29.2002 451.7 32.8002 451.7 37.2002V53.0002H436C431.6 53.0002 428 56.6002 428 61.0002C428 65.4002 431.6 69.0002 436 69.0002H451.8V84.8002C451.8 89.2002 455.4 92.8002 459.8 92.8002C464.2 92.8002 467.8 89.2002 467.8 84.8002V69.0002H483.6C488 69.0002 491.6 65.4002 491.6 61.0002C491.6 56.6002 487.9 53.0002 483.5 53.0002ZM54.8 64.0002H50.9V60.1002C50.9 55.7002 47.3 52.1002 42.9 52.1002C38.5 52.1002 34.9 55.7002 34.9 60.1002V64.0002H31C26.6 64.0002 23 67.6002 23 72.0002C23 76.4002 26.6 80.0002 31 80.0002H34.9V83.9002C34.9 88.3002 38.5 91.9002 42.9 91.9002C47.3 91.9002 50.9 88.3002 50.9 83.9002V80.0002H54.8C59.2 80.0002 62.8 76.4002 62.8 72.0002C62.8 67.6002 59.2 64.0002 54.8 64.0002ZM50.2 203.2C44.3 203.2 39.4 208 39.4 214C39.4 220 44.2 224.8 50.2 224.8C56.2 224.8 61 220 61 214C61 208 56.1 203.2 50.2 203.2ZM50.2 273.2C44.3 273.2 39.4 278 39.4 284C39.4 290 44.2 294.8 50.2 294.8C56.2 294.8 61 290 61 284C61 278 56.1 273.2 50.2 273.2ZM50.2 334.2C44.3 334.2 39.4 339 39.4 345C39.4 351 44.2 355.8 50.2 355.8C56.2 355.8 61 351 61 345C61 339 56.1 334.2 50.2 334.2Z" fill="black"/>
<path opacity="0.25" d="M458.4 429.2V394.5H493V429.2H458.4ZM493 481.4V446.7H458.3V481.4H493ZM439.7 481.4V446.7H405V481.4H439.7Z" fill="black"/>
</svg>
