<svg width="512" height="512" viewBox="0 0 512 512" fill="none" xmlns="http://www.w3.org/2000/svg">
<path opacity="0.25" d="M145.7 388.4L366.3 123.7C375.3 113 391.2 111.5 402 120.5L148.9 424C138.2 415.1 136.7 399.1 145.7 388.4ZM383.1 281.6H383C373.9 281.6 367.9 291.4 372.1 299.5C382.2 318.9 419.6 304.8 419.6 354.3C419.6 398.4 369.9 389.7 357.1 408.5C353 414.5 356.2 422.7 363.2 424.7C369.4 426.5 375.9 427.4 382.7 427.5C423 427.8 456.2 395 456.3 354.6C456.2 314.3 423.5 281.6 383.1 281.6ZM129.2 81.7998H129.1C120 81.7998 114 91.5998 118.2 99.6998C128.3 119.1 165.7 105 165.7 154.5C165.7 198.6 116 189.9 103.2 208.7C99.0999 214.7 102.3 222.9 109.3 224.9C115.5 226.7 122 227.6 128.8 227.7C169.1 228 202.3 195.2 202.4 154.8C202.3 114.5 169.6 81.7998 129.2 81.7998Z" fill="black"/>
<path d="M129.5 238.7C83.2001 238.7 45.6001 201.1 45.6001 154.8C45.6001 108.5 83.2001 70.8999 129.5 70.8999C175.8 70.8999 213.4 108.5 213.4 154.8C213.4 201.1 175.7 238.7 129.5 238.7ZM129.5 86.8999C92.1001 86.8999 61.6001 117.4 61.6001 154.8C61.6001 192.2 92.1001 222.7 129.5 222.7C166.9 222.7 197.4 192.2 197.4 154.8C197.4 117.3 166.9 86.8999 129.5 86.8999ZM129.5 188.1C111.1 188.1 96.2001 173.2 96.2001 154.8C96.2001 136.4 111.1 121.5 129.5 121.5C147.9 121.5 162.8 136.4 162.8 154.8C162.8 173.2 147.8 188.1 129.5 188.1ZM129.5 137.5C120 137.5 112.2 145.3 112.2 154.8C112.2 164.3 120 172.1 129.5 172.1C139 172.1 146.8 164.3 146.8 154.8C146.8 145.2 139 137.5 129.5 137.5ZM382.5 441.1C336.2 441.1 298.6 403.5 298.6 357.2C298.6 310.9 336.2 273.3 382.5 273.3C386.9 273.3 390.5 276.9 390.5 281.3C390.5 285.7 386.9 289.3 382.5 289.3C345.1 289.3 314.6 319.8 314.6 357.2C314.6 394.6 345.1 425.1 382.5 425.1C419.9 425.1 450.4 394.6 450.4 357.2C450.4 352.8 454 349.2 458.4 349.2C462.8 349.2 466.4 352.8 466.4 357.2C466.4 403.5 428.8 441.1 382.5 441.1ZM382.5 390.5C364.1 390.5 349.2 375.6 349.2 357.2C349.2 338.8 364.1 323.9 382.5 323.9C386.9 323.9 390.5 327.5 390.5 331.9C390.5 336.3 386.9 339.9 382.5 339.9C373 339.9 365.2 347.7 365.2 357.2C365.2 366.7 373 374.5 382.5 374.5C392 374.5 399.8 366.7 399.8 357.2C399.8 352.8 403.4 349.2 407.8 349.2C412.2 349.2 415.8 352.8 415.8 357.2C415.8 375.6 400.9 390.5 382.5 390.5ZM155.1 429.2L408.2 125.6C409.6 124 410.2 121.8 410 119.7C409.8 117.6 408.7 115.6 407 114.3L387.2 98.3999C383.8 95.5999 378.7 96.1999 376 99.5999C373.2 103 373.8 108.1 377.2 110.8L390.6 121.6L147.9 412.8L121.3 390.6L369.2 93.0999C372 89.6999 371.6 84.6999 368.2 81.7999C364.8 78.9999 359.8 79.3999 356.9 82.7999L103.9 386.4C102.5 388 101.9 390.1 102.1 392.2C102.3 394.3 103.3 396.3 104.9 397.6L143.8 430C145.3 431.2 147.1 431.9 148.9 431.9C151.2 432 153.5 431.1 155.1 429.2Z" fill="black"/>
<path d="M437.8 220.6C433.6 216.4 433.6 209.6 437.8 205.4C442 201.2 448.8 201.2 453 205.4C457.2 209.6 457.2 216.4 453 220.6C448.8 224.8 442 224.8 437.8 220.6ZM72.9001 337.4H69.0001V333.5C69.0001 329.1 65.4001 325.5 61.0001 325.5C56.6001 325.5 53.0001 329.1 53.0001 333.5V337.4H49.1001C44.7001 337.4 41.1001 341 41.1001 345.4C41.1001 349.8 44.7001 353.4 49.1001 353.4H53.0001V357.3C53.0001 361.7 56.6001 365.3 61.0001 365.3C65.4001 365.3 69.0001 361.7 69.0001 357.3V353.4H72.9001C77.3001 353.4 80.9001 349.8 80.9001 345.4C80.9001 341 77.4001 337.4 72.9001 337.4ZM444.8 68.6998H448.7V72.5998C448.7 76.9998 452.3 80.5998 456.7 80.5998C461.1 80.5998 464.7 76.9998 464.7 72.5998V68.6998H468.6C473 68.6998 476.6 65.0998 476.6 60.6998C476.6 56.2998 473 52.6998 468.6 52.6998H464.7V48.7998C464.7 44.3998 461.1 40.7998 456.7 40.7998C452.3 40.7998 448.7 44.3998 448.7 48.7998V52.6998H444.8C440.4 52.6998 436.8 56.2998 436.8 60.6998C436.8 65.0998 440.3 68.6998 444.8 68.6998ZM384.8 289.6H436.3C440.7 289.6 444.3 286 444.3 281.6C444.3 277.2 440.7 273.6 436.3 273.6H384.8C380.4 273.6 376.8 277.2 376.8 281.6C376.8 286 380.4 289.6 384.8 289.6ZM470.8 323.9H380.6C376.2 323.9 372.6 327.5 372.6 331.9C372.6 336.3 376.2 339.9 380.6 339.9H470.8C475.2 339.9 478.8 336.3 478.8 331.9C478.8 327.5 475.2 323.9 470.8 323.9ZM252.5 447.2C248.3 451.4 248.3 458.2 252.5 462.4C256.7 466.6 263.5 466.6 267.7 462.4C271.9 458.2 271.9 451.4 267.7 447.2C263.5 443 256.7 443 252.5 447.2Z" fill="black"/>
</svg>
