<svg width="512" height="512" viewBox="0 0 512 512" fill="none" xmlns="http://www.w3.org/2000/svg">
<path opacity="0.25" d="M290.8 127.5V90.2999C290.8 83.1999 296.6 77.3999 303.7 77.3999H320.2V115.8C354.3 131.3 375.3 161.1 375.3 194.6V201.6H333.7V194.6C333.7 178.6 323.6 164.7 307.8 156C297.4 150.3 290.8 139.4 290.8 127.5ZM358.4 268.4C348.3 260.4 335.8 253.5 319 246.9C305.5 241.5 290.7 251.5 290.7 266C290.7 275.1 296.6 283 305.3 285.7C326.1 292.3 347.4 305.3 347.4 333.5C347.4 357.8 326.8 372.2 312.4 379.4C303.9 383.6 298.5 392.2 298.5 401.6V433.2C298.5 442.2 305.8 449.6 314.9 449.6H320.1V417.2C370.8 402.2 389 363.2 389 333.5C389.1 306 379 284.7 358.4 268.4Z" fill="black"/>
<path d="M397.1 333.5C397.1 364.3 378.9 405.6 328.2 423.1V449.7C328.2 454.1 324.6 457.7 320.2 457.7H298.6C294.2 457.7 290.6 454.1 290.6 449.7C290.6 445.3 294.2 441.7 298.6 441.7H312.2V417.3C312.2 413.8 314.5 410.6 317.9 409.6C364.5 395.8 381.1 360 381.1 333.6C381.1 308.7 372.1 289.4 353.5 274.8C337.3 262 313.9 251.9 275.3 241C244.4 232.3 223.9 222.4 212.6 210.8C201.9 199.8 201.9 189.6 201.9 184.2C201.9 156.5 228 138.6 268.3 138.6C309 138.6 341 162.7 341.7 193.7H367.3C366.9 163.7 348.1 137.4 316.9 123.2C314 121.9 312.2 119.1 312.2 115.9V85.3999H286.6V105.4C286.6 107.6 285.7 109.8 284 111.3C282.4 112.8 280.2 113.6 278 113.4C273.9 113.1 259.6 113 255.2 113.1C250.7 113.2 247.1 109.7 247 105.3C246.9 100.9 250.4 97.1999 254.8 97.0999C257.8 96.9999 264.6 97.0999 270.5 97.1999V77.3999C270.5 72.9999 274.1 69.3999 278.5 69.3999H320.1C324.5 69.3999 328.1 72.9999 328.1 77.3999V110.8C362.2 128.2 383.2 159.9 383.2 194.6V201.6C383.2 206 379.6 209.6 375.2 209.6H333.6C329.2 209.6 325.6 206 325.6 201.6V194.6C325.6 172.1 300.4 154.5 268.2 154.5C237.6 154.5 217.8 166.1 217.8 184.1C217.8 188.4 217.8 193.2 224 199.6C233.1 209 251.8 217.7 279.5 225.5C320.2 237 345.3 247.9 363.3 262.2C386.1 280 397.1 303.4 397.1 333.5ZM296.6 423.1C296.5 418.7 293 415.2 288.6 415.2H288.5C283.8 415.3 269.6 415.1 265.6 414.9C263.4 414.7 261.2 415.5 259.6 417C258 418.5 257.1 420.6 257.1 422.8V441.6H231.5V414C231.5 410.6 229.4 407.6 226.3 406.5C208.4 399.9 193 390 181.8 377.7C169.5 364.3 162.9 349 162.7 333.4H188.3C189.2 363.5 229.8 389.7 276 389.7C331 389.7 355.6 361.5 355.6 333.6V332.3C355.6 321.1 355.6 309.5 344.7 298.5C334.4 288.1 314.7 279.1 281 269.2C276.8 268 272.3 270.4 271.1 274.6C269.9 278.8 272.3 283.3 276.5 284.5C307.1 293.4 325.1 301.4 333.3 309.7C339.3 315.8 339.6 321.3 339.6 332.2V333.5C339.6 353.5 319.9 373.6 276 373.6C235.6 373.6 204.3 351.4 204.3 332.3V325.3C204.3 320.9 200.7 317.3 196.3 317.3H154.7C150.3 317.3 146.7 320.9 146.7 325.3V332.3C146.7 352.4 154.8 371.8 170 388.5C181.8 401.4 197.5 412 215.5 419.4V449.5C215.5 453.9 219.1 457.5 223.5 457.5H265.1C269.5 457.5 273.1 453.9 273.1 449.5V431C279.1 431.1 286 431.1 288.8 431.1C293.1 431.1 296.7 427.5 296.6 423.1ZM196.8 251.5C201.8 255.1 207.5 258.6 213.7 261.9C214.9 262.5 216.2 262.8 217.4 262.8C220.3 262.8 223.1 261.2 224.5 258.5C226.5 254.6 225 249.7 221.1 247.7C215.6 244.8 210.5 241.7 206.1 238.6C186.4 224.3 176.3 206 176.3 184.1C176.3 154.6 194.5 131.1 226.1 119.8C229.3 118.7 231.4 115.6 231.4 112.3V85.3999H245C249.4 85.3999 253 81.7999 253 77.3999C253 72.9999 249.4 69.3999 245 69.3999H223.4C219 69.3999 215.4 72.9999 215.4 77.3999V106.8C180.8 121.1 160.3 149.7 160.3 184.1C160.4 211.4 172.6 234.1 196.8 251.5Z" fill="black"/>
<g opacity="0.25">
<path d="M33.3 125V28.8999H69.3001V125H33.3Z" fill="black"/>
<path d="M88 125V28.8999H124V125H88Z" fill="black"/>
</g>
<path opacity="0.25" d="M160 444.5C160 448.9 156.4 452.5 152 452.5H96C91.6 452.5 88 448.9 88 444.5C88 440.1 91.6 436.5 96 436.5H152C156.4 436.5 160 440.1 160 444.5ZM101.8 419.3C101.8 414.9 98.2 411.3 93.8 411.3H58.7999C54.3999 411.3 50.7999 414.9 50.7999 419.3C50.7999 423.7 54.3999 427.3 58.7999 427.3H93.8C98.2 427.3 101.8 423.7 101.8 419.3ZM474 452.2C468.1 452.2 463.2 457 463.2 463C463.2 469 468 473.8 474 473.8C479.9 473.8 484.8 469 484.8 463C484.8 457 479.9 452.2 474 452.2ZM440.1 276.8C440.1 272.4 436.5 268.8 432.1 268.8H370.9C366.5 268.8 362.9 272.4 362.9 276.8C362.9 281.2 366.5 284.8 370.9 284.8H432.1C436.5 284.8 440.1 281.2 440.1 276.8ZM279.6 268.8H229C224.6 268.8 221 272.4 221 276.8C221 281.2 224.6 284.8 229 284.8H279.6C284 284.8 287.6 281.2 287.6 276.8C287.6 272.4 284 268.8 279.6 268.8ZM143.8 262.8H235.7C240.1 262.8 243.7 259.2 243.7 254.8C243.7 250.4 240.1 246.8 235.7 246.8H143.8C139.4 246.8 135.8 250.4 135.8 254.8C135.8 259.2 139.4 262.8 143.8 262.8ZM432.9 370.3C429.8 373.4 429.8 378.5 432.9 381.6C437 385.7 437 392.2 432.9 396.3C428.8 400.4 422.3 400.4 418.2 396.3C415.1 393.2 410 393.2 406.9 396.3C403.8 399.4 403.8 404.5 406.9 407.6C412 412.7 418.8 415.3 425.6 415.3C432.4 415.3 439.1 412.7 444.3 407.6C454.6 397.3 454.6 380.6 444.3 370.3C441.1 367.1 436 367.1 432.9 370.3ZM382.1 97.4001C402.4 97.4001 418.9 80.9001 418.9 60.6001C418.9 56.2001 415.3 52.6001 410.9 52.6001C406.5 52.6001 402.9 56.2001 402.9 60.6001C402.9 72.0001 393.6 81.4001 382.1 81.4001C377.7 81.4001 374.1 85.0001 374.1 89.4001C374.1 93.8001 377.7 97.4001 382.1 97.4001ZM460.8 97.4001C465.2 97.4001 468.8 93.8001 468.8 89.4001C468.8 85.0001 465.2 81.4001 460.8 81.4001C449.4 81.4001 440 72.1001 440 60.6001C440 56.2001 436.4 52.6001 432 52.6001C427.6 52.6001 424 56.2001 424 60.6001C424.1 80.9001 440.6 97.4001 460.8 97.4001ZM468.8 110.7C468.8 106.3 465.2 102.7 460.8 102.7C440.5 102.7 424 119.2 424 139.5C424 143.9 427.6 147.5 432 147.5C436.4 147.5 440 143.9 440 139.5C440 128.1 449.3 118.8 460.8 118.8C465.2 118.7 468.8 115.1 468.8 110.7ZM382.1 118.7C393.5 118.7 402.9 128 402.9 139.5C402.9 143.9 406.5 147.5 410.9 147.5C415.3 147.5 418.9 143.9 418.9 139.5C418.9 119.2 402.4 102.8 382.1 102.8C377.7 102.8 374.1 106.4 374.1 110.8C374.1 115.2 377.7 118.7 382.1 118.7ZM64 240.9C64 245.3 67.6 248.9 72 248.9C76.4 248.9 80 245.3 80 240.9V225.1H95.8C100.2 225.1 103.8 221.5 103.8 217.1C103.8 212.7 100.2 209.1 95.8 209.1H80V193.3C80 188.9 76.4 185.3 72 185.3C67.6 185.3 64 188.9 64 193.3V209.1H48.2C43.8 209.1 40.2 212.7 40.2 217.1C40.2 221.5 43.8 225.1 48.2 225.1H64V240.9ZM95.9 299.2V303.1H92C87.6 303.1 84 306.7 84 311.1C84 315.5 87.6 319.1 92 319.1H95.9V323C95.9 327.4 99.5 331 103.9 331C108.3 331 111.9 327.4 111.9 323V319H115.8C120.2 319 123.8 315.4 123.8 311C123.8 306.6 120.2 303 115.8 303H111.9V299.1C111.9 294.7 108.3 291.1 103.9 291.1C99.5 291.1 95.9 294.7 95.9 299.2Z" fill="black"/>
</svg>
