<svg width="512" height="512" viewBox="0 0 512 512" fill="none" xmlns="http://www.w3.org/2000/svg">
<path opacity="0.25" d="M447.7 174.7V289.9H427L399.7 307C399.7 307 415.5 324.2 402.6 337.6C402.6 337.6 391.6 356.6 372 340.5C372 340.5 371.2 359.5 365.1 363.9C359 368.3 348.8 371.3 330.7 361.4C330.7 361.4 339 381.8 326.3 389.7C313.7 397.6 296.4 384.9 296.4 384.9C296.4 384.9 305.7 398 297 407.8C288.4 417.6 261.4 403.1 251.5 389.7C241.7 376.2 235 381.3 235 381.3C235 381.3 205.1 400.7 197.7 384.8C190.3 368.9 193.7 388.5 219 368.6C244.3 348.7 298.4 306.1 298.4 306.1C320 285.6 317.5 254.8 301.5 229.6C286 205.3 262.5 188.9 278.8 174.9C279.5 174.3 280.3 173.6 281.1 173C281.8 173.6 282.5 174.1 283.2 174.7C328.7 210.2 345.1 199.2 344.2 182.2C343.7 173.3 329.1 160.5 322.4 149.4C327.4 147.1 330.7 145.7 330.7 145.7L381.9 174.6H447.7V174.7Z" fill="black"/>
<path d="M447.7 166.7H384L334.6 138.8C332 137.3 328.9 137.5 326.5 138.9L325.5 137.7L325.4 137.6C323.3 135 321 132.1 318.7 129.1L316.6 126.3C316.4 126.1 316.2 125.8 316 125.6C315.9 125.5 315.8 125.4 315.7 125.3C315.6 125.2 315.5 125 315.4 124.9C308.5 116.1 293 115.4 268.4 115.4H230C205.2 115.4 157.5 161.7 152.4 166.6H89C84.6 166.6 81 170.2 81 174.6V289.8C81 294.2 84.6 297.8 89 297.8H100C104.4 297.8 108 294.2 108 289.8C108 285.4 104.4 281.8 100 281.8H97V182.6H155.8C158 182.6 160.1 181.7 161.6 180.1L163.3 178.3C185.5 156.1 218.3 131.4 229.9 131.4H268.3C277.6 131.4 299.4 131.4 302.7 134.7C302.9 134.9 303 135.1 303.2 135.3L303.3 135.4C303.6 135.8 303.9 136.2 304.2 136.5L306.1 138.9C308.5 142 310.8 144.9 313 147.6L320 156.6C330 169.1 336.1 177.3 337.9 182.4C338.7 184.7 339.2 185.9 335.2 190C334.6 190.3 333.1 190.6 330.7 190.7C319.2 190.4 301.4 181.5 291.7 171.2L287.7 167C284.9 164 280.2 163.6 277 166.2L118.1 289.8C117.2 290.5 115.8 291.6 114.2 293.2C112.6 294.8 111.8 296.9 111.9 298.9C111.5 299.7 111.2 300.6 111.2 301.6C111.2 301.9 111.1 302.2 111.1 302.5C110.5 307.8 108.7 321.9 124.8 335.8C129.1 339.5 134.4 341.3 140.2 341.3C140.7 341.3 141.3 341.3 141.8 341.2C143.5 350.8 148 364.1 159.3 369.2C163.7 371.2 168.6 372.2 173.6 372.2C175.7 372.2 177.7 372 179.8 371.7C180.1 371.7 181.1 371.5 182.5 371.2C184.4 380.5 189.4 392.1 200.3 395.7C204.6 397.1 209.2 397.8 214 397.8C216 397.8 218 397.7 220 397.4C225 396.8 228.6 395.7 230.8 394.3C234.1 392 238.1 389 242.7 385.6C243.7 390.3 246.2 394.7 249.8 398C249.9 398.1 249.9 398.1 250 398.2L268.5 414.2C272.9 418.5 278.5 420.7 285.5 421C285.6 421 285.7 421 285.8 421C285.9 421 286 421 286.1 421C292.6 420.8 298.6 418 302.9 413.3C306.8 409.2 309 404.1 309.5 398.6C312.2 399.7 315.2 400.2 318.3 400.2C318.6 400.2 318.9 400.2 319.3 400.2C319.4 400.2 319.5 400.2 319.6 400.2C325.7 399.8 331.4 397.1 335.5 392.5C339.6 388 341.8 382 341.5 375.7C341.5 375.6 341.5 375.5 341.5 375.4C341.5 375 341.4 374.5 341.3 374.1C345 376.3 349 377.4 353.2 377.4C354 377.4 354.7 377.4 355.5 377.3C361.6 376.8 367.4 373.8 371.4 369C375.3 364.3 377.2 358.3 376.8 352C379.7 353 382.7 353.5 385.8 353.5C386.8 353.5 387.8 353.5 388.7 353.4C396.6 352.6 403.7 348.8 408.8 342.8C413.9 336.8 416.3 329.1 415.6 321.2C415.2 316.6 413.7 312.3 411.4 308.4L429.2 298H447.8C452.2 298 455.8 294.4 455.8 290V174.7C455.7 170.3 452.1 166.7 447.7 166.7ZM291.2 402.3L291.1 402.4C289.8 403.9 287.9 404.7 285.8 404.9C282.2 404.7 280.7 403.6 279.7 402.6C279.6 402.5 279.4 402.3 279.3 402.2L260.7 386.2C259.1 384.7 258.3 382.7 258.2 380.5C258.1 378.3 258.9 376.3 260.4 374.8L260.5 374.7C262.5 372.5 265 372.2 266.4 372.2C268.6 372.2 270.5 372.9 272 374.3C272.1 374.4 272.2 374.5 272.3 374.5L291.1 390.8C292.6 392.3 293.5 394.3 293.6 396.4C293.5 398.6 292.7 400.7 291.2 402.3ZM323.4 381.7C323.4 381.7 323.4 381.8 323.4 381.7C322.1 383.2 320.4 384 318.4 384.2C316.2 384.2 314.5 383.7 313 382.3L312.9 382.2L284.1 356.9C281 354.2 280.8 349.6 283.5 346.5C284.8 345 286.8 344.1 288.9 344.1C290.7 344.1 292.5 344.8 293.8 346L322.7 371.2C323.8 372.2 325 374 325.2 376.3C325.3 377.9 325 380 323.4 381.7ZM358.9 358.8C357.7 360.3 356 361.2 354.2 361.3C354.1 361.3 354 361.3 353.9 361.3C351.9 361.5 350.2 361 348.5 359.8L315.4 331.1C315.3 331 315.3 331 315.2 330.9C313.7 329.7 312.8 328 312.7 326.2C312.7 326.1 312.7 326 312.7 326C312.5 324.1 313.1 322.2 314.3 320.7C315.5 319.2 317.2 318.3 319.3 318C319.7 318 320.1 317.9 320.4 317.9C321.6 317.9 322.8 318.3 323.8 319C325 320.3 326.3 321.4 327.5 322.5L327.7 322.6C327.8 322.7 327.8 322.7 327.9 322.8L357.9 348.2L358 348.3C359.5 349.5 360.4 351.2 360.6 353.2C360.8 355.4 360.2 357.2 358.9 358.8ZM396.5 332.4C394.1 335.3 390.8 337 387 337.4C383.4 337.8 380 336.7 377.1 334.3L357.6 318.3L341.5 304.4C341.3 304.2 341.1 303.9 340.9 303.7C337.6 298.7 337.9 292 341.8 287.3C344.1 284.5 347.4 282.7 351.1 282.4C354.7 282 358.3 283.2 361.1 285.5L394.6 313.2C397.5 315.6 399.2 318.9 399.5 322.6C399.9 326.2 398.8 329.7 396.5 332.4ZM439.7 281.9H427C425.6 281.9 424.2 282.3 423 283L399.8 296.6L371.4 273.2C365.3 268.1 357.6 265.7 349.7 266.5C341.8 267.2 334.7 271 329.6 277.1C323.7 284.2 321.6 293.5 323.4 302.1C322.4 302 321.3 301.9 320.3 301.9C319.5 301.9 318.8 302 318.4 302.1C318.3 302.1 318.2 302.1 318.1 302.1C311.8 302.8 306.2 305.7 302.2 310.5C298.3 315.3 296.4 321.3 297 327.5C297.1 328.2 297.1 328.9 297.3 329.6C294.7 328.6 291.9 328.1 289.2 328.1C282.4 328.1 276.1 331 271.7 335.9C266.6 341.6 264.9 349.2 266.3 356.1C259.7 356.1 253.4 358.8 249 363.5C247 363.2 244.9 363.8 243.1 365.1C234.7 371.6 227.8 376.7 222.6 380.5C220.5 381.1 213.2 382.9 205.5 380.3C200.3 378.6 197.9 367.2 197.8 362.9C220.9 345.9 256.4 317 257.2 316.2C260.4 313.1 260.5 308.1 257.4 304.9C254.4 301.8 249.6 301.6 246.4 304.4C243.9 306.5 203 339.7 182.1 354.5C180.4 355.2 173 357.6 166.1 354.5C161.1 352.2 158.2 342.4 157.3 336.3C157.6 336.1 157.9 336 158.2 335.8C178.8 321.2 223.3 285.3 224.8 283.8C227.9 280.7 227.9 275.6 224.8 272.5C221.8 269.5 217 269.4 213.9 272.2C211.6 274.1 170.4 307.5 149.4 322.5C147 323.8 139.7 327.2 135.4 323.5C125.8 315.2 126.6 308.4 127.1 304.3C127.2 303.8 127.2 303.4 127.2 303C127.3 302.9 127.4 302.8 127.4 302.8C127.5 302.7 127.7 302.6 127.8 302.5L281 183.3C293.9 196.3 315.4 206.5 330.6 206.8C330.8 206.8 330.9 206.8 331.1 206.8C334.5 206.7 341.6 206.4 346.4 201.5C358.7 189 355.5 177.9 345.2 163.3L377.9 181.7C379.1 182.4 380.5 182.7 381.8 182.7H439.6V281.9H439.7Z" fill="black"/>
<path opacity="0.25" d="M482.5 83.7002C482.5 88.1002 478.9 91.7002 474.5 91.7002C463.1 91.7002 453.7 101 453.7 112.5C453.7 116.9 450.1 120.5 445.7 120.5C441.3 120.5 437.7 116.9 437.7 112.5C437.7 92.2002 454.2 75.7002 474.5 75.7002C478.9 75.7002 482.5 79.3002 482.5 83.7002ZM395.7 91.7002C407.1 91.7002 416.5 101 416.5 112.5C416.5 116.9 420.1 120.5 424.5 120.5C428.9 120.5 432.5 116.9 432.5 112.5C432.5 92.2002 416 75.7002 395.7 75.7002C391.3 75.7002 387.7 79.3002 387.7 83.7002C387.7 88.1002 391.3 91.7002 395.7 91.7002ZM395.7 70.5002C416 70.5002 432.5 54.0002 432.5 33.7002C432.5 29.3002 428.9 25.7002 424.5 25.7002C420.1 25.7002 416.5 29.3002 416.5 33.7002C416.5 45.1002 407.2 54.5002 395.7 54.5002C391.3 54.5002 387.7 58.1002 387.7 62.5002C387.7 66.9002 391.3 70.5002 395.7 70.5002ZM474.5 70.5002C478.9 70.5002 482.5 66.9002 482.5 62.5002C482.5 58.1002 478.9 54.5002 474.5 54.5002C463.1 54.5002 453.7 45.2002 453.7 33.7002C453.7 29.3002 450.1 25.7002 445.7 25.7002C441.3 25.7002 437.7 29.3002 437.7 33.7002C437.7 54.0002 454.2 70.5002 474.5 70.5002ZM150 97.4002H146.1V93.5002C146.1 89.1002 142.5 85.5002 138.1 85.5002C133.7 85.5002 130.1 89.1002 130.1 93.5002V97.4002H126.2C121.8 97.4002 118.2 101 118.2 105.4C118.2 109.8 121.8 113.4 126.2 113.4H130.1V117.3C130.1 121.7 133.7 125.3 138.1 125.3C142.5 125.3 146.1 121.7 146.1 117.3V113.4H150C154.4 113.4 158 109.8 158 105.4C158 101 154.4 97.4002 150 97.4002ZM447.7 381.4C443.3 381.4 439.7 385 439.7 389.4V393.3H435.8C431.4 393.3 427.8 396.9 427.8 401.3C427.8 405.7 431.4 409.3 435.8 409.3H439.7V413.2C439.7 417.6 443.3 421.2 447.7 421.2C452.1 421.2 455.7 417.6 455.7 413.2V409.3H459.6C464 409.3 467.6 405.7 467.6 401.3C467.6 396.9 464 393.3 459.6 393.3H455.7V389.4C455.7 385 452.1 381.4 447.7 381.4ZM162.6 36.7002H37.1C32.7 36.7002 29.1 40.3002 29.1 44.7002C29.1 49.1002 32.7 52.7002 37.1 52.7002H162.6C167 52.7002 170.6 49.1002 170.6 44.7002C170.6 40.3002 167 36.7002 162.6 36.7002ZM470.7 474.3H345.2C340.8 474.3 337.2 477.9 337.2 482.3C337.2 486.7 340.8 490.3 345.2 490.3H470.7C475.1 490.3 478.7 486.7 478.7 482.3C478.7 477.9 475.1 474.3 470.7 474.3ZM313 459.2H253.8C249.4 459.2 245.8 462.8 245.8 467.2C245.8 471.6 249.4 475.2 253.8 475.2H313C317.4 475.2 321 471.6 321 467.2C321 462.8 317.4 459.2 313 459.2ZM79.7 352.2C75.3 352.2 71.7 355.8 71.7 360.2C71.7 365.9 67 370.6 61.3 370.6C55.6 370.6 50.9 365.9 50.9 360.2C50.9 355.8 47.3 352.2 42.9 352.2C38.5 352.2 34.9 355.8 34.9 360.2C34.9 374.8 46.7 386.6 61.3 386.6C75.9 386.6 87.7 374.8 87.7 360.2C87.7 355.8 84.1 352.2 79.7 352.2Z" fill="black"/>
<path opacity="0.25" d="M116.4 502.7H13.8V411.3L116.4 502.7Z" fill="black"/>
</svg>
