<svg width="512" height="512" viewBox="0 0 512 512" fill="none" xmlns="http://www.w3.org/2000/svg">
<path opacity="0.25" d="M449.7 308.4V381.5H418.1V396.2H354.9V392C354.9 385.6 361.7 380.4 370.2 380.4C379.2 380.4 386.5 374.9 386.5 368.1V285.9C386.5 276.2 396.9 268.3 409.7 268.3H416.3C417.3 268.3 418.1 268.9 418.1 269.6V324.7C418.1 315 428.5 307.1 441.3 307.1H447.9C448.9 307.1 449.7 307.7 449.7 308.4ZM163.5 268.2H156.9C144.1 268.2 143.7 276.1 143.7 285.8V368C143.7 374.8 136.4 380.3 127.4 380.3C126.6 380.3 115.8 380.3 115 380.4C107.7 381.3 102.1 386.1 102.1 391.8V396H165.3V269.5C165.3 268.8 164.5 268.2 163.5 268.2Z" fill="black"/>
<path d="M418.7 402.8H355.4C351 402.8 347.4 399.2 347.4 394.8V268.2C347.4 263.8 351 260.2 355.4 260.2H385.5C385.7 260.2 385.8 260.2 386 260.2C386.2 260.2 386.3 260.2 386.5 260.2C390.9 260.2 394.5 263.8 394.5 268.2V368.6C394.5 373 390.9 376.6 386.5 376.6C382.1 376.6 378.5 373 378.5 368.6V276.2H363.4V386.8H410.7V276.2H402.9C398.5 276.2 394.9 272.6 394.9 268.2V252.4C394.9 178.3 334.6 117.9 260.4 117.9C186.2 117.9 125.9 178.2 125.9 252.4V268.2C125.9 272.6 122.3 276.2 117.9 276.2H110.1V386.8H157.4V276.2H151.8V368.6C151.8 373 148.2 376.6 143.8 376.6C139.4 376.6 135.8 373 135.8 368.6V268.2C135.8 263.8 139.4 260.2 143.8 260.2C143.9 260.2 144 260.2 144.1 260.2H165.4C169.8 260.2 173.4 263.8 173.4 268.2V394.8C173.4 399.2 169.8 402.8 165.4 402.8H102.1C97.7 402.8 94.1 399.2 94.1 394.8V387H70.4C66 387 62.4 383.4 62.4 379V284C62.4 279.6 66 276 70.4 276H82.1C86.5 276 90.1 279.6 90.1 284C90.1 288.4 86.5 292 82.1 292H78.4V371H94.1V268.2C94.1 263.8 97.7 260.2 102.1 260.2H109.9V252.4C109.9 169.4 177.4 101.9 260.4 101.9C343.4 101.9 410.9 169.4 410.9 252.4V260.2H418.7C423.1 260.2 426.7 263.8 426.7 268.2V276H450.4C454.8 276 458.4 279.6 458.4 284V379C458.4 383.4 454.8 387 450.4 387H426.7V394.8C426.7 399.2 423.1 402.8 418.7 402.8ZM426.7 371H442.4V292H426.7V371Z" fill="black"/>
<path opacity="0.25" d="M21.3 188.4C16.9 188.4 13.3 184.8 13.3 180.4C13.3 176 16.9 172.4 21.3 172.4C41.6 172.4 58 188.9 58 209.2C58 213.6 54.4 217.2 50 217.2C45.6 217.2 42 213.6 42 209.2C42.1 197.7 32.8 188.4 21.3 188.4ZM71.3 217.1C75.7 217.1 79.3 213.5 79.3 209.1C79.3 197.7 88.6 188.3 100.1 188.3C104.5 188.3 108.1 184.7 108.1 180.3C108.1 175.9 104.5 172.3 100.1 172.3C79.8 172.3 63.3 188.8 63.3 209.1C63.3 213.5 66.9 217.1 71.3 217.1ZM21.3 167.1C41.6 167.1 58 150.6 58 130.3C58 125.9 54.4 122.3 50 122.3C45.6 122.3 42 125.9 42 130.3C42 141.7 32.7 151.1 21.3 151.1C16.9 151.1 13.3 154.7 13.3 159.1C13.3 163.5 16.9 167.1 21.3 167.1ZM356.8 56.7996H479.6C484 56.7996 487.6 53.1996 487.6 48.7996C487.6 44.3996 484 40.7996 479.6 40.7996H356.8C352.4 40.7996 348.8 44.3996 348.8 48.7996C348.8 53.1996 352.4 56.7996 356.8 56.7996ZM100.1 167.1C104.5 167.1 108.1 163.5 108.1 159.1C108.1 154.7 104.5 151.1 100.1 151.1C88.7 151.1 79.3 141.8 79.3 130.3C79.3 125.9 75.7 122.3 71.3 122.3C66.9 122.3 63.3 125.9 63.3 130.3C63.3 150.6 79.8 167.1 100.1 167.1ZM322.5 28.0996C322.5 23.6996 318.9 20.0996 314.5 20.0996H240.7C236.3 20.0996 232.7 23.6996 232.7 28.0996C232.7 32.4996 236.3 36.0996 240.7 36.0996H314.5C318.9 36.0996 322.5 32.4996 322.5 28.0996ZM418.2 459.2H386.4C382 459.2 378.4 462.8 378.4 467.2C378.4 471.6 382 475.2 386.4 475.2H418.2C422.6 475.2 426.2 471.6 426.2 467.2C426.2 462.8 422.7 459.2 418.2 459.2ZM127.5 431.2H24.2C19.8 431.2 16.2 434.8 16.2 439.2C16.2 443.6 19.8 447.2 24.2 447.2H127.5C131.9 447.2 135.5 443.6 135.5 439.2C135.5 434.8 131.9 431.2 127.5 431.2ZM495.7 137.1H480V121.3C480 116.9 476.4 113.3 472 113.3C467.6 113.3 464 116.9 464 121.3V137.1H448.2C443.8 137.1 440.2 140.7 440.2 145.1C440.2 149.5 443.8 153.1 448.2 153.1H464V168.9C464 173.3 467.6 176.9 472 176.9C476.4 176.9 480 173.3 480 168.9V153.1H495.8C500.2 153.1 503.8 149.5 503.8 145.1C503.8 140.7 500.2 137.1 495.7 137.1ZM357.5 459.2H314.5C310.1 459.2 306.5 462.8 306.5 467.2C306.5 471.6 310.1 475.2 314.5 475.2H357.5C361.9 475.2 365.5 471.6 365.5 467.2C365.5 462.8 361.9 459.2 357.5 459.2ZM224.8 229H167.4C163 229 159.4 232.6 159.4 237C159.4 241.4 163 245 167.4 245H224.8C229.2 245 232.8 241.4 232.8 237C232.8 232.6 229.3 229 224.8 229Z" fill="black"/>
<path opacity="0.25" d="M92 62.6H25.4V19H92V62.6ZM446.9 492.2H497V442.1L446.9 492.2Z" fill="black"/>
</svg>
