<svg width="512" height="512" viewBox="0 0 512 512" fill="none" xmlns="http://www.w3.org/2000/svg">
<path opacity="0.25" d="M471 210C471 238.6 459.6 266.2 439.1 286.8L256.1 469.8C228.5 442.2 228.5 397.3 256.1 369.7L374 251.8C394.6 231.2 405.9 203.6 405.9 175C405.9 169.2 405.6 163.6 404.4 158.4C402.4 144.8 397.8 131.9 391.1 120.5C387.1 113.7 393.9 105.7 401.2 108.5C415.5 114 428.3 122.5 439 133.2C455 149.2 466 170.1 469.4 193.4C470.7 198.6 471 204.1 471 210Z" fill="black"/>
<path d="M50.4 195.2C49.2 200.1 49.1 205.7 49.1 209.9C49.1 236.7 59.6 261.9 78.7 281L140.8 343.1C143.9 346.2 143.9 351.3 140.8 354.4C139.2 356 137.2 356.7 135.1 356.7C133.1 356.7 131 355.9 129.4 354.4L67.3 292.3C45.2 270.3 33 241 33 210C33 205 33.2 198.4 34.7 191.9C38.3 167.5 49.6 145.3 67.3 127.5C89.4 105.4 118.7 93.2002 149.7 93.2002C180.7 93.2002 210 105.4 232.1 127.5L261.6 157C264.7 160.1 264.7 165.2 261.6 168.3C258.5 171.4 253.4 171.4 250.3 168.3L220.8 138.8C201.7 119.7 176.5 109.2 149.7 109.2C122.9 109.2 97.7 119.7 78.6 138.8C63.2 154.2 53.5 173.4 50.5 194.5C50.5 194.8 50.4 195 50.4 195.2ZM477.3 191.9C473.7 167.5 462.4 145.3 444.7 127.5C422.6 105.4 393.3 93.2002 362.3 93.2002C331.3 93.2002 302 105.4 279.9 127.5L269.9 137.5C266.8 140.6 266.8 145.7 269.9 148.8C273 151.9 278.1 151.9 281.2 148.8L291.2 138.8C310.3 119.7 335.5 109.2 362.3 109.2C389.1 109.2 414.3 119.7 433.4 138.8C448.8 154.2 458.5 173.4 461.5 194.5C461.5 194.7 461.6 195 461.6 195.2C462.8 200.2 462.9 205.7 462.9 209.9C462.9 236.7 452.4 261.9 433.3 281L256 458.4L181.4 383.8C178.3 380.7 173.2 380.7 170.1 383.8C167 386.9 167 392 170.1 395.1L250.3 475.3C251.8 476.8 253.8 477.6 256 477.6C258.2 477.6 260.2 476.8 261.7 475.3L444.7 292.3C466.8 270.3 479 241 479 210C479 204.9 478.8 198.3 477.3 191.9Z" fill="black"/>
<path opacity="0.25" d="M345.2 46.6002C345.2 51.0002 341.6 54.6002 337.2 54.6002C310.4 54.6002 285.2 65.1002 266.1 84.2002L256.1 94.2002C254.5 95.8002 252.5 96.5002 250.4 96.5002C248.4 96.5002 246.3 95.7002 244.7 94.2002C241.6 91.1002 241.6 86.0002 244.7 82.9002L254.7 72.9002C276.8 50.8002 306.1 38.6002 337.1 38.6002C341.6 38.6002 345.2 42.2002 345.2 46.6002ZM192.3 379.6H26.7C22.3 379.6 18.7 383.2 18.7 387.6C18.7 392 22.3 395.6 26.7 395.6H192.3C196.7 395.6 200.3 392 200.3 387.6C200.3 383.2 196.8 379.6 192.3 379.6ZM212.7 342.3H97C92.6 342.3 89 345.9 89 350.3C89 354.7 92.6 358.3 97 358.3H212.7C217.1 358.3 220.7 354.7 220.7 350.3C220.7 345.9 217.1 342.3 212.7 342.3ZM487.4 50.5002H400.6C396.2 50.5002 392.6 54.1002 392.6 58.5002C392.6 62.9002 396.2 66.5002 400.6 66.5002H487.4C491.8 66.5002 495.4 62.9002 495.4 58.5002C495.4 54.1002 491.8 50.5002 487.4 50.5002ZM126.3 429.9H68.9C64.5 429.9 60.9 433.5 60.9 437.9C60.9 442.3 64.5 445.9 68.9 445.9H126.3C130.7 445.9 134.3 442.3 134.3 437.9C134.3 433.5 130.7 429.9 126.3 429.9ZM478.8 388.9H463V373.1C463 368.7 459.4 365.1 455 365.1C450.6 365.1 447 368.7 447 373.1V388.9H431.2C426.8 388.9 423.2 392.5 423.2 396.9C423.2 401.3 426.8 404.9 431.2 404.9H447V420.7C447 425.1 450.6 428.7 455 428.7C459.4 428.7 463 425.1 463 420.7V404.9H478.8C483.2 404.9 486.8 401.3 486.8 396.9C486.8 392.5 483.2 388.9 478.8 388.9ZM31.2999 64.9002H47V80.7002C47 85.1002 50.6 88.7002 55 88.7002C59.4 88.7002 63 85.1002 63 80.7002V64.9002H78.8C83.2 64.9002 86.8 61.3002 86.8 56.9002C86.8 52.5002 83.2 48.9002 78.8 48.9002H63V33.2002C63 28.8002 59.4 25.2002 55 25.2002C50.6 25.2002 47 28.8002 47 33.2002V49.0002H31.2999C26.8999 49.0002 23.2999 52.6002 23.2999 57.0002C23.2999 61.4002 26.7999 64.9002 31.2999 64.9002Z" fill="black"/>
<g opacity="0.25">
<path d="M400.6 491.4V469.6H487.3V491.4H400.6Z" fill="black"/>
<path d="M324.6 491.4L381.5 434.5V491.4H324.6Z" fill="black"/>
</g>
</svg>
