<svg width="512" height="512" viewBox="0 0 512 512" fill="none" xmlns="http://www.w3.org/2000/svg">
<g opacity="0.25">
<path d="M211.4 406.4C159.1 390.3 117.7 349.2 101.1 297.1L130.3 289.8C151.5 326.2 182.2 352.9 222 363L211.4 406.4Z" fill="black"/>
<path d="M420 297.1C403.5 349.3 362 390.4 309.5 406.5L297.7 359.3C311.3 353.6 321.6 345.5 328.5 337.5C367.7 292.6 375.3 204.4 296.2 143.4L309.9 87.6996C308.2 87.0996 306.4 86.5996 304.7 86.0996C307.2 86.4996 309.6 86.8996 312.1 87.3996C364.6 104.4 405.8 146.7 421.2 199.9C420.8 198.9 420.6 198.4 420.6 198.4L358.3 214C373.2 228.8 362.6 283 362.6 283L420 297.1Z" fill="black"/>
</g>
<g opacity="0.25">
<path d="M54.5 62.2H19.8V27.5H54.5V62.2ZM109.7 27.5H75V62.2H109.7V27.5Z" fill="black"/>
<path d="M259 475.4V488.3H21.9001V475.4H259Z" fill="black"/>
</g>
<path opacity="0.25" d="M106.8 405.1C106.8 409.5 103.2 413.1 98.8001 413.1H94.9001V417C94.9001 421.4 91.3001 425 86.9001 425C82.5001 425 78.9001 421.4 78.9001 417V413.1H75.0001C70.6001 413.1 67.0001 409.5 67.0001 405.1C67.0001 400.7 70.6001 397.1 75.0001 397.1H78.9001V393.2C78.9001 388.8 82.5001 385.2 86.9001 385.2C91.3001 385.2 94.9001 388.8 94.9001 393.2V397.1H98.8001C103.2 397.1 106.8 400.7 106.8 405.1ZM420.6 65.3004H424.5V69.2004C424.5 73.6004 428.1 77.2004 432.5 77.2004C436.9 77.2004 440.5 73.6004 440.5 69.2004V65.3004H444.4C448.8 65.3004 452.4 61.7004 452.4 57.3004C452.4 52.9004 448.8 49.3004 444.4 49.3004H440.5V45.4004C440.5 41.0004 436.9 37.4004 432.5 37.4004C428.1 37.4004 424.5 41.0004 424.5 45.4004V49.3004H420.6C416.2 49.3004 412.6 52.9004 412.6 57.3004C412.6 61.7004 416.2 65.3004 420.6 65.3004ZM419.7 438.5H478.9C483.3 438.5 486.9 434.9 486.9 430.5C486.9 426.1 483.3 422.5 478.9 422.5H419.7C415.3 422.5 411.7 426.1 411.7 430.5C411.7 434.9 415.3 438.5 419.7 438.5ZM477.4 468.8H350.1C345.7 468.8 342.1 472.4 342.1 476.8C342.1 481.2 345.7 484.8 350.1 484.8H477.4C481.8 484.8 485.4 481.2 485.4 476.8C485.4 472.4 481.8 468.8 477.4 468.8ZM72.3001 275C72.3001 270.6 68.7001 267 64.3001 267H44.6001C40.2001 267 36.6001 270.6 36.6001 275C36.6001 279.4 40.2001 283 44.6001 283H64.3001C68.7001 283 72.3001 279.4 72.3001 275Z" fill="black"/>
<path d="M370.6 103.7C291.6 43.1001 178.1 58.1001 117.6 137.1C57 216.1 72 329.6 151 390.1C183.7 415.2 222.3 427.3 260.6 427.3C314.8 427.3 368.5 403 404 356.7C464.5 277.8 449.5 164.3 370.6 103.7ZM259 341.5C206.5 341.5 163.8 298.8 163.8 246.3C163.8 204.7 190.6 169.3 227.8 156.4C227.8 156.4 227.8 156.4 227.9 156.4C237.7 153 248.2 151.2 259.1 151.2C311.6 151.2 354.3 193.9 354.3 246.4C354.2 298.8 311.5 341.5 259 341.5ZM100.9 208.3L150.8 220.5C148.8 228.8 147.8 237.4 147.8 246.3C147.8 256.2 149.1 265.7 151.5 274.9L101.4 287.2C94.9 261.5 94.6 234.3 100.9 208.3ZM367.2 220.7L420.3 207.4C426.8 233.7 426.8 261.5 419.9 288.2L366.4 275C368.8 265.8 370.2 256.2 370.2 246.3C370.2 237.5 369.1 228.9 367.2 220.7ZM415.3 190.8L361.9 204.2C350.8 177.3 329.5 155.7 302.8 144.2L315.6 91.9001C331.5 97.5001 346.8 105.7 360.8 116.5C386.6 136.2 404.9 162.2 415.3 190.8ZM298.9 87.0001L286.3 138.6C277.6 136.4 268.4 135.2 259 135.2C249.5 135.2 240.2 136.4 231.4 138.7L218.7 88.0001C232.5 84.4001 246.7 82.5001 260.9 82.5001C273.6 82.5001 286.4 84.0001 298.9 87.0001ZM130.2 146.8C149.4 121.7 174.5 103.7 202.1 93.3001L214.8 144.3C188.3 155.8 167.1 177.3 156.1 204L105.8 191.7C111.4 175.9 119.5 160.8 130.2 146.8ZM106.5 303.8L157.3 291.3C168.7 316.9 189.5 337.5 215.2 348.5L202.4 400.7C187.8 395.2 173.7 387.4 160.6 377.4C135.1 357.8 116.8 332.1 106.5 303.8ZM219 406L231.7 354.1C240.4 356.3 249.5 357.5 258.9 357.5C268.1 357.5 277 356.4 285.5 354.3L298.4 406.9C272.5 413 245.2 412.8 219 406ZM391.2 347C371 373.3 344.3 391.9 315.1 402.1L302 348.9C328 337.9 349 317.3 360.5 291.5L414.6 304.8C409.2 319.6 401.4 333.8 391.2 347Z" fill="black"/>
</svg>
