<svg width="512" height="512" viewBox="0 0 512 512" fill="none" xmlns="http://www.w3.org/2000/svg">
<path opacity="0.25" d="M349.8 120C349.4 120 349.1 120 348.7 120C342.9 120.1 341.3 127.9 346.5 130.3C386.3 148.5 414.1 188.7 414.1 235.2C414.1 259.4 406.7 282.5 392.6 302.2C388.1 308.5 383.2 314.3 378.4 319.9C363.8 337 351.2 351.8 351.2 379.9V432.3C351.2 448.8 346.8 461.4 337.9 470.9C337.8 471 337.6 471.2 337.5 471.3C330.9 478 332.9 489.3 341.5 493C344.6 494.3 347.4 495.1 349.7 495.1C361 495.1 383.2 476.7 388.7 470.9C397.7 461.4 402 448.8 402 432.3V379.9C402 351.8 414.6 337 429.2 319.9C433.9 314.3 438.8 308.6 443.4 302.2C457.5 282.4 465 259.1 464.9 234.7C464.8 171 413.6 120 349.8 120Z" fill="black"/>
<path d="M349.8 112C281.9 112 226.6 167.3 226.6 235.2C226.6 261.1 234.5 285.9 249.6 306.8C254.4 313.5 259.6 319.6 264.2 325C278.3 341.6 289.5 354.7 289.5 379.9V432.3C289.5 450.9 294.6 465.4 305 476.4C308.9 480.6 333.9 503.1 349.9 503.1C365.9 503.1 390.8 480.5 394.7 476.4C405.1 465.4 410.2 450.9 410.2 432.3V379.9C410.2 379.6 410.2 379.3 410.2 378.9C410.3 378.4 410.4 377.8 410.4 377.3C410.4 376.9 410.4 376.5 410.3 376.2C411.4 353.5 422.1 340.8 435.5 325.1L435.6 324.9C440.4 319.3 445.4 313.4 450 306.9C465 285.9 473 261.1 473 235.3C473.1 167.3 417.8 112 349.8 112ZM437.1 297.5C432.8 303.5 428.1 309.1 423.5 314.5L423.4 314.7C410.2 330.2 397.7 344.9 394.9 369.3H350.4C346 369.3 342.4 372.9 342.4 377.3C342.4 381.7 346 385.3 350.4 385.3H394.3V432.3C394.3 432.7 394.3 433.1 394.3 433.5H350.4C346 433.5 342.4 437.1 342.4 441.5C342.4 445.9 346 449.5 350.4 449.5H392C390.2 455.8 387.2 461.1 383.1 465.4C376.3 472.6 356.7 487.1 349.9 487.1C343.1 487.1 323.4 472.5 316.7 465.4C309.2 457.5 305.6 446.6 305.6 432.3V379.9C305.6 348.8 291.4 332.2 276.5 314.6C271.9 309.2 267.1 303.6 262.7 297.5C249.6 279.2 242.7 257.7 242.7 235.2C242.7 176.1 290.8 128 349.9 128C409 128 457.1 176.1 457.1 235.2C457.1 257.7 450.2 279.3 437.1 297.5ZM203.3 265.5C203.3 269.9 199.7 273.5 195.3 273.5H127.5C123.1 273.5 119.5 269.9 119.5 265.5C119.5 261.1 123.1 257.5 127.5 257.5H195.3C199.7 257.5 203.3 261.1 203.3 265.5ZM504.7 120.6L485.8 139.5C484.2 141.1 482.2 141.8 480.1 141.8C478 141.8 476 141 474.4 139.5C471.3 136.4 471.3 131.3 474.4 128.2L493.3 109.3C496.4 106.2 501.5 106.2 504.6 109.3C507.8 112.4 507.8 117.5 504.7 120.6ZM225.8 135C224.2 136.6 222.2 137.3 220.1 137.3C218 137.3 216 136.5 214.4 135L166.5 87.0998C163.4 83.9998 163.4 78.8998 166.5 75.7998C169.6 72.6998 174.7 72.6998 177.8 75.7998L225.7 123.7C228.9 126.8 228.9 131.9 225.8 135ZM500.8 407.7C503.9 410.8 503.9 415.9 500.8 419C499.2 420.6 497.2 421.3 495.1 421.3C493.1 421.3 491 420.5 489.4 419L460 389.5C456.9 386.4 456.9 381.3 460 378.2C463.1 375.1 468.2 375.1 471.3 378.2L500.8 407.7ZM341.8 82.5998V14.7998C341.8 10.3998 345.4 6.7998 349.8 6.7998C354.2 6.7998 357.8 10.3998 357.8 14.7998V82.5998C357.8 86.9998 354.2 90.5998 349.8 90.5998C345.4 90.5998 341.8 86.9998 341.8 82.5998Z" fill="black"/>
<path opacity="0.25" d="M154.6 440.2C149.7 439.1 144.9 442.2 143.9 447.1C142.8 452 145.9 456.8 150.8 457.8C151.4 457.9 152.1 458 152.7 458C154.4 458 156.1 457.5 157.6 456.6C159.6 455.3 161 453.3 161.5 450.9C162 448.5 161.6 446.1 160.3 444.1C159 442.1 157 440.7 154.6 440.2ZM275.1 66.9998C270.2 65.8998 265.4 68.9998 264.4 73.8998C263.3 78.7998 266.4 83.5998 271.3 84.5998C271.9 84.6998 272.6 84.7998 273.2 84.7998C277.4 84.7998 281.1 81.8998 282 77.6998C283.1 72.8998 280 68.0998 275.1 66.9998ZM41.6001 274.3C42.2001 274.4 42.9001 274.5 43.5001 274.5C45.2001 274.5 46.9001 274 48.4001 273.1C50.4001 271.8 51.8001 269.8 52.3001 267.4C52.8001 265 52.4001 262.6 51.1001 260.6C49.8001 258.6 47.8001 257.2 45.4001 256.7C40.5001 255.6 35.7001 258.7 34.7001 263.6C33.6001 268.4 36.7001 273.3 41.6001 274.3ZM199.7 194.9C201.7 193.6 203.1 191.6 203.6 189.2C204.7 184.3 201.6 179.5 196.7 178.5C194.3 178 191.9 178.4 189.9 179.7C187.9 181 186.5 183 186 185.4C185.5 187.8 185.9 190.2 187.2 192.2C188.5 194.2 190.5 195.6 192.9 196.1C193.5 196.2 194.2 196.3 194.8 196.3C196.5 196.3 198.2 195.8 199.7 194.9ZM130.3 394.4C130.3 398.8 126.7 402.4 122.3 402.4C110.9 402.4 101.5 411.7 101.5 423.2C101.5 427.6 97.9001 431.2 93.5001 431.2C89.1001 431.2 85.5001 427.6 85.5001 423.2C85.5001 402.9 102 386.4 122.3 386.4C126.7 386.4 130.3 390 130.3 394.4ZM80.3001 423.2C80.3001 427.6 76.7001 431.2 72.3001 431.2C67.9001 431.2 64.3001 427.6 64.3001 423.2C64.3001 411.8 55.0001 402.4 43.5001 402.4C39.1001 402.4 35.5001 398.8 35.5001 394.4C35.5001 390 39.1001 386.4 43.5001 386.4C63.8001 386.4 80.3001 402.9 80.3001 423.2ZM80.3001 344.4C80.3001 364.7 63.8001 381.2 43.5001 381.2C39.1001 381.2 35.5001 377.6 35.5001 373.2C35.5001 368.8 39.1001 365.2 43.5001 365.2C54.9001 365.2 64.3001 355.9 64.3001 344.4C64.3001 340 67.9001 336.4 72.3001 336.4C76.7001 336.4 80.3001 340 80.3001 344.4ZM130.3 373.2C130.3 377.6 126.7 381.2 122.3 381.2C102 381.2 85.5001 364.7 85.5001 344.4C85.5001 340 89.1001 336.4 93.5001 336.4C97.9001 336.4 101.5 340 101.5 344.4C101.5 355.8 110.8 365.2 122.3 365.2C126.7 365.2 130.3 368.8 130.3 373.2ZM54.4001 145L65.6001 133.8L54.4001 122.6C51.3001 119.5 51.3001 114.4 54.4001 111.3C57.5001 108.2 62.6001 108.2 65.7001 111.3L76.9001 122.5L88.0001 111.4C91.1001 108.3 96.2001 108.3 99.3001 111.4C102.4 114.5 102.4 119.6 99.3001 122.7L88.1001 133.9L99.3001 145C102.4 148.1 102.4 153.2 99.3001 156.3C97.7001 157.9 95.7001 158.6 93.6001 158.6C91.5001 158.6 89.5001 157.8 87.9001 156.3L76.7001 145.1L65.5001 156.3C63.9001 157.9 61.9001 158.6 59.8001 158.6C57.8001 158.6 55.7001 157.8 54.1001 156.3C51.3001 153.2 51.3001 148.1 54.4001 145ZM469.4 54.1998C469.4 58.5998 465.8 62.1998 461.4 62.1998H457.5V66.0998C457.5 70.4998 453.9 74.0998 449.5 74.0998C445.1 74.0998 441.5 70.4998 441.5 66.0998V62.1998H437.6C433.2 62.1998 429.6 58.5998 429.6 54.1998C429.6 49.7998 433.2 46.1998 437.6 46.1998H441.5V42.2998C441.5 37.8998 445.1 34.2998 449.5 34.2998C453.9 34.2998 457.5 37.8998 457.5 42.2998V46.1998H461.4C465.8 46.1998 469.4 49.6998 469.4 54.1998ZM234 358.8C234 363.2 230.4 366.8 226 366.8H222.1V370.7C222.1 375.1 218.5 378.7 214.1 378.7C209.7 378.7 206.1 375.1 206.1 370.7V366.8H202.2C197.8 366.8 194.2 363.2 194.2 358.8C194.2 354.4 197.8 350.8 202.2 350.8H206.1V346.9C206.1 342.5 209.7 338.9 214.1 338.9C218.5 338.9 222.1 342.5 222.1 346.9V350.8H226C230.5 350.8 234 354.4 234 358.8Z" fill="black"/>
<g opacity="0.25">
<path d="M9.3999 48.7004V26.9004H259.4V48.7004H9.3999ZM259.4 495.1V473.3H9.3999V495.1H259.4Z" fill="black"/>
<path d="M197.5 453.701L258.4 392.801V453.701H197.5Z" fill="black"/>
</g>
</svg>
