<svg width="512" height="512" viewBox="0 0 512 512" fill="none" xmlns="http://www.w3.org/2000/svg">
<path opacity="0.25" d="M106.7 323.4C101.9 324.5 97 325 91.9 325C91.8 325 91.6999 325 91.6999 325C76.8999 325 62.9 317.7 54.2 305.6C44.8 292.5 40.7 276.7 40.7 259.9C40.7 233.8 52.1 210.4 74.9 195.2C79.9 191.8 85.8 189.9 91.9 189.9H92C99.6 189.9 106.9 191.1 113.9 193.5C83.5999 200.2 60.7999 227.2 60.7999 259.4C60.7999 289 80 314.3 106.7 323.4ZM182.5 208.1C183.6 209 183.6 210.7 182.5 211.7L177.1 216.4C175.2 218 175.1 220.9 177 222.5L190.9 234.8L217.4 211.7L194.7 191.6C176.4 173.4 152.1 163.3 126.1 163.3C122.3 163.3 118.6 163.5 115 163.9C132.6 167.9 148.7 176.7 161.8 189.7L182.5 208.1ZM360.5 193.2C354.1 191 347.2 189.8 340 189.8C323 189.8 307.1 196.4 295.1 208.4L244.6 253.1L244.7 253.2L216.4 278.3L216.3 278.2L163.4 325.1C147.7 340.6 126.9 350.6 104.3 353.1C111.6 354.8 119.2 355.6 127 355.6C154 355.6 179.4 345.1 197.7 326.9L250.6 280L250.7 280.1L279 255V255L329.5 210.3C338.2 201.6 348.9 195.8 360.5 193.2ZM346 162.8C342.7 162.8 339.4 162.9 336.2 163.2C389.8 167.7 431.8 209 431.8 259.2C431.8 309.4 389.7 350.7 336 355.2C339.3 355.5 342.5 355.6 345.8 355.6C404.1 355.6 451.3 312.4 451.3 259.2C451.4 206 404.1 162.8 346 162.8Z" fill="black"/>
<path opacity="0.25" d="M72.0001 32.5996V54.3996H15.1001V32.5996H72.0001ZM86.5001 32.5996V54.3996H143.4V32.5996H86.5001Z" fill="black"/>
<path d="M117.6 363.7C59.8 363.7 12.7 316.8 12.7 259.2C12.7 231.4 23.5999 205.2 43.2999 185.5C63.0999 165.7 89.4 154.8 117.4 154.8C117.5 154.8 117.5 154.8 117.6 154.8C145.5 154.8 171.8 165.6 191.6 185.2L214.1 205.1C215.8 206.6 216.8 208.8 216.8 211.1C216.8 213.4 215.8 215.6 214.1 217.1L187 241.1C183.7 244 178.6 243.7 175.7 240.4C172.8 237.1 173.1 232 176.4 229.1L196.7 211.1L180.8 197C180.7 196.9 180.6 196.8 180.5 196.7C163.7 179.9 141.2 170.7 117.4 170.8C93.7 170.8 71.3999 180 54.5999 196.8C37.8999 213.5 28.7 235.6 28.7 259.2C28.7 308 68.6 347.7 117.6 347.7C140.9 347.7 163.6 338.5 179.7 322.6C179.8 322.5 179.9 322.4 180 322.3L230.7 277.3C231.1 277 231.4 276.7 231.9 276.4L256.9 254.2C257.2 253.8 257.5 253.5 257.9 253.2L306.1 210.6C319 197.7 336.2 190.7 354.6 190.7C392.6 190.7 423.4 221.5 423.4 259.3C423.4 297.1 392.5 327.9 354.6 327.9C336.1 327.9 319.1 320.8 305.4 307.4L285 289.4C281.7 286.5 281.4 281.4 284.3 278.1C287.2 274.8 292.3 274.5 295.6 277.4L316 295.4C316.1 295.5 316.2 295.6 316.3 295.7C327 306.2 340.2 311.8 354.5 311.8C383.6 311.8 407.3 288.2 407.3 259.2C407.3 230.2 383.6 206.6 354.5 206.6C340.4 206.6 327.1 212.1 317.2 222C317.1 222.1 317 222.2 316.8 222.3L269.5 264.2C269.2 264.6 268.9 264.9 268.5 265.2L241.4 289.2C241 289.5 240.6 289.8 240.2 290.1L190.7 334C171.7 352.9 145 363.7 117.6 363.7ZM431.1 330.5C449.3 311.1 459.3 285.8 459.3 259.3C459.3 201.7 412.2 154.8 354.4 154.8C326.8 154.8 300.2 165.6 281.2 184.5L231.7 228.3C231.3 228.5 230.9 228.8 230.6 229.1L203.4 253.1C202.9 253.6 202.4 254.1 202.1 254.6L155.2 296.2C155.1 296.3 155 296.4 154.9 296.5C144.9 306.4 131.7 311.9 117.6 311.9C88.5 311.9 64.8 288.3 64.8 259.3C64.8 230.3 88.5 206.7 117.6 206.7C131.9 206.7 145.1 212.3 155.7 222.9C158.8 226 163.9 226 167 222.9C170.1 219.8 170.1 214.7 167 211.6C153.3 198 136.2 190.8 117.6 190.8C79.6 190.8 48.7999 221.6 48.7999 259.4C48.7999 297.2 79.7 328 117.6 328C135.9 328 153.1 321 166 308.2L214.2 265.5C214.7 265.1 215.1 264.6 215.5 264L240.1 242.3C240.5 242.1 240.9 241.8 241.3 241.4L292 196.5C292.1 196.4 292.2 196.3 292.4 196.2C308.4 180.2 331 171 354.5 171C403.5 171 443.4 210.7 443.4 259.5C443.4 281.9 434.9 303.4 419.5 319.8C416.5 323 416.6 328.1 419.9 331.1C421.4 332.5 423.4 333.3 425.4 333.3C427.4 333 429.6 332.1 431.1 330.5ZM361 363.5C365.4 363.2 368.8 359.4 368.5 355C368.2 350.6 364.4 347.2 360 347.5C358.1 347.6 356.2 347.7 354.3 347.7C330.5 347.7 308.2 338.5 291.5 321.9C291.4 321.8 291.3 321.7 291.2 321.6L275.3 307.5L279.7 303.6C283 300.7 283.3 295.6 280.4 292.3C277.5 289 272.4 288.7 269.1 291.6L258 301.5C256.3 303 255.3 305.2 255.3 307.5C255.3 309.8 256.3 312 258 313.5L280.5 333.4C300.2 353 326.5 363.7 354.4 363.7C356.6 363.7 358.8 363.6 361 363.5Z" fill="black"/>
<path opacity="0.25" d="M353.8 303.7C341.8 303.7 330.8 299.1 322 290.5L309.9 279.8C306.6 276.9 306.3 271.8 309.2 268.5C312.1 265.2 317.2 264.9 320.5 267.8L332.8 278.7C332.9 278.8 333 278.9 333.1 279C338.9 284.7 346.1 287.8 353.8 287.8C369.6 287.8 382.4 275 382.4 259.4C382.4 243.8 369.6 231 353.8 231C346.2 231 339 234 333.6 239.3C330.5 242.4 325.4 242.4 322.3 239.3C319.2 236.2 319.2 231.1 322.3 228C330.7 219.6 341.9 215 353.8 215C378.4 215 398.4 234.9 398.4 259.4C398.4 283.9 378.4 303.7 353.8 303.7ZM204.1 346.4C181.9 368.4 150.7 381 118.6 381C114.2 381 110.6 384.6 110.6 389C110.6 393.4 114.2 397 118.6 397C154.9 397 190.2 382.7 215.4 357.7C218.5 354.6 218.6 349.5 215.5 346.4C212.3 343.3 207.3 343.3 204.1 346.4ZM118.6 137.5C151.3 137.5 182.1 150.2 205.2 173.2C205.3 173.3 205.4 173.4 205.5 173.5L236.1 200.6C237.6 201.9 239.5 202.6 241.4 202.6C243.6 202.6 245.8 201.7 247.4 199.9C250.3 196.6 250 191.5 246.7 188.6L216.3 161.7C190.2 135.8 155.5 121.5 118.6 121.5C114.2 121.5 110.6 125.1 110.6 129.5C110.6 133.9 114.2 137.5 118.6 137.5ZM138.2 440.2H25.3999C20.9999 440.2 17.3999 443.8 17.3999 448.2C17.3999 452.6 20.9999 456.2 25.3999 456.2H138.2C142.6 456.2 146.2 452.6 146.2 448.2C146.2 443.8 142.6 440.2 138.2 440.2ZM471.3 347.7H358.5C354.1 347.7 350.5 351.3 350.5 355.7C350.5 360.1 354.1 363.7 358.5 363.7H471.3C475.7 363.7 479.3 360.1 479.3 355.7C479.3 351.3 475.8 347.7 471.3 347.7ZM406.6 48.9004H460.7C465.1 48.9004 468.7 45.3004 468.7 40.9004C468.7 36.5004 465.1 32.9004 460.7 32.9004H406.6C402.2 32.9004 398.6 36.5004 398.6 40.9004C398.6 45.3004 402.2 48.9004 406.6 48.9004ZM460.7 333C465.1 333 468.7 329.4 468.7 325C468.7 320.6 465.1 317 460.7 317H406.6C402.2 317 398.6 320.6 398.6 325C398.6 329.4 402.2 333 406.6 333H460.7ZM52.3999 116.8C58.2999 116.8 63.1999 112 63.1999 106C63.1999 100 58.3999 95.2004 52.3999 95.2004C46.4999 95.2004 41.5999 100 41.5999 106C41.5999 112 46.4999 116.8 52.3999 116.8ZM274.2 403.6C271.1 400.5 266 400.5 262.9 403.6L251.7 414.8L240.5 403.6C237.4 400.5 232.3 400.5 229.2 403.6C226.1 406.7 226.1 411.8 229.2 414.9L240.4 426.1L229.2 437.3C226.1 440.4 226.1 445.5 229.2 448.6C230.8 450.2 232.8 450.9 234.9 450.9C237 450.9 239 450.1 240.6 448.6L251.8 437.4L263 448.6C264.6 450.2 266.6 450.9 268.7 450.9C270.8 450.9 272.8 450.1 274.4 448.6C277.5 445.5 277.5 440.4 274.4 437.3L263.2 426.1L274.4 414.9C277.3 411.8 277.3 406.7 274.2 403.6ZM279.7 40.4004C275.3 40.4004 271.7 44.0004 271.7 48.4004C271.7 59.8004 262.4 69.2004 250.9 69.2004C246.5 69.2004 242.9 72.8004 242.9 77.2004C242.9 81.6004 246.5 85.2004 250.9 85.2004C271.2 85.2004 287.7 68.7004 287.7 48.4004C287.7 44.0004 284.1 40.4004 279.7 40.4004ZM329.7 85.2004C334.1 85.2004 337.7 81.6004 337.7 77.2004C337.7 72.8004 334.1 69.2004 329.7 69.2004C318.3 69.2004 308.9 59.9004 308.9 48.4004C308.9 44.0004 305.3 40.4004 300.9 40.4004C296.5 40.4004 292.9 44.0004 292.9 48.4004C292.9 68.7004 309.4 85.2004 329.7 85.2004ZM329.7 106.4C334.1 106.4 337.7 102.8 337.7 98.4004C337.7 94.0004 334.1 90.4004 329.7 90.4004C309.4 90.4004 292.9 106.9 292.9 127.2C292.9 131.6 296.5 135.2 300.9 135.2C305.3 135.2 308.9 131.6 308.9 127.2C308.9 115.8 318.2 106.4 329.7 106.4ZM250.9 90.4004C246.5 90.4004 242.9 94.0004 242.9 98.4004C242.9 102.8 246.5 106.4 250.9 106.4C262.3 106.4 271.7 115.7 271.7 127.2C271.7 131.6 275.3 135.2 279.7 135.2C284.1 135.2 287.7 131.6 287.7 127.2C287.7 106.9 271.2 90.4004 250.9 90.4004ZM458.7 438.3H454.8V434.4C454.8 430 451.2 426.4 446.8 426.4C442.4 426.4 438.8 430 438.8 434.4V438.3H434.9C430.5 438.3 426.9 441.9 426.9 446.3C426.9 450.7 430.5 454.3 434.9 454.3H438.8V458.2C438.8 462.6 442.4 466.2 446.8 466.2C451.2 466.2 454.8 462.6 454.8 458.2V454.3H458.7C463.1 454.3 466.7 450.7 466.7 446.3C466.7 441.9 463.1 438.3 458.7 438.3ZM364.6 120.2C358.9 120.2 354.3 124.8 354.3 130.5C354.3 136.2 358.9 140.8 364.6 140.8C427.7 140.8 479 191.9 479 254.6C479 260.3 483.6 264.9 489.3 264.9C495 264.9 499.6 260.3 499.6 254.6C499.6 180.5 439 120.2 364.6 120.2ZM146.4 288.3L172.5 265.2C174.2 263.7 175.1 261.7 175.2 259.4C175.3 257.2 174.4 255.1 172.8 253.5L172.7 253.4C169.6 250.3 164.5 250.3 161.4 253.4C161.2 253.6 160.9 253.9 160.7 254.1L135.6 276.4C135.5 276.5 135.4 276.6 135.3 276.7C130.6 281.4 124.3 284 117.6 284C103.8 284 92.5999 272.8 92.5999 259.1C92.5999 245.4 103.8 234.2 117.6 234.2C124.4 234.2 130.6 236.9 135.7 241.9C138.8 245 143.9 245 147 241.9C150.1 238.8 150.1 233.7 147 230.6C138.9 222.5 128.7 218.3 117.6 218.3C94.9999 218.3 76.5999 236.6 76.5999 259.2C76.5999 281.8 94.9999 300.1 117.6 300.1C128.4 300.1 138.6 295.9 146.4 288.3Z" fill="black"/>
</svg>
