<svg width="512" height="512" viewBox="0 0 512 512" fill="none" xmlns="http://www.w3.org/2000/svg">
<path opacity="0.25" d="M372.3 184.7C372.3 197.6 369.4 209.8 363.6 221.3C357.8 232.8 347.7 245.5 333.3 259.5L314.8 277.1C303.3 288.2 296.6 301.2 295 316.1L294.1 330H277C269.4 330 263.5 323.6 264 316.1C265.7 301.2 272.3 288.2 283.8 277.1L302.3 259.5C316.7 245.5 326.8 232.8 332.6 221.3C338.4 209.8 341.3 197.6 341.3 184.7C341.3 156.3 332.4 134.2 314.6 118.6C299.8 105.7 280.1 98.1002 255.4 95.9002C260.3 95.4002 265.4 95.2002 270.7 95.2002C302.9 95.2002 327.9 103 345.7 118.6C363.4 134.3 372.3 156.3 372.3 184.7ZM239.6 149.1C228.3 149.1 219.3 152.6 212.6 159.5C205.8 166.4 202.3 176 202 188.2H233C233.3 176 236.8 166.5 243.6 159.5C247 156 251 153.4 255.5 151.7C251 149.9 245.7 149.1 239.6 149.1ZM266.1 364.9C260.4 364.9 255.2 365.8 250.6 367.7C254.7 369.3 258.4 371.7 261.6 374.8C268.5 381.4 272 389.8 272 399.9C272 409.9 268.6 418.2 261.9 424.7C258.6 427.8 254.9 430.2 250.7 431.8C255.3 433.6 260.5 434.4 266.2 434.4C277.3 434.4 286.2 431.1 293 424.6C299.8 418.1 303.1 409.8 303.1 399.8C303.1 389.7 299.6 381.3 292.7 374.7C285.7 368.2 276.9 364.9 266.1 364.9Z" fill="black"/>
<path d="M462.3 392.8H375.5C371.1 392.8 367.5 389.2 367.5 384.8C367.5 380.4 371.1 376.8 375.5 376.8H462.3C466.7 376.8 470.3 380.4 470.3 384.8C470.3 389.2 466.7 392.8 462.3 392.8ZM422.7 349.7C422.7 345.3 419.1 341.7 414.7 341.7H357.3C352.9 341.7 349.3 345.3 349.3 349.7C349.3 354.1 352.9 357.7 357.3 357.7H414.7C419.1 357.7 422.7 354.1 422.7 349.7ZM104.9 57C104.9 52.6 101.3 49 96.9002 49H37.7002C33.3002 49 29.7002 52.6 29.7002 57C29.7002 61.4 33.3002 65 37.7002 65H96.9002C101.3 65 104.9 61.4 104.9 57Z" fill="black" fill-opacity="0.25"/>
<g opacity="0.25">
<path d="M39.4001 429.5V464.6H74.5001V486.4H39.4001H17.6001V464.6V429.5H39.4001Z" fill="black"/>
<path d="M29.7002 194.4H51.5002V340.3H29.7002V194.4Z" fill="black"/>
</g>
<path d="M266.1 442.5C252.9 442.5 242 438.5 233.8 430.5C225.4 422.5 221.2 412.2 221.2 400C221.2 387.6 225.5 377.2 234.1 369.1C242.5 361.1 253.3 357 266.2 357C279.1 357 289.9 361.1 298.3 369.1C301.5 372.1 301.6 377.2 298.6 380.4C295.6 383.6 290.5 383.7 287.3 380.7C281.9 375.5 275 373 266.3 373C257.6 373 250.7 375.5 245.3 380.7C240 385.8 237.4 392.1 237.4 400C237.4 407.8 239.9 414 245.1 419C250.4 424.1 257.3 426.5 266.3 426.5C275.3 426.5 282.3 424 287.5 419C292.7 414 295.2 407.8 295.2 400C295.2 395.6 298.8 392 303.2 392C307.6 392 311.2 395.6 311.2 400C311.2 412.2 307 422.5 298.6 430.5C290.2 438.4 279.3 442.5 266.1 442.5ZM294.1 338.1C293.9 338.1 293.7 338.1 293.6 338.1C289.2 337.8 285.9 334 286.1 329.6L287 315.7C287 315.6 287 315.5 287 315.3C288.9 298.6 296.4 283.8 309.2 271.4L327.7 253.8C341.4 240.5 351 228.4 356.4 217.8C361.6 207.5 364.2 196.4 364.2 184.8C364.2 158.5 356.4 138.9 340.3 124.8C324.1 110.6 300.7 103.4 270.6 103.4C240.9 103.4 217.2 111 200.4 126C185.3 139.5 177 157.3 175.3 180.2H225.7C227.2 169.5 231.3 160.7 237.9 153.9C246.2 145.4 257.2 141.1 270.6 141.1C298.7 141.1 314.2 157.6 314.2 187.7C314.2 197.6 311.5 207.2 306.2 216.1C301.2 224.6 291.7 235 277.2 247.9C264.4 259.3 255.6 270.8 250.9 282.3C246.8 292.3 244.4 305.7 243.9 322.1H268.3C272.7 322.1 276.3 325.7 276.3 330.1C276.3 334.5 272.7 338.1 268.3 338.1H235.7C231.3 338.1 227.7 334.5 227.7 330.1C227.7 307.9 230.5 289.7 236 276.2C241.6 262.5 251.9 249 266.5 236C279.6 224.4 288.3 214.9 292.4 208C296.2 201.5 298.1 194.9 298.1 187.8C298.1 166.4 289.9 157.2 270.5 157.2C261.4 157.2 254.5 159.8 249.2 165.2C243.8 170.7 241.1 178.3 240.9 188.5C240.8 192.8 237.2 196.3 232.9 196.3H166.8C164.7 196.3 162.6 195.4 161.1 193.9C159.6 192.4 158.8 190.3 158.8 188.2C159.1 156.9 169.5 132 189.6 114.1C209.5 96.4004 236.7 87.4004 270.5 87.4004C304.6 87.4004 331.6 95.9004 350.8 112.8C370.3 129.9 380.2 154.2 380.2 184.9C380.2 199 377 212.6 370.7 225.1C364.5 237.3 353.8 250.9 338.8 265.5L320.3 283.1C310.1 292.9 304.4 304 302.9 317L302 330.7C301.8 334.8 298.3 338.1 294.1 338.1Z" fill="black"/>
</svg>
