<svg width="512" height="512" viewBox="0 0 512 512" fill="none" xmlns="http://www.w3.org/2000/svg">
<path opacity="0.25" d="M270 122C269.6 122 269.3 122 268.9 122C263.1 122.1 261.5 129.9 266.7 132.3C306.5 150.5 334.3 190.7 334.3 237.2C334.3 261.4 326.9 284.5 312.8 304.2C308.3 310.5 303.4 316.3 298.6 321.9C284 339 271.4 353.8 271.4 381.9V434.3C271.4 450.8 267 463.4 258.1 472.9C258 473 257.8 473.2 257.7 473.3C251.1 480 253.1 491.3 261.7 495C264.8 496.3 267.6 497.1 269.9 497.1C281.2 497.1 303.4 478.7 308.9 472.9C317.9 463.4 322.2 450.8 322.2 434.3V381.9C322.2 353.8 334.8 339 349.4 321.9C354.1 316.3 359 310.6 363.6 304.2C377.7 284.4 385.2 261.1 385.1 236.7C385 173 333.7 122 270 122Z" fill="black"/>
<path d="M128.1 412.8C126.1 412.8 124 412 122.4 410.5C119.3 407.4 119.3 402.3 122.4 399.2L141.3 380.3C144.4 377.2 149.5 377.2 152.6 380.3C155.7 383.4 155.7 388.5 152.6 391.6L133.7 410.5C132.2 412 130.1 412.8 128.1 412.8ZM175.1 163.2V336.1H254C258.4 336.1 262 339.7 262 344.1C262 348.5 258.4 352.1 254 352.1H227.5V408.6C238.3 412 246.2 422.1 246.2 434C246.2 448.7 234.2 460.7 219.5 460.7C204.8 460.7 192.8 448.7 192.8 434C192.8 422.1 200.7 412 211.5 408.6V352.1H167.1C162.7 352.1 159.1 348.5 159.1 344.1V275.6H63.3C59.9 286.4 49.8 294.3 37.9 294.3C23.2 294.3 11.2 282.3 11.2 267.6C11.2 252.9 23.2 240.9 37.9 240.9C49.8 240.9 59.9 248.8 63.3 259.6H159.1V207.4H110.3C110.2 207.4 110.2 207.4 110.1 207.4C106.2 217.2 96.6 224.1 85.4 224.1C70.7 224.1 58.7 212.1 58.7 197.4C58.7 182.7 70.7 170.7 85.4 170.7C98 170.7 108.6 179.5 111.4 191.3H159.1V155.1C159.1 150.7 162.7 147.1 167.1 147.1H176.3V99.8998C165.5 96.4998 157.6 86.3998 157.6 74.4998C157.6 59.7998 169.6 47.7998 184.3 47.7998C199 47.7998 211 59.7998 211 74.4998C211 86.3998 203.1 96.4998 192.3 99.8998V147.2H254C258.4 147.2 262 150.8 262 155.2C262 159.6 258.4 163.2 254 163.2H175.1ZM184.3 85.1998C190.2 85.1998 195 80.3998 195 74.4998C195 68.5998 190.2 63.7998 184.3 63.7998C178.4 63.7998 173.6 68.5998 173.6 74.4998C173.6 80.3998 178.4 85.1998 184.3 85.1998ZM96.1 197.4C96.1 191.5 91.3 186.7 85.4 186.7C79.5 186.7 74.7 191.5 74.7 197.4C74.7 203.3 79.5 208.1 85.4 208.1C91.3 208.1 96.1 203.3 96.1 197.4ZM48.5 267.5C48.5 261.6 43.7 256.8 37.8 256.8C31.9 256.8 27.1 261.6 27.1 267.5C27.1 273.4 31.9 278.2 37.8 278.2C43.7 278.2 48.5 273.4 48.5 267.5ZM208.9 434C208.9 439.9 213.7 444.7 219.6 444.7C225.5 444.7 230.3 439.9 230.3 434C230.3 428.1 225.5 423.3 219.6 423.3C213.7 423.3 208.9 428.1 208.9 434ZM270 114C265.6 114 262 117.6 262 122C262 126.4 265.6 130 270 130C329.1 130 377.2 178.1 377.2 237.2C377.2 259.7 370.3 281.2 357.2 299.5C352.9 305.5 348.2 311.1 343.6 316.4L343.4 316.6C330.2 332.1 317.7 346.8 314.9 371.2H270.4C266 371.2 262.4 374.8 262.4 379.2C262.4 383.6 266 387.2 270.4 387.2H314.3V434.2C314.3 434.6 314.3 435 314.3 435.4H270.4C266 435.4 262.4 439 262.4 443.4C262.4 447.8 266 451.4 270.4 451.4H312.1C310.3 457.7 307.3 463 303.2 467.3C296.4 474.5 276.8 489 270 489C265.6 489 262 492.6 262 497C262 501.4 265.6 505 270 505C286 505 310.9 482.4 314.8 478.3C325.2 467.3 330.3 452.8 330.3 434.2V381.8C330.3 381.5 330.3 381.2 330.3 380.8C330.4 380.3 330.5 379.7 330.5 379.2C330.5 378.8 330.5 378.4 330.4 378.1C331.5 355.4 342.2 342.7 355.6 327L355.8 326.8C360.6 321.2 365.5 315.3 370.2 308.8C385.2 287.8 393.2 263 393.2 237.2C393.2 169.3 338 114 270 114ZM492.7 259.5H424.9C420.5 259.5 416.9 263.1 416.9 267.5C416.9 271.9 420.5 275.5 424.9 275.5H492.7C497.1 275.5 500.7 271.9 500.7 267.5C500.7 263.1 497.1 259.5 492.7 259.5ZM400 139.4C402 139.4 404.1 138.6 405.7 137.1L453.6 89.1998C456.7 86.0998 456.7 80.9998 453.6 77.8998C450.5 74.7998 445.4 74.7998 442.3 77.8998L394.4 125.8C391.3 128.9 391.3 134 394.4 137.1C396 138.6 398 139.4 400 139.4ZM270.4 92.5998C274.8 92.5998 278.4 88.9998 278.4 84.5998V16.7998C278.4 12.3998 274.8 8.7998 270.4 8.7998C266 8.7998 262.4 12.3998 262.4 16.7998V84.5998C262.4 88.9998 266 92.5998 270.4 92.5998ZM391.5 380.2C388.4 377.1 383.3 377.1 380.2 380.2C377.1 383.3 377.1 388.4 380.2 391.5L409.7 421C411.3 422.6 413.3 423.3 415.4 423.3C417.4 423.3 419.5 422.5 421.1 421C424.2 417.9 424.2 412.8 421.1 409.7L391.5 380.2Z" fill="black"/>
<path opacity="0.25" d="M345.1 69.0999C340.2 70.1999 337.1 74.9999 338.2 79.7999C339.1 83.9999 342.9 86.8999 347 86.8999C347.6 86.8999 348.3 86.7999 348.9 86.6999C353.8 85.5999 356.9 80.7999 355.8 75.9999C354.7 71.1999 349.9 67.9999 345.1 69.0999ZM434.2 187.4C433.7 185 432.3 183 430.3 181.7C428.3 180.4 425.9 180 423.5 180.5C418.6 181.6 415.5 186.4 416.6 191.2C417.1 193.6 418.5 195.6 420.5 196.9C422 197.8 423.7 198.3 425.4 198.3C426 198.3 426.7 198.2 427.3 198.1C429.7 197.6 431.7 196.2 433 194.2C434.3 192.1 434.7 189.7 434.2 187.4ZM135.3 337.1C135.3 341.5 131.7 345.1 127.3 345.1H123.4V349C123.4 353.4 119.8 357 115.4 357C111 357 107.4 353.4 107.4 349V345.1H103.5C99.1 345.1 95.5 341.5 95.5 337.1C95.5 332.7 99.1 329.1 103.5 329.1H107.4V325.2C107.4 320.8 111 317.2 115.4 317.2C119.8 317.2 123.4 320.8 123.4 325.2V329.1H127.3C131.7 329.1 135.3 332.7 135.3 337.1ZM74.8 442.3C69.9 441.2 65.1 444.3 64.1 449.2C63 454.1 66.1 458.9 71 459.9C71.6 460 72.3 460.1 72.9 460.1C77.1 460.1 80.8 457.2 81.7 453C82.2 450.6 81.8 448.2 80.5 446.2C79.1 444.2 77.1 442.8 74.8 442.3ZM147.2 107.4C147.2 111.8 143.6 115.4 139.2 115.4H135.3V119.3C135.3 123.7 131.7 127.3 127.3 127.3C122.9 127.3 119.3 123.7 119.3 119.3V115.4H115.4C111 115.4 107.4 111.8 107.4 107.4C107.4 103 111 99.3999 115.4 99.3999H119.3V95.4999C119.3 91.0999 122.9 87.4999 127.3 87.4999C131.7 87.4999 135.3 91.0999 135.3 95.4999V99.3999H139.2C143.6 99.3999 147.2 103 147.2 107.4Z" fill="black"/>
<g opacity="0.25">
<path d="M24.5 20.0996L82.3 77.8996L24.5 135.7V20.0996Z" fill="black"/>
<path d="M28.8 362.699H50.6V419.599H28.8V362.699Z" fill="black"/>
</g>
</svg>
