<svg width="512" height="512" viewBox="0 0 512 512" fill="none" xmlns="http://www.w3.org/2000/svg">
<path opacity="0.25" d="M143.6 225.2C137.5 229.6 137.5 238.7 143.6 243.2L249.9 321.2C253.8 324.1 259.2 324.1 263.1 321.2L369.4 243.2C375.5 238.8 375.5 229.7 369.4 225.2C365.5 222.3 360.1 222.3 356.2 225.2L263 293.5C259.1 296.4 253.7 296.4 249.8 293.5L156.7 225.2C152.8 222.4 147.5 222.4 143.6 225.2ZM143.6 314.3C137.5 318.7 137.5 327.8 143.6 332.3L249.9 410.3C253.8 413.2 259.2 413.2 263.1 410.3L369.4 332.3C375.5 327.9 375.5 318.8 369.4 314.3C365.5 311.4 360.1 311.4 356.2 314.3L263 382.6C259.1 385.5 253.7 385.5 249.8 382.6L156.7 314.3C152.8 311.4 147.5 311.4 143.6 314.3Z" fill="black"/>
<path d="M256.4 484.5C254.7 484.5 253.1 484 251.7 483L84.7 360.5C82.6 359 81.4 356.6 81.4 354C81.4 351.5 82.6 349.1 84.7 347.5L126.6 316.8C130.2 314.2 135.2 315 137.8 318.5C140.4 322.1 139.6 327.1 136.1 329.7L102.9 354L256.4 466.6L410 354L358 315.9C355.9 314.4 354.7 312 354.7 309.4C354.7 306.8 355.9 304.5 358 302.9L409.9 264.8L358 226.9C355.9 225.4 354.7 223 354.7 220.4C354.7 217.8 355.9 215.5 358 213.9L409.9 175.8L256.4 63.2998L154.2 138.3C150.6 140.9 145.6 140.1 143 136.6C140.4 133 141.2 128 144.7 125.4L251.6 46.9998C254.4 44.8998 258.2 44.8998 261.1 46.9998L428.1 169.5C430.2 171 431.4 173.4 431.4 176C431.4 178.6 430.2 180.9 428.1 182.5L376.2 220.6L428.1 258.7C430.2 260.2 431.4 262.6 431.4 265.2C431.4 267.8 430.2 270.1 428.1 271.7L376.2 309.8L428.1 347.9C430.2 349.4 431.4 351.8 431.4 354.4C431.4 356.9 430.2 359.3 428.1 360.9L261.2 483C259.8 484 258.1 484.5 256.4 484.5ZM256.4 395.4C254.7 395.4 253.1 394.9 251.7 393.9L84.7 271.4C82.6 269.9 81.4 267.5 81.4 264.9C81.4 262.4 82.6 260 84.7 258.4L126.6 227.7C130.2 225.1 135.2 225.9 137.8 229.4C140.4 233 139.6 238 136.1 240.6L103 264.9L256.5 377.5L339.2 316.8C342.8 314.2 347.8 315 350.4 318.5C353 322.1 352.2 327.1 348.7 329.7L261.2 393.8C259.8 394.9 258.1 395.4 256.4 395.4ZM256.4 306.4C254.7 306.4 253.1 305.9 251.7 304.9L84.7 182.4C82.6 180.9 81.4 178.5 81.4 175.9C81.4 173.3 82.6 171 84.7 169.4L115.7 146.6C119.3 144 124.3 144.8 126.9 148.3C129.5 151.9 128.7 156.9 125.2 159.5L103 175.8L256.5 288.4L339.2 227.7C342.8 225.1 347.8 225.9 350.4 229.4C353 233 352.2 238 348.7 240.6L261.2 304.7C259.8 305.8 258.1 306.4 256.4 306.4Z" fill="black"/>
<path opacity="0.25" d="M447.2 219.2H424.3C419.9 219.2 416.3 215.6 416.3 211.2C416.3 206.8 419.9 203.2 424.3 203.2H447.2C451.6 203.2 455.2 206.8 455.2 211.2C455.2 215.6 451.6 219.2 447.2 219.2ZM461.6 465.6C455.7 465.6 450.8 470.4 450.8 476.4C450.8 482.3 455.6 487.2 461.6 487.2C467.5 487.2 472.4 482.4 472.4 476.4C472.3 470.4 467.5 465.6 461.6 465.6ZM66.4 72.6V56.8H82.2C86.6 56.8 90.2 53.2 90.2 48.8C90.2 44.4 86.6 40.8 82.2 40.8H66.4V25C66.4 20.6 62.8 17 58.4 17C54 17 50.4 20.6 50.4 25V40.8H34.7C30.3 40.8 26.7 44.4 26.7 48.8C26.7 53.2 30.3 56.8 34.7 56.8H50.5V72.6C50.5 77 54.1 80.6 58.5 80.6C62.9 80.6 66.4 77 66.4 72.6ZM444.9 37.8C444.9 33.4 441.3 29.8 436.9 29.8H363.1C358.7 29.8 355.1 33.4 355.1 37.8C355.1 42.2 358.7 45.8 363.1 45.8H436.9C441.3 45.8 444.9 42.2 444.9 37.8ZM184.4 123.8H71.4C67 123.8 63.4 127.4 63.4 131.8C63.4 136.2 67 139.8 71.4 139.8H184.4C188.8 139.8 192.4 136.2 192.4 131.8C192.4 127.4 188.8 123.8 184.4 123.8Z" fill="black"/>
<path opacity="0.25" d="M81 460.1V481.9H24V460.1H81ZM24 415.2V437H81V415.2H24Z" fill="black"/>
</svg>
