<svg width="512" height="512" viewBox="0 0 512 512" fill="none" xmlns="http://www.w3.org/2000/svg">
<path opacity="0.25" d="M471 256.2C471 280 460.5 294.1 446.7 294.1L422.1 386.1C410.2 433.5 394.6 446.5 349.5 446.5H248C205.5 446.5 181.8 437.7 162.9 430.6C148.7 425.3 137.5 421.1 121.1 421.1H82.8999C82.8999 401.8 98.5999 386.1 117.9 386.1H248.9C275.4 386.1 299 369.5 308 344.6L335.7 267.8C344.7 242.8 368.5 226.1 395.2 226.1H425.3C446.3 226 471 225.9 471 256.2ZM324.5 155.9C332.3 133.4 351.6 87.9002 323.2 74.9002C313.3 70.4002 316.9 74.6002 311.7 84.2002L244 212.8C238.8 222.3 245.7 234 256.6 234H277C277 233.9 315.3 182.4 324.5 155.9Z" fill="black"/>
<path d="M479 256.2C479 283.7 466.8 298 453.1 301.4L429.9 388C417.2 438.9 398.4 454.4 349.5 454.4H248C204 454.4 179.6 445.3 160.1 438C146.1 432.8 136 429 121.1 429H82.8999C78.4999 429 74.8999 425.4 74.8999 421V306.8C74.8999 302.4 78.4999 298.8 82.8999 298.8C87.2999 298.8 90.8999 302.4 90.8999 306.8V413H121C138.8 413 151.2 417.6 165.5 423C183.9 429.9 206.8 438.4 247.9 438.4H349.5C371.2 438.4 384.3 435.2 393.2 427.8C399.3 422.7 404.2 415.1 408.5 403.6H348.4C344 403.6 340.4 400 340.4 395.6C340.4 391.2 344 387.6 348.4 387.6H413.4C413.7 386.4 414 385.3 414.3 384V383.9L422.6 352.8H358.9C354.5 352.8 350.9 349.2 350.9 344.8C350.9 340.4 354.5 336.8 358.9 336.8H427L436.3 302H371.9C367.5 302 363.9 298.4 363.9 294C363.9 289.6 367.5 286 371.9 286H444.9C445.2 286 445.5 286 445.8 286.1C446.1 286.1 446.4 286 446.7 286C456.3 286 463 273.7 463 256.1C463 243.1 457.9 239.2 452.9 237.1C445.7 234 435.5 234 425.6 234C425.5 234 425.5 234 425.4 234H260.7C256.3 234 252.7 230.4 252.7 226C252.7 221.6 256.3 218 260.7 218H425.5C425.6 218 425.6 218 425.7 218C436.7 218 449.1 218 459.3 222.4C472.4 228.1 479 239.4 479 256.2ZM82.8999 276.7H121C142.4 276.7 152.2 260.3 169.8 230.6C174.5 222.7 180.3 212.9 186.9 202.7C200.3 182.1 214.3 169.8 226.7 159C246.6 141.6 265.5 125.1 281.7 76.8002L282.8 73.6002H298.7C315.3 73.6002 328.8 87.1002 328.8 103.6C328.8 140.5 306.3 175.4 289.4 198.6C286.8 202.2 287.6 207.2 291.1 209.8C294.7 212.4 299.7 211.6 302.3 208.1C320.5 183.2 344.8 145.2 344.8 103.7C344.8 78.3002 324.1 57.7002 298.7 57.7002H277C273.6 57.7002 270.5 59.9002 269.4 63.2002L266.5 71.8002C251.6 116 235.9 129.7 216.1 147.1C202.9 158.6 188 171.6 173.5 194.1C166.7 204.6 160.8 214.6 156 222.6C137.9 253.1 132.1 260.9 120.9 260.9H82.8999C78.4999 260.9 74.8999 264.5 74.8999 268.9C74.8999 273.3 78.4999 276.7 82.8999 276.7Z" fill="black"/>
<path opacity="0.25" d="M57.1999 260.7H114.6C119 260.7 122.6 264.3 122.6 268.7C122.6 273.1 119 276.7 114.6 276.7H57.1999C52.7999 276.7 49.1999 273.1 49.1999 268.7C49.1999 264.3 52.7999 260.7 57.1999 260.7ZM25.4999 314.8H105C109.4 314.8 113 311.2 113 306.8C113 302.4 109.4 298.8 105 298.8H25.4999C21.0999 298.8 17.4999 302.4 17.4999 306.8C17.4999 311.2 21.0999 314.8 25.4999 314.8ZM400.6 89.2004C420.9 89.2004 437.4 72.7004 437.4 52.4004C437.4 48.0004 433.8 44.4004 429.4 44.4004C425 44.4004 421.4 48.0004 421.4 52.4004C421.4 63.8004 412.1 73.2004 400.6 73.2004C396.2 73.2004 392.6 76.8004 392.6 81.2004C392.6 85.6004 396.2 89.2004 400.6 89.2004ZM479.4 89.2004C483.8 89.2004 487.4 85.6004 487.4 81.2004C487.4 76.8004 483.8 73.2004 479.4 73.2004C468 73.2004 458.6 63.9004 458.6 52.4004C458.6 48.0004 455 44.4004 450.6 44.4004C446.2 44.4004 442.6 48.0004 442.6 52.4004C442.6 72.7004 459.1 89.2004 479.4 89.2004ZM450.6 139.2C455 139.2 458.6 135.6 458.6 131.2C458.6 119.8 467.9 110.5 479.4 110.5C483.8 110.5 487.4 106.9 487.4 102.5C487.4 98.1004 483.8 94.5004 479.4 94.5004C459.1 94.5004 442.6 111 442.6 131.3C442.6 135.6 446.2 139.2 450.6 139.2ZM400.6 110.4C412 110.4 421.4 119.7 421.4 131.2C421.4 135.6 425 139.2 429.4 139.2C433.8 139.2 437.4 135.6 437.4 131.2C437.4 110.9 420.9 94.5004 400.6 94.5004C396.2 94.5004 392.6 98.1004 392.6 102.5C392.6 106.9 396.2 110.4 400.6 110.4ZM34.5999 65.8004C38.9999 65.8004 42.5999 62.2004 42.5999 57.8004C42.5999 52.1004 47.2999 47.4004 52.9999 47.4004C58.6999 47.4004 63.3999 52.1004 63.3999 57.8004C63.3999 62.2004 66.9999 65.8004 71.3999 65.8004C75.7999 65.8004 79.3999 62.2004 79.3999 57.8004C79.3999 43.2004 67.5999 31.4004 52.9999 31.4004C38.3999 31.4004 26.5999 43.3004 26.5999 57.8004C26.5999 62.3004 30.1999 65.8004 34.5999 65.8004ZM481 172.8H377.7C373.3 172.8 369.7 176.4 369.7 180.8C369.7 185.2 373.3 188.8 377.7 188.8H481C485.4 188.8 489 185.2 489 180.8C489 176.4 485.4 172.8 481 172.8ZM122.6 462.3H19.3999C14.9999 462.3 11.3999 465.9 11.3999 470.3C11.3999 474.7 14.9999 478.3 19.3999 478.3H122.7C127.1 478.3 130.7 474.7 130.7 470.3C130.7 465.9 127.1 462.3 122.6 462.3ZM47.9999 218.3C47.9999 223.3 43.8999 227.3 38.9999 227.3C34.0999 227.3 29.9999 223.2 29.9999 218.3C29.9999 213.4 34.0999 209.3 38.9999 209.3C43.8999 209.3 47.9999 213.4 47.9999 218.3ZM68.9999 227.4C63.9999 227.4 59.9999 223.3 59.9999 218.4C59.9999 213.5 64.0999 209.4 68.9999 209.4C73.8999 209.4 77.9999 213.5 77.9999 218.4C77.9999 223.3 73.9999 227.4 68.9999 227.4ZM89.9999 218.3C89.9999 213.3 94.0999 209.3 98.9999 209.3C103.9 209.3 108 213.4 108 218.3C108 223.2 103.9 227.3 98.9999 227.3C94.0999 227.3 89.9999 223.3 89.9999 218.3ZM138 218.3C138 223.3 133.9 227.3 129 227.3C124.1 227.3 120 223.2 120 218.3C120 213.4 124.1 209.3 129 209.3C133.9 209.3 138 213.4 138 218.3Z" fill="black"/>
<path opacity="0.25" d="M429.6 491.3L490.5 430.4V491.3H429.6Z" fill="black"/>
<path opacity="0.25" d="M99.9999 71.3V26H145.3V71.3H99.9999ZM145.3 139.4V94.1H99.9999V139.4H145.3V139.4ZM75.6999 139.4V94.1H30.3999V139.4H75.6999V139.4Z" fill="black"/>
</svg>
