<svg width="512" height="512" viewBox="0 0 512 512" fill="none" xmlns="http://www.w3.org/2000/svg">
<path opacity="0.25" d="M254.2 329C254.2 298.1 278.9 273 309.5 273H334.1C343.3 273 350.7 280.6 350.7 289.9V467.3C350.7 476.6 343.3 484.1 334.1 484.1H67.5V449.5C67.5 424.8 87.2 404.8 111.6 404.8L165.6 407.5L158.1 415L173.5 431L207 404.9H220.5C224.9 404.9 244.7 432.6 248.5 431C250.9 430 265.7 423.6 263.5 414.1C261.8 406.9 245.8 393.7 244.3 394.9C244 395 227 387.4 227 378L246.7 363L266.3 343.4L254.2 329Z" fill="black"/>
<path d="M174.5 336.3L167.5 343.3L198.5 374.3C201.6 377.4 201.6 382.5 198.5 385.6L167.5 416.6L174.5 423.6L205.6 392.6C208.7 389.5 213.8 389.5 216.9 392.6L248 423.6L255 416.6L223.9 385.6C222.4 384.1 221.6 382.1 221.6 379.9C221.6 377.7 222.4 375.7 223.9 374.2L243.5 354.6C246.6 351.5 251.7 351.5 254.8 354.6C257.9 357.7 257.9 362.8 254.8 365.9L240.9 379.8L272 410.8C273.5 412.3 274.3 414.3 274.3 416.5C274.3 418.7 273.5 420.7 272 422.2L253.6 440.6C250.5 443.7 245.4 443.7 242.3 440.6L211.2 409.5L180.1 440.6C178.5 442.2 176.5 442.9 174.4 442.9C172.4 442.9 170.3 442.1 168.7 440.6L150.3 422.2C147.2 419.1 147.2 414 150.3 410.9L181.3 379.9L150.3 348.9C147.2 345.8 147.2 340.7 150.3 337.6L168.7 319.2C171.8 316.1 176.9 316.1 180 319.2L211.1 350.3L242.2 319.2C245.3 316.1 250.4 316.1 253.5 319.2L271.9 337.6C275 340.7 275 345.8 271.9 348.9C268.8 352 263.7 352 260.6 348.9L248 336.3L216.9 367.3C213.8 370.4 208.7 370.4 205.6 367.3L174.5 336.3ZM159 289.1C163.4 289.1 167 285.5 167 281.1V243.8C167 219.4 186.9 199.5 211.3 199.5C235.7 199.5 255.6 219.4 255.6 243.8C255.6 248.2 259.2 251.8 263.6 251.8C268 251.8 271.6 248.2 271.6 243.8C271.6 210.6 244.6 183.5 211.3 183.5C178 183.5 151 210.5 151 243.8V281.1C151 285.5 154.6 289.1 159 289.1ZM363 274.7V485.6C363 490 359.4 493.6 355 493.6H67.5C63.1 493.6 59.5 490 59.5 485.6V274.7C59.5 270.3 63.1 266.7 67.5 266.7H117V245.9C117 193.9 159.3 151.6 211.3 151.6C263.3 151.6 305.6 193.9 305.6 245.9V266.7H355C359.4 266.7 363 270.2 363 274.7ZM347 282.7H297.5C293.1 282.7 289.5 279.1 289.5 274.7V245.9C289.5 202.7 254.4 167.6 211.2 167.6C168 167.6 132.9 202.7 132.9 245.9V274.7C132.9 279.1 129.3 282.7 124.9 282.7H75.5V477.6H347V282.7Z" fill="black"/>
<g opacity="0.25">
<path d="M341 44.5998V22.7998H483.8V44.5998H341Z" fill="black"/>
<path d="M341 80.5002V58.7002H483.8V80.5002H341Z" fill="black"/>
</g>
<path opacity="0.25" d="M123.1 314.9C123.1 319.3 119.5 322.9 115.1 322.9H72.1C67.7 322.9 64.1 319.3 64.1 314.9C64.1 310.5 67.7 306.9 72.1 306.9H115.1C119.5 306.9 123.1 310.5 123.1 314.9ZM93.6 336.9H19.8C15.4 336.9 11.8 340.5 11.8 344.9C11.8 349.3 15.4 352.9 19.8 352.9H93.6C98 352.9 101.6 349.3 101.6 344.9C101.6 340.5 98 336.9 93.6 336.9ZM54.3 165.7H70V181.5C70 185.9 73.6 189.5 78 189.5C82.4 189.5 86 185.9 86 181.5V165.7H101.8C106.2 165.7 109.8 162.1 109.8 157.7C109.8 153.3 106.2 149.7 101.8 149.7H86V134C86 129.6 82.4 126 78 126C73.6 126 70 129.6 70 134V149.8H54.3C49.9 149.8 46.3 153.4 46.3 157.8C46.3 162.2 49.8 165.7 54.3 165.7ZM442.7 427.2H438.8V423.3C438.8 418.9 435.2 415.3 430.8 415.3C426.4 415.3 422.8 418.9 422.8 423.3V427.2H419C414.6 427.2 411 430.8 411 435.2C411 439.6 414.6 443.2 419 443.2H422.9V447.1C422.9 451.5 426.5 455.1 430.9 455.1C435.3 455.1 438.9 451.5 438.9 447.1V443.2H442.8C447.2 443.2 450.8 439.6 450.8 435.2C450.8 430.8 447.1 427.2 442.7 427.2ZM341.5 130.1C337.1 130.1 333.5 133.7 333.5 138.1C333.5 142.5 337.1 146.1 341.5 146.1C347.2 146.1 351.9 150.8 351.9 156.5C351.9 162.2 347.2 166.9 341.5 166.9C337.1 166.9 333.5 170.5 333.5 174.9C333.5 179.3 337.1 182.9 341.5 182.9C356.1 182.9 367.9 171.1 367.9 156.5C367.9 141.9 356.1 130.1 341.5 130.1ZM255.6 75.1996H114.2C109.8 75.1996 106.2 78.7996 106.2 83.1996C106.2 87.5996 109.8 91.1996 114.2 91.1996H255.6C260 91.1996 263.6 87.5996 263.6 83.1996C263.6 78.7996 260.1 75.1996 255.6 75.1996ZM76.1 40.5996C76.1 35.5996 80.2 31.5996 85.1 31.5996C90 31.5996 94.1 35.6996 94.1 40.5996C94.1 45.4996 90 49.5996 85.1 49.5996C80.2 49.5996 76.1 45.5996 76.1 40.5996ZM106.1 40.5996C106.1 35.5996 110.2 31.5996 115.1 31.5996C120 31.5996 124.1 35.6996 124.1 40.5996C124.1 45.4996 120 49.5996 115.1 49.5996C110.2 49.5996 106.1 45.5996 106.1 40.5996ZM136.1 40.5996C136.1 35.5996 140.2 31.5996 145.1 31.5996C150 31.5996 154.1 35.6996 154.1 40.5996C154.1 45.4996 150 49.5996 145.1 49.5996C140.2 49.5996 136.1 45.5996 136.1 40.5996ZM379 218C399.3 218 415.8 201.5 415.8 181.2C415.8 176.8 412.2 173.2 407.8 173.2C403.4 173.2 399.8 176.8 399.8 181.2C399.8 192.6 390.5 202 379 202C374.6 202 371 205.6 371 210C371 214.4 374.6 218 379 218ZM457.8 218C462.2 218 465.8 214.4 465.8 210C465.8 205.6 462.2 202 457.8 202C446.4 202 437 192.7 437 181.2C437 176.8 433.4 173.2 429 173.2C424.6 173.2 421 176.8 421 181.2C421 201.5 437.5 218 457.8 218ZM429 268C433.4 268 437 264.4 437 260C437 248.6 446.3 239.2 457.8 239.2C462.2 239.2 465.8 235.6 465.8 231.2C465.8 226.8 462.2 223.2 457.8 223.2C437.5 223.2 421 239.7 421 260C421 264.4 424.6 268 429 268ZM407.8 268C412.2 268 415.8 264.4 415.8 260C415.8 239.7 399.3 223.2 379 223.2C374.6 223.2 371 226.8 371 231.2C371 235.6 374.6 239.2 379 239.2C390.4 239.2 399.8 248.5 399.8 260C399.8 264.4 403.4 268 407.8 268ZM481.2 303.2H409.3C404.9 303.2 401.3 306.8 401.3 311.2C401.3 315.6 404.9 319.2 409.3 319.2H481.2C485.6 319.2 489.2 315.6 489.2 311.2C489.2 306.8 485.6 303.2 481.2 303.2Z" fill="black"/>
</svg>
