<svg width="512" height="512" viewBox="0 0 512 512" fill="none" xmlns="http://www.w3.org/2000/svg">
<path opacity="0.25" d="M386.3 169.4L347.7 208L329.2 226.5L111.3 444.3C111.4 444.2 111.5 444.1 111.6 444C116.3 438.9 114.1 431.8 109.5 427.2L109.4 427.1L319.1 217.4L337.6 198.9L376.2 160.3C379.9 156.6 380.1 151.9 378.3 147.8C386.9 150.4 393.8 161.8 386.3 169.4Z" fill="black"/>
<path d="M396.9 156.7C394.8 148.8 388.1 142.1 380.2 140C373.5 138.2 366.8 140 361.9 144.9L326.4 180.4L87 419.8C86.8 420 86.6 420.3 86.4 420.5C83.1 424.2 81.6 429.2 82.1 434.4C82.6 439.5 85 444.3 88.8 448.2C93.3 452.7 99.1 455 104.6 455C109 455 113.2 453.5 116.5 450.6C116.7 450.4 116.9 450.2 117.1 450L335 232.1C338.1 229 338.1 223.9 335 220.8C331.9 217.7 326.8 217.7 323.7 220.8L118.7 425.8C118.2 425 117.6 424.2 117 423.5C116.8 423.3 116.6 423.1 116.4 422.8C116.2 422.6 116.1 422.4 115.9 422.3C115.7 422.1 115.5 421.9 115.3 421.6C115 421.3 114.8 421.1 114.5 420.8C114.4 420.7 114.3 420.7 114.3 420.6C114 420.4 113.8 420.2 113.5 419.9C112.8 419.3 112 418.7 111.2 418.2L337.7 191.7C338.4 191 339.2 190.6 340.5 191C342.9 191.6 345.3 194.1 345.9 196.4C346.3 197.8 345.9 198.5 345.2 199.2L342.2 202.2C339.1 205.3 339.1 210.4 342.2 213.5C345.3 216.6 350.4 216.6 353.5 213.5L392.1 174.9C396.9 170 398.7 163.4 396.9 156.7ZM97.8 432.8C97.8 432.4 97.7 431.5 98.2 431.1C98.5 430.8 99.1 430.7 99.5 430.7C99.7 430.7 99.8 430.7 99.9 430.7C101.1 430.8 102.3 431.4 103.4 432.3C103.5 432.4 103.6 432.5 103.7 432.6C103.8 432.7 103.8 432.7 103.9 432.8C106.2 435.1 106.3 437.9 105.6 438.6C104.9 439.3 102.1 439.2 99.8 436.9C98.7 435.7 98 434.2 97.8 432.8ZM380.7 163.6L358.5 185.8C356.6 182.8 354 180.2 351 178.3L373.2 156.1C373.9 155.4 374.7 155 376 155.4C378.4 156 380.8 158.5 381.4 160.8C381.8 162.2 381.4 162.9 380.7 163.6ZM299.9 135.3C301.6 131.2 306.3 129.3 310.4 131L329.1 138.7C333.2 140.4 335.1 145.1 333.4 149.2C332.1 152.3 329.1 154.1 326 154.1C325 154.1 323.9 153.9 322.9 153.5L304.2 145.8C300.1 144 298.2 139.3 299.9 135.3ZM336.3 100.4C334.6 96.3 336.5 91.6 340.6 89.9C344.7 88.2 349.4 90.1 351.1 94.2L358.8 112.9C360.5 117 358.6 121.7 354.5 123.4C353.5 123.8 352.5 124 351.4 124C348.3 124 345.3 122.1 344 119.1L336.3 100.4ZM383.4 109.7L391.1 91C392.8 86.9 397.5 85 401.6 86.7C405.7 88.4 407.6 93.1 405.9 97.2L398.2 115.9C396.9 119 393.9 120.8 390.8 120.8C389.8 120.8 388.7 120.6 387.7 120.2C383.6 118.4 381.7 113.8 383.4 109.7ZM413.7 223.3C415.4 227.4 413.5 232.1 409.4 233.8C408.4 234.2 407.4 234.4 406.3 234.4C403.2 234.4 400.2 232.5 398.9 229.5L391.2 210.8C389.5 206.7 391.4 202 395.5 200.3C399.6 198.6 404.3 200.5 406 204.6L413.7 223.3ZM450.1 188.4C448.8 191.5 445.8 193.3 442.7 193.3C441.7 193.3 440.6 193.1 439.6 192.7L421 185C416.9 183.3 415 178.6 416.7 174.5C418.4 170.4 423.1 168.5 427.2 170.2L445.9 177.9C449.9 179.6 451.8 184.3 450.1 188.4ZM420.9 146.3C417.8 146.3 414.8 144.4 413.5 141.4C411.8 137.3 413.7 132.6 417.8 130.9L436.5 123.2C440.6 121.5 445.3 123.4 447 127.5C448.7 131.6 446.8 136.3 442.7 138L424 145.7C422.9 146.1 421.9 146.3 420.9 146.3Z" fill="black"/>
<path opacity="0.25" d="M156 247.6C156 252 152.4 255.6 148 255.6C127.7 255.6 111.2 239.1 111.2 218.8C111.2 214.4 114.8 210.8 119.2 210.8C123.6 210.8 127.2 214.4 127.2 218.8C127.2 230.2 136.5 239.6 148 239.6C152.4 239.6 156 243.2 156 247.6ZM98 210.8C93.6 210.8 90 214.4 90 218.8C90 230.2 80.6999 239.6 69.1999 239.6C64.7999 239.6 61.2 243.2 61.2 247.6C61.2 252 64.7999 255.6 69.1999 255.6C89.4999 255.6 106 239.1 106 218.8C106 214.4 102.4 210.8 98 210.8ZM205.7 144.6H148.3C143.9 144.6 140.3 148.2 140.3 152.6C140.3 157 143.9 160.6 148.3 160.6H205.7C210.1 160.6 213.7 157 213.7 152.6C213.7 148.2 210.1 144.6 205.7 144.6ZM69.3 260.8C64.9 260.8 61.2999 264.4 61.2999 268.8C61.2999 273.2 64.9 276.8 69.3 276.8C80.7 276.8 90.0999 286.1 90.0999 297.6C90.0999 302 93.6999 305.6 98.0999 305.6C102.5 305.6 106.1 302 106.1 297.6C106 277.3 89.5 260.8 69.3 260.8ZM472.6 456.4C477.2 458.4 482.5 456.3 484.5 451.8C486.5 447.2 484.4 441.9 479.9 439.9C475.3 437.9 470 440 468 444.6C465.9 449.1 468 454.4 472.6 456.4ZM77.6999 132H164.5C168.9 132 172.5 128.4 172.5 124C172.5 119.6 168.9 116 164.5 116H77.6999C73.2999 116 69.6999 119.6 69.6999 124C69.6999 128.4 73.2999 132 77.6999 132ZM148 260.8C127.7 260.8 111.2 277.3 111.2 297.6C111.2 302 114.8 305.6 119.2 305.6C123.6 305.6 127.2 302 127.2 297.6C127.2 286.2 136.5 276.8 148 276.8C152.4 276.8 156 273.2 156 268.8C156 264.4 152.4 260.8 148 260.8ZM456.3 334.1H369.5C365.1 334.1 361.5 337.7 361.5 342.1C361.5 346.5 365.1 350.1 369.5 350.1H456.3C460.7 350.1 464.3 346.5 464.3 342.1C464.3 337.7 460.7 334.1 456.3 334.1ZM445.8 468.9C440.9 468.9 436.8 472.9 436.8 477.9C436.8 482.9 440.8 486.9 445.8 486.9C450.8 486.9 454.8 482.9 454.8 477.9C454.8 472.9 450.7 468.9 445.8 468.9ZM476.2 468.8C471.2 468.8 467.2 472.9 467.2 477.8C467.2 482.7 471.3 486.8 476.2 486.8C481.1 486.8 485.2 482.7 485.2 477.8C485.2 472.9 481.2 468.8 476.2 468.8ZM316.9 418.1H301.1V402.3C301.1 397.9 297.5 394.3 293.1 394.3C288.7 394.3 285.1 397.9 285.1 402.3V418.1H269.3C264.9 418.1 261.3 421.7 261.3 426.1C261.3 430.5 264.9 434.1 269.3 434.1H285.1V449.9C285.1 454.3 288.7 457.9 293.1 457.9C297.5 457.9 301.1 454.3 301.1 449.9V434.1H316.9C321.3 434.1 324.9 430.5 324.9 426.1C324.9 421.7 321.3 418.1 316.9 418.1ZM393.7 313.5C393.7 309.1 390.1 305.5 385.7 305.5H328.3C323.9 305.5 320.3 309.1 320.3 313.5C320.3 317.9 323.9 321.5 328.3 321.5H385.7C390.1 321.5 393.7 318 393.7 313.5ZM245.6 60.4H241.7V56.5C241.7 52.1 238.1 48.5 233.7 48.5C229.3 48.5 225.7 52.1 225.7 56.5V60.4H221.8C217.4 60.4 213.8 64 213.8 68.4C213.8 72.8 217.4 76.4 221.8 76.4H225.7V80.3C225.7 84.7 229.3 88.3 233.7 88.3C238.1 88.3 241.7 84.7 241.7 80.3V76.4H245.6C250 76.4 253.6 72.8 253.6 68.4C253.6 64 250.1 60.4 245.6 60.4Z" fill="black"/>
<g opacity="0.25">
<path d="M55.4999 488.301H20.8999V453.601H55.5999V488.301H55.4999Z" fill="black"/>
<path d="M493.5 57.0004H458.8V22.4004H493.5V57.0004Z" fill="black"/>
<path d="M441.4 57.0004H406.7V22.4004H441.4V57.0004Z" fill="black"/>
</g>
</svg>
