<svg width="512" height="512" viewBox="0 0 512 512" fill="none" xmlns="http://www.w3.org/2000/svg">
<path opacity="0.25" d="M447.2 79.2996C426.5 58.5996 393.6 39.6996 356.6 35.9996C352.2 35.5996 350.5 41.5996 354.6 43.4996C372.6 51.5996 388.2 62.6996 399.9 74.4996C440.7 115.3 474.2 202.7 399.9 277L300.1 376.8C289.1 387.8 289.1 405.7 300.1 416.8L306.2 422.9L447.2 281.9C521.5 207.5 488 120 447.2 79.2996ZM248 125L148.4 224.6C137.4 235.6 137.4 253.5 148.4 264.5L154.6 270.7L295.3 130C300.7 124.6 306 120.3 311.3 117C317.2 113.2 315.4 104.1 308.5 102.8C291 99.2996 269.8 103.1 248 125Z" fill="black"/>
<path d="M355.4 370.6C358.5 373.7 358.5 378.8 355.4 381.9C352.3 385 347.2 385 344.1 381.9L299.1 336.9L259.8 376.2L299.1 415.5L326.3 388.3C329.4 385.2 334.5 385.2 337.6 388.3C340.7 391.4 340.7 396.5 337.6 399.6L304.7 432.5C303.1 434.1 301.1 434.8 299 434.8C296.9 434.8 294.9 434 293.3 432.5L242.7 381.9C239.6 378.8 239.6 373.7 242.7 370.6L293.3 320C293.6 319.7 293.9 319.4 294.3 319.2C294.5 318.9 294.8 318.5 295.1 318.2L388.8 224.5C407 206.3 413.5 186.8 408 166.7C403.5 150.2 392.2 137.9 388.8 134.5C378.2 124.1 340.1 93.2001 298.9 134.5L152.9 280.7C149.8 283.8 144.7 283.8 141.6 280.7L90.9001 230C89.4001 228.5 88.6 226.5 88.6 224.3C88.6 222.1 89.4001 220.1 90.9001 218.6L141.5 168L186.5 123C189.6 119.9 194.7 119.9 197.8 123C200.9 126.1 200.9 131.2 197.8 134.3L152.8 179.3L107.9 224.2L147.2 263.5L186.5 224.2L160.2 197.9C157.1 194.8 157.1 189.7 160.2 186.6C163.3 183.5 168.4 183.5 171.5 186.6L197.8 212.9L287.6 123.1C314.8 95.9001 341.2 95.1001 358.6 99.3001C379.2 104.2 394.5 117.6 400.1 123.1C405.4 128.4 418.1 142.6 423.5 162.4C428.4 180.3 428.3 207.6 400.2 235.7L310.4 325.5L355.4 370.6ZM434.3 280.3L363.6 351C360.5 354.1 360.5 359.2 363.6 362.3C365.2 363.9 367.2 364.6 369.3 364.6C371.3 364.6 373.4 363.8 375 362.3L445.7 291.6C448.8 288.5 448.8 283.4 445.7 280.3C442.5 277.2 437.5 277.2 434.3 280.3ZM494.2 153.2C488 123.4 472.2 94.0001 450.8 72.6001C426.3 48.1001 391.4 31.1001 357.4 27.2001C326.8 23.6001 281 28.6001 237 72.6001L216.5 93.1001C213.4 96.2001 213.4 101.3 216.5 104.4C219.6 107.5 224.7 107.5 227.8 104.4L248.3 83.9001C318.4 13.8001 401.1 45.5001 439.5 83.9001C477.6 122 500.1 190.4 459.7 250.7C457.2 254.4 458.2 259.3 461.9 261.8C463.3 262.7 464.8 263.2 466.3 263.2C468.9 263.2 471.4 262 473 259.7C494.6 227.4 502 190.6 494.2 153.2ZM69.9001 254.8C65.7001 259 65.7001 265.8 69.9001 270C74.1001 274.2 80.9 274.2 85.1 270C89.3 265.8 89.3 259 85.1 254.8C80.9 250.6 74.1001 250.6 69.9001 254.8ZM191.8 436.6C214.4 436.6 232.7 418.3 232.7 395.7C232.7 391.3 229.1 387.7 224.7 387.7C220.3 387.7 216.7 391.3 216.7 395.7C216.7 409.4 205.5 420.6 191.8 420.6H159.6C137 420.6 118.7 438.9 118.7 461.5C118.7 465.9 122.3 469.5 126.7 469.5C131.1 469.5 134.7 465.9 134.7 461.5C134.7 447.8 145.9 436.6 159.6 436.6H191.8ZM264 427.1C259.6 427.1 256 430.7 256 435.1C256 448.8 244.8 460 231.1 460H198.9C176.3 460 158 478.3 158 500.9C158 505.3 161.6 508.9 166 508.9C170.4 508.9 174 505.3 174 500.9C174 487.2 185.2 476 198.9 476H231.1C253.7 476 272 457.7 272 435.1C272 430.7 268.5 427.1 264 427.1ZM99.8 283.9C95.6 288.1 95.6 294.9 99.8 299.1C104 303.3 110.8 303.3 115 299.1C119.2 294.9 119.2 288.1 115 283.9C110.8 279.7 104 279.7 99.8 283.9ZM37.2 287.6C33 291.8 33 298.6 37.2 302.8C41.4 307 48.2 307 52.4 302.8C56.6 298.6 56.6 291.8 52.4 287.6C48.2 283.4 41.4 283.4 37.2 287.6ZM67.1 318.6C62.9 322.8 62.9 329.6 67.1 333.8C71.3 338 78.1001 338 82.3001 333.8C86.5001 329.6 86.5001 322.8 82.3001 318.6C78.1001 314.5 71.3 314.5 67.1 318.6ZM69.9001 287.6C65.7001 291.8 65.7001 298.6 69.9001 302.8C74.1001 307 80.9 307 85.1 302.8C89.3 298.6 89.3 291.8 85.1 287.6C80.9 283.4 74.1001 283.4 69.9001 287.6ZM37.2 322.3C33 326.5 33 333.3 37.2 337.5C41.4 341.7 48.2 341.7 52.4 337.5C56.6 333.3 56.6 326.5 52.4 322.3C48.2 318.1 41.4 318.1 37.2 322.3Z" fill="black"/>
<g opacity="0.25">
<path d="M24.3 25.7002H68.8001V70.2002H24.3V25.7002Z" fill="black"/>
<path d="M92.7002 25.7002H137.2V70.2002H92.7002V25.7002ZM160.6 70.2002H182.8V25.7002H160.6V70.2002Z" fill="black"/>
</g>
<path opacity="0.25" d="M66.3 186.1C66.3 190.5 62.7 194.1 58.3 194.1H54.4V198C54.4 202.4 50.8 206 46.4 206C42 206 38.4 202.4 38.4 198V194.1H34.5C30.1 194.1 26.5 190.5 26.5 186.1C26.5 181.7 30.1 178.1 34.5 178.1H38.4V174.2C38.4 169.8 42 166.2 46.4 166.2C50.8 166.2 54.4 169.8 54.4 174.2V178.1H58.3C62.7 178.1 66.3 181.7 66.3 186.1ZM473.2 345.6C470.1 342.5 465 342.5 461.9 345.6L450.7 356.8L439.5 345.6C436.4 342.5 431.3 342.5 428.2 345.6C425.1 348.7 425.1 353.8 428.2 356.9L439.4 368.1L428.2 379.3C425.1 382.4 425.1 387.5 428.2 390.6C429.8 392.2 431.8 392.9 433.9 392.9C436 392.9 438 392.1 439.6 390.6L450.8 379.4L462 390.6C463.6 392.2 465.6 392.9 467.7 392.9C469.8 392.9 471.8 392.1 473.4 390.6C476.5 387.5 476.5 382.4 473.4 379.3L462 368.1L473.2 356.9C476.3 353.8 476.3 348.7 473.2 345.6ZM446.9 264.5H489.9C494.3 264.5 497.9 260.9 497.9 256.5C497.9 252.1 494.3 248.5 489.9 248.5H446.9C442.5 248.5 438.9 252.1 438.9 256.5C438.9 260.9 442.5 264.5 446.9 264.5ZM489.9 276.4H401.8C397.4 276.4 393.8 280 393.8 284.4C393.8 288.8 397.4 292.4 401.8 292.4H489.9C494.3 292.4 497.9 288.8 497.9 284.4C497.9 280 494.3 276.4 489.9 276.4ZM255.5 91.5H87.8C83.4 91.5 79.8 95.1 79.8 99.5C79.8 103.9 83.4 107.5 87.8 107.5H255.5C259.9 107.5 263.5 103.9 263.5 99.5C263.5 95.1 260 91.5 255.5 91.5ZM217.8 120.7H150.4C146 120.7 142.4 124.3 142.4 128.7C142.4 133.1 146 136.7 150.4 136.7H217.8C222.2 136.7 225.8 133.1 225.8 128.7C225.8 124.3 222.3 120.7 217.8 120.7ZM388.6 413.2L326.3 475.5C323.2 478.6 323.2 483.7 326.3 486.8C327.9 488.4 329.9 489.1 332 489.1C334.1 489.1 336.1 488.3 337.7 486.8L400 424.5C403.1 421.4 403.1 416.3 400 413.2C396.8 410.1 391.7 410.1 388.6 413.2Z" fill="black"/>
</svg>
