<svg width="512" height="512" viewBox="0 0 512 512" fill="none" xmlns="http://www.w3.org/2000/svg">
<path opacity="0.25" d="M300.6 128.1H417.2V428.7H239.6H217H16.3999V389.5C16.3999 364.7 36.4999 344.6 61.2999 344.6H134.6C180.1 344.6 217 307.7 217 262.2V211.7C217 165.6 254.4 128.1 300.6 128.1Z" fill="black"/>
<path d="M417.2 436.7H16.3999C11.9999 436.7 8.39991 433.1 8.39991 428.7C8.39991 428.5 8.39991 428.4 8.39991 428.2C8.29991 426.4 8.89991 424.6 10.0999 423.1L138.2 257.1L24.3999 151V378C24.3999 382.4 20.7999 386 16.3999 386C11.9999 386 8.39991 382.4 8.39991 378V132.6C8.39991 132.6 8.39991 132.6 8.39991 132.5V128.1C8.39991 123.7 11.9999 120.1 16.3999 120.1H417.2C421.6 120.1 425.2 123.7 425.2 128.1C425.2 128.9 425.1 129.6 424.9 130.3C425.7 133.1 424.9 136.2 422.7 138.4L295.4 257.1L409.2 404.5V261.3C409.2 256.9 412.8 253.3 417.2 253.3C421.6 253.3 425.2 256.9 425.2 261.3V428.8C425.2 433.2 421.6 436.7 417.2 436.7ZM32.6999 420H400.9L283.6 268.1L222.2 325.3C219.1 328.2 214.4 328.2 211.3 325.3L150 268.1L32.6999 420ZM31.8999 136.1L216.8 308.5L401.6 136.1H31.8999ZM417.2 234C412.8 234 409.2 230.4 409.2 226V171.4C409.2 167 412.8 163.4 417.2 163.4C421.6 163.4 425.2 167 425.2 171.4V226C425.2 230.4 421.6 234 417.2 234Z" fill="black"/>
<g opacity="0.25">
<path d="M122.7 95.8996V74.0996H179.6V95.8996H122.7ZM84.6001 95.8996V74.0996H27.6001V95.8996H84.6001Z" fill="black"/>
<path d="M217.8 95.8996V74.0996H274.7V95.8996H217.8Z" fill="black"/>
</g>
<path opacity="0.25" d="M503.4 51.2004C503.4 55.6004 499.8 59.2004 495.4 59.2004H479.6V75.0004C479.6 79.4004 476 83.0004 471.6 83.0004C467.2 83.0004 463.6 79.4004 463.6 75.0004V59.2004H447.8C443.4 59.2004 439.8 55.6004 439.8 51.2004C439.8 46.8004 443.4 43.2004 447.8 43.2004H463.6V27.4004C463.6 23.0004 467.2 19.4004 471.6 19.4004C476 19.4004 479.6 23.0004 479.6 27.4004V43.2004H495.4C499.8 43.2004 503.4 46.7004 503.4 51.2004ZM461 252.3H373.4C369 252.3 365.4 255.9 365.4 260.3C365.4 264.7 369 268.3 373.4 268.3H461C465.4 268.3 469 264.7 469 260.3C469 255.9 465.4 252.3 461 252.3ZM462 217H418.2C413.8 217 410.2 220.6 410.2 225C410.2 229.4 413.8 233 418.2 233H462C466.4 233 470 229.4 470 225C470 220.6 466.4 217 462 217ZM320.3 59.2004H407.9C412.3 59.2004 415.9 55.6004 415.9 51.2004C415.9 46.8004 412.3 43.2004 407.9 43.2004H320.3C315.9 43.2004 312.3 46.8004 312.3 51.2004C312.3 55.6004 315.9 59.2004 320.3 59.2004ZM417.2 472.2H239.6C235.2 472.2 231.6 475.8 231.6 480.2C231.6 484.6 235.2 488.2 239.6 488.2H417.2C421.6 488.2 425.2 484.6 425.2 480.2C425.2 475.8 421.6 472.2 417.2 472.2ZM181.9 480.2C181.9 485.2 177.8 489.2 172.9 489.2C168 489.2 163.9 485.1 163.9 480.2C163.9 475.3 168 471.2 172.9 471.2C177.8 471.2 181.9 475.2 181.9 480.2ZM211.9 480.2C211.9 485.2 207.8 489.2 202.9 489.2C198 489.2 193.9 485.1 193.9 480.2C193.9 475.3 198 471.2 202.9 471.2C207.8 471.2 211.9 475.2 211.9 480.2ZM498 369C498 383.6 486.2 395.4 471.6 395.4C457 395.4 445.2 383.6 445.2 369C445.2 354.4 457 342.6 471.6 342.6C486.2 342.6 498 354.5 498 369ZM482 369C482 363.3 477.3 358.6 471.6 358.6C465.9 358.6 461.2 363.3 461.2 369C461.2 374.7 465.9 379.4 471.6 379.4C477.3 379.4 482 374.8 482 369Z" fill="black"/>
</svg>
