<svg width="512" height="512" viewBox="0 0 512 512" fill="none" xmlns="http://www.w3.org/2000/svg">
<path opacity="0.25" d="M168.6 344.4C168.6 369.4 148.2 389.8 123.2 389.8C117.8 389.8 112.6 388.8 107.8 387.1C125.3 380.8 137.8 364 137.8 344.4C137.8 324.8 125.2 308 107.8 301.7C112.6 299.9 117.8 299 123.2 299C148.1 299 168.6 319.4 168.6 344.4ZM361.7 218.8C366.5 220.6 371.7 221.5 377.1 221.5C402.1 221.5 422.5 201.1 422.5 176.1C422.5 151.1 402.1 130.7 377.1 130.7C371.7 130.7 366.5 131.7 361.7 133.4C379.2 139.7 391.7 156.5 391.7 176.1C391.7 195.6 379.2 212.4 361.7 218.8ZM125.1 82.2998C119.7 82.2998 114.5 83.2998 109.7 84.9998C127.2 91.2998 139.7 108.1 139.7 127.7C139.7 147.3 127.1 164.1 109.7 170.4C114.5 172.2 119.7 173.1 125.1 173.1C150.1 173.1 170.5 152.7 170.5 127.7C170.5 102.7 150.1 82.2998 125.1 82.2998ZM377 341C371.6 341 366.4 342 361.6 343.7C379.1 350 391.6 366.8 391.6 386.4C391.6 406 379 422.8 361.6 429.1C366.4 430.9 371.6 431.8 377 431.8C402 431.8 422.4 411.4 422.4 386.4C422.4 361.5 402 341 377 341Z" fill="black"/>
<path d="M377.6 333C352.5 333 331.4 350.4 325.7 373.8L178.1 338C177 328.6 173.4 320 168.1 312.8L342.9 217C352.2 224.7 364.1 229.4 377.1 229.4C406.5 229.4 430.5 205.4 430.5 176C430.5 146.6 406.5 122.6 377.1 122.6C351.1 122.6 329.4 141.3 324.7 165.9L178.6 127.7V127.6C178.6 98.2002 154.6 74.2002 125.2 74.2002C95.8 74.2002 71.8 98.2002 71.8 127.6C71.8 157 95.8 181 125.2 181C149.1 181 169.3 165.3 176.1 143.6L324.1 182.2C325.1 190.4 327.9 198 332.1 204.6L156.3 301C147.5 294.7 136.8 290.9 125.2 290.9C95.8 290.9 71.8 314.9 71.8 344.3C71.8 373.7 95.8 397.7 125.2 397.7C151.2 397.7 173 379 177.7 354.2L324.3 390C326.1 417.8 349.3 439.9 377.6 439.9C407 439.9 431 415.9 431 386.5C431 357.1 407 333 377.6 333ZM125.1 165.1C104.5 165.1 87.7 148.3 87.7 127.7C87.7 107.1 104.5 90.3002 125.1 90.3002C145.7 90.3002 162.5 107.1 162.5 127.7C162.5 148.3 145.7 165.1 125.1 165.1ZM377 138.6C397.6 138.6 414.4 155.4 414.4 176C414.4 196.6 397.6 213.4 377 213.4C366.5 213.4 357.1 209.1 350.3 202.2C350 201.9 349.7 201.6 349.4 201.3C343.3 194.6 339.6 185.8 339.6 176.1C339.6 155.4 356.4 138.6 377 138.6ZM125.1 381.8C104.5 381.8 87.7 365 87.7 344.4C87.7 323.8 104.5 307 125.1 307C134.5 307 143 310.5 149.6 316.2C149.9 316.5 150.2 316.8 150.5 317C157.8 323.8 162.4 333.6 162.4 344.4C162.5 365 145.7 381.8 125.1 381.8ZM377.6 423.8C357 423.8 340.2 407 340.2 386.4C340.2 365.8 357 349 377.6 349C398.2 349 415 365.8 415 386.4C415 407 398.2 423.8 377.6 423.8Z" fill="black"/>
<path d="M417.6 65.7004C417.6 61.3004 421.2 57.7004 425.6 57.7004H441.4V41.9004C441.4 37.5004 445 33.9004 449.4 33.9004C453.8 33.9004 457.4 37.5004 457.4 41.9004V57.7004H473.2C477.6 57.7004 481.2 61.3004 481.2 65.7004C481.2 70.1004 477.6 73.7004 473.2 73.7004H457.4V89.5004C457.4 93.9004 453.8 97.5004 449.4 97.5004C445 97.5004 441.4 93.9004 441.4 89.5004V73.7004H425.6C421.1 73.7004 417.6 70.1004 417.6 65.7004ZM226.8 452.5H211V436.7C211 432.3 207.4 428.7 203 428.7C198.6 428.7 195 432.3 195 436.7V452.5H179.2C174.8 452.5 171.2 456.1 171.2 460.5C171.2 464.9 174.8 468.5 179.2 468.5H195V484.3C195 488.7 198.6 492.3 203 492.3C207.4 492.3 211 488.7 211 484.3V468.5H226.8C231.2 468.5 234.8 464.9 234.8 460.5C234.8 456.1 231.2 452.5 226.8 452.5ZM127.4 216.7H84.4C80 216.7 76.4 220.3 76.4 224.7C76.4 229.1 80 232.7 84.4 232.7H127.4C131.8 232.7 135.4 229.1 135.4 224.7C135.4 220.2 131.8 216.7 127.4 216.7ZM105.9 246.7H32.1C27.7 246.7 24.1 250.3 24.1 254.7C24.1 259.1 27.7 262.7 32.1 262.7H105.9C110.3 262.7 113.9 259.1 113.9 254.7C113.9 250.3 110.3 246.7 105.9 246.7ZM497 437.5H454C449.6 437.5 446 441.1 446 445.5C446 449.9 449.6 453.5 454 453.5H497C501.4 453.5 505 449.9 505 445.5C505 441.1 501.4 437.5 497 437.5ZM475.5 467.5H401.7C397.3 467.5 393.7 471.1 393.7 475.5C393.7 479.9 397.3 483.5 401.7 483.5H475.5C479.9 483.5 483.5 479.9 483.5 475.5C483.5 471.1 479.9 467.5 475.5 467.5Z" fill="black" fill-opacity="0.25"/>
<g opacity="0.25">
<path d="M189.4 41.3996V19.5996H332.2V41.3996H189.4V41.3996Z" fill="black"/>
<path d="M23 41.3996V19.5996H165.8V41.3996H23V41.3996ZM29.2 481H90.1L29.2 420.1V481V481Z" fill="black"/>
</g>
</svg>
