<svg width="512" height="512" viewBox="0 0 512 512" fill="none" xmlns="http://www.w3.org/2000/svg">
<path opacity="0.25" d="M336.7 274.5L481.7 133.8L363.8 419.2L346.4 406.7C302.7 375.3 298.1 312 336.7 274.5ZM158.8 214.6C131.3 222.9 127.9 260.4 153.4 273.5L159.1 276.4L481.6 117.5L158.8 214.6Z" fill="black"/>
<path d="M495.7 119.8C495.7 119.7 495.7 119.6 495.8 119.5C495.8 119.4 495.8 119.4 495.8 119.3C495.8 119.2 495.8 119.1 495.9 119C495.9 118.9 495.9 118.8 495.9 118.7C495.9 118.5 495.9 118.4 496 118.2C496 118.2 496 118.2 496 118.1C496 118 496 117.9 496 117.8C496 117.7 496 117.5 496 117.4C496 117.3 496 117.1 496 117C496 116.9 496 116.9 496 116.8C496 116.7 496 116.7 496 116.6C496 116.4 495.9 116.2 495.9 115.9V115.8V115.7C495.9 115.7 495.9 115.7 495.9 115.6C495.9 115.4 495.8 115.2 495.7 115C495.7 115 495.7 115 495.7 114.9C495.7 114.8 495.6 114.7 495.6 114.5C495.6 114.4 495.5 114.4 495.5 114.3C495.5 114.2 495.5 114.2 495.4 114.1C495.4 114 495.3 114 495.3 113.9C495.2 113.7 495.1 113.5 495 113.3C495 113.3 495 113.2 494.9 113.2C494.8 113 494.7 112.8 494.5 112.6C494.4 112.5 494.4 112.4 494.3 112.3L494.2 112.2C494.1 112.1 494.1 112.1 494 112C494 111.9 493.9 111.9 493.9 111.9C493.8 111.8 493.6 111.6 493.5 111.5L493.4 111.4L493.3 111.3C493.2 111.2 493.1 111.1 493 111C492.9 110.9 492.8 110.9 492.7 110.8C492.6 110.8 492.6 110.7 492.5 110.7L492.4 110.6C492.3 110.5 492.2 110.5 492.1 110.4C492 110.3 491.9 110.3 491.7 110.2C491.6 110.2 491.6 110.1 491.5 110.1C491.5 110.1 491.4 110.1 491.4 110C491.3 109.9 491.1 109.9 491 109.8C490.9 109.8 490.8 109.7 490.8 109.7C490.6 109.6 490.5 109.6 490.3 109.5C490.2 109.5 490.2 109.5 490.1 109.5C489.9 109.5 489.7 109.4 489.5 109.4C489.4 109.4 489.4 109.4 489.3 109.4C489.2 109.4 489.2 109.4 489.1 109.4C489 109.4 488.8 109.4 488.7 109.4C488.6 109.4 488.5 109.4 488.5 109.4C488.3 109.4 488.2 109.4 488 109.4C487.9 109.4 487.7 109.4 487.6 109.4C487.5 109.4 487.3 109.4 487.2 109.4C487.1 109.4 487 109.4 486.9 109.4C486.8 109.4 486.8 109.4 486.7 109.4C486.7 109.4 486.7 109.4 486.6 109.4C486.5 109.4 486.5 109.4 486.4 109.4C486.4 109.4 486.4 109.4 486.3 109.4L64.1001 198.7C59.8001 199.6 57.0001 203.9 57.9001 208.2C58.7001 212 62.0001 214.6 65.7001 214.6C66.2001 214.6 66.8001 214.5 67.4001 214.4L429.5 138.2L158.6 274.5L36.3001 206.5C32.4001 204.4 27.6001 205.7 25.4001 209.6C23.3001 213.5 24.6001 218.3 28.5001 220.5L154.5 290.5C156.8 291.8 159.6 291.8 162 290.7L397.1 172.4L208.8 306.1C208.6 306.2 208.5 306.3 208.4 306.4C208.3 306.4 208.3 306.5 208.2 306.5C208 306.7 207.8 306.9 207.6 307.1C207.6 307.1 207.6 307.1 207.5 307.2C207.3 307.4 207.1 307.6 207 307.8C207 307.9 206.9 307.9 206.9 308C206.8 308.2 206.6 308.4 206.5 308.6C206.5 308.7 206.4 308.7 206.4 308.8C206.3 309 206.2 309.2 206.1 309.4C206.1 309.5 206 309.5 206 309.6C205.9 309.9 205.8 310.2 205.7 310.4L185.7 383.7L170.3 303C169.5 298.7 165.3 295.8 160.9 296.6C156.6 297.4 153.7 301.6 154.5 306L176.4 420.8V420.9C176.4 421 176.5 421.2 176.5 421.3C176.5 421.4 176.6 421.5 176.6 421.6C176.6 421.7 176.7 421.8 176.7 421.9C176.7 422 176.8 422.2 176.9 422.3C176.9 422.4 177 422.5 177 422.6C177.1 422.8 177.2 423 177.3 423.2C177.4 423.4 177.6 423.6 177.7 423.8C177.7 423.8 177.7 423.9 177.8 423.9C177.9 424.1 178.1 424.3 178.3 424.5C178.3 424.6 178.4 424.6 178.4 424.7C178.6 424.9 178.8 425.1 179 425.3C179.1 425.4 179.1 425.4 179.2 425.4C179.4 425.5 179.5 425.6 179.7 425.8C179.8 425.9 179.9 425.9 179.9 426C180.1 426.1 180.3 426.3 180.5 426.4C180.5 426.4 180.6 426.4 180.6 426.5C180.8 426.6 181.1 426.7 181.3 426.8C181.4 426.8 181.5 426.9 181.5 426.9C181.7 427 181.9 427 182.1 427.1C182.2 427.1 182.2 427.1 182.3 427.1C182.6 427.2 182.8 427.2 183.1 427.2C183.2 427.2 183.2 427.2 183.3 427.2C183.5 427.2 183.6 427.2 183.8 427.2C183.9 427.2 183.9 427.2 184 427.2H184.1H184.2C184.6 427.2 184.9 427.2 185.2 427.1C185.3 427.1 185.3 427.1 185.4 427.1C185.8 427 186.1 427 186.5 426.8C186.5 426.8 186.5 426.8 186.6 426.8C187.4 426.5 188.2 426.1 188.9 425.6L273.7 363.9L363.8 425.8C365.1 426.7 366.7 427.2 368.3 427.2C369.1 427.2 369.9 427.1 370.6 426.9C372.9 426.2 374.8 424.5 375.7 422.2L495.2 120.7C495.2 120.6 495.3 120.5 495.3 120.4C495.7 120.1 495.7 120 495.7 119.8ZM198 399.4L218.1 325.6L259.9 354.3L198 399.4ZM364.8 407L227.4 312.5L470.7 139.8L364.8 407Z" fill="black"/>
<path opacity="0.25" d="M409.7 306.4H452.7C457.1 306.4 460.7 310 460.7 314.4C460.7 318.8 457.1 322.4 452.7 322.4H409.7C405.3 322.4 401.7 318.8 401.7 314.4C401.7 310 405.3 306.4 409.7 306.4ZM439.2 344.4C439.2 340 435.6 336.4 431.2 336.4H357.4C353 336.4 349.4 340 349.4 344.4C349.4 348.8 353 352.4 357.4 352.4H431.2C435.6 352.4 439.2 348.8 439.2 344.4ZM89.5 109.6H73.8001V93.8C73.8001 89.4 70.2001 85.8 65.8001 85.8C61.4001 85.8 57.8 89.4 57.8 93.8V109.6H42C37.6 109.6 34 113.2 34 117.6C34 122 37.6 125.6 42 125.6H57.8V141.4C57.8 145.8 61.4001 149.4 65.8001 149.4C70.2001 149.4 73.8001 145.8 73.8001 141.4V125.6H89.6C94 125.6 97.6001 122 97.6001 117.6C97.6001 113.2 94 109.6 89.5 109.6ZM318 67.8C338.3 67.8 354.8 51.3 354.8 31C354.8 26.6 351.2 23 346.8 23C342.4 23 338.8 26.6 338.8 31C338.8 42.4 329.5 51.8 318 51.8C313.6 51.8 310 55.4 310 59.8C310 64.2 313.6 67.8 318 67.8ZM396.8 67.8C401.2 67.8 404.8 64.2 404.8 59.8C404.8 55.4 401.2 51.8 396.8 51.8C385.4 51.8 376 42.5 376 31C376 26.6 372.4 23 368 23C363.6 23 360 26.6 360 31C360 51.4 376.5 67.8 396.8 67.8ZM368 117.8C372.4 117.8 376 114.2 376 109.8C376 98.4 385.3 89 396.8 89C401.2 89 404.8 85.4 404.8 81C404.8 76.6 401.2 73 396.8 73C376.5 73 360 89.5 360 109.8C360 114.3 363.6 117.8 368 117.8ZM354.8 109.8C354.8 89.5 338.3 73 318 73C313.6 73 310 76.6 310 81C310 85.4 313.6 89 318 89C329.4 89 338.8 98.3 338.8 109.8C338.8 114.2 342.4 117.8 346.8 117.8C351.2 117.8 354.8 114.3 354.8 109.8ZM272.1 451.8H268.2V447.9C268.2 443.5 264.6 439.9 260.2 439.9C255.8 439.9 252.2 443.5 252.2 447.9V451.8H248.3C243.9 451.8 240.3 455.4 240.3 459.8C240.3 464.2 243.9 467.8 248.3 467.8H252.2V471.7C252.2 476.1 255.8 479.7 260.2 479.7C264.6 479.7 268.2 476.1 268.2 471.7V467.8H272.1C276.5 467.8 280.1 464.2 280.1 459.8C280.1 455.4 276.5 451.8 272.1 451.8ZM468.1 445.4C468.1 460 456.3 471.8 441.7 471.8C427.1 471.8 415.3 460 415.3 445.4C415.3 430.8 427.1 419 441.7 419C456.3 419 468.1 430.9 468.1 445.4ZM452.1 445.4C452.1 439.7 447.4 435 441.7 435C436 435 431.3 439.7 431.3 445.4C431.3 451.1 436 455.8 441.7 455.8C447.4 455.8 452.1 451.2 452.1 445.4ZM77.8001 319.2H34.8C30.4 319.2 26.8 322.8 26.8 327.2C26.8 331.6 30.4 335.2 34.8 335.2H77.8001C82.2001 335.2 85.8001 331.6 85.8001 327.2C85.8001 322.8 82.2001 319.2 77.8001 319.2Z" fill="black"/>
</svg>
