<svg width="512" height="512" viewBox="0 0 512 512" fill="none" xmlns="http://www.w3.org/2000/svg">
<g opacity="0.25">
<path d="M344.8 193.7L225.8 283C225.8 283 194 259.4 247.9 225.1C301.8 190.8 271.5 160.4 271.5 160.4C271.5 160.4 197 73.4002 185.3 56.3002C173.5 39.2002 189.7 12.7002 189.7 12.7002L344.8 193.7Z" fill="black"/>
<path d="M450.5 332.601V468.701C450.5 473.801 446.4 477.901 441.3 477.901H427.1C422 477.901 417.9 473.801 417.9 468.701V318.401C417.9 313.301 422 309.201 427.1 309.201C440 309.201 450.5 319.701 450.5 332.601ZM337.1 328.301V328.401C337 338.601 331 347.901 321.7 352.101C293.9 364.701 236.3 390.801 216.3 399.801C189.6 411.801 178.3 399.801 178.3 399.801L95.0999 336.801C85.8999 348.501 96.5999 364.101 96.5999 364.101L99.2999 366.501L184.3 430.201C184.6 430.401 185 430.501 185.3 430.701C186.5 431.501 187.8 432.101 189.1 432.701C189.5 432.901 189.9 433.201 190.4 433.301C190.6 433.401 190.8 433.401 191 433.401C192.9 434.001 194.9 434.301 196.9 434.301C197 434.301 197 434.301 197.1 434.301C199 434.301 200.8 434.001 202.7 433.501C202.8 433.501 202.9 433.501 202.9 433.501L339.6 394.401L387.3 442.101C387.6 442.401 388.2 442.201 388.2 441.701V328.401L367.8 313.101C355.2 303.601 337.2 312.501 337.1 328.301Z" fill="black"/>
</g>
<path d="M430.7 299.1H409.5C398.2 299.1 388.5 305.5 383.6 314.8L342.1 283.7C341.7 283.4 341.3 283.2 341 283C338.7 281.5 336.4 280.6 334.2 279.8H334.1C333.5 279.5 332.6 279 331.3 278.7C329.4 278.3 327.6 278.3 326.4 278.3C326.1 278.3 325.8 278.3 325.5 278.3C325.2 278.3 324.9 278.3 324.6 278.3C323.6 278.2 322.2 278.2 320.7 278.3C320.2 278.3 319.6 278.3 319 278.5L212.8 299.7C197 302.9 186.7 318.3 189.9 334.1C192.6 347.7 204.7 357.6 218.6 357.6C220.6 357.6 222.5 357.4 224.4 357L243.8 353.1L199.6 378.3L130 326.1C117.1 316.4 98.6998 319.1 89.0998 332C84.3998 338.2 82.3998 345.9 83.4998 353.7C84.5998 361.4 88.6998 368.3 94.8998 373L179.9 436.7C180.1 436.8 180.3 437 180.5 437.1C181 437.4 181.4 437.6 181.7 437.8C183.1 438.7 184.6 439.5 186.2 440.1C186.6 440.4 187.4 440.8 188.3 441.1C188.8 441.3 189.2 441.4 189.6 441.4C192 442.1 194.3 442.4 196.6 442.5C196.9 442.5 197.2 442.5 197.4 442.5C199.7 442.5 202.1 442.2 204.5 441.6C204.8 441.6 205.1 441.5 205.4 441.4L337.5 403.6L380.5 446.6V455.7C380.5 471.8 393.6 484.9 409.7 484.9H430.9C447 484.9 460.1 471.8 460.1 455.7V328.4C460 312.2 446.9 299.1 430.7 299.1ZM444 455.8C444 463.1 438.1 469 430.8 469H409.6C402.3 469 396.4 463.1 396.4 455.8V443.4C396.4 441.3 395.6 439.2 394.1 437.7L345.4 389C343.9 387.5 341.8 386.7 339.7 386.7C339 386.7 338.2 386.8 337.5 387L201.3 425.9C201.2 425.9 201 426 200.8 426C200.7 426 200.7 426 200.6 426C199.5 426.3 198.5 426.5 197.5 426.5C197.3 426.5 197.2 426.5 197 426.5C195.9 426.5 194.7 426.3 193.3 425.9C193.2 425.9 193.2 425.9 193.1 425.9C192.8 425.8 192.5 425.6 192.1 425.4C191.2 425 190.4 424.6 189.8 424.2C189.4 423.9 189 423.7 188.6 423.5L104.1 360.1C101.3 358 99.3998 354.9 98.8998 351.4C98.3998 347.9 99.2998 344.4 101.4 341.6C105.8 335.8 114.1 334.6 119.9 339L193.7 394.3C196.3 396.2 199.7 396.4 202.5 394.8L287.9 346C290.1 344.8 291.5 342.6 291.9 340.1C292.2 337.6 291.4 335.1 289.6 333.4L287.7 331.5C285.8 329.6 283.1 328.8 280.5 329.3L220.8 341.2C220 341.4 219.1 341.5 218.2 341.5C211.9 341.5 206.5 337 205.2 330.9C203.8 323.7 208.4 316.7 215.6 315.3L321 294.2C321.4 294.2 321.8 294.2 322.2 294.1C322.4 294.1 323 294.1 323.5 294.1C323.9 294.1 324.4 294.1 324.8 294.2C325.3 294.2 325.8 294.2 326.3 294.2C326.6 294.2 326.9 294.2 327.2 294.2C327.6 294.4 328.1 294.6 328.6 294.8C329.9 295.3 331.2 295.8 332.1 296.4C332.4 296.6 332.7 296.8 332.9 296.9L381.8 333.6V418C381.8 421.9 384.9 425 388.8 425C392.7 425 395.8 421.9 395.8 418V330.4C396 329.8 396.1 329.1 396.1 328.4C396.1 321.1 402 315.2 409.3 315.2H430.5C437.8 315.2 443.7 321.1 443.7 328.4V455.8H444ZM225.8 291C227.5 291 229.2 290.5 230.6 289.4L349.6 200.1C351.4 198.8 352.5 196.8 352.8 194.6C353 192.4 352.4 190.2 350.9 188.5L195.7 7.49975C193 4.29975 188.2 3.79975 184.8 6.29975L65.7998 95.5998C63.9998 96.8998 62.8998 98.8998 62.5998 101.1C62.3998 103.3 62.9998 105.5 64.4998 107.2L219.7 288.2C221.3 290 223.5 291 225.8 291ZM188.5 23.5998L333.2 192.4L227 272.1L82.2998 103.2L188.5 23.5998ZM236.9 231.5L287.8 193.3C289.6 192 290.7 190 291 187.8C291.3 185.6 290.6 183.4 289.1 181.7L239.5 123.9C238.5 122.6 237.5 121.4 236.3 120.2L236.2 120.1L189.3 65.3998C186.6 62.1998 181.8 61.6997 178.4 64.1997L127.5 102.4C125.7 103.7 124.6 105.7 124.3 107.9C124.1 110.1 124.7 112.3 126.2 114L175.8 171.8C176.8 173.1 177.8 174.3 179 175.5L179.1 175.6L226 230.3C227.6 232.1 229.8 233.1 232.1 233.1C233.8 233.1 235.5 232.6 236.9 231.5ZM168.9 139L144 110L182.1 81.3998L204.9 108C187.2 109.3 172.7 122.1 168.9 139ZM191.1 164.9L188.5 161.8C185.5 157.7 183.9 152.9 183.9 147.8C183.9 134.6 194.6 123.9 207.8 123.9C214.1 123.9 220 126.3 224.5 130.7L227.1 133.8C230.1 137.9 231.7 142.7 231.7 147.8C231.7 161 221 171.7 207.8 171.7C201.5 171.7 195.5 169.3 191.1 164.9ZM210.5 187.6C228.2 186.4 242.7 173.5 246.6 156.7L271.4 185.7L233.3 214.3L210.5 187.6Z" fill="black"/>
<g opacity="0.25">
<path d="M48.5 291.7V326.9H27V291.7H48.5Z" fill="black"/>
<path d="M48.5 355.601V390.801H27V355.601H48.5Z" fill="black"/>
<path d="M471.6 289.3L440.2 257.9L471.2 226.9L471.6 289.3Z" fill="black"/>
</g>
<path opacity="0.25" d="M357 46.5996H297.8C293.4 46.5996 289.8 42.9996 289.8 38.5996C289.8 34.1996 293.4 30.5996 297.8 30.5996H357C361.4 30.5996 365 34.1996 365 38.5996C365 42.9996 361.5 46.5996 357 46.5996ZM20.7999 46.5996H79.9999C84.3999 46.5996 87.9999 42.9996 87.9999 38.5996C87.9999 34.1996 84.3999 30.5996 79.9999 30.5996H20.7999C16.3999 30.5996 12.7999 34.1996 12.7999 38.5996C12.7999 42.9996 16.2999 46.5996 20.7999 46.5996ZM333.5 115.1C330.6 111.7 325.6 111.4 322.2 114.2C318.8 117.1 318.5 122.1 321.3 125.5L398 215C399.6 216.8 401.8 217.8 404.1 217.8C405.9 217.8 407.8 217.2 409.3 215.9C412.7 213 413 208 410.2 204.6L333.5 115.1ZM94.7999 179.8L18.0999 90.2996C15.1999 86.8996 10.1999 86.5996 6.79995 89.3996C3.39995 92.2996 3.09995 97.2996 5.89995 100.7L82.5999 190.2C84.1999 192 86.3999 193 88.6999 193C90.4999 193 92.3999 192.4 93.8999 191.1C97.2999 188.2 97.6999 183.2 94.7999 179.8ZM468.1 98.1996C447.8 98.1996 431.3 114.7 431.3 135C431.3 139.4 434.9 143 439.3 143C443.7 143 447.3 139.4 447.3 135C447.3 123.6 456.6 114.2 468.1 114.2C472.5 114.2 476.1 110.6 476.1 106.2C476.1 101.8 472.5 98.1996 468.1 98.1996ZM389.3 98.1996C384.9 98.1996 381.3 101.8 381.3 106.2C381.3 110.6 384.9 114.2 389.3 114.2C400.7 114.2 410.1 123.5 410.1 135C410.1 139.4 413.7 143 418.1 143C422.5 143 426.1 139.4 426.1 135C426.1 114.7 409.6 98.1996 389.3 98.1996ZM418.1 48.1996C413.7 48.1996 410.1 51.7996 410.1 56.1996C410.1 67.5996 400.8 76.9996 389.3 76.9996C384.9 76.9996 381.3 80.5996 381.3 84.9996C381.3 89.3996 384.9 92.9996 389.3 92.9996C409.6 92.9996 426.1 76.4996 426.1 56.1996C426.1 51.6996 422.5 48.1996 418.1 48.1996ZM468.1 92.8996C472.5 92.8996 476.1 89.2996 476.1 84.8996C476.1 80.4996 472.5 76.8996 468.1 76.8996C456.7 76.8996 447.3 67.5996 447.3 56.0996C447.3 51.6996 443.7 48.0996 439.3 48.0996C434.9 48.0996 431.3 51.6996 431.3 56.0996C431.3 76.3996 447.8 92.8996 468.1 92.8996ZM148.8 272.6C153.2 272.6 156.8 269 156.8 264.6C156.8 260.2 153.2 256.6 148.8 256.6H133V240.8C133 236.4 129.4 232.8 125 232.8C120.6 232.8 117 236.4 117 240.8V256.6H101.2C96.7999 256.6 93.1999 260.2 93.1999 264.6C93.1999 269 96.7999 272.6 101.2 272.6H117V288.4C117 292.8 120.6 296.4 125 296.4C129.4 296.4 133 292.8 133 288.4V272.6H148.8ZM82.4999 459.5C82.4999 474.1 70.6999 485.9 56.0999 485.9C41.4999 485.9 29.6999 474.1 29.6999 459.5C29.6999 444.9 41.4999 433.1 56.0999 433.1C70.6999 433.1 82.4999 445 82.4999 459.5ZM66.4999 459.5C66.4999 453.8 61.7999 449.1 56.0999 449.1C50.3999 449.1 45.6999 453.8 45.6999 459.5C45.6999 465.2 50.3999 469.9 56.0999 469.9C61.7999 469.9 66.4999 465.3 66.4999 459.5ZM335.4 449.8H331.5V445.9C331.5 441.5 327.9 437.9 323.5 437.9C319.1 437.9 315.5 441.5 315.5 445.9V449.8H311.6C307.2 449.8 303.6 453.4 303.6 457.8C303.6 462.2 307.2 465.8 311.6 465.8H315.5V469.7C315.5 474.1 319.1 477.7 323.5 477.7C327.9 477.7 331.5 474.1 331.5 469.7V465.8H335.4C339.8 465.8 343.4 462.2 343.4 457.8C343.4 453.4 339.8 449.8 335.4 449.8ZM35.5999 217.8V221.7C35.5999 226.1 39.1999 229.7 43.5999 229.7C47.9999 229.7 51.5999 226.1 51.5999 221.7V217.8H55.4999C59.8999 217.8 63.4999 214.2 63.4999 209.8C63.4999 205.4 59.8999 201.8 55.4999 201.8H51.5999V197.9C51.5999 193.5 47.9999 189.9 43.5999 189.9C39.1999 189.9 35.5999 193.5 35.5999 197.9V201.8H31.6999C27.2999 201.8 23.6999 205.4 23.6999 209.8C23.6999 214.2 27.2999 217.8 31.6999 217.8H35.5999ZM276.5 442.5C276.1 442.6 237.4 453.6 205.7 461.9C177.3 469.4 155.7 445.9 154.7 444.9C151.8 441.6 146.7 441.3 143.4 444.3C140.1 447.2 139.8 452.3 142.8 455.6C143.8 456.7 164.5 479.5 194.4 479.5C199.3 479.5 204.4 478.9 209.7 477.5C241.5 469.1 280.4 458.1 280.8 458C285.1 456.8 287.5 452.4 286.3 448.1C285.1 443.8 280.7 441.3 276.5 442.5Z" fill="black"/>
</svg>
