<svg width="512" height="512" viewBox="0 0 512 512" fill="none" xmlns="http://www.w3.org/2000/svg">
<g opacity="0.25">
<path d="M193.8 264.8C192.1 264.9 190.4 265 188.6 265C177.8 265 167.3 263.2 157.6 260L145.7 288.7L131.5 282.8L143.4 254C135.5 250 128.2 244.9 121.6 239C117.5 235.3 120.1 236.5 125.6 236.5H167.3C188.6 236.5 188.5 226.3 188.5 207.3H188.6C212 207.3 231 188.3 231 164.9C231 123.2 206.3 131.8 194.6 125.5C190.9 123.5 188.5 119.6 188.5 115.3V78.0002C188.5 70.6002 195 64.9002 202.4 65.9002H202.5C208.4 66.7002 214.1 68.1002 219.6 69.9002L231.5 41.2002L245.7 47.1002L233.8 75.9002C252.7 85.5002 268.1 100.9 277.7 119.8L306.5 107.9L312.4 122.1L283.7 134C286.9 143.8 288.7 154.2 288.7 165C288.7 170.9 288.2 176.7 287.2 182.3C286 182.3 284.8 182.2 283.6 182.2C236.3 182.1 197.5 218.6 193.8 264.8Z" fill="black"/>
<path d="M283.5 182.101C283.2 182.101 282.9 182.101 282.7 182.101C278.2 182.101 276.9 188.301 281 190.201C312.1 204.401 333.8 235.801 333.8 272.101C333.8 291.001 328 309.101 317 324.401C313.5 329.401 309.6 333.801 305.9 338.201C294.5 351.601 284.6 363.101 284.6 385.101V426.001C284.6 438.901 281.2 448.801 274.2 456.201C274.1 456.301 274 456.401 273.9 456.501C268.8 461.701 270.3 470.501 277.1 473.401C279.5 474.401 281.7 475.101 283.5 475.101C292.3 475.101 309.7 460.701 314 456.201C321 448.801 324.4 438.901 324.4 426.001V385.101C324.4 363.101 334.3 351.601 345.7 338.201C349.4 333.801 353.2 329.401 356.8 324.401C367.8 308.901 373.7 290.701 373.6 271.701C373.3 222.001 333.2 182.101 283.5 182.101Z" fill="black"/>
</g>
<path opacity="0.25" d="M22.8999 296H39.8999V491.3H22.8999V296ZM491 55.7998V38.7998H295.7V55.7998H491Z" fill="black"/>
<path d="M219.7 164.9C219.7 182 205.8 196 188.6 196C171.5 196 157.5 182.1 157.5 164.9C157.5 147.7 171.4 133.8 188.6 133.8C193 133.8 196.6 137.4 196.6 141.8C196.6 146.2 193 149.8 188.6 149.8C180.3 149.8 173.5 156.6 173.5 164.9C173.5 173.2 180.3 180 188.6 180C196.9 180 203.7 173.2 203.7 164.9C203.7 160.5 207.3 156.9 211.7 156.9C216.1 156.9 219.7 160.5 219.7 164.9ZM130.1 52.7002L141.6 47.8002L151.9 72.3002C153.5 76.1002 157.7 78.0002 161.6 76.8002C170.3 74.1002 179.4 72.8002 188.6 72.8002C197.3 72.8002 205.9 74.0002 214.3 76.4002C218.2 77.5002 222.4 75.5002 223.9 71.7002L233.9 47.1002L238.1 48.8002L228.1 73.4002C226.6 77.2002 228.1 81.5002 231.7 83.5002C247.6 92.0002 260.6 104.8 269.2 120.5C271.2 124.1 275.5 125.6 279.3 124L303.7 113.7L305.4 117.8L281 128.1C277.2 129.7 275.3 133.9 276.5 137.8C278.2 143.5 279.4 149.4 280 155.4C280.4 159.5 283.9 162.6 287.9 162.6C288.2 162.6 288.4 162.6 288.7 162.6C293.1 162.2 296.3 158.2 295.8 153.8C295.3 149.2 294.6 144.7 293.5 140.2L318.8 129.5C322.9 127.8 324.8 123.1 323.1 119L315.1 100.1C314.3 98.1002 312.7 96.6002 310.7 95.8002C308.7 95.0002 306.5 95.0002 304.6 95.8002L279.2 106.5C270.5 92.9002 258.9 81.5002 245.1 72.9002L255.5 47.4002C256.3 45.4002 256.3 43.2002 255.5 41.3002C254.7 39.4002 253.1 37.8002 251.1 37.0002L232.1 29.3002C228 27.6002 223.3 29.6002 221.7 33.7002L211.3 59.2002C195.6 55.8002 179.1 55.9002 163.5 59.6002L152.8 34.1002C152 32.1002 150.4 30.6002 148.4 29.8002C146.4 29.0002 144.2 29.0002 142.3 29.8002L123.4 37.8002C119.3 39.5002 117.4 44.2002 119.1 48.3002C121.3 52.5002 126 54.5002 130.1 52.7002ZM332.5 382.1C332.5 382.4 332.6 382.7 332.6 383.1C332.6 383.6 332.6 384 332.5 384.5C332.5 384.7 332.5 384.9 332.5 385.2V426C332.5 441 328.4 452.7 319.9 461.7C319.7 461.9 298 483.1 283.6 483.1C269 483.1 247.5 461.9 247.3 461.7C238.8 452.7 234.7 441.1 234.7 426V385.1C234.7 366.1 226.6 356.6 215.3 343.4C211.7 339.2 207.6 334.4 203.8 329.1C192 312.6 185.7 293.2 185.6 272.9C178.8 272.7 172 271.9 165.4 270.4L154.9 296C154.1 298 152.6 299.5 150.6 300.4C149.6 300.8 148.5 301 147.5 301C146.5 301 145.5 300.8 144.5 300.4L125.5 292.7C121.4 291 119.4 286.4 121.1 282.3L131.5 256.6C129.7 255.5 128 254.3 126.3 253.1H64.3C59.9 253.1 56.3 249.5 56.3 245.1C56.3 240.7 59.9 237.1 64.3 237.1H108.3C104.4 232.7 100.8 228 97.6 223.1L72 233.9C70 234.7 67.8 234.7 65.9 233.9C63.9 233.1 62.4 231.6 61.5 229.6L53.5 210.7C52.7 208.7 52.7 206.5 53.5 204.6C54.3 202.6 55.8 201.1 57.8 200.2L83.3 189.4C81.4 181.4 80.5 173.2 80.5 164.9C80.5 157.1 81.3 149.3 83 141.7L57.3 131.3C53.2 129.6 51.2 125 52.9 120.9L60.6 101.9C61.4 99.9002 62.9 98.4002 64.9 97.5002C66.9 96.7002 69.1 96.7002 71 97.5002L96.9 108C101.3 101 106.4 94.5002 112.3 88.7002C115.4 85.6002 120.5 85.6002 123.6 88.7002L134.5 99.6002C137.6 102.7 137.6 107.8 134.5 110.9C132.9 112.5 130.9 113.2 128.8 113.2C126.7 113.2 124.7 112.4 123.1 110.9L118.1 105.9C114 110.8 110.3 116.2 107.3 121.8C105.4 125.4 101 127 97.2 125.4L72.5 115.3L70.8 119.5L95.5 129.6C99.3 131.1 101.3 135.3 100.2 139.3C97.8 147.6 96.5 156.3 96.5 165C96.5 174.1 97.8 183.2 100.5 191.8C101.7 195.7 99.7 199.9 96 201.5L71.4 211.9L73.1 216L97.7 205.6C101.5 204 105.8 205.5 107.8 209.1C116.5 224.8 129.4 237.6 145.2 246.1C148.8 248 150.4 252.4 148.8 256.2L138.8 280.9L143 282.6L153 258C154.5 254.2 158.7 252.2 162.7 253.3C170.4 255.6 178.5 256.8 186.6 257C189.2 240.4 196 225.1 205.9 212.3C200.5 214.3 194.7 215.4 188.6 215.4C160.8 215.4 138.2 192.8 138.2 165C138.2 137.2 160.8 114.6 188.6 114.6C216.4 114.6 239 137.2 239 165C239 173.3 237 181.1 233.5 187.9C248.1 179.2 265.3 174.1 283.5 174.1C337.5 174.1 381.5 218.1 381.5 272.1C381.5 292.7 375.2 312.4 363.2 329.1C359.5 334.3 355.6 338.8 351.9 343.3L351.8 343.5C341.1 355.9 333.3 365.1 332.5 382.1ZM223 164.9C223 145.9 207.6 130.5 188.6 130.5C169.6 130.5 154.2 145.9 154.2 164.9C154.2 183.9 169.6 199.3 188.6 199.3C207.6 199.3 223 183.9 223 164.9ZM339.6 333L339.7 332.8C343.2 328.6 346.9 324.3 350.2 319.7C360.2 305.7 365.5 289.2 365.5 272C365.5 226.8 328.7 190 283.5 190C238.3 190 201.5 226.8 201.5 272C201.5 289.2 206.8 305.7 216.8 319.7C220.2 324.4 223.9 328.7 227.4 332.9C239.3 346.9 250.6 360.1 250.6 385V426C250.6 436.7 253.3 444.8 258.8 450.7C264.2 456.4 279 467.1 283.5 467.1C288 467.1 302.8 456.4 308.2 450.7C310.7 448 312.7 444.9 314 441.2H283.8C279.4 441.2 275.8 437.6 275.8 433.2C275.8 428.8 279.4 425.2 283.8 425.2H316.4V391.1H283.8C279.4 391.1 275.8 387.5 275.8 383.1C275.8 378.7 279.4 375.1 283.8 375.1H317C319.6 356.4 329.4 345 339.6 333ZM372.9 186.5C374.9 186.5 377 185.7 378.6 184.2L416 146.8C419.1 143.7 419.1 138.6 416 135.5C412.9 132.4 407.8 132.4 404.7 135.5L367.3 172.9C364.2 176 364.2 181.1 367.3 184.2C368.8 185.7 370.8 186.5 372.9 186.5ZM187.3 363.9L149.9 401.3C147.5 403.7 147.5 407.7 149.9 410.1C151.1 411.3 152.7 411.9 154.3 411.9C155.9 411.9 157.5 411.3 158.7 410.1L196.1 372.7C198.5 370.3 198.5 366.3 196.1 363.9C193.7 361.5 189.8 361.5 187.3 363.9ZM453 312.8L422 311.6C420.9 303 418.9 294.5 415.9 286.2C412.7 277.4 408.5 269.1 403.4 261.3L426.2 240.2C429.4 237.2 429.6 232.1 426.6 228.9L411.3 212.3C408.3 209.1 403.2 208.9 400 211.9C396.8 214.9 396.6 220 399.6 223.2L409.5 233.9L387.4 254.3C384.4 257.1 384 261.7 386.4 265C392.5 273.1 397.3 282 400.8 291.6C404.1 300.7 406.1 310.2 406.7 319.7C407 323.8 410.3 327 414.4 327.2L444.4 328.4L444.1 335L414.1 333.8C410 333.7 406.4 336.6 405.9 340.7C403.1 360.4 394.6 378.8 381.5 393.8C378.8 396.9 378.9 401.5 381.6 404.5L401.9 426.5L397.1 431L376.8 409C374 406 369.4 405.6 366.1 408C360.8 412 355.1 415.4 349.1 418.3C345.1 420.2 343.4 425 345.4 429C347.3 433 352.1 434.7 356.1 432.7C360.8 430.4 365.4 427.8 369.8 424.9L390.8 447.6C392.2 449.2 394.2 450.1 396.4 450.2C396.5 450.2 396.6 450.2 396.7 450.2C398.7 450.2 400.6 449.4 402.1 448.1L418.7 432.8C421.9 429.8 422.1 424.7 419.1 421.5L398.1 398.7C409.2 384.4 416.9 367.8 420.5 350L451.5 351.2C453.6 351.3 455.7 350.5 457.2 349.1C458.8 347.7 459.7 345.7 459.8 343.5L460.7 321C460.8 316.6 457.4 312.9 453 312.8Z" fill="black"/>
<path opacity="0.25" d="M408.4 484.5L492.8 400.1V484.5H408.4Z" fill="black"/>
<path opacity="0.25" d="M315.8 175.2C315.8 179.5 312.3 183 308 183H261.6C257.3 183 253.8 179.5 253.8 175.2C253.8 170.9 257.3 167.4 261.6 167.4H308C312.3 167.4 315.8 170.9 315.8 175.2ZM412.8 83.5002H359.9C355.5 83.5002 351.9 87.1002 351.9 91.5002C351.9 95.9002 355.5 99.5002 359.9 99.5002H412.8C417.2 99.5002 420.8 95.9002 420.8 91.5002C420.8 87.1002 417.2 83.5002 412.8 83.5002ZM469.4 383.3C470.4 384.9 470.8 386.8 470.4 388.6C469.7 391.9 466.8 394.2 463.5 394.2C463 394.2 462.5 394.1 462 394C458.2 393.2 455.8 389.4 456.6 385.6C457.4 381.8 461.2 379.4 465 380.2C466.8 380.6 468.3 381.7 469.4 383.3ZM464.6 381.8C461.7 381.2 458.8 383 458.1 386C457.5 388.9 459.3 391.8 462.3 392.5C465.2 393.1 468.1 391.3 468.8 388.3L464.3 387.3L468.8 388.3C469.4 385.3 467.5 382.4 464.6 381.8ZM197.7 326.2C198.7 327.8 199.1 329.7 198.7 331.5C198.3 333.3 197.2 334.9 195.6 335.9C194.4 336.6 193.1 337 191.8 337C191.3 337 190.8 336.9 190.3 336.8C186.5 336 184.1 332.2 184.9 328.4C185.3 326.6 186.4 325 188 324C189.6 323 191.5 322.6 193.3 323C195.1 323.5 196.7 324.6 197.7 326.2ZM196.3 327.1C195.5 325.9 194.3 325 192.9 324.7C191.5 324.4 190 324.7 188.8 325.4C187.6 326.2 186.7 327.4 186.4 328.8C186.1 330.2 186.4 331.7 187.1 332.9C187.9 334.1 189.1 335 190.5 335.3C191.9 335.6 193.4 335.3 194.6 334.6C195.8 333.8 196.7 332.6 197 331.2L192.5 330.2L197 331.2C197.4 329.8 197.1 328.3 196.3 327.1ZM112.5 362.9C110.1 360.5 106.1 360.5 103.7 362.9L94.9999 371.6L86.2999 362.9C83.8999 360.5 79.8999 360.5 77.4999 362.9C75.0999 365.3 75.0999 369.3 77.4999 371.7L86.1999 380.4L77.4999 389.1C75.0999 391.5 75.0999 395.5 77.4999 397.9C78.6999 399.1 80.2999 399.7 81.8999 399.7C83.4999 399.7 85.0999 399.1 86.2999 397.9L94.9999 389.2L103.7 397.9C104.9 399.1 106.5 399.7 108.1 399.7C109.7 399.7 111.3 399.1 112.5 397.9C114.9 395.5 114.9 391.5 112.5 389.1L103.8 380.4L112.5 371.7C115 369.3 115 365.4 112.5 362.9ZM489.4 137.3H488.1V136C488.1 131.6 484.5 128 480.1 128C475.7 128 472.1 131.6 472.1 136V137.3H470.8C466.4 137.3 462.8 140.9 462.8 145.3C462.8 149.7 466.4 153.3 470.8 153.3H472.1V154.6C472.1 159 475.7 162.6 480.1 162.6C484.5 162.6 488.1 159 488.1 154.6V153.3H489.4C493.8 153.3 497.4 149.7 497.4 145.3C497.4 140.9 493.8 137.3 489.4 137.3ZM182.3 452.3H179.3V449.3C179.3 445.8 176.5 443.1 173.1 443.1C169.7 443.1 166.9 445.9 166.9 449.3V452.3H163.9C160.4 452.3 157.7 455.1 157.7 458.5C157.7 461.9 160.5 464.7 163.9 464.7H166.9V467.7C166.9 471.2 169.7 473.9 173.1 473.9C176.5 473.9 179.3 471.1 179.3 467.7V464.7H182.3C185.8 464.7 188.5 461.9 188.5 458.5C188.5 455.1 185.8 452.3 182.3 452.3ZM69.4999 43.0002H53.6999V27.2002C53.6999 22.8002 50.0999 19.2002 45.6999 19.2002C41.2999 19.2002 37.6999 22.8002 37.6999 27.2002V43.0002H21.8999C17.4999 43.0002 13.8999 46.6002 13.8999 51.0002C13.8999 55.4002 17.4999 59.0002 21.8999 59.0002H37.6999V74.8002C37.6999 79.2002 41.2999 82.8002 45.6999 82.8002C50.0999 82.8002 53.6999 79.2002 53.6999 74.8002V59.0002H69.4999C73.8999 59.0002 77.4999 55.4002 77.4999 51.0002C77.4999 46.6002 73.8999 43.0002 69.4999 43.0002Z" fill="black"/>
</svg>
