<svg width="512" height="512" viewBox="0 0 512 512" fill="none" xmlns="http://www.w3.org/2000/svg">
<path opacity="0.25" d="M399.9 416.3L342.3 391.4L307.1 443.3L294.3 399.4C294.3 399.4 286.5 372.7 304.9 361.3C323.3 349.9 336.6 330 329.3 312C325.7 303.1 324.5 293.7 327.7 284.6C308.8 297.9 285.8 305.7 260.9 305.7C251.2 305.7 241.8 304.5 232.8 302.3C258.5 295.9 280.8 281 296.5 260.8L298.8 262.4C300.5 263.6 302.5 264.3 304.5 264.3C306.5 264.3 308.5 263.7 310.2 262.5C313.6 260 315 255.7 313.7 251.7L309.8 239.5C317 224.4 321 207.5 321 189.7C321 188 321 186.3 320.9 184.5L340.1 170.5C343.5 168 344.9 163.7 343.6 159.7C342.3 155.7 338.6 153 334.4 153H315C302.5 115.5 271.5 86.5 232.8 76.9C241.8 74.7 251.2 73.5 260.9 73.5C325 73.5 377 125.5 377 189.6C377 215.6 368.5 239.6 354 258.9L399.9 416.3ZM222.4 348.8C211.7 357.9 198.7 366.8 196 361.4C191.3 352.1 182.7 346.7 166 349.5C149.3 352.3 128.6 361.4 128.6 361.4L112.6 416.3L170.2 391.4L205.4 443.3L231.3 354.5C232.8 349.3 226.6 345.2 222.4 348.8Z" fill="black"/>
<path d="M344.7 176.9L306.9 204.5L321.3 249.1C323.7 256.4 321.1 264.3 314.9 268.8C311.8 271 308.3 272.2 304.5 272.2C300.7 272.2 297.1 271 294.1 268.8L256.4 241.3L218.7 268.8C215.6 271 212 272.2 208.3 272.2C204.6 272.2 201 271 197.9 268.8C191.7 264.3 189.1 256.4 191.5 249.1L205.9 204.5L168 176.9C164.4 174.3 163.6 169.3 166.3 165.7C168.9 162.1 173.9 161.3 177.5 164L220 195C222.8 197 224 200.6 222.9 203.9L206.7 254C206.5 254.7 206.7 255.5 207.3 255.9C207.7 256.2 208 256.2 208.3 256.2C208.7 256.2 209 256.1 209.3 255.9L251.7 225C254.5 222.9 258.3 222.9 261.1 225L303.5 255.9C303.9 256.2 304.2 256.2 304.5 256.2C304.8 256.2 305.1 256.1 305.5 255.9C306.1 255.5 306.3 254.7 306.1 254L289.8 204C288.7 200.7 289.9 197.1 292.7 195.1L335.2 164C335.8 163.6 336 162.8 335.8 162.1C335.6 161.4 334.9 161 334.2 161H281.7C278.2 161 275.2 158.8 274.1 155.5L257.9 105.5C257.7 104.8 257 104.3 256.3 104.3C255.6 104.3 255 104.8 254.7 105.4L238.5 155.4C237.4 158.7 234.4 160.9 230.9 160.9H182.2C177.8 160.9 174.2 157.3 174.2 152.9C174.2 148.5 177.8 144.9 182.2 144.9H225.1L239.5 100.4C241.9 93.1002 248.6 88.2002 256.3 88.2002C264 88.2002 270.7 93.1002 273.1 100.4L287.5 144.8H334.2C341.9 144.8 348.6 149.7 351 157C353.5 164.5 350.9 172.4 344.7 176.9ZM405.2 422.3C402.9 424.3 399.6 424.9 396.7 423.6L345.2 401.3L313.7 447.7C312.2 449.9 309.7 451.2 307.1 451.2C306.7 451.2 306.3 451.2 305.9 451.1C302.8 450.6 300.3 448.4 299.5 445.4L261.5 315.1C259.7 315.2 257.9 315.2 256 315.2C231.2 315.2 207 307.9 185.8 293.9C177.1 288.1 169.2 281.4 162.3 273.9L125 402.2L167 384.1C170.5 382.6 174.6 383.8 176.8 387L202.5 424.8L229.5 331.9C230.7 327.7 235.2 325.2 239.4 326.5C243.6 327.7 246.1 332.2 244.8 336.4L213 445.6C212.1 448.6 209.6 450.8 206.6 451.3C206.2 451.4 205.8 451.4 205.4 451.4C202.8 451.4 200.3 450.1 198.8 447.9L167.3 401.5L115.8 423.8C113 425 109.7 424.5 107.3 422.5C105 420.4 104 417.2 104.9 414.3L150.2 258.8C141.2 245.2 134.8 229.9 131.5 213.5C117.6 144.7 162.3 77.4002 231.1 63.6002C258.3 58.1002 285.8 61.5002 310.8 73.3002C334.9 84.7002 355.2 103.9 368 127.2C370.1 131.1 368.7 135.9 364.8 138.1C360.9 140.2 356.1 138.8 353.9 134.9C330.4 91.9002 282.3 69.6002 234.2 79.3002C174 91.4002 135 150.2 147.1 210.4C153 239.5 169.9 264.6 194.6 281.1C219.4 297.5 249 303.4 278.2 297.5C338.4 285.4 377.4 226.6 365.3 166.4C364.4 162.1 367.2 157.8 371.6 157C375.9 156.1 380.2 158.9 381 163.3C387.9 197.7 380.2 231.7 362.2 258.8L407.5 414.5C408.5 417.1 407.5 420.3 405.2 422.3ZM387.5 402.2L350.1 274C332.5 293.3 308.9 307.3 281.4 312.9C280.1 313.2 278.9 313.4 277.6 313.6L310 424.8L335.7 387C337.9 383.8 342 382.6 345.5 384.1L387.5 402.2Z" fill="black"/>
<path opacity="0.25" d="M439.5 125.9C439.5 120 444.3 115.1 450.3 115.1C456.2 115.1 461.1 119.9 461.1 125.9C461.1 131.8 456.3 136.7 450.3 136.7C444.3 136.6 439.5 131.8 439.5 125.9ZM97.3 249.3H81.5V233.5C81.5 229.1 77.9 225.5 73.5 225.5C69.1 225.5 65.5 229.1 65.5 233.5V249.3H49.8C45.4 249.3 41.8 252.9 41.8 257.3C41.8 261.7 45.4 265.3 49.8 265.3H65.6V281.1C65.6 285.5 69.2 289.1 73.6 289.1C78 289.1 81.6 285.5 81.6 281.1V265.3H97.4C101.8 265.3 105.4 261.7 105.4 257.3C105.4 252.9 101.7 249.3 97.3 249.3ZM45 74.0998C65.3 74.0998 81.7 57.5998 81.7 37.2998C81.7 32.8998 78.1 29.2998 73.7 29.2998C69.3 29.2998 65.7 32.8998 65.7 37.2998C65.7 48.6998 56.4 58.0998 45 58.0998C40.6 58.0998 37 61.6998 37 66.0998C37 70.4998 40.6 74.0998 45 74.0998ZM123.8 58.0998C112.4 58.0998 103 48.7998 103 37.2998C103 32.8998 99.4 29.2998 95 29.2998C90.6 29.2998 87 32.8998 87 37.2998C87 57.5998 103.5 74.0998 123.8 74.0998C128.2 74.0998 131.8 70.4998 131.8 66.0998C131.8 61.6998 128.2 58.0998 123.8 58.0998ZM123.8 79.2998C103.5 79.2998 87 95.7998 87 116.1C87 120.5 90.6 124.1 95 124.1C99.4 124.1 103 120.5 103 116.1C103 104.7 112.3 95.2998 123.8 95.2998C128.2 95.2998 131.8 91.6998 131.8 87.2998C131.8 82.8998 128.2 79.2998 123.8 79.2998ZM65.8 116.1C65.8 120.5 69.4 124.1 73.8 124.1C78.2 124.1 81.8 120.5 81.8 116.1C81.8 95.7998 65.3 79.2998 45.1 79.2998C40.7 79.2998 37.1 82.8998 37.1 87.2998C37.1 91.6998 40.7 95.2998 45.1 95.2998C56.4 95.2998 65.8 104.6 65.8 116.1ZM466.9 433.9H463V430C463 425.6 459.4 422 455 422C450.6 422 447 425.6 447 430V433.9H443.1C438.7 433.9 435.1 437.5 435.1 441.9C435.1 446.3 438.7 449.9 443.1 449.9H447V453.8C447 458.2 450.6 461.8 455 461.8C459.4 461.8 463 458.2 463 453.8V449.9H466.9C471.3 449.9 474.9 446.3 474.9 441.9C474.9 437.5 471.3 433.9 466.9 433.9Z" fill="black"/>
<g opacity="0.25">
<path d="M491.3 86.9L430.4 26H491.3V86.9Z" fill="black"/>
<path d="M469.8 372.1H440.2V164.9H469.8V372.1ZM137.4 488.6L21.8 430.8V488.6H137.4Z" fill="black"/>
</g>
</svg>
