<svg width="512" height="512" viewBox="0 0 512 512" fill="none" xmlns="http://www.w3.org/2000/svg">
<path opacity="0.25" d="M488.6 171.9V351.8H177.2V408.2H74.5002C57.7002 408.2 44.2002 394.6 44.2002 377.9V333.7C44.2002 305.5 67.1002 282.6 95.3002 282.6H177.3V251.2C177.3 240.4 168.5 231.6 157.7 231.6H113.6V189.4C113.6 179.7 121.4 171.9 131.1 171.9H488.6V171.9Z" fill="black"/>
<path d="M493.2 126.4C488.8 126.4 485.2 130 485.2 134.4V396.4H293.6C289.2 396.4 285.6 400 285.6 404.4C285.6 404.8 285.6 405.2 285.7 405.6C285.6 406 285.6 406.4 285.6 406.8V437H185.2V411.3H266C270.4 411.3 274 407.7 274 403.3C274 398.9 270.4 395.3 266 395.3H182.4C184.1 393.8 185.2 391.7 185.2 389.2V245.9C185.2 233.6 175.2 223.6 162.9 223.6H99V142.5H412C416.4 142.5 420 138.9 420 134.5C420 130.1 416.4 126.5 412 126.5H97.5C89.5 126.5 83 133 83 141V223.6H33.8C21.5 223.6 11.5 233.6 11.5 245.9V461.1C11.5 473.4 21.5 483.4 33.8 483.4H162.9C175.2 483.4 185.2 473.4 185.2 461.1V453.1H445.7C450.1 453.1 453.7 449.5 453.7 445.1C453.7 440.7 450.1 437.1 445.7 437.1H301.6V412.4H486.7C494.7 412.4 501.2 405.9 501.2 397.9V134.4C501.2 130 497.6 126.4 493.2 126.4ZM169.2 461.1C169.2 464.5 166.3 467.4 162.9 467.4H33.8C30.3 467.4 27.5 464.6 27.5 461.1V245.9C27.5 242.4 30.3 239.6 33.8 239.6H162.9C166.4 239.6 169.2 242.4 169.2 245.9V269.7C167.7 267.8 165.4 266.6 162.9 266.6H48.1C43.7 266.6 40.1 270.2 40.1 274.6C40.1 279 43.7 282.6 48.1 282.6H162.9C165.5 282.6 167.8 281.4 169.2 279.5V389.4C169.2 392 170.4 394.3 172.3 395.7H48.1C43.7 395.7 40.1 399.3 40.1 403.7C40.1 408.1 43.7 411.7 48.1 411.7H169.2V461.1ZM399.6 376.9C399.6 381.8 403.6 385.7 408.4 385.7C413.3 385.7 417.2 381.7 417.2 376.9C417.2 372 413.2 368.1 408.4 368.1C403.6 368.1 399.6 372.1 399.6 376.9ZM433 385.8C437.9 385.8 441.8 381.8 441.8 377C441.8 372.1 437.8 368.2 433 368.2C428.1 368.2 424.2 372.2 424.2 377C424.1 381.8 428.1 385.8 433 385.8ZM457.4 385.8C462.3 385.8 466.2 381.8 466.2 377C466.2 372.1 462.2 368.2 457.4 368.2C452.5 368.2 448.6 372.2 448.6 377C448.6 381.8 452.6 385.8 457.4 385.8ZM54.5 446.8C54.5 442.4 58.1 438.8 62.5 438.8H134.2C138.6 438.8 142.2 442.4 142.2 446.8C142.2 451.2 138.6 454.8 134.2 454.8H62.5C58 454.8 54.5 451.2 54.5 446.8Z" fill="black"/>
<g opacity="0.25">
<path d="M19.3999 33.7996L80.2999 94.6996H19.3999V33.7996ZM249.9 18.5996V33.9996H487V18.5996H249.9Z" fill="black"/>
<path d="M424.2 69.1V54.5H485.3V69.1H424.2ZM398.1 69.1V54.5H337V69.1H398.1Z" fill="black"/>
<path d="M249.9 69.1V54.5H311V69.1H249.9Z" fill="black"/>
</g>
<path opacity="0.25" d="M503.4 482.2C503.4 486.6 499.8 490.2 495.4 490.2H319.9C315.5 490.2 311.9 486.6 311.9 482.2C311.9 477.8 315.5 474.2 319.9 474.2H495.3C499.8 474.2 503.4 477.7 503.4 482.2ZM48.3002 195.9C48.3002 200.8 44.3002 204.7 39.5002 204.7C34.7002 204.7 30.7002 200.7 30.7002 195.9C30.7002 191.1 34.7002 187.1 39.5002 187.1C44.3002 187.1 48.3002 191 48.3002 195.9ZM48.3002 152.1C48.3002 157 44.3002 160.9 39.5002 160.9C34.7002 160.9 30.7002 156.9 30.7002 152.1C30.7002 147.3 34.7002 143.3 39.5002 143.3C44.3002 143.3 48.3002 147.2 48.3002 152.1ZM433.3 142.4H444.7V153.8C444.7 158.2 448.3 161.8 452.7 161.8C457.1 161.8 460.7 158.2 460.7 153.8V142.4H472.1C476.5 142.4 480.1 138.8 480.1 134.4C480.1 130 476.5 126.4 472.1 126.4H460.7V115C460.7 110.6 457.1 107 452.7 107C448.3 107 444.7 110.6 444.7 115V126.4H433.3C428.9 126.4 425.3 130 425.3 134.4C425.3 138.8 428.9 142.4 433.3 142.4ZM251 86.6996H177.2C172.8 86.6996 169.2 90.2996 169.2 94.6996C169.2 99.0996 172.8 102.7 177.2 102.7H251C255.4 102.7 259 99.0996 259 94.6996C259 90.2996 255.4 86.6996 251 86.6996ZM203.9 47.0996C203.9 42.6996 200.3 39.0996 195.9 39.0996H80.3002C75.9002 39.0996 72.3002 42.6996 72.3002 47.0996C72.3002 51.4996 75.9002 55.0996 80.3002 55.0996H195.9C200.3 55.0996 203.9 51.4996 203.9 47.0996Z" fill="black"/>
</svg>
