<svg width="512" height="512" viewBox="0 0 512 512" fill="none" xmlns="http://www.w3.org/2000/svg">
<path opacity="0.25" d="M468.8 63.4004C468.8 63.4004 442.3 198.7 346.3 294.7C333.8 307.2 321.2 319 308.6 330C274.3 360.1 240.4 384.3 210.5 400.8L208.2 398.5C194.1 384.4 195.8 361 211.8 349C225.5 338.7 239.6 327.3 253.8 314.9C266.3 303.9 278.9 292.1 291.5 279.6C303.9 267.2 315.2 254.1 325.4 240.7C337 241.9 349 238.1 358 229.2C371.2 216 373.3 195.8 364.2 180.4C376.3 157.9 385.8 136.2 393.1 117.1C402.3 93.1004 422.4 75.0004 447.3 68.5004C460.8 64.8004 468.8 63.4004 468.8 63.4004ZM177.4 403.2C151.4 419 133.1 387.5 103.8 416.8C100.1 420.5 102.4 392.7 101.4 389.4C97.6999 377.3 82.6999 373.2 73.7999 382.2C70.9999 385 69.2999 388.7 68.9999 392.7C66.1999 433.2 69.8999 491.6 82.1999 476.3C145.6 397.4 152.6 475.9 220.3 415.2L209.4 405.2C200.5 396.9 187.2 396.2 177.4 403.2Z" fill="black"/>
<path opacity="0.25" d="M41.2998 334.3C41.2998 340 45.9998 344.7 51.6998 344.7C56.0998 344.7 59.6998 348.3 59.6998 352.7C59.6998 357.1 56.0998 360.7 51.6998 360.7C37.0998 360.7 25.2998 348.9 25.2998 334.3C25.2998 319.7 37.0998 307.9 51.6998 307.9C56.0998 307.9 59.6998 311.5 59.6998 315.9C59.6998 320.3 56.0998 323.9 51.6998 323.9C45.9998 323.9 41.2998 328.6 41.2998 334.3ZM390.2 341.6L334 397.8C330.9 400.9 330.9 406 334 409.1C335.6 410.7 337.6 411.4 339.7 411.4C341.8 411.4 343.8 410.6 345.4 409.1L401.6 352.9C404.7 349.8 404.7 344.7 401.6 341.6C398.4 338.5 393.3 338.5 390.2 341.6ZM215.2 134L173.5 175.7C170.4 178.8 170.4 183.9 173.5 187C175.1 188.6 177.1 189.3 179.2 189.3C181.3 189.3 183.3 188.5 184.9 187L226.6 145.3C229.7 142.2 229.7 137.1 226.6 134C223.4 130.9 218.4 130.9 215.2 134ZM45.6998 70.6996C41.4998 74.8996 41.4998 81.6996 45.6998 85.8996C49.8998 90.0996 56.6998 90.0996 60.8998 85.8996C65.0998 81.6996 65.0998 74.8996 60.8998 70.6996C56.6998 66.4996 49.8998 66.4996 45.6998 70.6996ZM461.2 463.1C457 467.3 457 474.1 461.2 478.3C465.4 482.5 472.2 482.5 476.4 478.3C480.6 474.1 480.6 467.3 476.4 463.1C472.2 458.9 465.4 458.9 461.2 463.1ZM480.7 282.5H476.8V278.6C476.8 274.2 473.2 270.6 468.8 270.6C464.4 270.6 460.8 274.2 460.8 278.6V282.5H456.9C452.5 282.5 448.9 286.1 448.9 290.5C448.9 294.9 452.5 298.5 456.9 298.5H460.8V302.4C460.8 306.8 464.4 310.4 468.8 310.4C473.2 310.4 476.8 306.8 476.8 302.4V298.5H480.7C485.1 298.5 488.7 294.9 488.7 290.5C488.7 286.1 485.1 282.5 480.7 282.5ZM173.7 71.4996C178.1 71.4996 181.7 67.8996 181.7 63.4996C181.7 59.0996 178.1 55.4996 173.7 55.4996H169.8V51.5996C169.8 47.1996 166.2 43.5996 161.8 43.5996C157.4 43.5996 153.8 47.1996 153.8 51.5996V55.4996H149.9C145.5 55.4996 141.9 59.0996 141.9 63.4996C141.9 67.8996 145.5 71.4996 149.9 71.4996H153.8V75.3996C153.8 79.7996 157.4 83.3996 161.8 83.3996C166.2 83.3996 169.8 79.7996 169.8 75.3996V71.4996H173.7Z" fill="black"/>
<path d="M474.5 57.8009C472.7 55.9009 470 55.1009 467.4 55.5009C466.6 55.6009 447.2 59.1009 417.7 68.7009C413.5 70.1009 411.2 74.6009 412.6 78.8009C414 83.0009 418.5 85.3009 422.7 83.9009C437.5 79.1009 449.8 75.8009 458.2 73.8009C454.7 87.4009 447.8 111.601 436.1 140.301C419.4 181.301 389.3 240.401 340.8 288.901C328.5 301.201 316 312.901 303.5 323.901C272.2 351.301 240.8 374.401 212.1 390.701L140.4 319.001C144.9 311.101 149.9 303.001 155.4 294.701L219.3 358.601C220.9 360.201 222.9 360.901 225 360.901C227.1 360.901 229.1 360.101 230.7 358.601C233.8 355.501 233.8 350.401 230.7 347.301L164.7 281.301C176.9 264.101 190.8 246.501 206.2 228.901C217.6 215.901 229.7 202.901 242.3 190.301C291 141.601 349.2 112.001 391.2 95.2009L419.5 123.501C421.1 125.101 423.1 125.801 425.2 125.801C427.3 125.801 429.3 125.001 430.9 123.501C434 120.401 434 115.301 430.9 112.201L401.7 83.0009C401.5 82.8009 401.2 82.6009 401 82.4009C399.3 78.6009 394.8 76.7009 390.9 78.3009C347.1 95.2009 283.8 126.401 231.1 179.101C219.1 191.101 207.4 203.501 196.5 216.001C158.9 219.701 100.4 257.201 82.4002 270.501C80.5002 271.901 79.3002 274.001 79.2002 276.301C79.0002 278.601 79.9002 280.901 81.5002 282.601L105 306.101C104.4 306.401 103.9 306.701 103.3 307.101C57.9002 344.501 50.5002 432.301 59.2002 468.901C62.1002 481.101 66.8002 487.801 73.7002 489.301C74.4002 489.501 75.3002 489.601 76.4002 489.601C79.7002 489.601 84.3002 488.301 88.8002 482.701C119.5 444.501 133.9 446.301 152.1 448.601C170.1 450.901 190.4 453.401 223.5 424.601L250.3 451.401C251.8 452.901 253.8 453.701 256 453.701C256.2 453.701 256.4 453.701 256.6 453.701C258.9 453.501 261.1 452.301 262.4 450.501C279.9 426.801 315.2 368.301 317.1 333.501C328.9 323.001 340.8 311.901 352.3 300.301C402.8 249.801 434 188.501 451.3 146.001C470 100.001 476.7 66.3009 477 64.9009C477.2 62.3009 476.4 59.7009 474.5 57.8009ZM179 236.201C159 260.601 141.9 284.801 128.7 307.401L99.2002 278.001C121.1 262.901 153.5 244.601 179 236.201ZM153.8 432.701C133.5 430.101 112.6 427.501 76.6002 471.901C74.3002 466.701 71.3002 453.601 71.8002 431.501C72.7002 394.801 84.1002 343.401 113.2 319.501C114.1 318.701 114.8 317.801 115.3 316.801L124.7 326.201L125.4 326.901C109.8 343.301 100.5 364.601 96.2002 376.201C90.9002 390.601 86.2002 409.501 88.8002 419.801C90.4002 426.001 94.4002 428.001 96.7002 428.601C97.6002 428.901 98.5002 429.001 99.5002 429.001C102.8 429.001 106.2 427.301 109.5 424.001C122.9 410.601 132 412.501 144.6 415.201C154.8 417.401 167.6 420.101 181.6 411.601C185.4 409.301 186.6 404.401 184.3 400.601C182 396.801 177.1 395.601 173.3 397.901C164.7 403.101 157.3 401.601 147.9 399.501C135.9 396.901 121.4 393.801 104.5 407.001C106.8 391.001 117 359.101 136.8 338.301L205 406.501L211.8 413.301C184.6 436.601 169.6 434.701 153.8 432.701ZM254.6 433.401L223.7 402.501C247.1 388.801 272.2 371.001 297.3 350.201C289.7 375.601 270.9 409.701 254.6 433.401ZM306.8 178.001C294.3 190.501 294.3 210.901 306.8 223.501C319.3 236.001 339.7 236.001 352.3 223.501C364.8 211.001 364.8 190.601 352.3 178.001C347.1 172.801 340.4 169.601 333.1 168.801C328.7 168.301 325.5 164.401 326 160.001C326.5 155.601 330.4 152.401 334.8 152.901C345.7 154.101 355.9 159.001 363.6 166.701C382.4 185.501 382.4 216.001 363.6 234.801C354.2 244.201 341.9 248.901 329.5 248.901C317.1 248.901 304.8 244.201 295.4 234.801C276.6 216.001 276.6 185.501 295.4 166.701C298.5 163.601 303.6 163.601 306.7 166.701C310 169.801 310 174.801 306.8 178.001Z" fill="black"/>
</svg>
