<svg width="512" height="512" viewBox="0 0 512 512" fill="none" xmlns="http://www.w3.org/2000/svg">
<path opacity="0.25" d="M356.6 337.1C383.7 306.2 400.2 265.8 400.2 221.6C400.2 124.7 321.4 45.9004 224.5 45.9004H223.5C223.5 71.5004 240 94.3004 264.5 102.1C315.1 118.4 349.8 164.6 349.8 222.1C349.8 279.9 314.7 326.4 263.6 342.4C239.7 349.9 223.5 372.3 223.5 397.4H224.5C256.4 397.4 286.3 388.7 312.1 373.6L327.8 364.6C332.8 361.5 339.2 362.2 343.4 366.3L444.9 465C448.2 468.2 453.6 468.2 456.9 464.9L470.5 451.2L356.6 337.1Z" fill="black"/>
<path d="M448.7 480.9C446.7 480.9 444.7 480.1 443.1 478.6L327.5 366.3C324.3 363.2 324.3 358.2 327.3 355C330.4 351.8 335.4 351.8 338.6 354.8L448.6 461.7L459.2 451.1L350.9 342.8C347.9 339.8 347.8 335 350.5 331.9C377.4 301.2 392.2 262.1 392.2 221.6C392.2 129.1 317 53.9004 224.5 53.9004C132 53.9004 56.7999 129.1 56.7999 221.6C56.7999 314.1 132 389.3 224.5 389.3C253.7 389.3 282.6 381.5 308 366.6C311.8 364.4 316.7 365.7 318.9 369.5C321.1 373.3 319.8 378.2 316 380.4C288.1 396.6 256.4 405.2 224.4 405.2C123.1 405.2 40.7 322.8 40.7 221.5C40.7 120.2 123.2 37.9004 224.5 37.9004C325.8 37.9004 408.2 120.3 408.2 221.6C408.2 263.4 393.8 304 367.4 336.7L476.1 445.4C477.6 446.9 478.4 448.9 478.4 451.1C478.4 453.3 477.6 455.3 476.1 456.8L454.3 478.6C452.8 480.1 450.7 480.9 448.7 480.9ZM317.1 316.5C342.5 291.3 356.5 257.8 356.5 222.1C356.5 148.8 296.9 89.2004 223.6 89.2004C150.3 89.2004 90.5999 148.8 90.5999 222.1C90.5999 226.5 94.1999 230.1 98.5999 230.1H173C177.4 230.1 181 226.5 181 222.1C181 217.7 177.4 214.1 173 214.1H106.9C111 153.3 161.8 105.2 223.6 105.2C288.1 105.2 340.5 157.7 340.5 222.1C340.5 253.5 328.2 283 305.9 305.2C283.9 327 254.6 339.1 223.6 339.1C219.2 339.1 215.6 342.7 215.6 347.1C215.6 351.5 219.2 355.1 223.6 355.1C258.8 355 292 341.3 317.1 316.5ZM243 264.4C243 260 239.4 256.4 235 256.4H112.9C108.5 256.4 104.9 260 104.9 264.4C104.9 268.8 108.5 272.4 112.9 272.4H235C239.4 272.4 243 268.8 243 264.4ZM267.6 307.9C267.6 303.5 264 299.9 259.6 299.9H138.5C134.1 299.9 130.5 303.5 130.5 307.9C130.5 312.3 134.1 315.9 138.5 315.9H259.7C264.1 315.9 267.6 312.3 267.6 307.9Z" fill="black"/>
<path opacity="0.25" d="M437.3 51.3008C437.3 71.6008 420.8 88.1008 400.5 88.1008C396.1 88.1008 392.5 84.5008 392.5 80.1008C392.5 75.7008 396.1 72.1008 400.5 72.1008C411.9 72.1008 421.3 62.8008 421.3 51.3008C421.3 46.9008 424.9 43.3008 429.3 43.3008C433.7 43.3008 437.3 46.9008 437.3 51.3008ZM479.3 88.1008C483.7 88.1008 487.3 84.5008 487.3 80.1008C487.3 75.7008 483.7 72.1008 479.3 72.1008C467.9 72.1008 458.5 62.8008 458.5 51.3008C458.5 46.9008 454.9 43.3008 450.5 43.3008C446.1 43.3008 442.5 46.9008 442.5 51.3008C442.5 71.6008 459 88.1008 479.3 88.1008ZM479.3 93.3008C459 93.3008 442.5 109.801 442.5 130.101C442.5 134.501 446.1 138.101 450.5 138.101C454.9 138.101 458.5 134.501 458.5 130.101C458.5 118.701 467.8 109.401 479.3 109.401C483.7 109.401 487.3 105.801 487.3 101.401C487.3 97.0008 483.7 93.3008 479.3 93.3008ZM400.5 93.3008C396.1 93.3008 392.5 96.9008 392.5 101.301C392.5 105.701 396.1 109.301 400.5 109.301C411.9 109.301 421.3 118.601 421.3 130.101C421.3 134.501 424.9 138.101 429.3 138.101C433.7 138.101 437.3 134.501 437.3 130.101C437.3 109.801 420.8 93.3008 400.5 93.3008ZM207 477.601H119.4C115 477.601 111.4 481.201 111.4 485.601C111.4 490.001 115 493.601 119.4 493.601H207C211.4 493.601 215 490.001 215 485.601C215 481.201 211.4 477.601 207 477.601ZM159.2 453.301C159.2 448.901 155.6 445.301 151.2 445.301H38.3999C33.9999 445.301 30.3999 448.901 30.3999 453.301C30.3999 457.701 33.9999 461.301 38.3999 461.301H151.2C155.7 461.301 159.2 457.701 159.2 453.301ZM30.3999 404.701C30.3999 399.701 34.4999 395.701 39.3999 395.701C44.2999 395.701 48.3999 399.801 48.3999 404.701C48.3999 409.601 44.2999 413.701 39.3999 413.701C34.4999 413.701 30.3999 409.701 30.3999 404.701ZM60.3999 404.701C60.3999 399.701 64.4999 395.701 69.3999 395.701C74.2999 395.701 78.3999 399.801 78.3999 404.701C78.3999 409.601 74.2999 413.701 69.3999 413.701C64.4999 413.701 60.3999 409.701 60.3999 404.701ZM90.3999 404.701C90.3999 399.701 94.4999 395.701 99.3999 395.701C104.3 395.701 108.4 399.801 108.4 404.701C108.4 409.601 104.3 413.701 99.3999 413.701C94.4999 413.701 90.3999 409.701 90.3999 404.701Z" fill="black"/>
<g opacity="0.25">
<path d="M477.4 383.901L419.6 326.101L477.4 268.301V383.901Z" fill="black"/>
<path d="M87.0001 33.2004V11.4004H143.9V33.2004H87.0001ZM10.1001 143.4H31.9001V86.5004H10.1001V143.4ZM68.8001 11.4004H31.9001H11.9001H10.1001V68.3004H31.9001V33.2004H68.8001V11.4004Z" fill="black"/>
</g>
</svg>
