<svg width="512" height="512" viewBox="0 0 512 512" fill="none" xmlns="http://www.w3.org/2000/svg">
<path opacity="0.25" d="M269.6 480.301H234.3L245.8 447.801L223 426.501L234 407.201L183.6 384.401V349.201L251.5 379.901L298.5 358.701L319.4 349.301V378.501C324.2 381.501 329.9 384.501 336.7 387.401C384.1 408.101 413.3 421.901 418.5 480.401H269.6V480.301Z" fill="black"/>
<path opacity="0.25" d="M251.3 154.501C251.3 154.501 248.2 147.901 251.3 146.201C254.4 144.501 335.2 155.601 335.2 155.601C335.2 155.601 343.5 205.601 335.2 275.701C333.9 286.301 331.1 295.601 327.3 303.801H282.5C282.5 292.901 273.6 284.001 262.7 284.001C258.5 284.001 254.5 285.401 251.3 287.701V154.501V154.501ZM314.2 323.501H262.7C258.5 323.501 254.5 322.101 251.3 319.801V355.501C232.5 354.201 215 349.101 215 349.101L217.7 358.001H215L251.6 379.801L285.6 366.201C285.6 366.201 307.6 337.401 285.6 350.301C279 354.201 270.1 355.601 260.7 355.701C273.5 352.101 296.9 343.001 314.2 323.501Z" fill="black"/>
<path d="M425.3 449.4C417.8 429.9 400.9 403.5 363.3 388.3C349 382.5 336.9 376.7 327.5 371V349.1C327.5 346.4 326.1 343.9 323.8 342.4C321.5 340.9 318.6 340.7 316.2 341.8L312.9 343.3C317.1 339.8 321.1 335.8 324.7 331.5H331.9C356.4 331.5 369.6 312.1 369.6 293.8V290.8C379.3 288 389.4 280 389.4 264.2V204.9C389.4 184.5 372.8 177.1 361.6 177.1H350.3V147C350.3 144.4 349 141.9 346.8 140.4C344.6 138.9 341.9 138.6 339.4 139.5C324.3 145.3 309.4 141.6 293.7 137.6C272.8 132.4 249.1 126.5 224 144.3C220.4 146.9 219.5 151.9 222.1 155.5C224.7 159.1 229.6 160 233.3 157.4C252.4 143.8 269.8 148.2 289.9 153.2C304.1 156.8 318.8 160.4 334.4 157.5V182.3C334.1 183.2 333.9 184.1 333.9 185.1C333.9 186.1 334.1 187 334.4 187.9V269C334.4 275.7 333.3 282.3 331 288.5C330.7 289.4 329 292.3 328.1 294.1C327.8 294.6 327.5 295.1 327.2 295.7H289.4C286 284.3 275.3 275.9 262.8 275.9C247.5 275.9 235 288.4 235 303.7C235 319 247.5 331.5 262.8 331.5H302.3C289.3 342.2 273.6 347.7 255.5 347.7C209.2 347.7 188.5 313.4 180.3 293C177.6 286.3 176.2 279.1 176.2 271.7V157.7C176.2 141.7 185.7 130.1 193.7 123.3C211.5 107.9 238.8 100.8 264.7 104.7C273.7 106 281.9 108.4 289.9 110.6C309.2 116.1 329.1 121.7 354.9 111C359 109.3 360.9 104.6 359.2 100.5C357.5 96.3996 352.8 94.4996 348.7 96.1996C328.1 104.8 313.2 100.5 294.2 95.1996C285.7 92.7996 277 90.2996 267 88.7996C236.6 84.1996 204.4 92.7996 183.2 111.1C168.3 123.9 160.1 140.4 160.1 157.7V271.7C160.1 281.2 161.9 290.3 165.3 298.9C169.8 310.1 178.2 326.4 192.6 339.7C197.5 344.3 202.8 348.2 208.4 351.5L187 341.8C184.5 340.7 181.6 340.9 179.4 342.4C177.1 343.9 175.7 346.4 175.7 349.1V376C167.9 380.1 158.9 384.2 148.7 388.4C111.1 403.6 94.3001 430 86.7001 449.5C78.5001 470.6 79.3001 488.1 79.3001 488.9C79.5001 493.2 83.0001 496.5 87.3001 496.5C87.4001 496.5 87.6001 496.5 87.7001 496.5C92.1001 496.3 95.5001 492.5 95.3001 488.1C95.3001 487.5 93.1001 428.1 154.7 403.2C164.2 399.4 172.8 395.5 180.4 391.6C180.4 391.6 180.4 391.6 180.5 391.6L222.9 410.7L216.2 422.4C214.4 425.6 215 429.7 217.7 432.2L236.6 449.9L226.8 477.5C226.5 478.4 226.3 479.4 226.3 480.3H113.5C109.1 480.3 105.5 483.9 105.5 488.3C105.5 492.7 109.1 496.3 113.5 496.3H424.7C429 496.3 432.5 493 432.7 488.7C432.8 488.1 433.5 470.5 425.3 449.4ZM250.9 303.7C250.9 297.2 256.2 291.9 262.7 291.9C269.2 291.9 274.5 297.2 274.5 303.7C274.5 308.1 278.1 311.7 282.5 311.7H331.9H332C332.3 311.7 332.6 311.7 332.9 311.6C333 311.6 333.1 311.6 333.2 311.6C333.5 311.6 333.8 311.5 334 311.4H334.1C334.4 311.3 334.8 311.2 335.1 311C335.2 311 335.2 310.9 335.3 310.9C335.6 310.8 335.8 310.6 336.1 310.5C336.2 310.5 336.2 310.4 336.3 310.4C336.6 310.2 336.8 310 337.1 309.8C337.2 309.7 337.2 309.7 337.3 309.6C337.5 309.4 337.7 309.2 337.9 309C338 308.9 338 308.9 338.1 308.8C338.3 308.5 338.5 308.3 338.7 308C338.7 307.9 338.8 307.9 338.8 307.8C339 307.5 339.1 307.2 339.3 306.9V306.8C339.8 305.7 341 303.6 342 301.8C344 298.2 345.3 295.8 346 293.8C348.9 285.8 350.4 277.4 350.4 268.8V192.8H361.6C361.6 192.8 365.1 192.9 368.3 194.6C370.7 195.9 373.4 198.2 373.4 204.6V263.9C373.4 270.3 370.7 272.6 368.3 273.9C365.1 275.6 361.6 275.7 361.6 275.7C357.2 275.7 353.6 279.3 353.6 283.7V293.6C353.6 301.1 349.1 315.3 331.9 315.3H262.7C256.2 315.5 250.9 310.2 250.9 303.7ZM267.4 399.1H259.6V385L311.5 361.6V379.3L267.4 399.1ZM255.4 363.6C260.6 363.6 265.6 363.2 270.5 362.4L251.6 370.9L225 359C234.4 362.1 244.6 363.6 255.4 363.6ZM191.7 361.5L243.6 384.9V399H235.8L191.7 379.1V361.5ZM238.8 415.1H264.5L270.1 424.9L252.1 441.7L251.6 442.1L233.2 424.8L238.8 415.1ZM249.8 460.9C250.1 461 250.3 461 250.6 461C250.7 461 250.7 461 250.8 461C251.1 461 251.4 461 251.6 461H251.7C251.8 461 251.8 461 251.9 461C252.2 461 252.5 461 252.7 460.9C252.8 460.9 252.8 460.9 252.9 460.9C253.2 460.8 253.5 460.8 253.9 460.7L258.1 472.2H245.6L249.6 460.8C249.7 460.9 249.8 460.9 249.8 460.9ZM277.6 480.4C277.6 479.4 277.5 478.4 277.1 477.5L266.9 449.8L285.6 432.3C288.3 429.8 288.9 425.7 287.1 422.5L280.4 410.8L322.8 391.7C324.2 391.1 325.4 390 326.2 388.8C335.1 393.6 345.5 398.5 357.4 403.3C383.1 413.7 400.8 431 410.2 454.7C414.3 465 415.8 474.3 416.4 480.5H277.6V480.4Z" fill="black"/>
<path opacity="0.25" d="M479.8 154.8V189.5H445.1V154.8H479.8ZM445.1 99.5996V134.3H479.8V99.5996H445.1Z" fill="black"/>
<path opacity="0.25" d="M479.8 44.3008V79.0008H445.1V44.3008H479.8Z" fill="black"/>
<path opacity="0.25" d="M42.5999 72.7996C42.5999 68.3996 46.1999 64.7996 50.5999 64.7996H66.3999V49.0996C66.3999 44.6996 69.9999 41.0996 74.3999 41.0996C78.7999 41.0996 82.3999 44.6996 82.3999 49.0996V64.8996H98.1999C102.6 64.8996 106.2 68.4996 106.2 72.8996C106.2 77.2996 102.6 80.8996 98.1999 80.8996H82.3999V96.6996C82.3999 101.1 78.7999 104.7 74.3999 104.7C69.9999 104.7 66.3999 101.1 66.3999 96.6996V80.7996H50.5999C46.1999 80.7996 42.5999 77.2996 42.5999 72.7996ZM76.6999 290.4C72.2999 290.4 68.6999 294 68.6999 298.4C68.6999 309.8 59.3999 319.2 47.8999 319.2C43.4999 319.2 39.8999 322.8 39.8999 327.2C39.8999 331.6 43.4999 335.2 47.8999 335.2C68.1999 335.2 84.6999 318.7 84.6999 298.4C84.6999 294 81.0999 290.4 76.6999 290.4ZM126.7 319.1C115.3 319.1 105.9 309.8 105.9 298.3C105.9 293.9 102.3 290.3 97.8999 290.3C93.4999 290.3 89.8999 293.9 89.8999 298.3C89.8999 318.6 106.4 335.1 126.7 335.1C131.1 335.1 134.7 331.5 134.7 327.1C134.7 322.7 131.1 319.1 126.7 319.1ZM126.7 340.4C106.4 340.4 89.8999 356.9 89.8999 377.2C89.8999 381.6 93.4999 385.2 97.8999 385.2C102.3 385.2 105.9 381.6 105.9 377.2C105.9 365.8 115.2 356.4 126.7 356.4C131.1 356.4 134.7 352.8 134.7 348.4C134.7 344 131.1 340.4 126.7 340.4ZM47.8999 340.4C43.4999 340.4 39.8999 344 39.8999 348.4C39.8999 352.8 43.4999 356.4 47.8999 356.4C59.2999 356.4 68.6999 365.7 68.6999 377.2C68.6999 381.6 72.2999 385.2 76.6999 385.2C81.0999 385.2 84.6999 381.6 84.6999 377.2C84.6999 356.9 68.1999 340.4 47.8999 340.4ZM433 328.5C438.9 328.5 443.8 323.7 443.8 317.7C443.8 311.7 438.9 307 433 307C427.1 307 422.2 311.8 422.2 317.8C422.2 323.8 427.1 328.5 433 328.5ZM402.8 65.9996C407.2 65.9996 410.8 62.3996 410.8 57.9996C410.8 53.5996 407.2 49.9996 402.8 49.9996H398.9V46.0996C398.9 41.6996 395.3 38.0996 390.9 38.0996C386.5 38.0996 382.9 41.6996 382.9 46.0996V49.9996H379C374.6 49.9996 371 53.5996 371 57.9996C371 62.3996 374.6 65.9996 379 65.9996H382.9V69.8996C382.9 74.2996 386.5 77.8996 390.9 77.8996C395.3 77.8996 398.9 74.2996 398.9 69.8996V65.9996H402.8ZM135.1 153.1H61.2999C56.8999 153.1 53.2999 156.7 53.2999 161.1C53.2999 165.5 56.8999 169.1 61.2999 169.1H135.1C139.5 169.1 143.1 165.5 143.1 161.1C143.1 156.7 139.5 153.1 135.1 153.1ZM483.5 365.3H409.7C405.3 365.3 401.7 368.9 401.7 373.3C401.7 377.7 405.3 381.3 409.7 381.3H483.5C487.9 381.3 491.5 377.7 491.5 373.3C491.5 368.9 487.9 365.3 483.5 365.3Z" fill="black"/>
</svg>
