<svg width="512" height="512" viewBox="0 0 512 512" fill="none" xmlns="http://www.w3.org/2000/svg">
<path opacity="0.25" d="M442.3 256.3C442.3 355.7 361.7 436.2 262.4 436.2C166.5 436.2 88.1 361.1 82.7 266.5C91.3 263.6 104 264.2 108.2 274.3C132.2 332.3 174.7 374.9 234.5 384.3C285.4 392.3 337.8 356.4 354.3 337.6C401.7 283.2 397.4 172.7 264.5 122.2C244.2 114.5 256.6 81.3 278.3 81.2H279C292.3 81.2 305.3 82.5 317.8 85C390 108.4 442.3 176.2 442.3 256.3ZM444.8 77.5L405.3 110.7H453.1L487.8 77.5H444.8Z" fill="black"/>
<path opacity="0.25" d="M74.3 51.4996C74.3 36.8996 62.5 25.0996 47.9 25.0996C33.3 25.0996 21.5 36.9996 21.5 51.4996C21.5 65.9996 33.3 77.8996 47.9 77.8996C62.5 77.8996 74.3 66.0996 74.3 51.4996ZM47.9 61.8996C42.2 61.8996 37.5 57.1996 37.5 51.4996C37.5 45.7996 42.2 41.0996 47.9 41.0996C53.6 41.0996 58.3 45.7996 58.3 51.4996C58.3 57.1996 53.7 61.8996 47.9 61.8996ZM479.1 446.6C479.1 451 475.5 454.6 471.1 454.6H415.3C410.9 454.6 407.3 451 407.3 446.6C407.3 442.2 410.9 438.6 415.3 438.6H471.1C475.5 438.6 479.1 442.2 479.1 446.6ZM89.2 462.1C89.2 466.5 85.6 470.1 81.2 470.1H77.3V474C77.3 478.4 73.7 482 69.3 482C64.9 482 61.3 478.4 61.3 474V470.1H57.4C53 470.1 49.4 466.5 49.4 462.1C49.4 457.7 53 454.1 57.4 454.1H61.3V450.2C61.3 445.8 64.9 442.2 69.3 442.2C73.7 442.2 77.3 445.8 77.3 450.2V454.1H81.2C85.7 454.1 89.2 457.7 89.2 462.1ZM424.9 477.5C424.9 481.9 421.3 485.5 416.9 485.5H272C267.6 485.5 264 481.9 264 477.5C264 473.1 267.6 469.5 272 469.5H416.9C421.4 469.5 424.9 473.1 424.9 477.5Z" fill="black"/>
<path d="M491.3 67.3002H451.7V27.7002C451.7 25.2002 450.6 23.1002 448.9 21.6002C448.6 21.2002 448.3 20.8002 447.9 20.4002C444.8 17.3002 439.7 17.3002 436.6 20.4002L400 57.3002C397.4 58.6002 395.6 61.3002 395.6 64.4002V109.3L388 117.2C354.6 87.5002 310.6 69.5002 262.5 69.5002C158.1 69.5002 73.3 154.4 73.3 258.7C73.3 363.1 158.2 447.9 262.5 447.9C366.9 447.9 451.7 363 451.7 258.7C451.7 208.2 431.8 162.3 399.5 128.3L407.5 120H451.1C452.9 120 454.5 119.4 455.9 118.4C457.3 118.1 458.7 117.4 459.8 116.2L471.1 104.7C474.2 101.6 474.2 96.5002 471 93.4002C467.9 90.3002 462.8 90.3002 459.7 93.5002L449.4 104H411.6V68.4002L435.8 44.1002V75.3002C435.8 79.7002 439.4 83.3002 443.8 83.3002H491.4C495.8 83.3002 499.4 79.7002 499.4 75.3002C499.4 70.9002 495.7 67.3002 491.3 67.3002ZM435.7 258.7C435.7 354.2 358 431.9 262.5 431.9C167 432 89.2 354.2 89.2 258.7C89.2 163.2 167 85.5002 262.5 85.5002C306.3 85.5002 346.3 101.8 376.9 128.7L342.9 163.9C321.2 145.5 293.1 134.3 262.5 134.3C193.9 134.3 138.1 190.1 138.1 258.7C138.1 327.3 193.9 383.1 262.5 383.1C331.1 383.1 386.9 327.3 386.9 258.7C386.9 226.5 374.6 197.1 354.4 175L388.4 139.8C417.7 170.9 435.7 212.7 435.7 258.7ZM311 258.7C311 285.5 289.2 307.2 262.5 307.2C235.8 307.2 214 285.4 214 258.7C214 232 235.8 210.2 262.5 210.2C272.7 210.2 282.2 213.4 290 218.8L256.8 253.2C253.7 256.4 253.8 261.4 257 264.5C258.6 266 260.6 266.7 262.6 266.7C264.7 266.7 266.8 265.9 268.4 264.3L301.6 229.9C307.5 237.9 311 247.9 311 258.7ZM301.2 207.1C290.4 199 277 194.2 262.5 194.2C226.9 194.2 198 223.2 198 258.7C198 294.2 227 323.2 262.5 323.2C298.1 323.2 327 294.2 327 258.7C327 243.4 321.6 229.3 312.7 218.2L343.3 186.5C360.5 205.7 370.9 231 370.9 258.7C370.9 318.5 322.3 367.1 262.5 367.1C202.7 367.1 154.1 318.5 154.1 258.7C154.1 198.9 202.7 150.3 262.5 150.3C288.8 150.3 313 159.7 331.8 175.4L301.2 207.1Z" fill="black"/>
</svg>
