<svg width="512" height="512" viewBox="0 0 512 512" fill="none" xmlns="http://www.w3.org/2000/svg">
<path opacity="0.25" d="M338.2 343.399L331.5 370.099L389.3 427.899C377.4 434.399 363.7 438.199 349.1 438.199C302.9 438.199 265.2 400.599 265.2 354.299C265.2 354.199 265.2 354.199 265.2 354.099C265.2 345.799 272.8 339.799 281 341.199C291.2 342.999 303 336.799 304.3 311.899C306.3 273.799 349.1 270.399 349.1 270.399C395.3 270.399 433 307.999 433 354.299C433 368.899 429.3 382.599 422.7 394.499L364.9 336.699L338.2 343.399ZM271 287.999C262.9 279.899 249.9 279.399 241.3 286.899L115.8 395.399C104.3 405.299 106 423.699 119.1 431.199C137.9 441.999 165.1 448.599 189.1 419.899C231 369.899 247 353.199 260.4 321.999C273.8 290.799 273.8 290.799 273.8 290.799L271 287.999ZM419.7 120.099L414.4 116.699L362.2 168.099L383.9 191.699L419.7 120.099Z" fill="black"/>
<path d="M71 167.999C71 152.599 74.9 137.399 82.2 123.999C83.4 121.799 85.6 120.299 88.1 119.899C90.6 119.499 93.1 120.399 94.9 122.199L149.5 176.799L167.2 172.399L171.6 154.699L117 100.099C115.2 98.2992 114.4 95.7992 114.7 93.2992C115.1 90.7992 116.6 88.5992 118.8 87.3992C132.2 79.9992 147.5 76.1992 162.8 76.1992C213.4 76.1992 254.7 117.399 254.7 168.099C254.7 174.299 254 180.499 252.7 186.899L267 201.199C270.1 204.299 270.1 209.399 267 212.499C263.9 215.599 258.8 215.599 255.7 212.499L238.2 194.999C236.2 192.999 235.4 190.099 236.1 187.299C237.8 180.799 238.7 174.299 238.7 168.099C238.7 126.299 204.7 92.1992 162.8 92.1992C153.8 92.1992 144.8 93.7992 136.4 96.8992L186.1 146.599C188.1 148.599 188.9 151.499 188.2 154.199L181.5 180.899C180.8 183.799 178.5 185.999 175.7 186.699L149 193.399C146.3 194.099 143.4 193.299 141.4 191.299L91.7 141.599C88.6 149.999 87 158.999 87 167.999C87 209.799 121 243.899 162.9 243.899C167.3 243.899 170.9 247.499 170.9 251.899C170.9 256.299 167.3 259.899 162.9 259.899C112.2 259.899 71 218.699 71 167.999ZM349.2 262.499C344.8 262.499 341.2 266.099 341.2 270.499C341.2 274.899 344.8 278.499 349.2 278.499C391 278.499 425.1 312.499 425.1 354.399C425.1 363.399 423.5 372.399 420.4 380.799L370.7 331.099C368.7 329.099 365.8 328.299 363.1 328.999L336.4 335.699C333.5 336.399 331.3 338.699 330.6 341.499L323.9 368.199C323.2 370.899 324 373.799 326 375.799L375.7 425.499C367.3 428.599 358.3 430.199 349.3 430.199C307.5 430.199 273.4 396.199 273.4 354.299C273.4 349.899 269.8 346.299 265.4 346.299C261 346.299 257.4 349.899 257.4 354.299C257.4 404.899 298.6 446.199 349.3 446.199C364.7 446.199 379.9 442.299 393.3 434.999C395.5 433.799 397 431.599 397.4 429.099C397.8 426.599 396.9 424.099 395.1 422.299L340.5 367.699L344.9 349.999L362.6 345.599L417.2 400.199C419 401.999 421.5 402.799 424 402.499C426.5 402.099 428.7 400.599 429.9 398.399C437.3 384.999 441.1 369.699 441.1 354.399C441 303.699 399.8 262.499 349.2 262.499ZM281.5 293.299C282.4 290.399 281.7 287.299 279.5 285.199L268 273.599L292.5 249.099L321.6 278.199C323.2 279.799 325.2 280.499 327.3 280.499C329.4 280.499 331.4 279.699 333 278.199C336.1 275.099 336.1 269.999 333 266.899L303.9 237.799L362.4 179.299L379.1 195.899C380.9 197.699 383.5 198.499 386 198.099C388.5 197.699 390.7 196.099 391.9 193.799L427 123.599C428.5 120.499 427.9 116.799 425.5 114.399L402.9 91.7992C400.5 89.3992 396.7 88.7992 393.7 90.2992L323.4 125.399C321.1 126.499 319.5 128.699 319.1 131.299C318.7 133.799 319.5 136.399 321.3 138.199L338 154.899L243.8 249.099L232 237.499C229.8 235.299 226.7 234.599 223.8 235.599L218.3 237.499C206.7 241.399 187.9 250.899 169.1 262.399C167 263.699 165.6 265.799 165.3 268.299C165 270.799 165.9 273.199 167.6 274.899L228.9 336.199C232 339.299 237.1 339.299 240.2 336.199C243.3 333.099 243.3 327.999 240.2 324.899L186.2 270.899C203.3 260.999 216.4 255.099 223.4 252.699L224.2 252.399L237.9 266.199C239.4 267.699 241.4 268.599 243.6 268.599C245.7 268.599 247.8 267.799 249.3 266.299L354.8 160.799C356.3 159.299 357.1 157.299 357.1 155.099C357.1 152.999 356.3 150.899 354.8 149.399L340.3 134.899L395.6 107.299L410.1 121.799L382.5 176.999L368 162.499C364.9 159.399 359.8 159.399 356.7 162.499L251 267.999C249.5 269.499 248.7 271.499 248.7 273.699C248.7 275.899 249.5 277.899 251 279.399L264.8 293.199L264.6 293.999C257.4 315.499 225.1 373.199 186.3 411.899C175.7 422.599 164.1 428.599 151.8 429.699H151.7C149.1 429.999 146.2 429.999 142.9 429.699C138.8 429.299 134.7 428.499 130.6 427.099C115.7 422.099 105.4 411.999 105.3 411.899C105.2 411.799 105 411.699 104.9 411.499C104.3 410.799 103.3 409.699 102.1 408.099C102 407.999 102 407.899 101.9 407.899C100.9 406.699 99.7 405.099 98.4 403.199C93.4 395.699 87.4 383.799 87.4 369.999C87.4 355.999 93.4 342.899 105.3 330.999C124.1 312.199 146.2 296.199 161.4 286.199C165.1 283.799 166.1 278.799 163.7 275.099C161.3 271.399 156.3 270.399 152.6 272.799C136.8 283.299 113.7 299.899 94 319.699C79 334.699 71.4 351.599 71.4 369.999C71.4 387.799 78.9 402.699 85.2 412.199C86.8 414.499 88.2 416.399 89.5 417.999C91.1 420.099 92.5 421.699 93.2 422.399L93.3 422.599C93.7 423.199 94.3 423.699 94.8 424.099C98 427.099 109.3 436.999 125.5 442.399C130.7 444.199 136.1 445.299 141.4 445.799C143.5 445.999 145.6 446.099 147.5 446.099C149.5 446.099 151.4 445.999 153.2 445.799C169.3 444.299 184.2 436.799 197.5 423.399C238.1 382.899 272 321.999 279.7 299.199L281.5 293.299Z" fill="black"/>
<path opacity="0.25" d="M288.1 26.4008C288.1 46.7008 271.6 63.2008 251.3 63.2008C246.9 63.2008 243.3 59.6008 243.3 55.2008C243.3 50.8008 246.9 47.2008 251.3 47.2008C262.7 47.2008 272.1 37.9008 272.1 26.4008C272.1 22.0008 275.7 18.4008 280.1 18.4008C284.5 18.4008 288.1 22.0008 288.1 26.4008ZM330.1 47.1008C318.7 47.1008 309.3 37.8008 309.3 26.3008C309.3 21.9008 305.7 18.3008 301.3 18.3008C296.9 18.3008 293.3 21.9008 293.3 26.3008C293.3 46.6008 309.8 63.1008 330.1 63.1008C334.5 63.1008 338.1 59.5008 338.1 55.1008C338.1 50.7008 334.5 47.1008 330.1 47.1008ZM330.1 68.4008C309.8 68.4008 293.3 84.9008 293.3 105.201C293.3 109.601 296.9 113.201 301.3 113.201C305.7 113.201 309.3 109.601 309.3 105.201C309.3 93.8008 318.6 84.4008 330.1 84.4008C334.5 84.4008 338.1 80.8008 338.1 76.4008C338.1 72.0008 334.5 68.4008 330.1 68.4008ZM251.4 68.4008C247 68.4008 243.4 72.0008 243.4 76.4008C243.4 80.8008 247 84.4008 251.4 84.4008C262.8 84.4008 272.2 93.7008 272.2 105.201C272.2 109.601 275.8 113.201 280.2 113.201C284.6 113.201 288.2 109.601 288.2 105.201C288.1 84.9008 271.6 68.4008 251.4 68.4008ZM475.6 204.001H459.8V188.201C459.8 183.801 456.2 180.201 451.8 180.201C447.4 180.201 443.8 183.801 443.8 188.201V204.001H428C423.6 204.001 420 207.601 420 212.001C420 216.401 423.6 220.001 428 220.001H443.8V235.801C443.8 240.201 447.4 243.801 451.8 243.801C456.2 243.801 459.8 240.201 459.8 235.801V220.001H475.6C480 220.001 483.6 216.401 483.6 212.001C483.6 207.601 480.1 204.001 475.6 204.001ZM458.5 437.201H454.6V433.301C454.6 428.901 451 425.301 446.6 425.301C442.2 425.301 438.6 428.901 438.6 433.301V437.201H434.7C430.3 437.201 426.7 440.801 426.7 445.201C426.7 449.601 430.3 453.201 434.7 453.201H438.6V457.101C438.6 461.501 442.2 465.101 446.6 465.101C451 465.101 454.6 461.501 454.6 457.101V453.201H458.5C462.9 453.201 466.5 449.601 466.5 445.201C466.5 440.801 462.9 437.201 458.5 437.201ZM61.7 259.601H57.8V255.701C57.8 251.301 54.2 247.701 49.8 247.701C45.4 247.701 41.8 251.301 41.8 255.701V259.601H38C33.6 259.601 30 263.201 30 267.601C30 272.001 33.6 275.601 38 275.601H41.9V279.501C41.9 283.901 45.5 287.501 49.9 287.501C54.3 287.501 57.9 283.901 57.9 279.501V275.601H61.8C66.2 275.601 69.8 272.001 69.8 267.601C69.8 263.201 66.2 259.601 61.7 259.601Z" fill="black"/>
<path opacity="0.25" d="M53.9001 61.8008H19.3V27.2008H54V61.8008H53.9001ZM109.2 27.2008H74.5V61.9008H109.2V27.2008ZM477.2 159.601H499V102.701H477.2V159.601ZM367 25.8008V47.6008H423.9V25.8008H367Z" fill="black"/>
<path opacity="0.25" d="M499 25.8008V27.6008V47.6008V84.5008H477.2V47.6008H442.1V25.8008H499ZM21.4 475.101V488.001H258.5V475.101H21.4Z" fill="black"/>
</svg>
