<svg width="512" height="512" viewBox="0 0 512 512" fill="none" xmlns="http://www.w3.org/2000/svg">
<path opacity="0.25" d="M497 149V369.5H58.5C46.9 369.5 37.5 360.1 37.5 348.5V170.4C37.5 158.6 47.1 149 58.9 149H404.8L389.5 164.3L353.8 200L237.5 316.3C226.7 327.1 221.5 340.2 219 357.8C236.6 355.3 250.8 348.9 261.6 338.2L450.8 149H497Z" fill="black"/>
<path opacity="0.25" d="M471.8 49.5992C471.8 53.9992 468.2 57.5992 463.8 57.5992H460V61.4992C460 65.8992 456.4 69.4992 452 69.4992C447.6 69.4992 444 65.8992 444 61.4992V57.5992H440.1C435.7 57.5992 432.1 53.9992 432.1 49.5992C432.1 45.1992 435.7 41.5992 440.1 41.5992H444V37.6992C444 33.2992 447.6 29.6992 452 29.6992C456.4 29.6992 460 33.2992 460 37.6992V41.5992H463.9C468.3 41.5992 471.8 45.1992 471.8 49.5992ZM78.4 41.5992H74.5V37.6992C74.5 33.2992 70.9 29.6992 66.5 29.6992C62.1 29.6992 58.5 33.2992 58.5 37.6992V41.5992H54.6C50.2 41.5992 46.6 45.1992 46.6 49.5992C46.6 53.9992 50.2 57.5992 54.6 57.5992H58.5V61.4992C58.5 65.8992 62.1 69.4992 66.5 69.4992C70.9 69.4992 74.5 65.8992 74.5 61.4992V57.5992H78.4C82.8 57.5992 86.4 53.9992 86.4 49.5992C86.4 45.1992 82.8 41.5992 78.4 41.5992ZM156.4 16.1992C150.5 16.1992 145.6 20.9992 145.6 26.9992C145.6 32.9992 150.4 37.7992 156.4 37.7992C162.4 37.7992 167.2 32.9992 167.2 26.9992C167.2 20.9992 162.3 16.1992 156.4 16.1992ZM376.9 45.4992H279.7C275.3 45.4992 271.7 49.0992 271.7 53.4992C271.7 57.8992 275.3 61.4992 279.7 61.4992H376.9C381.3 61.4992 384.9 57.8992 384.9 53.4992C384.9 49.0992 381.3 45.4992 376.9 45.4992Z" fill="black"/>
<path d="M476.2 234.5C476.2 238.9 472.6 242.5 468.2 242.5H404.3C399.9 242.5 396.3 238.9 396.3 234.5C396.3 230.1 399.9 226.5 404.3 226.5H468.2C472.7 226.5 476.2 230.1 476.2 234.5ZM502.7 95.0996C498.3 95.0996 494.7 98.6996 494.7 103.1V361.4H386.1C381.7 361.4 378.1 365 378.1 369.4C378.1 373.8 381.7 377.4 386.1 377.4H494.7V426H258.1C253.7 426 250.1 429.6 250.1 434C250.1 434.5 250.2 435 250.2 435.5C250.1 436 250.1 436.5 250.1 437V475.8H68C63.6 475.8 60 479.4 60 483.8C60 488.2 63.6 491.8 68 491.8H444.5C448.9 491.8 452.5 488.2 452.5 483.8C452.5 479.4 448.9 475.8 444.5 475.8H266.1V442H494.7C503.5 442 510.7 434.8 510.7 426V103.1C510.7 98.6996 507.1 95.0996 502.7 95.0996ZM48.4 391.2C53.4 391.2 57.4 395.3 57.4 400.2C57.4 405.1 53.3 409.2 48.4 409.2C43.5 409.2 39.4 405.1 39.4 400.2C39.4 395.3 43.4 391.2 48.4 391.2ZM78.4 391.2C83.4 391.2 87.4 395.3 87.4 400.2C87.4 405.1 83.3 409.2 78.4 409.2C73.5 409.2 69.4 405.1 69.4 400.2C69.4 395.3 73.4 391.2 78.4 391.2ZM108.4 391.2C113.4 391.2 117.4 395.3 117.4 400.2C117.4 405.1 113.3 409.2 108.4 409.2C103.5 409.2 99.4 405.1 99.4 400.2C99.4 395.3 103.4 391.2 108.4 391.2ZM232.3 434C232.3 429.6 228.7 426 224.3 426H17.8V111.1H472.5C476.9 111.1 480.5 107.5 480.5 103.1C480.5 98.6996 476.9 95.0996 472.5 95.0996H17.8C8.99999 95.0996 1.79999 102.3 1.79999 111.1V426C1.79999 434.8 8.99999 442 17.8 442H224.3C228.7 442 232.3 438.4 232.3 434ZM468.2 279.9H404.3C399.9 279.9 396.3 283.5 396.3 287.9C396.3 292.3 399.9 295.9 404.3 295.9H468.2C472.6 295.9 476.2 292.3 476.2 287.9C476.2 283.5 472.7 279.9 468.2 279.9ZM66 226.5C61.6 226.5 58 230.1 58 234.5C58 238.9 61.6 242.5 66 242.5H127.8C132.2 242.5 135.8 238.9 135.8 234.5V189H364.8L380.8 173H66C61.6 173 58 176.6 58 181C58 185.4 61.6 189 66 189H119.8V226.4H66V226.5ZM66 295.9H241.2C245.6 295.9 249.2 292.3 249.2 287.9C249.2 283.5 245.6 279.9 241.2 279.9H66C61.6 279.9 58 283.5 58 287.9C58 292.3 61.6 295.9 66 295.9ZM468.2 173H438L459 152C464.5 146.5 466 131.7 455.8 121.1C451.4 116.6 444.3 113.7 437.4 113.7C431.9 113.6 427 115.5 423.7 118.9L384 158.6C380.9 161.7 380.9 166.8 384 169.9C387.1 173 392.2 173 395.3 169.9L435 130.2C435.1 130.1 435.8 129.7 437.3 129.7C440.1 129.7 443.1 131 444.3 132.3C447.8 135.9 447.4 140 447.1 141.2L255.9 332.5C248.8 339.6 240 344.6 229.1 347.6C231.9 336.8 236.3 328.8 243.1 322L359.5 205.6C362.6 202.5 362.6 197.4 359.5 194.3C356.4 191.2 351.3 191.2 348.2 194.3L231.9 310.7C225.4 317.2 220.5 324.6 217 333.4H66C61.6 333.4 58 337 58 341.4C58 345.8 61.6 349.4 66 349.4H212.3C211.8 351.8 211.4 354.2 211.1 356.7C210.7 359.2 211.6 361.7 213.4 363.5C214.9 365 217 365.8 219.1 365.8C219.5 365.8 219.8 365.8 220.2 365.7C239.7 362.9 255.6 355.6 267.3 343.8L422 189H468.2C472.6 189 476.2 185.4 476.2 181C476.2 176.6 472.7 173 468.2 173Z" fill="black"/>
</svg>
