<?xml version="1.0" encoding="utf-8"?>
<!-- Generator: Adobe Illustrator 24.1.3, SVG Export Plug-In . SVG Version: 6.00 Build 0)  -->
<svg version="1.1" id="Layer_1" xmlns="http://www.w3.org/2000/svg" xmlns:xlink="http://www.w3.org/1999/xlink" x="0px" y="0px"
	 viewBox="0 0 1933 1400" style="enable-background:new 0 0 1933 1400;" xml:space="preserve">
<style type="text/css">
	.st0{fill:#085DB2;}
	.st1{fill:#1F6CB9;}
	.st2{opacity:0.2;}
	.st3{fill:#E0EBF6;}
	.st4{fill:#3B7FC2;}
	.st5{fill:#9CBEE0;}
	.st6{fill:#DBECFE;}
	.st7{fill:#3297F5;}
	.st8{fill:#439FF6;}
	.st9{fill:#CAE4FC;}
	.st10{fill:#6EB5F8;}
	.st11{fill:#4BA3F6;}
	.st12{fill:#67B2F8;}
	.st13{fill:#E3F0FE;}
	.st14{fill:#61AFF7;}
	.st15{fill:#3A9BF5;}
	.st16{fill:#AFD6FB;}
	.st17{opacity:0.15;}
	.st18{fill:#6DB2F8;}
	.st19{fill:#17E19B;}
	.st20{fill:#00DE91;}
	.st21{fill:#C5E0FC;}
	.st22{fill:#38E5A9;}
	.st23{fill:#3BE5AB;}
	.st24{fill:#45E7AF;}
	.st25{fill:#9CF2D4;}
	.st26{fill:#00A76D;}
	.st27{fill:#FFD840;}
	.st28{fill:#FFE06A;}
	.st29{fill:#FFE272;}
	.st30{fill:#FFF3C4;}
	.st31{fill:#FFE16C;}
	.st32{fill:#FFD948;}
	.st33{fill:#FFF0B5;}
	.st34{fill:#D59B53;}
	.st35{fill:#CE9048;}
	.st36{opacity:0.3;fill:#CE9048;}
	.st37{fill:#0058B0;}
	.st38{fill:#004386;}
	.st39{fill:#E2AD5D;}
	.st40{fill:#DAA25B;}
	.st41{fill:#186ACB;}
	.st42{opacity:0.2;fill:#0058B0;}
	.st43{opacity:0.3;fill:#96A7B9;}
	.st44{opacity:0.2;fill:#00DE91;}
	.st45{fill:#80BCF9;}
	.st46{opacity:0.1;fill:#6DB2F8;}
	.st47{opacity:0.2;fill:url(#SVGID_1_);}
	.st48{fill:#85BFF9;}
	.st49{fill:#B0D5FB;}
	.st50{fill:#E0EFFE;}
	.st51{fill:#C3DFFC;}
	.st52{fill:#A1CDFA;}
	.st53{fill:#035AB1;}
	.st54{fill:#DEDEDE;}
	.st55{fill:url(#SVGID_2_);}
	.st56{fill:#D2A562;}
	.st57{fill:#CC9958;}
	.st58{fill:#D4B165;}
	.st59{opacity:0.2;fill:#3297F5;}
	.st60{fill:#3C9CF6;}
	.st61{fill:#3F3618;}
	.st62{fill:#C0DDFC;}
	.st63{fill:#93C5FA;}
	.st64{fill:#D6AD72;}
	.st65{fill:#CAE3FC;}
	.st66{fill:#B5D7FB;}
	.st67{opacity:0.3;fill:#ADD3FB;}
	.st68{opacity:0.54;fill:#B78D51;}
	.st69{fill:#D4E8FD;}
	.st70{fill:#BCDBFC;}
	.st71{fill:#DEEEFE;}
	.st72{fill:#E5F1FE;}
	.st73{fill:#F5B73C;}
	.st74{opacity:0.2;fill:#B18A40;}
	.st75{fill:none;}
	.st76{fill:#CCE4FC;}
	.st77{opacity:0.3;fill:#0058B0;}
	.st78{opacity:0.4;fill:#3297F5;}
	.st79{fill:#2A8AD1;}
	.st80{fill:#EEC07B;}
	.st81{fill:#E2AE6D;}
	.st82{fill:#F5C684;}
	.st83{fill:#49A2F6;}
	.st84{fill:none;stroke:#FFE06F;stroke-width:4.4818;stroke-miterlimit:10;}
	.st85{fill:none;stroke:#FFE06F;stroke-width:4.4818;stroke-linecap:round;stroke-miterlimit:10;}
	.st86{opacity:0.1;fill:#3297F5;}
	.st87{fill:#FFFFFF;}
	.st88{fill:#F7F9FA;}
	.st89{fill:#EDF1F2;}
	.st90{fill:#005491;}
	.st91{fill:#1CB07D;}
	.st92{fill:#66CAA7;}
	.st93{fill:#08A971;}
	.st94{fill:#7DBBF9;}
	.st95{fill:#89C1F9;}
	.st96{fill:#48A2F6;}
	.st97{clip-path:url(#SVGID_4_);fill:url(#SVGID_5_);}
	.st98{fill:#D5DBE3;}
	.st99{fill:#96A7B9;}
	.st100{fill:#CBD3DC;}
	.st101{fill:#D3DBE2;}
	.st102{fill:#CFD7DF;}
	.st103{fill:#E9F3FE;}
	.st104{fill:#FE4C64;}
	.st105{clip-path:url(#SVGID_7_);fill:url(#SVGID_8_);}
	.st106{fill:#D7EAFD;}
	.st107{fill:#B8D9FB;}
	.st108{clip-path:url(#SVGID_10_);}
	.st109{opacity:0.1;fill:#0058B0;}
	.st110{fill:#CEE6FD;}
	.st111{fill:#C2E0FC;}
	.st112{opacity:0.27;fill:#CEE6FD;}
	.st113{opacity:0.21;fill:#A9D3FB;}
	.st114{fill:#F9D96A;}
	.st115{fill:#59BAE2;}
	.st116{fill:#EC615B;}
	.st117{fill:#3B8ABB;}
	.st118{fill:#D05141;}
	.st119{fill:#1466B6;}
	.st120{fill:#317BD0;}
	.st121{fill:#3078BF;}
	.st122{fill:#2B75BD;}
	.st123{fill:#3A80D2;}
	.st124{fill:#007049;}
	.st125{fill:#003E9B;}
	.st126{fill:#657A93;}
	.st127{opacity:0.2;fill:#00A76D;}
	.st128{fill:#BEA96B;}
	.st129{opacity:0.3;fill:#BEA96B;}
	.st130{opacity:0.4;fill:#93C5FA;}
	.st131{opacity:0.2;fill:#BEA96B;}
	.st132{opacity:0.2;fill:#93C5FA;}
	.st133{fill:#AFD4FB;}
	.st134{fill:#A5CFFA;}
	.st135{fill:#413612;}
	.st136{opacity:0.3;fill:#413612;}
	.st137{fill:#C4CDD7;}
	.st138{fill:#D6DDE3;}
	.st139{fill:#DBE1E7;}
	.st140{fill:#8CC2F9;}
	.st141{fill:#006795;}
	.st142{fill:#23507B;}
	.st143{fill:#66EBBD;}
	.st144{fill:#536171;}
	.st145{fill:#74859B;}
	.st146{fill:#F7C769;}
	.st147{fill:#3E9DF6;}
	.st148{fill:#1A499E;}
	.st149{opacity:0.1;fill:#1A499E;}
	.st150{fill:#B18A40;}
	.st151{fill:#F5B840;}
	.st152{opacity:0.1;fill:#F5B73C;}
	.st153{opacity:0.2;fill:#FFD840;}
	.st154{fill:#F6C25B;}
	.st155{fill:#FFE8A0;}
	.st156{fill:#F6BF53;}
	.st157{fill:#FFDD5B;}
	.st158{fill:#F6C055;}
	.st159{fill:#F7C96D;}
	.st160{fill:#9AC9FA;}
	.st161{opacity:0.2;fill:#8DC3F9;}
	.st162{fill:#55A9F7;}
	.st163{fill:#A4CEFA;}
	.st164{fill:none;stroke:#FFE272;stroke-width:4.6046;stroke-miterlimit:10;}
	.st165{fill:#C5A872;}
	.st166{fill:#C0A064;}
	.st167{fill:#CEB587;}
	.st168{opacity:0.2;fill:#3F3618;}
	.st169{fill:none;stroke:#FFE272;stroke-width:4.6046;stroke-linecap:round;stroke-miterlimit:10;}
	.st170{opacity:0.1;fill:#186ACB;}
	.st171{opacity:0.68;fill:#24E2A1;}
	.st172{fill:#33E4A7;}
	.st173{fill:#0DDF97;}
	.st174{fill:#42E6AE;}
	.st175{fill:#36E5A8;}
	.st176{clip-path:url(#SVGID_12_);}
	.st177{fill:#B99653;}
	.st178{fill:#FFE174;}
	.st179{opacity:0.3;fill:#3297F5;}
	.st180{opacity:0.29;fill:#B18A40;}
	.st181{opacity:0.3;fill:#FFE174;}
	.st182{fill:#F8D8B2;}
	.st183{fill:#C3C4CA;}
	.st184{fill:#FFE78C;}
	.st185{fill:#84C1F9;}
	.st186{fill:#FFECB0;}
	.st187{fill:#FFEDB6;}
	.st188{fill:#FFF6D5;}
	.st189{fill:#4F300E;}
	.st190{fill:#422509;}
	.st191{fill:#E2EFFE;}
	.st192{fill:#BEDCFC;}
	.st193{opacity:0.13;fill:#B18A40;}
	.st194{fill:#0398FD;}
	.st195{fill:#19A1FD;}
	.st196{fill:#54B9FD;}
	.st197{fill:#0069D2;}
	.st198{fill:url(#SVGID_13_);}
	.st199{fill:#17A0FD;}
	.st200{opacity:0.3;fill:#17A0FD;}
	.st201{fill:#36ADFD;}
	.st202{fill:#52B8FD;}
	.st203{fill:#089AFD;}
	.st204{fill:#45B3FD;}
	.st205{opacity:5.000000e-02;fill:#0092FF;}
	.st206{opacity:0.85;fill:#87CBFF;enable-background:new    ;}
	.st207{opacity:0.85;fill:#98D3FF;enable-background:new    ;}
	.st208{opacity:0.85;fill:#00E870;enable-background:new    ;}
	.st209{clip-path:url(#SVGID_15_);}
	.st210{fill:#FFCF00;}
	.st211{clip-path:url(#SVGID_17_);}
	.st212{fill:#00B1EF;}
	.st213{clip-path:url(#SVGID_19_);}
	.st214{fill:#FF005B;}
	.st215{clip-path:url(#SVGID_21_);}
	.st216{fill:#0086CF;}
	.st217{clip-path:url(#SVGID_23_);}
	.st218{fill:#FF0055;}
	.st219{fill:#0097FD;}
	.st220{fill:#7CC4FE;}
	.st221{fill:#57B3FE;}
	.st222{clip-path:url(#SVGID_25_);}
	.st223{clip-path:url(#SVGID_27_);}
	.st224{clip-path:url(#SVGID_29_);}
	.st225{clip-path:url(#SVGID_31_);}
	.st226{clip-path:url(#SVGID_33_);}
	.st227{fill:#1CE697;}
	.st228{fill:#66EEB9;}
	.st229{fill:#0058B6;}
	.st230{fill:#FFD700;}
	.st231{fill:#FFB500;}
	.st232{fill:#FFE057;}
	.st233{fill:#8CC5EF;}
	.st234{fill:#AFA79F;}
	.st235{opacity:0.26;fill:#FFD700;}
	.st236{fill:#30ABFD;}
	.st237{fill:#2BA9FD;}
	.st238{fill:#149FFD;}
	.st239{fill:#CCF9E8;}
	.st240{fill:#00E38A;}
	.st241{fill:#C1DEFC;}
	.st242{fill:#ECF5FE;}
	.st243{fill:#F3F9FF;}
	.st244{fill:none;stroke:#93C5FA;stroke-width:2.856;stroke-miterlimit:10;}
	.st245{fill:#F6D472;}
	.st246{fill:#6AB1DA;}
	.st247{fill:#DC6158;}
	.st248{fill:#3680AE;}
	.st249{fill:#BB5041;}
	.st250{fill:#FFF7DC;}
	.st251{fill:#FFEFBE;}
	.st252{fill:#45A0F6;}
	.st253{fill:#4FA6F6;}
	.st254{fill:#47A1F6;}
	.st255{opacity:0.1;}
	.st256{fill:#A8D1FB;}
	.st257{opacity:0.1;fill:#93C5FA;}
	.st258{fill:#2973BD;}
	.st259{fill:#CBE3FC;}
	.st260{fill:none;stroke:#085DB2;stroke-width:1.2298;stroke-miterlimit:10;}
	.st261{fill:#249DEC;}
	.st262{fill:#FDCF3F;}
	.st263{fill:#FFE06F;}
	.st264{fill:#00D58D;}
	.st265{fill:#FFD75B;}
	.st266{fill:url(#SVGID_34_);}
	.st267{fill:#FFE15F;}
	.st268{fill:#006897;}
	.st269{fill:#19E19C;}
	.st270{fill:#2BE3A4;}
	.st271{fill:#F7BF4A;}
	.st272{fill:#FFDD51;}
	.st273{fill:#FFE176;}
	.st274{fill:#1C7F5D;}
	.st275{fill:#005437;}
	.st276{fill:#197E5B;}
	.st277{fill:#FFD443;}
	.st278{fill:#03B4E3;}
	.st279{fill:#FF484A;}
	.st280{fill:#0080B8;}
	.st281{fill:#DB3930;}
	.st282{fill:#A1CFFA;}
	.st283{clip-path:url(#SVGID_36_);}
	.st284{fill:#EBF5FE;}
	.st285{opacity:5.000000e-02;fill:#3297F5;}
	.st286{fill:#00C2F3;}
	.st287{fill:#FF0036;}
	.st288{fill:#008CCE;}
	.st289{fill:#FF0000;}
	.st290{opacity:0.1;fill:#B18A40;}
	.st291{fill:#B38E46;}
	.st292{fill:#B7934F;}
	.st293{fill:#46321F;}
	.st294{fill:#554129;}
	.st295{fill:#4E3A24;}
	.st296{fill:#E5F2FE;}
	.st297{fill:#3297F5;stroke:#00DE91;stroke-width:0.6184;stroke-miterlimit:10;}
	.st298{opacity:0.5;fill:#CCF8E9;}
	.st299{fill:#645134;}
	.st300{fill:#1351AA;}
	.st301{fill:#CCCCCC;}
	.st302{fill:#AFAEAF;}
	.st303{fill:none;stroke:#3297F5;stroke-width:30.1075;stroke-linecap:round;stroke-linejoin:round;stroke-miterlimit:10;}
	.st304{fill:none;stroke:#6DB2F8;stroke-width:28.4443;stroke-linecap:round;stroke-linejoin:round;stroke-miterlimit:10;}
	.st305{fill:none;stroke:#CCF8E9;stroke-width:30.1075;stroke-linecap:round;stroke-linejoin:round;stroke-miterlimit:10;}
	.st306{fill:#8694A8;}
	.st307{fill:#404953;}
	.st308{fill:#F2D8C0;}
	.st309{fill:#B1B3B4;}
	.st310{fill:#87888A;}
	.st311{opacity:0.2;fill:#6DB2F8;}
	.st312{fill:url(#SVGID_39_);}
	.st313{fill:url(#SVGID_40_);}
	.st314{fill:#C0CAD5;}
	.st315{fill:#9E7744;}
	.st316{opacity:0.63;fill:#ABD4FB;}
	.st317{fill:#A3D0FB;}
	.st318{fill:#82C0F9;}
	.st319{fill:#53A8F7;}
	.st320{fill:#916B3D;}
	.st321{fill:#044CA3;}
	.st322{fill:#473A22;}
	.st323{fill:#3A2D1A;}
	.st324{fill:none;stroke:#FFE272;stroke-width:2.5889;stroke-miterlimit:10;}
	.st325{fill:#634F17;}
	.st326{opacity:0.2;fill:#634F17;}
	.st327{fill:none;stroke:#FFE272;stroke-width:2.5889;stroke-linecap:round;stroke-miterlimit:10;}
	.st328{fill:#0F62B5;}
	.st329{fill:#04427F;}
	.st330{fill:#72B7F8;}
	.st331{fill:#5BACF7;}
	.st332{fill:#59ABF7;}
	.st333{fill:#D8C08B;}
	.st334{fill:#907032;}
	.st335{fill:#FFB200;}
	.st336{opacity:0.85;}
	.st337{fill:#337CD1;}
	.st338{fill:#CCB079;}
	.st339{fill:#F9C932;}
	.st340{fill:#FFE274;}
	.st341{fill:#14AE78;}
	.st342{fill:#30B789;}
	.st343{fill:#2BB686;}
	.st344{fill:#40BD91;}
	.st345{opacity:0.18;fill:#2671BC;}
	.st346{fill:#83BEF9;}
	.st347{fill:#FFF9E0;}
	.st348{opacity:0.18;fill:#0058B0;}
	.st349{fill:#CDD5DE;}
	.st350{fill:#FDFEFE;}
	.st351{opacity:0.2;fill:#EDF1F2;}
	.st352{fill:#D0D8E0;}
	.st353{fill:#F8D360;}
	.st354{fill:#4FB1DD;}
	.st355{fill:#EB5752;}
	.st356{fill:#357FB2;}
	.st357{fill:#C9473A;}
	.st358{fill:url(#SVGID_41_);}
	.st359{fill:#DEE4E9;}
	.st360{fill:#E8ECF0;}
	.st361{fill:#FFF1C4;}
	.st362{fill:#EBEEF1;}
	.st363{opacity:0.69;fill:#EDF0F3;}
	.st364{opacity:0.54;}
	.st365{fill:#DCE2E7;}
	.st366{fill:#D3DAE2;}
	.st367{opacity:0.3;fill:#CBD3DC;}
	.st368{fill:#BEC9D3;}
	.st369{fill:#D2D9E1;}
	.st370{opacity:0.2;fill:#96A7B9;}
	.st371{clip-path:url(#SVGID_43_);}
	.st372{fill:#1A499C;}
	.st373{opacity:0.4;fill:#0058B6;}
	.st374{fill:#0F9DFD;}
	.st375{fill:#0A9BFD;}
	.st376{opacity:0.2;fill:#0097FD;}
	.st377{fill:#DDCCAB;}
	.st378{fill:#D5C098;}
	.st379{fill:#F9CB0B;}
	.st380{fill:#CFB689;}
	.st381{opacity:0.4;fill:#FFD840;}
	.st382{fill:#D7C39E;}
	.st383{opacity:0.2;fill:#0058B6;}
	.st384{fill:#DCAB68;}
	.st385{opacity:0.54;fill:#BD8B45;}
	.st386{fill:#69B3F8;}
	.st387{fill:#B9C4D0;}
	.st388{fill:#A7B5C4;}
	.st389{fill:#4DA4F6;}
	.st390{fill:#331D06;}
	.st391{opacity:0.3;fill:#331D06;}
	.st392{fill:#966938;}
	.st393{fill:#895E33;}
	.st394{fill:#9B6C3D;}
	.st395{opacity:0.28;fill:#3297F5;}
	.st396{fill:none;stroke:#186ACB;stroke-width:1.8534;stroke-miterlimit:10;}
	.st397{fill:none;stroke:#186ACB;stroke-width:1.8534;stroke-linecap:round;stroke-miterlimit:10;}
	.st398{fill:#1264B5;}
	.st399{clip-path:url(#SVGID_45_);fill:#00DE91;}
	.st400{opacity:0.4;clip-path:url(#SVGID_45_);fill:#00A76D;}
	.st401{opacity:0.2;clip-path:url(#SVGID_45_);fill:#00A76D;}
	.st402{clip-path:url(#SVGID_45_);fill:#19E19C;}
	.st403{opacity:0.3;clip-path:url(#SVGID_45_);fill:#00A76D;}
	.st404{clip-path:url(#SVGID_45_);fill:#2EE4A5;}
	.st405{opacity:0.3;clip-path:url(#SVGID_45_);fill:#30B789;}
	.st406{fill:#ADA69F;}
	.st407{opacity:0.2;fill:#DCEDFD;}
	.st408{fill:#F8D774;}
	.st409{fill:#5DB0E0;}
	.st410{fill:#DB666B;}
	.st411{fill:#4A89BF;}
	.st412{fill:#C45161;}
	.st413{fill:#2FB788;}
	.st414{fill:#0064B9;}
	.st415{opacity:0.2;fill:#0064B9;}
	.st416{fill:#C6A06D;}
	.st417{opacity:0.3;fill:#C6A06D;}
	.st418{fill:#D1AF7C;}
	.st419{fill:#5CEAB9;}
	.st420{fill:#FFE626;}
	.st421{fill:#296690;}
	.st422{fill:#2E5078;}
	.st423{opacity:0.5;fill:#DCE2E7;}
	.st424{fill:#F5B942;}
	.st425{fill:#96724B;}
	.st426{fill:#7C5937;}
	.st427{fill:#8C6A48;}
	.st428{fill:#FFEA9A;}
	.st429{fill:#FFDF64;}
	.st430{fill:#FFE47D;}
	.st431{fill:#FFE78A;}
	.st432{fill:#FFEDA7;}
	.st433{opacity:0.1;fill:#3F3618;}
	.st434{opacity:0.3;clip-path:url(#SVGID_47_);}
	.st435{fill:#FFE992;}
	.st436{fill:#FFE47B;}
	.st437{opacity:0.3;clip-path:url(#SVGID_49_);}
	.st438{fill:#26B483;}
	.st439{fill:#33B88A;}
	.st440{fill:#8E693D;}
	.st441{fill:#7F5D38;}
	.st442{fill:#97BCE7;}
	.st443{fill:#95BBE7;}
	.st444{fill:#BFDFFC;}
	.st445{opacity:0.2;fill:#B3D9FB;}
	.st446{fill:#CCE5FD;}
	.st447{fill:#D8EBFD;}
	.st448{fill:#352A0D;}
	.st449{opacity:0.2;fill:#352A0D;}
	.st450{fill:#064477;}
	.st451{fill:#4E97EE;}
	.st452{opacity:0.3;fill:#4E97EE;}
	.st453{fill:#034A84;}
	.st454{fill:#C69463;}
	.st455{fill:#B7895C;}
	.st456{fill:#CC9E6A;}
	.st457{fill:#D8A979;}
	.st458{opacity:0.1;fill:#FFFFFF;}
	.st459{fill:none;stroke:#4E97EE;stroke-width:5.5536;stroke-miterlimit:10;}
	.st460{fill:#0959AA;}
	.st461{opacity:0.2;fill:#0959AA;}
	.st462{fill:#7C350D;}
	.st463{fill:#702E0D;}
	.st464{fill:#7F3611;}
	.st465{fill:#6AA8F1;}
	.st466{fill:#98C3F5;}
	.st467{fill:#296FB5;}
	.st468{opacity:0.1;fill:#226AB2;}
	.st469{fill:#1561AE;}
	.st470{fill:#8ABAF4;}
	.st471{fill:#60A1F0;}
	.st472{fill:#306BC4;}
	.st473{fill:#FFE080;}
	.st474{fill:#7CB2F2;}
	.st475{fill:#DEECFC;}
	.st476{fill:#14D997;}
	.st477{fill:#D0F7EA;}
	.st478{fill:#A1F0D5;}
	.st479{fill:#72E8C1;}
	.st480{fill:#E4B966;}
	.st481{fill:#F9D873;}
	.st482{fill:#65A5F0;}
	.st483{fill:#70ABF1;}
	.st484{opacity:0.32;clip-path:url(#SVGID_55_);fill:#97C2F5;}
	.st485{fill:#4378C9;}
	.st486{opacity:0.2;fill:#0FA371;}
	.st487{fill:#3ADFA8;}
	.st488{fill:#1DDB9B;}
	.st489{clip-path:url(#SVGID_57_);fill:#CBF7E8;}
	.st490{fill:#95C1F4;}
	.st491{opacity:0.21;fill:#4E97EE;}
	.st492{opacity:0.21;clip-path:url(#SVGID_59_);fill:#4E97EE;}
	.st493{fill:#ECB855;}
	.st494{fill:#FFD85F;}
	.st495{fill:#0FA371;}
	.st496{opacity:0.26;fill:#0FA371;}
	.st497{opacity:0.29;fill:#0FA371;}
	.st498{opacity:0.3;fill:#0FA371;}
	.st499{fill:#27DC9F;}
	.st500{fill:#53E3B3;}
	.st501{fill:#33DEA5;}
	.st502{fill:url(#SVGID_60_);}
	.st503{fill:#D5E6FB;}
	.st504{opacity:0.4;fill:#D5E6FB;}
	.st505{fill:#8FBDF4;}
	.st506{fill:#DDEBFC;}
	.st507{opacity:0.28;fill:#4E97EE;}
	.st508{opacity:0.28;fill:#A5CAF6;}
	.st509{fill:none;stroke:#FFD85F;stroke-width:3.9698;stroke-miterlimit:10;}
	.st510{fill:none;stroke:#FFD85F;stroke-width:3.9698;stroke-linecap:round;stroke-miterlimit:10;}
	.st511{opacity:0.1;fill:#D5E6FB;}
	.st512{opacity:0.1;fill:#4E97EE;}
	.st513{opacity:0.6;fill:#E8EBEF;}
	.st514{fill:#EFCB7B;}
	.st515{fill:#697A90;}
	.st516{fill:#034B93;}
	.st517{fill:#035293;}
	.st518{opacity:0.3;fill:#035293;}
	.st519{fill:#684429;}
	.st520{opacity:0.3;fill:#684429;}
	.st521{opacity:0.2;fill:#4E97EE;}
	.st522{opacity:0.5;fill:#EFCB7B;}
	.st523{fill:#C4DCF9;}
	.st524{opacity:0.2;fill:#EFCB7B;}
	.st525{opacity:0.14;fill:#4E97EE;}
	.st526{opacity:0.3;fill:#EFCB7B;}
	.st527{opacity:0.2;fill:#684429;}
	.st528{opacity:0.1;fill:#0959AA;}
	.st529{fill:#C5CDD6;}
	.st530{fill:#F5F9FE;}
	.st531{clip-path:url(#SVGID_64_);}
	.st532{fill:#38AEFD;}
	.st533{fill:#21A5FD;}
	.st534{fill:#6BE7BD;}
	.st535{fill:#8CECCC;}
	.st536{fill:#1B275B;}
	.st537{fill:#ED5C68;}
	.st538{fill:none;stroke:#FFFFFF;stroke-width:0.9357;stroke-miterlimit:10;}
	.st539{opacity:0.52;}
	.st540{fill:#F0F0F2;}
	.st541{fill:#C6CDD5;}
	.st542{fill:#64D59C;}
	.st543{fill:#4AA075;}
	.st544{opacity:0.2;fill:#4AA075;}
	.st545{opacity:0.38;fill:#306B4E;}
	.st546{opacity:0.1;fill:#4AA075;}
	.st547{fill:#80DDAE;}
	.st548{fill:#D6DBE1;}
	.st549{fill:#424952;}
	.st550{opacity:0.2;fill:#A2E6C4;}
	.st551{fill:#E0ECFA;}
	.st552{clip-path:url(#SVGID_68_);}
	.st553{fill:#245AA4;}
	.st554{opacity:0.1;fill:#245AA4;}
	.st555{fill:#5E97E7;}
	.st556{fill:#A4C5F1;}
	.st557{fill:#D8E6F9;}
	.st558{fill:#CFE0F8;}
	.st559{opacity:2.000000e-02;fill:#ACC9F3;}
	.st560{opacity:0.2;fill:#93B9EF;}
	.st561{fill:#3D6CBE;}
	.st562{fill:#F3D87B;}
	.st563{fill:#71B8DD;}
	.st564{fill:#DB6A61;}
	.st565{fill:#4F88B6;}
	.st566{fill:#C15948;}
	.st567{fill:#E9C681;}
	.st568{fill:#FADF8C;}
	.st569{fill:#4B77B5;}
	.st570{clip-path:url(#SVGID_70_);fill:#CBF7E8;}
	.st571{fill:#07439B;}
	.st572{fill:#3577B9;}
	.st573{fill:#6EAAF1;}
	.st574{fill:#9DC5F5;}
	.st575{fill:#AFCFF7;}
	.st576{fill:none;stroke:#0959AA;stroke-width:14.8493;stroke-miterlimit:10;}
	.st577{fill:#3498F5;}
	.st578{fill:#76B9F8;}
	.st579{fill:url(#SVGID_71_);}
	.st580{opacity:0.3;fill:#45A0F6;}
	.st581{fill:#5DADF7;}
	.st582{fill:#74B8F8;}
	.st583{fill:#389AF5;}
	.st584{opacity:5.000000e-02;fill:#0093FF;}
	.st585{opacity:0.85;fill:#96CBFA;enable-background:new    ;}
	.st586{opacity:0.85;fill:#A5D3FB;enable-background:new    ;}
	.st587{opacity:0.85;fill:#00E47D;enable-background:new    ;}
	.st588{clip-path:url(#SVGID_73_);}
	.st589{fill:#FFD100;}
	.st590{clip-path:url(#SVGID_75_);}
	.st591{fill:#00B0EA;}
	.st592{clip-path:url(#SVGID_79_);}
	.st593{fill:#0086CA;}
	.st594{opacity:0.27;clip-path:url(#SVGID_83_);fill:#E4B966;}
	.st595{clip-path:url(#SVGID_83_);fill:#E4B966;}
	.st596{clip-path:url(#SVGID_83_);fill:#B4965E;}
	.st597{opacity:0.29;clip-path:url(#SVGID_83_);fill:#AB8B4C;}
	.st598{clip-path:url(#SVGID_83_);fill:#FDF1CB;}
	.st599{clip-path:url(#SVGID_83_);}
	.st600{fill:#F3D9B6;}
	.st601{fill:#A2E6C4;}
	.st602{fill:#CDD3DA;}
	.st603{fill:#AB8B4C;}
	.st604{fill:#FCE8AB;}
	.st605{fill:#9FC1F1;}
	.st606{clip-path:url(#SVGID_83_);fill:#FEF6DF;}
	.st607{clip-path:url(#SVGID_83_);fill:#FEFBF1;}
	.st608{opacity:0.3;clip-path:url(#SVGID_83_);fill:#FBE192;}
	.st609{clip-path:url(#SVGID_83_);fill:#FDF1CE;}
	.st610{clip-path:url(#SVGID_83_);fill:#EBC989;}
	.st611{fill:#B4965E;}
	.st612{fill:#4B3115;}
	.st613{fill:#3E260F;}
	.st614{fill:#194178;}
	.st615{opacity:0.18;clip-path:url(#SVGID_85_);fill:#3D6CBE;}
	.st616{clip-path:url(#SVGID_85_);fill:#3D6CBE;}
	.st617{clip-path:url(#SVGID_85_);fill:#DBBC9A;}
	.st618{clip-path:url(#SVGID_85_);fill:#D0AA86;}
	.st619{clip-path:url(#SVGID_85_);fill:#D2E2F8;}
	.st620{clip-path:url(#SVGID_85_);fill:#E5EEFB;}
	.st621{opacity:0.58;clip-path:url(#SVGID_85_);fill:#E3EDFB;}
	.st622{fill:#D1E1F8;}
	.st623{fill:#E4CAAA;}
	.st624{fill:#DBBC9A;}
	.st625{fill:#87B2ED;}
	.st626{opacity:0.25;fill:#9FC1F1;}
	.st627{fill:#89B3ED;}
	.st628{fill:#EDF3FC;}
	.st629{fill:#C1D0EA;}
	.st630{fill:#205488;}
	.st631{fill:none;stroke:#EDF3FC;stroke-width:4.7019;stroke-miterlimit:10;}
	.st632{clip-path:url(#SVGID_87_);fill:#3D6CBE;}
	.st633{clip-path:url(#SVGID_87_);fill:#E8B372;}
	.st634{clip-path:url(#SVGID_87_);fill:#D19C61;}
	.st635{clip-path:url(#SVGID_87_);fill:#E0EBFA;}
	.st636{clip-path:url(#SVGID_87_);fill:#F9FBFE;}
	.st637{opacity:0.1;clip-path:url(#SVGID_87_);fill:#A4C5F1;}
	.st638{fill:#E8B372;}
	.st639{opacity:0.2;fill:#E8B372;}
	.st640{fill:#F9FBFE;}
	.st641{fill:#DFEBFA;}
	.st642{clip-path:url(#SVGID_89_);fill:#DB646B;}
	.st643{clip-path:url(#SVGID_89_);fill:#F9D873;}
	.st644{clip-path:url(#SVGID_89_);}
	.st645{opacity:0.27;fill:#E4B966;}
	.st646{fill:#9B7340;}
	.st647{fill:#845D33;}
	.st648{fill:#FEF8E6;}
	.st649{fill:#FCE8A9;}
	.st650{clip-path:url(#SVGID_89_);fill:#FAE08D;}
	.st651{fill:#5B3F1D;}
	.st652{fill:#966B3A;}
	.st653{opacity:0.2;fill:#3E361C;}
	.st654{clip-path:url(#SVGID_91_);fill:#64D59C;}
	.st655{opacity:0.2;clip-path:url(#SVGID_91_);fill:#4AA075;}
	.st656{clip-path:url(#SVGID_91_);}
	.st657{fill:#23503B;}
	.st658{fill:#306B4E;}
	.st659{fill:#D8A17B;}
	.st660{fill:#EAB58A;}
	.st661{fill:#C1EED7;}
	.st662{fill:#E7F0FB;}
	.st663{opacity:0.1;fill:#64D59C;}
	.st664{opacity:0.2;fill:#3C7459;}
	.st665{fill:#B0EACC;}
	.st666{fill:#70D8A4;}
	.st667{fill:#5AA981;}
	.st668{opacity:0.1;fill:#3C7459;}
	.st669{fill:#55A67D;}
	.st670{fill:#F2BF91;}
	.st671{opacity:0.2;fill:#306B4E;}
	.st672{fill:none;stroke:#1B412E;stroke-width:4.9492;stroke-miterlimit:10;}
</style>
<g>
	<path class="st103" d="M1849.8,642.6h-247.1c-4.9,0-8.8-3.9-8.8-8.8l0,0c0-4.9,3.9-8.8,8.8-8.8h247.1c4.9,0,8.8,3.9,8.8,8.8l0,0
		C1858.6,638.6,1854.6,642.6,1849.8,642.6z"/>
	<path class="st103" d="M1849.8,720.4h-247.1c-4.9,0-8.8-3.9-8.8-8.8l0,0c0-4.9,3.9-8.8,8.8-8.8h247.1c4.9,0,8.8,3.9,8.8,8.8l0,0
		C1858.6,716.5,1854.6,720.4,1849.8,720.4z"/>
	<path class="st103" d="M1884.7,767.3h-247.1c-4.9,0-8.8-3.9-8.8-8.8l0,0c0-4.9,3.9-8.8,8.8-8.8h247.1c4.9,0,8.8,3.9,8.8,8.8l0,0
		C1893.5,763.3,1889.6,767.3,1884.7,767.3z"/>
	<path class="st361" d="M1918.5,681.5h-247.1c-4.9,0-8.8-3.9-8.8-8.8l0,0c0-4.9,3.9-8.8,8.8-8.8h247.1c4.9,0,8.8,3.9,8.8,8.8l0,0
		C1927.3,677.5,1923.4,681.5,1918.5,681.5z"/>
</g>
<g>
	<path class="st362" d="M890.7,325.6H511.2c-8.8,0-15.9-7.1-15.9-15.9v-84.2c0-8.8,7.1-15.9,15.9-15.9h379.6
		c8.8,0,15.9,7.1,15.9,15.9v84.2C906.6,318.5,899.5,325.6,890.7,325.6z"/>
	<path class="st359" d="M525.3,325.6h-14.2c-8.8,0-15.9-7.1-15.9-15.9v-84.2c0-8.8,7.1-15.9,15.9-15.9h13.6"/>
	<path class="st359" d="M853.7,276H563.6c-3.4,0-6.1-2.7-6.1-6.1v0c0-3.4,2.7-6.1,6.1-6.1h290.1c2,0,3.7,1.6,3.7,3.7v4.8
		C857.4,274.3,855.7,276,853.7,276z"/>
	<path class="st359" d="M631.8,253.1h-71.9c-1.3,0-2.4-1.1-2.4-2.4l0,0c0-1.3,1.1-2.4,2.4-2.4h71.9c0.8,0,1.4,0.6,1.4,1.4v1.9
		C633.2,252.4,632.6,253.1,631.8,253.1z"/>
	<g>
		<path class="st100" d="M567.9,232.4h-2.7c-1.6,0-2.8-1.3-2.8-2.8v0c0-1.6,1.3-2.8,2.8-2.8h2.7c1.6,0,2.8,1.3,2.8,2.8v0
			C570.7,231.1,569.4,232.4,567.9,232.4z"/>
		<path class="st100" d="M582.6,232.4h-2.7c-1.6,0-2.8-1.3-2.8-2.8v0c0-1.6,1.3-2.8,2.8-2.8h2.7c1.6,0,2.8,1.3,2.8,2.8v0
			C585.4,231.1,584.1,232.4,582.6,232.4z"/>
		<path class="st359" d="M553.1,232.4h-2.7c-1.6,0-2.8-1.3-2.8-2.8v0c0-1.6,1.3-2.8,2.8-2.8h2.7c1.6,0,2.8,1.3,2.8,2.8v0
			C556,231.1,554.7,232.4,553.1,232.4z"/>
	</g>
</g>
<g>
	<path class="st362" d="M890.7,464.5H511.2c-8.8,0-15.9-7.1-15.9-15.9v-84.2c0-8.8,7.1-15.9,15.9-15.9h379.6
		c8.8,0,15.9,7.1,15.9,15.9v84.2C906.6,457.4,899.5,464.5,890.7,464.5z"/>
	<path class="st359" d="M525.3,464.5h-14.2c-8.8,0-15.9-7.1-15.9-15.9v-84.2c0-8.8,7.1-15.9,15.9-15.9h13.6"/>
	<path class="st359" d="M853.7,414.9H563.6c-3.4,0-6.1-2.7-6.1-6.1v0c0-3.4,2.7-6.1,6.1-6.1h290.1c2,0,3.7,1.6,3.7,3.7v4.8
		C857.4,413.3,855.7,414.9,853.7,414.9z"/>
	<path class="st359" d="M631.8,392h-71.9c-1.3,0-2.4-1.1-2.4-2.4l0,0c0-1.3,1.1-2.4,2.4-2.4h71.9c0.8,0,1.4,0.6,1.4,1.4v1.9
		C633.2,391.4,632.6,392,631.8,392z"/>
	<g>
		<path class="st100" d="M567.9,371.3h-2.7c-1.6,0-2.8-1.3-2.8-2.8l0,0c0-1.6,1.3-2.8,2.8-2.8h2.7c1.6,0,2.8,1.3,2.8,2.8l0,0
			C570.7,370.1,569.4,371.3,567.9,371.3z"/>
		<path class="st100" d="M582.6,371.3h-2.7c-1.6,0-2.8-1.3-2.8-2.8l0,0c0-1.6,1.3-2.8,2.8-2.8h2.7c1.6,0,2.8,1.3,2.8,2.8l0,0
			C585.4,370.1,584.1,371.3,582.6,371.3z"/>
		<path class="st359" d="M553.1,371.3h-2.7c-1.6,0-2.8-1.3-2.8-2.8l0,0c0-1.6,1.3-2.8,2.8-2.8h2.7c1.6,0,2.8,1.3,2.8,2.8l0,0
			C556,370.1,554.7,371.3,553.1,371.3z"/>
	</g>
</g>
<g>
	<g>
		<path class="st341" d="M356.6,964c0.1-26.6-0.5-52,2.2-78.4c1.5-14.1,3.9-28.3,7.3-42.2c2.9-12.5,3.9-25.4,6.8-37.6
			c7.1-29.7,16.3-59.4,25.5-88.3c6.8-21.5,16-46.9,27.8-66.8c8.2-14.1,21.9-37.1,34.9-46.4c13.2,71.7-9.6,148.1-29.1,216.6
			c-13.1,46.2-21,96.3-41.7,139.6c-1.2,2.6-2.9,5.3-3.9,8.1C377.2,964.8,364.5,970.8,356.6,964z"/>
	</g>
	<g>
		<g>
			<path class="st26" d="M429.2,658.1c6.4,2.4,14.6,5.5,22.6,3.7l0.5,2.9c-8.7,2-17.3-1.3-24.3-3.7L429.2,658.1z"/>
		</g>
		<g>
			<path class="st26" d="M422.8,676.7c7.8,3.7,17.5,4.3,25.1,1.8l0.9,2.8c-8.2,2.8-18.7,2.4-27.2-1.7L422.8,676.7z"/>
		</g>
		<g>
			<path class="st26" d="M421.1,696.5l1.4-2.8l0,0c6.3,3.3,11.2,2.8,17.2,2.1c3.8-0.4,7.5-0.8,11.7-0.4l-0.4,3
				c-4.2-0.4-7.7,0.1-11.1,0.4C434,699.6,428.3,700.2,421.1,696.5L421.1,696.5z"/>
		</g>
		<g>
			<path class="st26" d="M415.7,713.7c8.7,4.2,25.8,7.2,33.7,4.4l0.9,2.8c-9.4,3.4-28.1-0.4-36-4.5L415.7,713.7z"/>
		</g>
		<g>
			<path class="st26" d="M411.8,733.8c9,2.6,29.3,4.9,31.3,2.3l2.3,1.8c-3.8,5.1-28.8,0.4-34.4-1.3L411.8,733.8z"/>
		</g>
		<g>
			<path class="st26" d="M409.2,756l1.6-2.4c5.1,3.2,22.5,6.6,30.7,2.9l1.3,2.7c-9.2,4.1-25.8,0.8-32.5-2.7
				C409.6,756.3,409.2,756,409.2,756z"/>
		</g>
		<g>
			<path class="st26" d="M401.7,766c5.5,0.8,10.9,3,16.2,5.1c5.4,2.2,11.3,4.4,17,5.3l-0.4,3c-6.2-1.1-12.1-3.3-17.7-5.6
				c-5.4-2.2-10.5-4.2-15.6-5.1L401.7,766z"/>
		</g>
		<g>
			<path class="st26" d="M397.8,783.8c3.9,1.1,8.1,2.1,12.6,3c6.2,1.1,12.9,2.5,18.7,4.9l-1.1,2.7c-5.6-2.3-12-3.6-18.2-4.7
				c-4.6-0.9-8.9-1.6-13-2.9L397.8,783.8z"/>
		</g>
		<g>
			<path class="st26" d="M392.7,803.3c7.7,3.4,22.6,6.4,29.4,2.5l1.6,2.6c-7.6,4.3-23.3,1.2-32.1-2.4L392.7,803.3z"/>
		</g>
		<g>
			<path class="st26" d="M388.7,821.3c9.7,4.7,22.5,6.1,32.5,3.8l0.5,2.9c-10.7,2.4-24.3,0.7-34.5-4L388.7,821.3z"/>
		</g>
		<g>
			<path class="st26" d="M383.5,843.9l1.8-2.3c5.6,4.1,18.7,6.1,30.3,4.2l0.5,2.9c-9.6,1.5-22.5,0.7-30.2-3.2
				C385,845,384.3,844.6,383.5,843.9z"/>
		</g>
		<g>
			<path class="st26" d="M379.1,862l1.6-2.4c8.2,5.2,16,5.6,24.9,6.1l3.2,0.2l0,2.9l-3.2-0.2c-8.4-0.2-15.8-0.8-23.5-4.8
				C381.1,863.3,380.3,862.6,379.1,862z"/>
		</g>
		<g>
			<path class="st26" d="M372.3,878.6l1.6-2.4c4.6,3,9.6,3.2,14.9,3.6c4,0.3,8.2,0.7,12.2,2.2l-1.1,2.7c-3.5-1.2-7.2-1.4-11.2-1.7
				c-4.8-0.4-9.9-0.7-14.8-3.3C373.4,879.4,372.9,879.2,372.3,878.6z"/>
		</g>
		<g>
			<path class="st26" d="M368.6,895.5l1.6-2.4c8.6,5.6,16.2,5.7,26.6,5.5l0.2,3c-9.6,0.3-16.9,0.1-24.8-4
				C371,897.1,370,896.2,368.6,895.5z"/>
		</g>
		<g>
			<path class="st26" d="M369.1,914.4l1.6-2.4c5.8,3.6,12.5,5.6,20,5.3l0,2.9c-6.8,0-13.1-1.5-18.5-4.2
				C371.2,915.5,370.1,914.9,369.1,914.4z"/>
		</g>
	</g>
	<g>
		<path class="st26" d="M389.5,963.1c6.2-63,16-126.5,33.3-187.5c6.3-22,15-43.6,26.4-63.4c9.6-17,23.6-27.5,35.9-42.1
			c3.1,60.9-9.1,124.8-26.8,183.5c-9.7,31.6-14.7,88.6-38.5,112.5C412.3,963.4,396.9,964.3,389.5,963.1z"/>
		<g>
			<g>
				<path class="st413" d="M479.3,715.1c-6.7-1-15.1-2-21.3-7.3l1.7-2.2c5.7,4.8,13.6,5.8,19.9,6.5L479.3,715.1z"/>
			</g>
			<g>
				<path class="st413" d="M476.6,732.8c-8.6-0.3-17.2-4.4-22.7-10.1l1.9-1.9c5,5.3,13.2,8.9,21.1,9.2L476.6,732.8z"/>
			</g>
			<g>
				<path class="st413" d="M469.9,746.7c-7.4,0-11.7-2.9-16.3-6.1c-2.6-1.7-5.3-3.6-8.8-5.1l1-2.6c3.6,1.5,6.5,3.4,9.3,5.3
					c4.5,3.1,8.4,5.5,14.8,5.6l0,0L469.9,746.7L469.9,746.7z"/>
			</g>
			<g>
				<path class="st413" d="M466.9,765.9c-8.1,0-24.9-4.9-31.1-11.6l1.9-1.9c5.3,5.5,20.3,10.4,29.2,10.7L466.9,765.9z"/>
			</g>
			<g>
				<path class="st413" d="M461.1,783.6c-5.3-1-27.5-7.8-28.5-13.5l2.6-0.5c0.5,2.9,17.9,9.7,26.3,11.4L461.1,783.6z"/>
			</g>
			<g>
				<path class="st413" d="M453.4,800.1c-7,0-21.8-4.4-27.5-11.6l2.2-1.7c5,6.5,20.6,11.1,26.1,10.6l0.2,2.6
					C454.3,800.1,453.9,800.1,453.4,800.1z"/>
			</g>
			<g>
				<path class="st413" d="M455.5,813.8c-4.5-1.5-9.6-2-14.9-2.5c-5.5-0.5-11.3-1.2-16.8-2.9l1-2.6c5,1.7,10.8,2.4,16,2.9
					s10.5,1,15.3,2.7L455.5,813.8z"/>
			</g>
			<g>
				<path class="st413" d="M451.4,830.3c-3.8-0.7-7.7-1.9-11.7-3.2c-5.5-1.7-11.3-3.4-16.8-3.9l0.2-2.6c5.8,0.5,11.7,2.2,17.2,3.9
					c4.1,1.2,7.9,2.2,11.5,2.9L451.4,830.3z"/>
			</g>
			<g>
				<path class="st413" d="M447.5,848c-8.6-0.7-22.8-4.9-27-11.6l2.4-1.4c3.8,6,17.2,9.9,24.9,10.4L447.5,848z"/>
			</g>
			<g>
				<path class="st413" d="M443.3,864.5c-10.3-0.5-22-4.9-29.7-11.4l1.7-2.2c7.2,6,18.2,10.4,28,10.6L443.3,864.5z"/>
			</g>
			<g>
				<path class="st413" d="M435.3,882.5c-7.9,0-18.7-4.9-25.8-10.2l1.7-2.2c8.6,6.5,20.1,10.4,26.3,9.4l0.5,2.6
					C437,882.5,436.3,882.5,435.3,882.5z"/>
			</g>
			<g>
				<path class="st413" d="M430.7,899c-7.9,0-14.1-2.7-21.1-6.1l-2.6-1.2l1.2-2.4l2.6,1.2c7.4,3.4,13.9,6.3,22.7,5.6l0.2,2.6
					C432.7,898.8,431.7,899,430.7,899z"/>
			</g>
			<g>
				<path class="st413" d="M430.7,915.3c-5,0-9.3-2-13.4-3.6c-3.4-1.5-6.5-2.9-9.8-3.4l0.2-2.6c3.8,0.5,7.4,1.9,10.8,3.4
					c4.5,1.9,8.6,3.9,13.6,3.4l0.2,2.6C431.6,915.3,431.2,915.3,430.7,915.3z"/>
			</g>
			<g>
				<path class="st413" d="M424.4,930.6c-8.1,0-14.1-2.9-21.8-7.3l1.4-2.4c8.4,4.6,14.6,7.7,23.9,6.8l0.2,2.6
					C426.8,930.4,425.6,930.6,424.4,930.6z"/>
			</g>
			<g>
				<path class="st413" d="M416.7,945.5c-5.5,0-11.3-1.5-16.8-4.4l1.2-2.4c6,3.4,12.2,4.6,18.4,4.1l0.2,2.6
					C418.8,945.5,417.6,945.5,416.7,945.5z"/>
			</g>
		</g>
	</g>
	<g>
		<path class="st341" d="M342.5,962.9c-5.8-63.1-15.1-126.6-31.9-187.8c-6.2-22.1-14.7-43.7-25.9-63.6
			c-9.5-17.1-23.4-27.6-35.6-42.3c-3.6,60.9,8.2,124.9,25.5,183.7c9.5,31.7,14.1,88.7,37.7,112.8
			C319.5,963.1,334.9,964.1,342.5,962.9z"/>
		<g>
			<g>
				<path class="st342" d="M254.5,714.3c6.7-0.9,15.1-1.9,21.4-7.1l-1.7-2.2c-5.8,4.8-13.7,5.7-19.9,6.4L254.5,714.3z"/>
			</g>
			<g>
				<path class="st342" d="M257.1,732c8.6-0.2,17.3-4.3,22.8-10l-1.9-1.9c-5.1,5.3-13.2,8.8-21.1,9L257.1,732z"/>
			</g>
			<g>
				<path class="st342" d="M263.7,746c7.4,0,11.8-2.8,16.3-5.9c2.6-1.7,5.3-3.6,8.9-5l-0.9-2.6c-3.6,1.4-6.5,3.3-9.4,5.2
					c-4.6,3.1-8.4,5.5-14.9,5.5l0,0L263.7,746L263.7,746z"/>
			</g>
			<g>
				<path class="st342" d="M266.3,765.2c8.1,0,24.9-4.7,31.2-11.4l-1.9-1.9c-5.3,5.5-20.4,10.2-29.3,10.4L266.3,765.2z"/>
			</g>
			<g>
				<path class="st342" d="M272,782.9c5.3-0.9,27.6-7.6,28.6-13.3l-2.6-0.5c-0.5,2.9-18,9.5-26.4,11.2L272,782.9z"/>
			</g>
			<g>
				<path class="st342" d="M279.6,799.5c7,0,21.8-4.2,27.6-11.4l-2.2-1.7c-5.1,6.5-20.7,11-26.2,10.5l-0.2,2.6
					C278.9,799.5,279.4,799.5,279.6,799.5z"/>
			</g>
			<g>
				<path class="st342" d="M277.6,813.1c4.6-1.4,9.6-1.9,14.9-2.3c5.5-0.5,11.3-1.2,16.8-2.8l-0.9-2.6c-5,1.7-10.8,2.4-16.1,2.8
					c-5.3,0.5-10.5,0.9-15.3,2.6L277.6,813.1z"/>
			</g>
			<g>
				<path class="st342" d="M281.4,829.7c3.8-0.7,7.7-1.9,11.8-3.1c5.5-1.7,11.3-3.3,16.8-3.8l-0.2-2.6c-5.8,0.5-11.8,2.1-17.3,3.8
					c-4.1,1.2-7.9,2.1-11.5,2.8L281.4,829.7z"/>
			</g>
			<g>
				<path class="st342" d="M285.4,847.4c8.6-0.7,22.8-4.7,27.1-11.4l-2.4-1.4c-3.9,6-17.3,9.8-25,10.2L285.4,847.4z"/>
			</g>
			<g>
				<path class="st342" d="M289.5,864c10.3-0.4,22.1-4.7,29.8-11.2l-1.7-2.2c-7.2,6-18.3,10.2-28.1,10.4L289.5,864z"/>
			</g>
			<g>
				<path class="st342" d="M297.3,882c7.9,0,18.7-4.7,25.9-10l-1.7-2.2c-8.7,6.4-20.2,10.2-26.4,9.3l-0.5,2.6
					C295.4,882,296.3,882,297.3,882z"/>
			</g>
			<g>
				<path class="st342" d="M301.8,898.5c7.9,0,14.2-2.6,21.1-5.9l2.6-1.2l-1.2-2.4l-2.6,1.2c-7.4,3.3-13.9,6.2-22.8,5.4l-0.2,2.6
					C299.9,898.3,300.8,898.5,301.8,898.5z"/>
			</g>
			<g>
				<path class="st342" d="M301.7,914.8c5,0,9.4-1.9,13.4-3.5c3.4-1.4,6.5-2.9,9.8-3.3l-0.2-2.6c-3.8,0.5-7.4,1.9-10.8,3.3
					c-4.6,1.9-8.6,3.8-13.7,3.3l-0.2,2.6C300.5,914.8,301.3,914.8,301.7,914.8z"/>
			</g>
			<g>
				<path class="st342" d="M307.9,930.2c8.1,0,14.2-2.8,21.8-7.1l-1.4-2.4c-8.4,4.5-14.6,7.6-24,6.6l-0.2,2.6
					C305.5,930,306.7,930.2,307.9,930.2z"/>
			</g>
			<g>
				<path class="st342" d="M315.5,945.1c5.5,0,11.3-1.4,16.8-4.3l-1.2-2.4c-6,3.3-12.2,4.5-18.5,4l-0.2,2.6
					C313.4,945.1,314.3,945.1,315.5,945.1z"/>
			</g>
		</g>
	</g>
	<g>
		<path class="st26" d="M282.4,965.6c3.7-42.4-26.5-82.3-42-119.5c-7.8-18.7-17.6-36.7-26.2-54.7c-7.6-16.1-19.1-29.1-26.4-45.4
			c21.3-0.9,40.9,26.3,54.3,39.7c17.2,17.3,34.4,35.4,46.1,57.4c18.8,35.1,32.1,80.9,29.8,120.7C306.6,963,294.1,964.7,282.4,965.6z
			"/>
		<g>
			<g>
				<path class="st343" d="M202.1,764.2l-0.9-2.6c1.9-0.7,3.6-2.1,4.8-3.6l2.2,1.7C206.7,761.6,204.2,763.3,202.1,764.2z"/>
			</g>
			<g>
				<path class="st343" d="M205.9,771.2l-0.5-2.6c2.2-0.5,4.6-1.9,7-3.3c1-0.5,1.7-1,2.4-1.4l1.2,2.4c-0.7,0.2-1.4,0.7-2.2,1.2
					C211.2,768.8,208.5,770.5,205.9,771.2z"/>
			</g>
			<g>
				<path class="st343" d="M213.8,778.4l-1.2-2.4c2.4-1.2,4.6-3.1,6.7-5c0.7-0.5,1.2-1.2,1.9-1.7l1.7,2.2c-0.7,0.5-1.2,1.2-1.9,1.7
					C218.8,775.1,216.4,777.2,213.8,778.4z"/>
			</g>
			<g>
				<path class="st343" d="M218.8,785.8l-1.7-2.2c2.9-2.1,7.2-5.2,11.3-6.9l1.2,2.4C225.5,780.8,221.4,783.7,218.8,785.8z"/>
			</g>
			<g>
				<path class="st343" d="M221.6,793.8l-0.9-2.6c3.1-0.9,10.6-3.8,14.6-7.9l1.9,1.9C232.9,789.7,225,792.6,221.6,793.8z"/>
			</g>
			<g>
				<path class="st343" d="M227.6,804.1l-0.5-2.6c4.6-0.9,10.3-5.2,12-9.5l2.4,1.2C239.6,797.9,233.1,802.9,227.6,804.1z"/>
			</g>
			<g>
				<path class="st343" d="M233.3,812.3l-0.7-2.6c7-1.9,12.5-5.7,14.9-10.3l2.4,1.4C247,805.8,240.8,810.1,233.3,812.3z"/>
			</g>
			<g>
				<path class="st343" d="M238.3,824.7c-0.2,0-0.5,0-0.7,0l0.2-2.6c4.3,0.5,9.4-5,13-9.1c1-1,1.7-1.9,2.4-2.9l1.9,1.9
					c-0.7,0.7-1.4,1.7-2.4,2.6C248.9,819,243.6,824.8,238.3,824.7z"/>
			</g>
			<g>
				<path class="st343" d="M244,835.8l-0.2-2.6c5.8-0.7,13.7-6.9,16.8-12.4l2.4,1.4C259.1,828.2,251,835.1,244,835.8z"/>
			</g>
			<g>
				<path class="st343" d="M248.3,846.8c-0.2,0-0.2,0-0.5,0l0-2.6c6,0.3,13.9-6.4,19-10.7l1.2-1.2l1.7,2.2l-1.2,1.2
					C263.4,839.9,255.2,846.8,248.3,846.8z"/>
			</g>
			<g>
				<path class="st343" d="M255,856.9l-0.5-2.6c6.2-1.2,12.5-5.7,18-9.5c1.2-1,2.4-1.7,3.6-2.6l1.4,2.2c-1.2,0.7-2.4,1.7-3.6,2.4
					C268.2,851,261.7,855.5,255,856.9z"/>
			</g>
			<g>
				<path class="st343" d="M262.6,870.8c-0.2,0-0.2,0-0.5,0l0-2.6c6.7,0.3,17-6.2,20.9-11.7l2.2,1.7
					C281.1,864,270.3,870.9,262.6,870.8z"/>
			</g>
			<g>
				<path class="st343" d="M271.9,885.3c-0.2,0-0.7,0-1,0l0.2-2.6c5.8,0.5,11.5-3.8,16.8-7.6c1.7-1.2,3.1-2.1,4.6-3.1l1.4,2.4
					c-1.4,1-2.9,1.9-4.3,3.1C284.1,881,278.1,885.3,271.9,885.3z"/>
			</g>
			<g>
				<path class="st343" d="M277.4,894.9c-0.7,0-1.7,0-2.4,0l0-2.6c3.8,0,6.7,0,9.8-0.7c2.6-0.7,4.6-1.9,7-3.3c0.7-0.5,1.7-1,2.4-1.4
					c0.7-0.5,1.4-1.2,1.9-1.7c0.5-0.7,1.2-1.4,2.4-1.2c1,0.2,1.2,1.4,1.2,1.9l-2.6,0.5c0,0,0.2,0.2,0.7,0.5c0.5,0.2,1,0,1-0.2
					c0,0-0.2,0.2-0.5,0.5c-0.5,0.7-1.4,1.4-2.6,2.1c-0.7,0.5-1.7,1-2.4,1.4c-2.4,1.4-4.6,2.9-7.7,3.6
					C282.9,894.6,280,894.9,277.4,894.9z"/>
			</g>
			<g>
				<path class="st343" d="M285.7,912.1c-1.4,0-3.1-0.3-4.6-1l1.2-2.4c5,2.7,12.7-2.6,17.3-5.7c1-0.7,1.9-1.2,2.6-1.7l1.4,2.4
					c-0.7,0.5-1.4,1-2.4,1.7C297.4,908.1,291.2,912.2,285.7,912.1z"/>
			</g>
			<g>
				<path class="st343" d="M290.2,922.9c-0.2,0-0.7,0-1,0l0.2-2.6c3.6,0.3,7.4-1.4,11-2.8c2.9-1.2,5.8-2.4,8.2-2.6l0,2.6
					c-1.9,0-4.3,1.2-7.2,2.4C298.1,921.3,294,923,290.2,922.9z"/>
			</g>
			<g>
				<path class="st343" d="M289.7,935.4c-0.2,0-0.7,0-1,0l0-2.6c6.7,0.3,11.5-1.9,17.5-4.5l0.5-0.2l1.2,2.4l-0.5,0.2
					C301.4,933.3,296.4,935.4,289.7,935.4z"/>
			</g>
			<g>
				<path class="st343" d="M294.9,951c-1.9,0-3.8-0.3-5.7-0.7l0.5-2.6c6.5,1.5,11,0.3,16.3-1.9l0.9,2.6
					C302.6,950.1,298.7,951,294.9,951z"/>
			</g>
		</g>
	</g>
	<g>
		<path class="st26" d="M335.4,961.7c-7.3-27.8-7.7-65.2-11.2-95.2c-3.7-30.2-5.1-60.2-9.7-90.2c-4.7-29.7-1.5-57-1.8-86.8
			c-0.2-19.9-5.6-46.8,3.4-65.7c12.4,28.8,19.4,65,25.3,95.7c6.4,32.9,12.9,65.2,18.6,98.1c8.7,49.9,16.4,102.2,8.8,152.2
			C354.5,969.4,346.8,967.7,335.4,961.7z"/>
		<g>
			<path class="st413" d="M324.3,647.9c-3.4,0-6.5,0.2-9.6,0.9l0.7,2.6c2.9-0.7,6-0.9,8.9-0.9L324.3,647.9z"/>
			<path class="st413" d="M328,662.1l-0.5-2.6l-1.4,0.2c-3.4,0.5-7,1.2-10.3,1.4l0.2,2.6c3.6-0.2,7.2-0.7,10.8-1.4L328,662.1z"/>
			<path class="st413" d="M329.9,674.1l-0.9-2.6c-4.1,1.4-9.8,1.2-10.3,0.4l-2.2,1.4c0.7,1.2,2.4,1.7,4.3,1.9
				C323.9,675.5,328,674.8,329.9,674.1z"/>
			<path class="st413" d="M330.8,684.4c-4.6,0.7-8.9,1.2-13.4,0.4l-0.2,2.6c0.2,0,0.7,0,1,0c4.6,0.5,8.9,0,13.2-0.7L330.8,684.4z"/>
			<path class="st413" d="M334.6,695.2c-2.4,1.9-10.6,2.8-15.6,1.9l-0.5,2.6c0.5,0,1.2,0.2,1.9,0.2c5.5,0.5,12.9-0.4,16.1-2.6
				L334.6,695.2z"/>
			<path class="st413" d="M320.7,709l-0.5,2.6c0.7,0.2,1.7,0.2,2.9,0.5c4.1,0.5,10.3,0.3,14.9-2.6l-1.4-2.4
				C332.7,709.5,326.9,710.2,320.7,709z"/>
			<path class="st413" d="M336.5,723.2l-1.2-2.4c-4.8,2.1-13.9,3.8-15.1,2.6l-2.2,1.7c0.7,1,1.9,1.4,3.4,1.5
				C326.4,726.8,334.3,724.2,336.5,723.2z"/>
			<path class="st413" d="M338.6,733.1c-4.3,2.4-10.1,2.4-15.8,2.3c-1.7,0-3.4,0-4.8,0l0.2,2.6c1.4,0,3.1,0,4.8,0
				c5.8,0,12.5,0,17.3-2.6L338.6,733.1z"/>
			<path class="st413" d="M341.1,750.3l-1.2-2.4c-6.2,2.9-10.8,2.6-16.5,0.9l-0.7,2.6c2.2,0.5,4.1,1,6.2,1.2
				C332.8,753.2,336.6,752.5,341.1,750.3z"/>
			<path class="st413" d="M344.2,764.5l-0.5-2.6l-2.2,0.5c-5.5,1.2-11,2.4-16.8,1.4l-0.5,2.6c0.7,0,1.4,0.2,1.9,0.2
				c5.5,0.5,10.5-0.4,15.8-1.6L344.2,764.5z"/>
			<path class="st413" d="M350.6,777.7l-1.4-2.4c-4.1,2.6-11.8,3.8-17.5,2.6l-0.5,2.6c1,0.2,1.7,0.2,2.6,0.5
				C339.1,781.7,346.1,780.8,350.6,777.7z"/>
			<path class="st413" d="M342.9,794.7c3.1-0.5,6.2-0.9,9.4-0.9l0-2.6c-3.4,0-6.7,0.5-9.8,0.9c-4.1,0.7-7.9,1.4-12.2,0.7l-0.5,2.6
				c0.5,0,1,0.2,1.7,0.2C335.2,796.1,339.1,795.4,342.9,794.7z"/>
			<path class="st413" d="M352.9,809.3l-0.9-2.6l-0.7,0.2c-7.2,2.6-14.4,5.2-21.8,4l-0.5,2.6c0.7,0.2,1.4,0.2,1.9,0.2
				c7.4,0.7,14.6-1.9,21.3-4.2L352.9,809.3z"/>
			<path class="st413" d="M349.3,823.7c1.7-0.5,3.4-0.9,5-1.4l-0.7-2.6c-1.7,0.5-3.4,0.9-5,1.4c-5.5,1.4-11,3.1-16.8,2.1l-0.5,2.6
				c0.7,0,1.2,0.2,1.9,0.2C338.7,826.8,344.2,825.1,349.3,823.7z"/>
			<path class="st413" d="M355.9,833.8c-9.4,2.6-17.3,3.3-24.5,2.3l-0.5,2.6c1,0.2,1.9,0.2,3.1,0.5c6.7,0.7,14.1-0.2,22.5-2.6
				L355.9,833.8z"/>
			<path class="st413" d="M339.1,853.4c-1.7-0.2-3.1-0.5-4.6-0.5l-0.2,2.6c1.4,0.2,2.9,0.2,4.6,0.5c1.7,0.2,3.1,0.5,4.8,0.5
				c4.6,0.5,9.3,0.3,13.7-1.9l-1.4-2.4C351.1,855.1,344.9,854.1,339.1,853.4z"/>
			<path class="st413" d="M337.9,867.8c-0.5-0.2-0.7-0.5-0.7-0.5l-2.6,0c0,0.7,0.2,2.2,2.1,3.1c1.2,0.5,2.9,1,4.8,1.2
				c7.7,0.7,20.4-1.1,24-4l-1.7-2.2C360.1,868.1,342.6,870.2,337.9,867.8z"/>
			<path class="st413" d="M360.1,886.5l-0.5-2.6c-4.6,0.9-19.9,3.3-27.6-0.8l-1.2,2.4c2.4,1.2,5.7,1.9,9.1,2.4
				C347.4,888.4,356,887.2,360.1,886.5z"/>
			<path class="st413" d="M337.5,899.1c10.3,1,18.9,1.5,28-0.1l-0.5-2.6c-8.6,1.6-17,1.1-27.1,0.1L337.5,899.1z"/>
			<path class="st413" d="M335.5,915.4l-1.2,2.4c2.6,1.4,6.2,2.2,9.6,2.7c6.7,0.7,14.1-0.4,19.2-2.6l-1.2-2.4
				C355.2,918.4,342.7,919.1,335.5,915.4z"/>
			<path class="st413" d="M351.5,935.2c3.1-0.5,6.2-0.9,8.4-0.9l0-2.6c-2.6,0-5.5,0.5-8.9,0.9c-6.5,0.9-13.7,1.9-17-0.3l-1.4,2.4
				c1.4,1,3.4,1.5,5.5,1.7C342.2,936.3,347,935.6,351.5,935.2z"/>
			<path class="st413" d="M364.7,945.7c-6.5,1.9-24.4,0.6-28.7-3.5l-1.9,1.9c2.6,2.6,8.9,4.1,15.3,4.6c6.2,0.5,12.7,0.3,16.1-0.7
				L364.7,945.7z"/>
		</g>
	</g>
	<path class="st124" d="M376.4,954.7c-20.9-0.1-41.7-0.6-62.5-1.4c-16.3-0.8-31.2-0.4-47.5,0.1c-3.1,0,7.1,78.2,8.6,85.1
		c4,20.9,10.1,45.1,21.1,64.1c6.4,10.8,9.3,15.1,20.8,17.6c13.7,2.9,28.8,1.3,42.7,1.4c10.1,0,21.8,1.5,31.4-0.8
		c11-2.8,13.9-10.7,20-21.5c12.5-23.4,24.2-52.4,26.9-79c1.2-12,2-24.4,2.5-36.4c0.3-6,3.5-26.6,0.1-31.4c0.2-0.7,0-1.4-0.2-2.4
		C417.1,948.8,398.7,954.7,376.4,954.7z"/>
</g>
<path class="st26" d="M1161.7,920.8c-4.9,2.6-9.1,6.3-13.3,9.9c-1.7,1.5-3.4,3-4.6,4.8s-1.8,4.2-1.2,6.3c0.8,2.6,3.2,4.3,5.4,5.8
	c7.4,5,15,10,23.6,12.5c4.7,1.4,9.7,1.9,14.4,3.1c4.1,1,8.1,2.6,12.2,3.6c4.8,1.3,9.9,1.9,14.9,1.8c2.5,0,5.3-0.3,7.2-2
	c1.7-1.4,2.5-3.5,2.9-5.6c1.4-7.8-3-15.4-8.1-21.5c-3.8-4.6-8.1-8.8-12.8-12.4c-2.9-2.3-5.6-3.7-9.2-4.2c-3.4-0.4-6-2-9.3-3.2
	C1176.7,917.3,1168.7,917.2,1161.7,920.8z"/>
<path class="st26" d="M1435.5,682.6c0.1-17.1,7.4-34,19.8-45.8c1.3-1.3,2.8-2.5,4.4-3.4c2-1,4.1-1.3,6.3-1.7
	c8.7-1.4,17.5-2.8,26.2-2c6.6,0.6,12.9,2.5,19.4,3.7c14.5,2.7,29.5,2,44,4.3c11.2,1.8,21.9,5.3,32.7,8.8c2.3,0.8,4.7,1.6,6.2,3.5
	c1.2,1.5,1.7,3.6,1.8,5.5c0.5,6.2-1.7,12.6-5.8,17.3c-3.9,4.4-9.2,7.2-13.9,10.7c-6,4.4-11.1,10-17,14.5c-9.1,6.9-20.1,11-31.3,13.7
	c-19.2,4.5-39.4,4.7-58.6,0.6c-6.2-1.3-12.5-3.2-17.1-7.5"/>
<g>
	<path class="st414" d="M1458.4,536.1c0.8-6.6,2.4-13.1,4.7-19.4c2.8-7.6,6.7-14.9,7.3-22.9c0.9-11.4-5.5-22.7-14.9-29.3
		c-4.2-2.9-16.3-9.8-21.6-7.4c-7,3.2-1.8,13.2,0.2,18.3C1441.9,495.7,1450.3,515.9,1458.4,536.1z"/>
	<path class="st415" d="M1461.9,535.2c0.8-6.6,2.4-13.1,4.7-19.4c2.8-7.6,6.7-14.9,7.3-22.9c0.9-11.4-5.5-22.7-14.9-29.3
		c-4.2-2.9-16.3-9.8-21.6-7.4c-7,3.2-1.8,13.2,0.2,18.3C1445.5,494.9,1453.8,515,1461.9,535.2z"/>
	<g>
		<path class="st416" d="M1482.4,572.3c-2.8,32.6-10.8,67-34.8,89.2c-0.9,0.9-1.9,1.8-2.2,3c-0.3,1.4,0.4,2.8,1.1,4.1
			c8,14.8,7.4,12.9,15.3,27.7c4.5,8.3,9,16.7,15.2,23.9c11.3,13,27.3,21,39,33.6c32.9-21.6,62.8-50.7,75.6-87.9
			c0.5-1.3,0.9-2.7,0.9-4.2c-0.1-2.3-1.4-4.3-2.4-6.4c-5.2-10.2-9.2-22.2-8.6-33.6c0.4-7.3,6.4-30.4,11-44"/>
		<path class="st417" d="M1476.9,720.3c11.3,13,27.3,21,39,33.6c32.9-21.6,62.8-50.7,75.6-87.9c0.5-1.3,0.9-2.7,0.9-4.2
			c-0.1-2.3-1.4-4.3-2.4-6.4c-5.2-10.2-9.2-22.2-8.6-33.6c0.4-7.6,5.2-29,11-44.3c-7.4,9.5-17.8,24.2-25.3,33.6
			c-28.3,35.6-40.7,48.1-66,60.4c-12.7,6.2-32.1,8.5-54.8-2.9C1448.3,679.9,1469.6,711.8,1476.9,720.3z"/>
		<path class="st418" d="M1455.1,470.8c2,23-6.1,41.2-8.4,55c-4.4,26.9,4.4,41.8,10.8,68.2c2.7,10.9,5.8,22.1,12.8,30.9
			c10.7,13.4,30.3,19,46.6,13.4c7.4-2.6,40.6-27.1,50.4-35.3c7-5.9,13.9-12,19.5-19.2c10.3-13.3,15.4-29.7,20.2-45.8
			c8-26.4,16.1-53.2,16.4-80.7c0-4-0.1-8-1.6-11.7c-1.2-2.9-3.3-5.4-5.3-7.8c-5.6-6.6-11.4-13.2-18.6-18
			c-19.3-12.7-44.5-10.2-67.4-13.9C1489.5,399.3,1452.2,437.9,1455.1,470.8z"/>
		<path class="st416" d="M1455.6,470.8c1.9,16.1,0.6,24.2-4.5,40.1c13.2,12.2,33.2,13,51.1,11.1c17.9-1.8,36.4-5.6,53.5,0
			c5,1.7,9.9,4.1,13.7,7.8c9.4,9.1,11.1,23.7,9.1,36.7c-2.9,18.8-17.2,39.3-31.4,52c34-25.6,44.4-32.2,53.7-62.6
			c8-26.4,22.4-71,22.7-98.6c0-4-0.1-8-1.6-11.7c-1.2-2.9-3.3-5.4-5.3-7.8c-5.6-6.6-11.4-13.2-18.6-18
			c-19.3-12.7-44.5-10.2-67.4-13.9c-25.7-4.2-51.6,9.6-65.7,30.8c-6.4,9.6-10.9,21.3-9.4,32.9
			C1455.5,470.1,1455.6,470.4,1455.6,470.8z"/>
		<path class="st414" d="M1489.9,352.6c-22.9-9.9-51.7-4.8-69,13.1c-6.3,6.5-11.2,14.7-12.9,23.6c-1.7,8.9-0.2,18.6,5.1,26
			c4.7,6.6,12.5,11.8,13.6,19.8c0.8,5.5-1.8,11-2.1,16.5c-0.8,12.7,12.8,24,25.1,21c-5.2,1.3,9.4,18.5,11.3,19.7
			c5.2,3.1,11.3,4.3,17.3,4.7c10.2,0.8,20.5-0.3,30.4-3.1c8.7-2.5,17.6-6.5,26.5-4.7c6.2,1.2,11.6,4.7,17.6,6.4
			c7.1,1.9,14.3,2.8,21.7,2c6.1-0.6,12.6-2.1,18,0.6c4.7,2.4,7.4,7.7,8.2,13c0.7,5.3-0.3,10.6-1.3,15.8c-1.3,6.8-2.5,13.5-3.8,20.3
			c-0.7,3.6-0.7,8.5,2.8,9.7c1.5,0.5,3.1,0.1,4.6-0.6c4.1-1.8,7.5-4.9,11.5-7s9-3.3,12.8-1c4.8-12.9,9.7-26.1,19-36.2
			c4.6-5,10.1-9.2,14.8-14.1c5.5-5.8,9.9-12.7,12.7-20.2c5.6-14.8,1.5-40.4-14.8-47.2c2.4-23.1-8.5-47.2-27.5-60.5
			c-7.9-5.5-19.7-11.4-29.7-10.9c-8.7,0.4-18,5.2-26.9,6.7c-22.2,3.7-45.9,5.2-66.9-4.3c-6-2.7-11.5-6.3-17.5-8.9
			C1490.1,352.7,1490,352.6,1489.9,352.6z"/>
		<path class="st415" d="M1489.9,352.6c-17.3-7.5-38.1-6.4-54.7,2.4c-14,7.4-23.6,25.9-13.9,40.6c6.1,9.3,18.2,14.4,21.6,24.9
			c2.7,8.3-0.3,19.1,6.1,25c4.3,3.9,11,3.9,15.5,7.6c4.8,4,5.6,11.4,10.3,15.5c2.1,1.8,4.7,2.8,7.4,3.4c16.3,3.9,32.7-4.5,48.8-9.2
			c16.9-5,35-6,52.3-2.9c7.7,1.4,15.4,3.6,21.7,8.1c6.4,4.5,11.3,11.6,11.6,19.4c0.4,8-3.9,16.1-1.6,23.7c0.3,1.2,0.9,2.3,1.8,3.1
			c2.6,2.1,6.4,0.3,9-1.7c7-5.2,13.1-11.4,19-17.9c7.8-8.7,15.3-18.6,16.7-30.2c1.4-11.6-5.8-24.9-17.4-26.3
			c1.7-5.6,0.8-11.7-0.7-17.5c-4.6-17.6-14.7-34.1-29.6-44.4c-15.8-10.9-31.6-11.3-49.7-8.4c-18.2,2.9-39.5,1.5-56.4-6.2
			c-6-2.7-11.5-6.3-17.5-8.9C1490.1,352.7,1490,352.6,1489.9,352.6z"/>
		<path class="st416" d="M1611.2,537.7c-4.6,2.9-8.7,6.8-12,11.1c-3.1,4.1-5.6,8.8-7.5,13.6c-1.5,3.9-3.9,8.8-4,12.9
			c-0.1,2.6,0.8,5.3,2.6,7.1c2.6,2.5,6.7,2.7,10.1,1.5c3.4-1.2,6.1-3.7,8.7-6.1c3.3-3.1,6.2-6.4,9-9.9c2.9-3.6,7.6-6,11.2-8.8
			c4-3.2,7.8-7.3,9.1-12.3c1.3-5-0.5-11.1-5.2-13.3c-2-1-4.4-1.1-6.6-1C1621.1,532.9,1615.9,534.8,1611.2,537.7z"/>
	</g>
</g>
<path class="st20" d="M1651.3,660.7c12,1.9,36.5,19.5,46.6,34.5c14.5,21.6,17.9,44.6,31.2,67c6.6,11.1,15.3,20.6,22.8,31.1
	c20.3,28.4,31.5,63.6,57.2,87.1c5.6,5.1,12,9.8,15.9,16.3c3.3,5.5,4.5,11.9,5.1,18.2c1.7,19.2-3.5,40-17.7,53.1
	c-12.6,11.5-35.8,16.3-49.9,4.7c-13.4-11-28.1-19.6-42.6-29.5c-29.7-20.2-59.6-43.8-96-49.9c-42.6,54.6-67.3,159.7-69.4,228.9
	c-108.1,1.3-206.8,0-321.3,0c-1.3-30.6-1.4-61.3,0.3-91.9c0.9-15.1,2.2-30.2,4.1-45.2c1.2-9.5,1.5-19.2,2.8-28.7
	c0.2-1.6,2.3-20.9,2.1-20.8c-40.7,23.8-110.2,7.5-104.3-50c0.7-7.1,3-14,5.2-20.7c10.7-32.8,21.5-65.6,32.2-98.5
	c1.9-5.7,3.8-11.5,7-16.5c3.8-5.8,9.1-10.3,14.4-14.7c38.1-32.4,73.2-68.6,108.8-103.5c24.5-24,46.5-40.1,82.5-33.2
	c23.9,4.6,58.2,32.2,71.9,33.3c0,0-30.5,37.4,28,67.6c31.5,16.3,75.9-11.6,96.4-30.5c7.4-6.8,9.7-20.2,9.7-20.2
	C1610.8,648.8,1620.5,655.8,1651.3,660.7z"/>
<path class="st127" d="M1606,755.6c17.4,7.7,32.4,28.4,48,39.3c12.4,8.6,24.8,17.2,37.2,25.8c23.8,16.5,47.7,33.1,68.3,53.5
	c20.6,20.4,37.8,45,45.4,72.9c7.4,27.1-19.9,44.7-42.2,26.3c-13.4-11-28.1-19.6-42.6-29.5c-29.7-20.2-59.6-43.8-96-49.9
	c-22.1,28.3-39.4,60.4-51.2,94.4c-5.9,17-10.4,34.4-13.5,52.1c-0.6,3.7-7,81.2-4.3,82.5c-11.2-5.3-24.1,0-36.4,0
	c-48.8-0.1-97.5,0.1-146.3,0c-12.8,0-25.8-3.2-38.2,0c5.1-30.2,10.2-98.7,15.3-129c3.2-18.9,6.4-37.9,12-56.2
	c5.5-17.9,13.3-35,21.7-51.7c24.7-49.4,67-106.5,116.8-130.4c12.6-6,67.3-16.1,102.2-1.8C1603.4,754.4,1604.7,755,1606,755.6z"/>
<path class="st419" d="M1466,631.8c0,0-7.4,2.8-11.9,14.7c-4.5,12,12.4,51.9,50.1,56.6c37.8,4.7,77.3-30.9,80.3-34.3
	c3-3.4,9.4-14.6,9.2-18.1c-0.1-3.6-4-3.5-4-3.5l-0.3-1.7c0,0,5.1-0.3,7.5,3.9c2.4,4.2-5.4,19.6-16.5,28.1
	c-11.1,8.5-38.4,34.3-76.1,32.6c-37.7-1.7-54.4-34-55.4-53.8c-0.7-12.7,9.3-24.3,9.3-24.3S1460.6,629.4,1466,631.8z"/>
<path class="st99" d="M1847.7,1128.9H122.5c-6.2,0-11.2-5-11.2-11.2l0,0c0-6.2,5-11.2,11.2-11.2h1725.2c6.2,0,11.2,5,11.2,11.2l0,0
	C1858.9,1123.9,1853.9,1128.9,1847.7,1128.9z"/>
<g>
	<path class="st418" d="M1197.3,892.1c10,0.4,20,2.9,29,7.5c3.8,1.9,7.5,4.3,10.3,7.5c0.7,0.8,1.3,1.6,1.4,2.7c0.1,1-0.2,2-0.6,3
		c-3.7,9.4-7.3,18.7-11,28.1c-2.9,7.5-3.9,15.1-6.6,22.4c-3.3,9-8.8,17.7-13.6,26c-4,6.9-8.8,18.9-15,23.9
		c-13.4,19.7-23.7,40-27.5,63.7c-2.5,15.6-6.6,29.4-17.1,41.4c-11.3,13-27.6,20.1-41.5,30.1c-2.9,2.1-6.3,4.4-9.9,3.8
		c-3.9-0.6-6.8-4.5-7.1-8.5c-0.3-4,1.6-7.8,4.1-10.9c2.5-3.1,5.6-5.7,8.4-8.5c4.9-4.9,8.7-10.5,11.7-16.6c-15.2-1-31-1.4-46.3-1
		c-14.3,0.3-26.9,2.8-40.4,7.1c-11.9,3.8-22.4,15.4-33.5,21.4c-21.5,11.5-30.1-2.7-30.1-2.7c0.5-3.2,9.1-10.4,9.1-10.4
		c-1.4-2.2-4.3-6.5-5.4-8.9c-1.1-2.4,16.2-16.5,16.2-16.5c-2.5-1.6-4.6-3.2-6-5.9c-0.3-0.6-2.6-7.2-1.6-7.6
		c23.3-10.2,32-29.7,90.2-31.6c27.6-0.9,55.9-7.5,69.1-34c7.5-15,9.7-32,11.7-48.6c2.4-19.1,5.9-37.6,7.8-56.8
		c0.3-2.6,0.6-5.2,2-7.3c1.1-1.6,2.8-2.7,4.5-3.7C1171,894.6,1184.2,891.6,1197.3,892.1z"/>
	<path class="st416" d="M1066,1106.7c-14.3,0.3-26.9,2.8-40.4,7.1c-16,5.1-27.7,22.3-44.9,25.5c-6.6,1.3-10.1,0.4-16.2-4
		c8.7,2.7,13.6,0.2,20.7-4.7c8.9-6.1,17.8-15.3,27.3-20.5c5.1-2.8,10.1-4.5,15.8-5.7c11.4-2.5,21.1-4.5,32.6-5.9
		c16.3-2,29.8-3.1,45.5-7.9c1.8-0.6,7.4-3.6,7.4-3.6c1,3.4,0.9,6.3,0.3,9.9c-0.1,0.9-2,12-1.9,12
		C1100.4,1107.9,1081.3,1106.3,1066,1106.7z"/>
	<path class="st416" d="M1023.1,1090.4c1.8-0.5,13.7-3.7,22.3-4.6c7-0.8,20.5-2.6,20.5-2.6c-21-3.5-46.1,0.9-49.1,1.6
		c-6.9,1.7-33.4,20.2-38.6,25.1c-2.9,2.7-8.3,5.3-11.8,4.6c1.3,3.4,4.6,7.6,4.6,7.6C970.3,1121.5,1007.5,1094.7,1023.1,1090.4z"/>
	<path class="st416" d="M981.8,1096.7c0,0,28.2-19,36.4-21.7l43.2-4.4c0,0-34.2-0.4-44.1,1.9c-9.9,2.4-28.4,19.2-42.6,15.3
		C974.8,1087.8,975.4,1094.3,981.8,1096.7z"/>
</g>
<path class="st172" d="M1142.1,940.5c23.6-10.8,53.7-5.1,71.8,13.4c3.4,3.5,6.6,8,6,12.8c2.3,1.5,4.7-1.9,5.4-4.5
	c3.6-13.6,7.2-27.1,10.9-40.7c0.6-2.1,1.2-4.3,1.1-6.6c-0.1-2.9-1.1-5.6-2.5-8.2c-6.8-12.4-20.9-19.4-35-21
	c-13.7-1.6-42.5-0.7-53.1,10C1137.1,905.4,1139.3,929,1142.1,940.5z"/>
<g>
	<path class="st7" d="M342,1108c0,0-0.1-39.8-0.1-40.9c-0.1-14.3-44.8-25.5-99.8-25s-99.6,12.5-99.5,26.8c0,1,0.1,40.9,0.1,40.9
		s38.1,10.6,102.3,10.7C305.2,1120.4,342,1108,342,1108z"/>
	<ellipse class="st123" cx="243.2" cy="1065" rx="80" ry="16.6"/>
	
		<rect x="159.5" y="440.5" transform="matrix(-0.7952 -0.6064 0.6064 -0.7952 -55.7121 1169.5151)" class="st7" width="20.4" height="307.4"/>
	
		<rect x="146.2" y="700.9" transform="matrix(-0.8426 0.5386 -0.5386 -0.8426 748.2003 1490.4465)" class="st7" width="20.2" height="307.4"/>
	
		<rect x="231.9" y="989.8" transform="matrix(-1 -7.086215e-04 7.086215e-04 -1 483.3331 2051.7671)" class="st7" width="20.3" height="71.9"/>
	
		<rect x="218.4" y="446.4" transform="matrix(-0.6646 0.7472 -0.7472 -0.6646 721.9597 589.3593)" class="st41" width="20.6" height="20.6"/>
	<path class="st7" d="M295.9,471.8c0,0-19-16.9-20-17.8c-13.7-12.2-34.6-10.9-46.7,2.7s-10.9,34.6,2.7,46.7c0.9,0.8,20,17.8,20,17.8
		"/>
	<path class="st123" d="M225,461.8c-7.8,13.3-5.4,30.7,6.6,41.4c0.9,0.8,20,17.8,20,17.8s10.1-13.2,8.6-17.7
		C247.1,464.1,225,461.8,225,461.8z"/>
	<path class="st7" d="M403.1,515.7c0,0-41-36.5-43.3-38.5c-29.5-26.3-74.8-23.6-101,5.9s-23.6,74.8,5.9,101
		c2,1.8,43.3,38.5,43.3,38.5"/>
	<path class="st123" d="M254.1,488.4c-22.6,35.1-15.2,72.6,10.7,95.7c2,1.8,43.3,38.5,43.3,38.5l47.3-53.2c0,0-35.1,5.9-61.6-14
		C252.5,524.5,254.1,488.4,254.1,488.4z"/>
	
		<ellipse transform="matrix(0.6646 -0.7472 0.7472 0.6646 -306.0046 456.6108)" class="st123" cx="355.6" cy="569.1" rx="71.6" ry="14.3"/>
	<g>
		<path class="st420" d="M372.3,546.3c-0.3-0.2-2.4-2.1-5.1-4.5c18.6-17.6,34.3-27.6,38.7-23.7c4.9,4.3-5.6,24.4-24.2,47.9
			C381.3,558.7,378.1,551.6,372.3,546.3z"/>
		<path class="st420" d="M310.8,625c-4.4-3.9,3.7-20.7,19-41.2c2.6,2.4,4.8,4.2,5.1,4.5c5.9,5.2,13.4,7.5,20.6,7
			C334.3,616.7,315.6,629.4,310.8,625z"/>
		<path class="st347" d="M347.6,562.1c6.6-7.5,13.3-14.3,19.6-20.3c2.7,2.4,4.8,4.3,5.1,4.5c5.9,5.2,9.1,12.4,9.4,19.7
			c0.3,7.1-2,14.3-7.1,20c-5.1,5.7-12,8.9-19.1,9.4c-7.3,0.5-14.8-1.8-20.6-7c-0.3-0.3-2.4-2.2-5.1-4.5
			C335,576.9,341,569.5,347.6,562.1z"/>
	</g>
	<circle class="st41" cx="242.3" cy="989.1" r="20.1"/>
	<circle class="st7" cx="242.3" cy="989.1" r="14.7"/>
	<g>
		<circle class="st41" cx="78.3" cy="720.6" r="20.1"/>
		<circle class="st7" cx="78.3" cy="720.6" r="14.7"/>
	</g>
</g>
<g>
	<g>
		<path class="st421" d="M383.7,1110.7c0,3.7,19.3,6.8,43.1,6.8c23.8,0.1,43.2-2.8,43.2-6.5l19.1-116.8l-123.8-0.4L383.7,1110.7z"/>
		<path class="st41" d="M489.2,994.2c0,5.3-27.7,9.5-61.9,9.4c-34.2-0.1-61.9-4.5-61.8-9.8s27.7-9.5,61.9-9.4
			S489.2,988.9,489.2,994.2"/>
	</g>
	
		<rect x="388.1" y="917.3" transform="matrix(0.9799 -0.1995 0.1995 0.9799 -179.9353 97.0407)" class="st20" width="6.8" height="47.9"/>
	
		<rect x="392.6" y="931" transform="matrix(0.9799 -0.1994 0.1994 0.9799 -187.8029 99.4641)" class="st26" width="14.3" height="101.8"/>
	<path class="st20" d="M394.2,943.1l0-0.5c0-1,0.7-2,1.8-2.2l1.9-0.4h0l0.5,0c1,0,2,0.7,2.2,1.8l7.1,35.1l4.5-0.9l-7.1-35.1
		c-0.7-3.2-3.5-5.4-6.6-5.5c-0.5,0-0.9,0-1.4,0.1l0,0l-1.9,0.4h0c-3.2,0.7-5.4,3.5-5.5,6.6c0,0.5,0,0.9,0.1,1.4L394.2,943.1z"/>
	
		<rect x="374.1" y="946.2" transform="matrix(0.9428 -0.3335 0.3335 0.9428 -312.1393 183.9987)" class="st41" width="11.5" height="109.8"/>
	
		<rect x="366.4" y="950.9" transform="matrix(0.2004 -0.9797 0.9797 0.2004 -591.7746 1204.1085)" class="st18" width="150.8" height="27.5"/>
	<polyline class="st63" points="468.7,901.5 462.6,900.3 462.1,902.5 468.2,903.7 	"/>
	<polyline class="st63" points="467.2,908.8 461.1,907.6 460.6,909.8 466.8,911.1 	"/>
	<polyline class="st63" points="465.7,916.2 459.6,914.9 459.1,917.1 465.3,918.4 	"/>
	<polyline class="st63" points="464.2,923.5 450.7,920.7 450.3,923 463.8,925.7 	"/>
	<polyline class="st63" points="462.7,930.8 456.6,929.6 456.1,931.8 462.3,933 	"/>
	<polyline class="st63" points="461.2,938.1 455.1,936.9 454.6,939.1 460.8,940.4 	"/>
	<polyline class="st63" points="459.7,945.5 453.6,944.2 453.1,946.4 459.3,947.7 	"/>
	<polyline class="st63" points="458.2,952.8 444.8,950 444.3,952.3 457.8,955 	"/>
	<polyline class="st63" points="456.7,960.1 450.6,958.9 450.1,961.1 456.3,962.3 	"/>
	<polyline class="st63" points="455.2,967.4 449.1,966.2 448.6,968.4 454.8,969.7 	"/>
	<polyline class="st63" points="453.7,974.8 447.6,973.5 447.1,975.7 453.3,977 	"/>
	<polyline class="st63" points="452.2,982.1 438.8,979.3 438.3,981.6 451.8,984.3 	"/>
	<polyline class="st63" points="450.7,989.4 444.6,988.2 444.1,990.4 450.3,991.6 	"/>
	<polyline class="st422" points="449.2,996.7 443.1,995.5 442.6,997.7 448.8,999 	"/>
	<polyline class="st422" points="447.7,1004.1 434.3,1001.3 433.8,1003.5 447.3,1006.3 	"/>
	
		<rect x="423.6" y="989.1" transform="matrix(0.3855 -0.9227 0.9227 0.3855 -626.0091 1049.4188)" class="st143" width="102.4" height="11.2"/>
	
		<rect x="416.6" y="969.7" transform="matrix(0.2856 -0.9584 0.9584 0.2856 -600.4908 1145.1237)" class="st7" width="102.4" height="11.2"/>
	<path class="st37" d="M383.7,1110.7c0,3.7,19.3,6.8,43.1,6.8c23.8,0.1,43.2-2.8,43.2-6.5l19.1-116.8l-123.8-0.4L383.7,1110.7z"/>
</g>
<g>
	<path class="st423" d="M1350,1038.6H724c-15.7,0-28.4-12.7-28.4-28.4V293.2c0-10,8.1-18.1,18.1-18.1h646.7c10,0,18.1,8.1,18.1,18.1
		v716.9C1378.4,1025.8,1365.7,1038.6,1350,1038.6z"/>
	<path class="st367" d="M766.9,772.5L724,700.3c-15.7,0-28.4-12.7-28.4-28.4V293.4c0-10,8.1-18.1,18.1-18.1h53.2V772.5z"/>
	<path class="st144" d="M1360.4,275.2H713.7c-10,0-18.1,8.1-18.1,18.1v43.8h682.8v-43.8C1378.4,283.3,1370.3,275.2,1360.4,275.2z"/>
	<rect x="696.2" y="324.9" class="st370" width="682.3" height="13.2"/>
</g>
<g>
	<g>
		<path class="st369" d="M1313.5,553.8H817.3c-12.3,0-22.3-10-22.3-22.3V403.9c0-12.3,10-22.3,22.3-22.3h496.2
			c12.3,0,22.3,10,22.3,22.3v127.6C1335.8,543.8,1325.8,553.8,1313.5,553.8z"/>
		<path class="st99" d="M847.3,553.8H817c-12.3,0-22.3-10-22.3-22.3V403.9c0-12.3,10-22.3,22.3-22.3h30.3V553.8z"/>
		<g>
			<ellipse class="st99" cx="814.3" cy="455" rx="4.2" ry="4.4"/>
			<ellipse class="st99" cx="826.5" cy="455" rx="4.2" ry="4.4"/>
			<ellipse class="st99" cx="814.3" cy="468.5" rx="4.2" ry="4.4"/>
			<ellipse class="st99" cx="826.5" cy="468.5" rx="4.2" ry="4.4"/>
			<ellipse class="st99" cx="814.3" cy="482.5" rx="4.2" ry="4.4"/>
			<ellipse class="st99" cx="826.5" cy="482.5" rx="4.2" ry="4.4"/>
		</g>
		<g>
			<path class="st387" d="M893.7,433.8c-0.5-0.3-1.3-0.8-1.5-1.2c-0.2-0.4-0.3-1.1-0.3-1.5c0-0.4,0.1-1.1,0.3-1.5
				c0.2-0.4,1-0.9,1.5-1.2c0.3-0.2,0.4-0.5,0.2-0.8l-1.3-2.4c-0.2-0.3-0.5-0.4-0.8-0.2c-0.5,0.3-1.3,0.8-1.7,0.7
				c-0.4,0-1.1-0.3-1.4-0.5c-0.3-0.2-0.9-0.7-1.1-1.1c-0.2-0.4-0.2-1.3-0.3-1.9c0-0.3-0.3-0.6-0.6-0.6h-2.7c-0.3,0-0.6,0.3-0.6,0.6
				c0,0.6,0,1.6-0.3,1.9c-0.2,0.4-0.8,0.9-1.1,1.1c-0.3,0.2-0.9,0.5-1.4,0.5c-0.4,0-1.2-0.4-1.7-0.7c-0.3-0.2-0.6-0.1-0.8,0.2
				l-1.3,2.4c-0.2,0.3-0.1,0.6,0.2,0.8c0.5,0.3,1.3,0.8,1.5,1.2c0.2,0.4,0.3,1.1,0.3,1.5c0,0,0,0,0,0s0,0,0,0c0,0.4-0.1,1.1-0.3,1.5
				c-0.2,0.4-1,0.9-1.5,1.2c-0.3,0.2-0.4,0.5-0.2,0.8l1.3,2.4c0.2,0.3,0.5,0.4,0.8,0.2c0.5-0.3,1.3-0.8,1.7-0.7
				c0.4,0,1.1,0.3,1.4,0.5c0.3,0.2,0.9,0.6,1.1,1c0.2,0.4,0.2,1.3,0.3,1.9c0,0.3,0.3,0.6,0.6,0.6h2.7c0.3,0,0.6-0.3,0.6-0.6
				c0-0.6,0-1.6,0.3-1.9c0.2-0.4,0.8-0.8,1.1-1c0.3-0.2,0.9-0.5,1.4-0.5c0.4,0,1.2,0.4,1.7,0.7c0.3,0.2,0.6,0.1,0.8-0.2l1.3-2.4
				C894.1,434.3,894,434,893.7,433.8z M885.3,434.9c-2,0-3.6-1.7-3.6-3.8c0-2.1,1.6-3.8,3.6-3.8c2,0,3.6,1.7,3.6,3.8
				C889,433.2,887.3,434.9,885.3,434.9z"/>
		</g>
		<path class="st387" d="M1094.6,435.3h-188c-2,0-3.6-1.6-3.6-3.6v-0.1c0-2,1.6-3.6,3.6-3.6h188c2,0,3.6,1.6,3.6,3.6v0.1
			C1098.2,433.7,1096.6,435.3,1094.6,435.3z"/>
		<path class="st388" d="M1186.6,495.7H922.7c-10.8,0-19.6-8.8-19.6-19.6v-0.8c0-10.8,8.8-19.6,19.6-19.6h263.9
			c10.8,0,19.6,8.8,19.6,19.6v0.8C1206.2,486.9,1197.4,495.7,1186.6,495.7z"/>
		<path class="st387" d="M1311.7,417.7h-88c-2,0-3.6-1.6-3.6-3.6V414c0-2,1.6-3.6,3.6-3.6h88c2,0,3.6,1.6,3.6,3.6v0.1
			C1315.2,416.1,1313.6,417.7,1311.7,417.7z"/>
	</g>
	<g>
		<path class="st369" d="M1313.5,751.4H817.3c-12.3,0-22.3-10-22.3-22.3V601.5c0-12.3,10-22.3,22.3-22.3h496.2
			c12.3,0,22.3,10,22.3,22.3v127.6C1335.8,741.4,1325.8,751.4,1313.5,751.4z"/>
		<path class="st99" d="M847.3,751.4H817c-12.3,0-22.3-10-22.3-22.3V601.5c0-12.3,10-22.3,22.3-22.3h30.3V751.4z"/>
		<g>
			<ellipse class="st99" cx="814.3" cy="652.6" rx="4.2" ry="4.4"/>
			<ellipse class="st99" cx="826.5" cy="652.6" rx="4.2" ry="4.4"/>
			<ellipse class="st99" cx="814.3" cy="666.1" rx="4.2" ry="4.4"/>
			<ellipse class="st99" cx="826.5" cy="666.1" rx="4.2" ry="4.4"/>
			<ellipse class="st99" cx="814.3" cy="680.1" rx="4.2" ry="4.4"/>
			<ellipse class="st99" cx="826.5" cy="680.1" rx="4.2" ry="4.4"/>
		</g>
		<g>
			<path class="st387" d="M893.7,631.4c-0.5-0.3-1.3-0.8-1.5-1.2c-0.2-0.4-0.3-1.1-0.3-1.5c0-0.4,0.1-1.1,0.3-1.5
				c0.2-0.4,1-0.9,1.5-1.2c0.3-0.2,0.4-0.5,0.2-0.8l-1.3-2.4c-0.2-0.3-0.5-0.4-0.8-0.2c-0.5,0.3-1.3,0.8-1.7,0.7
				c-0.4,0-1.1-0.3-1.4-0.5c-0.3-0.2-0.9-0.7-1.1-1.1c-0.2-0.4-0.2-1.3-0.3-1.9c0-0.3-0.3-0.6-0.6-0.6h-2.7c-0.3,0-0.6,0.3-0.6,0.6
				c0,0.6,0,1.6-0.3,1.9c-0.2,0.4-0.8,0.9-1.1,1.1c-0.3,0.2-0.9,0.5-1.4,0.5c-0.4,0-1.2-0.4-1.7-0.7c-0.3-0.2-0.6-0.1-0.8,0.2
				l-1.3,2.4c-0.2,0.3-0.1,0.6,0.2,0.8c0.5,0.3,1.3,0.8,1.5,1.2c0.2,0.4,0.3,1.1,0.3,1.5c0,0,0,0,0,0c0,0,0,0,0,0
				c0,0.4-0.1,1.1-0.3,1.5c-0.2,0.4-1,0.9-1.5,1.2c-0.3,0.2-0.4,0.5-0.2,0.8l1.3,2.4c0.2,0.3,0.5,0.4,0.8,0.2
				c0.5-0.3,1.3-0.8,1.7-0.7c0.4,0,1.1,0.3,1.4,0.5c0.3,0.2,0.9,0.6,1.1,1c0.2,0.4,0.2,1.3,0.3,1.9c0,0.3,0.3,0.6,0.6,0.6h2.7
				c0.3,0,0.6-0.3,0.6-0.6c0-0.6,0-1.6,0.3-1.9c0.2-0.4,0.8-0.8,1.1-1c0.3-0.2,0.9-0.5,1.4-0.5c0.4,0,1.2,0.4,1.7,0.7
				c0.3,0.2,0.6,0.1,0.8-0.2l1.3-2.4C894.1,631.9,894,631.6,893.7,631.4z M885.3,632.5c-2,0-3.6-1.7-3.6-3.8s1.6-3.8,3.6-3.8
				c2,0,3.6,1.7,3.6,3.8C889,630.8,887.3,632.5,885.3,632.5z"/>
		</g>
		<path class="st387" d="M1094.6,632.9h-188c-2,0-3.6-1.6-3.6-3.6v-0.1c0-2,1.6-3.6,3.6-3.6h188c2,0,3.6,1.6,3.6,3.6v0.1
			C1098.2,631.3,1096.6,632.9,1094.6,632.9z"/>
		<path class="st388" d="M1186.6,693.3H922.7c-10.8,0-19.6-8.8-19.6-19.6v-0.8c0-10.8,8.8-19.6,19.6-19.6h263.9
			c10.8,0,19.6,8.8,19.6,19.6v0.8C1206.2,684.5,1197.4,693.3,1186.6,693.3z"/>
		<path class="st387" d="M1311.7,615.3h-88c-2,0-3.6-1.6-3.6-3.6v-0.1c0-2,1.6-3.6,3.6-3.6h88c2,0,3.6,1.6,3.6,3.6v0.1
			C1315.2,613.7,1313.6,615.3,1311.7,615.3z"/>
	</g>
</g>
<g>
	<path class="st408" d="M741.1,309.3L741.1,309.3c-1.4-1.4-2.3-3.4-2.2-5.5c0-2.1,0.9-4.1,2.3-5.5l0,0c1.2-1.2,1.2-3.1,0-4.3
		c-1.2-1.2-3.1-1.2-4.3,0c-2.5,2.5-4.1,6-4.1,9.8c0,3.8,1.5,7.3,4,9.8c1.2,1.2,3.1,1.2,4.3,0C742.3,312.4,742.3,310.5,741.1,309.3
		L741.1,309.3z"/>
	<path class="st409" d="M741.1,298.3L741.1,298.3c1.4-1.4,3.4-2.3,5.5-2.2c2.1,0,4.1,0.9,5.5,2.3l0,0c1.2,1.2,3.1,1.2,4.3,0
		c1.2-1.2,1.2-3.1,0-4.3c-2.5-2.5-6-4.1-9.8-4.1c-3.8,0-7.3,1.5-9.8,4c-1.2,1.2-1.2,3.1,0,4.3C738,299.5,739.9,299.5,741.1,298.3
		L741.1,298.3z"/>
	<path class="st410" d="M752.1,309.3L752.1,309.3c-1.4,1.4-3.4,2.3-5.5,2.2c-2.1,0-4.1-0.9-5.5-2.3l0,0c-1.2-1.2-3.1-1.2-4.3,0
		c-1.2,1.2-1.2,3.1,0,4.3c2.5,2.5,6,4.1,9.8,4.1s7.3-1.5,9.8-4c1.2-1.2,1.2-3.1,0-4.3C755.2,308.1,753.3,308.1,752.1,309.3
		L752.1,309.3z"/>
	<path class="st411" d="M741.1,298.3c-1.2,1.2-3.1,1.2-4.3,0c-1.2-1.2-1.2-3.1,0-4.3c1.2-1.2,3.1-1.2,4.3,0
		C742.3,295.2,742.3,297.1,741.1,298.3z"/>
	<path class="st412" d="M741.1,313.6c-1.2,1.2-3.1,1.2-4.3,0c-1.2-1.2-1.2-3.1,0-4.3c1.2-1.2,3.1-1.2,4.3,0
		C742.3,310.5,742.3,312.4,741.1,313.6z"/>
</g>
<path class="st109" d="M1102.1,707.5l-0.1-0.2c0.2,0,0.3,0.1,0.3,0.1l-7-9.4l-3.2-4.4c0-0.3,0-0.6-0.1-0.8c-0.2-1.4-1-2.7-1.7-4
	c-1.3-2.3-2.7-4.6-4.1-6.8c-1-14.2-5.1-33.2-4.6-39.3c0.2-2.2,0.5-4.5-0.3-6.6c-0.8-2.1-2.6-3.6-4.3-5l-34.7-25.8
	c-0.8-0.8-1.9-1.6-3-1.5c-0.7,0.1-1.3,0.6-1.8,1.1c-2.9,3.1-1.8,7.3-1.3,9.5c0.1,0.6,0.3,1.1,0.4,1.6l-6.4-8.9l-0.9,0.6l-5.8-3.9
	l-5.7-4l1.4,6.8l1.2,6.8l-0.9,0.6l8.9,14.5c-3.6,1.2-5.7,5.7-7,9c-2.8,4.9-5.6,9.9-8.4,14.8c-2.1,3.7-4.3,7.5-5.5,11.6
	c-3.1,10.4-4.4,21.6-6.4,32.3c-2.6,14.1-10.3,26.9-7.5,41.4c1.5,8,4.4,15.8,4.5,24c0.1,5.4-28.9,57.8-50.9,99.5
	c-2-2.8-4.1-5.6-6.2-8.3c1.2-2.8,2.4-5.9,3.3-8.9c0.8-2.8,1.4-5.5,1.6-8.2c0-0.2,0-0.3,0.1-0.5c0-0.1,0-0.2,0-0.3
	c0.1-0.4,0.1-0.8,0.1-1.2c0.1-0.7,0.1-1.3,0.2-1.9c0.1-1.4,0.1-2.7,0.1-3.8c0-0.4,0-0.9-0.1-1.3c0,0,0-0.1,0-0.1c0-0.1,0-0.2,0-0.3
	c-0.1-0.8-0.2-1.6-0.4-2.2c0-0.1-0.1-0.2-0.1-0.4c0-0.1-0.1-0.2-0.1-0.3c0,0,0-0.1-0.1-0.1c-0.1-0.4-0.3-0.7-0.5-1.1
	c0,0-0.1-0.1-0.1-0.1c-0.4-0.7-0.8-1.2-1.3-1.7c0,0,0,0,0,0c-1.3-1.3-2.9-2.1-4.6-3.1c-0.4-0.3-0.9-0.5-1.3-0.9
	c-0.2-0.1-0.3-0.2-0.5-0.4c-15.7-12.5-17.4-20.8-30.9-35.6c-1.4-1.5-2.8-3.1-4.1-4.7c-0.8-1-1.7-2-2.5-3c-0.5-0.6-1.1-1.3-1.6-1.9
	c-0.3-0.4-0.7-0.9-1-1.3c-7.9-9.8-15.1-20-22.7-29.9c-12.5-16.1-27.9-30.3-48.7-32.8c-6.1-0.7-12.2-0.8-18.4-0.8
	c-5.1,0-10.2,0.9-15.2,0.6c-0.1,0-0.3,0-0.4,0c-11.5-0.6-23.2-1.6-34.1-5.3c0.4,0.4,0.7,0.7,1.1,1c-0.9-0.6-1.8-1.3-2.7-2.1
	c-3.6-3.2-6.9-8-11.7-7.5c0.9-2.4,0.3-5.3-1.5-7.2c-1.8-1.8-4.8-2.5-7.2-1.5c-3,0.3-6.1,0.5-9.2,0.7c-2.4-11.7-3.7-23.6-4.9-35.6
	c1.9,0.7,3.9,1.4,5.9,2c4,1.3,8.4,2.4,12.5,1.4c4.1-1.1,7.3-4.2,10.2-7.3c21.7-23.6,35.6-53.9,40.2-85.5c2.2-14.8-1-30,0.5-44.5
	c1.5-2.4,2.3-5.1,2.5-7.9c5.2-0.4,10.5-0.5,15.8-1c2.2,0.6,4.5,1,6.8,1.3c19.8,2.6,40.6-7.4,51-24.4c1.5-2.5,2.4-6.5-0.3-7.6
	c-2.1-0.9-4.3,1.1-5.8,2.9c-7.2,8.3-16.7,14.5-27.1,17.9c4-3.4,7.5-7.4,10.6-11.7c14.5-20.2,19.1-48,9-70.7
	c-4.4-9.8-11.2-18.3-18.3-26.4c-3.8-4.4-7.8-8.6-12.3-12.3c-19.7-15.8-43.4-15.4-67-13.4c-25.1,2.2-49.1,13.5-68.1,29.8
	c-4.7,4-9.1,8.3-14.4,11.4c-9.7,5.6-21.7,8.1-32,13.1c-11.3,5.4-22.3,11.8-32.2,19.6c-16.4,12.9-30,30.3-35.2,50.6
	c-1.8,7.1-2.6,14.4-3,21.8c-0.5,8.5-0.6,17.1,0,25.7c-77.4,35.5-127.6,118.5-117.5,206.5c2.1,18,6.5,35.9,14.5,52.2
	c4.3,8.7,9.5,16.6,15.4,23.8c-0.7,2.2-1.5,4.3-2.4,6.4c-6.8,16.7-18.5,32.1-18.9,50.3c-0.1,2.7,0.1,5.5-0.9,7.9
	c-0.6,1.4-1.6,2.6-2.1,4c-1.3,3.7,0.6,7.7,2.6,11.1c0.8,3.5,3.2,6.7,5.7,9.4c4.7,5,10.1,9.1,16.1,12.4c-0.6,5.2-1.2,9.8-1.5,13.3
	c-2.6,23.2,14.5,40.7,23.6,47.3c12,8.8,32.6,8.2,57.2,2.1c8.9,27.5,15.9,55.5,22.6,83.6c-15.8,14.6-38.2,60.2-47.9,75.6
	c-19.9,31.8-13.4,124.6-13.9,124.6c17.2,0.2,36.1,6.5,53.3,11.8c2.1,0.8,4.1,1.6,6.2,2.4c12.5,4.9,32,10.2,44.5,1.5
	c0.3-0.2,0.6-0.4,0.8-0.6c5.1-0.2,9.4-0.3,12.3-0.2c83.8,4.7,150.3,13.3,226.3-21.3c-4.4-68.5-20.3-151.2-32-196.1
	c0.4-24.9-0.2-50,0.6-74.2c0.2-4.7,0.3-9.4,0.6-14.2c1.7-11.9,3.6-23,5.7-33.6c1.2-2.6,3-5.3,5.1-8c3.2,3.2,6.4,6.1,9.5,8.1
	c10.2,6.5,15.3,14.9,24.1,16.8c0-0.1-0.1-0.3-0.1-0.5c1.1,0.4,2.4,0.2,3.6-0.2c4.6-1.5,7.3-6.1,9.6-10.3c0.9-1.6,1.8-3.3,2.7-4.9
	c22.2,15.6,59,36.5,80.6,33.4c18.1-2.6,34.4-48.6,37.9-61.7c0-0.1,0-0.1,0.1-0.2c0.2-0.6,0.3-1.2,0.4-1.6
	c5.9-27.7,11.9-55.4,17.8-83.2c2.9-13.5,9.9-65.7,14.7-75.8c2.9-6,8-10.5,12.7-15.1c6-6,11.6-12.4,16.7-19.2
	c1.1-1.4,2.2-2.9,3.3-4.3l3,5c0,0,0-0.1,0.1-0.2l1,1.7c2.9,4.7,8.9,6.4,13.9,3.9v0C1104.1,720.3,1105.9,712.8,1102.1,707.5z
	 M1036.5,641.6l20,32.4c-1.4,1.5-3.1,2.5-5.1,3c-4.8,1-9.8-2.3-12-6.7c-2.2-4.4-2.3-9.6-1.8-14.5c0.3-2.7,0.7-5.5,0.2-8.3
	c-0.2-1.5-0.8-2.9-1.6-4.1c0,0,0,0,0,0C1036.3,642.9,1036.4,642.3,1036.5,641.6z M620.6,624.6c-0.4,3.2-0.9,6.4-1.4,9.6
	c0,0.1,0,0.1,0,0.2c-0.3,1.6-0.6,3.3-1,4.9c0,0,0,0,0,0c-0.2,0.9-0.4,1.8-0.6,2.7c-0.1,0.5-0.3,1-0.4,1.4c-0.1,0.3-0.2,0.6-0.2,0.9
	c-1,3.7-2.3,7.3-3.8,10.9c-0.8,1.9-1.6,3.7-2.5,5.5c-11.1-16.2-18.3-35-20.5-54.4c0.1-0.9,0.3-1.8,0.4-2.7c0.4-2.3,0.9-4.6,1.6-6.9
	c3,4.3,6.2,8.4,9.7,12.2C607.4,615.1,613.8,620.5,620.6,624.6z M595,650.8c1.5,3.4,3.2,6.7,5,9.9c1.8,3.1,3.7,6.1,5.8,9
	c-0.3,0.6-0.7,1.2-1,1.8C600.9,664.9,597.6,657.9,595,650.8z"/>
<g>
	<path class="st424" d="M929,844c1.7-5.6,2.4-11.2,0.5-15.8c-2.5-6-10.5-14.3-16.8-12.7c-4.3,1.1-10.3,5.7-13.7,8.6
		c-4.1,3.5-6.9,8.5-9.3,13.2c-3.3,6.4-6.5,12.8-9.5,19.3c-4.2,8.9-8.2,18-10,27.6c-0.9,5-1.2,10.2-2.4,15.2
		c-0.8,3.7-2.1,7.3-3.2,10.9c-2.4,8-3.9,16.4-4.1,24.8c-0.1,4.7,0.1,9.5,0.8,14.2c0.3,2.5,1.1,5.4,3.4,6.4c1.2,0.5,2.7,0.4,4,0
		c4.6-1.5,7.3-6.1,9.6-10.3c9.1-16.6,18.1-33.2,27.1-49.9c6.2-11.4,12.3-22.9,17.2-35C924.3,856.1,927.2,850.1,929,844z"/>
	<path class="st425" d="M832.7,820.1c-5.8,8.2-6.7,19.1-5.3,29.1c2.8,20,13.5,38,24.2,55.1c15.9,25.3,9.8,17.6,32,37.6
		c8.8,7.9,63.3,32.5,75.1,31.3c9.1-0.9,0,0,5.2-7.5c18.9-27.1,6.5-42.2-8.5-68.3c-26.9-46.8-64.6-87.4-101.2-126.7
		c-11.8,19.2-22.9,38.8-33.3,58.8c-2,3.9-4,7.9-4.8,12.2c-0.7,3.9-0.3,7.8,0.1,11.7c1.2,11.5,2.4,23,3.5,34.5"/>
	<g>
		<path class="st426" d="M1039.2,694.7c11.5-8.8,18.1-23,19.9-37.4c0.5-4.4,0.7-8.9-0.5-13.1c-1-3.3-2.8-6.4-4.9-9.2
			c-7.2-9.4-18.8-15.5-30.6-16c-0.8-0.8-1.9-1.6-3-1.5c-0.7,0.1-1.3,0.6-1.8,1.1c-2.9,3.1-1.8,7.3-1.3,9.5c1.2,6.1,3.9,8.6,8.2,13
			c4,4.1,9.3,7.1,14.1,10.2c1.9,1.2,4.2,2.2,5,4.1c1.4,3.1,0.9,8.8,0.2,12c-1,4.3-4.1,8.5-8.4,9.4c-4.8,1-9.8-2.3-12-6.7
			s-2.3-9.6-1.8-14.5c0.3-2.7,0.7-5.5,0.2-8.3c-0.4-2.7-1.9-5.5-4.4-6.7c-3.3,2.4-6.6,4.9-9.3,8c-5.7,6.6-7.9,16-5.8,24.4
			c2.1,8.4,8.5,15.7,16.6,18.8c3.5,1.4,7.3,2,10.7,3.7c1.7,0.8,3.3,2,5.2,2.1c3.7,0.3,6.6-2.9,8.9-5.9"/>
		<path class="st425" d="M1032.2,751.5c-4.8,10.1-11.8,62.2-14.7,75.8c-5.9,27.7-11.9,55.4-17.8,83.2c-2.1,9.7-7.1,14.4-10.8,23.6
			c-7.1,17.9-22.8,36.8-22.8,36.8c-6,3.6-14.4-0.6-21.5-0.8c-9.4-0.2-22.1-11.3-27.3-19.1c-5.2-7.8-13-29.4-8.8-41.9
			c7.9-23.4,74.2-139.1,74.1-147.3c-0.1-8.2-3-16-4.5-24c-2.8-14.5,4.9-27.3,7.5-41.4c2-10.7,3.3-21.9,6.4-32.3
			c1.2-4.1,3.4-7.9,5.5-11.6c3.6-6.2,7.1-12.5,10.7-18.7c1.2-2.2,2.7-4.6,5.2-5.2c2.9-0.8,5.9,1.5,7,4.2c1.1,2.8,0.7,5.9,0.2,8.8
			c-1.5,7.6-4.2,14.9-8,21.7c-0.6,1.1-1.3,2.2-1.4,3.4c-0.1,1,0.3,2,0.6,3c1.2,3.7,2.5,7.3,3.7,11c0.3,0.9,0.6,1.8,1.3,2.5
			c1,1,2.5,1.2,3.8,1.3c9.2,0.6,18.5-3.5,24.2-10.7c1-1.2,1.8-2.5,3-3.5c2.6-2.1,6.4-2.4,9.6-1.2s5.8,3.4,8.1,6
			c3.7,4.1,6.5,8.9,9.2,13.7c0.7,1.3,1.5,2.5,1.7,4c0.5,3.1-1.5,6.1-3.3,8.7c-8.9,12.1-17.8,24.3-28.4,34.9
			C1040.2,741,1035.1,745.5,1032.2,751.5z"/>
		<path class="st427" d="M970.4,910.9c5.2-15.2,8.9-31,12.8-46.5c7-28.4,14.3-56.7,22-84.9c2.7-10,5.5-20.1,10.4-29.2
			c10.4-19.7,29.2-33.4,47.3-46.3c3.5-2.5,7.1-5,11.3-5.7c-8.1,13.9-17.8,26.7-29.2,38.1c-4.7,4.7-9.8,9.2-12.7,15.1
			c-4.8,10.1-11.8,62.2-14.7,75.8c-5.9,27.7-11.9,55.4-17.8,83.2c-2.1,9.7-19.2,60.7-38.3,63.5c-31.9,4.6-96.5-42.9-99.3-49
			c-7.5-16.3-8.8-34.8-9.7-52.7c-1.6-31.9-2.2-64.8,8.9-94.7c4,14.6,10.7,28.3,17.5,41.9c5.5,11,10.9,22,16.4,33
			c10.1,20.3,20.3,40.8,35.8,57.3c5,5.3,22.4,24.2,31.3,21.4L970.4,910.9z"/>
		<path class="st425" d="M1026.9,605.4c-0.8-0.8-1.9-1.6-3-1.5c-0.7,0.1-1.3,0.6-1.8,1.1c-2.9,3.1-1.8,7.3-1.3,9.5
			c1.2,6.1,3.9,8.6,8.2,13c4.4,4.5,18.6,12.8,19.1,13.4c1.4,1.8,2.3,23-6.4,36.1c-0.4,0.7,7.8-3.8,7.8-3c0,0.9-0.5,1.8-1,2.6
			c-3.4,5.4-6.7,10.9-10.1,16.3c-0.6,0.9-1.2,2.1-0.6,3c0.3,0.5,0.8,0.8,1.3,1.1c7,3.8,14,7.6,21,11.4c2.9-5.2,6.4-10,10.3-14.4
			c2.7-11.9-5-43.3-4.2-51.5c0.2-2.2,0.5-4.5-0.3-6.6c-0.8-2.1-2.6-3.6-4.3-5"/>
		<g>
			<path class="st37" d="M1069,719.3l-64.8-105.2l10.7-6.8l71.9,100.1c3.8,5.3,2,12.8-3.9,15.8v0
				C1077.9,725.7,1071.9,724,1069,719.3z"/>
			<polygon class="st37" points="1002.3,600 1008.1,604 1014,608 1009.5,610.8 1005,613.7 1003.8,606.8 			"/>
			<path class="st37" d="M1060.3,705.4l7.5,12.4c0,0,3-5.3,6.7-7.8c6.8-4.4,12.4-2.7,12.4-2.7l-8.8-11.8L1060.3,705.4z"/>
			<polygon class="st7" points="1056.4,678.7 1016.1,618.8 1014.2,619.9 1053.8,680.1 			"/>
		</g>
		<path class="st425" d="M1020.8,643.4c-0.5,2.5-2.8,8.4-3.8,10.7c-0.4,0.8-11.2-15.8-11.1-16c1.4-3.4,3.5-8.5,7.6-9.5
			c2.9-0.8,5.9,1.5,7,4.2C1021.5,635.5,1021.4,640.5,1020.8,643.4z"/>
	</g>
	<g>
		<g>
			<g>
				<g>
					<path class="st424" d="M582.2,705.6c-3.8-5.1-6.6-11-8.1-17.1c-0.4-1.7-0.8-3.5-0.1-5.2c1.1-2.7,7.8-4.2,10.8-4.2
						c23.7-0.2,41.2-0.1,63.3,3.7c22.1,3.9,49.9,3.2,72.3,1.2c3.5-0.3,2.9,0,4.8,2.1c0.8,0.9,0.1,2.3,0.2,3.5
						c0.5,6-5.5,9.1-10.4,12.5c-9.6,6.7-20.5,11.1-31.6,14.7c-9.7,3.1-19.6,5.6-29.6,7.5c-14.2,2.7-29.7,3.9-42.4-3.1"/>
					<path class="st425" d="M776.9,469.4c-5.5-13.8-14.8-26.1-26.2-35.5c-16.1-13.4-36.2-21.5-56.9-25.2c-12-2.2-24.4-2.9-36.4-0.3
						c-26,5.6-47.1,26.9-56.3,51.9c-9.2,25-7.6,53,0.1,78.5c16,52.4,58.7,95.8,110.9,112.5c4,1.3,8.4,2.4,12.5,1.4
						c4.1-1.1,7.3-4.2,10.2-7.3c21.7-23.6,35.6-53.9,40.2-85.5c2.3-15.5-1.3-31.3,0.7-46.5C777.9,497.2,783.5,485.9,776.9,469.4z"/>
					<path class="st424" d="M465.8,877.8c-4.5,0.7-9.1,1.7-12.9,4.2c-3.9,2.4-6.9,6.5-7,11.1c-0.1,4.7,2.8,8.9,6,12.3
						c11.3,12.1,27.4,19,43.8,21.6c16.4,2.7,33.1,1.4,49.5-0.7c-2.4-10.1-5.7-20-9.7-29.5c-2.7-6.4-6.3-13.2-12.7-15.9
						c-4.2-1.8-9-1.5-13.5-2.6c-5.1-1.2-9.5-4.2-14.1-6.6c-9.7-5.1-20.6-8-31.6-8.4"/>
					<path class="st425" d="M484.4,814.1c-6.8,25.3-15.4,93.6-18,116.9c-2.6,23.2,14.5,40.7,23.6,47.3
						c48.5,35.4,236.3-81.6,266.5-99.9c-21.5-20.3-43.7-39.8-66.7-58.5c-4.5-3.6-9.1-7.3-14.4-9.4c-4.8-1.9-10-2.4-15.1-2.9
						c-15.1-1.6-30.2-3.1-45.3-4.7"/>
					<path class="st428" d="M556.2,871.7c1.9-11.9,4.2-23.8,3.2-35.7c-1.1-12.8,5.2-23.2,8.9-35.1c2.7-8.9,3.5-18.3,4-27.6
						c1.3-25,0.2-50-3.3-74.7c-10.6-3.7-28.6,3-38.8,6.6c-12.4,4.4-24.6,10.8-33.5,21.2c-10.8,12.6-15.9,29.7-19.3,46.4
						c-3.4,16.8-5.6,34-12,49.7c-6.8,16.7-18.5,32.1-18.9,50.3c-0.1,2.7,0.1,5.5-0.9,7.9c-0.6,1.4-1.6,2.6-2.1,4
						c-1.3,3.7,0.7,7.8,2.6,11.2c6.8-4.9,15.2-6.2,23.3-5.7c8.1,0.6,15.9,2.9,23.7,4.8c20.1,4.9,41.3,6.8,61.4,2.1
						c2.1-0.5,4.2-1.1,6.3-1.7C557.2,887.2,554.8,880.7,556.2,871.7z"/>
					<path class="st340" d="M556.2,871.7c1.9-11.9,4.2-23.8,3.2-35.7c-1.1-12.8,5.2-23.2,8.9-35.1c2.7-8.9,3.5-18.3,4-27.6
						c0.7-13.8,6.9-71.7-10-74.3c-21.1-3.3-49.2,17.8-59.7,34.2c-16.8,26.1-13.8,60.4-26.3,88.8c-3.2,7.2-7.4,14-10.8,21.1
						c-7.6,15.6-12.3,33.3-15.5,50.2c4.1-3.7,14.2-3.2,19.5-2.8c8.1,0.6,15.9,2.9,23.7,4.8c20.1,4.9,41.3,6.8,61.4,2.1
						c2.1-0.5,4.2-1.1,6.3-1.7C557.2,887.2,554.8,880.7,556.2,871.7z"/>
					<path class="st425" d="M602.7,639.3c5.7-25.9,3.8-52.7,1.7-79.1c30.7-6.9,61.3-13.9,92-20.8c3,33.4,6,66.8,9,100.2
						c2.1,23.9,4.4,48.1,12.9,70.5c-14.9,3.3-28.2,11.2-42.2,17.4c-24.5,10.8-84.5,26.2-101.8-5c-6.9-12.4,0.4-26.9,7.1-37.6
						C590.5,670,598.8,656.7,602.7,639.3z"/>
					<path class="st427" d="M602.7,639.3c2.9-13.1,3.8-26.5,3.8-39.9c0-13.2-2.3-26.6-1.9-39.7c8.6-1.5,17.5-5.7,25.8-8.6
						c2.9-1,5.9-2,8.6-3.6c3.5-2,6.5-4.8,9.8-7.2c6.7-5,14.6-8.2,21.3-13.3c8.5-6.4,14.7-15.4,23.1-21.9
						c9.5-7.4,21.1-11.1,32.7-13.3c14.8-2.9,26.7-11,41.8-2.2c3.1,1.8,6,4.2,7.9,7.2c3.9,6,3.5,14.5-1,20.1
						c-14.3,3.5-22.7,18.2-27.1,32.3c-4.3,14.1-6.6,29.4-15.6,41c-6,7.6-14.3,12.9-21.8,19.1c-23,19.1-38.2,47.8-49.1,75.1
						c-9.1,22.9-8.6,49.7-8.2,73.9c0.1,4.4,16,1.6,11.6,2.5c-27.7,5.4-36.7-23.4-69.5-38.8c-9.9-4.6-20.4-10.6-30.3-15.2
						C580.2,687.6,597.3,663.9,602.7,639.3z"/>
					<path class="st429" d="M847.7,871.9c-24.2,51.1-32,120.5-38.3,230c-0.7,12.9-5.9,25.7-14.2,35.7c-5.6,6.8-13.2,11.6-21.1,15.5
						c-27,13.2-58.2,16.3-88,12c-29.7-4.3-58.1-15.6-84.6-29.8c-6.1-3.3-12.4-7-16.2-12.8c-2.7-4.1-3.9-9-5-13.8
						c-11.8-49.2-22.3-98.9-39.4-146.7c-7.9-21.9-16.4-43.7-29.8-62.7c-11.9-16.8-18.5-37.7-18.8-58.7c-0.4-29.3,1.6-59.7,11.6-87.5
						c8.6-23.8,26.2-52,51.3-60.8c0.5-0.2,1-0.3,1.6-0.5c2.6-0.8,5.3-1.4,7.6-2.9c1.7-1.1,3.1-2.6,4.6-3.9c4.3-3.7,10-5.8,15.7-5.9
						c-2.8,0.3-4.7,3.3-4.8,6.1c-0.5,9.9,21.4,24.7,50.8,25.1c15.8,0.2,30.8,0.1,63-7.1c9.1-2,24.3-4.8,33.6-3.5
						c3.2,0.4,32.5,10.2,50.4,14.6c13.8,3.3,28.4,4.4,41.3,10.4c23.4,10.8,22.2,41.5,25.2,64.6C847.8,817,859.4,847.2,847.7,871.9z"
						/>
					<path class="st430" d="M846.9,873c0,0.9,0,1.8,0,2.6c-0.2,13.5-1.3,27.1-5.2,40c-2.5,8.3-13.9,18.1-16.3,26.4
						c-4.3,14.6-4.8,30.1-5.4,45.4c-1.4,43.2,1.5,89.1-4.5,131.9c-4.3,30.5-34.8,40.4-61.3,44.3c-23.2,3.4-46.8,3.8-70.1,1.1
						c17.6-1.5,31.4-15.5,41.2-30.2c19.9-30,29-66.7,26.8-102.5c-2.5-39.9-20.2-65.3-42.1-97.2c-31.8-46.5-44.5-75.7-55-131
						c-5.1-26.6-2.8-71.5-0.5-94.2c0,0,29.4-4.8,39.3-9.1c13.1-5.7,18.1-6.8,25.9-13.3c1-0.8,1.7-2.6,0.6-3c2.4-0.9,5.3-0.3,7.2,1.5
						c1.8,1.8,2.4,4.8,1.5,7.2c4.8-0.5,8.2,4.3,11.7,7.5c5,4.5,11.7,6.5,18.1,8.4c9.9,2.8,19,7,29.1,8.9c10.4,2,21.5,3.5,31.2,8.3
						c23,11.3,23.1,39.2,21.6,61.1C838.9,815.3,846.9,844.1,846.9,873z"/>
					<path class="st61" d="M748.5,496.7c17.7-2.8,34.4,8.6,52.1,10.9c19.8,2.6,40.6-7.4,51-24.4c1.5-2.5,2.4-6.5-0.3-7.6
						c-2.1-0.9-4.3,1.1-5.8,2.9c-9.9,11.4-24.1,18.9-39.1,20.6c-15,1.7-30.6-2.3-42.8-11.1"/>
					<path class="st61" d="M586.3,608.9c6.4,7,13.7,13,21.5,17.3c5,2.8,10.6,3.6,15.7,6c4.8,2.2,8,5.2,13.6,5.9
						c21,2.6,37.9-19.2,47.7-34.9c5.3-8.5,8.6-17.3,12.5-26.3c4.7-10.5,5.8-22.3,11-32.6c0.9-1.7,1.9-3.4,3.6-4.4
						c3.3-2,7.8-0.4,10.3,2.6s3.3,6.9,4.1,10.7c2.8,1.8,6.7-0.1,8.4-3s1.8-6.4,2.3-9.7c1.9-12.1,9.9-22.1,20.4-28
						c17.5-9.7,38.1-1.3,55.8-12.4c6.3-4,11.5-9.5,15.9-15.5c14.5-20.2,19.1-48,9-70.7c-4.4-9.8-11.2-18.3-18.3-26.4
						c-3.8-4.4-7.8-8.6-12.3-12.3c-19.7-15.8-43.4-15.4-67-13.4c-25.1,2.2-49.1,13.5-68.1,29.8c-4.7,4-9.1,8.3-14.4,11.4
						c-9.7,5.6-21.7,8.1-32,13.1c-11.3,5.4-22.3,11.8-32.2,19.6c-16.4,12.9-30,30.3-35.2,50.6c-1.8,7.1-2.6,14.4-3,21.8
						c-1.1,18.9,0,38.1,5.4,56.3C565.5,579.9,574.5,596.1,586.3,608.9z"/>
					<path class="st431" d="M757.9,707.6c2.9,18.3,5.8,36.9,7.9,55.3c2.7,23.8,0.6,47.8,5,71.6c4.2,22.4,12.5,44.5,27.2,61.8
						c4.3,5,9,9.6,13.9,14.1c8.5,7.9,19.2,23,29,29.3c10.2,6.5,15.3,14.9,24.1,16.8c-2.1-7,14.8-75.1,21.4-90.2
						c11.2-25.7,31.5-42.3,42.3-38c1.7,1.1,1.9,5.1,1.7,8.8c2.7-18.2-3.2-16.8-8.4-20.9c-15.7-12.5-17.4-20.8-30.9-35.6
						c-10.9-12-20.8-26.3-31.2-38.8c-10.3-12.5-33.7-33.5-49.9-32.9C774,710.3,757.9,707.6,757.9,707.6z"/>
					<path class="st432" d="M922,816.1c-15.7-12.5-17.4-20.8-30.9-35.6c-11.7-12.8-21.4-27.2-32-40.8
						c-12.5-16.1-27.9-30.3-48.7-32.8c-6.1-0.7-12.2-0.8-18.4-0.8c-5.1,0-10.2,0.9-15.2,0.6c-0.1,0-0.3,0-0.4,0
						c-11.5-0.6-23.2-1.6-34.1-5.3c4.6,4.5,11.4,5.7,17.5,7.9c9.5,3.4,40.1,5.3,46.4,6.8c14.2,3.3,24.9,11,33.2,20.9
						c13.6,16.3,23.7,40.9,30.9,60.8c9.3,25.7,12.5,34.2,24.5,53.3c12.6-18.3,38-29.4,35.7-14.1C933.1,818.8,927.2,820.2,922,816.1"
						/>
					<path class="st433" d="M647.6,552.7c-18.9,9.7-44,11.2-63.7,6.3c-6.3,12.8-2.6,28.8,6.1,40c8.8,11.2,21.8,18.3,35.2,23.2
						c3.6,1.3,7.4,2.5,11.2,2.4c20.7-0.6,35.1-17.3,39.2-36.5c0.7-3.3,1.1-6.8,2.5-9.9c3.5-8.1,12.4-12.3,19.6-17.4
						c6.1-4.3,11.4-9.6,15.6-15.7c4.6-6.6,4.7-14,8.6-20.9c5.1-9.1,14-15.7,23.7-19.6c28.9-11.6,65,1,82.7-31.7
						c9-16.7,8.3-37.6,0.9-55.2c-9.9-23.5-32.1-42.9-57.4-48.1c-11.9-2.4-27.7-0.5-39.6,1.8c-14.3,2.8-27.9,8.5-39.9,16.9
						c-2.3,1.6-4.7,3.7-4.5,6.4c10.2-1.3,19.4-6.4,29.2-9.3c11.7-3.5,24.3-4,36.3-1.7c9.7,1.8,19.2,5.5,26.8,11.8
						c7.6,6.3,13.1,15.5,13.7,25.3c2.2,33.8-35.3,49.6-60,60.7c-26.4,11.9-50.2,31.2-67,54.8C662.2,543.3,655.4,548.7,647.6,552.7z"
						/>
					<path class="st427" d="M717.3,581.2c-2.7,4.3-8.5,6.2-13.5,5c-5-1.2-9.1-4.9-11.6-9.4c-2.5-4.5-3.6-9.6-4.2-14.7
						c-0.8-7.4-0.4-15.5,4.1-21.4c4.4-5.8,12.5-8.4,19.5-6.3c7,2.1,12.3,8.7,12.8,16c0-0.6,0-1.1,0-1.7"/>
				</g>
			</g>
			<path class="st27" d="M652.7,823.9c4.8-37.5-35.4-40.2-60.6-49.1c-3-1.1-6-1.9-9.2-2.2c-23.4-2.1-42.2,12.9-59.5,26.5
				c-21.8,17.2-15,50.5-7.1,74.2c7.5,22.7,19.7,43.6,30.2,65.1c17.7,36.1,31,74.4,39.5,113.7c-11.8-54.7-15.5-114.7,21-160.8
				c13.9-17.6,30.3-33.2,41-53.1C650.4,833.9,652.1,829,652.7,823.9z"/>
		</g>
		<path class="st61" d="M614,517.2c-109.2,13.3-188.5,114.4-176.1,223.1c2.1,18,6.5,35.9,14.5,52.2c25.5,51.8,82.4,76.4,138.5,67
			c25.3-4.3,49.8-17.4,64.2-38.7c14.5-21.2,17.4-50.8,4.2-72.8c-8.6-14.3-22.7-24.2-35.3-35.2c-31.5-27.4-56.4-68.1-49-109.2
			c5.7-31.6,29-56.7,51.3-79.8"/>
		<path class="st61" d="M582.1,570.3c-16.5,27-13.3,63,2.6,90.4c15.8,27.4,42.6,47.1,71.1,60.8c6.5,3.1,13.6,6.4,17.2,12.6
			c4.2,7.3,4.2,18.9,12.3,21.1c5.5-13.2-2.2-28.7-13.3-37.7c-11.1-9.1-25-13.8-37.5-20.7c-39.6-21.9-64.3-68.3-60.2-113.4
			c0.4-4.3,1-8.8-0.7-12.8c-1.7-4-6.6-7-10.4-4.9"/>
		<path class="st37" d="M692.5,1092.2c46.6,0.7,90-4.8,126.2-33.3c11.8,44.3,28.2,128.9,32.7,198.8c-76,34.6-142.4,26-226.3,21.3
			c-10.9-0.6-43.1,2.8-53.6-0.1c-19.8-5.5-42.9-14.6-63.5-14.8c0.5,0-6-92.7,13.9-124.6c10.1-16.1,34.2-65.5,50.1-77.6
			c0,0,28.8,16.1,47.7,21.6C652.1,1092.9,667.9,1091.8,692.5,1092.2z"/>
		<path class="st42" d="M691.5,1092.4c15.7,0.5,38.7-0.3,54.6-3.4c-8.1,26-29,51-41,64.1c-36.8,40.1-68.8,63-86.2,114.6
			c-1.5,4.5-3,9.4-6.9,12c-12.5,8.7-31.9,3.4-44.5-1.5c-18.4-7.3-39.6-14-59.5-14.2c0.5,0-6-92.7,13.9-124.6
			c10.1-16.1,34.2-65.5,50.1-77.6c0,0,28.8,16.1,47.7,21.6C643.4,1090.4,666.9,1091.6,691.5,1092.4z"/>
		<path class="st433" d="M523.3,658.8c0.5,17.5,4.6,34.7,6.1,52.1c1.5,17.4,0.1,36-9.5,50.7c-3.2,4.9-7.3,9.3-12.6,11.7
			c-8.7,3.8-19.1,1.3-26.9-4.1c-7.8-5.3-13.6-13.1-19.2-20.8c-4.4,12.4-0.4,26.4,6,37.9c12.3,22.2,33.2,39.4,57.4,47.1
			s51.3,5.7,74.1-5.4c15.5-7.5,29.9-20.6,32.5-37.6c3.2-20.7-11.1-39.4-23.5-56.3c-15.8-21.4-29.8-44.6-37.7-70
			c-7.9-25.4-9.3-53.4-0.1-78.4c4.9-13.4,15.7-23.9,20.9-36.3c-14.8-9-42.2,30.1-48.7,40.8C529.6,610.9,522.6,634.8,523.3,658.8z"/>
	</g>
</g>
<g>
	<path class="st418" d="M1535.5,837.4c18.3,9.2,36.6,18.5,55.9,25.4c16.4,5.9,35.1,4.1,48.2,15.9c19.2,17.4,37,36.3,53.3,56.5
		c16.6,20.6,33.6,43.8,59.1,50.7c13.6,3.6,28,2.1,41.9,0.5c9.3-1.1,19.3-2.5,25.8-9.3c3.9-4.1,5.9-9.5,7-15
		c3.2-14.8,1-30.9-7.4-43.4c-6.3-9.4-15.7-16.2-25-22.6c-25.3-17.3-51.9-32.6-78.7-47.5c-18.4-10.3-36.8-20.4-54.3-32.2
		c-16-10.7-29.2-24.6-44.6-35.7c-9.3-6.7-15.1-11.8-26.3-14.5c-22.2-5.4-48.3,5.8-64.8,21.6c-7,6.7-13.9,15.1-13.2,24.7
		C1513.2,824.3,1524.9,832.1,1535.5,837.4z"/>
	<path class="st416" d="M1550.4,844.9c13.6,7.2,25.7,13.2,40.9,14.6c13.9,1.3,29.5,8.3,40.3,17.1c5.8,4.8,10.7,10.6,15.5,16.4
		c6.6,8,13.2,15.9,19.8,23.9c15.2,18.3,30.6,36.8,49.8,51c19.2,14.1,42.8,23.6,66.5,21.4c15.9-1.5,32.7-10,37.2-25.3
		c2.1-6.9,1.3-14.3,0.6-21.5c-1.1-11.1-2.5-22.7-9.2-31.6c8,11.7,4.6,28.7-5.4,38.7c-10,10-25,13.6-39.1,12.6
		c-14.6-1.1-28.8-6.8-40.1-16.2c-7.5-6.2-13.6-13.9-19.7-21.5c-7.5-9.4-15-18.8-22.5-28.2c-6.9-8.7-14-17.5-17.8-27.9
		c-3.4-9.1-4.3-19.3-10.1-27c-14.4-18.9-38.3-9.9-57.7-11.3c-8.4-0.6-16-5-23.6-8.6s-16.1-6.8-24.4-4.8s-15.1,11.2-11.7,18.9
		C1541.5,839.9,1546,842.6,1550.4,844.9z"/>
</g>
<g>
	<path class="st369" d="M1636.2,1117.6l-452.4-203.9c-11.2-5.1-16.2-18.3-11.2-29.5l81-175.8c5.1-11.2,18.3-16.2,29.5-11.2
		l452.4,203.9c11.2,5.1,16.2,18.3,11.2,29.5l-81,175.8C1660.6,1117.6,1647.4,1122.6,1636.2,1117.6z"/>
	<path class="st99" d="M1211.1,926l-27.6-12.4c-11.2-5.1-16.2-18.3-11.2-29.5l81-175.8c5.1-11.2,18.3-16.2,29.5-11.2l27.6,12.4
		L1211.1,926z"/>
	<g>
		
			<ellipse transform="matrix(0.4109 -0.9117 0.9117 0.4109 41.0577 1589.3165)" class="st99" cx="1250.3" cy="762.9" rx="4.4" ry="4.2"/>
		
			<ellipse transform="matrix(0.4109 -0.9117 0.9117 0.4109 43.0396 1602.4109)" class="st99" cx="1261.5" cy="767.9" rx="4.4" ry="4.2"/>
		
			<ellipse transform="matrix(0.4109 -0.9117 0.9117 0.4109 26.5703 1591.5093)" class="st99" cx="1244.8" cy="775.2" rx="4.4" ry="4.2"/>
		
			<ellipse transform="matrix(0.4109 -0.9117 0.9117 0.4109 28.5523 1604.6036)" class="st99" cx="1255.9" cy="780.2" rx="4.4" ry="4.2"/>
		
			<ellipse transform="matrix(0.4109 -0.9117 0.9117 0.4109 11.5258 1593.7864)" class="st99" cx="1239" cy="788" rx="4.4" ry="4.2"/>
		
			<ellipse transform="matrix(0.4109 -0.9117 0.9117 0.4109 13.5078 1606.8807)" class="st99" cx="1250.2" cy="793" rx="4.4" ry="4.2"/>
	</g>
	<g>
		<path class="st387" d="M1331.4,776.2c-0.3-0.5-0.8-1.3-0.9-1.7c0-0.5,0.2-1.1,0.4-1.5c0.2-0.3,0.5-1,0.9-1.3
			c0.3-0.3,1.2-0.4,1.9-0.5c0.3,0,0.5-0.3,0.5-0.6l-0.2-2.8c0-0.3-0.3-0.5-0.6-0.5c-0.6,0.1-1.5,0.1-1.9,0c-0.4-0.2-0.8-0.7-1.1-1
			c-0.2-0.3-0.5-1-0.5-1.5c0-0.4,0.3-1.3,0.6-1.9c0.1-0.3,0-0.6-0.3-0.8l-2.5-1.1c-0.3-0.1-0.6,0-0.8,0.3c-0.3,0.6-0.7,1.4-1,1.7
			c-0.4,0.3-1.1,0.5-1.5,0.6c-0.4,0-1.1,0.1-1.5-0.1c-0.4-0.2-0.9-0.9-1.3-1.4c-0.2-0.3-0.5-0.3-0.8-0.1l-2.2,1.7
			c-0.3,0.2-0.3,0.6-0.1,0.8c0.3,0.5,0.8,1.3,0.9,1.7c0,0.5-0.2,1.1-0.4,1.5c0,0,0,0,0,0c0,0,0,0,0,0c-0.2,0.3-0.5,1-0.9,1.3
			c-0.3,0.3-1.2,0.4-1.9,0.5c-0.3,0-0.5,0.3-0.5,0.6l0.2,2.8c0,0.3,0.3,0.5,0.6,0.5c0.6-0.1,1.5-0.1,1.9,0c0.4,0.2,0.8,0.7,1.1,1
			c0.2,0.3,0.6,0.9,0.6,1.4c0,0.4-0.3,1.3-0.6,1.9c-0.1,0.3,0,0.6,0.3,0.8l2.5,1.1c0.3,0.1,0.6,0,0.8-0.3c0.3-0.6,0.7-1.4,1-1.7
			c0.4-0.3,1.1-0.4,1.4-0.5c0.4,0,1.1-0.1,1.5,0.1c0.4,0.2,0.9,0.9,1.3,1.4c0.2,0.3,0.5,0.3,0.8,0.1l2.2-1.7
			C1331.5,776.8,1331.6,776.4,1331.4,776.2z M1323.3,773.7c-1.8-0.8-2.6-3.1-1.8-5s3.1-2.8,4.9-2c1.8,0.8,2.6,3.1,1.8,5
			C1327.3,773.7,1325.1,774.6,1323.3,773.7z"/>
	</g>
	<path class="st387" d="M1514,860.1l-171.4-77.3c-1.8-0.8-2.6-2.9-1.8-4.7l0.1-0.1c0.8-1.8,2.9-2.6,4.7-1.8l171.4,77.3
		c1.8,0.8,2.6,2.9,1.8,4.7l-0.1,0.1C1517.9,860.2,1515.8,861,1514,860.1z"/>
	<path class="st388" d="M1573,953l-240.6-108.4c-9.9-4.5-14.3-16.1-9.8-26l0.3-0.8c4.5-9.9,16.1-14.3,26-9.8l240.6,108.4
		c9.9,4.5,14.3,16.1,9.8,26l-0.3,0.8C1594.5,953,1582.8,957.4,1573,953z"/>
	<path class="st388" d="M1544.7,1015.6l-240.6-108.4c-9.9-4.5-14.3-16.1-9.8-26l0.3-0.8c4.5-9.9,16.1-14.3,26-9.8l240.6,108.4
		c9.9,4.5,14.3,16.1,9.8,26l-0.3,0.8C1566.2,1015.7,1554.6,1020.1,1544.7,1015.6z"/>
	<path class="st387" d="M1719.1,933.2l-80.2-36.2c-1.8-0.8-2.6-2.9-1.8-4.7l0.1-0.1c0.8-1.8,2.9-2.6,4.7-1.8l80.2,36.2
		c1.8,0.8,2.6,2.9,1.8,4.7l-0.1,0.1C1723,933.3,1720.8,934.1,1719.1,933.2z"/>
</g>
<g>
	<path class="st418" d="M1577.5,765.4c-18.2-0.2-36.5-0.5-54.7-0.7c-2.9,0-12.3,0.9-14.7,2.5c-7,4.9-36.1,62.7-31.1,65.7
		c2.4,1.5,5.5-0.6,7.7-2.3c5.3-4.2,9.9-9.3,13.4-15.1c5-8.2,16.7-26.9,16.7-26.9s10.8-0.6,16.8-1.4c12.8-1.7,25.7-3.4,38.5-5.1"/>
	<path class="st416" d="M1531.6,787.1c3.4-0.4,38.3-5.8,38.5-4.2c-0.2-2.2,1.4-4.7,0.1-6.4c-0.7-0.9-2-1.1-3.1-1.2
		c-16.6-1.9-33.4,0.8-49.7,4.6c-1.3,0.3-2.6,0.6-3.8,1.3c-1.5,0.9-2.6,2.2-3.7,3.6c-8.1,10.6-13.3,23.2-19.9,34.8
		c-3.1,5.5-6.8,11-12.5,13.8c4.8,0.9,7.2-2.6,10.4-5.4c4-3.6,7.4-7.8,10.2-12.4c5-8.2,16.7-26.9,16.7-26.9
		S1525.6,787.9,1531.6,787.1z"/>
	<path class="st418" d="M1572,774.3c-13.7,3.9-27.5,7.8-41.2,11.7c-3.2,0.9-6.5,1.9-9.3,3.6c-4.8,3-7.9,8.1-10.5,13.2
		c-3.9,7.6-7.1,15.5-9.5,23.6c-0.9,2.8-1.6,5.7-1.7,8.7c-0.1,2.8,0.5,5.6,1.1,8.3c2.1,9.1,5.1,18,9.1,26.5c0.3,0.6,0.6,1.3,1.3,1.6
		c0.5,0.2,1,0.1,1.5,0c3.7-0.8,6.7-3.6,8.4-7s2.2-7.2,2.4-10.9c0.2-4-0.1-8.1-0.7-12.1c-0.3-2.2-0.8-4.4-0.5-6.5
		c0.2-1.5,0.8-3,1.5-4.4c2.9-5.9,6.9-11.1,10.8-16.3c1.5-2,3-3.9,4.9-5.5c2.3-1.9,5-3.3,7.7-4.6c6.8-3.3,13.6-6.6,20.4-9.8"/>
	<path class="st416" d="M1521.1,864.5c1.7-3.4,2.2-7.2,2.4-10.9c0.2-4-0.1-8.1-0.7-12.1c-0.3-2.2-0.8-4.4-0.5-6.5
		c0.2-1.5,0.8-3,1.5-4.4c2.9-5.9,6.9-11.1,10.8-16.3c1.5-2,3-3.9,4.9-5.5c2.1-1.8,4.2-2.4,6.6-3.5c3-1.3,5.7-3.7,8.4-5.7
		c6.2-4.5,12.3-9.2,18.3-14c-11.3,5.1-23.9,6.9-35.1,12.2c-2.9,1.4-5.7,3-8.1,5.1c-1.9,1.6-3.5,3.5-5,5.5
		c-10.2,13.7-13.8,31.9-9.7,48.4c0.7,2.7,1.5,5.4,1.1,8.1c-0.4,2.7-2.1,5.1-4.5,6.4c1.2-0.7,3.4-0.5,4.9-1.6
		C1518.5,868.4,1520,866.5,1521.1,864.5z"/>
	<path class="st418" d="M1594.8,800.4c-3.3,1-6.2,2.9-9.1,4.8c-6.4,4.2-12.9,8.3-19.3,12.5c-5,3.2-10,6.5-14.3,10.6
		c-6.3,6.1-9.3,11.7-9.3,11.7c-1.7,7.4-1.7,26.2-4,33.4c-2.3,7.2-8.3,14.1-15.8,14.1c-5.6-0.4-1.2-58.7-0.4-60.2
		c1-1.8,13.5-23.4,22.4-28.1c3.2-1.7,27.2-13.9,36.8-15.3c0.4-0.1,0.9-0.1,1.1-0.5c0.2-0.3-0.1-1-0.5-0.8"/>
	<path class="st416" d="M1561.6,813.9c-1.2,1.5-2.3,2.9-3.5,4.4c-4.1,5.2-8.1,10.5-11.8,16.1c-3,4.6-4.1,7.4-4.6,12.7
		c-0.8,8.6-0.3,18-3,26.2c-1.9,5.9-5.8,11-11.8,13c3.9-5.6,4.1-10.7,3.7-17.4c-0.7-13.9-1.4-28.1,2.2-41.5c1.1-3.9,2.6-7.9,5.1-11.1
		c1.7-2.1,3.7-3.8,5.8-5.5c12.1-9.6,25-17.5,39.5-22.7C1575.8,796.6,1568.6,805.1,1561.6,813.9z"/>
	<path class="st418" d="M1606,829.4c-6.1,1.9-12.8,1.1-18.8-1.1c-6-2.2-11.4-5.7-16.5-9.6c-1,5.5-2.8,10.8-5.3,15.7
		c-1.2,2.4-2.7,4.7-4.2,6.8c-1.3,1.8-3.8,3.5-3.3,5.8c1.2,5.3,4,10.4,3.3,15.9c-0.8,6.5-3.6,6.4-8.7,10.5c-0.9,0.7-2.1,1.5-3.1,0.8
		c-0.4-0.3-0.6-0.8-0.8-1.3c-2.7-8-5.4-16.1-8.1-24.1c-0.7-2.1-1.4-4.2-1.6-6.4c-0.2-2.4,16.1-34.1,17.7-36.4
		c1.6-2.3,15.5-12.2,26-19.6"/>
</g>
</svg>
