<svg width="1207" height="1299" viewBox="0 0 1207 1299" fill="none" xmlns="http://www.w3.org/2000/svg">
<circle opacity="0.5" cx="604" cy="650" r="448" fill="#EEEFFB"/>
<path d="M682.6 1133C684.2 1153.7 685.8 1174.4 687.5 1195C687.6 1196.2 687.8 1197.5 688.8 1198.2C689.5 1198.7 690.4 1198.6 691.3 1198.6C704 1197.9 716.6 1197.2 729.3 1196.6C729.7 1173.1 730.2 1149.6 730.6 1126.1" fill="#DBECFE"/>
<path d="M733.9 1213.8C739 1202.8 733.9 1184.2 729.2 1181.7C726 1186.8 718.8 1189.6 713.5 1185.9C711.5 1184.5 710 1182.5 708.5 1180.5C702.9 1173.1 695.3 1165.8 686.1 1165.9C682.3 1165.9 678.3 1167.5 676.3 1170.7C674.3 1173.9 675.1 1178.9 678.5 1180.6C662 1194.8 645.5 1209 629 1223.3C624 1227.6 615.5 1235.1 618.1 1241.1C619.5 1244.4 623 1248 626.4 1249.4C643.3 1256.4 663.2 1258.3 678.4 1248.2C703.2 1231.5 728.1 1226.3 733.9 1213.8Z" fill="#3297F5"/>
<path d="M801.3 1131.5C804.5 1152 807.6 1172.5 810.8 1193C811 1194.2 811.3 1195.5 812.3 1196.1C813 1196.5 814 1196.4 814.8 1196.3C827.4 1194.7 839.9 1193.1 852.5 1191.4C851.2 1167.9 849.9 1144.5 848.5 1121" fill="#DBECFE"/>
<path d="M850.6 1220.1C851.5 1219.6 852.4 1219 853.1 1218.2C853.6 1217.6 854 1216.8 854.4 1216.1C859.3 1206.6 859.6 1193.8 852.1 1186.1C847.8 1190.7 840.6 1193.2 835.4 1188C833.7 1186.3 832.6 1184 831.5 1181.8C827.4 1173.5 821.3 1164.9 812.2 1163.2C801.6 1161.3 801.7 1168.9 798.7 1176.3C797.9 1178.3 796.4 1179.9 794.9 1181.5C780.5 1196.6 765.1 1210.5 749.4 1224.3C745.2 1228 740.9 1231.8 738.3 1236.7C735.7 1241.6 735.1 1248.1 738.4 1252.6C741.1 1256.4 745.9 1258.1 750.4 1259.3C755.1 1260.5 759.9 1261.4 764.8 1261.8C767.7 1262.1 770.6 1262.2 773.4 1261.9C780.4 1261 786.6 1257.2 792.7 1253.5C811.3 1242.1 830.3 1231.1 849.5 1220.7C850 1220.4 850.3 1220.3 850.6 1220.1Z" fill="#3297F5"/>
<path d="M728.6 355.6C728.1 355.8 727.6 356.1 727.1 356.3C716.6 361.5 707.3 369 697.2 375.1C689.6 379.7 681.6 383.4 673.2 386.3C667.8 388.2 662.2 389.6 657.1 392.2C633.8 403.7 614.3 427.3 623.2 454.5C624.1 457.3 625.6 460.3 628.3 461.6C630.3 462.5 632.6 462.3 634.8 461.9C641.4 460.7 691 448.4 699.1 446.9C711.9 444.6 724 439.4 735.7 433.7C748.8 427.3 761.9 420 771 408.6C780.1 397.2 784.4 381 778.2 367.8C774.8 360.7 768.6 354.9 761.2 352.3C750.6 348.5 738.8 350.9 728.6 355.6Z" fill="#CAE3FC"/>
<path d="M543.3 399.4C546.9 395.2 548.6 389.5 547.8 384C547.5 382.2 547 380.4 545.9 379C544.3 376.8 543.1 374.9 540.6 373.9C539.7 373.5 540.3 372.9 539.4 373.1C538.7 373.2 535 374.7 534.4 375.1C527.6 379.5 524.4 387.9 518.1 392.9C513.7 396.4 512.6 398.8 513.2 401.2C514.2 405.3 519.8 406.9 524 407.3C526 407.5 528.2 407.6 530.1 406.8C532.3 405.9 534 404 535.6 402.2C537.9 399.5 540.2 396.9 542.5 394.2" fill="#93C5FA"/>
<path d="M561.8 420.7C562.7 420.3 563.6 419.9 564.4 419.4C570 415.9 572.7 408.8 572.3 402.2C571.6 392 562.8 388.9 554.8 385.1C546 380.8 537.3 376.1 529.8 369.7C519.3 360.8 511.5 349.1 503.1 338.2C501.3 335.8 499.3 333.4 496.6 332.2C494.7 331.4 492.5 331.2 490.5 331.1C484.2 330.8 477.9 330.8 471.6 331C473.2 339.5 474.8 348 476.3 356.5C477.3 362 478.4 367.5 480.8 372.5C483.2 377.5 487.2 382 492.4 383.9C494.6 384.7 503.7 384.9 505.8 385.9C508.4 387.1 510.7 390.4 512.6 392.5C516.3 396.7 519.9 401 523.5 405.3C526.7 409.2 532.1 411.8 536.5 414.4C540.9 417 542.5 420.3 547.5 421.3C552.3 422.3 557.4 422.4 561.8 420.7Z" fill="#9E7744"/>
<path d="M656.4 440.7C654.7 450.7 640.5 463.9 626.3 461.8C612.4 459.8 575 448.3 564.1 442.4C548.6 434 534.8 420.3 531.6 412.6C531.4 412.1 533.7 402.1 538.2 398.5C540.3 396.8 542.6 395.2 544.6 393.4C546.5 391.7 549.7 386.3 552 385C556.6 382.3 574.3 387.7 584.2 392.4C597.6 398.8 635.1 404.5 637.9 407.1C643.7 412.7 657.9 431.5 656.4 440.7Z" fill="#CAE3FC"/>
<path d="M557.3 384.5C552.3 380.7 553.2 380.5 549.6 378.2C547 376.5 544.5 374.5 541.5 373.9C542.3 374.5 542.8 375.4 543.2 376.3C544.5 380 545.8 383 544.5 386.7C543.2 390.4 540.6 393.5 537.9 396.3C534.8 399.5 531.4 402.5 527.4 404.3C523.3 406.1 518.5 406.6 514.5 404.7C520.8 407.6 528.7 411.1 533.8 415.8C534.3 416.2 536.3 416.9 536.8 416.8C540 416.4 543.1 415.7 545.9 414.1C549.7 412 550.5 409 552.8 405.3C556.2 399.8 555.8 385.6 557.3 384.5Z" fill="#B5D7FB"/>
<path d="M542 376C543.3 377.7 543 380.6 542.9 382.8C542.4 391.9 534.8 399.2 526.6 403C523.9 404.3 520.8 405.3 517.9 404.5C515 403.8 512.5 400.6 513.5 397.8C511.3 400 512.7 404.1 515.4 405.6C518.1 407.1 521.5 406.6 524.5 405.7C532.6 403.2 539.8 397.7 544.3 390.5C546.4 387.2 547.9 383.2 547.2 379.4C546.3 374.9 541 371.1 536.8 374.1C539.3 373.6 540.9 374.5 542 376Z" fill="#DBECFE"/>
<path opacity="0.63" d="M659.3 61.1L554.3 132.9L411.2 107.4L506.6 35.4L659.3 61.1Z" fill="#ABD4FB"/>
<path d="M578.8 116.3L554.3 132.9L411.2 107.4L507.3 35.3L578.8 116.3Z" fill="#A3D0FB"/>
<path d="M659.3 61.1L554.3 132.9L522.4 282.4L609.1 382L709.8 304.1L733.5 155.3L659.3 61.1Z" fill="#3297F5"/>
<path d="M522.4 282.4L554.3 132.9L411.2 107.4L378.8 256.7L522.4 282.4Z" fill="#82C0F9"/>
<path d="M522.4 282.4L609.5 381.8L465.8 356.2L378.8 256.7L522.4 282.4Z" fill="#53A8F7"/>
<path d="M495.3 363.4C493.6 359.3 489.9 356.6 486.4 354.2C486.3 350.8 486.2 347.5 486.1 344.1C486.1 343.1 486 342 485.9 341C485.3 336.7 482.1 331.9 477.8 331.6C477.3 331.6 476.7 331.6 476.4 332.1C476.1 332.5 476.1 333.1 476.2 333.6C476.3 335.5 476.5 337.4 476.6 339.3C476.1 337.1 475.6 334.8 474.7 332.8C473.7 330.8 472.2 329 470.2 328.3C469 327.9 467.6 327.9 466.6 328.6C465.6 329.3 464.9 331 465.5 332.2C463.1 331.1 459.9 330.5 458 332.6C456.4 334.4 456.5 337.1 456.7 339.5C455.8 338.9 454.6 338.2 453.6 338.7C452.2 339.3 451.9 341.3 451.9 342.9C451.7 350.1 451.5 357.2 451.3 364.4C451.3 365.2 451.3 366.1 451.5 366.8C452 368.7 453.8 369.7 455.4 370.5C459.5 372.6 463.5 374.7 467.6 376.8C468.7 377.4 469.8 377.9 471 378C471.4 378 471.7 378 472.1 378.1C472.7 378.3 473.2 378.9 473.7 379.4C476.1 381.9 480.5 381.6 482.8 378.8C483.6 380.9 486.1 381.6 488.1 380.9C490.1 380.2 491.7 378.5 493.1 376.8C494.6 377.1 496.2 376.3 497.4 375.3C498.6 374.2 499.6 372.9 500.6 371.6C502.8 368.9 505.3 366.6 508.1 364.7" fill="#9E7744"/>
<path d="M476.8 339.3C476.8 339.3 478 350.1 478.7 355.6C479.4 361.1 482.9 378.9 482.9 378.9L475.6 355.5C475.6 355.5 473.7 338 471.1 332.7C468.5 327.4 466.2 329.5 466.2 329.5C466.2 329.5 468.8 325.6 472.7 329.7C476.3 333.6 476.8 339.3 476.8 339.3Z" fill="#916B3D"/>
<path d="M471.4 377.1L464.8 358L465.6 332.3C465.6 332.3 463.2 330.5 460 331.5C460 331.5 462.6 333.9 462.8 337.1C463 340.3 461.1 353.7 462 358.4C463 362.9 471.4 377.1 471.4 377.1Z" fill="#916B3D"/>
<path d="M455.9 339.7L455.6 359.6L465 374.7C465 374.7 455.3 363.7 454.4 360.4C453.5 357.1 454.7 339.1 453.6 338.8C453.7 338.8 455.9 338.1 455.9 339.7Z" fill="#916B3D"/>
<path d="M729.1 357.2C727.6 357.7 726.2 358.4 724.9 359.2C720.9 361.8 718.2 366 715.8 370.1C712.8 375.1 710 380.1 707.3 385.2C702.1 395.1 697.5 405.4 691.2 414.7C685 424 676.9 432.4 666.6 436.9C663.4 438.3 660.1 439.3 656.7 440C653 440.7 649.1 440.5 645.5 441.3C638.4 442.8 632 443.3 624.7 442.5C615.6 441.4 606.7 439.4 598 436.5C575.1 428.8 561.2 424.9 538.1 417.6C545 432.1 569.8 443 593.8 451.6C606.4 456.1 629.4 460.9 633.4 459.9C650.3 455.8 685.4 449.4 699.3 446.8C712.1 444.5 724.2 439.3 735.9 433.6C749 427.2 762.1 419.9 771.2 408.5C777.5 400.7 779.6 392.3 781.5 382.7C783.2 373.9 777.5 367 769.7 362.8C763 359.2 755.4 357.9 748 356.8C741.6 356 734.9 355.3 729.1 357.2Z" fill="#C1DEFC"/>
<path d="M696.3 601.9C696.7 627.3 652.7 817.1 655.6 865.9C657.4 895.5 659.8 946.1 662 975.7C664.9 1014.6 676 1090.3 678.9 1129.2C679.1 1131.2 679.3 1133.4 680.6 1134.9C682.1 1136.5 684.4 1136.8 686.5 1137.1C706 1140 714.3 1134.2 732.4 1138.7C735.3 1075.1 726.9 937.3 728.4 873.6C729.1 845.2 790.6 766.8 789.9 675C789.9 671 774 653.6 772.2 650C770.5 646.7 767.5 644.2 764.6 641.8C752.9 632.2 741.2 622.5 729.4 612.9" fill="#0058B0"/>
<path d="M732.5 1138.8C735.4 1075.2 727 937.4 728.5 873.7C728.8 859.8 737.6 845.3 743.4 833.1C753.5 811.7 763.8 790.4 772 768.1C781.6 741.8 788 714.7 789.8 686.6C791.1 665.1 763.2 637.9 748.6 623.1C737.1 611.4 724 601.1 709.1 594.1C717.9 618.5 718.1 645.3 714.1 670.9C710.2 696.5 702.2 721.4 695.1 746.3C681.5 793.7 670.6 842.3 671.2 891.6C671.4 909.6 673.1 927.5 674.9 945.4C681.1 1009.8 687.4 1074.3 693.6 1138.7C696.2 1138 732.7 1135.3 732.5 1138.8Z" fill="#044CA3"/>
<path d="M835.1 619.1C853.3 649.8 852.9 687.5 852.5 723.1C851.2 854.3 838.6 1010.9 851.2 1141.5C829.6 1135.9 822.7 1138.9 800.5 1140.3C782.1 1012.4 760.5 870.9 759.7 864.7C757.6 848.9 744.6 703.6 734 629.8" fill="#0058B0"/>
<path d="M738.7 1123.4C737.9 1131.4 737.2 1139.5 736.4 1147.5C731 1144.3 724.3 1145.4 718.1 1146C705.2 1147.2 677.5 1141.2 676.4 1141.6C675.3 1141.9 672.6 1120.3 674.3 1108.5C684.5 1109.8 694.8 1110.1 705 1109.3C717 1108.3 740.5 1105.1 738.7 1123.4Z" fill="#186ACB"/>
<path d="M852.1 1147.6C844.5 1144 835.6 1145.3 827.2 1146C819.3 1146.7 811.4 1146.7 803.5 1146.1C802.2 1146 800.8 1145.9 799.7 1145.3C798.5 1144.7 797.6 1143.7 796.8 1142.6C790.8 1133.9 794.7 1121.8 791.8 1111.7C802.1 1114.7 813 1115.5 823.6 1114C830.2 1113.1 849.3 1106.8 853.6 1113.9C855.7 1117.4 854.7 1125.2 854.6 1129C854.4 1135.3 853.6 1141.5 852.1 1147.6Z" fill="#186ACB"/>
<path d="M832.1 605.7C834.2 608.9 836.3 612.2 838.4 615.4C839.4 617 840.5 618.6 840.6 620.5C840.7 622.9 819.7 649.4 788 656.3C719.4 671.2 690.6 634.6 690.2 633.4C689.9 632.6 689.9 631.8 689.8 631C689.1 621.4 688.4 611.9 687.7 602.3C702.4 602.5 717.1 602.6 731.8 602.8" fill="#D4E8FD"/>
<path d="M744.8 205C743.2 213 743.5 218.7 750.7 232.6C757.3 245.3 760.1 255.3 767 262.9C774.8 252.7 776 251.2 783.9 241C784.7 240 785.5 238.9 785.4 237.6C785.3 236.5 784.7 235.6 784 234.8C778.9 228.4 772.6 223 765.6 218.7" fill="#473A22"/>
<path d="M760.8 368.9C757.7 359.1 758 348.3 761.5 338.7C761.8 338 762 337.3 762.5 336.8C763.2 335.9 764.3 335.3 765.3 334.8C767.5 333.7 769.9 332.8 772.2 332.1C776.7 330.7 781.5 330.1 786.1 329.6C803.4 327.5 820.6 325.3 837.9 323.2C839.7 323 841.5 322.8 843.2 323.5C844.4 324 845.3 325.1 846.1 326.2C847.8 328.8 848.6 331.9 848.9 335C849.6 342.4 847.5 350 843.3 356.1C839.1 362.2 832.7 366.7 825.5 368.7C819.8 370.3 813.7 370.2 807.9 371.2C804.3 371.8 800.8 372.8 797.2 373.2C793.7 373.6 790.1 373.4 786.6 373.3C780.3 373 774 372.7 767.8 372.4C767.2 372.4 766.5 371.5 767.1 371.5" fill="#93C5FA"/>
<path d="M830.4 287.3C826 299.3 822.6 311.8 822.9 324.5C823.2 337.2 827.8 350.3 837.3 358.7C828.7 366.4 820 374.3 809.5 379C799 383.7 786.3 385 776.1 379.5C767.7 375 762.3 366.6 757.2 358.5C760.4 358.4 766.2 351.7 767.3 348.6C770.1 340.7 771.8 332.6 771.9 324.2C771.9 321.4 771.8 318.6 772.9 316C773.7 314 775 312 776.5 310.5C784.7 302.2 790.2 298.3 800.5 292.8" fill="#9E7744"/>
<path d="M757.2 358.6C760.4 358.5 766.2 351.8 767.3 348.7C770.1 340.8 771.8 332.7 771.9 324.3C771.9 321.5 771.8 318.7 772.9 316.1C773.7 314.1 775 312.1 776.5 310.6C780.6 306.5 784.8 302.6 789.6 299.4C794.4 296.1 798.9 297.3 804 294.7C806.6 293.3 809.1 291.6 811.8 290.4C814.4 289.2 817.2 288.4 820 287.7C822.5 287 825 286.4 827.6 285.7C832 284.6 831.3 296.8 830.7 299.6C829.3 307 830.3 308.6 823.4 311.7C812.5 316.8 799.9 325.8 794.3 330.9C788.7 336 788.6 342.2 791.1 349.3C792.9 354.4 797.6 358 802.7 359.7C806.3 361 809.9 361 813.7 361.6C816.4 362 819.2 363.9 822 363.2C823.7 362.7 825.4 362 827 362.6C827.3 362.7 827.6 362.9 827.7 363.2C827.8 363.5 827.6 363.8 827.4 364C824.5 368 821.3 371.8 818 375.3C815.5 378 812.8 380.7 809.5 382.4C800.2 387.5 788.5 385.6 779.5 381.1C774.6 378.6 770.5 376 766.7 371.8C765.3 370.3 758.2 358.6 757.2 358.6Z" fill="#916B3D"/>
<path d="M757.2 358.6C760.4 358.5 766.2 351.8 767.3 348.7C770 340.9 771.9 332.6 771.9 324.3C771.8 317.4 773.8 311 779.8 306.8C782.7 304.8 786.2 303.6 788.9 301.3C784.6 310.2 781 319.5 780.1 329.4C779.2 339.3 780.9 349.5 786.5 357.7C789 361.3 792.2 364.4 795.5 367.4C800.7 372 806.5 376.4 813.3 377.9C814.1 378.1 808.5 383.3 807.7 383.6C805.3 384.7 802.5 384.7 800 385.1C793.1 386.1 785.7 384.1 779.5 381C774.6 378.5 770.5 375.9 766.7 371.7C765.3 370.3 758.2 358.6 757.2 358.6Z" fill="#916B3D"/>
<path d="M867.6 386C879.1 393.9 885 408.2 885.4 422.2C885.8 436.1 881.3 449.8 875.3 462.4C869.8 474.1 862.6 484.9 856.8 496.3C850.9 507.9 847.5 521.9 844 534.4C836.7 560.5 834 568.5 831.9 595.5C831.3 603.5 830.8 611.9 826.8 618.9C822.9 625.6 816.2 630.2 809.3 633.6C777.1 649.7 735.3 644.2 708.3 620.4C684 599 676.7 586.7 676.6 555.7C676.5 524 680.3 492.7 684 461.3C687.3 433.2 697.1 406.3 706.9 379.8C708.4 375.6 710 371.3 712.7 367.8C720.8 356.9 736.1 355 749.7 354.1C752.9 353.9 756.3 353.7 759.3 355C761.5 356 763.3 357.7 765.2 359.3C773.5 366.4 776.5 379 787.3 381.1C795.5 382.8 811.1 375.3 819.4 374.2C829.7 372.9 840.1 370.2 850.3 372.1C860.5 373.9 870.6 382.1 870.1 392.5" fill="#DBECFE"/>
<path d="M867.6 386C879.1 393.9 885 408.2 885.4 422.2C885.8 436.1 881.3 449.8 875.3 462.4C869.8 474.1 862.6 484.9 856.8 496.3C850.9 507.9 847.5 521.9 844 534.4C840.2 547.9 837.4 582.2 836.2 595.4C833.7 623.6 820.6 630.6 796.9 642.1C774.8 652.8 729.4 654 699.8 630.9C669.1 607 676.7 589.8 676.6 555.7C676.5 524 680.3 492.7 684 461.3C687.3 433.2 697.1 406.3 706.9 379.8C708.4 375.6 710 371.3 712.7 367.8C720.8 356.9 736.1 355 749.7 354.1C752.9 353.9 756.3 353.7 759.3 355C761.5 356 763.3 357.7 765.2 359.3C773.5 366.4 776.5 379 787.3 381.1C795.5 382.8 811.1 375.3 819.4 374.2C829.7 372.9 840.1 370.2 850.3 372.1C860.5 373.9 870.6 382.1 870.1 392.5" fill="#DBECFE"/>
<path d="M871.3 464.3C871.2 464.6 871.1 465 871.1 465.3C870.8 467.4 871.2 469.5 870.6 471.7C868.2 481 861.1 488 856.9 496.4C851 508 839.7 541 837.4 553.8C835.4 564.9 834.8 576.2 832.7 587.2C828.8 607.2 816.6 625.6 799.3 636.4C804.9 611.8 802.2 586.1 799 561.1C797.8 552.1 784.9 537.3 780.2 529.4C775.8 521.9 769.9 515.5 764.5 508.7C742.2 481 727.2 447.5 721.4 412.4C719 397.8 718.3 382.2 724.3 368.7C724.6 374.7 728.7 379.9 732.5 384.6C735.7 388.6 743.4 389.9 748.2 390.9C754.4 392.2 760.8 392.5 767.2 391.9C773.1 391.3 779.1 389.9 784.8 391.6C788 392.6 790.8 394.5 793.6 396.4C796.7 398.5 799.8 400.6 802.9 402.8C806.9 405.5 811.6 408.3 816.1 407C820.4 405.7 822.8 401.2 825.1 397.3C828.9 390.8 833.7 384.8 839.3 379.6C842.3 376.8 845.7 374.2 849.7 373.5C855.6 372.4 861.5 375.7 865.8 379.9C876.8 390.8 879.6 407.3 881 422.7C881.6 429.7 882.1 436.7 880.8 443.6C879.8 449.2 877.6 454.6 874.4 459.3C873.1 461.1 871.8 462.4 871.3 464.3Z" fill="#D4E8FD"/>
<path d="M871.6 456.4C873.5 459.4 874.1 463.3 872.6 468.2C870.9 473.4 867.2 477.7 863.8 482.1C850.2 499.9 834.4 540.4 832.3 562.7C831.7 552.9 837.7 531.9 836.8 522.2C836.7 521.3 836.6 520.5 836.2 519.7C834.7 517.4 831.2 518.7 828.8 519.8C820.9 523.3 811.7 523 803.5 520.3C795.3 517.6 788 512.6 781.4 507.1C750.8 481.7 731.8 442.8 730.6 403C730.4 395.1 730.8 387.2 729.3 379.5C747.6 405.7 766.8 434.3 792.6 453.8C804.5 462.8 819.6 469.8 834 465.9C839.8 464.3 845 461 850.7 459.1C858.3 456.3 867.8 450.7 871.6 456.4Z" fill="#BCDBFC"/>
<path d="M822.6 355.2C823.6 354.3 824.6 353.4 825.5 352.5C832 346.4 837.5 339.2 841.7 331.4C842.6 329.8 843.4 328.1 843.3 326.3C843.2 324.5 841.7 322.7 839.9 322.9C844.3 323 854.7 327.9 851.3 333.6C855.8 335.8 859.1 340.3 858.3 345.5C866 350.8 878.7 357.4 880.4 369.6C863.8 379.2 846 382.6 826.8 382.9C814.9 383.1 790.8 385.9 788.2 380.5C790.6 374.8 798.7 371.6 803.8 368.9C810.2 365.5 816.8 360.3 822.6 355.2Z" fill="#DEEEFE"/>
<path d="M822.6 355.2C823.6 354.3 824.6 353.4 825.5 352.5C832 346.4 837.5 339.2 841.7 331.4C843.9 327.3 843.7 321.5 837.3 323C840.2 322.7 843.5 322.5 845.8 324.3C847.6 325.7 848.5 328 848.5 330.2C848.6 332.4 847.9 334.7 847.1 336.7C843.7 345.5 837.4 353.2 829.5 358.4C823.2 362.6 816 365.1 809.1 368.2C802.1 371.3 795.9 375.1 790.7 380.7C789.8 375 799.7 371 803.6 368.9C810.2 365.5 816.8 360.3 822.6 355.2Z" fill="#E5F1FE"/>
<path d="M757.8 337.2C755.6 338.9 753.7 341.1 752.7 343.6C752.5 344 752.4 344.4 752.2 344.7C752 345.1 751.6 345.4 751.3 345.6C748.8 347.9 746.1 350.4 742.8 351.3C738.8 352.5 734.4 353.8 732 357.7C733.1 364.8 738 371.2 744.5 374C747.1 375.1 749.9 375.7 752.7 376.3C763.7 378.4 786.9 391.5 787.9 380.2C786.1 376.3 780.9 372.4 778.1 368.7C775 364.5 771.6 360.5 768.6 356.1C765.6 351.7 761.7 348.1 762.7 342.2C763.5 337.7 767 333.9 771.4 332.7C767.6 332.9 763.8 333.6 760.4 335.4C759.5 336 758.6 336.5 757.8 337.2Z" fill="#DBECFE"/>
<path d="M849.4 259.1C844.4 275.3 833.3 283.3 823.8 297.3C818.2 305.6 811.3 313 806.8 315.3C797.3 320.2 793.6 320.4 783.3 323.7C775.1 326.3 764.8 326.4 761.2 324.1C755.9 320.8 756.2 310.8 755.5 304.7C752.6 276.6 750.9 256.7 762.4 233.9C764.9 229 772.4 213.4 776.6 209.9C779.9 207.2 783.9 205.5 788.1 204.4C801 201.1 815.2 204.1 826.2 211.6C837.2 219.2 844.9 231 848.3 243.9" fill="#9E7744"/>
<path d="M765.9 230.4C769.8 228.7 774.3 228.1 778.5 228.3C784.1 228.5 789.5 230.1 794.8 232.1C803.5 235.4 812.2 240.6 816.2 249C818.6 253.9 819.2 259.4 820.5 264.7C822.2 270.5 825.1 275.7 827.2 281.4C819.7 284.5 809.8 287.7 804.7 279.2C801.8 274.4 802.2 267.8 798.5 263.6C796.5 261.3 793.5 260.1 790.7 258.9C780.6 254.8 770.4 250.6 760.3 246.5C759.6 246.2 758.8 245.9 758.3 245.2C757.5 244.1 760.4 238.9 761 237.4C762 234.9 763.3 231.5 765.9 230.4Z" fill="#916B3D"/>
<path d="M757 360.6C758.2 359.2 758.9 357.2 758.8 355.3C758.7 353.4 757.7 351.4 755.9 350.8C755.1 350.5 754.1 350.6 753.3 350.7C749.8 351.2 746.5 352.7 743.4 354.3C737.6 357.4 728.8 360.3 724.1 364.8C723 365.9 721.9 367 721 368.3C720.2 369.6 719.6 371.1 719.5 372.7C719.4 373.6 722.8 375.5 723.2 376.3C723.7 377.1 724.5 377.7 725.4 378C727.3 378.6 729.3 378.3 731.2 377.8C735.3 376.7 739.1 375 742.6 372.7" fill="#93C5FA"/>
<path d="M696.1 275C695.3 289.6 694.4 304.7 697.7 319.1C699.1 325.4 698.8 332 702.5 337.3C706.1 342.5 712.2 345.6 712.2 345.6C724.3 369.2 722.1 368.9 730.1 394.2C734 406.4 787.1 393.8 781.4 386.2C776.1 379.1 737.4 339.3 735.3 328.9C733.3 318.8 734.4 309.9 736.6 299.8C737.8 294.4 738.9 290.9 737.9 285.5C736 274.7 726.1 265.4 716 261.2C711.7 259.4 706.7 258 702.6 260.1C697.6 262.7 696.4 269.3 696.1 275Z" fill="#9E7744"/>
<path d="M731.6 384.8C733.6 390.5 737.8 397.7 736.6 404C737.2 401 739.5 398.5 742.5 397.8C735 382.8 729.7 366.8 724.4 350.9C723.4 347.8 722.4 344.8 721.3 341.7C719.7 336.8 718 331.9 716.9 326.8C714.4 315 710.4 301.4 710.8 289.6C711 285.6 710.7 281.2 708.3 278C705.9 274.8 700.5 273.5 697.8 276.5C696.2 278.2 695.9 280.7 695.7 283C694.8 295.3 695 307.1 697.7 319.2C699.1 325.5 701.5 331.6 705.1 336.9C708.7 342.1 712.9 341.5 715.8 347.3C722 359.3 727.1 371.9 731.6 384.8Z" fill="#916B3D"/>
<path d="M703.1 282.5C705.4 282.9 707.7 283.7 709.7 285.1C711.5 286.3 713.1 287.9 714 289.9C714.8 291.5 715.2 293.3 715.5 295.1C715.7 296.3 715.9 297.6 715.7 298.8C715.5 300 715 301.1 714.4 302.1C711.7 306.5 706.7 308.9 701.9 308.9C700.3 300.4 699.4 291.7 699.1 282.9C699.5 283.1 699.8 283.2 700.2 283.4" fill="#916B3D"/>
<path d="M659.3 61.1L554.3 132.9L522.4 282.4L609.1 382L709.8 304.1L733.5 155.3L659.3 61.1Z" fill="#3297F5"/>
<path d="M735.8 279.7C732.4 271.6 729 263.6 725.7 255.5C725.2 254.2 723 250.3 721.8 249.5C718.3 247.4 687.4 245.6 687 248.4C686.8 249.7 688.3 250.7 689.5 251.3C692.4 252.8 695.5 253.9 698.7 254.3C703.3 254.9 713.7 256.5 713.7 256.5C713.7 256.5 716.1 261.1 717.5 263.6C720.7 268.9 723.9 274.2 727.1 279.5" fill="#9E7744"/>
<path d="M717.4 263.7C718.2 265.1 727.3 279.4 726.6 279.8C727.5 279.3 728.9 279.5 729.4 278.6C729.7 278.1 729.5 277.5 729.3 277C726.9 269.3 722.5 262.5 717.8 256.1C717.4 255.6 717 255.1 716.5 254.7C715.8 254.2 715 254 714.2 253.8C708 252.3 701.5 252.4 695.1 251.7C692.1 251.4 689 250.8 686.7 248.9C687.2 251.2 689.2 251.6 691.1 252.4C693.5 253.5 696 254.2 698.5 254.5C703.1 255.1 713.5 256.7 713.5 256.7C713.5 256.7 715.9 261.2 717.4 263.7Z" fill="#916B3D"/>
<path d="M730.8 279C726.5 273.7 722.1 268.4 717.8 263.1C716.8 261.9 715.7 260.6 714.4 259.7C712.2 258.2 709.3 257.8 706.6 257.6C702.5 257.3 698.5 257.5 694.4 257.9C693 258.1 691.6 258.3 690.2 258.8C689 259.3 687.8 260.1 686.8 260.9C683.2 263.6 679.9 266.6 676.9 270C676.7 270.2 676.5 270.5 676.5 270.9C676.5 271.1 676.6 271.4 676.8 271.5C677.8 273 679.7 273.8 681.5 273.9C683.3 274 685.1 273.5 686.8 272.9C688.6 272.2 690.3 271.3 692 270.3C692.9 269.7 693.8 269.1 694.8 268.8C695.5 268.6 696.3 268.6 697 268.6C700.1 268.7 703.2 269.5 706.2 270.2C707.3 270.5 708.5 270.8 709.6 271.3C710.9 271.9 712 272.9 713.1 273.8C715.8 276.2 718.6 278.5 721.3 280.9" fill="#9E7744"/>
<path d="M681.5 273.9C683.3 274 685.1 273.5 686.8 272.9C688.6 272.2 690.3 271.3 692 270.3C692.9 269.7 693.8 269.1 694.8 268.8C695.5 268.6 696.3 268.6 697 268.6C700.1 268.7 703.2 269.5 706.2 270.2C707.3 270.5 708.5 270.8 709.6 271.3C710.8 271.9 711.5 272.7 712.4 273.5C713.6 274.6 715.1 275.3 716.5 276.1C719.7 277.9 722.9 279.7 726.1 281.5C721.7 277.5 718.5 272.3 714 268.4C712.9 267.4 711.6 266.5 710.2 265.8C709.1 265.3 708 264.9 706.8 264.7C698.9 262.8 690.1 264.7 683.7 269.7C682.7 270.5 681.6 271.4 680.4 271.7C679.1 272 677.7 271.8 676.7 271C677.2 271.4 677.6 272.4 678.3 272.9C679.2 273.5 680.4 273.8 681.5 273.9Z" fill="#916B3D"/>
<path d="M723.7 294C722.6 292.8 721.2 291.8 719.8 290.9C716.7 288.9 713.7 286.8 710.6 284.8C708.2 283.2 705.8 281.6 703.2 280.6C699.3 279 696.3 278.7 696.3 278.7C692.7 279.4 684.5 283 680.9 283.3C677.3 283.7 673.1 282.4 671.7 279C670.8 276.5 697.3 267.2 698.1 267.3C699.1 267.4 711 268.8 714.7 271.8C716.1 272.9 726 281.1 728.4 285C728.5 285.2 728.6 285.4 728.8 285.4C729 285.4 729.2 285.2 729.1 285" fill="#9E7744"/>
<path d="M772.1 174.7C774 173.1 775.7 171.4 777.8 170C781.5 167.5 786.1 166.3 790.6 166.7C797.6 167.3 803.9 173.1 809.3 177.2C816.4 182.5 822.7 188.8 830.7 192.9C837.6 196.4 845.2 198 852.4 200.6C859.6 203.3 866.8 207.4 870.3 214.3C873.3 220 873.4 226.8 876.5 232.4C880.6 239.7 885.3 246.1 885.5 254.9C885.7 262.8 882.4 270.9 876.2 275.9C870.7 280.3 863.1 282.7 859.5 288.8C858 291.3 857.4 294.1 856.4 296.8C852.6 307.7 844.7 316.9 833 318.9C830 319.4 825.8 320.7 822.9 319.8C823 308.8 823.6 295.8 824.3 293.6C825.2 290.9 826.2 277.2 823.5 275.2C821.9 274 822.3 273.9 820.7 275.1C818.5 276.7 818.7 280.8 816 281.3C814.3 281.6 809.6 279.8 809.2 278C808.8 276.3 809.3 274.5 809.7 272.8C810.6 269 811.2 265.1 811.5 261.1C811.7 257.5 811.5 253.5 808.7 251.1C806.7 249.4 804 249.2 801.4 248.9C785.2 247.4 769.8 244.8 757.1 233.7C748 225.7 741.7 214.1 741 202C740.7 196.7 741.5 191.2 744.5 186.8C746.7 183.6 750.1 181.2 753.8 180.2C758.3 178.9 763.3 179.5 767.6 177.5C769.3 176.8 770.7 175.8 772.1 174.7Z" fill="#473A22"/>
<path d="M798.2 173.9C803.1 178.4 802.5 186.5 796.5 190.1C793.1 192.2 788.8 192.1 785 193.2C781.2 194.3 777.3 197.8 778.3 201.7C779.1 204.7 782.5 206.2 785.5 207.1C794.3 209.6 803.6 210 812.4 212.4C821.2 214.9 830 220 833.4 228.5C835.3 233.3 835.4 238.8 838.2 243.1C840.4 246.5 844 248.7 847.7 250.3C850 251.3 852.4 252.2 854.9 252.2C857.4 252.2 860 251.2 861.5 249.2C863.7 246.1 863.1 241.2 866.2 239.1C868.6 237.5 871.8 238.5 874.1 240.2C878.2 243.2 880.7 248.1 881 253.2C881.4 259.5 878.5 267.3 873.1 270.9C871 272.3 868.6 273.1 866.3 274.2C864.4 275.1 862.7 276.2 861 277.4C859.6 278.4 858 279 856.5 279.9C853.1 282 849.8 284.5 847.6 288C846.3 290 845.5 292.2 844.5 294.3C841.8 299.7 837.7 304.3 832.6 307.5C831.7 308.1 822.9 311.6 822.9 311.6C823.3 311 824 287.3 824.4 281.8C824.6 279.9 825.1 276.6 823.8 275C822.5 273.5 820.2 272.7 818.9 271.1C814.9 266.4 817.2 259.3 815 253.9C812.6 248 806.3 246.6 800.3 245.6C794.6 244.7 788.9 243.7 783.2 242.8C773.7 241.3 764.5 236.1 758 229C751.5 221.9 746.7 214.5 744.9 205.1C744 200.5 744.8 193.7 747.3 189.7C753.9 179.3 766 185.8 774.8 181.1C780.1 178.3 782.4 170.9 788.3 169.9C791.9 169.1 795.5 171.4 798.2 173.9Z" fill="#3A2D1A"/>
<path d="M880.3 369.5C888.1 374.8 894.3 382.4 897.8 391C904.4 407 901.9 425.6 894.9 441.4C887.9 457.2 876.7 470.7 865.5 483.9C859.7 490.8 853.7 497.7 846.5 503.2C839.3 508.7 830.7 512.7 821.7 512.9C812 513.1 788.2 509 752.4 454.3C741.4 437.6 732.1 414.2 730.6 394.2C736.3 396.9 743 397 749.1 395.5C754.6 394.1 759.5 391.3 764.2 388.2C768.7 385.2 773.8 383.2 778.4 380.1C788.3 387 797 395.8 803.8 405.8C804.9 407.4 805.9 409 807.3 410.3C809.4 412.3 812.1 413.4 814.8 414.6C814.9 413.1 816.1 411.7 817.6 411.4C819.1 411.1 820.7 412.1 821.3 413.5C826.3 399.8 835.8 387 845 375.8C847.5 372.8 850.1 369.8 853.5 367.7C861.6 362.7 872.6 364.4 880.3 369.5Z" fill="#E0EFFE"/>
<path d="M897 390C905.6 405.4 901.7 426.2 894.9 441.5C887.9 457.3 876.7 470.8 865.5 484C859.7 490.9 853.7 497.8 846.5 503.3C839.3 508.8 830.7 512.8 821.7 513C812 513.2 788.2 509.1 752.4 454.4C741.4 437.7 732.1 414.3 730.6 394.3C736.2 396.9 743 395.9 749.1 396.4C743.7 397.7 738.2 398.6 732.7 398.9C734.5 414.8 740.7 430.1 749.2 443.7C757.7 457.3 768.3 469.5 779.5 481C786.5 488.2 793.9 495.3 802.8 500C811.7 504.7 822.4 506.9 831.9 503.8C840.1 501.2 846.7 495.1 852.7 488.9C865.2 475.9 876.4 461.5 886 446.2C888.9 441.5 891.7 436.8 893.7 431.6C898.7 418.4 897.9 404 897 390Z" fill="#DBECFE"/>
<path d="M880.3 369.5C890.6 376.5 895 385.5 899.4 396.6C895 387.8 884.7 380.6 875.5 384.2C870.1 386.3 866.6 391.5 863.8 396.5C855.1 412.3 850 430 849 448C845.9 445.2 841.3 444.2 837.3 445.6C833.4 447 830.3 450.6 829.6 454.7C824.1 446.1 810.3 444.5 803 451.7C799.5 455.1 796.9 460.3 792 460.5C788 460.7 784.7 457.1 783.7 453.2C782.7 449.3 783.4 445.3 783.8 441.3C785 429.1 783 416.6 778.1 405.4C775.2 398.6 770.9 392 764.5 388.5C765.6 387.1 777.3 379.5 778.2 380.1C788.1 387 796.8 395.8 803.6 405.8C804.7 407.4 805.7 409 807.1 410.3C809.2 412.3 811.9 413.4 814.6 414.6C814.7 413.1 815.9 411.7 817.4 411.4C818.9 411.1 820.5 412.1 821.1 413.5C826.1 399.8 835.6 387 844.8 375.8C847.3 372.8 849.9 369.8 853.3 367.7C861.6 362.7 872.6 364.4 880.3 369.5Z" fill="#E5F1FE"/>
<path d="M758.7 353.9C758.6 356.4 758.3 359 757.2 361.3C756.2 363.2 754.7 364.8 753.1 366.3C749.8 369.4 746.3 372.3 742.6 374.9C740.2 376.6 737.6 378.3 734.7 379C728.4 380.5 721.2 376.9 718.8 370.9C719.3 374.5 721.5 377.7 723.4 380.8C726.6 386.1 729.1 391.9 730.7 397.9C730.9 398.7 731.1 399.5 731.6 400.1C731.9 400.6 732.4 401 732.9 401.4C736 403.7 740.1 404 743.9 403.8C748.8 403.5 753.8 402.7 758.3 400.8C762.9 398.9 767 395.9 769.9 391.9C772.1 388.8 773.7 385.1 776.9 383.1C777.8 382.5 779 382.3 779.9 381.7C778.1 379.5 775.6 377.8 773.7 375.7C771.7 373.6 769.8 371.3 768 369C764.2 364.3 761.1 359.2 758.7 353.9Z" fill="#CCE4FC"/>
<path d="M757.3 356.6C756.7 358.4 748 368.3 744.4 371.3C740.7 374.4 736.6 377.2 731.8 377.7C727 378.2 721.6 375.7 720.4 371.1C720.2 370.2 720.2 369 721 368.7C719.6 368.5 718.4 370 718.5 371.4C718.6 372.8 719.9 376.1 721 377C726.6 382.1 735.1 380.9 741.9 377.5C748.4 374.3 758.8 360.9 759.5 358.8C760.2 356.7 760 354.3 759 352.4C758.1 350.6 755.7 349.1 754.1 350.4C757.1 351.4 758.5 353.1 757.3 356.6Z" fill="#DBECFE"/>
<path d="M815.9 283.5C819.2 271.4 824.9 272.2 829.1 272.3C830.6 272.3 832.2 272.6 833.5 273.5C836.4 275.5 836.8 279.6 836.3 283C835.8 286.4 834.6 289.7 832.5 292.4C830.4 295.1 827.2 297 823.8 297.3C820.4 297.6 816.8 296 815 293.1" fill="#9E7744"/>
<path d="M873.4 237.9C874.7 237.4 876.2 237.8 877.6 238.4C882.8 240.7 886.6 245.9 887.4 251.5C887.6 252.9 888 254.7 889.4 254.9C890.8 255 891.5 253.3 891.6 251.9C891.9 246.8 889.6 241.6 885.7 238.2C881.8 234.8 876.5 233.3 871.3 233.7" fill="#473A22"/>
<path d="M757 233.3C750.8 228.9 744.6 224.4 739.6 218.6C734.6 212.8 731.1 205.5 731.2 197.9C731.2 197.3 731.2 196.7 731.6 196.2C732.4 195 734.5 195.4 735.3 196.6C736.1 197.8 736.2 199.4 736.3 200.8C737.2 209.5 743.8 216.5 750 222.7C750.9 223.6 752.1 224.6 753.3 224.1" fill="#473A22"/>
<path d="M711.4 282C710.5 281.8 709.7 281.5 708.8 281.3C705.7 280.5 702.6 279.7 699.5 279.2C696.9 278.8 695.5 278.8 693 279.6C689.1 280.9 685 282.9 680.9 283.3C678 283.6 674.9 282.9 672.9 280.6C676.1 281.2 678.4 280.3 681.2 278.9C687.2 275.9 693.3 272.9 699.8 272C701.7 271.7 703.7 271.6 705.6 272.1C706.8 272.4 708 273 709.1 273.6C715.6 277.1 721.6 281.2 726.6 286.6C721.7 284.9 716.6 283.4 711.4 282Z" fill="#916B3D"/>
<path d="M713.1 304.5C711.1 302.2 710.2 299.1 710 296.1C709.8 293.1 710.3 290 711 287C708.4 287.6 705.7 287.8 703.1 287.7C701.8 287.6 700.5 287.4 699.3 287.1C698.3 286.9 697.1 286.1 696.1 286.8C694 288.3 692.3 290.5 689.8 291.3C686.8 292.2 686.3 290.9 683.5 289.5C683 289.2 682.4 288.8 682.6 288.3C682.7 288.1 682.9 287.9 683 287.7C686 285 689 282.3 692 279.5C692.8 278.8 693.6 278.1 694.5 277.6C695.5 277.1 712.5 278.1 713.9 278.4C715.2 278.7 722.2 282.9 727.5 286.1" fill="#9E7744"/>
<path d="M324.1 46.1L350.9 77.5L390.5 89.5L359 116.3L347.1 155.8L320.3 124.4L280.7 112.4L312.1 85.6L324.1 46.1Z" fill="#FFD840"/>
<path d="M552 746.9L565.4 762.6L585.2 768.6L569.5 782L563.5 801.8L550.1 786L530.3 780.1L546 766.7L552 746.9Z" fill="#FFD840"/>
<path d="M806.7 48.9L810.8 75.8L828.7 96.2L801.8 100.3L781.4 118.2L777.3 91.3L759.3 70.9L786.2 66.8L806.7 48.9Z" fill="#FFD840"/>
<path d="M293.5 282.8C303.828 282.8 312.2 274.428 312.2 264.1C312.2 253.772 303.828 245.4 293.5 245.4C283.172 245.4 274.8 253.772 274.8 264.1C274.8 274.428 283.172 282.8 293.5 282.8Z" fill="#00DE91"/>
<path d="M891.4 25.8C898.524 25.8 904.3 20.0245 904.3 12.9C904.3 5.77553 898.524 0 891.4 0C884.276 0 878.5 5.77553 878.5 12.9C878.5 20.0245 884.276 25.8 891.4 25.8Z" fill="#00DE91"/>
<path d="M176 134.2C183.124 134.2 188.9 128.425 188.9 121.3C188.9 114.176 183.124 108.4 176 108.4C168.875 108.4 163.1 114.176 163.1 121.3C163.1 128.425 168.875 134.2 176 134.2Z" fill="#00DE91"/>
<path d="M300 1246.9C297.1 1247 295.1 1250.3 295.6 1253.1C296.2 1255.9 298.6 1258.1 301.4 1259C304.1 1259.9 307.1 1259.9 309.9 1259.9C316.2 1259.8 322.4 1259.8 328.7 1259.7C352.2 1259.4 376.2 1259.1 398.3 1251.2C401.5 1250.1 404.9 1248.5 406.2 1245.4C407.9 1241.6 405.3 1236.9 401.7 1234.9C398 1232.9 393.6 1232.9 389.5 1233.3" fill="#005491"/>
<path d="M367.5 695.7C364.2 700.3 358.5 702.5 353 703.3C350.3 696 339.1 668 354.3 666.1C367 664.5 373.6 687.3 367.5 695.7Z" fill="#6DB2F8"/>
<path d="M248.8 387.4C235.2 389.3 211.9 389.9 201.6 398.9C186.7 412.1 179 434.5 171.6 452.4C163 472.9 155.8 493.9 150.1 515.3C148.7 520.6 147.4 526.2 149 531.4C150 534.7 152.1 537.5 154.5 540C164.4 550.8 178.4 557.2 192.8 560.3C207.1 563.5 221.9 563.7 236.6 563.9C237.9 563.9 239.3 563.9 240.1 562.9C241 561.9 240.8 560.4 240.6 559C237.3 539.1 230.7 520.9 227.1 500.9C221.4 469.2 219 436.4 225.2 404.8" fill="#00DE91"/>
<path opacity="0.2" d="M259.5 389.6C245.9 391.5 222.6 392.1 212.3 401.1C205.2 407.4 201 416.1 196.9 424.7C188.3 442.7 181.7 461.8 175.1 480.6C169.7 495.9 154.8 523.4 163.6 539.1C167.5 546.1 174.5 551 181.7 554.6C196.8 562.2 214.2 565.2 231 563.3C232.5 563.1 234.1 562.9 235.3 561.9C236.3 561.1 236.9 559.9 237.4 558.7C247.2 535.3 239 511.2 235.5 487.5C231.5 461.1 231 433.5 236.2 407.2" fill="#00DE91"/>
<path d="M386.774 308.479C387.787 296.814 380.177 286.626 369.778 285.723C359.378 284.82 350.127 293.544 349.114 305.209C348.101 316.874 355.71 327.063 366.11 327.966C376.509 328.869 385.761 320.144 386.774 308.479Z" stroke="#FFE272" stroke-width="2.5889" stroke-miterlimit="10"/>
<path d="M282.8 315.2C281.8 339 273.6 362.4 259.7 381.8C257.6 384.8 255.2 388.2 256 391.7C256.3 393.1 257.1 394.3 257.9 395.4C265.5 406.6 276.7 415.9 289.9 418.9C303.1 421.9 318.3 417.7 326.3 406.8C321.4 401.5 320.1 393.9 320.1 386.7C320.1 374.4 323.1 362.2 328.9 351.3" fill="#C5A872"/>
<path d="M267.8 413.1C264.1 413.1 253.7 390 259.7 381.7C273.6 362.4 281.8 338.9 282.8 315.1C282.9 313 283.1 313.1 284.8 311.8C286.5 310.6 288.6 310.2 290.7 309.9C293.7 309.4 296.6 308.9 299.6 308.5C303.9 307.8 309.3 307.5 311.7 311.2C313.7 314.4 312.1 318.6 310.5 322.1C296.1 352.3 291.4 384.1 267.8 413.1Z" fill="#C0A064"/>
<path d="M280.5 297.4C281.4 306.8 282.2 316.5 287.2 324.7C292.2 332.8 299.1 339.5 305.8 346C310.3 350.4 314.9 354.8 320.1 358.2C327 362.7 337 366.8 344 361.4C348.8 357.7 351.5 350.5 354 345C358.8 334.1 363 321.3 363.4 309C363.6 302.8 363.1 296.9 364.2 290.7C365.7 281.8 366.9 274.1 363.8 265.2C361.8 259.6 359.1 253.9 354.4 250.4C349.8 246.9 343.9 246.1 338.4 246.4C325 247.1 312.3 254 304.2 265" fill="#C5A872"/>
<path d="M344 361.4C348.8 357.7 351.5 350.5 354 345C358.8 334.1 363 321.3 363.4 309C363.6 302.8 363.1 296.9 364.2 290.7C365.7 281.8 366.9 274.1 363.8 265.2C361.8 259.6 359.1 253.9 354.4 250.4C344.2 242.8 328.3 244.9 317.9 249C325.4 250.4 333.2 251.9 339.3 256.9C345.7 262.2 349.2 270.6 350.6 278.9C352 287.2 351.8 295.6 352.3 304C352.7 311.2 353.7 318.3 353.5 325.5C353.1 337.6 349.1 349.3 342.1 358.6C340.4 360.9 338.3 363.1 335.6 363.7C338.7 363 341.2 363.6 344 361.4Z" fill="#CEB587"/>
<path d="M265.6 231.7C286.4 211.1 321.2 208.9 349.1 216.9C357.5 219.3 372.7 229.1 376 247.1C379.3 265.1 374.4 270.7 366.6 275.3C361.8 278.2 358.2 280 354.2 284.1C350.8 287.6 348.6 295 346.3 299.4C345.3 301.5 344.3 303.7 342.9 305.5C341.5 307.3 339.4 308.7 337.1 308.6C332.4 308.5 333.2 302.9 329.4 301.5C327 300.7 324.8 302.7 323.4 304.7C320.5 309 318.8 314.2 318.6 319.6C318.5 324.6 319.6 329.5 320 334.5C320.4 339.5 320.1 344.8 317.4 348.7C315.1 352.1 311.2 354 307.4 355.2C299.9 357.5 291.7 357.6 284 355.3C279.7 354 247.8 333.8 243.4 329.6C231.7 318.1 224.3 301.7 223.4 285.2C222.5 268.7 227.7 250.7 239.5 240.4C245.2 235.7 256.4 232.6 265.6 231.7Z" fill="#634F17"/>
<path d="M375.6 272.4C381.7 267.8 385.5 259.6 383.6 249.5C381.6 239.1 372.4 231.4 362.9 227.4C359.9 226.1 356.3 224.5 355.6 221.2C362.6 223.6 369.7 226.2 375.9 230.6C382.1 235 387.3 241.5 388.8 249.1C389.5 252.5 389.3 256 388.7 259.3C387.3 266 383.4 271.7 378.8 276.2C374 281 365.2 281.6 359 283.7C352.4 285.9 345.8 289 341.3 294.5C340.5 295.5 339 296.5 338.2 295.4C337.9 294.9 338 294.3 338.1 293.7C339.8 287 346.5 283.4 352.6 281C359.9 278.3 369.1 277.3 375.6 272.4Z" fill="#634F17"/>
<path d="M267.6 231.6C260.4 229.3 252.8 230.5 245.6 232.3C238.4 234 231.2 236.2 225 240.3C224.4 240.7 223.7 241.2 223.4 242C223.1 242.8 223.6 243.8 224.3 243.9C224.7 244 225.1 243.7 225.5 243.5C235.2 237 247.2 234.2 258.9 235.7" fill="#634F17"/>
<path opacity="0.2" d="M232.5 281.7C231.9 296.1 237.7 310.9 247.9 321.2C252.1 325.5 257 328.9 261.9 332.3C265.8 335 269.7 337.8 273.6 340.5C276.9 342.8 280.2 345.1 283.8 346.7C286.9 348 290.1 348.7 293.4 348.8C295.9 348.9 298.5 348.6 300.7 347.2C303.8 345.3 305.4 341.6 306.5 338C308.8 330.8 310.1 323.2 312.8 316.2C315.6 309.2 320.3 302.7 327.1 300.3C328.8 299.7 330.7 299.4 332.3 298.5C336.3 296.3 337.9 291.2 340.5 287.4C344 282.3 349.6 279.3 354.2 275.3C358.9 271.4 363 265.5 361.8 259.1C360.2 258 358.3 259.4 357.1 260.7C346.8 270.8 335.1 279.3 322.3 285.8C315.7 289.1 308.8 292 301.5 293C294.2 294 286.4 293.1 279.7 289.2C272.8 285.2 267.4 278.1 265.3 270.2C263.2 262.3 264.3 253.6 268.4 246.9C269.2 245.6 269.9 243.7 268.7 242.8C268.3 242.5 267.7 242.5 267.2 242.4C246.6 241.8 233.4 261.2 232.5 281.7Z" fill="#634F17"/>
<path d="M327.4 299.2L389 307.4" stroke="#FFE272" stroke-width="2.5889" stroke-miterlimit="10" stroke-linecap="round"/>
<path d="M331.8 303.5C330 301.5 328 299.4 325.4 298.8C321.5 297.9 317.7 300.8 316.4 304.6C315.1 308.4 315.9 312.8 317.4 316.7C317.8 317.9 318.4 319 319.1 320C320.8 322.4 323.8 323.8 326.6 323.4C329.4 323 331.8 321 332.6 318.2" fill="#C5A872"/>
<path d="M309.8 664.2C312.3 664.3 314.8 664.5 317.4 664.6C307.7 701.7 298.1 738.7 288.4 775.8C279.5 809.9 267.8 878.9 265.2 890C262.9 900 139.7 1111.3 127.6 1115.7C115.5 1120.1 93.6 1105 95.2 1099.4C105.5 1063.4 167.7 921.9 175.4 908.3C179.1 901.8 182.8 895.2 184.7 887.9C186.3 881.6 186.6 875.1 186.8 868.6C188.7 823.7 187.5 807.4 195.6 763.2C196.2 759.8 196.9 756.2 196.2 752.8C195.6 750 194.1 747.5 192.8 744.9C177 715.1 180 676 200 649.1C211.8 633.2 233.5 631.7 253 628.6C259 627.6 265.1 626.8 271 627.9C285.6 630.6 295.3 644.3 303.3 656.9C308.7 665.3 314.1 676.2 308.7 684.6" fill="#0058B0"/>
<path opacity="0.1" d="M95.2 1099.4C105.5 1063.4 167.7 921.9 175.4 908.3C179.1 901.8 182.8 895.2 184.7 887.9C186.3 881.6 186.6 875.1 186.8 868.6C188.7 823.7 187.5 807.4 195.6 763.2C196.2 759.8 196.9 756.2 196.2 752.8C195.6 750 194.1 747.5 192.8 744.9C180.2 721.1 179.5 691.5 189.9 666.8C200.5 641.7 229.6 629.9 256 629C211.5 685.8 207.2 765.2 212.4 834.5C213.9 853.6 216.3 873.8 208.2 891.1C199.4 910 188.2 927 176.5 944.3C143.5 993.4 117.8 1047.4 100.5 1104C102.4 1097.7 93.7 1104.6 95.2 1099.4Z" fill="#0058B0"/>
<path d="M250.4 651C229.1 681.1 227.7 724.6 247 756C250.6 761.9 254.9 767.5 258.5 773.4C275.3 801.6 304.1 854.2 304.8 877C307.4 963.6 289.6 1079.8 304.1 1165.2C304.6 1167.9 305.2 1170.8 307.4 1172.3C309.3 1173.5 311.7 1173.3 313.9 1173.1C321.1 1172.2 328.3 1171.4 335.5 1170.5C346 1122.9 351.2 1041.8 358.2 993.9C365 947.8 373.4 915 378.6 873.3C385.6 816.8 371.7 726.3 354.7 654.1" fill="#0058B0"/>
<path d="M354.7 654.1C355.8 656.1 356.6 658.2 357.2 660.4C363 683.8 366.6 708.7 370.5 732.6C377.9 778.4 384.5 826.8 378.7 873.2C373.5 914.9 365 947.7 358.3 993.8C353.2 1028.8 350.4 1064.1 346.3 1099.3C344.3 1117 342.1 1134.8 339 1152.4C337.5 1160.9 338.3 1168.1 330.7 1170.9C324.4 1173.2 318.9 1170.5 312.5 1174.6C297.2 1078.2 350.2 987.9 350.6 892.3C350.7 875.7 349.2 859 347.6 842.5C345.8 822.4 343.9 802.3 342.1 782.3C340 759.2 337.8 736 334.3 713.1C329.8 683.9 322.4 653.8 303.2 631.3C320.7 630.3 345.8 637.7 354.7 654.1Z" fill="#0F62B5"/>
<path d="M307.4 402.1C312 401.2 317.2 400 319.7 396.1C330.5 403.4 338.8 417.7 351.2 421.5C356.2 423.1 361.4 427.6 365.3 431.3C371.6 437.2 375.5 435.4 375.1 444C373.1 488.7 353.4 535.3 345.1 579.2C341.4 598.7 361.7 630.6 369.4 653.8C375.3 671.5 369.4 691.8 369.4 691.8C372.4 683.5 350 672.1 341.3 673.8C326.8 676.6 308.2 709.2 293.8 721C281.8 730.8 266 735.2 250.4 735.2C209.7 735.3 176.9 683.6 176.7 679.5C176.5 675.5 201 629.4 212.9 607.7C218.1 598.3 205.4 550.1 198.2 515.6C190.4 478 185.3 432.6 207.1 401C212.9 392.6 225.2 388.9 255.5 385C255.5 385 248.2 397.7 275.4 404.2C286.8 406.9 296.2 404.2 307.4 402.1Z" fill="#00DE91"/>
<path opacity="0.68" d="M339.6 437.9C343.6 450.1 340.3 480.4 348.1 490.6C357.8 503.3 361.1 515.8 357.1 531.2C353 547.2 344.2 566 345.3 592.6C345.3 592.6 324.2 555.4 320.6 540.5C311.5 501.8 323.5 454.5 339.6 437.9Z" fill="#24E2A1"/>
<path d="M254.6 440.6C254.6 440.7 254.5 440.8 254.5 440.9C247.6 456.6 243.3 473.5 242 490.6C241.2 501.4 241.5 512.2 241.9 523C242.4 536.6 242.9 550.3 245.3 563.8C247.9 578.2 252.7 592.2 254.3 606.8C256.2 623.6 249.6 636.6 240.9 651.1C226 675.9 219.1 690.4 219.3 726.6C213.6 720.4 198.9 710.4 190.6 700.5C186.6 695.7 177 686.3 176.6 679.5C176.4 675.5 200.9 629.4 212.8 607.7C218 598.3 205.3 550.1 198.1 515.6C190.3 478 185.2 432.6 207 401C212.8 392.6 225.1 388.9 255.4 385C255.4 385 248.1 397.7 275.3 404.2C273 403.6 256.7 435.9 254.6 440.6Z" fill="#33E4A7"/>
<path d="M257.9 397.7C260.6 401 263.7 404 267.5 405.7C270.6 407.1 274 407.6 277.4 407.8C283.4 408.2 289.5 407.9 295.5 406.9C307.1 404.9 318.5 400.2 330.1 401.9C330.1 397.9 327.6 394.5 325.1 391.3C324.5 390.5 323.8 389.6 322.9 389C321.1 387.8 318.7 388.1 316.5 388.3C306.7 389.5 296.7 389.7 287 387.9C277.3 386.1 267.9 382.1 260.5 375.5C259.4 374.5 250.1 382.8 250.1 385C250.3 389.1 255.5 394.8 257.9 397.7Z" fill="#0DDF97"/>
<path d="M299 1224.8C296.1 1231.6 293.3 1240.9 296.1 1247.7C300 1257 311.7 1256.1 321.8 1255.4C339.7 1254.2 357.6 1252.9 375.5 1251.6C382.8 1251.1 390.2 1250.5 397 1247.9C402.3 1245.9 407.8 1241.5 406.9 1235.9C405.8 1229.3 397.3 1227.5 390.6 1226.9C374.5 1225.5 358.6 1221.6 343.6 1215.6C341.1 1214.6 338.4 1213.4 336.9 1211.1C335.6 1209.1 335.5 1206.5 335.4 1204.1C335.1 1190.4 335.7 1176.6 337.2 1163C332.8 1161.8 326.2 1161.7 319.2 1161.8C310.9 1161.9 304 1165.3 304 1165.3C304.8 1181.9 305.7 1209.5 299 1224.8Z" fill="#04427F"/>
<path d="M124.6 1104C125.5 1104.8 126.4 1105.6 127.2 1106.4C128.3 1107.6 131.8 1111 132.2 1112.6C133.1 1115.6 131.5 1118.7 130.1 1121.5C127.1 1128.4 118 1143.5 117.5 1151.9C117 1160.9 117.9 1170.3 120.8 1178.9C127.2 1197.9 137.8 1216.6 146 1235C147.1 1237.5 148.2 1240.1 148 1242.8C147.4 1248.8 140 1252 134.2 1250.5C128.4 1249 124 1244.4 119.9 1240C103.1 1221.8 87 1203 70.8 1184.3C68.1 1181.2 65.4 1178.1 64 1174.2C60.5 1164.7 64.2 1152 76 1140C80.4 1135.5 87.8 1116.1 92.4 1101.9C92.9 1100.2 93.5 1098.4 94.9 1097.3C96.3 1096.1 98.3 1095.8 100.2 1095.7C108.8 1095.3 117.8 1098.3 124.6 1104Z" fill="#04427F"/>
<path d="M68.9 1186.5C85.5 1206.7 103 1226.2 121.1 1245C124.5 1248.6 128.4 1252.3 133.3 1253C136.5 1253.4 140.4 1251.7 140.6 1248.5C140.7 1246.7 139.6 1245 138.6 1243.5C131.6 1233.7 124.7 1224 117.7 1214.2C109.6 1202.8 101.5 1191.5 93.4 1180.1C89.8 1175 85.9 1169.7 80.4 1166.7C75.8 1164.3 67.1 1163.3 63.7 1168.4C59.9 1174.1 65.4 1182.3 68.9 1186.5Z" fill="#005491"/>
<path d="M436.4 445.2L329.4 524.7L452.7 575.5L559.6 496L436.4 445.2Z" fill="#84C1F9"/>
<path d="M436.4 445.2L329.4 524.7L452.7 575.5L436.4 445.2Z" fill="#72B7F8"/>
<path d="M343.3 635.6L450.2 556.1L573.4 606.9L343.3 635.6Z" fill="#5BACF7"/>
<path d="M346.4 660.6L469.6 711.4L452.7 575.5L329.4 524.7L346.4 660.6Z" fill="#3297F5"/>
<path d="M576.6 631.8L469.6 711.4L452.7 575.5L559.6 496L576.6 631.8Z" fill="#59ABF7"/>
<path d="M422.6 457.2C420 453.2 416.8 448.7 412.1 448.3C409.2 448 406.4 449.4 403.7 450.8C400.6 452.4 379.2 463.5 381.3 467.5C382.7 470 395.2 466.6 399 469.3C401.5 471.1 403.1 473.9 404.6 476.7C405 476.6 409.2 485.2 409.7 486C411.3 488.9 412.8 491.7 414.8 494.2C415.9 495.5 417.1 496.7 418.5 497.6C420 498.4 421.7 498.8 423.3 498.4C423.6 498.3 423.9 498.2 424.1 497.9C424.3 497.5 421.2 488.6 419.8 484.6C420.8 486.2 421.7 487.9 422.7 489.5C425.4 493.6 428.8 491.6 429.1 491.4C429.7 490.9 429.5 489.9 429.3 489.1C427.2 482.3 425.1 475.4 421.5 469.3C423.4 471.1 424.5 473.5 425.9 475.7C427.3 477.9 429.2 480 431.8 480.4C432.5 480.5 435.2 479.3 435.1 478.5C435.1 478.3 429.5 468.3 426.6 463.7C425.3 461.5 424 459.3 422.6 457.2Z" fill="#C5A872"/>
<path d="M418.4 460.4C417.9 459.8 417.4 459.2 416.8 458.7C415.9 457.9 414.7 457.3 413.5 457.4C415.1 457.7 416.1 459.3 416.9 460.8C419 464.8 421.3 468.7 423.7 472.5C425.6 475.5 427.8 479.7 431.7 480.3C432.5 480.4 435 479.5 434.8 478.5C434.6 477.8 433.2 478.1 432.6 478C431.8 477.8 431.1 477.4 430.4 476.9C429.2 476 428.4 474.8 427.5 473.5C424.7 469.5 421.9 465.6 419.1 461.6C418.9 461.1 418.7 460.8 418.4 460.4Z" fill="#C0A064"/>
<path d="M413.5 464.7C413.4 464.6 413.3 464.5 413.2 464.4C411.6 462.8 409.2 462.4 406.9 462.3C408.5 462.7 410.3 463.2 411.4 464.4C412.1 465.1 412.4 466 412.8 466.9C415 472.2 417.2 477.5 419.5 482.8C419.6 483.1 419.8 483.4 419.9 483.7C420.8 486 421.7 488.4 423.5 490.3C424.6 491.5 428.7 493.3 429.5 490.8C428.5 491.1 427.5 490.8 426.7 490.1C425.9 489.4 425.5 488.5 425 487.5C421.7 480.7 418.4 473.9 415.1 467.2C414.6 466.4 414.2 465.5 413.5 464.7Z" fill="#C0A064"/>
<path d="M405.8 469.1C404.6 467.4 403.3 465.8 401.9 464.3C401.4 463.8 400.8 463.2 400.1 463C399.6 462.9 399 462.9 398.5 463C393.6 463.7 388.8 464.4 383.9 465.2C383 465.3 382.1 465.5 381.5 466.2C379.8 468.2 383.1 468.4 384.2 468.5C385.9 468.6 387.6 468.5 389.3 468.4C392.2 468.3 396.5 467.6 399 469.4C401.5 471.2 403.1 474 404.6 476.8C405 476.7 409.2 485.3 409.7 486.1C411.3 489 412.8 491.8 414.8 494.3C415.9 495.6 417.1 496.8 418.5 497.7C419.2 498.1 424.9 499.7 424 497.7C423.3 498.2 422.4 498.1 421.6 497.7C420.9 497.3 420.3 496.6 419.8 495.9C416.7 491.7 414 487.1 412 482.3C411.3 480.6 410.7 478.8 410 477.1C409 474.1 407.6 471.5 405.8 469.1Z" fill="#C0A064"/>
<path d="M452.7 535.5C462.3 538.5 507.2 552.6 513.9 554.1C519.1 555.2 526.8 556.6 531.7 554.6C531.7 554.6 531.2 545.2 533.9 540.1C535.7 536.5 544.9 524.3 546.1 522C547.5 519.4 548.9 516.9 550.3 514.3C550.5 513.9 550.7 513.6 551.1 513.4C552 513 552.9 514.2 553.1 515.2C553.9 519.3 551.9 523.3 551.1 527.3C550.2 531.7 550.7 536.3 552.4 540.4C555.1 537.5 557.7 534.5 560 531.3C561.7 529 563.3 526.3 562.9 523.5C565.6 523.7 568.7 524.1 570.2 526.4C570.8 527.3 571 528.4 571.1 529.5C571.5 532.6 571.2 535.7 570.3 538.7C571.9 538.2 573.6 539.4 574.2 541C574.8 542.6 574.7 544.3 574.6 545.9C574.5 547.6 574.5 549.3 575.4 550.7C575.7 551.3 576.2 551.7 576.4 552.3C576.8 553.3 576.6 554.4 576.2 555.4C575.5 557.7 574.4 559.9 573 561.9C572.6 562.5 572.1 563.1 571.9 563.8C571.7 564.5 571.8 565.2 571.8 566C571.7 568.9 569.7 571.4 567.8 573.6C560.6 581.6 547.4 575.6 536.8 577.5C530.3 578.6 511.5 582.6 509 583.1C505 583.8 470 592.8 434.5 583.4" fill="#C5A872"/>
<path d="M509.1 583.1C503.9 584 498.7 585.2 493.4 585.9C483 587.4 472.4 587.9 461.9 587.4C455.6 587.1 449.2 586.4 443 585.2C438.2 584.3 434.8 582.6 431.1 579.5C429.6 578.2 428.9 577 428.3 575C428.1 574.4 427.1 567.3 427.7 567.4C461.2 570.8 495.1 574.2 528.5 569.6C533.6 568.9 538.6 568 543.7 568.3C548.9 568.5 554.1 569.9 559.1 568.5C564.1 567.1 567.9 563.2 571.3 559.4C572.8 557.7 574.2 554.9 572.4 553.5C570.8 555.3 568.9 556.9 566.9 558.2C571.3 554.5 572.5 547.5 569.4 542.6C567.2 544.9 564.8 546.9 562.1 548.6C568.6 542.3 568.9 530.7 562.8 524.1C565.3 523.6 568.8 524.2 570.2 526.4C570.8 527.3 571 528.4 571.1 529.5C571.5 532.6 571.2 535.7 570.3 538.7C571.9 538.2 573.6 539.4 574.2 541C574.8 542.6 574.7 544.3 574.6 545.9C574.5 547.6 574.5 549.3 575.4 550.7C575.7 551.3 576.2 551.7 576.4 552.3C576.8 553.3 576.6 554.4 576.2 555.4C575.5 557.7 574.4 559.9 573 561.9C572.6 562.5 572.1 563.1 571.9 563.8C571.7 564.5 571.8 565.2 571.8 566C571.7 568.9 569.7 571.4 567.8 573.6C560.6 581.6 547.4 575.6 536.8 577.5C530.4 578.6 511.7 582.7 509.1 583.1Z" fill="#C0A064"/>
<path d="M327.5 479.9C335.2 503.4 344.5 526.8 359.9 546.1C364.2 551.5 368.6 563 374.1 567.2C395.4 584 424 587.1 451 589.6C453.5 589.8 456.1 590 458.4 589C460 588.2 461.6 580.4 462.8 579.1C468.6 572.2 473 564 475.5 555.4C476.1 553.5 476.5 551.5 476 549.6C475.4 547.6 473.7 546.1 472.1 544.7C467.7 541 462.9 538.1 458.1 535C454.3 532.5 449.7 530 445.5 531.5C444.3 531.9 443.2 532.7 442 532.5C441 532.4 440.1 531.6 439.3 530.9C422.5 514.9 414.9 494.1 404.5 474.2C395 455.9 381.5 439.8 363.9 428.8C360 426.3 355.7 424.1 351.1 423.7C343.9 423.1 336.8 427.2 332.2 432.8C320.5 447.3 322 463.1 327.5 479.9Z" fill="#00DE91"/>
<path opacity="0.2" d="M327.5 479.9C329.7 487.5 332.7 495 335.7 502.5C341.9 518 349.5 533 360 546.1C364.3 551.5 368.4 562.2 373.8 566.5C395.1 583.3 423.3 587.5 450.3 589.9C452.8 590.1 456.6 583.6 458.8 582.5C461 581.4 462.4 579.5 463.9 577.6C464.7 576.6 468 570.9 469.2 570.8C440.7 572.7 411.7 565.7 387.2 551C382.7 548.3 378.4 545.4 374.4 542C368.2 536.7 362.9 530.3 358 523.7C342.6 502.7 330.9 479 323.7 454C323.5 463.1 325.1 471.6 327.5 479.9Z" fill="#00DE91"/>
<path d="M360 427.5C372.5 434.3 383 444.7 390 457.1C392.5 461.6 394.6 466.4 396.7 471.2C401 481 405.3 490.9 409.5 500.7C412.4 507.4 415.3 514.1 419.5 520.1C423.6 526.1 429.1 531.4 435.9 534.1C444.4 537.5 454.5 536.8 461.9 542.2C456.5 538.2 455.4 527.9 445.7 531.5C444.5 531.9 443.4 532.7 442.2 532.5C441.2 532.4 440.3 531.6 439.5 530.9C422.7 514.9 415.1 494.1 404.7 474.2C399.6 464.4 393.4 455.2 385.9 447C378.9 439.5 370 430.2 360 427.5Z" fill="#42E6AE"/>
<path d="M441.1 531.6C440.9 531.4 440.7 531.2 440.4 531C441.4 529.4 448.9 528.2 455.8 530.9C459.6 532.4 463.6 533.9 467.1 536.1C474 540.4 479.1 546.6 481.1 554.5C485 569.7 480 582.5 469.4 592.1C468.6 592.8 463.3 592.8 462.3 593.1C461.4 593.4 460.4 593.3 459.4 593.2C452.9 592.4 446.3 591.7 439.8 590.9C441.4 589.8 441.9 587.8 442.4 585.9C445.9 571.2 447.7 555.9 445.3 541C444.7 537.3 443.7 534 441.1 531.6Z" fill="#36E5A8"/>
<path d="M958.3 454.6C951.8 454.2 939.2 454.6 936.1 448.9C934.2 445.4 933.1 434.5 933.2 430.6C933.6 400.5 936.8 381.7 948.4 359.6C952.2 352.3 956.5 345.2 962.4 339.5C968.3 333.8 990.9 335.1 999.2 335C1007.4 334.9 1015.2 338.7 1022 343.2C1027.9 347.1 1033.5 351.8 1037 358C1040.1 363.4 1041.4 369.6 1042.4 375.8C1045.5 395.2 1045.2 415.1 1041.7 434.4C1040.2 442.6 1038 450.9 1033.5 458C1029 465.1 1021.8 470.8 1013.5 471.8C1008.4 483.3 1006.9 496.5 1009.3 508.9C1003.2 504.8 995.9 502.4 988.5 502.2C973.7 501.7 958.7 501.8 948.1 489.8C948.1 489.5 955.6 466.4 958.3 454.6Z" fill="#D8C08B"/>
<path d="M658.3 543.6C658.4 544.7 664.8 548.3 665.9 549.1C668.6 551 671.3 553 674 554.9C677.9 557.7 686.7 561.7 686.6 567.2C686.5 572.8 680.4 572.1 676.7 570.6C671.7 568.6 667.5 564.6 664.4 560.3C660.9 555.4 658.6 549.6 658.3 543.6Z" fill="#907032"/>
<path d="M835.6 716.7C824 720.6 815.4 730.6 808.7 740.9C805.9 745.2 801.6 746.9 803.2 751.8C806.4 761.6 814.3 763.5 826.2 766.4C832.6 768 1000.3 737.7 1005.4 734C1019.7 723.5 1043 726.2 1042.7 715.7C1042.5 707.4 1039.9 703.4 1034 697.6C1027.8 691.6 1018.7 689.9 1010.1 688.9C976.4 684.9 940.7 687 911.2 703.6" fill="#FFB200"/>
<path d="M1064.1 1119.7C1070.1 1145 1079.7 1180.3 1069.1 1204.5C1065.1 1213.8 1059.2 1222.3 1051.4 1228.8C1049 1230.8 1046.4 1232.7 1044.9 1235.4C1043.4 1238.2 1043.6 1242.1 1046.2 1243.9C1048 1245.1 1050.5 1244.9 1052.7 1244.4C1062.7 1242.2 1071.4 1236.2 1079.1 1229.5C1084.2 1225.1 1089 1220.4 1093.5 1215.3C1097.7 1210.6 1102.9 1211.8 1104.2 1205.7C1105.7 1198.7 1102.2 1185.2 1100.6 1178.2C1099.1 1171.4 1098.7 1164.5 1097.6 1157.7C1096.4 1150.2 1098.6 1102.2 1097.2 1094.7" fill="#D8C08B"/>
<path d="M918.3 783C916.2 849.9 942.3 914.6 974.7 973.2C1007.1 1031.8 1034.6 1088.4 1062.5 1149.2C1074.6 1153 1097.8 1143.4 1107.4 1141.8C1107.1 1133.9 1106.7 1125.9 1106.2 1118C1103.7 1080.4 1098.6 1042.7 1087.6 1006.6C1081.9 987.9 1054.5 942.2 1052.2 935.9C1049.1 927.4 1026 828.3 1027 823.6C1027.6 820.8 1028.7 818.1 1029.7 815.5C1042 782.8 1043.6 744.2 1025.6 714.3C1022 708.3 1017.5 702.6 1011.5 698.8C1003.5 693.8 992.6 693.9 983.5 692.4C972.7 690.7 962 687.4 951.4 692C941.1 696.5 934.8 706.7 931.1 716.8C926.7 728.6 921.9 740.8 920.8 753.5C919.5 768.2 916.5 782.5 917.8 797.5" fill="#186ACB"/>
<g opacity="0.15">
<path d="M918.3 783C916.2 849.9 942.3 914.6 974.6 973.1C994 1008.2 1012.3 1043.8 1029.8 1079.8C1038.7 1098.1 1047.4 1116.5 1055.9 1135C1060.5 1145 1061 1149.9 1072.5 1149.9C1082.3 1149.9 1091.8 1147.8 1100.3 1142.9C1095.6 1097.1 1090.7 1050.6 1073.1 1008C1061.6 980.2 1044.9 954.9 1033.5 927.1C1020.1 894.7 1014.2 859.2 1016.2 824.2C1014.4 826.4 1012.5 828.6 1010.7 830.8C1027.1 812.4 1029.5 785.7 1029.7 761C1029.8 747.1 1029.3 732.8 1023.7 720.1C1013.8 697.8 974.1 681.9 951.3 691.9C941 696.4 934.7 706.6 931 716.7C926.6 728.5 921.8 740.7 920.7 753.4C919.4 768.1 916.4 782.4 917.7 797.4" fill="#186ACB"/>
</g>
<path d="M1105.9 1221.5C1108.5 1219.1 1111.3 1216.7 1112.7 1213.5C1113.6 1211.4 1114.9 1207.9 1114.7 1205.6C1114.4 1200.1 1114 1189.7 1101.1 1186.3C1103.7 1194.2 1095.6 1204.5 1090.1 1213.2C1082.9 1224.5 1074.4 1235.7 1062.3 1241.4C1059.5 1242.7 1056.3 1243.7 1053.5 1242.7C1048.4 1240.9 1050 1236.8 1052.5 1233.9C1039.8 1241 1033.7 1245.1 1024.8 1250.2C1016.6 1254.9 1021.3 1266.1 1027.4 1267.9C1033 1269.6 1052.2 1266.2 1055.9 1265.6C1060 1264.9 1064.3 1264.1 1067.6 1261.6C1069.9 1259.8 1099.9 1226.9 1105.9 1221.5Z" fill="#0058B0"/>
<path d="M873.6 1239.7C865 1242 832.6 1243.5 825 1242.7C819.6 1242.1 815.3 1240.8 812.3 1236.3C811.9 1235.7 811.5 1235 810.8 1234.9C810.4 1234.8 810.1 1235 809.7 1235.1C802.1 1237.7 776.8 1244.6 775.3 1248.3C774.1 1251.3 775.1 1254.7 777 1257.3C781.7 1263.7 790.7 1264.8 798.6 1265.2C823.4 1266.4 848.2 1265.8 872.9 1263.9C878.2 1263.5 883.5 1263 888.8 1263.8C890.8 1264.1 892.8 1264.5 894.7 1263.8C896.6 1263.1 897.8 1261.3 898.8 1259.5C901.6 1254.6 903.6 1249.1 904.1 1243.5C904.5 1239.6 902.1 1226.3 898.2 1223.7C894.6 1221.3 891.4 1225.8 888.6 1227.7C883.7 1231 879.5 1238.1 873.6 1239.7Z" fill="#0058B0"/>
<path d="M1105.9 1215.6C1108.5 1213.2 1111.3 1210.8 1112.7 1207.6C1113.6 1205.5 1114.9 1202 1114.7 1199.7C1114.4 1194.2 1114 1183.8 1101.1 1180.4C1103.7 1188.3 1095.6 1198.6 1090.1 1207.3C1082.9 1218.6 1074.4 1229.8 1062.3 1235.5C1059.5 1236.8 1056.3 1237.8 1053.5 1236.8C1048.4 1235 1050 1230.9 1052.5 1228C1039.8 1235.1 1033.7 1239.2 1024.8 1244.3C1016.6 1249 1021.3 1260.2 1027.4 1262C1033 1263.7 1052.2 1260.3 1055.9 1259.7C1060 1259 1064.3 1258.2 1067.6 1255.7C1069.9 1253.8 1099.9 1221 1105.9 1215.6Z" fill="#0058B0"/>
<path d="M873.6 1107C874.1 1131.6 870.6 1156.3 863.3 1179.9C858.3 1196.1 857.2 1210.8 842.6 1219.5C829.3 1227.4 802.6 1233.1 788.1 1238.5C805.5 1262.2 861.2 1241.9 894.8 1233.2C893.9 1221.6 895.2 1209.9 896.3 1198.3C898.6 1174.5 900.1 1150.5 900.7 1126.6" fill="#D8C08B"/>
<path d="M873.6 1233.8C865 1236.1 832.6 1237.6 825 1236.8C819.6 1236.2 815.3 1234.9 812.3 1230.4C811.9 1229.8 811.5 1229.1 810.8 1229C810.4 1228.9 810.1 1229.1 809.7 1229.2C802.1 1231.8 776.8 1238.7 775.3 1242.4C774.1 1245.4 775.1 1248.8 777 1251.4C781.7 1257.8 790.7 1258.9 798.6 1259.3C823.4 1260.5 848.2 1259.9 872.9 1258C878.2 1257.6 883.5 1257.1 888.8 1257.9C890.8 1258.2 892.8 1258.6 894.7 1257.9C896.6 1257.2 897.8 1255.4 898.8 1253.6C901.6 1248.7 903.6 1243.2 904.1 1237.6C904.5 1233.7 902.1 1220.4 898.2 1217.8C894.6 1215.4 891.4 1219.9 888.6 1221.8C883.7 1225.1 879.5 1232.2 873.6 1233.8Z" fill="#0058B0"/>
<path d="M861.5 1160.4C862.3 1126.7 858.9 1054.4 857.4 1036.6C852.7 982.2 828.7 917.9 823 863.6C817.3 809.3 818.6 775.5 830.3 722.2C831.1 718.6 850 719 852.2 716C854.4 713.1 857.6 711.2 860.8 709.4C874.7 701.5 889.2 694.5 903.9 688.3C910.3 685.6 917.6 683.1 924.1 685.6C928 687.1 931.1 690.2 934 693.2C940.9 700.3 947.9 707.5 954.8 714.6C957.2 717.1 970.4 710.2 972 713.3C974.4 717.7 986 727.3 986 742.5C986 810.4 957.9 838.9 957.9 838.9C952.3 856.1 946.5 873.6 942.3 892.3C937.4 913.9 928.4 958.2 928.4 958.2C928.7 981.4 932 1004.4 932.5 1027.5C933.5 1071.5 917.6 1115.2 904.9 1157.3C903.3 1163.2 860.9 1166.3 861.5 1160.4Z" fill="#186ACB"/>
<g opacity="0.85">
<path d="M861.5 1160.4C862.3 1126.7 858.9 1054.4 857.4 1036.6C852.7 982.2 828.7 917.9 823 863.6C817.3 809.3 818.6 775.5 830.3 722.2C831.1 718.6 850 719 852.2 716C854.4 713.1 857.6 711.2 860.8 709.4C874.7 701.5 889.2 694.5 903.9 688.3C910.3 685.6 917.6 683.1 924.1 685.6C928 687.1 931.1 690.2 934 693.2C940.9 700.3 861.1 776.7 861.1 776.7C855.5 793.9 855.9 836.7 858.7 870C860.6 892.1 883.8 995.9 884.3 1019.1C885.3 1063.1 885.6 1101.7 873 1143.8C871.2 1149.5 860.9 1166.3 861.5 1160.4Z" fill="#337CD1"/>
</g>
<path d="M954.9 454.7C963.1 452.5 970.1 447.2 975.4 440.6C980.7 434 984.2 426.2 986.9 418.2C988.2 414.4 989.3 410.4 989.1 406.3C988.9 402.3 987.3 398.1 984 395.7C981.3 393.7 977.6 393.2 974.4 394.4C971.2 395.5 965.4 401.7 964.5 405C965.8 389.7 963.2 382.8 961.3 376.1C960.3 372.8 958.2 366.6 945 365.4C945 365.4 946 362.8 946.6 355.2C950.8 353.3 950.1 355.2 954.7 355.2C959.1 355.2 963.7 355.1 967.8 356.8C971.2 358.2 974.1 360.6 976.8 363.1C980.5 366.6 984 370.3 986.7 374.6C993.5 385.4 994.7 398.8 994.8 411.6C994.9 419 994.6 426.6 992.7 433.8C990.6 441.6 986.6 448.8 982.7 455.9C979 462.6 975.2 469.3 970.5 475.4C967.3 479.6 956.6 489.6 951.9 481.6C950 478.3 952.2 473.5 952.9 470.1C954 465.1 954.7 459.9 954.9 454.7Z" fill="#D8C08B"/>
<path d="M990.4 474.4C977.8 469.7 934.4 475.3 922.6 481.7C905.2 491.1 906.7 503.2 896.3 519.4C883.9 538.8 872.9 559 861.9 579.2C849.4 602.2 837 625.2 827.9 649.8C819.3 673.3 803.2 700 801.2 725C800.5 734 800.3 743.3 803.2 751.8C803.2 751.8 810.4 731.4 843.9 761.4C861 776.8 918.6 785.2 939.8 772.2C954.6 763.1 966.1 749.6 979.4 738.5C992.7 727.4 1026.6 705.9 1041.4 720C1047 711.6 1048 700.7 1046 690.7C1044.1 680.8 1039.5 671.5 1034.8 662.5C1033.2 659.4 1031.5 656.3 1030.6 652.9C1029.6 649.3 1024.1 643 1024.2 639.2C1024.5 605.7 1031.2 573.2 1027.8 539.9C1024.7 510.1 1020 485.5 990.4 474.4Z" fill="#FFD840"/>
<g opacity="0.2">
<path d="M990.2 474.8C985.6 471.6 980.8 469 975.4 467.8C956 463.3 936.4 478.6 928.8 497.1C921.3 515.6 943.3 516.2 944.4 536.1C947.3 588.1 926.4 662.3 905.2 709.9C894.9 733 879.9 753.7 865.1 774.2C878.3 776.3 891 778.2 904.3 778.5C911.3 778.7 918.4 778.5 925.2 777.2C929.4 776.4 936 772.1 939.8 772.1C954.6 763 966.1 749.5 979.4 738.4C992.7 727.3 1026.6 705.8 1041.4 719.9C1047 711.5 1048 700.6 1046 690.6C1044.1 680.7 1039.5 671.4 1034.8 662.4C1033.2 659.3 1031.5 656.2 1030.6 652.8C1029.6 649.2 1024.1 642.9 1024.2 639.1C1024.6 605 1031.1 571.5 1028.4 537.4C1027.6 526.9 1026.1 516.2 1021.3 506.8C1016.1 496.7 1007.5 488.8 998.8 481.6C996.1 479.2 993.2 476.9 990.2 474.8Z" fill="#FFD840"/>
</g>
<path d="M703.1 588.9C694.8 588.5 686.8 588.3 678.6 586.7C676.3 586.3 672.3 581.5 671.9 581C671.9 581 669.5 579.7 669 579.4C665.3 576.7 665.5 572.4 665.3 571.8C665.3 571.8 662.4 570 661 568.8C656.9 565.2 654.3 556.2 652.6 551.1C649.9 542.8 648.1 534.2 647.5 525.5C647.5 525 647.4 524.4 647.7 524C648.4 522.9 650 523.4 651 524.1C654.3 526.6 655.8 530.7 657.1 534.5C659.6 541.7 662.1 548.9 664.6 556C664.9 556.8 665.2 557.7 665.8 558.4C666.3 559 667.1 559.4 667.8 559.8C675 563.7 681.1 565.8 689.4 565.8C698.7 557 666.5 539 673.8 534.1C682.9 534.4 687.8 544.8 695.4 549.9C701.2 553.8 710.3 553.4 716.7 556.1C726.8 560.4 734.4 569.3 744.1 574.5C754.6 580.3 766.1 584.1 777.7 587.2C796.3 592.1 815.3 595.1 833.4 601.5C838.5 603.3 843.8 605.6 846.5 610.3C848.4 613.6 848.6 617.6 848.5 621.4C848.4 630.1 847.2 638.7 844.9 647.1C827.4 645.8 810.1 640.9 794.5 632.8C776.1 623.2 760.2 609.4 743.5 597.2C737.8 593 731.2 588.4 724 587C717.1 585.7 710.3 589.3 703.1 588.9Z" fill="#D8C08B"/>
<path d="M703.1 588.9C694.8 588.5 686.8 588.3 678.6 586.7C676.3 586.3 672.3 581.5 671.9 581C671.9 581 669.5 579.7 669 579.4C665.3 576.7 665.5 572.4 665.3 571.8C665.3 571.8 662.4 570 661 568.8C656.9 565.2 654.3 556.2 652.6 551.1C649.9 542.9 647.7 534.1 648 525.4C651.3 535.8 654.5 546.3 657.8 556.7C659.2 561.1 660.8 565.8 664.5 568.5C665.9 569.5 667.5 570.2 668.6 571.6C669.4 572.6 669.8 573.8 670.4 574.8C671.2 576 672.5 576.9 673.7 577.7C679 581.1 685.2 583.2 691.4 583.7C706.9 584.9 723.1 576.7 737.5 582.4C745.8 585.7 751.6 592.9 757.9 599.1C780.8 621.8 815.1 634.1 846.4 626.2C848 625.8 845.5 641.1 845 642.4C843.7 645.6 843.4 646.6 840.2 646.9C837.3 647.1 833.7 646 830.8 645.5C818.1 643.2 805.8 638.9 794.4 633C776 623.4 760.1 609.6 743.4 597.4C737.7 593.2 731.1 588.6 723.9 587.2C717.1 585.7 710.3 589.3 703.1 588.9Z" fill="#CCB079"/>
<path d="M893.9 515.3C887.7 529.2 884.5 544.2 879.6 558.6C874.4 574 865.8 584.9 856.7 598.2C854.6 601.3 852.3 604.5 848.9 606.2C838.3 611.3 824.4 598 814.7 604.8C811.8 606.8 801.7 629.4 798.2 637.4C797.7 638.6 797.1 640 797.4 641.3C797.7 642.6 798.8 643.6 799.8 644.5C806.6 650.3 852.4 682.7 867.9 678.1C903 667.7 932.4 591.7 939.8 572.7C948.1 551.4 952.9 483.6 935.1 478.6C916.7 473.5 896 510.2 893.9 515.3Z" fill="#FFD840"/>
<path d="M924.7 606.5C917.1 624 904.7 639.3 889.2 650.3C884.8 653.4 880 656.3 874.7 657.2C868.8 658.3 862.6 656.9 857.1 654.4C851.6 651.9 846.7 648.4 841.7 645C830 636.9 817.4 628.9 803.3 627.5C801 630.4 798.6 633.4 797.9 637C796.4 644.5 804.8 648.6 810 652.2C816.3 656.6 822.8 660.8 829.4 664.7C839 670.3 855.8 681.7 867.7 678.2C881.8 674 892.4 661.4 900.7 649.9C905.8 642.8 910.3 635.4 914.6 627.8C916.7 624 918.4 620 920.7 616.3C922.7 613 923.2 610 924.7 606.5Z" fill="#F9C932"/>
<path d="M893.9 515.3C887.7 529.2 884.5 544.2 879.6 558.6C874.4 574 865.8 584.9 856.7 598.2C854.6 601.3 852.3 604.5 848.9 606.2C841.7 609.7 833.6 605 826.5 603.5C817.3 601.5 812.7 606.3 810.1 615.1C811.2 611 816 609 820.2 609.2C824.4 609.5 828.3 611.4 832.2 612.9C837.1 614.8 842.3 615.9 847.5 616.3C850.4 616.5 853.3 616.5 856 615.7C859.6 614.6 862.6 612.3 865.3 609.7C871.6 603.4 875.9 595.4 879.7 587.4C890 565.6 897.2 542.5 905.9 520C910 509.5 914.5 499 921.4 490.1C924.2 486.6 927.6 483.2 931.9 482.2C936.2 481.2 941.6 483.6 942.4 488C938.4 480.8 934.8 476.2 926.3 479C920.5 481 915.6 485.4 911.4 489.8C904.4 497.2 898 506.1 893.9 515.3Z" fill="#FFE274"/>
<path d="M964.7 306.7C956.5 304.4 947.9 303.5 939.4 304.5C933.9 305.2 928.2 306.8 924.1 310.7C921.6 313.1 919.9 316.1 918.5 319.3C915 327.6 913.9 337.1 917 345.6C920.1 354 928 360.9 936.9 361.5C946.3 362.1 955.1 356.2 960.3 367C963.3 373.2 966.7 381 967 387.9C967.4 396.5 964.8 403.1 964.5 405.1C964.4 406.1 965.7 406.8 966.7 407.1C969 407.6 970.4 404.7 972.6 403.8C974.7 402.9 977.2 404.3 978.3 406.3C979.5 408.3 979.6 410.6 979.7 412.9C980.3 425.1 977.9 438.8 970.9 449.3C966.2 457.8 959.9 465.6 957.9 475.1C956.8 480.6 957.2 486.4 958.1 492C959.3 499.1 961.3 506.1 964.7 512.4C968.5 519.5 974 525.6 978.6 532.2C984.2 540.2 987.1 547.5 989.1 556.8C991.2 566.5 992.3 576.4 995.9 585.7C1002 601.6 1015.2 614.6 1031.2 620.4C1047.2 626.2 1065.7 624.7 1080.6 616.4C1099.5 605.9 1111.2 586.1 1120.2 566.4C1131 542.9 1139.5 517.8 1140.8 491.9C1142.1 466 1135.8 439.1 1119.7 418.8C1112.2 409.3 1102.7 401.5 1092.5 395C1084.6 390 1076.1 385.6 1069.1 379.3C1055.6 367 1046.6 334.9 1035.5 324.6C1023.5 313.4 1004.5 315.7 995.6 317.6C993.8 318 992 318.5 990.2 318.2C988.3 317.9 986.5 316.8 984.9 315.8C978.8 311.8 971.9 308.7 964.7 306.7Z" fill="#0058B0"/>
<g opacity="0.2">
<path d="M945.3 331.2C944.7 330.5 944.1 329.8 943.6 329C940.8 324.9 938.7 319 933.8 318.5C932.2 318.3 930.5 318.8 929.2 319.7C923.5 323.2 922.6 331.3 924.4 337.8C926.1 343.9 930 349.8 935.9 352.2C940.1 353.9 944.7 353.6 949.1 354.6C964.8 358.4 970.8 375.3 974.9 389C979.2 403.3 983.8 417.9 983.9 433C984.1 448.5 973.8 461.1 968.6 475.5C966.6 481.1 964.8 486.8 964.9 492.7C964.9 507.2 975.3 519.5 985.9 529.5C988 531.5 990.1 533.5 991.5 536C992.5 537.9 993.1 539.9 993.6 542C996.3 552.8 998.2 563.7 1001.8 574.2C1005.4 584.7 1010.9 594.8 1019.3 601.9C1027.8 609 1039.6 612.7 1050.3 609.6C1058.7 607.1 1065.4 600.6 1070.1 593.2C1076.5 583 1079.4 570.7 1078.3 558.8C1081.9 560 1085.7 557.7 1088.5 555.2C1100.2 544.8 1106.6 529.5 1109.5 514.1C1111.3 504.2 1111.8 493.8 1109.3 484C1105.7 470.2 1096.1 464.6 1087.3 454.8C1084 428.2 1064.3 404.3 1038.7 395.9C1033.4 394.2 1027.8 393 1022.9 390.3C1007.9 381.8 1001.7 363.3 995.5 348.5C993.8 344.3 991.8 339.9 988.1 337.4C979.7 331.7 968.4 338.4 958.3 337.6C953.2 337.1 948.5 334.8 945.3 331.2Z" fill="#0058B0"/>
</g>
<path d="M970.7 406.2C970.9 405 971.6 404.3 972.7 403.5C974.1 402.5 977 401.8 978.7 402.1C981.1 402.5 983.2 404.8 983.8 407.3C984.8 411.7 984 415.4 982.7 419.8C981.9 422.4 979.9 425.3 978.1 427.3C976.3 429.3 973.8 431.6 971.1 431.1C970.9 431.1 970.7 431 970.5 430.9C970.1 430.6 970.1 430 969.9 429.5" fill="#D8C08B"/>
<path d="M947.6 481.4C942.1 499.5 944.2 519 950.5 536.9C951 538.4 953.3 537.9 953 536.3C952.3 531.2 951 526.2 950.1 521.2C946.2 498.5 951.5 474.2 964.7 455.3C968.1 450.4 975.8 443.1 978.9 438C980.6 435.2 982.6 424.4 979.7 429.6C978.8 431.2 956 453.8 947.6 481.4Z" fill="#0058B0"/>
<path d="M838.8 606.8C834.2 604.5 828.4 605.9 824.5 609.1C820.5 612.3 818.1 617.1 816.3 621.9C813.9 628.5 812.5 635.5 812.2 642.5C812 648.5 813.3 655.7 818.8 658.1C814 660.4 808.5 656.9 804.3 653.6C801.5 651.4 798.6 649.2 795.8 646.9C792.8 644.5 789.6 642 787.9 638.5C784.8 632.2 787.4 624.7 789.9 618.1C792.9 610.6 796.2 602.6 803 598.2C809 594.3 816.9 594.1 823.7 596.2C830.6 598.3 836.6 602.4 842.2 606.9C838.5 606.2 834.8 605.4 831.1 604.7" fill="#FFE272"/>
</svg>
