<svg width="278" height="238" viewBox="0 0 278 238" fill="none" xmlns="http://www.w3.org/2000/svg">
<path d="M129.13 12.1505C121.604 16.6628 114.623 22.0274 108.325 28.1381C86.3241 49.4638 70.2389 76.8257 45.707 95.1809C25.7248 110.132 6.31496 119.998 1.36928 146.449C-10.1439 208.02 53.2087 243.579 106.5 224.81C132.749 215.565 154.562 194.76 181.973 189.943C196.328 187.42 211.107 189.54 225.612 188.105C248.271 185.864 274.65 167.157 277.541 143.161C280.746 116.552 256.656 95.8079 241.704 73.5647C225.662 49.7011 217.033 18.0559 191.309 5.20446C171.572 -4.65523 148.637 0.520254 129.13 12.1505Z" fill="url(#paint0_linear)"/>
<path d="M223.533 49.3232L59.2094 59.4069C44.2216 59.8762 27.4233 67.1413 27.5472 79.5327L27.5146 158.899C27.6346 174.509 40.1852 184.356 57.2262 186.738L177.691 198.359L223.927 238L234.308 176.259L240.971 136.636L250.428 80.3961C252.947 65.4172 238.52 48.8537 223.533 49.3232Z" fill="#00AF60"/>
<path d="M221.911 49.0663L53.269 54.3491C38.2812 54.8186 26.2316 65.2445 26.3554 77.6361L27.1476 156.938C27.2714 169.329 38.0783 180.407 51.2858 181.681L171.75 193.303L217.987 232.944L228.368 171.203L235.03 131.579L244.487 75.3392C247.007 60.3595 236.899 48.5968 221.911 49.0663Z" fill="#00E881"/>
<path d="M86.7591 181.114L71.9805 230.253C71.9805 230.253 110.405 230.253 134.051 210.302C157.696 190.351 86.7591 181.114 86.7591 181.114Z" fill="#99C9FA"/>
<path d="M112.73 98.6079C116.881 97.3695 119.39 93.519 123.15 91.6108C126.855 89.731 128.883 87.1629 128.523 82.5553C128.375 80.8515 127.831 79.2058 126.934 77.7495C126.037 76.2932 124.813 75.0666 123.358 74.1673C121.146 72.826 118.541 72.325 116.129 71.389C119.677 70.352 123.12 68.9866 126.415 67.3104C126.943 67.0418 127.487 66.7481 127.826 66.263C128.166 65.778 128.227 65.0444 127.803 64.6309C127.34 64.1786 126.584 64.3079 125.956 64.4659L107.395 69.1713C102.853 70.3226 99.0033 74.2675 97.2488 78.5037C96.456 80.4177 96.0774 82.4746 95.4455 84.4481C93.4705 90.6151 89.1326 95.6963 84.8987 100.596C84.3327 101.251 91.1123 108.232 92.2682 108.619C96.3195 109.974 100.307 104.785 102.123 101.81C102.414 101.333 102.695 100.833 103.124 100.475C103.589 100.127 104.126 99.8899 104.696 99.7802C107.328 99.133 110.134 99.3829 112.73 98.6079Z" fill="#B99653"/>
<path d="M112.746 98.7069C116.421 98.0114 120.598 92.9059 123.149 91.6109C126.854 89.7311 128.882 87.1629 128.522 82.5554C128.374 80.8516 127.83 79.206 126.933 77.7497C126.036 76.2934 124.812 75.0667 123.357 74.1674C121.656 73.0326 119.473 72.5357 117.558 71.8809C117.199 71.7272 116.809 71.6567 116.418 71.6746C116.047 71.7484 115.697 71.9034 115.393 72.1284C112.403 74.0318 109.535 76.1199 106.805 78.3808C104.76 80.0745 102.652 82.1402 102.465 84.7886C102.342 86.5213 103.081 88.1926 103.899 89.725C105.349 92.4414 107.097 94.9879 109.111 97.3177C109.431 97.7288 109.82 98.0806 110.262 98.3569C111.021 98.768 111.903 98.8922 112.746 98.7069Z" fill="#A07735"/>
<path d="M132.076 63.2314L109.684 79.7669C108.75 80.4574 107.769 81.2054 107.348 82.2885C106.616 84.1726 107.826 86.206 108.983 87.8642L114.058 95.137C115.384 97.0375 116.99 99.112 119.293 99.3691C120.83 99.5414 122.316 98.8408 123.691 98.1324C131.223 94.2494 138.312 89.561 144.833 84.1494C145.335 83.7324 145.467 82.5644 144.855 82.7925" fill="white"/>
<path d="M131.144 121.87C131.612 126.908 129.406 131.908 126.193 135.821C117.966 145.844 106.906 150.328 94.3041 151.702C83.9502 152.831 74.6666 153.09 65.3292 148.476C63.0275 147.338 61.4722 146.494 60.1567 144.288C57.6997 140.169 57.8339 136.107 58.9252 131.726C60.1175 126.942 62.5129 121.116 65.083 116.948C70.6557 107.909 77.3653 100.528 86.7582 95.2726C87.4875 94.8647 85.1836 95.2748 86.0193 95.2726C87.1989 95.2696 90.7681 96.7466 91.6837 97.4895C93.8262 99.2263 92.1448 100.846 93.6541 103.154C94.3336 104.193 100.575 100.63 100.046 101.757C98.5802 104.878 100.498 104.761 100.087 106.221C98.5694 111.61 95.2391 116.937 92.204 121.584C101.536 116.701 106.944 113.946 117.3 113.992C120.267 114.004 126.589 112.823 128.63 114.977C129.957 116.377 130.948 119.879 131.136 121.799C131.139 121.823 131.141 121.847 131.144 121.87Z" fill="#86BFF9"/>
<path d="M131.578 121.839C131.931 126.703 128.74 132.718 126.193 135.821C117.966 145.844 106.906 150.328 94.3041 151.702C83.9502 152.831 74.6666 153.09 65.3292 148.475C63.0275 147.338 61.4722 146.494 60.1567 144.288C57.6997 140.169 57.8339 136.106 58.9252 131.726C60.1175 126.942 62.5129 121.116 65.083 116.948C69.9886 108.991 76.3666 101.245 84.6124 96.6113C85.2614 96.2466 85.9478 95.8915 86.6906 95.8525C88.7347 95.7448 90.064 97.9055 90.9232 99.7631C85.6353 108.123 80.3474 116.484 75.0597 124.844C73.6612 127.055 72.2563 129.278 71.226 131.683C69.8825 134.822 69.3369 138.812 71.5956 141.372C73.5074 143.539 76.8772 143.889 79.6183 142.972C82.3594 142.056 84.6185 140.115 86.7862 138.203C96.2488 129.857 105.751 121.012 117.542 116.522C119.722 115.692 122.015 115.013 124.345 115.114C126.674 115.215 129.065 116.208 130.372 118.139C131.094 119.244 131.51 120.521 131.578 121.839Z" fill="#7CBAF9"/>
<path d="M76.2613 100.586C79.8848 101.991 83.2412 105.208 86.3812 107.413C90.2407 110.123 94.1003 112.833 97.96 115.543C99.4123 113.839 107.117 106.907 105.678 104.694C105.194 103.95 104.316 103.584 103.501 103.231C97.7994 100.755 92.7628 96.9669 88.8018 92.1757C87.7613 90.9143 86.7462 89.2849 87.2942 87.7441C82.4337 90.9299 78.4345 95.2659 75.6514 100.368C75.8553 100.434 76.0586 100.507 76.2613 100.586Z" fill="#98C9FA"/>
<path d="M167.028 119.311C168.198 118.22 169.172 116.936 169.909 115.515C170.204 114.942 170.364 114.094 170.143 113.471C169.834 112.599 168.856 112.381 167.909 112.112C159.015 109.584 149.672 109.049 140.546 110.546C138.1 110.955 135.577 111.515 133.121 110.928C132.397 110.755 131.694 110.484 130.96 110.366C130.226 110.247 129.685 109.896 128.54 110.31C128.011 110.502 128.178 111.557 128.045 112.072C127.896 112.636 127.865 113.225 127.954 113.801C128.044 114.377 128.252 114.929 128.566 115.42C128.907 115.937 129.36 116.37 129.892 116.688C130.424 117.005 131.02 117.199 131.637 117.254" fill="#4E97EE"/>
<path d="M136.87 89.8452C135.97 101.421 130.771 112.241 122.295 120.177C121.734 120.698 124.855 122.281 124.584 122.997C124.347 123.625 124.388 124.321 124.46 124.988C124.857 128.473 125.99 131.834 127.782 134.85C129.575 137.865 131.987 140.465 134.86 142.479C142.862 141.511 151.077 140.479 158.185 136.676C161.063 135.137 163.906 132.865 164.55 129.666C164.793 128.46 166.359 123.903 166.264 122.675C165.197 108.821 165.723 105.859 172.529 80.0576" fill="#B99653"/>
<g style="mix-blend-mode:multiply" opacity="0.29">
<path d="M136.868 89.8458C135.968 101.422 130.769 112.242 122.294 120.178C121.732 120.699 124.853 122.282 124.583 122.998C124.346 123.626 117.543 129.993 118.213 129.958C141.384 128.761 160.949 111.683 174.045 88.703L159.945 76.0195L136.868 89.8458Z" fill="#B18A40"/>
</g>
<path d="M197.634 145.151C195.345 139.996 190.602 136.349 185.676 133.6C180.749 130.852 168.859 121.039 164.251 117.785C164.251 117.785 150.325 124.833 144.804 124.333C141.837 124.064 139.271 123.254 136.625 122.237C136.625 122.237 127.911 134.23 127.162 133.817C127.162 133.817 131.139 125.381 132.422 120.55C132.692 119.537 130.184 118.638 129.521 117.796C128.951 117.071 129.22 113.755 130.125 113.573C122.288 115.152 121.756 115.153 114.837 119.413C107.313 124.045 102.189 135.76 98.8272 143.551C93.0786 156.875 89.4368 171.603 85.251 184.958L171.75 193.303L179.159 199.656C184.928 191.233 191.201 182.943 195.042 173.412C198.312 165.298 201.352 153.529 197.634 145.151Z" fill="#99C9FA"/>
<path d="M142.242 160.088C137.135 159.074 132.198 156.432 128.989 151.535C123.694 163.868 119.343 176.584 115.974 189.575L124.4 194.889C126.467 196.193 128.559 197.508 130.861 198.118C133.355 198.779 136.002 198.59 138.615 198.352C139.011 198.351 139.399 198.234 139.73 198.015C140.028 197.747 140.273 197.426 140.453 197.068C143.921 191.15 147.285 185.142 150.544 179.044C153.667 173.202 156.747 168.515 158.305 161.583C156.747 161.35 144.54 160.545 142.242 160.088Z" fill="#A0CDFA"/>
<path d="M170.794 125.252L170.811 125.276C172.569 127.746 185.482 137.825 188.443 142.635C189.202 143.909 189.804 145.269 190.237 146.687C192.123 152.57 192.048 158.968 190.706 164.999C189.364 171.029 184.45 181.254 181.437 186.648C183.817 185.867 186.166 187.274 188.545 186.493C189.065 186.322 189.796 186.464 190.196 186.09C190.505 185.8 192.892 178.376 193.087 178C195.896 172.597 197.059 167.307 198.231 161.431C199.297 156.091 199.796 150.331 197.527 145.218C194.888 139.274 189.096 135.886 184.115 132.187C177.938 127.599 171.779 123.446 166.272 117.99C168.089 119.789 169.278 123.109 170.794 125.252Z" fill="#BDDDFC"/>
<path d="M170.142 113.473C170.142 113.473 171.697 116.561 171.262 121.108C171.262 121.108 164.438 123.542 161.383 124.306C153.599 126.254 150.998 131.256 143.446 133.827C143.446 133.827 141.162 128.098 139.076 124.171L136.068 122.473C136.068 122.473 136.593 119.997 140.977 119.49C145.36 118.983 154.621 122.32 170.142 113.473Z" fill="#CCE4FC"/>
<path d="M132.444 120.532C132.444 120.532 133.505 118.68 131.998 116.662C130.492 114.643 128.816 111.544 129.306 110.089C128.167 110.247 127.097 110.726 126.22 111.47C125.344 112.215 124.697 113.193 124.357 114.291C124.357 114.291 125.257 117.393 124.819 118.383C124.38 119.374 120.529 123.147 120.529 123.147C120.529 123.147 126.861 124.616 132.444 120.532Z" fill="#CCE4FC"/>
<path d="M145.2 130.71C145.776 130.71 146.243 130.243 146.243 129.667C146.243 129.091 145.776 128.624 145.2 128.624C144.624 128.624 144.157 129.091 144.157 129.667C144.157 130.243 144.624 130.71 145.2 130.71Z" fill="#77AFF2"/>
<path d="M124.648 122.562C125.224 122.562 125.691 122.095 125.691 121.519C125.691 120.943 125.224 120.477 124.648 120.477C124.072 120.477 123.605 120.943 123.605 121.519C123.605 122.095 124.072 122.562 124.648 122.562Z" fill="#77AFF2"/>
<path d="M136.369 106.624C131.156 106.65 127.863 105.082 124.265 101.309C123.2 100.191 122.388 98.793 122.152 97.267C121.959 96.0222 122.152 94.7534 122.346 93.5083C123.1 88.651 123.853 83.7935 124.607 78.9357C125.296 74.4908 126.03 69.921 128.335 66.0582C129.221 64.5738 130.324 63.2224 131.132 61.6941C133.972 56.3194 132.769 49.6571 134.802 43.9279C137.187 37.2054 144.063 32.602 151.172 32.0241C158.718 31.4107 164.488 34.6827 169.915 39.3312C175.238 43.8902 181.604 45.8704 184.9 52.6646C187.512 58.0473 187.172 64.5032 185.175 70.1428C183.178 75.7824 173.311 79.3282 169.654 84.0643C164.651 90.5423 162.315 95.35 153.57 102.68C151.61 104.323 149.415 107.733 146.82 107.842C141.714 108.057 140.698 106.602 136.369 106.624Z" fill="#B99653"/>
<path d="M143.001 95.421C146.64 90.508 149.328 84.9578 150.927 79.0565C151.899 75.4582 152.377 71.3353 150.297 68.2427C148.195 65.1198 144.206 64.0429 140.748 62.5546C138.329 61.5127 136.048 60.1755 133.958 58.5734C133.533 58.2478 133.096 57.8825 132.928 57.374C132.838 57.0288 132.815 56.6698 132.86 56.3161L133.26 49.9209C141.307 52.5472 150.158 51.6273 158.259 54.0815C164.802 56.0846 170.509 60.176 174.506 65.7299C175.295 66.8326 176.028 68.031 176.226 69.3721C176.381 70.4169 176.2 71.4815 175.961 72.5104C175.374 75.0415 174.439 77.4791 173.183 79.7537C173.048 80.0345 172.861 80.2865 172.63 80.4957C172.305 80.7569 171.875 80.8375 171.467 80.9288C167.594 81.7974 165.023 90.3898 162.397 95.1164C160.47 98.5866 155.814 101.699 151.758 104.478C150.079 105.628 148.486 105.105 146.703 106.085C145.457 106.77 147.801 102.275 146.393 102.47C144.589 102.718 139.904 103.207 139.11 100.885C138.498 99.0983 141.993 96.7794 143.001 95.421Z" fill="#B18A40"/>
<path d="M186.326 83.3156C188.866 81.7291 191.222 79.8888 193.211 77.578C195.421 75.0114 197.126 71.9901 197.918 68.683C199.511 62.0227 196.699 54.1236 190.5 51.2127C191.69 48.1219 190.403 44.6561 188.85 41.7308C187.591 39.3617 186.129 37.0675 184.199 35.2049C180.518 31.6512 175.45 29.948 170.469 28.7755C165.488 27.603 160.353 26.8331 155.702 24.7013C151.365 22.7136 147.475 19.5568 142.789 18.6649C138.119 17.7765 133.077 19.4114 129.713 22.7696C127.622 24.8926 126.175 27.5657 125.543 30.4781C124.998 32.9306 124.589 36.1022 124.664 38.6118C124.748 41.4216 125.722 44.2787 127.726 46.2503C128.277 46.7922 128.923 47.2989 129.175 48.0295C129.342 48.513 129.314 49.0383 129.362 49.5477C129.582 51.8473 131.344 53.6932 133.203 55.0656C137.809 58.4666 147.872 60.6497 153.453 61.9243C160.124 63.448 161.745 69.9134 159.008 78.2459C158.174 80.7856 160.482 80.0819 161.71 79.7903C162.8 79.5319 163.23 78.3508 164.093 77.6353C164.986 76.8961 166.41 77.1791 167.255 77.9717C170.66 81.1633 169.815 84.1829 168.846 87.8478C167.393 93.5048 166.627 99.3163 166.563 105.157C181.774 94.7592 183.031 85.3733 186.326 83.3156Z" fill="#4F300E"/>
<path d="M126.162 41.8402C125.277 41.1073 124.541 40.2111 123.995 39.2005C122.511 36.4931 122.175 33.0094 123.089 29.825C124.067 26.4173 126.325 23.5548 128.52 20.8137C127.843 20.0093 126.56 20.888 125.845 21.7751C123.424 24.782 121.58 28.4053 120.965 32.2362C120.349 36.067 121.041 40.0991 123.184 42.9675C125.221 45.6941 128.332 47.1718 131.379 48.4565C132.325 48.8554 133.27 49.1888 134.332 49.094C134.326 45.5619 132.511 45.2709 129.819 44.0073C128.464 43.3687 127.229 42.7291 126.162 41.8402Z" fill="#4F300E"/>
<path d="M159.815 87.9942C159.831 87.943 156.036 99.2495 153.567 102.68C151.268 105.875 150.762 107.276 145.771 108.979C142.045 110.25 125.434 111.176 119.359 101.539C117.646 98.8216 117.469 95.7876 118.15 92.6481C118.832 89.5085 122.521 86.218 123.925 83.3281C126.929 82.6839 129.819 83.242 134.453 85.4325C136.333 86.321 139.351 88.8785 140.987 90.1605C143.122 91.8339 145.546 93.7448 147.607 93.4755C151.169 93.0105 153.372 91.4295 155.371 87.3278C157.34 83.2865 159.844 75.9442 161.095 71.627C162.779 72.1615 166.754 76.2276 165.994 77.0613C164.01 79.2373 163.263 79.4421 159.815 87.9942Z" fill="#4F300E"/>
<path d="M195.175 67.1695C194.952 69.3638 194.266 71.486 193.164 73.3963C192.061 75.3067 190.567 76.9619 188.778 78.2531C187.322 79.2908 185.654 80.1017 184.527 81.4904C183.807 82.3761 183.356 83.4426 182.882 84.4807C179.867 91.0947 173.423 93.2758 166.686 101.514C166.812 93.9857 168.811 91.8735 168.861 87.8315C168.889 85.6043 168.724 83.3476 168.158 81.187C167.917 80.2684 169.072 76.6772 168.003 76.7601C167.466 76.8017 166.498 76.4967 165.101 77.6796C162.65 79.7569 161.048 83.0026 159.717 85.927C158.243 89.1632 156.299 94.5786 154.946 97.8672C154.124 99.8646 152.273 105.652 145.053 108.076C141.978 109.108 135.994 108.712 132.775 108.31C128.822 107.816 123.442 105.386 121.109 102.157C119.115 99.3972 117.849 96.4851 118.987 93.085C119.531 91.4619 121.353 95.565 127.287 97.7026C133.789 100.045 140.44 106.114 147.578 100.752C148.707 99.9035 152.753 95.0526 153.553 93.889C155.993 90.3437 157.766 86.3915 159.526 82.4644C160.538 80.2029 161.556 77.9288 162.158 75.5258C163.726 69.2651 162.46 63.0416 156.252 60.0093C152.021 57.9417 146.991 58.3584 142.538 56.8254C138.967 55.5825 135.932 53.1483 133.944 49.9319C133.604 49.3779 133.298 48.8031 132.926 48.2694C132.4 47.5128 131.752 46.8498 131.165 46.1384C129.692 44.3277 128.62 42.225 128.02 39.9693C127.42 37.7135 127.305 35.3561 127.683 33.0526C128.82 27.0329 133.403 21.2608 139.626 20.3177C140.493 20.1863 141.414 20.061 142.22 20.4038C143.026 20.7467 143.62 21.7486 143.208 22.5225C142.955 22.9963 142.426 23.2397 141.952 23.4917C138.819 25.1585 136.802 28.6271 136.644 32.1713C136.486 35.7155 138.094 39.2443 140.696 41.6569C145.603 46.2069 152.963 46.5268 159.202 48.9469C164.663 51.0654 169.343 54.8739 173.213 59.2712C175.116 61.4334 177.123 63.9147 179.972 64.3366C180.923 64.4666 181.892 64.3513 182.786 64.0018C183.68 63.6522 184.47 63.08 185.08 62.3394C186.777 60.2333 185.748 58.4827 185.959 56.2284C186.11 54.613 187.193 53.1754 188.915 53.6682C193.701 55.0391 195.565 63.0734 195.175 67.1695Z" fill="#422509"/>
<path d="M163.274 81.5247C164.895 79.0694 165.56 76.7145 167.587 75.7828C170.897 74.2618 174.883 76.8403 174.763 81.2389C174.641 85.7116 170.842 89.8634 169.435 91.0058C168.028 92.1481 165.482 92.6504 163.68 92.4524C161.551 92.2185 161.083 90.751 160.928 88.8223" fill="#B18A40"/>
<path d="M127.163 133.816C127.163 133.816 115.207 147.121 107.817 167.811C100.428 188.501 91.1904 228.403 91.1904 228.403L95.6242 227.664C95.6242 227.664 102.275 190.348 110.772 169.658C119.27 148.968 128.508 138.254 130.724 136.037C132.94 133.82 139.077 124.17 139.077 124.17L140.977 119.488C140.977 119.488 138.01 120.142 127.163 133.816Z" fill="#A2CEFA"/>
<path d="M176.907 145.373C172.839 148.695 169.577 153.326 166.725 157.822C164.81 160.84 146.834 188.263 145.177 187.31C132.949 178.45 126.201 162.919 111.02 159.683C103.507 158.082 98.6064 167.238 98.2114 167.811C96.8668 169.763 95.5765 173.329 96.8567 175.324C101.669 182.821 128.743 217.726 134.888 219.913C137.448 220.823 140.11 221.646 142.824 221.523C145.056 221.421 147.204 220.684 149.312 219.945C161.064 215.827 172.116 208.059 180.356 198.723C189.057 188.866 195.766 178.875 199.075 166.456C200.603 160.723 199.854 153.683 197.944 148.065C197.067 145.488 195.443 143.059 193.042 141.776C190.686 140.519 187.832 140.495 185.233 141.106C182.106 141.842 179.36 143.369 176.907 145.373Z" fill="#B0D6FB"/>
<path d="M186.456 141.555C190.068 143.31 192.261 147.247 192.793 151.228C193.325 155.209 192.418 159.244 191.178 163.064C186.728 176.772 177.97 188.802 167.482 198.686C162.126 203.735 155.899 208.455 148.6 209.404C141.627 210.309 134.57 207.575 128.92 203.389C123.27 199.203 118.805 193.651 114.44 188.138C108.719 180.913 102.892 173.313 100.912 164.312C98.814 166.974 94.3878 171.477 96.8584 175.325C101.672 182.824 128.745 217.727 134.889 219.914C137.449 220.825 140.111 221.647 142.825 221.524C145.057 221.422 147.205 220.685 149.314 219.946C161.065 215.828 172.117 208.06 180.357 198.724C189.058 188.867 195.768 178.876 199.077 166.457C200.604 160.724 199.856 153.684 197.945 148.066C197.068 145.489 195.444 143.06 193.043 141.777C191.034 140.706 188.574 140.793 186.456 141.555Z" fill="#A6D0FB"/>
<path d="M94.4418 164.636L95.2014 164.685C92.6389 161.636 89.4617 159.163 85.8776 157.425C83.6465 156.346 81.2849 155.566 78.9313 154.789L68.9583 151.498C67.0781 150.878 65.1927 150.256 63.2528 149.859C61.3648 149.473 59.3892 149.287 57.6892 148.38C56.378 147.679 55.3201 146.592 54.3309 145.482C52.0189 142.849 49.9574 140.005 48.1733 136.989C46.6999 134.545 44.6536 131.94 44.1511 129.12C43.5929 125.986 43.2515 122.817 43.1292 119.636C43.09 118.616 43.0951 117.519 43.6762 116.679C44.2573 115.84 45.639 115.499 46.2913 116.284C46.3344 115.214 47.6721 114.561 48.6915 114.89C49.7108 115.219 50.3845 116.199 50.764 117.201C51.1435 118.202 51.3085 119.278 51.7347 120.26C51.8424 120.51 52.1332 121.496 52.1172 121.768C52.1127 121.844 52.5293 121.222 53.0946 121.178C54.9038 121.035 55.8865 123.355 56.8378 124.901C60.162 130.261 65.2757 134.271 71.2732 136.221C77.4161 138.195 84.368 137.967 89.7977 141.453C91.3719 142.507 92.8071 143.756 94.0692 145.169C97.1609 148.503 99.6843 152.322 101.539 156.473C101.673 156.775 101.491 157.334 101.249 157.109" fill="#B99653"/>
<path d="M69.6586 136.273C71.1568 136.512 72.6897 136.407 74.1416 135.968C74.8595 135.749 75.6062 135.403 75.9575 134.74C76.4401 133.831 76.0018 132.717 75.4899 131.825C74.5389 130.167 73.3383 128.667 71.9301 127.375C70.8787 126.411 69.7021 125.553 68.888 124.381C68.0499 123.167 67.6557 121.702 67.7719 120.231C67.8832 118.879 68.6317 117.405 69.9623 117.142C70.8849 116.959 71.8315 117.422 72.5123 118.072C73.1931 118.721 73.6753 119.544 74.2353 120.299C78.3274 125.804 86.3452 127.393 90.1197 133.12C92.7587 137.124 92.7257 142.243 93.738 146.931L92.9857 146.654" fill="#B99653"/>
<path d="M50.5896 116.5C51.0368 117.363 51.3612 118.285 51.5534 119.238C52.8534 125.203 54.7195 131.029 57.1265 136.639C55.5361 136.095 53.9935 135.419 52.5145 134.62C51.6209 129.091 50.5545 123.592 49.4484 118.101C49.0301 116.025 48.4658 114.946 48.4658 114.946C48.4779 114.738 49.9129 115.241 50.5896 116.5Z" fill="#A07735"/>
<path d="M55.4445 122.684C56.2825 124.063 57.2077 125.386 58.2142 126.646C63.5816 132.964 68.5764 136.562 72.6347 137.332C71.0452 136.787 71.4982 138.661 70.0201 137.862C65.2603 138.04 59.6277 132.352 55.5072 124.207C54.9209 123.059 54.1063 122.043 53.1133 121.221C53.1256 121.013 54.7678 121.424 55.4445 122.684Z" fill="#A07735"/>
<path d="M47.4725 117.44C47.9196 118.304 48.244 119.226 48.4363 120.179C49.735 126.139 49.9025 131.714 52.3081 137.32C50.7177 136.775 49.1751 136.1 47.696 135.301C46.8024 129.772 47.4376 124.532 46.3314 119.042C45.9131 116.966 45.3486 115.887 45.3486 115.887C45.3609 115.678 46.796 116.181 47.4725 117.44Z" fill="#A07735"/>
<path d="M52.3255 138.962C55.8032 140.455 58.8008 142.184 62.6364 142.755C67.0516 143.413 74.5734 143.561 77.2501 139.137C78.1176 137.704 78.0978 135.64 76.851 134.52C76.799 134.465 76.7326 134.426 76.6595 134.407C76.4495 134.371 76.3233 134.622 76.2359 134.816C75.8338 135.708 74.8596 136.182 73.9337 136.499C67.3788 138.738 61.0809 135.745 55.1984 133.005C48.6667 129.963 43.0114 124.864 35.9772 123.302C34.7336 123.025 33.3996 122.873 32.2133 123.337C31.6787 123.546 31.1597 123.92 30.999 124.471C30.7171 125.437 31.6199 126.31 32.4338 126.902C37.2593 130.411 42.4118 133.441 47.5672 136.444C49.1006 137.38 50.6897 138.22 52.3255 138.962Z" fill="#B99653"/>
<path d="M85.4219 161.442C86.8479 164.791 87.9902 168.919 94.2712 173.846C96.7086 175.757 113.623 160.97 113.39 160.483C112.123 157.843 110.55 155.361 108.704 153.089C107.57 151.694 104.986 150.077 103.258 149.178C103.181 149.138 100.874 153.576 99.6901 154.633C95.9451 157.979 90.2196 159.953 85.4219 161.442Z" fill="#CCE4FC"/>
<defs>
<linearGradient id="paint0_linear" x1="69.9469" y1="220.183" x2="177.602" y2="102.848" gradientUnits="userSpaceOnUse">
<stop stop-color="#D7F0FA"/>
<stop offset="0.382" stop-color="#DDF2FB"/>
<stop offset="0.911" stop-color="#EFF9FD"/>
<stop offset="1" stop-color="#F3FAFD"/>
</linearGradient>
</defs>
</svg>
