<svg width="839" height="577" viewBox="0 0 839 577" fill="none" xmlns="http://www.w3.org/2000/svg">
<g clip-path="url(#clip0)">
<path d="M357.192 518.994C466.619 610.12 778.345 613.424 835.324 386.657C848.462 334.369 828.371 268.745 787.707 231.514C746.714 193.981 693.138 178.06 639.031 170.821C560.762 160.351 437.588 167.413 363.831 135.84C281.424 100.56 198.7 35.217 113.5 84.379C51.418 120.201 10.878 192.879 71.5 272.379C109.446 322.143 181.138 344.945 210.752 369.979C262.052 413.347 294.858 467.073 357.197 518.988" fill="url(#paint0_linear)"/>
<path d="M357.192 518.994C466.619 610.12 778.345 613.424 835.324 386.657C848.462 334.369 828.371 268.745 787.707 231.514C746.714 193.981 693.138 178.06 639.031 170.821C560.762 160.351 437.588 167.413 363.831 135.84C281.424 100.56 198.7 35.217 113.5 84.379C51.418 120.201 10.878 192.879 71.5 272.379C109.446 322.143 181.138 344.945 210.752 369.979C262.052 413.347 294.858 467.073 357.197 518.988" fill="#E9F7FF"/>
<path d="M341.859 262.749C318.964 246.256 303.114 221.752 297.459 194.108C296.931 191.464 296.475 188.738 295.107 186.416C292.325 181.7 286.539 179.788 281.177 178.687C264.614 175.287 247.077 175.945 231.423 169.547C230.012 168.841 228.481 168.407 226.91 168.266C226.123 168.212 225.338 168.406 224.667 168.821C223.996 169.236 223.472 169.851 223.169 170.58C223.004 171.254 222.992 171.956 223.134 172.635C224.346 180.486 230.945 186.16 236.134 192.176C240.25 196.95 243.691 202.335 248.321 206.613C253.706 211.591 260.426 214.826 266.989 218.097C286.476 227.811 305.469 238.444 323.967 249.997C325.219 250.779 326.639 251.91 326.418 253.37L341.86 262.746" fill="#BA9857"/>
<path d="M259.413 179.39L254.7 195.069C256.906 200.369 262.285 203.719 267.759 205.462C273.233 207.205 279.031 207.692 284.565 209.237C284.825 209.315 285.094 209.36 285.365 209.368C285.507 209.38 285.649 209.357 285.78 209.302C285.911 209.246 286.026 209.16 286.116 209.05C286.273 208.771 286.326 208.445 286.266 208.131C285.806 202.049 284.701 195.737 281.037 190.86C276.037 184.213 267.437 181.607 259.419 179.39" fill="#A78041"/>
<path d="M308.931 281.47C305.581 277.726 304.402 269.926 305.906 265.133C308.792 255.933 314.996 235.065 316.764 231.4C317.171 230.382 317.912 229.533 318.864 228.991C320.718 228.114 322.855 229.327 324.451 230.616C335.525 239.557 339.138 247.827 339.781 262.046C339.958 265.935 321.1 295.073 308.931 281.47Z" fill="#47A1FF"/>
<path d="M118.561 30.649C132.691 89.519 139.585 166.849 141.461 203.076C141.64 206.537 142.66 209.902 144.431 212.881C146.203 215.859 148.674 218.361 151.63 220.17C173.024 233.315 222.895 264.79 244.553 283.091C246.075 284.079 247.74 284.828 249.49 285.311C243.501 288.577 236.079 290.631 230.157 286.835C208.493 268.535 158.628 237.065 137.233 223.919C134.283 222.106 131.818 219.603 130.05 216.626C128.283 213.648 127.266 210.285 127.088 206.827C125.226 170.6 123.121 98.4 108.99 39.533C108.454 33.893 113.133 27.584 118.75 22.286C118.318 25.0531 118.254 27.8652 118.561 30.649V30.649Z" fill="#007CFF"/>
<path d="M131.171 12.779C134.138 10.959 136.066 11.271 136.066 11.271C136.066 11.271 225.908 73.978 232.266 77.752C241.12 116.801 259.783 235.603 260.783 276.346C258.52 278.912 255.94 281.18 253.105 283.095C251.983 283.86 250.767 284.613 249.485 285.311C247.735 284.828 246.07 284.079 244.548 283.091C222.889 264.791 173.018 233.315 151.624 220.17C148.668 218.361 146.198 215.859 144.426 212.88C142.654 209.902 141.634 206.537 141.455 203.076C139.582 166.85 132.688 89.519 118.555 30.649C118.248 27.8652 118.312 25.053 118.745 22.286C122.567 18.7188 126.728 15.5346 131.171 12.779V12.779Z" fill="#007CFF"/>
<path d="M262.662 271.548C262.48 273.263 261.847 274.9 260.828 276.292C259.809 277.684 258.439 278.781 256.859 279.473C255.279 280.165 253.544 280.426 251.83 280.231C250.116 280.035 248.484 279.39 247.1 278.36C219.5 257.882 173.405 228.142 154.546 216.27C152.055 214.701 149.992 212.54 148.54 209.979C147.087 207.419 146.292 204.539 146.223 201.596C145.842 185.568 145.186 167.71 145.144 166.566L145.127 166.176C142.885 133.486 139.333 82.144 126.845 23.085C126.462 21.283 126.597 19.4096 127.233 17.6807C127.869 15.9518 128.981 14.4379 130.44 13.3136C131.899 12.1894 133.647 11.5005 135.481 11.3264C137.314 11.1524 139.16 11.5003 140.805 12.33C176.592 30.367 231.73 60.14 247.3 68.767C248.519 69.4451 249.579 70.3749 250.41 71.4946C251.242 72.6144 251.825 73.8983 252.122 75.261C260.411 113.228 265.05 151.901 265.974 190.752C266.647 217.728 265.54 244.718 262.662 271.548V271.548Z" fill="#1A8CFF"/>
<path d="M163.578 123.146C163.078 122.937 162.578 122.727 162.078 122.519C162.833 130.607 163.419 138.766 163.801 146.901C164.292 147.113 164.784 147.321 165.273 147.534C164.9 139.4 164.323 131.237 163.578 123.146Z" fill="#47A1FF"/>
<path d="M165.7 174.565C165.225 174.351 164.75 174.137 164.275 173.923C164.153 181.831 163.781 189.592 163.128 197.109C163.59 197.32 164.053 197.529 164.514 197.741C165.177 190.224 165.561 182.467 165.7 174.565Z" fill="#47A1FF"/>
<path d="M156.307 70.025C155.791 69.835 155.269 69.649 154.751 69.46C154.913 70.346 155.074 71.2363 155.234 72.131C156.518 79.331 157.718 86.826 158.801 94.515C159.31 94.715 159.82 94.915 160.327 95.11C159.12 86.459 157.765 78.052 156.307 70.025Z" fill="#47A1FF"/>
<path d="M154.329 59.623C153.168 53.831 151.964 48.297 150.739 43.075C150.208 42.895 149.671 42.717 149.139 42.538C150.979 50.314 152.775 58.813 154.45 67.825C154.967 68.013 155.492 68.196 156.007 68.385C155.457 65.414 154.9 62.478 154.329 59.623Z" fill="#47A1FF"/>
<path d="M150.348 41.425C148.336 32.987 146.275 25.406 144.262 18.961C143.615 16.889 142.974 14.937 142.339 13.105L140.805 12.331C140.705 12.278 140.597 12.231 140.493 12.187C143.733 21.6104 146.488 31.1941 148.745 40.9C149.277 41.075 149.819 41.246 150.348 41.425Z" fill="#47A1FF"/>
<path d="M162.993 198.625C162.316 205.956 161.364 213.04 160.104 219.785L161.409 220.615C162.702 213.805 163.681 206.657 164.377 199.263L162.993 198.625Z" fill="#47A1FF"/>
<path d="M160.555 96.74C160.048 96.54 159.534 96.34 159.025 96.14C160.142 104.226 161.125 112.515 161.925 120.897C162.425 121.104 162.925 121.315 163.425 121.523C162.632 113.138 161.664 104.839 160.555 96.74Z" fill="#47A1FF"/>
<path d="M165.757 167.839C165.757 161.654 165.604 155.398 165.338 149.123C164.854 148.912 164.365 148.706 163.88 148.496C164.164 154.984 164.321 161.449 164.321 167.839C164.321 169.351 164.311 170.858 164.292 172.361C164.768 172.574 165.245 172.784 165.72 172.997C165.742 171.283 165.754 169.564 165.757 167.839Z" fill="#47A1FF"/>
<path d="M176.967 78.213C176.442 77.991 175.921 77.766 175.394 77.545C175.694 79.207 175.99 80.8857 176.282 82.581C177.421 89.194 178.49 96.064 179.468 103.097C179.98 103.323 180.499 103.545 181.009 103.772C179.793 94.937 178.427 86.37 176.967 78.213Z" fill="#47A1FF"/>
<path d="M170.959 48.925C169.332 41.984 167.688 35.674 166.091 30.163C165.503 28.1363 164.922 26.2197 164.349 24.413L162.538 23.471C164.708 30.142 167.038 38.571 169.338 48.305C169.876 48.513 170.424 48.716 170.959 48.925Z" fill="#47A1FF"/>
<path d="M181.237 105.445C180.729 105.218 180.214 104.994 179.703 104.768C180.823 112.976 181.803 121.408 182.611 129.936L184.111 130.636C183.321 122.1 182.347 113.667 181.237 105.445Z" fill="#47A1FF"/>
<path d="M176.667 76.522C176.285 74.4213 175.898 72.3483 175.505 70.303C174.165 63.345 172.769 56.755 171.356 50.632C170.816 50.419 170.277 50.206 169.734 49.994C171.572 57.887 173.386 66.594 175.087 75.866C175.613 76.085 176.144 76.3 176.667 76.522Z" fill="#47A1FF"/>
<path d="M184.879 183.58C184.733 191.532 184.335 199.337 183.646 206.893C184.108 207.123 184.565 207.357 185.026 207.587C185.726 200.03 186.138 192.228 186.299 184.287C185.825 184.049 185.354 183.814 184.879 183.58Z" fill="#47A1FF"/>
<path d="M183.5 208.429C182.745 216.519 181.546 224.562 179.907 232.52L181.2 233.36C182.873 225.354 184.1 217.261 184.874 209.119C184.418 208.889 183.963 208.658 183.5 208.429Z" fill="#47A1FF"/>
<path d="M184.267 132.287C183.767 132.054 183.267 131.822 182.767 131.587C183.517 139.771 184.099 148.033 184.467 156.273C184.957 156.507 185.449 156.738 185.937 156.973C185.579 148.735 185.006 140.474 184.267 132.287Z" fill="#47A1FF"/>
<path d="M186.382 176.413C186.382 170.523 186.242 164.572 186.002 158.604C185.516 158.37 185.032 158.135 184.544 157.904C184.804 164.104 184.944 170.296 184.944 176.416C184.944 178.283 184.93 180.142 184.903 181.994C185.381 182.227 185.852 182.465 186.329 182.7C186.364 180.612 186.381 178.516 186.382 176.413Z" fill="#47A1FF"/>
<path d="M205.067 142.535L203.559 141.755C204.287 150.013 204.844 158.355 205.186 166.663C205.676 166.921 206.161 167.181 206.649 167.44C206.321 159.13 205.781 150.8 205.067 142.535Z" fill="#47A1FF"/>
<path d="M202.1 115.363C201.585 115.103 201.074 114.843 200.556 114.585C201.656 122.893 202.624 131.429 203.411 140.066C203.911 140.323 204.418 140.576 204.911 140.833C204.143 132.2 203.19 123.673 202.1 115.363Z" fill="#47A1FF"/>
<path d="M190.309 57.031C190.862 57.278 191.403 57.531 191.953 57.779C190.596 51.773 189.24 46.257 187.928 41.353C187.426 39.479 186.932 37.6983 186.447 36.011L184.681 35.077C185.287 37.1437 185.907 39.3593 186.541 41.724C187.769 46.315 189.038 51.458 190.309 57.031Z" fill="#47A1FF"/>
<path d="M197.584 85.935C197.284 84.263 196.992 82.6 196.691 80.966C195.291 73.343 193.819 66.154 192.348 59.535C191.802 59.287 191.259 59.035 190.709 58.791C192.509 66.797 194.3 75.679 195.99 85.17C196.525 85.423 197.052 85.68 197.584 85.935Z" fill="#47A1FF"/>
<path d="M205.471 194.146C205.282 202.108 204.834 209.92 204.09 217.479C204.548 217.725 205.003 217.973 205.459 218.22C206.219 210.663 206.683 202.86 206.888 194.906C206.417 194.652 205.943 194.4 205.471 194.146Z" fill="#47A1FF"/>
<path d="M206.712 169.1C206.226 168.841 205.739 168.582 205.252 168.325C205.462 173.897 205.579 179.454 205.579 184.96C205.579 187.497 205.554 190.021 205.504 192.533C205.978 192.786 206.451 193.04 206.923 193.294C206.983 190.531 207.014 187.753 207.015 184.96C207.015 179.71 206.9 174.413 206.712 169.1Z" fill="#47A1FF"/>
<path d="M203.934 219.027C203.048 227.915 201.595 236.737 199.585 245.44L200.859 246.285C202.909 237.551 204.393 228.694 205.303 219.769L203.934 219.027Z" fill="#47A1FF"/>
<path d="M201.874 113.639C200.674 104.657 199.326 95.948 197.889 87.674L196.301 86.912C197.748 95.168 199.108 103.875 200.322 112.858C200.844 113.117 201.355 113.379 201.874 113.639Z" fill="#47A1FF"/>
<path d="M211.679 67.274C212.227 67.554 212.786 67.832 213.33 68.113C212.122 62.448 210.924 57.222 209.774 52.529C209.374 50.879 208.974 49.303 208.581 47.789L206.858 46.867C207.353 48.7563 207.86 50.7563 208.379 52.867C209.447 57.229 210.558 62.064 211.679 67.274Z" fill="#47A1FF"/>
<path d="M226.027 205.706C225.773 213.64 225.256 221.419 224.433 228.934C224.885 229.201 225.339 229.467 225.788 229.734C226.628 222.226 227.165 214.464 227.437 206.545C226.968 206.264 226.498 205.985 226.027 205.706Z" fill="#47A1FF"/>
<path d="M221.363 123.938C221.878 124.225 222.405 124.511 222.917 124.798C221.76 115.717 220.455 106.908 219.067 98.537C218.532 98.245 218.008 97.951 217.467 97.659C218.869 106.024 220.19 114.843 221.363 123.938Z" fill="#47A1FF"/>
<path d="M226.22 193.487C226.22 197.037 226.172 200.564 226.076 204.068C226.548 204.346 227.016 204.624 227.486 204.903C227.598 201.126 227.655 197.321 227.656 193.487C227.656 189.254 227.592 184.999 227.463 180.723C226.974 180.434 226.491 180.145 225.999 179.857C226.141 184.419 226.215 188.962 226.22 193.487Z" fill="#47A1FF"/>
<path d="M218.768 96.733C218.477 95.009 218.185 93.297 217.888 91.613C216.531 83.9 215.12 76.629 213.715 69.937C213.167 69.652 212.615 69.366 212.066 69.082C213.788 77.206 215.524 86.227 217.166 95.87C217.7 96.158 218.236 96.445 218.768 96.733Z" fill="#47A1FF"/>
<path d="M225.945 178.165C226.432 178.449 226.923 178.732 227.406 179.016C227.133 170.683 226.644 162.316 225.977 154.016C225.477 153.725 224.967 153.436 224.463 153.147C225.146 161.449 225.656 169.824 225.945 178.165Z" fill="#47A1FF"/>
<path d="M224.315 151.407C224.821 151.696 225.325 151.985 225.828 152.276C225.102 143.576 224.19 134.97 223.144 126.582C222.626 126.29 222.11 125.997 221.589 125.706C222.647 134.09 223.573 142.7 224.315 151.407Z" fill="#47A1FF"/>
<path d="M224.255 230.5C223.215 239.967 221.486 249.346 219.083 258.562C219.501 258.848 219.923 259.135 220.34 259.421C222.782 250.19 224.544 240.792 225.61 231.303L224.255 230.5Z" fill="#47A1FF"/>
<path d="M246.871 201.982C246.871 206.976 246.775 211.924 246.584 216.827C247.051 217.135 247.519 217.443 247.984 217.751C248.202 212.551 248.307 207.288 248.308 201.982C248.308 199.228 248.271 196.461 248.217 193.69C247.732 193.368 247.25 193.046 246.76 192.723C246.825 195.818 246.871 198.908 246.871 201.982Z" fill="#47A1FF"/>
<path d="M244.615 241.464C245.064 241.764 245.507 242.054 245.952 242.348C246.903 234.941 247.539 227.269 247.907 219.429C247.445 219.12 246.983 218.811 246.516 218.502C246.168 226.36 245.547 234.048 244.615 241.464Z" fill="#47A1FF"/>
<path d="M246.72 190.986C247.204 191.303 247.698 191.619 248.177 191.936C247.985 183.61 247.568 175.236 246.97 166.924C246.47 166.599 245.962 166.274 245.459 165.948C246.073 174.269 246.51 182.65 246.72 190.986Z" fill="#47A1FF"/>
<path d="M244.413 243.053C243.186 252.851 241.16 262.532 238.355 272L239.583 272.881C242.427 263.419 244.488 253.738 245.745 243.938C245.303 243.641 244.859 243.346 244.413 243.053Z" fill="#47A1FF"/>
<path d="M245.328 164.155C245.834 164.48 246.338 164.805 246.839 165.13C246.185 156.403 245.339 147.758 244.361 139.316C243.84 138.984 243.327 138.652 242.802 138.316C243.8 146.763 244.656 155.418 245.328 164.155Z" fill="#47A1FF"/>
<path d="M242.581 136.49C243.102 136.818 243.631 137.145 244.148 137.473C243.062 128.328 241.821 119.454 240.504 110.991C239.966 110.658 239.437 110.325 238.895 109.991C240.224 118.448 241.477 127.333 242.581 136.49Z" fill="#47A1FF"/>
<path d="M237.681 102.477C237.992 104.339 238.301 106.226 238.606 108.137C239.144 108.465 239.679 108.793 240.212 109.12C239.845 106.796 239.474 104.494 239.097 102.241C237.903 95.097 236.669 88.33 235.447 82.041C234.894 81.712 234.347 81.383 233.791 81.055C235.092 87.686 236.409 94.868 237.681 102.477Z" fill="#47A1FF"/>
<path d="M235.075 80.149C233.569 72.511 232.089 65.626 230.728 59.715L229.042 58.801C230.403 64.652 231.896 71.519 233.421 79.184C233.971 79.506 234.529 79.827 235.075 80.149Z" fill="#47A1FF"/>
<path d="M208.207 219.708C207.298 219.208 206.374 218.716 205.459 218.22C205.407 218.736 205.359 219.255 205.303 219.769C206.039 220.169 206.784 220.569 207.516 220.969C213.249 224.113 218.829 227.289 224.255 230.498C224.315 229.978 224.376 229.459 224.433 228.936C219.175 225.835 213.766 222.759 208.207 219.708Z" fill="#47A1FF"/>
<path d="M225.788 229.733C225.73 230.256 225.672 230.779 225.61 231.299C232.169 235.199 238.46 239.132 244.41 243.053C244.48 242.525 244.546 241.994 244.61 241.464C238.648 237.548 232.349 233.627 225.788 229.733Z" fill="#47A1FF"/>
<path d="M185.026 207.587C184.979 208.099 184.926 208.609 184.877 209.119C191.348 212.357 197.701 215.66 203.934 219.027C203.987 218.513 204.034 217.996 204.09 217.479C197.865 214.123 191.511 210.826 185.026 207.587Z" fill="#47A1FF"/>
<path d="M245.745 243.934C252.299 248.287 258.427 252.624 264.035 256.9C264.082 256.333 264.13 255.767 264.175 255.2C258.57 250.955 252.464 246.657 245.952 242.348C245.884 242.878 245.817 243.408 245.745 243.934Z" fill="#47A1FF"/>
<path d="M163.126 197.109C157.409 194.491 151.668 191.953 145.903 189.494C145.918 190.019 145.933 190.546 145.949 191.077C151.645 193.512 157.326 196.028 162.993 198.625C163.039 198.121 163.082 197.615 163.126 197.109Z" fill="#47A1FF"/>
<path d="M164.512 197.741C164.467 198.248 164.424 198.757 164.377 199.263C170.815 202.233 177.19 205.288 183.503 208.429C183.552 207.918 183.6 207.406 183.646 206.893C177.344 203.764 170.966 200.714 164.512 197.741Z" fill="#47A1FF"/>
<path d="M163.126 197.109C163.082 197.615 163.039 198.121 162.993 198.625L164.377 199.263C164.424 198.757 164.467 198.248 164.512 197.741C164.051 197.529 163.588 197.32 163.126 197.109Z" fill="#47A1FF"/>
<path d="M183.646 206.893C183.6 207.406 183.552 207.918 183.503 208.429C183.963 208.658 184.418 208.889 184.877 209.119C184.927 208.609 184.977 208.099 185.026 207.587C184.565 207.357 184.108 207.123 183.646 206.893Z" fill="#47A1FF"/>
<path d="M204.09 217.479C204.039 217.996 203.99 218.513 203.934 219.027L205.303 219.769C205.357 219.255 205.403 218.736 205.459 218.22C205 217.973 204.548 217.725 204.09 217.479Z" fill="#47A1FF"/>
<path d="M224.433 228.934C224.376 229.457 224.315 229.976 224.255 230.496L225.61 231.296C225.672 230.776 225.73 230.253 225.788 229.73C225.339 229.467 224.885 229.2 224.433 228.934Z" fill="#47A1FF"/>
<path d="M244.615 241.464C244.549 241.994 244.483 242.525 244.415 243.053C244.862 243.347 245.306 243.641 245.747 243.934C245.819 243.408 245.886 242.878 245.954 242.348C245.507 242.054 245.064 241.759 244.615 241.464Z" fill="#47A1FF"/>
<path d="M209.078 194.451C208.366 194.064 207.64 193.681 206.923 193.296C206.912 193.833 206.902 194.37 206.888 194.906C207.388 195.176 207.895 195.443 208.388 195.713C214.445 199.006 220.324 202.337 226.023 205.706C226.041 205.161 226.057 204.615 226.072 204.068C220.583 200.834 214.919 197.628 209.078 194.451Z" fill="#47A1FF"/>
<path d="M227.437 206.544C234.107 210.514 240.489 214.513 246.516 218.502C246.541 217.945 246.562 217.386 246.584 216.827C240.542 212.846 234.156 208.859 227.484 204.903C227.47 205.45 227.456 206 227.437 206.544Z" fill="#47A1FF"/>
<path d="M164.292 172.361C157.915 169.515 151.482 166.768 144.992 164.119C145.029 164.653 145.066 165.187 145.102 165.712C151.54 168.344 157.931 171.081 164.276 173.923C164.281 173.4 164.286 172.882 164.292 172.361Z" fill="#47A1FF"/>
<path d="M184.905 181.991C178.608 178.913 172.213 175.916 165.72 173C165.713 173.523 165.707 174.046 165.698 174.568C172.18 177.487 178.574 180.492 184.879 183.583C184.889 183.052 184.898 182.522 184.905 181.991Z" fill="#47A1FF"/>
<path d="M186.331 182.7C186.322 183.229 186.31 183.757 186.299 184.286C192.832 187.507 199.223 190.795 205.471 194.149C205.484 193.613 205.494 193.075 205.504 192.538C199.261 189.195 192.87 185.915 186.331 182.7Z" fill="#47A1FF"/>
<path d="M247.907 219.429C254.235 223.654 260.164 227.866 265.607 232.017C265.632 231.434 265.656 230.851 265.678 230.268C260.217 226.134 254.295 221.948 247.978 217.751C247.959 218.312 247.933 218.87 247.907 219.429Z" fill="#47A1FF"/>
<path d="M165.72 173C165.245 172.787 164.768 172.577 164.292 172.364C164.286 172.885 164.281 173.407 164.273 173.926C164.749 174.139 165.224 174.353 165.698 174.568C165.707 174.043 165.713 173.52 165.72 173Z" fill="#47A1FF"/>
<path d="M184.905 181.991C184.897 182.521 184.888 183.051 184.879 183.58C185.354 183.814 185.825 184.049 186.299 184.28C186.31 183.751 186.322 183.223 186.331 182.694C185.854 182.462 185.383 182.224 184.905 181.991Z" fill="#47A1FF"/>
<path d="M205.5 192.535C205.49 193.072 205.48 193.61 205.467 194.146C205.939 194.4 206.413 194.652 206.884 194.906C206.898 194.37 206.908 193.833 206.919 193.296C206.45 193.041 205.977 192.788 205.5 192.535Z" fill="#47A1FF"/>
<path d="M226.076 204.068C226.061 204.615 226.044 205.161 226.027 205.706C226.499 205.985 226.969 206.265 227.437 206.544C227.456 205.998 227.47 205.45 227.486 204.903C227.016 204.624 226.548 204.346 226.076 204.068Z" fill="#47A1FF"/>
<path d="M246.516 218.5C246.983 218.809 247.445 219.118 247.907 219.427C247.933 218.868 247.959 218.31 247.983 217.749C247.519 217.441 247.051 217.133 246.583 216.825C246.562 217.386 246.541 217.945 246.516 218.5Z" fill="#47A1FF"/>
<path d="M227.463 180.723C234.21 184.703 240.663 188.716 246.763 192.723C246.75 192.144 246.738 191.565 246.724 190.986C240.61 186.986 234.172 182.996 227.41 179.016C227.425 179.585 227.447 180.154 227.463 180.723Z" fill="#47A1FF"/>
<path d="M206.712 169.1C213.356 172.636 219.805 176.228 225.999 179.855C225.981 179.291 225.965 178.727 225.945 178.163C219.745 174.545 213.312 170.97 206.645 167.438C206.67 167.993 206.692 168.547 206.712 169.1Z" fill="#47A1FF"/>
<path d="M205.186 166.663C198.931 163.37 192.515 160.14 185.938 156.975C185.962 157.519 185.98 158.061 186.002 158.604C192.575 161.773 198.991 165.014 205.252 168.327C205.231 167.772 205.209 167.218 205.186 166.663Z" fill="#47A1FF"/>
<path d="M184.468 156.276C178.187 153.28 171.79 150.366 165.275 147.534C165.299 148.064 165.316 148.593 165.338 149.123C171.85 151.961 178.252 154.887 184.544 157.901C184.522 157.36 184.493 156.818 184.468 156.276Z" fill="#47A1FF"/>
<path d="M248.216 193.69C254.611 197.932 260.61 202.163 266.143 206.337C266.143 205.737 266.143 205.137 266.143 204.537C260.582 200.373 254.576 196.156 248.177 191.937C248.191 192.521 248.205 193.106 248.216 193.69Z" fill="#47A1FF"/>
<path d="M163.8 146.9C156.991 143.967 150.088 141.146 143.09 138.437C143.133 138.972 143.174 139.494 143.217 140.024C150.188 142.727 157.074 145.55 163.877 148.495C163.857 147.965 163.828 147.433 163.8 146.9Z" fill="#47A1FF"/>
<path d="M165.275 147.534C164.786 147.321 164.294 147.113 163.803 146.901C163.828 147.433 163.857 147.965 163.88 148.496C164.365 148.706 164.854 148.912 165.338 149.123C165.316 148.593 165.3 148.064 165.275 147.534Z" fill="#47A1FF"/>
<path d="M185.938 156.975C185.45 156.741 184.958 156.51 184.468 156.275C184.493 156.817 184.522 157.359 184.544 157.9C185.032 158.134 185.516 158.369 186.002 158.6C185.98 158.061 185.962 157.519 185.938 156.975Z" fill="#47A1FF"/>
<path d="M205.186 166.663C205.209 167.218 205.231 167.772 205.252 168.327C205.74 168.584 206.227 168.843 206.712 169.102C206.692 168.548 206.671 167.994 206.649 167.44C206.161 167.181 205.676 166.921 205.186 166.663Z" fill="#47A1FF"/>
<path d="M226 179.857C226.492 180.145 226.975 180.434 227.464 180.723C227.448 180.154 227.426 179.585 227.407 179.016C226.924 178.732 226.433 178.449 225.946 178.165C225.965 178.729 225.981 179.293 226 179.857Z" fill="#47A1FF"/>
<path d="M246.759 192.723C247.249 193.046 247.731 193.368 248.216 193.69C248.205 193.106 248.191 192.521 248.177 191.936C247.698 191.619 247.204 191.303 246.72 190.986C246.734 191.565 246.746 192.144 246.759 192.723Z" fill="#47A1FF"/>
<path d="M225.977 154.019C232.787 157.968 239.281 161.944 245.459 165.948C245.415 165.348 245.374 164.748 245.328 164.155C239.147 160.177 232.647 156.217 225.828 152.276C225.877 152.858 225.93 153.437 225.977 154.019Z" fill="#47A1FF"/>
<path d="M182.611 129.936C176.351 127.048 169.956 124.245 163.427 121.526C163.478 122.066 163.529 122.606 163.578 123.146C170.103 125.87 176.499 128.685 182.764 131.59C182.713 131.038 182.662 130.487 182.611 129.936Z" fill="#47A1FF"/>
<path d="M161.927 120.9C154.982 118.033 147.91 115.289 140.712 112.666C140.767 113.199 140.821 113.729 140.876 114.254C148.066 116.88 155.133 119.635 162.076 122.519C162.029 121.979 161.979 121.439 161.927 120.9Z" fill="#47A1FF"/>
<path d="M246.97 166.924C253.601 171.253 259.831 175.578 265.605 179.848C265.579 179.238 265.555 178.627 265.528 178.017C259.728 173.754 253.498 169.459 246.839 165.13C246.884 165.728 246.928 166.326 246.97 166.924Z" fill="#47A1FF"/>
<path d="M205.067 142.535C211.762 146.016 218.229 149.554 224.467 153.15C224.419 152.568 224.367 151.988 224.319 151.407C218.08 147.835 211.614 144.31 204.919 140.833C204.968 141.4 205.017 141.968 205.067 142.535Z" fill="#47A1FF"/>
<path d="M203.412 140.066C197.155 136.852 190.721 133.708 184.112 130.633C184.163 131.184 184.214 131.735 184.263 132.287C190.863 135.368 197.294 138.524 203.555 141.755C203.51 141.192 203.463 140.628 203.412 140.066Z" fill="#47A1FF"/>
<path d="M163.427 121.526C162.927 121.318 162.427 121.107 161.927 120.9C161.979 121.439 162.03 121.978 162.08 122.519C162.58 122.727 163.08 122.937 163.58 123.146C163.527 122.606 163.476 122.066 163.427 121.526Z" fill="#47A1FF"/>
<path d="M184.116 130.633L182.616 129.933C182.668 130.483 182.719 131.034 182.769 131.587C183.269 131.819 183.769 132.051 184.269 132.287C184.218 131.735 184.167 131.184 184.116 130.633Z" fill="#47A1FF"/>
<path d="M204.915 140.833C204.415 140.576 203.915 140.323 203.415 140.066C203.466 140.628 203.515 141.192 203.562 141.755L205.07 142.535C205.018 141.967 204.966 141.4 204.915 140.833Z" fill="#47A1FF"/>
<path d="M224.463 153.15C224.963 153.439 225.476 153.728 225.977 154.019C225.93 153.437 225.877 152.858 225.828 152.276C225.326 151.986 224.822 151.696 224.315 151.407C224.364 151.988 224.415 152.568 224.463 153.15Z" fill="#47A1FF"/>
<path d="M245.459 165.948C245.959 166.274 246.472 166.599 246.97 166.924C246.927 166.324 246.883 165.726 246.839 165.13C246.338 164.805 245.835 164.48 245.328 164.155C245.374 164.752 245.415 165.35 245.459 165.948Z" fill="#47A1FF"/>
<path d="M244.361 139.316C251.277 143.724 257.774 148.124 263.851 152.516C263.796 151.885 263.738 151.254 263.681 150.624C257.588 146.265 251.077 141.883 244.148 137.477C244.221 138.084 244.289 138.7 244.361 139.316Z" fill="#47A1FF"/>
<path d="M223.144 126.582C230.002 130.458 236.555 134.371 242.802 138.321C242.73 137.708 242.654 137.101 242.581 136.49C236.332 132.566 229.777 128.669 222.917 124.798C222.992 125.393 223.07 125.985 223.144 126.582Z" fill="#47A1FF"/>
<path d="M158.8 94.515C151.911 91.8297 144.869 89.263 137.675 86.815C137.745 87.346 137.812 87.874 137.881 88.402C145.081 90.8553 152.129 93.4347 159.024 96.14C158.95 95.6 158.877 95.056 158.8 94.515Z" fill="#47A1FF"/>
<path d="M179.468 103.1C173.238 100.351 166.858 97.689 160.327 95.113C160.403 95.657 160.481 96.197 160.555 96.743C167.088 99.3257 173.471 102.002 179.703 104.771C179.627 104.207 179.546 103.655 179.468 103.1Z" fill="#47A1FF"/>
<path d="M202.1 115.363C208.826 118.747 215.322 122.195 221.588 125.706C221.513 125.115 221.437 124.526 221.362 123.938C215.101 120.449 208.604 117.016 201.873 113.638C201.951 114.213 202.027 114.788 202.1 115.363Z" fill="#47A1FF"/>
<path d="M200.322 112.858C194.071 109.755 187.634 106.726 181.009 103.772C181.086 104.329 181.162 104.886 181.237 105.445C187.863 108.409 194.303 111.456 200.557 114.585C200.48 114.006 200.4 113.434 200.322 112.858Z" fill="#47A1FF"/>
<path d="M160.327 95.11C159.82 94.91 159.31 94.71 158.801 94.515C158.877 95.056 158.95 95.601 159.025 96.143C159.534 96.343 160.048 96.543 160.555 96.743C160.481 96.194 160.4 95.654 160.327 95.11Z" fill="#47A1FF"/>
<path d="M181.009 103.772C180.499 103.545 179.98 103.323 179.468 103.097C179.546 103.655 179.627 104.207 179.703 104.768C180.214 104.994 180.729 105.218 181.237 105.445C181.161 104.887 181.085 104.329 181.009 103.772Z" fill="#47A1FF"/>
<path d="M201.874 113.639C201.355 113.379 200.844 113.117 200.322 112.858C200.4 113.434 200.48 114.006 200.557 114.585C201.075 114.843 201.586 115.103 202.101 115.363C202.026 114.788 201.951 114.213 201.874 113.639Z" fill="#47A1FF"/>
<path d="M221.589 125.706C222.11 125.997 222.626 126.29 223.144 126.582C223.07 125.982 222.992 125.393 222.917 124.798C222.405 124.511 221.878 124.225 221.363 123.938C221.439 124.526 221.514 125.115 221.589 125.706Z" fill="#47A1FF"/>
<path d="M242.8 138.321C243.325 138.652 243.838 138.984 244.359 139.321C244.287 138.707 244.219 138.089 244.146 137.478C243.629 137.15 243.1 136.823 242.579 136.495C242.654 137.1 242.73 137.708 242.8 138.321Z" fill="#47A1FF"/>
<path d="M240.5 110.991C247.651 115.409 254.4 119.852 260.731 124.264C260.644 123.62 260.552 122.976 260.464 122.332C254.114 117.937 247.364 113.514 240.208 109.12C240.31 109.74 240.407 110.366 240.5 110.991Z" fill="#47A1FF"/>
<path d="M154.448 67.825C147.762 65.395 140.906 63.0777 133.881 60.873C133.967 61.402 134.048 61.925 134.132 62.453C141.177 64.669 148.05 67.0047 154.751 69.46C154.651 68.911 154.549 68.369 154.448 67.825Z" fill="#47A1FF"/>
<path d="M219.067 98.537C225.977 102.306 232.586 106.124 238.895 109.993C238.795 109.377 238.703 108.749 238.606 108.137C232.294 104.297 225.681 100.497 218.768 96.737C218.868 97.331 218.968 97.935 219.067 98.537Z" fill="#47A1FF"/>
<path d="M196.3 86.912C196.2 86.326 196.092 85.751 195.989 85.17C189.744 82.208 183.303 79.3253 176.666 76.522C176.766 77.079 176.866 77.652 176.966 78.213C183.612 81.0263 190.057 83.926 196.3 86.912Z" fill="#47A1FF"/>
<path d="M175.087 75.866C168.892 73.284 162.531 70.7903 156.005 68.385C156.105 68.931 156.205 69.475 156.305 70.025C162.835 72.437 169.197 74.9437 175.392 77.545C175.291 76.9817 175.19 76.422 175.087 75.866Z" fill="#47A1FF"/>
<path d="M217.469 97.659C217.369 97.059 217.269 96.467 217.164 95.87C210.879 92.4927 204.353 89.181 197.584 85.935C197.686 86.513 197.788 87.0927 197.889 87.674C204.652 90.9307 211.179 94.259 217.469 97.659Z" fill="#47A1FF"/>
<path d="M156.005 68.385C155.49 68.196 154.965 68.013 154.448 67.825C154.548 68.369 154.648 68.911 154.748 69.46C155.266 69.649 155.788 69.835 156.304 70.025C156.207 69.475 156.106 68.931 156.005 68.385Z" fill="#47A1FF"/>
<path d="M176.667 76.522C176.144 76.302 175.613 76.085 175.087 75.866C175.19 76.424 175.292 76.9837 175.394 77.545C175.921 77.766 176.442 77.991 176.967 78.213C176.866 77.652 176.768 77.079 176.667 76.522Z" fill="#47A1FF"/>
<path d="M197.889 87.674C197.788 87.092 197.687 86.5123 197.584 85.935C197.052 85.68 196.525 85.423 195.99 85.17C196.09 85.751 196.198 86.326 196.301 86.912L197.889 87.674Z" fill="#47A1FF"/>
<path d="M219.067 98.537C218.967 97.937 218.867 97.331 218.767 96.737C218.235 96.449 217.698 96.162 217.167 95.874C217.267 96.474 217.367 97.061 217.472 97.663C218.008 97.951 218.532 98.245 219.067 98.537Z" fill="#47A1FF"/>
<path d="M238.9 109.993C239.442 110.325 239.971 110.658 240.509 110.993C240.409 110.368 240.315 109.742 240.217 109.122C239.684 108.794 239.148 108.466 238.611 108.139C238.7 108.749 238.8 109.377 238.9 109.993Z" fill="#47A1FF"/>
<path d="M233.791 81.059C233.668 80.43 233.544 79.803 233.421 79.184C227.021 75.4413 220.324 71.751 213.33 68.113C213.458 68.713 213.586 69.325 213.715 69.937C220.711 73.579 227.403 77.2863 233.791 81.059Z" fill="#47A1FF"/>
<path d="M190.709 58.791C190.576 58.196 190.442 57.617 190.309 57.031C184.07 54.245 177.62 51.543 170.959 48.925C171.092 49.4897 171.226 50.0587 171.359 50.632C178.025 53.26 184.475 55.9797 190.709 58.791Z" fill="#47A1FF"/>
<path d="M212.066 69.082C211.937 68.471 211.808 67.874 211.679 67.274C205.354 64.034 198.779 60.8673 191.953 57.774C192.085 58.356 192.216 58.939 192.353 59.53C199.174 62.6353 205.745 65.8193 212.066 69.082Z" fill="#47A1FF"/>
<path d="M169.734 49.994C169.601 49.4273 169.467 48.8643 169.334 48.305C163.184 45.923 156.854 43.6297 150.344 41.425C150.475 41.972 150.605 42.525 150.735 43.075C157.256 45.2863 163.589 47.5927 169.734 49.994Z" fill="#47A1FF"/>
<path d="M148.745 40.9C142.412 38.7907 135.912 36.7797 129.245 34.867C129.345 35.398 129.445 35.925 129.551 36.454C136.26 38.3773 142.79 40.406 149.141 42.54C149.007 41.9887 148.875 41.442 148.745 40.9Z" fill="#47A1FF"/>
<path d="M235.447 82.045C242.722 86.369 249.606 90.7197 256.1 95.097C255.979 94.438 255.854 93.78 255.731 93.122C249.223 88.7887 242.338 84.4643 235.075 80.149C235.199 80.7757 235.323 81.4077 235.447 82.045Z" fill="#47A1FF"/>
<path d="M150.348 41.425C149.819 41.246 149.277 41.075 148.748 40.898C148.881 41.4413 149.012 41.988 149.14 42.538C149.674 42.717 150.211 42.895 150.74 43.075C150.609 42.52 150.479 41.972 150.348 41.425Z" fill="#47A1FF"/>
<path d="M171.356 50.632C171.223 50.058 171.089 49.489 170.956 48.925C170.421 48.716 169.873 48.513 169.335 48.305C169.468 48.863 169.602 49.426 169.735 49.994C170.277 50.206 170.816 50.419 171.356 50.632Z" fill="#47A1FF"/>
<path d="M192.348 59.535C192.216 58.944 192.085 58.361 191.948 57.779C191.398 57.53 190.857 57.279 190.304 57.031C190.437 57.617 190.571 58.196 190.704 58.791C191.259 59.038 191.8 59.287 192.348 59.535Z" fill="#47A1FF"/>
<path d="M213.715 69.937C213.586 69.325 213.458 68.715 213.33 68.113C212.786 67.832 212.23 67.554 211.679 67.274C211.808 67.874 211.937 68.474 212.066 69.082C212.619 69.366 213.167 69.652 213.715 69.937Z" fill="#47A1FF"/>
<path d="M235.447 82.045C235.323 81.407 235.199 80.7737 235.075 80.145C234.529 79.823 233.975 79.502 233.421 79.18C233.544 79.799 233.668 80.426 233.791 81.055C234.348 81.387 234.894 81.716 235.447 82.045Z" fill="#47A1FF"/>
<path d="M342.466 289.655L320.307 276.718C316.146 274.174 311.834 271.886 307.395 269.867C295.729 264.842 282.036 263.248 272.895 254.431C264.472 246.307 261.962 233.969 256.165 223.804C250.448 213.846 241.605 206.053 231.008 201.632C226.759 199.874 221.708 198.143 220.213 193.794C218.856 189.846 221.483 185.284 225.297 183.583C229.111 181.882 233.65 182.599 237.381 184.473C241.112 186.347 244.199 189.26 247.245 192.115C252.068 196.634 257.078 201.205 263.214 203.663C271.214 206.863 280.345 206.163 288.393 209.245C297.553 212.752 304.167 220.66 310.578 228.083C323.645 243.211 337.978 257.874 355.911 266.705C355.526 267.292 355.014 267.785 354.415 268.15C353.815 268.515 353.142 268.742 352.444 268.815" fill="#BA9857"/>
<path d="M320.307 276.718C316.146 274.174 311.834 271.886 307.395 269.867C295.729 264.842 282.036 263.248 272.895 254.431C264.472 246.307 261.962 233.969 256.165 223.804C250.447 213.846 241.604 206.052 231.007 201.631C223.856 198.673 215.807 193.809 222.032 185.231C222.402 188.243 224.68 190.731 227.315 192.238C229.95 193.745 232.952 194.444 235.864 195.295C243.064 197.395 250.077 200.595 255.638 205.625C267.438 216.305 271.13 233.599 282.199 245.032C297.449 260.781 323.099 262.038 339.172 276.949C341.226 278.661 342.808 280.871 343.766 283.367C346.297 291.259 340.133 288.293 336.252 286.027C330.937 282.922 325.622 279.819 320.307 276.718Z" fill="#B5904A"/>
<path d="M314.752 283.118C316.769 282.385 318.614 281.244 320.171 279.766C321.728 278.289 322.964 276.506 323.802 274.53C329.23 263.03 330.928 232.989 319.536 228.619C323.528 227.574 327.684 229.299 331.336 231.208C339.173 235.303 443.061 282.177 447.697 284.87C450.172 286.113 452.853 286.893 455.609 287.17C458.495 287.288 461.302 286.32 464.029 285.365C488.255 276.887 508.704 268.965 532.529 259.442C557.583 249.43 641.143 216.4 659.2 215.472C677.257 214.544 663.175 315.459 644.625 322.652C611.293 335.576 577.18 346.388 542.489 355.022C514.435 362.005 478.559 376.035 449.806 368.035C440.234 365.371 356.274 312.935 318.266 290.179C314.517 288.046 311.32 285.063 308.934 281.47C309.587 282.349 310.511 282.987 311.564 283.285C312.618 283.583 313.74 283.524 314.756 283.118" fill="#B2DEFF"/>
<path d="M314.752 283.118C317.638 281.844 323.802 274.53 327.739 257.383C342.227 259.783 352.353 274.456 363.256 284.293C374.159 294.13 383.804 305.354 395.279 314.517C407.402 324.186 421.316 331.364 436.221 335.64C449.139 339.34 462.93 340.781 476.052 337.894C493.615 334.029 508.607 322.814 522.044 310.862C533.475 300.694 544.225 289.787 554.226 278.21C563.109 267.927 571.45 257.066 581.753 248.21C597.143 234.977 616.225 226.81 635.472 220.369C642.657 217.969 650.965 215.877 657.45 219.795C665.339 224.56 666.313 235.46 665.986 244.67C665.522 257.745 664.23 270.777 662.118 283.688C660.294 294.834 657.662 306.506 651.218 315.988C644.589 325.747 631.782 327.594 621.051 331.394C595.263 340.527 569.074 348.404 542.483 355.023C514.429 362.006 478.553 376.036 449.8 368.036C440.228 365.372 356.268 312.936 318.26 290.18C314.511 288.047 311.314 285.064 308.928 281.471C309.581 282.35 310.505 282.988 311.559 283.286C312.612 283.584 313.734 283.525 314.75 283.119" fill="#8BCBFF"/>
<path d="M76.361 308.226C58.875 299.093 39.957 290.25 19.607 281.697C17.6386 280.87 15.9567 279.483 14.7703 277.708C13.5839 275.933 12.9453 273.848 12.934 271.713C12.908 266.713 12.834 261.946 12.51 257.481C10.664 231.748 8.246 208.908 5.334 188.129C5.311 187.957 5.294 187.785 5.278 187.614C2.639 190.056 -0.312003 193.965 -0.0480026 196.952C1.718 217.152 4.642 235.469 4.937 263.32C4.986 267.705 4.33101 273.032 4.35401 277.954C4.38001 281.582 7.01601 285.532 12.154 287.767C32.554 296.638 45.771 303.113 63.918 310.832C69.894 313.376 74.848 311.818 78.838 309.157C77.9776 308.948 77.1458 308.636 76.361 308.226Z" fill="#FCBB00"/>
<path d="M12.51 257.481C12.832 261.946 12.91 266.716 12.934 271.713C12.9454 273.848 13.5839 275.933 14.7703 277.708C15.9567 279.483 17.6386 280.87 19.607 281.697C39.9244 290.236 58.8424 299.079 76.361 308.226C77.1455 308.636 77.977 308.948 78.837 309.157C81.1031 307.566 83.1977 305.745 85.087 303.721C83.5726 304.738 81.8116 305.327 79.9901 305.426C78.1686 305.526 76.3541 305.131 74.738 304.285C58.4447 295.776 40.8447 287.549 21.938 279.605C20.1133 278.828 18.5568 277.533 17.4615 275.88C16.3663 274.227 15.7806 272.288 15.777 270.305C15.751 265.659 15.677 261.217 15.377 257.064C13.651 233.143 11.404 211.899 8.69203 192.564C8.35504 190.153 8.89795 187.701 10.2213 185.657C11.5447 183.614 13.5599 182.115 15.898 181.436L15.756 181.383C12.5732 182.732 9.54147 184.413 6.71103 186.398C6.26003 186.738 5.77202 187.152 5.27502 187.612C5.29002 187.783 5.30702 187.955 5.33102 188.127C8.24602 208.908 10.664 231.747 12.51 257.481Z" fill="#FFD85F"/>
<path d="M17.519 187.82C34.874 194.468 51.136 204.745 73.719 219.046C75.931 238.231 77.165 255.64 78.119 269.128C78.8516 277.779 80.3597 286.347 82.625 294.728L86.914 301.861C86.356 302.418 85.748 303.052 85.09 303.726C86.4336 302.823 87.5416 301.611 88.3213 300.192C89.101 298.773 89.5299 297.188 89.572 295.57C89.882 283.437 89.672 272.113 88.972 262.27C88.1 249.952 86.992 234.351 85.121 217.116C84.9544 215.571 84.4349 214.085 83.6026 212.772C82.7704 211.459 81.6476 210.356 80.321 209.546C59.249 196.71 38.85 188.013 22.621 181.778C22.527 181.732 22.331 181.678 22.065 181.586C20.0772 180.896 17.9233 180.845 15.905 181.44C21.229 183.358 16.789 187.568 17.519 187.82Z" fill="#FFDA00"/>
<path d="M9.15799 187.843C8.63316 189.359 8.47484 190.978 8.69598 192.567C11.407 211.899 13.654 233.142 15.381 257.067C15.681 261.219 15.752 265.661 15.781 270.307C15.7844 272.29 16.3701 274.229 17.4656 275.882C18.561 277.536 20.1179 278.831 21.943 279.607C40.849 287.551 58.449 295.778 74.743 304.287C76.359 305.133 78.1736 305.528 79.9951 305.428C81.8166 305.329 83.5775 304.74 85.092 303.723C85.75 303.049 86.358 302.414 86.916 301.858L82.627 294.725C80.3617 286.344 78.8536 277.776 78.121 269.125C77.167 255.637 75.933 238.225 73.721 219.043C51.14 204.743 34.878 194.465 17.521 187.817C16.791 187.565 21.231 183.355 15.903 181.436C14.3481 181.886 12.9239 182.703 11.7502 183.818C10.5765 184.933 9.68753 186.313 9.15799 187.843Z" fill="#FFDA00"/>
<path d="M48.335 459.285C54.035 431.063 58.748 400.951 62.474 368.95C62.8337 365.855 64.0951 362.933 66.1015 360.549C68.1078 358.164 70.7706 356.422 73.759 355.538C80.752 353.473 87.41 351.429 93.538 349.163C128.861 336.124 159.898 323.463 187.843 310.936C188.074 310.836 188.309 310.736 188.543 310.649C184.043 307.941 177.367 305.391 173.288 306.975C145.688 317.654 121.198 329.194 82.275 340.919C76.147 342.771 68.415 344.019 61.524 346.047C56.448 347.556 51.983 352.855 50.936 360.965C46.786 393.165 43.077 414.323 39.627 442.899C38.488 452.308 42.685 458.62 48.036 463.133C47.9789 461.843 48.0793 460.551 48.335 459.285V459.285Z" fill="#00C459"/>
<path d="M93.538 349.163C87.41 351.429 80.753 353.473 73.759 355.538C70.7707 356.422 68.1078 358.164 66.1015 360.549C64.0951 362.933 62.8337 365.855 62.474 368.95C58.7554 400.898 54.0424 431.01 48.335 459.285C48.079 460.551 47.9782 461.843 48.035 463.133C51.185 465.664 54.5892 467.861 58.193 469.688C56.153 467.978 54.6124 465.748 53.7336 463.235C52.8549 460.722 52.6705 458.019 53.2 455.41C58.5107 429.113 62.8947 401.099 66.352 371.369C66.699 368.495 67.8825 365.786 69.7556 363.579C71.6287 361.372 74.1088 359.764 76.888 358.954C83.388 357.03 89.588 355.124 95.288 353.019C128.121 340.882 156.988 329.104 182.988 317.451C186.231 315.998 189.889 315.763 193.292 316.788C196.694 317.813 199.614 320.03 201.515 323.032L201.531 322.81C198.348 318.897 194.762 315.33 190.831 312.168C190.172 311.668 189.394 311.159 188.547 310.648C188.312 310.74 188.077 310.832 187.847 310.935C159.9 323.458 128.861 336.124 93.538 349.163Z" fill="#00C459"/>
<path d="M203.769 332.585C203.795 332.435 203.79 332.138 203.812 331.728C203.971 328.661 203.167 325.621 201.512 323.034V323.034C199.611 320.032 196.691 317.815 193.289 316.79C189.886 315.765 186.228 316 182.985 317.453C156.985 329.105 128.119 340.884 95.285 353.02C89.585 355.126 83.385 357.032 76.885 358.956C74.1058 359.766 71.6256 361.374 69.7526 363.581C67.8795 365.788 66.696 368.497 66.349 371.371C62.891 401.104 58.5067 429.118 53.196 455.411C52.6666 458.02 52.8511 460.724 53.7301 463.237C54.609 465.75 56.1498 467.979 58.19 469.689C59.402 470.338 60.54 470.934 61.546 471.489C60.539 470.933 59.402 470.338 58.19 469.689C60.0019 471.206 62.1504 472.267 64.4562 472.784C66.7619 473.301 69.1579 473.259 71.444 472.661C88.579 468.161 104.367 463.268 117.878 458.298C134.792 452.072 156.211 444.183 179.612 434.559C181.71 433.697 183.583 432.365 185.085 430.665C186.587 428.965 187.678 426.943 188.274 424.754C197.714 390 201.62 357.87 203.769 332.585ZM184.582 375.326C183.617 379.114 182.589 383 181.498 386.985C180.407 390.97 179.259 395.081 178.055 399.32C176.851 403.557 175.593 407.935 174.28 412.452C175.591 407.927 176.85 403.55 178.055 399.32C179.26 395.09 180.408 390.978 181.498 386.985C182.588 382.993 183.616 379.107 184.582 375.326C186.028 369.644 187.329 364.168 188.468 358.826C187.329 364.168 186.028 369.644 184.582 375.326V375.326ZM200.006 327.113C200.215 326.913 200.401 326.689 200.56 326.447C200.401 326.689 200.215 326.913 200.006 327.113V327.113ZM201.006 325.563C200.971 325.655 200.922 325.719 200.883 325.805C200.926 325.719 200.975 325.655 201.01 325.563H201.006Z" fill="#00D981"/>
<path d="M590.266 239.855C591.974 230.955 585.709 231.982 594.079 228.52C596.751 227.555 599.571 227.064 602.412 227.069C629.532 225.914 657.897 220.933 682.789 231.759C684.578 232.442 686.261 233.375 687.789 234.53C691.132 237.307 692.403 242.047 691.789 246.349C691.175 250.651 688.911 254.558 686.202 257.956C682.155 263.023 677.076 267.171 671.302 270.124C654.387 278.759 634.002 276.046 615.628 271.241C607.791 269.193 599.96 266.765 592.986 262.647C586.012 258.529 579.891 252.554 576.895 245.029L590.269 239.855" fill="#47A1FF"/>
<path d="M612.667 177.3C615.638 206.326 608.234 235.467 591.767 259.554C589.045 263.506 585.997 267.517 585.329 272.269C584.801 276.031 585.84 279.821 586.984 283.444C594.434 307.003 610.62 331.58 635.204 334.057C651.524 335.7 667.461 326.702 678.284 314.378C689.107 302.054 695.722 286.69 702.165 271.607C675.112 239.319 667.365 191.991 682.714 152.764L612.667 177.3Z" fill="#B18A40"/>
<path d="M693.338 259.489C696.004 263.721 698.952 267.769 702.162 271.604V271.604C702.486 270.847 694.312 260.989 693.338 259.489ZM690.053 253.939L690.063 253.958L690.053 253.939ZM689.901 253.664L689.95 253.752L689.901 253.664ZM689.753 253.394L689.836 253.546L689.753 253.394ZM689.525 252.976L689.725 253.339L689.525 252.976ZM677.472 219.84L677.481 219.883L677.472 219.84ZM677.414 219.56L677.433 219.649L677.414 219.56ZM677.357 219.278L677.385 219.417L677.357 219.278ZM677.303 219.006C677.314 219.064 677.326 219.124 677.338 219.182C677.326 219.124 677.314 219.064 677.303 219.006ZM677.251 218.747L677.291 218.947L677.251 218.747ZM676.176 212.447C676.479 214.545 676.835 216.633 677.244 218.712C677.055 217.754 676.877 216.794 676.712 215.831C676.518 214.705 676.339 213.577 676.176 212.447ZM676.144 212.219L676.176 212.444C676.165 212.369 676.154 212.294 676.144 212.219ZM676.11 211.981C676.12 212.052 676.13 212.12 676.14 212.192L676.11 211.981ZM676.078 211.75L676.105 211.945L676.078 211.75ZM676.047 211.521L676.07 211.693L676.047 211.521ZM676.016 211.292L676.035 211.436L676.016 211.292ZM675.984 211.059L676.001 211.184L675.984 211.059ZM675.955 210.834L675.967 210.926L675.955 210.834ZM675.924 210.596L675.934 210.672L675.924 210.596ZM675.894 210.364L675.901 210.419L675.894 210.364ZM675.865 210.128V210.166V210.128Z" fill="#D5D8CA"/>
<path d="M585.212 275.308L585.131 275.413C584.74 275.761 584.479 276.233 584.393 276.75C584.307 277.267 584.401 277.798 584.658 278.254C585.903 281.538 587.229 284.943 588.666 288.373C588.062 286.729 587.5 285.085 586.981 283.441C586.057 280.814 585.463 278.082 585.212 275.308" fill="#7FB1CA"/>
<path d="M622.887 330.767L622.732 330.819C626.648 332.524 630.805 333.61 635.054 334.039C630.851 333.598 626.744 332.493 622.887 330.767" fill="#D5D8CA"/>
<path d="M605.582 317.7C610.235 323.312 616.098 327.797 622.732 330.818L622.887 330.766C616.26 327.685 610.363 323.232 605.587 317.7" fill="#7FB1CA"/>
<path d="M683.237 239.386C685.044 244.044 687.145 248.583 689.525 252.976V252.976C688.233 250.593 687.024 248.167 685.899 245.697C684.951 243.619 684.064 241.515 683.237 239.386ZM683.154 239.172L683.232 239.372L683.154 239.172ZM683.07 238.954L683.134 239.121L683.07 238.954ZM682.987 238.736L683.04 238.876L682.987 238.736ZM682.903 238.517L682.944 238.625L682.903 238.517ZM682.821 238.299L682.85 238.378L682.821 238.299ZM682.738 238.079L682.756 238.127L682.738 238.079ZM682.655 237.859L682.662 237.877L682.655 237.859Z" fill="#418CCA"/>
<path d="M656.689 180.7C654.648 182.79 652.494 184.768 650.238 186.624C643.605 192.259 636.186 196.741 627.783 198.599C626.916 198.872 626.025 199.138 625.108 199.399C620.813 214.224 613.689 228.335 606.65 242.171C600.494 254.271 593.423 264.613 585.212 275.307C585.463 278.081 586.057 280.813 586.981 283.44C587.501 285.082 588.063 286.726 588.666 288.372C593 298.71 598.346 309.3 605.582 317.7C610.358 323.232 616.255 327.685 622.882 330.766C626.739 332.492 630.846 333.597 635.049 334.038L635.196 334.053C636.484 334.183 637.778 334.248 639.072 334.247C654.013 334.247 668.311 325.72 678.272 314.374C689.094 302.049 695.71 286.686 702.153 271.603C698.943 267.767 695.995 263.72 693.329 259.488L693.31 259.457C692.177 257.657 691.091 255.824 690.054 253.957L690.044 253.938L689.944 253.751L689.895 253.663L689.83 253.545L689.747 253.393L689.717 253.338L689.517 252.975C687.137 248.582 685.036 244.043 683.229 239.385V239.373L683.151 239.173L683.131 239.122L683.067 238.955L683.037 238.877L682.984 238.737L682.941 238.626L682.9 238.518L682.847 238.379L682.818 238.3L682.753 238.128L682.735 238.08L682.659 237.88L682.652 237.862C680.472 232.011 678.742 226.001 677.478 219.886L677.469 219.843L677.43 219.652L677.411 219.563L677.382 219.42L677.354 219.281L677.335 219.181C677.323 219.123 677.311 219.063 677.3 219.005L677.288 218.947L677.248 218.747L677.241 218.711C676.831 216.631 676.475 214.543 676.173 212.446L676.141 212.221V212.194C676.131 212.122 676.121 212.054 676.111 211.983V211.947L676.084 211.752L676.076 211.695L676.053 211.523L676.041 211.438L676.022 211.294L676.007 211.186L675.99 211.061L675.973 210.928L675.961 210.836L675.94 210.674L675.93 210.598L675.907 210.421L675.9 210.366L675.875 210.166V210.128C675.865 210.054 675.856 209.98 675.847 209.906V209.9C675.116 203.963 674.82 197.98 674.962 192C674.592 192.04 674.221 192.059 673.849 192.059C667.78 192.059 661.113 186.926 656.7 180.708" fill="#A27833"/>
<path d="M691.6 550.664C694.221 513.518 711.876 462.48 719.805 444.708C725.063 432.922 751.02 374.166 755.155 346.308C756.767 335.455 758.149 324.44 756.917 313.537C755.685 302.634 751.588 291.719 743.656 284.137C736.667 277.456 727.956 271.978 720.389 265.875C717.907 263.875 694.953 247.603 695.504 245.809C695.642 243.416 694.989 241.044 693.646 239.06C692.302 237.075 690.343 235.587 688.07 234.826C690.564 238.847 689.499 244.173 687.27 248.346C683.6 255.211 677.197 260.264 670.307 263.885C652.621 273.185 630.707 273.359 612.531 265.314C601.931 260.624 590.545 249.298 592.545 236.714C593.212 232.514 595.989 228.443 600.077 227.285C591.912 226.821 584.883 232.674 578.999 238.354C566.607 250.319 555.05 263.119 544.41 276.666C528.15 297.366 520.48 324.257 513.001 349.193C502.517 384.145 495.011 419.923 490.564 456.142C487.426 481.742 485.81 507.513 482.029 533.033C480.277 545.349 477.814 557.552 474.65 569.583C543.156 583.121 623.405 579.282 691.6 550.664Z" fill="#B2DEFF"/>
<path d="M691.6 550.664C694.221 513.518 711.876 462.48 719.805 444.708C725.063 432.922 751.02 374.166 755.155 346.308C756.767 335.455 758.149 324.44 756.917 313.537C755.966 305.13 753.43 295.561 747.817 288.961C746.827 287.76 745.578 286.798 744.163 286.148C740.328 284.402 736.081 282.848 732.113 281.438C721.165 277.697 709.313 277.522 698.259 280.938C683.326 285.462 670.525 295.683 661.081 308.103C647.015 326.603 640.13 349.455 634.198 371.926C622.391 416.659 612.116 464.355 580.81 498.419C554.01 527.585 514.417 543.499 487.597 571.919C553.117 582.546 627.657 577.5 691.6 550.664Z" fill="#8BCBFF"/>
<path d="M439.947 274.318C456.822 271.116 474.266 272.99 490.076 279.703C505.885 286.416 519.349 297.666 528.764 312.031C538.18 326.396 543.124 343.23 542.973 360.405C542.821 377.58 537.579 394.324 527.911 408.52C518.243 422.716 504.582 433.726 488.657 440.158C472.731 446.59 455.256 448.156 438.441 444.656C421.625 441.157 406.226 432.749 394.188 420.497C382.151 408.246 374.018 392.699 370.816 375.825C368.69 364.621 368.792 353.107 371.115 341.942C373.439 330.778 377.939 320.18 384.358 310.754C390.778 301.328 398.991 293.259 408.529 287.007C418.067 280.755 428.743 276.444 439.947 274.318V274.318Z" fill="#0050D5"/>
<path d="M524.269 470.446C516.462 475.646 504.31 482.436 494.925 484.217C508.75 475.255 524.025 462.985 533.661 451.339C541.844 447.552 552.328 442.965 558.727 439.291C549.136 450.285 536.494 462.312 524.269 470.446Z" fill="#ADCBF1"/>
<path d="M381.046 443.119C375.248 435.925 370.195 428.161 365.967 419.946C374.714 422.087 382.702 423.746 389.099 425.089C399.375 427.123 409.779 428.449 420.236 429.059C421.436 431.926 422.662 434.713 423.914 437.422C430.379 451.43 437.392 463.022 444.814 471.986C434.05 472.03 420.881 472.235 410.171 471.157C398.1 464.018 389.833 454.042 381.046 443.119Z" fill="#00D981"/>
<path d="M459.226 382.568L451.151 340.013C467.312 336.381 482.954 330.735 497.709 323.207C499.901 331.341 501.409 337.87 502.278 341.607C502.508 342.594 502.699 343.415 502.852 344.06C503.102 345.097 504.219 351.111 504.914 354.934C505.031 355.549 505.12 356.334 505.259 357.252C505.712 360.268 506.134 363.24 506.527 366.168C492.722 372.721 475.211 379.212 459.226 382.568Z" fill="#1A8CFF"/>
<path d="M511.056 258.5C510.056 259.709 508.984 260.925 507.844 262.136C500.76 269.541 492.751 276 484.014 281.355C476.889 265.935 469.196 253.583 460.933 244.299C464.974 242.201 468.843 239.786 472.502 237.076C486.562 241.784 499.633 249.047 511.056 258.5V258.5Z" fill="#FFDA00"/>
<path d="M460.528 243.549C452.069 246.913 443.332 249.53 434.416 251.368L430.371 230.051C440.906 231.036 451.017 235.559 460.528 243.549Z" fill="#00D981"/>
<path d="M400.47 297.374C414.321 299.237 428.365 299.137 442.188 297.074L450.037 338.444C433.069 341.174 413.937 340.264 400.937 338.423C399.71 324.754 399.379 311.019 399.946 297.307L400.47 297.374Z" fill="#B2DEFF"/>
<path d="M429.778 227.512C401.316 232.912 375.37 247.393 355.833 268.784C336.296 290.174 324.219 317.322 321.414 346.156C318.609 374.99 325.227 403.956 340.275 428.712C355.323 453.467 377.99 472.677 404.878 483.462C405.6 483.753 406.326 484.031 407.055 484.309C407.318 484.409 407.579 484.516 407.844 484.615C427.205 491.85 447.978 494.506 468.537 492.377C489.096 490.247 508.883 483.39 526.35 472.34C543.818 461.29 558.491 446.349 569.223 428.684C579.955 411.02 586.453 391.112 588.21 370.518C589.967 349.924 586.935 329.202 579.351 309.975C571.767 290.748 559.836 273.537 544.493 259.688C529.15 245.839 510.811 235.728 490.91 230.147C471.009 224.565 450.086 223.665 429.779 227.515L429.778 227.512ZM556.833 436.344C551.074 440.103 545.081 443.489 538.89 446.483C552.82 426.849 557.861 405.557 559.112 387.028C566.566 381.489 575.094 374.757 583.398 367.328C583.874 366.904 584.342 366.481 584.808 366.059C583.576 389.851 575.83 412.848 562.417 432.538C560.483 433.872 558.611 435.148 556.833 436.344ZM377.121 463.844C359.006 450.426 344.695 432.525 335.594 411.901C345.216 415.544 355.037 418.639 365.009 421.171C372.448 437.6 384.158 455.443 403.14 468.971C397.918 468.243 393.088 467.387 388.854 466.441L383.512 465.261C381.5 464.818 379.353 464.345 377.121 463.848V463.844ZM326.812 383.571C325.289 375.555 324.519 367.415 324.512 359.256C332.716 364.765 341.564 369.248 350.859 372.603C351.272 375.445 353.012 383.934 353.081 384.298C355.523 395.46 358.904 406.396 363.187 416.989C353.165 414.37 343.313 411.138 333.687 407.313C330.652 399.635 328.35 391.687 326.812 383.575V383.571ZM354.741 374.018C367.886 378.51 381.347 382.016 395.013 384.505C398.226 385.118 401.851 385.67 405.752 386.136C409.295 400.087 413.712 413.802 418.975 427.2C410.014 426.63 401.101 425.467 392.294 423.717C385.603 422.324 377.003 420.531 367.573 418.137C362.844 406.952 359.162 395.353 356.573 383.489C356.57 383.457 355.394 377.627 354.741 374.022V374.018ZM509.233 257.793C503.642 264.851 495.355 272.284 484.202 279.029L484.08 278.758C477.646 264.738 470.694 253.642 463.225 245.471C467.192 243.476 470.972 241.127 474.519 238.455C487.212 242.64 498.993 249.203 509.233 257.793V257.793ZM432.454 232.268C441.137 232.954 449.374 236.991 457.167 244.378C450.37 247.333 443.278 249.555 436.01 251.007L432.454 232.268ZM440.736 295.137C428.063 297.121 415.169 297.255 402.457 295.537C401.929 295.464 401.398 295.387 400.865 295.306C401.928 279.668 404.551 266.775 408.735 256.627C416.904 257.084 425.098 256.6 433.156 255.185L440.736 295.137ZM444.925 297.993C458.076 295.228 470.754 290.562 482.559 284.141C487.812 296.49 492.242 309.173 495.818 322.108C482.154 329.306 467.584 334.632 452.5 337.944L444.925 297.993ZM480.949 280.937C469.442 287.209 457.081 291.77 444.257 294.474L436.677 254.525C444.662 252.937 452.441 250.445 459.862 247.097C467.317 255.025 474.305 266.076 480.825 280.25C480.916 280.45 481.005 280.65 481.096 280.85L480.949 280.937ZM460.637 242.768C456.461 238.516 451.597 235 446.25 232.368C454.386 233.232 462.428 234.822 470.281 237.118C467.212 239.239 463.988 241.128 460.637 242.768V242.768ZM432.488 251.668C425.162 252.948 417.719 253.438 410.288 253.131C414.914 243.496 421.128 236.767 428.931 232.943L432.488 251.668ZM406.478 252.868C402.457 252.522 398.473 251.839 394.566 250.827C401.765 245.35 409.477 240.581 417.593 236.588C412.888 241.261 409.116 246.787 406.478 252.87V252.868ZM391.478 253.668C395.895 254.975 400.426 255.861 405.01 256.312C400.951 266.579 398.384 279.377 397.31 294.707C386.333 292.707 374.769 289.046 365.902 283.544C372.377 272.066 380.938 261.898 391.144 253.562C391.259 253.6 391.363 253.638 391.476 253.671L391.478 253.668ZM401.993 299.078C415.082 300.845 428.358 300.702 441.406 298.653L448.985 338.603C432.643 341.386 413.965 340.465 401.593 338.655C400.378 325.435 400.065 312.147 400.655 298.884C401.108 298.955 401.559 299.021 401.991 299.081L401.993 299.078ZM406.652 374.785L406.423 373.792C405.967 371.392 404.706 365.027 404.554 363.942L404.39 362.829C403.376 355.778 402.554 348.939 401.925 342.313C414.59 344.085 433.25 344.922 449.653 342.122L457.238 382.096C441.938 384.726 423.505 384.466 408.627 382.878C407.952 380.222 407.293 377.525 406.65 374.788L406.652 374.785ZM453.174 341.459C468.346 338.132 483.014 332.823 496.8 325.668C498.925 333.488 500.378 339.768 501.195 343.302C501.395 344.181 501.595 344.917 501.706 345.493C501.956 346.559 503.124 352.962 503.582 355.378C503.665 355.94 503.768 356.642 503.897 357.478C504.339 360.4 504.747 363.277 505.12 366.11C492.247 372.241 475.708 378.371 460.751 381.431L453.167 341.459H453.174ZM505.202 344.659C505.064 344.09 504.896 343.359 504.695 342.492C503.841 338.805 502.301 332.155 500.033 323.886C500.633 323.541 501.233 323.196 501.809 322.849C513.221 315.947 523.83 307.797 533.439 298.549C534.818 297.198 536.131 295.858 537.38 294.529C545.31 310.584 548.998 325.896 551.086 334.703C540.988 343.482 530.244 351.488 518.944 358.653C516.044 360.481 512.506 362.445 508.534 364.439C508.104 361.319 507.719 358.768 507.442 356.939C507.317 356.093 507.242 355.404 507.132 354.829L507.118 354.76C507.049 354.411 505.527 346.043 505.2 344.663L505.202 344.659ZM530.913 296C521.495 305.059 511.097 313.041 499.913 319.8C499.627 319.972 499.33 320.146 499.031 320.321C495.42 307.373 490.957 294.679 485.669 282.321C495.383 276.437 505.027 268.621 511.901 260.136C516.426 264.241 520.586 268.73 524.335 273.553C528.606 279.07 532.387 284.95 535.635 291.125C534.153 292.737 532.587 294.362 530.913 296ZM477.8 235.784C479.203 234.55 480.533 233.235 481.782 231.846C494.01 234.443 505.797 238.798 516.775 244.776C515.443 248.379 513.633 251.786 511.392 254.905C501.434 246.565 490.055 240.088 477.8 235.784V235.784ZM473.853 234.443C465.873 231.935 457.68 230.161 449.377 229.143C458.836 228.74 468.311 229.377 477.631 231.043C476.43 232.24 475.169 233.375 473.852 234.443H473.853ZM390.383 249.543C389.152 249.11 387.977 248.647 386.856 248.154C393.378 244.171 400.24 240.773 407.361 238C401.419 241.416 395.743 245.276 390.382 249.547L390.383 249.543ZM387.19 252.178C377.431 260.457 369.212 270.395 362.911 281.534C360.209 279.622 357.784 277.346 355.705 274.77C363.695 265.39 372.977 257.192 383.273 250.423C384.507 251.051 385.812 251.637 387.189 252.182L387.19 252.178ZM364.2 286.726C366.341 288.036 368.552 289.226 370.824 290.292C379.2 294.085 388.031 296.779 397.098 298.308C396.487 311.565 396.768 324.849 397.941 338.068C377.325 334.499 362.964 329.206 353.004 323.822C353.787 317.495 355.077 311.242 356.861 305.122C358.725 298.773 361.182 292.614 364.2 286.726V286.726ZM398.265 341.751C398.913 348.713 399.77 355.909 400.836 363.34L400.993 364.454C401.2 365.854 402.837 374.173 402.903 374.524L403.157 375.608C403.696 377.915 404.251 380.185 404.814 382.437C401.524 382.018 398.452 381.537 395.692 381.009C381.565 378.449 367.664 374.775 354.117 370.02C352.782 360.544 350.884 345.127 352.563 327.73C367.73 335.507 385.874 339.657 398.262 341.751H398.265ZM409.578 386.558C424.533 388.048 442.732 388.213 457.902 385.596L465.482 425.546C452.624 427.787 437.306 428.205 422.94 427.439C417.613 414.113 413.149 400.458 409.575 386.558H409.578ZM466.15 429.065L473.725 469C465.449 470.387 457.086 471.189 448.698 471.4C441.104 463.209 433.948 451.858 427.231 437.347C426.292 435.314 425.368 433.228 424.461 431.088C438.608 431.751 453.536 431.27 466.147 429.065H466.15ZM474.398 472.535L477.152 487.055C468.399 486.36 460.06 482.296 452.135 474.863C459.599 474.562 467.036 473.784 474.4 472.535H474.398ZM477.916 471.863C485.057 470.375 492.116 468.52 499.066 466.304C494.539 475.852 488.395 482.622 480.675 486.404L477.916 471.863ZM477.246 468.328L469.666 428.4C482.918 425.519 495.885 421.455 508.411 416.259C508.064 434.822 505.559 450.159 500.95 461.934C493.176 464.517 485.261 466.651 477.243 468.328H477.246ZM469 424.878L461.42 384.93C476.25 381.897 492.62 375.899 505.604 369.82C507.445 383.934 508.398 398.15 508.456 412.384C495.715 417.751 482.508 421.933 469 424.878V424.878ZM509.029 368.178C513.57 365.945 517.595 363.736 520.853 361.696C531.705 354.747 542.078 347.078 551.903 338.74C552.562 342.195 553.298 346.34 553.303 346.365C554.498 354.659 556.528 368.758 555.65 385.102C547.515 391.11 540.942 395.502 537.882 397.502C529.647 402.649 521.008 407.119 512.05 410.868C511.92 396.589 510.911 382.331 509.028 368.176L509.029 368.178ZM554.122 332.021C551.837 322.591 547.929 307.455 539.958 291.7C545.687 285.187 549.804 278.941 552.268 273.023C561.789 283.787 569.464 296.053 574.98 309.323C569.375 316.947 563.016 323.987 556 330.336C555.383 330.9 554.748 331.457 554.121 332.019L554.122 332.021ZM538.163 288.279C534.97 282.348 531.293 276.692 527.17 271.366C523.236 266.293 518.862 261.576 514.1 257.271C516.531 253.987 518.507 250.389 519.976 246.576C522.719 248.172 525.409 249.872 528.048 251.676C535.872 257.005 543.09 263.173 549.576 270.068C547.483 275.726 543.622 281.879 538.162 288.277L538.163 288.279ZM353.37 277.59C355.65 280.304 358.279 282.705 361.187 284.731C357.983 290.932 355.383 297.427 353.422 304.126C351.719 309.951 350.456 315.895 349.644 321.909C341.861 317.224 337.244 312.618 334.564 309.166C339.316 297.809 345.647 287.178 353.37 277.59V277.59ZM349.158 325.9C347.313 343.128 348.963 358.538 350.309 368.584C339.934 364.535 331.359 359.981 324.584 354.922C325.055 340.584 327.906 326.425 333.021 313.022C337.601 318.23 343.064 322.59 349.158 325.9V325.9ZM383.186 444.858C377.821 437.851 373.223 430.288 369.473 422.3C377.861 424.366 385.479 425.958 391.548 427.225C401.095 429.111 410.762 430.332 420.479 430.878C421.62 433.615 422.784 436.275 423.973 438.857C430.208 452.365 436.881 463.248 443.993 471.507C432.991 471.626 421.991 471.103 411.05 469.939C400.308 463.351 390.863 454.851 383.186 444.858ZM447.207 475.036C451.504 479.615 456.531 483.449 462.083 486.383C445.989 484.679 431.576 480.638 418.844 474.261C428.279 474.995 437.746 475.254 447.207 475.036V475.036ZM503.714 464.794C511.387 462.225 519.014 459.302 526.197 456.24C517.051 465.611 506.501 473.501 494.926 479.625C498.603 475.164 501.567 470.161 503.714 464.794V464.794ZM505.368 460.441C508.835 450.456 510.957 438.27 511.734 423.882C511.897 420.837 511.989 417.782 512.027 414.755C521.678 410.786 530.981 406.017 539.839 400.5C543.068 398.393 548.604 394.685 555.316 389.817C554.651 397.739 553.211 405.576 551.016 413.217C547.181 426.579 540.678 439.026 531.9 449.806C523.678 453.575 514.591 457.246 505.368 460.441V460.441ZM559.354 382.331C559.645 370.118 558.808 357.904 556.854 345.844C556.796 345.544 555.762 339.629 555.036 336.02C562.95 329.178 570.161 321.563 576.562 313.288C582.314 328.529 585.167 344.711 584.974 361C576.37 369 567.311 376.314 559.354 382.331V382.331ZM385.018 469.271C386.078 469.503 387.102 469.729 388.072 469.949C395.296 471.506 402.599 472.669 409.949 473.435C422.72 481.127 438.394 486.923 457.676 489.471C437.961 489.944 418.398 485.913 400.476 477.686C395.141 475.231 389.976 472.419 385.018 469.271ZM497.6 482.245C513.316 473.593 525.191 463.502 534.093 452.736C541.642 449.316 548.974 445.435 556.047 441.115C553.697 444.027 551.226 446.839 548.633 449.55C534.443 464.326 516.955 475.53 497.6 482.245V482.245Z" fill="#007CFF"/>
<path d="M757.228 353.156C754.315 373.782 750.089 394.201 744.577 414.289C733.683 454.006 719.584 485.489 699.105 521.226C687.354 541.733 681.09 541.326 657.245 544.785C648.752 546.017 503.578 526.978 496.905 523.151C490.232 519.324 484.645 512.638 484.396 504.951C484.216 499.378 478.563 497.751 481.53 493.035C487.89 482.921 496.672 473.881 507.83 469.607C518.363 465.571 617.042 472.953 622.854 472.372C628.666 471.791 634.592 469.247 637.768 464.345C640.209 460.577 649.031 406.783 654.308 383.872C660.033 359.011 670.329 325.872 683.953 304.165C692.609 290.371 703.053 273.976 722.935 276.405C726.611 276.855 748.094 281.005 753.975 300.615C762.32 328.456 758.6 343.437 757.228 353.156Z" fill="#B2DEFF"/>
<path d="M448.935 502.514C462.62 501.4 476.705 502.814 488.861 509.566C489.383 509.926 489.996 510.131 490.629 510.158C491.097 510.094 491.544 509.926 491.939 509.668C493.554 508.824 495.079 507.816 496.489 506.661C500.461 503.241 502.451 497.961 502.904 492.736C503.357 487.511 502.43 482.28 501.419 477.136C491.077 476.229 474.941 474.429 469.21 464.209C467.61 461.359 467.098 458.04 465.918 454.992C461.494 443.571 448.73 437.863 436.8 435.084C424.87 432.305 412.048 431.072 402.062 423.977C400.262 422.701 394.67 417.782 392.527 417.259C390.384 416.736 387.187 425.413 394.961 430.93C403.234 436.8 417.198 443.298 426.57 446.67C426.908 446.794 427.193 447.029 427.379 447.337C427.565 447.645 427.64 448.007 427.592 448.364C427.545 448.721 427.376 449.05 427.116 449.298C426.855 449.546 426.518 449.698 426.159 449.728C423.108 449.992 414.685 447.921 411.389 447.913C403.528 447.895 369.099 437.221 359.18 435.464C355.968 434.895 346.816 434.182 345.257 439.544C344.674 441.55 352.211 442.628 354.182 443.322L403.588 460.69C402.544 462.79 399.716 463.058 397.373 463.047C390.836 463.016 364.839 459.947 361.466 456.356C355.466 464.623 367.22 472.856 374.3 473.633C374.3 473.633 374.877 480.375 385.363 484.31C385.363 484.31 389.463 490.879 391.05 491.993C398.914 497.528 414.85 504.332 427.929 504.485C434.966 504.568 441.92 503.085 448.935 502.514Z" fill="#BA9857"/>
<path d="M448.935 502.514C462.62 501.4 476.705 502.814 488.861 509.566C489.383 509.926 489.996 510.131 490.629 510.158C491.097 510.094 491.544 509.926 491.939 509.668C493.554 508.824 495.079 507.816 496.489 506.661C500.461 503.241 502.451 497.961 502.904 492.736C503.039 489.755 502.902 486.768 502.494 483.812C502.495 483.231 502.325 482.663 502.004 482.179C501.52 481.714 500.891 481.432 500.222 481.379C493.474 480.101 486.541 479.648 479.986 477.599C469.648 474.369 460.864 467.37 450.686 463.668C447.807 462.493 444.711 461.945 441.603 462.06C438.557 462.467 435.599 463.375 432.849 464.747C420.419 470.132 406.949 479.783 394.033 475.685C367.358 467.219 360.995 459.557 361.533 456.097C357.525 458.475 360.676 465.34 362.893 467.716C364.535 469.421 366.47 470.818 368.605 471.839C370.469 472.549 372.372 473.15 374.305 473.639C374.305 473.647 374.889 480.384 385.368 484.316C385.368 484.316 389.468 490.885 391.055 491.999C398.919 497.534 414.855 504.338 427.934 504.491C434.966 504.568 441.92 503.085 448.935 502.514Z" fill="#B28B42"/>
<path d="M569.67 194.675C581.361 208.486 615.662 203.517 632.508 196.947C649.354 190.377 658.393 179.655 669.602 165.719C687.65 143.282 700.85 113.703 692.232 86.141C685.3 64 665 47.354 642.506 40.254C603.038 27.792 568.306 43.133 569.012 81.636C569.406 103.084 558.976 112.802 558.403 139.85C557.914 162.942 566.113 190.475 569.67 194.675Z" fill="#BA9857"/>
<path d="M623.4 199.315C643.3 197.223 657.925 180.24 669.6 165.715C687.648 143.278 700.848 113.699 692.23 86.137C685.3 64 665 47.354 642.506 40.254C625.226 34.798 604.564 33.372 588.46 43.089C580.786 47.719 578.943 53.732 575.514 61.636C571.095 71.8106 568.721 82.755 568.527 93.846C577.061 90.257 587.156 91.446 595.327 95.807C603.498 100.168 609.852 107.423 614.376 115.5C618.9 123.577 621.718 132.491 624.093 141.44C626.624 150.974 628.693 160.698 629.002 170.558C629.311 180.418 627.776 190.473 623.402 199.315" fill="#B18A40"/>
<path d="M685.7 13.3C680.523 7.66878 673.841 3.63963 666.444 1.69C657.61 -0.548003 648.315 0.450995 639.263 1.505C626.484 2.992 613.487 4.627 601.763 9.934C590.263 15.144 580.596 23.621 569.88 30.306C554.066 40.171 541.841 40.135 524.524 36.288C518.894 35.038 512.624 34.803 507.736 37.867C502.848 40.931 500.396 48.241 504.036 52.719C504.594 53.47 505.371 54.0292 506.26 54.319C508.124 54.827 509.96 53.556 511.842 53.128C517.594 51.828 521.823 58.098 525.216 62.922C539.45 83.157 557.947 81.797 576.916 80.436C590.197 79.484 603.716 78.536 616.164 84.987C622.427 88.2113 627.263 93.6538 629.729 100.252C632.178 107.167 629.995 113.991 630.283 121.078C630.367 123.146 630.542 125.353 631.81 126.987C634.151 130.002 638.889 129.534 642.356 127.935C645.823 126.336 649.085 123.868 652.899 123.735C658.319 123.543 662.899 128.435 664.059 133.735C665.219 139.035 658.402 145.991 656.521 151.078C654.64 156.165 652.321 161.191 651.765 166.585C650.649 177.279 665.775 195.193 676.882 191.585C688.022 187.967 695.435 171.61 701.725 162.634C710.367 150.301 720.517 139.062 728.445 126.222C737.512 111.538 743.592 93.767 739.338 77.043C735.084 60.319 717.557 46.4 700.9 50.889C700.356 37.195 694.951 23.089 685.7 13.301" fill="#443012"/>
<path d="M659.743 126.361C661.7 130.068 662.987 134.093 663.543 138.248C664.143 136.823 664.326 135.256 664.069 133.731C663.432 130.883 661.921 128.306 659.746 126.361" fill="#A47F3A"/>
<path d="M521.062 39.65C518.757 39.6289 516.469 40.0471 514.32 40.882C512.056 41.782 509.706 43.926 510.44 46.248C517.592 48.026 525.095 49.903 531.279 54.087C537.14 58.05 539.42 64.836 545.227 68.899C551.17 73.056 558.814 73.699 566.059 74.006C567.851 74.083 569.659 74.114 571.459 74.114C574.82 74.114 578.203 74.008 581.585 73.904C584.967 73.8 588.353 73.693 591.713 73.693C594.552 73.693 597.376 73.768 600.168 73.982C609.792 74.72 619.268 80.748 626.459 86.839C631.183 90.839 635.686 95.671 636.993 101.723C638.127 106.971 636.954 113.2 640.633 117.112C640.839 117.201 641.06 117.249 641.284 117.251C643.155 117.251 644.318 113.73 646.505 113.331C646.637 113.307 646.771 113.294 646.905 113.294C647.858 113.391 648.759 113.778 649.484 114.404C653.767 117.556 657.273 121.646 659.734 126.361C661.909 128.306 663.42 130.883 664.057 133.731C664.314 135.256 664.131 136.823 663.531 138.248C663.737 139.81 663.832 141.385 663.815 142.961C663.755 148.375 662.439 153.699 662.139 159.105C661.839 164.511 662.739 170.339 666.413 174.319C667.485 175.444 668.772 176.342 670.198 176.959C671.624 177.575 673.159 177.899 674.713 177.91C675.849 177.944 676.979 177.742 678.032 177.316C679.086 176.891 680.04 176.252 680.834 175.44C683.621 172.465 683.677 167.962 684.354 163.94C686.454 151.429 696.654 141.133 699.505 128.517C700.434 124.251 700.305 119.822 699.13 115.617C696.888 107.206 691.101 99.399 684.393 93.563C682.742 92.3226 681.321 90.8031 680.193 89.073C679.488 87.6023 678.994 86.0396 678.725 84.431C676.769 75.794 673.258 67.203 666.825 61.112C658.832 53.54 647.434 50.804 636.48 49.674C624.348 48.4243 612.104 48.776 600.063 50.72C589.533 52.42 578.716 55.32 568.211 55.32C563.488 55.3803 558.788 54.6603 554.3 53.189C547.493 50.874 541.569 46.559 535.112 43.389C530.769 41.1061 525.968 39.827 521.065 39.646" fill="#3F2C10"/>
<path d="M644.546 128.764C647.823 124.485 651.22 120.098 655.866 117.364C660.512 114.63 666.772 113.923 671.141 117.081C675.777 120.433 676.89 126.92 676.354 132.616C675.772 138.779 673.604 144.952 669.335 149.434C665.066 153.916 658.506 156.434 652.495 154.96C651.695 154.765 650.752 154.278 650.81 153.46" fill="#B18A40"/>
</g>
<defs>
<linearGradient id="paint0_linear" x1="711.097" y1="629.668" x2="21.3126" y2="-297.69" gradientUnits="userSpaceOnUse">
<stop stop-color="#D5ECF7"/>
<stop offset="0.158" stop-color="#D5ECF7"/>
<stop offset="0.624" stop-color="#E9F5FB"/>
<stop offset="1" stop-color="#F5FAFD"/>
</linearGradient>
<clipPath id="clip0">
<rect width="839" height="577" fill="white"/>
</clipPath>
</defs>
</svg>
