<svg width="1101" height="812" viewBox="0 0 1101 812" fill="none" xmlns="http://www.w3.org/2000/svg">
<g clip-path="url(#clip0_24_414)">
<path opacity="0.05" d="M11.8401 389.02C29.2101 456.15 65.9501 514.18 124.01 542.31C244.71 600.77 516.92 570.62 720.08 536.01C825.17 518.11 917.54 468.71 984.64 399.19L11.8401 389.02Z" fill="#5346F6"/>
<path opacity="0.05" d="M1077.2 73.03H965.73C960.44 73.03 956.1 69.11 956.1 64.32C956.1 59.53 960.44 55.6 965.73 55.6H985.01C979.71 55.6 975.38 51.68 975.38 46.88C975.38 42.08 979.71 38.17 985.01 38.17H971.25C965.95 38.17 961.61 34.25 961.61 29.45C961.61 24.65 965.95 20.74 971.25 20.74H1029.43C1016.52 15.31 1001.43 11.45 984.04 9.41998C825.39 -9.01002 768.75 3.17998 748.77 15.71C723.866 31.5224 696.202 42.4943 667.23 48.05C569.35 66.32 386.3 88.3 220.39 41.05C137.93 17.52 76.6399 57.23 39.9099 123.61H1096.56C1095.18 104.32 1091.05 86.5 1083.47 70.91C1081.67 72.296 1079.47 73.0422 1077.2 73.03V73.03Z" fill="#5346F6"/>
<path opacity="0.05" d="M2.38989 248.9C-1.89165 287.942 -0.436232 327.4 6.70989 366.02L985.39 398.41C1012.33 370.469 1035.22 338.888 1053.39 304.59L2.38989 248.9ZM389.47 332.45H370.2C375.5 332.45 379.84 336.38 379.84 341.17C379.84 345.96 375.5 349.88 370.2 349.88H258.73C253.44 349.88 249.1 345.96 249.1 341.17C249.1 336.38 253.44 332.45 258.73 332.45H278.01C272.71 332.45 268.38 328.53 268.38 323.74C268.38 318.95 272.71 315.02 278.01 315.02H264.24C258.94 315.02 254.6 311.1 254.6 306.31C254.6 301.52 258.94 297.59 264.24 297.59H375.71C381.01 297.59 385.34 301.51 385.34 306.31C385.34 311.11 381.01 315.02 375.71 315.02H389.47C394.77 315.02 399.1 318.94 399.1 323.74C399.1 328.54 394.77 332.45 389.47 332.45Z" fill="#5346F6"/>
<path opacity="0.05" d="M1096.6 124.21L28.12 147.71C15.12 177.94 6.50003 212.12 2.53003 247.54H1077.88C1084.88 226.817 1090.07 205.528 1093.4 183.91C1096.61 163.1 1097.89 142.97 1096.6 124.21ZM219.47 201.26H200.2C205.5 201.26 209.84 205.19 209.84 209.98C209.84 214.77 205.5 218.7 200.2 218.7H88.73C83.44 218.7 79.1 214.77 79.1 209.98C79.1 205.19 83.44 201.26 88.73 201.26H108.01C102.71 201.26 98.38 197.34 98.38 192.55C98.38 187.76 102.71 183.83 108.01 183.83H94.24C88.94 183.83 84.6 179.91 84.6 175.12C84.6 170.33 88.94 166.4 94.24 166.4H205.71C211.01 166.4 215.34 170.32 215.34 175.12C215.34 179.92 211.01 183.83 205.71 183.83H219.47C224.77 183.83 229.1 187.76 229.1 192.55C229.1 197.34 224.77 201.26 219.47 201.26Z" fill="#5346F6"/>
<path opacity="0.05" d="M545.08 781.08C791.94 781.08 992.06 762.67 992.06 739.96C992.06 717.25 791.94 698.84 545.08 698.84C298.22 698.84 98.1001 717.25 98.1001 739.96C98.1001 762.67 298.22 781.08 545.08 781.08Z" fill="#5346F6"/>
<path d="M1000.64 400.32C1000.64 400.25 1000.64 400.18 1000.64 400.11C1000.64 400 1000.64 399.9 1000.64 399.8C1000.44 398.655 1000.01 397.562 999.37 396.59C997.082 392.927 993.894 389.911 990.11 387.83C983.51 384.21 974.44 382.66 971.8 375.75C970.99 373.61 970.97 371.28 970.57 369.04C969.87 365.55 968.265 362.305 965.914 359.632C963.564 356.959 960.552 354.951 957.18 353.81C954.04 352.76 950.65 352.47 947.6 351.17C940.78 348.27 937.18 341.12 934.13 334.51C930.183 325.977 926.237 317.44 922.29 308.9C919.29 310.41 915.41 309.7 912.6 307.81C909.892 305.794 907.736 303.129 906.33 300.06C902.26 292.16 900.51 283.21 895.73 275.69C890.95 268.17 881.4 262.23 872.96 265.5C871.312 266.323 869.608 267.028 867.86 267.61C860.63 269.3 852.63 261.04 846.44 265.05C845.412 265.709 844.574 266.626 844.01 267.71C844.005 267.643 844.005 267.577 844.01 267.51C843.205 269.137 842.755 270.916 842.69 272.73V272.73C842.69 273.1 842.69 273.46 842.69 273.81C842.69 273.87 842.69 273.93 842.69 273.99C842.69 275.43 842.78 276.89 842.8 278.35C842.822 279.576 842.729 280.802 842.52 282.01V281.91C842.403 282.59 842.229 283.259 842 283.91C840.39 288.23 835.93 291.06 833.84 295.12V294.92C833.605 295.362 833.401 295.819 833.23 296.29C832.858 297.354 832.666 298.473 832.66 299.6C832.48 307.23 840.57 314.41 841.51 322.6C842.18 328.4 843.51 330.26 848.44 333.54L849.52 334.26C849.09 334.26 848.65 334.32 848.16 334.33C847.969 334.333 847.778 334.354 847.59 334.39C846.72 334.15 845.808 334.107 844.919 334.263C844.03 334.418 843.187 334.769 842.45 335.29C838.67 338.29 829.73 335.98 825.76 335.29C821.79 334.6 808.19 336.46 806.29 344C804.39 351.54 801.13 367.1 801.13 367.1C801.13 367.1 801.13 376.97 799.92 378.81C799.873 378.939 799.873 379.081 799.92 379.21C799.92 381.98 800.02 398.63 797.34 402.92C796.68 403.92 796.73 406.13 797.22 408.85C794.4 412.48 791.75 416.72 792.22 419.5C793.08 425.19 804.62 443.08 821.16 433.5C821.16 433.5 830.57 416.29 818.73 407.14L819.24 405.14C822.82 409.54 825.47 412.7 825.47 412.7C825.47 412.7 825.61 413.07 825.83 413.7H825.47C827.015 417.905 827.952 422.31 828.25 426.78C828.205 428.419 827.908 430.041 827.37 431.59H827.68C827.59 431.93 827.49 432.27 827.37 432.59C826.789 434.279 825.703 435.748 824.26 436.8C815.99 442.66 806.52 484.51 806.52 484.51C806.52 484.51 787.76 552.16 784.01 556.01C780.91 559.17 800.39 568.07 815.01 567.01C817.051 566.889 819.067 566.505 821.01 565.87C821.1 566.87 821.2 567.87 821.3 568.78C821.61 571.78 821.93 574.56 822.13 575.43C822.65 577.61 823.68 599.87 823.68 599.87C823.68 599.87 821.57 614.33 822.08 624.39C822.08 625.08 822.17 625.74 822.23 626.39L820.41 626.67C817.65 632.87 829.02 684.6 830.57 688.95C831.597 692.378 832.175 695.924 832.29 699.5C832.29 699.5 831.29 703.18 832.12 705.19C832.637 706.418 832.974 707.715 833.12 709.04C833.12 709.04 832.44 712.38 833.47 714.56C834.5 716.74 833.3 720.56 833.3 720.56C833.3 720.56 832.96 735.63 829.86 743.83C829.016 746.037 828.77 748.427 829.148 750.759C829.525 753.092 830.513 755.282 832.01 757.11C832.226 757.395 832.459 757.665 832.71 757.92C832.71 757.92 849.81 758.06 852.82 757.92H853.21C854.42 757.75 857.52 744.19 854.76 737.66C852 731.13 854.42 723.09 854.42 723.09V711.21C854.42 711.21 857.52 708.35 854.42 702.21C851.32 696.07 851.83 694.21 851.83 694.21C851.83 694.21 855.28 684.33 851.66 681.15C848.04 677.97 852.35 665.91 852.35 665.91L853.57 625.71C852.931 625.502 852.28 625.335 851.62 625.21C851.55 624.55 851.48 623.87 851.41 623.15C850.7 615.87 850.09 605.97 851.67 603.15C853.25 600.33 854.01 575.71 854.26 558.6L870.02 559.2C870.35 567.2 870.7 574.5 870.92 575.43C871.44 577.61 872.48 599.87 872.48 599.87C872.48 599.87 870.36 614.33 870.87 624.39C870.87 625.08 870.96 625.74 871.02 626.39L869.2 626.67C866.44 632.87 877.81 684.6 879.36 688.95C880.388 692.378 880.969 695.924 881.09 699.5C881.09 699.5 880.09 703.18 880.91 705.19C881.427 706.418 881.764 707.715 881.91 709.04C881.91 709.04 881.23 712.38 882.26 714.56C883.29 716.74 882.09 720.56 882.09 720.56C882.09 720.56 881.75 735.63 878.65 743.83C877.819 746.04 877.587 748.43 877.977 750.759C878.367 753.087 879.365 755.271 880.87 757.09C881.086 757.375 881.319 757.645 881.57 757.9C881.57 757.9 898.67 758.04 901.68 757.9H902.07C903.28 757.73 906.38 744.17 903.62 737.64C900.86 731.11 903.28 723.07 903.28 723.07V711.21C903.28 711.21 906.38 708.35 903.28 702.21C900.18 696.07 900.69 694.21 900.69 694.21C900.69 694.21 904.14 684.33 900.52 681.15C896.9 677.97 901.21 665.91 901.21 665.91L902.45 625.71C901.795 625.499 901.127 625.332 900.45 625.21C900.38 624.55 900.31 623.87 900.24 623.15C899.53 615.87 898.92 605.97 900.5 603.15C901.77 600.84 902.5 585.96 902.83 571.43C902.83 570.43 902.83 569.43 902.91 568.43C910.151 568.128 917.362 567.32 924.49 566.01C924.49 566.01 916.06 536.2 918.64 531.35C919.75 529.26 918.15 518.13 915.96 506.14C919.014 508.612 922.811 509.986 926.74 510.04C930.51 517.29 941.98 533.97 948.44 536.54C956.02 539.54 950.33 512.94 946.72 509.09C945.012 506.988 943.574 504.68 942.44 502.22C942.54 502.1 942.65 502 942.75 501.89C942.85 501.78 942.93 473.59 941.2 474.1C939.47 474.61 937.41 469.91 937.41 469.91L932.07 423.04L929.83 403.42C931.7 404.8 933.92 405.68 935.83 407.05C941.03 410.86 942.73 417.55 945.01 423.47C946.89 428.34 949.53 433.17 953.86 436.23C958.19 439.29 964.54 440.1 968.86 437C972.86 434.09 974.04 428.84 974.92 424.05C982.18 426.6 990.99 419.78 990.05 412.33C989.82 410.49 989.14 408.48 990.1 406.87C992.02 403.69 998.1 405.54 1000.1 402.4C1000.44 401.857 1000.61 401.229 1000.6 400.59C1000.63 400.45 1000.64 400.39 1000.64 400.32ZM903.53 426.1C903.42 427.89 905.88 442.27 907.88 453.65C906.24 446.56 902.95 438.99 896.47 433.8C896.47 433.8 896.47 433.44 896.39 432.8H896.47C896.47 432.8 896.2 429.94 896.16 425.87C896.172 422.262 896.439 418.66 896.96 415.09V415H896.83C896.83 414.7 896.91 414.39 896.96 414.09C897.358 411.077 898.175 408.135 899.39 405.35C899.927 404.258 900.545 403.209 901.24 402.21C902.31 411.88 903.63 424.29 903.53 426.1V426.1ZM908.91 459.42C909.79 464.33 910.42 467.78 910.42 467.78L915.73 504.24V504.41C912.87 489.02 909.22 472.8 909.22 472.8C909.592 468.342 909.488 463.856 908.91 459.42V459.42Z" fill="url(#paint0_linear_24_414)"/>
<path d="M843.83 324.6C842.83 315.36 832.83 307.39 835.83 298.6C837.46 293.81 842.56 290.88 844.28 286.12C845.42 282.98 844.91 279.53 844.92 276.19C844.93 272.85 845.71 269.12 848.49 267.27C854.49 263.27 862.21 271.5 869.21 269.82C870.902 269.241 872.55 268.539 874.14 267.72C882.31 264.47 891.55 270.39 896.14 277.87C900.73 285.35 902.45 294.27 906.39 302.13C907.735 305.165 909.818 307.816 912.45 309.84C915.17 311.72 918.89 312.43 921.83 310.93L933.28 336.43C936.28 343 939.72 350.12 946.28 353.01C949.22 354.3 952.5 354.59 955.54 355.64C958.844 356.805 961.784 358.818 964.065 361.477C966.347 364.136 967.89 367.347 968.54 370.79C968.93 373.03 968.94 375.35 969.73 377.48C972.28 384.36 981.05 385.9 987.44 389.48C991.137 391.564 994.236 394.564 996.44 398.19C997.44 399.92 998.3 402.19 997.23 403.89C995.3 407.01 989.43 405.17 987.57 408.34C986.63 409.94 987.29 411.94 987.57 413.78C988.48 421.19 979.95 427.98 972.93 425.44C972.08 430.21 970.93 435.44 967.07 438.33C962.92 441.43 956.77 440.61 952.58 437.57C948.39 434.53 945.85 429.72 944.03 424.87C941.82 418.97 940.17 412.31 935.14 408.52C933.32 407.16 931.14 406.28 929.36 404.91C925.36 401.85 923.36 396.8 921.93 391.91C920.08 385.81 918.61 379.54 915.93 373.78C913.25 368.02 909.01 362.66 903.2 360.03C897.75 357.58 891.47 357.74 885.84 355.75C876.15 352.33 868.98 344.18 859.34 340.34C856.258 339.045 853.338 337.393 850.64 335.42C845.79 332.23 844.47 330.38 843.83 324.6Z" fill="#3F3D56"/>
<g opacity="0.1">
<path opacity="0.1" d="M844.73 284.16C844.936 283.769 845.117 283.365 845.27 282.95C846.4 279.81 845.9 276.36 845.91 273.02C845.909 271.906 846.013 270.795 846.22 269.7C845.297 271.676 844.849 273.84 844.91 276.02C844.9 278.71 845.22 281.53 844.73 284.16Z" fill="#412381"/>
<path opacity="0.1" d="M968.01 435.19C963.86 438.28 957.71 437.47 953.52 434.42C949.33 431.37 946.78 426.58 945.01 421.71C942.8 415.81 941.16 409.15 936.12 405.36C934.31 404 932.12 403.11 930.35 401.75C926.35 398.69 924.35 393.64 922.91 388.8C921.06 382.7 919.6 376.43 916.91 370.67C914.22 364.91 910 359.55 904.18 356.92C898.74 354.47 892.46 354.63 886.83 352.64C877.13 349.22 869.96 341.07 860.33 337.23C857.247 335.931 854.324 334.28 851.62 332.31C846.88 329.04 845.62 327.19 844.92 321.42C843.92 312.76 835.12 305.21 836.49 297.05C836.267 297.491 836.07 297.945 835.9 298.41C832.9 307.21 842.9 315.18 843.9 324.41C844.55 330.18 845.9 332.03 850.6 335.3C853.304 337.27 856.227 338.921 859.31 340.22C868.94 344.06 876.11 352.22 885.81 355.63C891.44 357.63 897.72 357.46 903.16 359.91C908.98 362.54 913.16 367.91 915.89 373.66C918.62 379.41 920.08 385.66 921.89 391.79C923.36 396.63 925.29 401.68 929.33 404.74C931.14 406.1 933.33 406.99 935.1 408.35C940.1 412.14 941.78 418.8 943.99 424.7C945.81 429.55 948.36 434.35 952.55 437.39C956.74 440.43 962.89 441.25 967.04 438.16C969.69 436.16 971.04 433.11 971.93 429.84C971.139 431.949 969.783 433.8 968.01 435.19V435.19Z" fill="#412381"/>
<path opacity="0.1" d="M988.56 405.2C988.178 405.917 988.011 406.73 988.08 407.54C990.34 405.31 995.44 406.62 997.22 403.75C997.633 403.041 997.795 402.213 997.68 401.4C995.36 403.6 990.26 402.29 988.56 405.2Z" fill="#412381"/>
<path opacity="0.1" d="M973.87 422.3C973.68 423.3 973.49 424.37 973.25 425.41C979.37 427.32 986.44 422.41 987.44 416.21C985.01 420.98 979.01 424.17 973.87 422.3Z" fill="#412381"/>
</g>
<path d="M856.75 329.41C856.75 329.41 860.08 336.13 850.25 336.27C840.42 336.41 856.58 379.91 856.58 379.91L872.92 400.71L893.25 389.71L894.42 359.37L895.92 341.04C895.92 341.04 876.92 334.87 880.42 326.71C883.92 318.55 856.75 329.41 856.75 329.41Z" fill="#FBBEBE"/>
<path d="M915.76 506.77C915.76 506.77 927.76 518.58 941.76 502.91L931.01 491.5H917.41L915.76 506.77Z" fill="#633ABA"/>
<path opacity="0.1" d="M917.06 491.5L915.41 506.77C915.41 506.77 927.41 518.58 941.41 502.91" fill="#412381"/>
<path d="M937.25 493.58C937.25 493.58 942.08 506.25 945.58 510.08C949.08 513.91 954.58 540.41 947.25 537.41C939.92 534.41 925.92 512.08 925.08 508.25C924.24 504.42 923.92 493.58 923.92 493.58H937.25Z" fill="#FBBEBE"/>
<path d="M832.42 558.58L897.08 561.08L889.58 533.74L857.01 533.08L832.42 558.58Z" fill="#633ABA"/>
<path opacity="0.1" d="M841.41 558.58L906.08 561.08L898.58 533.74L866 533.08L841.41 558.58Z" fill="#412381"/>
<path d="M853.58 603.71C852.05 606.56 852.64 616.42 853.33 623.71C853.77 628.35 854.25 631.92 854.25 631.92C854.25 631.92 830.08 639.42 826.42 632.92C825.49 631.27 825.03 628.38 824.87 624.99C824.37 614.99 826.42 600.58 826.42 600.58C826.42 600.58 825.42 578.42 824.92 576.25C824.72 575.38 824.41 572.62 824.11 569.63C823.67 565.19 823.25 560.25 823.25 560.25L856.25 542.75C856.25 542.75 856.25 546.03 856.19 551.08C856.01 566.94 855.48 600.21 853.58 603.71Z" fill="#FBBEBE"/>
<path opacity="0.1" d="M854.25 631.92C854.25 631.92 830.08 639.42 826.42 632.92C825.49 631.27 825.03 628.38 824.87 624.99C829.87 624.23 845.09 622.13 853.33 623.71C853.77 628.35 854.25 631.92 854.25 631.92Z" fill="#412381"/>
<path d="M855.08 757.92H854.7C851.79 758.03 835.25 757.92 835.25 757.92C835.008 757.667 834.781 757.4 834.57 757.12C833.108 755.29 832.143 753.114 831.766 750.802C831.39 748.49 831.615 746.12 832.42 743.92C835.42 735.75 835.75 720.75 835.75 720.75C835.75 720.75 836.92 716.92 835.92 714.75C834.92 712.58 835.58 709.25 835.58 709.25C835.426 707.933 835.09 706.644 834.58 705.42C833.75 703.42 834.75 699.75 834.75 699.75C834.635 696.194 834.074 692.666 833.08 689.25C831.58 684.92 820.58 633.42 823.25 627.25C823.25 627.25 846.58 623.25 855.42 626.25L854.25 666.25C854.25 666.25 850.08 678.25 853.58 681.42C857.08 684.59 853.75 694.42 853.75 694.42C853.75 694.42 853.25 696.25 856.25 702.42C859.25 708.59 856.25 711.42 856.25 711.42V723.25C856.25 723.25 853.92 731.25 856.58 737.75C859.24 744.25 856.25 757.71 855.08 757.92Z" fill="#3F3D56"/>
<path d="M900.87 603.71C899.34 606.56 899.93 616.42 900.62 623.71C901.06 628.35 901.54 631.92 901.54 631.92C901.54 631.92 877.37 639.42 873.71 632.92C872.78 631.27 872.32 628.38 872.16 624.99C871.66 614.99 873.71 600.58 873.71 600.58C873.71 600.58 872.71 578.42 872.21 576.25C871.94 575.08 871.47 563.92 871.1 553.91C870.79 545.37 870.54 537.65 870.54 537.65L903.54 542.75C903.54 542.75 903.54 557.26 903.13 572.17C902.77 586.63 902.1 601.45 900.87 603.71Z" fill="#FBBEBE"/>
<path opacity="0.1" d="M901.54 631.92C901.54 631.92 877.37 639.42 873.71 632.92C872.78 631.27 872.32 628.38 872.16 624.99C877.16 624.23 892.38 622.13 900.62 623.71C901.06 628.35 901.54 631.92 901.54 631.92Z" fill="#412381"/>
<path d="M902.37 757.92H901.99C899.08 758.03 882.54 757.92 882.54 757.92C882.298 757.667 882.071 757.4 881.86 757.12C880.398 755.289 879.433 753.114 879.056 750.802C878.68 748.49 878.905 746.12 879.71 743.92C882.71 735.71 883.01 720.71 883.01 720.71C883.01 720.71 884.18 716.88 883.18 714.71C882.18 712.54 882.84 709.21 882.84 709.21C882.686 707.893 882.35 706.604 881.84 705.38C881.01 703.38 882.01 699.71 882.01 699.71C881.895 696.154 881.334 692.626 880.34 689.21C878.84 684.88 867.84 633.38 870.51 627.21C870.51 627.21 893.84 623.21 902.68 626.21L901.51 666.21C901.51 666.21 897.34 678.21 900.84 681.38C904.34 684.55 901.01 694.38 901.01 694.38C901.01 694.38 900.51 696.21 903.51 702.38C906.51 708.55 903.51 711.38 903.51 711.38V723.21C903.51 723.21 901.18 731.21 903.84 737.71C906.5 744.21 903.54 757.71 902.37 757.92Z" fill="#3F3D56"/>
<path opacity="0.1" d="M869.75 337.27C882.729 337.27 893.25 326.749 893.25 313.77C893.25 300.791 882.729 290.27 869.75 290.27C856.771 290.27 846.25 300.791 846.25 313.77C846.25 326.749 856.771 337.27 869.75 337.27Z" fill="#412381"/>
<path d="M869.75 336.27C882.729 336.27 893.25 325.749 893.25 312.77C893.25 299.791 882.729 289.27 869.75 289.27C856.771 289.27 846.25 299.791 846.25 312.77C846.25 325.749 856.771 336.27 869.75 336.27Z" fill="#FBBEBE"/>
<path opacity="0.1" d="M823.25 560.25L856.25 542.75C856.25 542.75 856.25 546.03 856.19 551.08C851.37 553.96 844.1 558.29 837.11 562.38C833.31 564.61 829.6 566.77 826.42 568.58C825.681 568.981 824.908 569.316 824.11 569.58C823.67 565.19 823.25 560.25 823.25 560.25Z" fill="#412381"/>
<path opacity="0.1" d="M903.54 542.71C903.54 542.71 903.54 557.22 903.13 572.13H903.01C900.544 572.218 898.076 572.141 895.62 571.9C891.31 571.44 887.86 570.3 886.62 568.04C884.11 563.64 877.08 558.04 871.14 553.87C870.83 545.33 870.58 537.61 870.58 537.61L903.54 542.71Z" fill="#412381"/>
<path d="M897.4 415.62C896.564 422.129 896.403 428.708 896.92 435.25C912.08 447.75 909.25 474.08 909.25 474.08C909.25 474.08 920.92 527.42 918.42 532.25C915.92 537.08 924.08 566.75 924.08 566.75C917.125 568.068 910.083 568.877 903.01 569.17C900.544 569.258 898.076 569.181 895.62 568.94C891.31 568.48 887.86 567.34 886.62 565.08C881.96 556.92 861.79 544.75 861.79 544.75C861.79 544.75 849.01 552.41 837.11 559.38C833.31 561.61 829.6 563.77 826.42 565.58C823.839 566.949 820.988 567.731 818.07 567.87C803.92 568.92 785.07 560.06 788.07 556.92C791.74 553.08 809.91 485.75 809.91 485.75C809.91 485.75 819.07 444.08 827.07 438.25C828.473 437.191 829.519 435.729 830.07 434.06C832.81 426.45 828.23 414.25 828.23 414.25C828.23 414.25 802.4 382.42 803.56 380.58C804.72 378.74 804.73 368.92 804.73 368.92C804.73 368.92 807.9 353.42 809.73 345.92C811.56 338.42 824.73 336.58 828.56 337.25C832.39 337.92 841.05 340.25 844.71 337.25C848.37 334.25 854.55 338.42 854.55 338.42L869.73 342.6L883.38 334.6C883.38 334.6 897.06 335.3 898.23 337.13C899.4 338.96 917.4 342.47 917.4 342.47C926.56 348.63 926.23 377.97 926.23 377.97C926.23 377.97 904.23 397.13 899.73 406.97C898.564 409.734 897.781 412.644 897.4 415.62V415.62Z" fill="#633ABA"/>
<path d="M921.25 373.91L926.25 377.91L931.42 424.41L936.58 471.08C936.58 471.08 938.58 475.75 940.25 475.25C941.92 474.75 941.75 502.91 941.75 502.91C941.75 502.91 922.61 491.14 915.75 506.77L910.41 469.08C910.41 469.08 903.57 430.58 903.74 427.58C903.91 424.58 900.24 392.08 900.24 392.08L921.25 373.91Z" fill="#633ABA"/>
<path d="M807.25 376.08L803.58 380.58C803.58 380.58 803.92 399.91 801.08 404.58C798.24 409.25 808.92 436.58 812.92 434.91C816.92 433.24 825.92 390.58 825.92 390.08C825.92 389.58 807.25 376.08 807.25 376.08Z" fill="#633ABA"/>
<path d="M806.92 403.58C806.92 403.58 795.25 415.41 796.08 421.08C796.91 426.75 808.08 444.56 824.08 434.99C824.08 434.99 838.92 407.08 806.92 403.58Z" fill="#633ABA"/>
<path opacity="0.1" d="M854.7 757.95C851.79 758.06 835.25 757.95 835.25 757.95C835.008 757.697 834.781 757.43 834.57 757.15C838.8 755.71 847.94 753.55 854.7 757.95Z" fill="#412381"/>
<path opacity="0.1" d="M902.01 757.95C899.1 758.06 882.56 757.95 882.56 757.95C882.318 757.697 882.091 757.43 881.88 757.15C886.09 755.71 895.23 753.55 902.01 757.95Z" fill="#412381"/>
<path opacity="0.1" d="M838.29 464.82C835.74 489.28 836.58 537.82 837.11 559.38C833.31 561.61 829.6 563.77 826.42 565.58C823.839 566.949 820.988 567.731 818.07 567.87C817.01 561.35 831.69 494.38 838.29 464.82Z" fill="#412381"/>
<path opacity="0.1" d="M841.41 450.94C841.34 451.29 840.13 456.61 838.29 464.82C839.01 457.81 840.01 452.78 841.41 450.94Z" fill="#412381"/>
<path opacity="0.1" d="M882.01 448.3C882.01 448.3 896.18 537.3 854.22 548.3C854.21 548.26 883.25 543.85 882.01 448.3Z" fill="#412381"/>
<path opacity="0.1" d="M903.01 569.17C900.544 569.258 898.076 569.181 895.62 568.94L884.3 447.25C891.52 451.97 900.16 538.33 903.01 569.17Z" fill="#412381"/>
<path opacity="0.1" d="M852.25 298.95C853.001 298.89 853.757 298.968 854.48 299.18C855.541 299.709 856.497 300.427 857.3 301.3C858.604 302.39 860.163 303.131 861.832 303.455C863.5 303.778 865.223 303.673 866.84 303.15C867.98 302.64 869.19 302.303 870.43 302.15C872.34 302.15 873.99 303.55 874.98 305.15C875.97 306.75 876.48 308.65 877.33 310.36C878.18 312.07 879.54 313.69 881.41 314.11C882.307 314.145 883.189 314.348 884.01 314.71C884.513 315.119 884.9 315.654 885.13 316.26C886.69 319.63 887.93 323.61 891.26 325.26C892.485 325.828 893.82 326.118 895.17 326.11C896.543 326.211 897.919 325.963 899.17 325.39C900.401 324.703 901.418 323.689 902.11 322.46C904.19 319.02 904.43 314.76 903.94 310.77C903.329 305.737 901.537 300.919 898.71 296.71C895.732 292.453 891.677 289.063 886.959 286.886C882.242 284.71 877.032 283.824 871.86 284.32C870.055 284.523 868.267 284.857 866.51 285.32C860.15 287.02 853.91 290.2 850.05 295.53C849.117 296.86 848.091 298.124 846.98 299.31C848.73 299.14 850.49 298.99 852.25 298.95Z" fill="#412381"/>
<path d="M852.25 297.95C853.001 297.89 853.757 297.968 854.48 298.18C855.541 298.709 856.497 299.427 857.3 300.3C858.604 301.39 860.163 302.131 861.832 302.455C863.5 302.778 865.223 302.673 866.84 302.15C867.98 301.64 869.19 301.303 870.43 301.15C872.34 301.15 873.99 302.55 874.98 304.15C875.97 305.75 876.48 307.65 877.33 309.36C878.18 311.07 879.54 312.69 881.41 313.11C882.307 313.145 883.189 313.348 884.01 313.71C884.513 314.119 884.9 314.654 885.13 315.26C886.69 318.63 887.93 322.61 891.26 324.26C892.485 324.828 893.82 325.118 895.17 325.11C896.543 325.211 897.919 324.963 899.17 324.39C900.401 323.703 901.418 322.689 902.11 321.46C904.19 318.02 904.43 313.76 903.94 309.77C903.329 304.737 901.537 299.919 898.71 295.71C895.732 291.453 891.677 288.063 886.959 285.886C882.242 283.71 877.032 282.824 871.86 283.32C870.055 283.523 868.267 283.857 866.51 284.32C860.15 286.02 853.91 289.2 850.05 294.53C849.117 295.86 848.091 297.124 846.98 298.31C848.73 298.14 850.49 297.99 852.25 297.95Z" fill="#3F3D56"/>
<path opacity="0.1" d="M826.75 353.91C826.75 353.91 827.92 363.25 823.92 365.58C819.92 367.91 826.75 353.91 826.75 353.91Z" fill="#412381"/>
<path opacity="0.1" d="M911.58 426.25C911.58 426.25 921.08 412.25 922.42 416.25C923.76 420.25 911.58 426.25 911.58 426.25Z" fill="#412381"/>
<path opacity="0.1" d="M912.25 430.91C912.25 430.91 921.62 419.41 922.52 423.91C923.42 428.41 912.25 430.91 912.25 430.91Z" fill="#412381"/>
<path opacity="0.1" d="M884.73 417.22C881.332 417.268 878.015 416.177 875.31 414.12H874.49C871.684 416.683 868 418.069 864.2 417.99C862.224 418.036 860.26 417.68 858.426 416.944C856.592 416.209 854.926 415.108 853.53 413.71H852.44C849.561 416.055 845.945 417.304 842.232 417.236C838.52 417.169 834.952 415.788 832.16 413.34L828.25 413.27C828.25 413.27 832.83 425.47 830.09 433.08L896.92 434.27C896.403 427.728 896.564 421.149 897.4 414.64V414.55L893.73 414.48C891.09 416.311 887.943 417.269 884.73 417.22Z" fill="#412381"/>
<path opacity="0.1" d="M884.73 419.22C881.332 419.268 878.015 418.177 875.31 416.12H874.49C871.684 418.683 868 420.069 864.2 419.99C862.224 420.036 860.26 419.68 858.426 418.944C856.592 418.209 854.926 417.108 853.53 415.71H852.44C849.561 418.055 845.945 419.304 842.232 419.236C838.52 419.169 834.952 417.788 832.16 415.34L828.25 415.27C828.25 415.27 832.83 427.47 830.09 435.08L896.92 436.27C896.403 429.728 896.564 423.149 897.4 416.64V416.55L893.73 416.48C891.09 418.311 887.943 419.269 884.73 419.22Z" fill="#412381"/>
<path d="M884.73 418.22C881.332 418.268 878.015 417.177 875.31 415.12H874.49C871.684 417.683 868 419.069 864.2 418.99C862.224 419.036 860.26 418.68 858.426 417.944C856.592 417.209 854.926 416.108 853.53 414.71H852.44C849.561 417.055 845.945 418.304 842.232 418.236C838.52 418.169 834.952 416.788 832.16 414.34L828.25 414.27C828.25 414.27 832.83 426.47 830.09 434.08L896.92 435.27C896.403 428.728 896.564 422.149 897.4 415.64V415.55L893.73 415.48C891.09 417.311 887.943 418.269 884.73 418.22V418.22Z" fill="#3F3D56"/>
<path opacity="0.1" d="M881.76 351.54C881.76 351.54 895.83 352.44 895.92 354.44C896.01 356.44 881.76 351.54 881.76 351.54Z" fill="#412381"/>
<path opacity="0.1" d="M847.58 343.01C847.58 343.01 833.51 343.91 833.42 345.91C833.33 347.91 847.58 343.01 847.58 343.01Z" fill="#412381"/>
<path opacity="0.1" d="M901.35 383.9C901.21 383.8 901.07 383.72 900.93 383.63C904.53 386.87 903.93 393.95 899.51 399.79C895.09 405.63 888.38 408.06 884.3 405.44C884.43 405.55 884.54 405.67 884.68 405.78C888.68 408.84 895.68 406.44 900.3 400.4C904.92 394.36 905.37 386.97 901.35 383.9Z" fill="#412381"/>
<path opacity="0.1" d="M824.06 399.04C820.5 392.62 820.96 385.53 824.99 382.84C824.84 382.91 824.68 382.97 824.53 383.05C820.11 385.51 819.53 392.88 823.19 399.52C826.85 406.16 833.45 409.52 837.87 407.1C838.016 407.016 838.156 406.922 838.29 406.82C833.88 408.82 827.62 405.46 824.06 399.04Z" fill="#412381"/>
<path opacity="0.1" d="M828.82 344.9L827.53 346.9L824.24 345.15L825.97 342.49C827.114 343.031 828.097 343.862 828.82 344.9V344.9Z" fill="#412381"/>
<path d="M807.92 418.91C807.92 418.91 810.85 405.13 806.92 400.75C802.99 396.37 804.25 373.41 810.25 373.91C816.25 374.41 825.25 392.57 823.75 396.41C822.25 400.25 816.58 419.91 816.58 419.91L807.92 418.91Z" fill="#FBBEBE"/>
<path opacity="0.1" d="M902.01 319.49C901.318 320.719 900.301 321.733 899.07 322.42C897.819 322.993 896.443 323.241 895.07 323.14C893.72 323.148 892.385 322.858 891.16 322.29C887.83 320.63 886.59 316.65 885.03 313.29C884.833 312.684 884.481 312.139 884.01 311.71C883.2 311.342 882.328 311.128 881.44 311.08C879.57 310.66 878.22 309.03 877.36 307.33C876.5 305.63 875.99 303.75 875.01 302.12C874.03 300.49 872.37 299.06 870.46 299.12C869.217 299.285 868.006 299.639 866.87 300.17C865.252 300.689 863.529 300.791 861.861 300.466C860.193 300.141 858.634 299.399 857.33 298.31C856.527 297.437 855.571 296.719 854.51 296.19C853.787 295.978 853.031 295.9 852.28 295.96C851.13 295.96 849.99 296.07 848.84 296.16C848.27 296.907 847.66 297.621 847.01 298.3C848.76 298.15 850.52 298 852.28 297.96C853.031 297.9 853.787 297.978 854.51 298.19C855.571 298.719 856.527 299.437 857.33 300.31C858.634 301.399 860.193 302.141 861.861 302.466C863.529 302.791 865.252 302.689 866.87 302.17C868.006 301.639 869.217 301.285 870.46 301.12C872.37 301.12 874.02 302.52 875.01 304.12C876 305.72 876.51 307.62 877.36 309.33C878.21 311.04 879.57 312.66 881.44 313.08C882.328 313.128 883.2 313.342 884.01 313.71C884.513 314.119 884.9 314.654 885.13 315.26C886.69 318.63 887.93 322.61 891.26 324.26C892.485 324.828 893.82 325.118 895.17 325.11C896.543 325.211 897.919 324.963 899.17 324.39C900.401 323.703 901.418 322.689 902.11 321.46C903.663 318.633 904.358 315.415 904.11 312.2C904.034 314.768 903.312 317.275 902.01 319.49V319.49Z" fill="#412381"/>
<path d="M812.35 429.84C817.321 429.84 821.35 427.109 821.35 423.74C821.35 420.371 817.321 417.64 812.35 417.64C807.38 417.64 803.35 420.371 803.35 423.74C803.35 427.109 807.38 429.84 812.35 429.84Z" fill="#633ABA"/>
<path d="M518.99 763.29C689.37 763.29 827.49 625.17 827.49 454.79C827.49 284.41 689.37 146.29 518.99 146.29C348.61 146.29 210.49 284.41 210.49 454.79C210.49 625.17 348.61 763.29 518.99 763.29Z" fill="#5346F6"/>
<path d="M680.86 609.82C680.86 658.52 604.3 613.98 522.22 613.98C440.14 613.98 357.12 656.68 357.12 607.98C357.12 580.21 383.58 541.59 421.54 513.54C450.14 492.4 485.26 477.26 520.54 477.26C556.82 477.26 592.36 493.65 620.71 516.15C656.49 544.52 680.86 582.64 680.86 609.82Z" fill="#444053"/>
<path d="M620.7 516.13C577.07 509.56 498.16 501.55 421.54 513.52C450.14 492.38 485.26 477.24 520.54 477.24C556.81 477.24 592.35 493.63 620.7 516.13Z" fill="#F6F8FB"/>
<path opacity="0.25" d="M357.12 237.02C357.12 237.02 264.19 296.43 264.95 389.36C265.71 482.29 357.12 237.02 357.12 237.02Z" fill="#444053"/>
<path d="M827.37 69.23C827.37 69.23 743.17 64.16 753.1 123.16C753.1 123.16 751.1 133.58 760.58 138.32C760.58 138.32 760.73 133.95 769.21 135.43C772.232 135.936 775.303 136.083 778.36 135.87C782.491 135.589 786.416 133.967 789.54 131.25V131.25C789.54 131.25 813.21 121.48 822.42 82.79C822.42 82.79 829.23 74.35 828.96 72.19L814.75 78.25C814.75 78.25 819.6 88.5 815.75 97.02C815.75 97.02 815.29 78.63 812.56 79.02C812.01 79.11 805.18 82.57 805.18 82.57C805.18 82.57 813.53 100.43 807.18 113.4C807.18 113.4 809.57 91.4 802.52 83.86L792.52 89.7C792.52 89.7 802.28 108.14 795.66 123.19C795.66 123.19 797.36 100.11 790.42 91.12L781.35 98.19C781.35 98.19 790.52 116.37 784.93 128.85C784.93 128.85 784.2 101.98 779.39 99.95C779.39 99.95 771.46 106.95 770.25 109.82C770.25 109.82 776.53 123.01 772.64 129.97C772.64 129.97 770.25 112.07 768.29 111.97C768.29 111.97 760.39 123.83 759.56 131.97C759.56 131.97 759.91 119.87 766.37 110.84C766.37 110.84 758.73 112.15 754.28 117.11C754.28 117.11 755.51 108.72 768.28 107.99C768.28 107.99 774.81 98.99 776.56 98.45C776.56 98.45 763.81 97.38 756.08 100.81C756.08 100.81 762.88 92.9 778.89 96.49L787.89 89.19C787.89 89.19 771.11 86.89 763.99 89.43C763.99 89.43 772.18 82.43 790.3 87.53L800.05 81.7C800.05 81.7 785.74 78.62 777.21 79.7C777.21 79.7 786.21 74.85 802.9 80.11L809.9 76.98C809.9 76.98 799.41 74.92 796.34 74.6C793.27 74.28 793.11 73.42 793.11 73.42C799.772 72.3369 806.604 73.1298 812.84 75.71C812.84 75.71 827.62 70.16 827.37 69.23Z" fill="#26BB8F"/>
<path d="M741.01 43C741.01 43 703.01 40.7 707.45 67.36C707.45 67.36 706.56 72.07 710.83 74.21C710.83 74.21 710.89 72.21 714.73 72.91C716.094 73.1346 717.48 73.2017 718.86 73.11C720.728 72.9767 722.502 72.2436 723.92 71.02V71.02C723.92 71.02 734.61 66.6 738.77 49.12C738.77 49.12 741.85 45.31 741.77 44.33L735.35 47.07C735.35 47.07 737.55 51.7 735.82 55.55C735.82 55.55 735.61 47.24 734.38 47.44C734.13 47.44 731.04 49.04 731.04 49.04C731.04 49.04 734.82 57.11 731.97 62.97C731.97 62.97 733.05 53.03 729.87 49.62L725.35 52.26C725.35 52.26 729.76 60.6 726.77 67.4C726.77 67.4 727.53 56.97 724.4 52.91L720.3 56.1C720.3 56.1 724.44 64.31 721.92 69.95C721.92 69.95 721.59 57.81 719.41 56.89C719.41 56.89 715.83 60.05 715.28 61.35C715.28 61.35 718.12 67.35 716.36 70.46C716.36 70.46 715.28 62.37 714.36 62.34C714.36 62.34 710.79 67.69 710.42 71.34C710.592 67.9432 711.65 64.6507 713.49 61.79C711.432 62.1793 709.534 63.1632 708.03 64.62C708.03 64.62 708.58 60.83 714.37 60.5C714.37 60.5 717.32 56.44 718.11 56.19C718.11 56.19 712.35 55.71 708.86 57.26C708.86 57.26 711.93 53.68 719.17 55.26L723.17 51.97C723.17 51.97 715.59 50.97 712.37 52.07C712.37 52.07 716.07 48.91 724.26 51.22L728.66 48.58C728.66 48.58 722.2 47.19 718.34 47.69C718.34 47.69 722.41 45.5 729.95 47.88L733.1 46.46C733.1 46.46 728.36 45.53 726.98 45.39C725.6 45.25 725.51 44.86 725.51 44.86C728.512 44.3606 731.594 44.7069 734.41 45.86C734.41 45.86 741.12 43.42 741.01 43Z" fill="#FFC107"/>
<path opacity="0.05" d="M1073.09 730.01C1087.96 730.01 1100.02 727.973 1100.02 725.46C1100.02 722.947 1087.96 720.91 1073.09 720.91C1058.22 720.91 1046.16 722.947 1046.16 725.46C1046.16 727.973 1058.22 730.01 1073.09 730.01Z" fill="#5346F6"/>
<path opacity="0.05" d="M46.7701 805.7C61.6431 805.7 73.7001 803.663 73.7001 801.15C73.7001 798.637 61.6431 796.6 46.7701 796.6C31.8971 796.6 19.8401 798.637 19.8401 801.15C19.8401 803.663 31.8971 805.7 46.7701 805.7Z" fill="#5346F6"/>
<path opacity="0.1" d="M203.1 811.41C217.973 811.41 230.03 809.373 230.03 806.86C230.03 804.347 217.973 802.31 203.1 802.31C188.227 802.31 176.17 804.347 176.17 806.86C176.17 809.373 188.227 811.41 203.1 811.41Z" fill="#5346F6"/>
<path d="M1014.15 781.02C1036.36 781.02 1054.36 777.975 1054.36 774.22C1054.36 770.464 1036.36 767.42 1014.15 767.42C991.943 767.42 973.94 770.464 973.94 774.22C973.94 777.975 991.943 781.02 1014.15 781.02Z" fill="#5346F6"/>
<path d="M1030.77 763.11C1032.61 761.612 1033.94 759.593 1034.61 757.32C1035.1 755.03 1034.12 752.27 1031.93 751.43C1029.47 750.49 1026.84 752.2 1024.85 753.92C1022.86 755.64 1020.57 757.6 1017.96 757.24C1019.3 756.025 1020.31 754.482 1020.87 752.762C1021.44 751.043 1021.55 749.206 1021.2 747.43C1021.09 746.694 1020.78 746.003 1020.3 745.43C1018.93 743.97 1016.46 744.59 1014.82 745.74C1009.62 749.4 1008.17 756.46 1008.14 762.82C1007.62 760.53 1008.06 758.14 1008.05 755.82C1008.04 753.5 1007.39 750.82 1005.41 749.59C1004.18 748.934 1002.8 748.61 1001.41 748.65C999.07 748.56 996.47 748.79 994.87 750.5C992.87 752.63 993.4 756.19 995.13 758.5C996.86 760.81 999.48 762.31 1001.89 763.92C1003.83 765.073 1005.48 766.649 1006.73 768.53C1006.88 768.795 1007 769.073 1007.09 769.36H1021.74C1025.02 767.693 1028.06 765.591 1030.77 763.11V763.11Z" fill="#5346F6"/>
<path d="M59.34 679.26C59.34 679.26 64.83 686.44 56.8 697.26C48.77 708.08 42.15 717.26 44.8 724.02C44.8 724.02 56.91 703.88 66.8 703.59C76.69 703.3 70.18 691.37 59.34 679.26Z" fill="#26BB8F"/>
<path opacity="0.1" d="M59.34 679.26C59.8168 679.954 60.1938 680.711 60.46 681.51C70.08 692.81 75.2 703.36 65.96 703.62C57.34 703.87 46.96 719.27 44.53 723.16C44.615 723.462 44.7151 723.759 44.83 724.05C44.83 724.05 56.94 703.91 66.83 703.62C76.72 703.33 70.18 691.37 59.34 679.26Z" fill="#412381"/>
<path d="M69.55 688.41C69.55 690.94 69.26 692.99 68.91 692.99C68.56 692.99 68.28 690.99 68.28 688.41C68.28 685.83 68.63 687.07 68.99 687.07C69.35 687.07 69.55 685.88 69.55 688.41Z" fill="#FFD037"/>
<path d="M73.0099 691.43C70.7899 692.64 68.8599 693.37 68.6899 693.06C68.5199 692.75 70.1899 691.53 72.4099 690.32C74.6299 689.11 73.7499 689.99 73.9199 690.32C74.0899 690.65 75.2699 690.22 73.0099 691.43Z" fill="#FFD037"/>
<path d="M30.3199 679.26C30.3199 679.26 24.8299 686.44 32.8499 697.26C40.8699 708.08 47.4999 717.26 44.8499 724.02C44.8499 724.02 32.7299 703.88 22.8499 703.59C12.9699 703.3 19.4699 691.37 30.3199 679.26Z" fill="#26BB8F"/>
<path opacity="0.1" d="M30.32 679.26C29.8389 679.951 29.4615 680.709 29.2 681.51C19.58 692.81 14.45 703.36 23.7 703.62C32.31 703.87 42.7 719.27 45.12 723.16C45.0384 723.461 44.9416 723.758 44.83 724.05C44.83 724.05 32.71 703.91 22.83 703.62C12.95 703.33 19.47 691.37 30.32 679.26Z" fill="#412381"/>
<path d="M20.1101 688.41C20.1101 690.94 20.3901 692.99 20.7401 692.99C21.0901 692.99 21.3701 690.99 21.3701 688.41C21.3701 685.83 21.0201 687.07 20.6701 687.07C20.3201 687.07 20.1101 685.88 20.1101 688.41Z" fill="#FFD037"/>
<path d="M16.6 691.43C18.82 692.64 20.76 693.37 20.93 693.06C21.1 692.75 19.43 691.53 17.21 690.32C14.99 689.11 15.86 689.99 15.7 690.32C15.54 690.65 14.38 690.22 16.6 691.43Z" fill="#FFD037"/>
<path opacity="0.05" d="M21.8601 723.11C21.8601 723.11 37.2201 722.64 41.8601 719.34C46.5001 716.04 65.4901 712.11 66.6401 717.34C67.7901 722.57 89.7201 743.64 72.3801 743.78C55.0401 743.92 32.0901 741.07 27.4701 738.26C22.8501 735.45 21.8601 723.11 21.8601 723.11Z" fill="#5346F6"/>
<path opacity="0.2" d="M72.6701 741.99C55.3301 742.13 32.3801 739.28 27.7601 736.47C24.2401 734.33 22.8401 726.64 22.3701 723.09H21.8601C21.8601 723.09 22.8601 735.48 27.4501 738.29C32.0401 741.1 55.0201 743.95 72.3601 743.81C77.3601 743.81 79.0901 741.98 79.0001 739.35C78.3001 740.96 76.4001 741.96 72.6701 741.99Z" fill="#412381"/>
<path d="M409.31 414.34C415.18 414.01 442.81 411.93 460.36 401.92C463.179 400.262 466.363 399.324 469.63 399.19C475.21 399.03 481.63 401.36 477.52 414.4C470.86 435.73 432.19 459.73 408.19 458.4C385.11 457.12 357.73 447.82 339.65 415.12C337.918 411.974 337.065 408.42 337.18 404.83C337.39 398.23 339.79 389.96 352.18 399.18C368.92 411.63 400.68 413.99 407.05 414.34C407.803 414.38 408.557 414.38 409.31 414.34V414.34Z" fill="#444053"/>
<path d="M631.31 414.34C637.18 414.01 664.81 411.93 682.36 401.92C685.179 400.262 688.363 399.324 691.63 399.19C697.21 399.03 703.63 401.36 699.52 414.4C692.86 435.73 654.19 459.73 630.19 458.4C607.11 457.12 579.73 447.82 561.65 415.12C559.918 411.974 559.065 408.42 559.18 404.83C559.39 398.23 561.79 389.96 574.18 399.18C590.92 411.63 622.68 413.99 629.05 414.34C629.803 414.38 630.557 414.38 631.31 414.34V414.34Z" fill="#444053"/>
</g>
<defs>
<linearGradient id="paint0_linear_24_414" x1="892.14" y1="757.99" x2="892.14" y2="263.95" gradientUnits="userSpaceOnUse">
<stop stop-color="#808080" stop-opacity="0.25"/>
<stop offset="0.54" stop-color="#808080" stop-opacity="0.12"/>
<stop offset="1" stop-color="#808080" stop-opacity="0.1"/>
</linearGradient>
<clipPath id="clip0_24_414">
<rect width="1100.02" height="811.41" fill="white"/>
</clipPath>
</defs>
</svg>
