<svg width="406" height="306" viewBox="0 0 406 306" fill="none" xmlns="http://www.w3.org/2000/svg">
<path opacity="0.05" d="M148.403 60.8076C109.234 70.0136 78.2869 99.1035 69.2331 136.496C62.4834 164.327 68.411 193.032 113.842 203.486C212.044 226.08 318.142 218.579 330.89 173.452C343.638 128.325 319.979 50.9215 263.809 46.1307C231.826 43.38 183.816 52.515 148.403 60.8076Z" fill="#5346F6"/>
<path opacity="0.05" d="M198.899 257.007C275.176 257.007 337.01 249.709 337.01 240.706C337.01 231.703 275.176 224.405 198.899 224.405C122.623 224.405 60.7883 231.703 60.7883 240.706C60.7883 249.709 122.623 257.007 198.899 257.007Z" fill="#5346F6"/>
<path d="M308.391 161.245L302.81 159.68L281.397 236.015L286.977 237.58L308.391 161.245Z" fill="#E3E5EB"/>
<path d="M311.118 164.165C310.678 164.163 310.241 164.102 309.819 163.982L300.44 161.394C299.83 161.223 299.26 160.933 298.762 160.542C298.264 160.15 297.848 159.665 297.538 159.112C297.228 158.56 297.029 157.952 296.954 157.323C296.879 156.694 296.929 156.056 297.101 155.446L298.988 148.717C299.334 147.484 300.155 146.44 301.27 145.812C302.385 145.184 303.704 145.024 304.936 145.367L314.295 147.996C315.527 148.344 316.571 149.167 317.198 150.284C317.824 151.401 317.981 152.721 317.634 153.954L315.746 160.684C315.453 161.685 314.844 162.565 314.01 163.193C313.176 163.82 312.161 164.161 311.118 164.165ZM310.631 161.12C310.86 161.185 311.101 161.204 311.338 161.176C311.575 161.148 311.805 161.073 312.013 160.956C312.222 160.839 312.405 160.682 312.552 160.494C312.7 160.307 312.809 160.091 312.874 159.861L314.762 153.132C314.828 152.901 314.848 152.66 314.821 152.422C314.793 152.183 314.719 151.952 314.602 151.743C314.485 151.533 314.328 151.349 314.139 151.201C313.95 151.053 313.734 150.943 313.503 150.879L304.145 148.26C303.915 148.195 303.674 148.176 303.437 148.204C303.2 148.232 302.97 148.307 302.762 148.424C302.554 148.541 302.37 148.698 302.223 148.886C302.075 149.073 301.966 149.289 301.902 149.519L300.014 156.248C299.949 156.478 299.93 156.718 299.958 156.956C299.986 157.193 300.061 157.422 300.178 157.631C300.295 157.839 300.451 158.022 300.639 158.17C300.827 158.318 301.042 158.427 301.272 158.491L310.631 161.12Z" fill="#00C2FF"/>
<path d="M297.7 241.305L302.358 224.7L274.598 216.945L269.726 234.302C269.076 236.597 269.01 239.018 269.533 241.346L297.7 241.305Z" fill="#00C2FF"/>
<path d="M167.627 108.279H153.438V243.193H167.627V108.279Z" fill="#E3E5EB"/>
<path d="M244.311 108.279H230.121V243.193H244.311V108.279Z" fill="#E3E5EB"/>
<path opacity="0.08" d="M167.627 108.279H153.438V243.193H167.627V108.279Z" fill="#220D4E"/>
<path opacity="0.08" d="M244.311 108.279H230.121V243.193H244.311V108.279Z" fill="#220D4E"/>
<path d="M261.17 125.027H136.639V168.956H261.17V125.027Z" fill="#E3E5EB"/>
<path d="M142.953 125.027L157.833 168.956H178.417L161.507 125.027H142.953Z" fill="#412381"/>
<path d="M181.066 125.027L195.946 168.956H216.53L199.61 125.027H181.066Z" fill="#412381"/>
<path d="M219.067 125.027L233.947 168.956H254.531L237.611 125.027H219.067Z" fill="#412381"/>
<path d="M261.17 185.592H136.639V206.186H261.17V185.592Z" fill="#E3E5EB"/>
<path d="M103.53 234.626L115.974 177.36C116.104 176.797 116.422 176.295 116.874 175.935C117.327 175.575 117.888 175.379 118.466 175.379C119.044 175.379 119.605 175.575 120.057 175.935C120.51 176.295 120.827 176.797 120.958 177.36L134.538 235.58L103.53 234.626Z" fill="#5346F6"/>
<path d="M133.868 229.105H103.804C101.326 229.105 99.3179 231.113 99.3179 233.591V234.21C99.3179 236.688 101.326 238.696 103.804 238.696H133.868C136.346 238.696 138.355 236.688 138.355 234.21V233.591C138.355 231.113 136.346 229.105 133.868 229.105Z" fill="#5346F6"/>
<path opacity="0.46" d="M133.868 229.105H103.804C101.326 229.105 99.3179 231.113 99.3179 233.591V234.21C99.3179 236.688 101.326 238.696 103.804 238.696H133.868C136.346 238.696 138.355 236.688 138.355 234.21V233.591C138.355 231.113 136.346 229.105 133.868 229.105Z" fill="white"/>
<path opacity="0.08" d="M111.346 198.614L124.673 193.275L128.56 209.942L107.61 215.737L111.346 198.614Z" fill="#220D4E"/>
<path d="M105.864 239.62C105.864 239.62 111.538 231.5 103.073 229.206C94.6081 226.912 105.103 215.96 97.2268 214.509C89.3504 213.058 90.6598 224.659 90.6598 224.659C90.6598 224.659 85.26 219.99 81.4639 223.948C77.6678 227.907 82.9661 232.17 82.9661 232.17C82.9661 232.17 75.384 234.789 80.1139 239.579L105.864 239.62Z" fill="#26BB8F"/>
<path d="M94.4763 240.706C94.4763 240.706 98.0796 234.535 103.398 235.296C108.717 236.057 108.138 240.706 108.138 240.706H94.4763Z" fill="#00C2FF"/>
<path d="M226.507 124.438L269.137 146.007C269.474 146.174 269.852 146.236 270.224 146.185C270.597 146.133 270.944 145.971 271.223 145.719C271.501 145.467 271.697 145.137 271.785 144.772C271.873 144.406 271.849 144.023 271.715 143.672L270.812 141.368C269.793 138.757 269.793 135.859 270.812 133.248C273.542 126.143 277.582 110.918 266.245 102.402C251.73 91.4707 229.299 92.5263 224.021 119.363C223.813 120.365 223.944 121.407 224.395 122.326C224.845 123.245 225.588 123.988 226.507 124.438Z" fill="#5346F6"/>
<path opacity="0.08" d="M227.675 125.027L261.159 157.344V141.957L227.675 125.027Z" fill="#220D4E"/>
<path opacity="0.31" d="M232.628 108.543C235.216 104.919 240.443 99.5298 248.685 99.3065C249.009 99.2978 249.327 99.3969 249.588 99.5883C249.849 99.7797 250.04 100.053 250.129 100.364C250.219 100.675 250.202 101.008 250.082 101.309C249.962 101.61 249.746 101.862 249.467 102.027C244.915 104.61 240.958 108.124 237.855 112.339C237.412 112.966 236.758 113.414 236.013 113.6C235.268 113.786 234.481 113.699 233.795 113.354C233.37 113.146 232.997 112.848 232.701 112.479C232.405 112.111 232.194 111.682 232.082 111.223C231.971 110.763 231.962 110.285 232.056 109.822C232.15 109.359 232.346 108.922 232.628 108.543Z" fill="white"/>
<path d="M101.317 130.751C101.316 129.722 101.091 128.705 100.658 127.771C100.225 126.837 99.5947 126.009 98.8099 125.342C98.0251 124.676 97.1049 124.189 96.113 123.913C95.1212 123.638 94.0813 123.582 93.0655 123.748C92.2501 122.218 91.035 120.938 89.5497 120.044C88.0643 119.151 86.3643 118.676 84.6308 118.673H84.2755C84.5078 117.771 84.6272 116.843 84.6308 115.912C84.6308 112.894 83.432 110 81.2982 107.866C79.1644 105.733 76.2703 104.534 73.2526 104.534C70.235 104.534 67.3409 105.733 65.2071 107.866C63.0733 110 61.8745 112.894 61.8745 115.912C61.8781 116.843 61.9975 117.771 62.2297 118.673H61.8745C59.3859 118.754 57.0264 119.799 55.2947 121.588C53.5629 123.377 52.5947 125.77 52.5947 128.259C52.5947 130.749 53.5629 133.142 55.2947 134.931C57.0264 136.72 59.3859 137.765 61.8745 137.846H95.1361V137.775C96.8422 137.551 98.4093 136.716 99.5461 135.424C100.683 134.132 101.312 132.472 101.317 130.751Z" fill="#FFC107"/>
<path d="M333.742 76.5299C333.739 74.0335 332.746 71.6403 330.98 69.8761C329.214 68.1118 326.819 67.1208 324.323 67.1208C323.816 67.1236 323.31 67.1677 322.811 67.2528C321.727 65.2335 320.117 63.5453 318.151 62.3676C316.185 61.1899 313.937 60.5666 311.646 60.5639H311.179C311.484 59.3733 311.641 58.1493 311.646 56.9201C311.698 54.9085 311.347 52.9068 310.613 51.033C309.879 49.1592 308.778 47.4514 307.373 46.0101C305.969 44.5689 304.29 43.4234 302.436 42.6413C300.582 41.8592 298.59 41.4562 296.578 41.4562C294.566 41.4562 292.574 41.8592 290.72 42.6413C288.866 43.4234 287.187 44.5689 285.782 46.0101C284.378 47.4514 283.277 49.1592 282.543 51.033C281.809 52.9068 281.458 54.9085 281.51 56.9201C281.505 58.1727 281.659 59.4209 281.967 60.635H281.5C278.223 60.7661 275.124 62.1602 272.851 64.5252C270.579 66.8902 269.31 70.0428 269.31 73.3225C269.31 76.6022 270.579 79.7548 272.851 82.1198C275.124 84.4848 278.223 85.8789 281.5 86.01H325.551V85.9186C327.826 85.6216 329.915 84.5034 331.423 82.7743C332.932 81.0452 333.756 78.8245 333.742 76.5299Z" fill="#26BB8F"/>
</svg>
