<?xml version="1.0" encoding="UTF-8" standalone="no"?>
<svg
   xmlns:dc="http://purl.org/dc/elements/1.1/"
   xmlns:cc="http://creativecommons.org/ns#"
   xmlns:rdf="http://www.w3.org/1999/02/22-rdf-syntax-ns#"
   xmlns:svg="http://www.w3.org/2000/svg"
   xmlns="http://www.w3.org/2000/svg"
   viewBox="0 0 3660 2440"
   height="2440"
   width="3660"
   xml:space="preserve"
   id="svg2"
   version="1.1"><metadata
     id="metadata8"><rdf:RDF><cc:Work
         rdf:about=""><dc:format>image/svg+xml</dc:format><dc:type
           rdf:resource="http://purl.org/dc/dcmitype/StillImage" /></cc:Work></rdf:RDF></metadata><defs
     id="defs6"><clipPath
       id="clipPath24"
       clipPathUnits="userSpaceOnUse"><path
         id="path22"
         d="M 6897.29,2934.5 5566,7184.1 l 8802.5,8814.1 c 0,0 4749,-1029.8 6344.1,-4438.9 2179.9,-4659 1120,-8264.7 1120,-8264.7 z" /></clipPath><linearGradient
       id="linearGradient36"
       spreadMethod="pad"
       gradientTransform="matrix(14080.9,8214.62,8214.62,-14080.9,7285.37,3337)"
       gradientUnits="userSpaceOnUse"
       y2="0"
       x2="1"
       y1="0"
       x1="0"><stop
         id="stop28"
         offset="0"
         style="stop-opacity:1;stop-color:#d1d9e8" /><stop
         id="stop30"
         offset="0.00893875"
         style="stop-opacity:1;stop-color:#d1d9e8" /><stop
         id="stop32"
         offset="0.63378822"
         style="stop-opacity:1;stop-color:#394560" /><stop
         id="stop34"
         offset="1"
         style="stop-opacity:1;stop-color:#394560" /></linearGradient></defs><g
     transform="matrix(1.3333333,0,0,-1.3333333,0,2440)"
     id="g10"><g
       transform="scale(0.1)"
       id="g12"><g
         transform="scale(1.68405)"
         id="g14"><path
           id="path16"
           style="fill:#394560;fill-opacity:1;fill-rule:nonzero;stroke:none"
           d="M 0,0 V 10866.7 H 16300 V 0 H 0" /></g><g
         id="g18"><g
           clip-path="url(#clipPath24)"
           id="g20"><g
             transform="scale(1.35528)"
             id="g26"><path
               id="path38"
               style="fill:url(#linearGradient36);fill-opacity:1;fill-rule:nonzero;stroke:none"
               d="m 5089.21,2165.24 -982.3,3135.6 6494.99,6503.56 c 0,0 3504.1,-759.9 4681,-3275.33 1608.5,-3437.63 826.4,-6098.13 826.4,-6098.13 L 5089.21,2165.24" /></g></g></g><path
         id="path40"
         style="fill:#1d1d1b;fill-opacity:1;fill-rule:nonzero;stroke:none"
         d="M 6914.09,3008.4 5602.38,7195.5 c -3.02,9.6 -9.75,17.7 -18.72,22.4 -8.95,4.7 -19.42,5.6 -29.07,2.6 l -71.19,-22.4 c -20.09,-6.2 -31.27,-27.6 -24.97,-47.7 L 6789.71,2900.8 c 2.3,-7.4 7.28,-13.3 13.28,-18 v 125.6 h 111.1" /><path
         id="path42"
         style="fill:#bababa;fill-opacity:1;fill-rule:nonzero;stroke:none"
         d="m 6914.09,3008.4 h -111.1 v -212.2 h 4765.21 v 212.2 H 6914.09" /><path
         id="path44"
         style="fill:#1d1d1b;fill-opacity:1;fill-rule:nonzero;stroke:none"
         d="m 6841.11,2834.3 h 4688.99 v 136 H 6841.11 Z M 11568.2,2758 H 6802.99 c -21.06,0 -38.13,17.1 -38.13,38.2 v 212.2 c 0,21.1 17.07,38.1 38.13,38.1 h 4765.21 c 21.1,0 38.2,-17 38.2,-38.1 v -212.2 c 0,-21.1 -17.1,-38.2 -38.2,-38.2" /><path
         id="path46"
         style="fill:#1d1d1b;fill-opacity:1;fill-rule:nonzero;stroke:none"
         d="m 14210.7,2053.2 c -21.1,0 -38.1,17.1 -38.1,38.1 V 2758 H 4296.38 c -21.06,0 -38.13,17.1 -38.13,38.2 0,21 17.07,38.1 38.13,38.1 h 9914.32 c 21,0 38.1,-17.1 38.1,-38.1 v -704.9 c 0,-21 -17.1,-38.1 -38.1,-38.1" /><path
         id="path48"
         style="fill:#ffd6ba;fill-opacity:1;fill-rule:nonzero;stroke:none"
         d="m 11551,5803.8 c -645.8,-131 -1225.3,-383.8 -1832.43,-639.7 -311.28,-99.6 -506.96,-402.9 -696.04,-648.4 -88.5,-117.6 153,-158.9 214.86,-72.3 -61,-64.8 -158.5,-228.5 -137.55,-291.7 12.57,-38 96.52,-54 161.75,-22 123.73,-197.4 607.39,444.7 705.08,552.5 90.33,173.3 388.23,87.5 440.43,109.8 -360.4,-153.7 -491.98,-235.2 -250.8,-407.4 0,0 -263.58,-228.6 -494.99,-368 -64.83,-39.1 -72.57,-154.7 -28.91,-188.5 106.23,-52 269.02,2.6 353.46,85.3 -255.01,-291.3 -184.71,-412.8 -42.55,-387 126.29,22.9 304.59,171.7 432.99,274.6 -48.1,-142.2 -247.6,-380.8 -283.4,-549 -11.9,-55.9 30.7,-110.1 87.8,-109.7 182.6,1.1 362.4,184.4 449.7,336.4 96.4,167.5 178.6,385.7 295.4,452.1 90.2,51.3 248.6,32.6 272.2,71.6 -132.2,-218.6 -270.7,-499 -326.3,-792.5 -11.1,-58.6 42.2,-110.6 100,-95.6 115.5,30 215.4,201.5 287.4,311.5 229.7,351.2 384.9,469.8 398.5,469.8 494.9,0 1119.6,-123.5 1615,177.6 79.2,30.7 89.7,107.6 51.4,177.3 -75.3,619.2 -118.8,732 -358.3,735.5 -169.2,2.5 -392,32.2 -870.6,5.8 0,0 18.2,841.4 -33.7,906.3 0,0 -214.9,-26.9 -510.4,-94.3" /><path
         id="path50"
         style="fill:#1d1d1b;fill-opacity:1;fill-rule:nonzero;stroke:none"
         d="m 9065.45,4362.4 c -7.14,0 -14.35,0.6 -21.6,1.8 -35,5.8 -63.63,28.6 -76.54,60.9 -13.18,32.9 -8.13,69.7 13.5,98.6 124.68,166 253.6,337.6 411.09,481.4 86.81,79.2 163.91,132 242.66,166 46.64,20.1 325.71,129.7 621.14,245.8 274.3,107.7 558,219.1 712,280.9 223.1,89.6 426.7,120.7 642.3,153.6 140.5,21.5 285.8,43.7 442,83.6 20.4,5.1 41.2,-7.1 46.4,-27.5 5.2,-20.4 -7.1,-41.2 -27.5,-46.4 -159.9,-40.8 -307.1,-63.3 -449.4,-85 -211.1,-32.3 -410.5,-62.8 -625.4,-149 -154.3,-62 -438.1,-173.4 -712.5,-281.2 -294.84,-115.8 -573.34,-225.2 -618.81,-244.8 -70.74,-30.6 -141.12,-79 -221.48,-152.3 -152.22,-139 -278.97,-307.7 -401.53,-471 -5.5,-7.3 -6.87,-16.4 -3.67,-24.4 1.74,-4.4 6.47,-12 18.31,-14 23.69,-4.1 53.47,8.8 82.33,21.1 7.68,3.3 15.18,6.5 22.47,9.4 71.91,28.4 129.93,62.7 177.36,105 55.7,49.5 108.5,102.9 155.08,150 87.3,88.3 156.24,158 215.9,178.2 36.31,12.2 80.76,29.3 123.76,45.9 118.47,45.6 165.84,62.3 193.18,58.9 94.3,-12.4 210.6,-21.1 323.1,-29.6 113.4,-8.4 230.8,-17.3 327.2,-29.9 20.9,-2.7 35.6,-21.8 32.9,-42.7 -2.8,-20.9 -22,-35.8 -42.8,-32.9 -94.3,12.4 -210.6,21.1 -323.1,29.5 -113.4,8.5 -230.8,17.3 -327.2,30 -16.5,-0.9 -97.08,-31.9 -155.91,-54.5 -43.73,-16.8 -88.94,-34.2 -126.75,-47 -42.52,-14.3 -112.25,-84.8 -186.05,-159.5 -47.39,-47.9 -101.1,-102.2 -158.58,-153.4 -54.26,-48.3 -119.71,-87.2 -200.11,-119 -6.63,-2.6 -13.47,-5.5 -20.46,-8.5 -29.7,-12.7 -65.52,-28 -103.29,-28" /><path
         id="path52"
         style="fill:#1d1d1b;fill-opacity:1;fill-rule:nonzero;stroke:none"
         d="m 10957.2,3066.3 c -63.7,0 -122,45.9 -132.9,104.5 -7.2,38.4 6.3,74.2 16.2,100.4 84,223.4 177.3,446.5 277.3,663 17.2,37.2 38.6,83.5 73.5,120.2 41.2,43.3 95.2,67.6 142.8,89 142.4,64.2 228.5,89.8 328.2,119.5 67.8,20.1 137.8,41 235.6,76.8 19.8,7.2 41.7,-2.9 48.9,-22.7 7.3,-19.7 -2.9,-41.6 -22.7,-48.9 -100,-36.6 -174.4,-58.8 -240,-78.3 -97.1,-28.9 -180.9,-53.9 -318.7,-115.9 -43.2,-19.5 -87.9,-39.6 -118.9,-72.1 -26.2,-27.5 -43.9,-65.8 -59.4,-99.5 -99.2,-214.9 -191.9,-436.3 -275.3,-658 -8.6,-23 -15.6,-43.4 -12.5,-59.6 4.1,-22.5 31.2,-42.2 57.9,-42.2 74.4,3.2 353.7,410.2 472.9,584.1 27.1,39.5 52.2,76 74,107.3 l 1.9,2.6 c 21.8,31.3 46.6,66.8 86.7,86.1 34.3,16.6 162,25.7 235.7,12.3 514.8,-93.6 1028.3,-30.9 1485.3,181.3 19.1,8.9 41.7,0.6 50.6,-18.5 8.9,-19.1 0.6,-41.8 -18.5,-50.6 -471.3,-219 -1000.7,-283.7 -1531,-187.2 -65.9,11.9 -172.4,0.6 -189.5,-6.2 -21.7,-10.5 -38.7,-35 -56.8,-60.8 l -1.8,-2.6 c -21.8,-31.2 -46.7,-67.5 -73.7,-106.9 -280.8,-409.3 -440.8,-617.1 -535.8,-617.1" /><path
         id="path54"
         style="fill:#1d1d1b;fill-opacity:1;fill-rule:nonzero;stroke:none"
         d="m 10168.6,4378.2 c -100.6,0 -148,58.5 -165.1,87 -30.54,50.9 -31.64,113.7 -2.6,149.3 43,52.7 108.1,73 165.5,90.8 l 13.1,4.2 c 238.4,75 451.3,217.1 657.2,354.6 l 124,82.8 c 17.5,11.6 41.2,6.9 52.9,-10.6 11.7,-17.5 7,-41.2 -10.6,-52.9 l -124,-82.8 c -210.3,-140.3 -427.8,-285.5 -676.6,-363.9 l -13.3,-4.2 c -51.8,-16.1 -100.6,-31.3 -129.1,-66.2 -5.7,-6.9 -7.6,-34.3 8.9,-61.9 14.7,-24.6 53,-63.3 144,-45.3 20.6,4 40.7,-9.4 44.8,-30 4,-20.7 -9.4,-40.8 -30.1,-44.8 -21.4,-4.2 -41.1,-6.1 -59,-6.1" /><path
         id="path56"
         style="fill:#1d1d1b;fill-opacity:1;fill-rule:nonzero;stroke:none"
         d="m 9200.45,4075 c -27.92,0 -55.22,6.5 -81.86,14.2 -30.47,8.8 -51.52,29.6 -56.26,55.7 -3.97,21.9 4.82,40.5 9.55,50.5 46.01,97.8 94.9,195.9 145.32,291.6 9.78,18.7 32.83,25.9 51.49,16 18.63,-9.8 25.78,-32.8 15.97,-51.5 -49.87,-94.7 -98.26,-191.8 -143.81,-288.7 58.04,-17.5 96.66,-24 150.53,46.1 69.87,91 143.31,181.5 214.31,269.1 120.71,148.8 245.52,302.8 355.67,462.1 11.97,17.4 35.67,21.7 53.04,9.7 17.33,-12 21.66,-35.7 9.69,-53 -111.82,-161.8 -237.57,-316.9 -359.18,-466.8 -70.7,-87.2 -143.81,-177.4 -213.07,-267.5 -52.01,-67.7 -102.61,-87.5 -151.39,-87.5" /><path
         id="path58"
         style="fill:#1d1d1b;fill-opacity:1;fill-rule:nonzero;stroke:none"
         d="m 9703.01,3756.4 c -4.08,0 -7.85,0.2 -11.31,0.8 -47.06,7.9 -91.62,39.2 -116.32,81.6 -21.11,36.3 -25.47,76.2 -12.26,112.3 16.17,44.2 53.39,72.2 80.57,92.7 218.7,165 530.11,392 588.91,433.7 216.6,153.3 486.1,344.2 785.9,432.2 176.3,51.8 358.8,68.7 530.5,81.5 517.6,38.7 987.7,47.9 1524.5,29.6 21.1,-0.7 37.5,-18.3 36.8,-39.4 -0.7,-21 -18.5,-38 -39.4,-36.8 -533.9,18.1 -1001.5,9.1 -1516.2,-29.4 -167.7,-12.5 -345.5,-29 -514.7,-78.6 -287.6,-84.5 -540.3,-263.5 -763.3,-421.4 -58.6,-41.4 -368.97,-267.7 -587.1,-432.2 -25.41,-19.2 -47.07,-36.8 -54.88,-58.1 -6.76,-18.5 -0.16,-36.2 6.57,-47.7 13.39,-23 38.12,-40.6 63.03,-44.8 46.22,-5.6 302.78,131.3 362.68,181.5 16.2,13.6 40.2,11.4 53.7,-4.7 13.5,-16.1 11.4,-40.2 -4.7,-53.7 -40,-33.5 -313.84,-199.1 -412.99,-199.1" /><path
         id="path60"
         style="fill:#1d1d1b;fill-opacity:1;fill-rule:nonzero;stroke:none"
         d="m 10209.4,3096.1 c -41.6,0 -82.4,11.5 -111.4,33.2 -30.2,22.6 -46.1,55 -44.5,91.3 1.3,29.3 14.1,53.7 24.4,73.2 l 449.1,854 c 13.8,26.1 30.9,58.6 59.5,82.3 28.4,23.6 63.1,34.3 91,42.9 321.3,99.3 647.6,195.4 969.9,285.6 20.3,5.6 41.3,-6.2 46.9,-26.5 5.7,-20.2 -6.1,-41.3 -26.4,-47 -321.6,-90 -647.3,-185.9 -967.9,-285 -23.7,-7.3 -48.1,-14.8 -64.9,-28.7 -16.8,-14 -28.9,-36.9 -40.6,-59.1 l -449.1,-854 c -7.2,-13.5 -15.2,-28.8 -15.7,-41 -0.3,-7.4 1,-17.2 14,-26.9 24.6,-18.4 73.9,-23.4 110,-11 95.3,32.6 170.1,108.6 230.7,178.7 106.9,123.7 197.6,260.8 269.5,407.5 l 7.3,15 c 23.9,49.4 48.7,100.4 90.4,141.4 79.3,77.8 197.3,94.7 283.4,107 21,3.1 40.2,-11.5 43.2,-32.3 3,-20.8 -11.5,-40.2 -32.3,-43.1 -98.2,-14.1 -184,-30.3 -240.9,-86.1 -32.3,-31.7 -53.1,-74.7 -75.2,-120.2 l -7.5,-15.2 c -74.7,-152.7 -169,-295.3 -280.2,-423.8 -63.4,-73.3 -150.6,-162.4 -263.7,-201.1 -21.9,-7.5 -45.6,-11.1 -69,-11.1" /><path
         id="path62"
         style="fill:#1d1d1b;fill-opacity:1;fill-rule:nonzero;stroke:none"
         d="m 9917.28,3470.9 c -11.44,0 -22.71,1 -33.66,3.2 -39.64,8.1 -70.5,30.8 -89.25,65.5 -54.58,101 40.42,209.5 71.64,245.2 l 471.49,539.1 c 63.7,72.7 135.8,155.2 229.8,206.7 59.8,32.7 124.2,51 190.4,68.4 225.6,59.2 456.9,105.9 687.6,138.8 21,3.1 40.1,-11.6 43.1,-32.4 3,-20.8 -11.5,-40.1 -32.4,-43.1 -227.8,-32.5 -456.2,-78.6 -678.9,-137 -61.5,-16.2 -121,-33 -173.2,-61.6 -82.1,-45 -146.6,-118.7 -209,-190 l -471.51,-539.1 c -60.62,-69.3 -81.45,-122.7 -61.94,-158.8 7.99,-14.8 19.89,-23.4 37.42,-26.9 39.27,-8.1 100.56,12.2 145.73,48.2 268,213.6 362.6,321.3 363.5,322.4 13.8,15.9 37.9,17.6 53.8,3.8 15.9,-13.8 17.6,-37.8 3.9,-53.7 -3.9,-4.5 -98.8,-113.1 -373.7,-332.1 -44.5,-35.5 -112.1,-66.6 -174.82,-66.6" /><path
         id="path64"
         style="fill:#1d1d1b;fill-opacity:1;fill-rule:nonzero;stroke:none"
         d="m 9337.29,4056.8 c -43.86,0 -83.77,18.2 -106.86,50.9 -12.13,17.2 -8.02,41 9.18,53.1 17.25,12.2 40.98,8 53.13,-9.1 14.17,-20.1 46.14,-21.8 69.88,-15 29.21,8.6 64.2,29.5 98.53,59.1 184.85,159.2 338.85,333.3 501.88,517.5 l 35.16,39.8 c 18.91,21.3 40.01,45.1 70.01,59.8 32.7,16 68.5,16.9 99.3,17.1 82,-0.1 164.7,-7 245.8,-20.5 20.8,-3.5 34.8,-23.1 31.4,-43.9 -3.5,-20.7 -23.1,-34.7 -43.9,-31.3 -77,12.8 -155.6,19.3 -233.5,19.5 -23.5,-0.1 -47.6,-0.6 -65.6,-9.3 -16.4,-8.1 -30.9,-24.4 -46.2,-41.7 l -35.4,-40 c -164.76,-186.2 -320.42,-362.2 -509.18,-524.8 -30.01,-25.8 -76.4,-59.7 -126.97,-74.5 -15.67,-4.5 -31.41,-6.7 -46.66,-6.7" /><path
         id="path66"
         style="fill:#c48b68;fill-opacity:1;fill-rule:nonzero;stroke:none"
         d="m 13458.9,11248.3 c 60.5,-21.3 128.2,-13.3 205.4,-29.6 77.3,-16.3 164.1,-56.8 266.1,-68.3 76.5,2.9 164.9,7.2 222.3,108.4 64.8,114 201,76.1 226.5,244 37.3,47.5 86.9,81.4 140.5,99.9 2.6,1.6 5.1,3.4 7.6,5 35.4,22.9 74.5,42.1 116.5,45.3 60.1,4.6 118.3,-24.2 165.2,-62.1 89.7,-72.4 147.5,-181.9 159.8,-296.3 1.7,-2.7 3.3,-5.6 5,-8.3 18.4,-8.4 37.4,-17.2 56.2,-25.8 261.3,209 537.5,397.4 717,510.9 -42.5,147.7 -133.7,273.5 -132.8,426.9 0.4,72.1 14.3,144.7 2.2,215.7 -3.1,18.1 -8.3,35.5 -14.4,52.6 -510.7,-304.8 -1155.9,-674.4 -1862.5,-1064.2 -94.5,-52.2 -188.1,-103.6 -280.6,-154.1" /><path
         id="path68"
         style="fill:#c48b68;fill-opacity:1;fill-rule:nonzero;stroke:none"
         d="m 12090.4,10519.5 c 111.1,-115.3 241.3,-218.1 396.2,-256 76.5,-18.7 154.8,-20.1 233.1,-11.9 -82.2,140.5 -219.7,281.1 -324.9,426.3 -104.7,-54.9 -206.3,-107.7 -304.4,-158.4" /><path
         id="path70"
         style="fill:#ffd6ba;fill-opacity:1;fill-rule:nonzero;stroke:none"
         d="m 15030,11260.5 c -18.8,8.6 -37.8,17.4 -56.2,25.8 -1.7,2.7 -3.3,5.6 -5,8.3 -55.7,90.5 -100.5,205 -189.6,264.7 -73.3,62.1 -171.8,73.5 -259.5,43.4 -53.6,-18.5 -103.2,-52.4 -140.5,-99.9 -55.7,-189 -161.7,-116 -226.5,-230 -57.4,-101.2 -145.8,-119.5 -222.3,-122.4 -203.9,23.1 -350.5,55.4 -471.5,97.9 -376.6,-205.9 -735.5,-398.1 -1064.1,-570.4 105.2,-145.2 242.7,-285.8 324.9,-426.3 10.4,-17.8 20.1,-35.5 28.5,-53.3 150.2,-248.31 10.6,-433.09 -5.1,-659.07 50.3,-123.37 249.7,-95.58 354.8,-114.06 113.1,-38.26 208.8,-96.74 295.8,-165.66 188.8,359.89 492.3,821.89 637.7,1010.99 290.8,377.8 658.9,718.2 998.6,990" /><g
         transform="scale(1.02933)"
         id="g72"><path
           id="path74"
           style="fill:#a3a8af;fill-opacity:1;fill-rule:nonzero;stroke:none"
           d="m 13075.5,10927.8 c 89.8,49.1 180.8,99 272.6,149.7 686.4,378.7 1313.3,737.8 1809.4,1033.9 702.1,419 1142.5,711.8 1118.8,754.7 -23.6,42.8 -503.5,-172.4 -1229,-541 -210.9,234.9 -586.8,660 -835,855.3 -79.8,62.8 -162.4,124.1 -256.2,163.3 -153.3,64.4 -504.4,98.1 -622.1,-19.3 -167.8,-167.3 -219.6,-263 -442.7,-342.7 -284.4,-101.5 -590.6,-121.1 -885.5,-186.2 -193.1,-42.7 -389.9,-110.2 -527.3,-252.4 -173.3,-179.4 -221.2,-444.4 -233.9,-693.5 -24.7,-480.6 177.7,-977.9 349.1,-1427.5 -758.6,-449.94 -1344.9,-823.06 -1320.2,-867.94 26.3,-47.42 612.5,221.81 1472.5,665.64 95.3,49.3 194,100.6 295.7,153.9 319.2,167.4 667.9,354.1 1033.8,554.1" /></g><g
         transform="scale(1.26886)"
         id="g76"><path
           id="path78"
           style="fill:#61697f;fill-opacity:1;fill-rule:nonzero;stroke:none"
           d="m 16300,2574.5 c -43.7,991.44 -384.1,1765.84 -595.9,2904.49 -142.6,767.22 -413,1275.33 -421.4,1296.48 -93.2,241.38 -235.1,476.51 -394.2,686.02 -206.9,272.21 -367,453.51 -570.8,768.03 -207.9,321.85 -607.3,543.63 -715,609.47 -167.7,102.4 -363.1,114.42 -533.5,172.41 -112.6,89.35 -326.7,291.54 -451.6,377.76 -6.7,4.63 -95.6,-41.36 -232.4,-127.8 -141.4,-89.42 -334,-222.16 -540,-386.9 -267.7,-214.19 -557.8,-482.49 -787,-780.25 -114.6,-149.02 -353.8,-513.1 -502.5,-796.73 -52.6,-100.27 -94,-190.56 -114.5,-257.62 l 439.6,-57.75 1.9,-0.26 c -0.1,-0.47 -0.1,-0.93 -0.1,-1.41 -1.9,-20.39 -3.2,-41 -4.8,-61.5 23,6.06 56.4,53.46 56.8,31.2 2.3,-152.16 98.2,-132.3 152.9,-203.82 18.3,-231.84 3,-471.58 51,-703.59 73.6,-571.22 333.7,-1103.98 430.1,-1667.17 -3.3,-1.34 -418.1,-124.44 -612.7,-171.41 -153,-36.33 -533.5,-141.94 -682.7,-193.56 -79.4,-27.42 29.1,-39.17 10.3,-61.71 11.1,-0.47 22.2,-1.02 33.4,-1.57 118.8,-5.99 322.8,-890.01 150.7,-890.01 71.6,0 491.6,-24.83 804.8,-11.51 271.4,11.75 572.2,12.69 572.2,12.69 13.2,-45 -7.7,-257.95 -19.5,-461.91 -3.7,-62.57 -10,-151.23 -8.5,-129.96 L 16300,2574.5" /></g><path
         id="path80"
         style="fill:#545f75;fill-opacity:1;fill-rule:nonzero;stroke:none"
         d="m 13035.3,5088.9 c 189.3,65.5 672.1,199.5 866.3,245.6 246.9,59.6 773.2,215.8 777.4,217.5 -122.3,714.6 -452.4,1390.6 -545.7,2115.4 -60.9,294.4 -41.5,598.6 -64.8,892.77 -69.4,90.75 -191,65.55 -194,258.62 -0.5,28.24 -42.9,-31.9 -72,-39.59 -0.9,-0.24 -1.9,-0.59 -2.8,-0.71 -1.2,-26.75 -2.3,-53.17 -3.4,-79.38 -5.2,-131.8 -8.6,-257.1 -10.5,-376.51 -15.7,-1014 83,-1591.4 137.5,-1915.1 29.1,-172.8 45.7,-273.5 25.5,-329.7 -12.5,-35.2 -39.4,-53 -86.4,-60.4 -181.6,-28.4 -664.1,100 -1785.4,-5.4 l 11.7,-1003.4 c 3.4,0 7.2,0 11.3,0.1 1.3,0 2.8,0 4.2,0 2.9,0.1 5.8,0.1 9.1,0.1 1.4,0.1 2.9,0.1 4.4,0.1 3.4,0.1 6.9,0.2 10.6,0.3 1.7,0 3.6,0 5.4,0.1 3.6,0 7.1,0.1 10.9,0.2 3,0.1 6.1,0.2 9.2,0.2 2.9,0.1 5.7,0.2 8.7,0.3 5.5,0.1 11.2,0.3 17.1,0.4 6.7,0.2 12.8,0.4 18.9,0.5 1.9,0.1 3.8,0.1 5.7,0.2 2.4,0 4.8,0.1 7.3,0.2 10.4,0.2 21.3,0.5 32.7,0.9 1.1,0 2.2,0 3.4,0 4.3,0.2 8.9,0.3 13.5,0.4 5.1,0.1 10.2,0.3 15.4,0.4 2.9,0.1 5.9,0.2 8.9,0.2 6,0.2 12,0.4 18.2,0.5 3.3,0.1 6.7,0.2 10.1,0.2 5.4,0.2 10.7,0.3 16.2,0.4 4.9,0.2 9.9,0.3 15,0.4 4.8,0.1 9.5,0.2 14.4,0.3 4.5,0.1 9,0.2 13.6,0.3 6,0.1 12.1,0.3 18.2,0.4 3.9,0.1 7.9,0.1 11.9,0.2 6.4,0.1 12.8,0.3 19.2,0.4 4.5,0.1 9,0.1 13.5,0.2 6.2,0.1 12.5,0.2 18.9,0.3 4.7,0.1 9.5,0.2 14.2,0.2 6.3,0.1 12.6,0.2 18.9,0.3 5.1,0.1 10.2,0.2 15.4,0.2 6.4,0.1 12.8,0.2 19.3,0.2 5,0.1 10,0.1 15.1,0.2 6.6,0.1 13.3,0.1 20,0.2 5.4,0 10.8,0.1 16.2,0.1 6.5,0 13,0.1 19.6,0.1 5.5,0 11,0.1 16.6,0.1 7.2,0 14.4,0 21.6,0 5,0.1 10,0.1 15.1,0.1 7.4,0 15,0 22.5,0 5.3,0 10.5,0 15.8,-0.1 7.2,0 14.4,0 21.6,-0.1 5.7,0 11.4,0 17.2,0 7.2,-0.1 14.5,-0.2 21.7,-0.2 5.7,0 11.5,-0.1 17.2,-0.2 7.8,0 15.5,-0.1 23.3,-0.2 5.4,-0.1 10.8,-0.2 16.2,-0.2 7.9,-0.2 15.7,-0.3 23.6,-0.4 5.6,-0.1 11.1,-0.2 16.7,-0.3 8.2,-0.1 16.5,-0.3 24.7,-0.5 5.2,-0.1 10.4,-0.2 15.6,-0.3 8.8,-0.2 17.5,-0.4 26.3,-0.7 4.9,-0.1 9.8,-0.2 14.8,-0.3 8.5,-0.3 17.1,-0.5 25.7,-0.8 5.2,-0.2 10.5,-0.3 15.7,-0.5 9.6,-0.3 19.2,-0.7 28.8,-1 4.2,-0.2 8.4,-0.3 12.5,-0.5 13.6,-0.5 27.3,-1 40.9,-1.6 24.8,28.6 -112.8,43.5 -12.1,78.3" /><g
         transform="scale(1.27057)"
         id="g82"><path
           id="path84"
           style="fill:#4f5970;fill-opacity:1;fill-rule:nonzero;stroke:none"
           d="m 16293,1822.88 c -7.3,168.51 -14.6,318.52 -12.5,377.71 1.1,34.31 1.8,68.16 2.1,101.84 0.2,13.54 0.1,26.92 0.2,40.37 0,19.68 0.1,39.28 -0.1,58.8 -0.2,16.29 -0.4,32.43 -0.7,48.64 -0.3,16.68 -0.7,33.29 -1.2,49.9 -0.5,15.97 -1,31.87 -1.7,47.77 -0.3,7.63 -0.4,15.43 -0.7,23.14 -0.3,0 -4477.6,-107.75 -4477.6,-107.75 -1.5,-21.25 -3,-42.89 -4.5,-64.69 -0.7,-10.31 -1.4,-20.7 -2.1,-31.09 -1.3,-18.03 -2.6,-36.05 -3.7,-54.23 -1.8,-27.55 -3.5,-55.25 -5.1,-83.19 -0.5,-9.84 -0.9,-19.76 -1.4,-29.59 -1,-19.99 -2,-39.98 -2.8,-60.05 -0.5,-11.81 -0.8,-23.69 -1.3,-35.5 -0.6,-18.81 -1.1,-37.62 -1.5,-56.51 -0.2,-12.04 -0.5,-24.08 -0.6,-36.13 -0.3,-20.06 -0.2,-40.21 -0.1,-60.36 0.1,-10.55 0.1,-21.17 0.2,-31.72 0.5,-30.62 1.3,-61.23 2.8,-91.93 2.8,-61.78 6.8,-125.77 12.3,-192.04 295,-136.94 1185.9,-236.35 2238.9,-236.35 1090.8,0 2007.5,106.73 2268.1,251.23 -2,57.45 -4.4,115.62 -7,171.73" /></g><path
         id="path86"
         style="fill:#a59898;fill-opacity:1;fill-rule:evenodd;stroke:none"
         d="m 13483.3,11258.8 c -275.3,-222.1 -624.4,-284.2 -911,-474.9 -117.5,-78.1 -194,-113 -158.2,-172 43.1,-71.2 222.8,-257 277.1,-319.2 49.8,-57.2 79,-130.6 129.7,-185.4 34.3,-37.2 84.3,-56.2 134.2,-64.3 199.2,-32.5 398.1,98.5 499.1,273.3 204.8,354.6 29.1,942.5 29.1,942.5" /><path
         id="path88"
         style="fill:#000000;fill-opacity:1;fill-rule:evenodd;stroke:none"
         d="m 13008.4,10283.7 c -52.8,74.8 -56.2,166.1 -8.9,204.5 47.4,38.3 135.1,7.5 187.9,-67.4 52.8,-74.8 56.2,-166.1 8.9,-204.5 -47.4,-38.4 -126.5,-8.4 -187.9,67.4" /><path
         id="path90"
         style="fill:#1d1d1b;fill-opacity:1;fill-rule:nonzero;stroke:none"
         d="m 14975.6,11248.6 c -17.4,0 -33.1,11.9 -37.2,29.6 -17.1,74.9 -54,142.8 -109.9,202 -79.9,81.6 -150.9,119.1 -215.6,113.6 -77.2,-6.3 -153.2,-70.4 -254.2,-214.4 -12.1,-17.3 -35.8,-21.5 -53.1,-9.4 -17.2,12.1 -21.4,35.9 -9.3,53.1 81.4,116.1 181.9,236.2 310.3,246.7 89.5,7.2 179.7,-37.4 276.9,-136.7 65.8,-69.8 109.1,-149.6 129.3,-237.9 4.7,-20.5 -8.2,-41 -28.7,-45.7 -2.8,-0.6 -5.7,-0.9 -8.5,-0.9" /><path
         id="path92"
         style="fill:#1d1d1b;fill-opacity:1;fill-rule:nonzero;stroke:none"
         d="m 14626.9,11015.8 c -17,0 -32.4,11.4 -36.9,28.6 -12.3,47.3 -32.6,168.9 44.5,274.9 12.4,17 36.3,20.7 53.3,8.3 17,-12.4 20.8,-36.2 8.4,-53.2 -59.7,-81.9 -39.9,-182.1 -32.4,-210.9 5.3,-20.3 -6.9,-41.2 -27.3,-46.5 -3.2,-0.8 -6.5,-1.2 -9.6,-1.2" /><path
         id="path94"
         style="fill:#1d1d1b;fill-opacity:1;fill-rule:nonzero;stroke:none"
         d="m 12755.9,10425.8 c -8.6,0 -17.2,2.8 -24.3,8.7 -16.2,13.4 -18.5,37.5 -5.1,53.7 34.6,41.8 62,97.1 88.5,150.5 53.4,107.9 108.6,219.4 227.6,220.9 20.5,-0.4 38.4,-16.6 38.6,-37.7 0.3,-21 -16.6,-38.3 -37.6,-38.6 -67.5,-0.8 -105.6,-67.9 -160.3,-178.4 -28.4,-57.4 -57.8,-116.7 -98.1,-165.3 -7.5,-9.1 -18.4,-13.8 -29.3,-13.8" /><path
         id="path96"
         style="fill:#1d1d1b;fill-opacity:1;fill-rule:nonzero;stroke:none"
         d="m 12544.6,10212 c -307.1,0 -480.1,287.4 -482.1,290.8 -10.7,18.1 -4.6,41.5 13.5,52.2 18.2,10.6 41.5,4.6 52.2,-13.5 8.3,-14 201.9,-332.8 543.4,-234.7 20.3,5.8 41.3,-5.8 47.1,-26 5.9,-20.3 -5.8,-41.4 -26.1,-47.2 -52.2,-15.1 -101.7,-21.6 -148,-21.6" /><path
         id="path98"
         style="fill:#1d1d1b;fill-opacity:1;fill-rule:nonzero;stroke:none"
         d="m 13948.4,11112.1 c -119.6,0 -238.8,56.6 -308.5,97 -18.2,10.5 -24.5,33.8 -13.9,52 10.6,18.3 34,24.4 52.1,14 135.5,-78.5 264.3,-105.1 353.2,-73.2 60.9,21.8 106.2,71.7 134.7,148.2 7.4,19.7 29.4,29.7 49,22.4 19.8,-7.4 29.8,-29.3 22.4,-49.1 -36.7,-98.5 -97.4,-163.5 -180.3,-193.3 -35.3,-12.7 -72,-18 -108.7,-18" /><path
         id="path100"
         style="fill:#1d1d1b;fill-opacity:1;fill-rule:nonzero;stroke:none"
         d="m 15436.4,11562.7 c -8.4,0 -16.8,2.7 -23.8,8.3 -12.3,9.9 -25.2,20.5 -38.6,31.7 -80.8,66.9 -181.5,150.3 -306.9,177 -20.6,4.4 -33.7,24.6 -29.3,45.2 4.4,20.6 24.5,33.7 45.2,29.4 143.8,-30.6 257,-124.4 339.6,-192.9 13.1,-10.9 25.7,-21.2 37.6,-30.8 16.5,-13.2 19.1,-37.2 6,-53.6 -7.6,-9.4 -18.6,-14.3 -29.8,-14.3" /><path
         id="path102"
         style="fill:#1d1d1b;fill-opacity:1;fill-rule:nonzero;stroke:none"
         d="m 15471.7,12390.1 c -21.7,-13.2 -44.5,-25 -67.9,-35 1,-1.8 1.5,-3.9 2.9,-5.7 223.1,-276.5 247.1,-362.5 284.3,-547.5 3.7,-18 19.6,-30.5 37.4,-30.5 2.4,0 5,0.2 7.5,0.7 20.7,4.2 34,24.3 29.9,44.9 -38.6,191.3 -65.7,289 -294.1,573.1" /><path
         id="path104"
         style="fill:#1d1d1b;fill-opacity:1;fill-rule:nonzero;stroke:none"
         d="m 15621.1,12111.4 c -5,0 -10.2,1.1 -15.1,3.2 -19.3,8.3 -28.2,30.7 -19.9,50.1 26.3,61.1 8.6,170.6 -3.2,243.1 -4,25 -7.5,46.6 -8.6,62.4 -1.4,21 14.5,39.2 35.5,40.6 21.4,1.5 39.2,-14.4 40.6,-35.4 0.8,-12.3 4.1,-32.3 7.8,-55.4 13.1,-81.2 33,-203.9 -2.1,-285.5 -6.2,-14.4 -20.3,-23.1 -35,-23.1" /><path
         id="path106"
         style="fill:#1d1d1b;fill-opacity:1;fill-rule:nonzero;stroke:none"
         d="m 13536.6,11182.1 c -27.9,0 -56.6,2.8 -86.1,9 -20.6,4.3 -33.8,24.6 -29.5,45.2 4.3,20.6 24.7,33.7 45.1,29.5 299.6,-63.1 520.2,308.9 522.4,312.6 10.6,18.2 34,24.4 52.1,13.8 18.2,-10.6 24.4,-33.9 13.8,-52.1 -7.7,-13.3 -152.1,-257.1 -379.6,-334.6 -43.2,-14.7 -89.4,-23.4 -138.2,-23.4" /><path
         id="path108"
         style="fill:#1d1d1b;fill-opacity:1;fill-rule:nonzero;stroke:none"
         d="m 13236,3907 c 9.8,-12.4 19.7,-24.8 32.5,-33.9 12.8,-9 29.2,-14.2 44.3,-10.3 14.4,3.8 25.8,15.3 32.5,28.6 6.6,13.3 9,28.3 10.5,43.1 4.5,46.8 0,94.5 -13.3,139.7 -33.5,-16.9 -67,-33.8 -100.5,-50.8 -20,-10.1 -65.3,-19.3 -65,-41.7 0.2,-16.9 48.2,-61 59,-74.7" /><path
         id="path110"
         style="fill:#61697f;fill-opacity:1;fill-rule:nonzero;stroke:none"
         d="m 15488.6,12686.5 c -484.3,-375.3 -713.4,-562.1 -1708.1,-1083.8 -598.9,-314.2 -1184.8,-641.9 -1813.7,-886.7 -53.1,93.3 -99.8,190.6 -135.8,291.7 1174.9,320.4 2537.2,1248.4 3481.9,1868.6 l 175.7,-189.8" /><path
         id="path112"
         style="fill:#1d1d1b;fill-opacity:1;fill-rule:nonzero;stroke:none"
         d="m 11933.7,10689.6 c -15.3,0 -29.8,9.3 -35.6,24.5 l -29.2,76.5 c -167.4,437.2 -357.1,932.8 -332.7,1408.5 11.1,216.7 49.3,529 251.4,738.3 159.2,164.8 384,231.1 562.1,270.5 109.3,24.2 221.4,42.5 329.9,60.3 192.7,31.5 391.9,64.1 576.9,130.1 173.7,62.1 238.8,131.1 346.6,245.5 27.7,29.3 59,62.5 95,98.4 137.5,137.1 519.7,96.1 682.1,28 103.1,-43.2 194.7,-112.1 272.5,-173.3 268.1,-211 660.9,-647 849.7,-856.5 14.1,-15.7 12.8,-39.8 -2.8,-53.9 -15.7,-14.1 -39.7,-12.8 -53.8,2.8 -187.4,208 -577.3,640.7 -840.3,847.7 -77.2,60.7 -160.5,123.3 -254.8,162.9 -159.4,66.8 -498.1,88.7 -598.8,-11.7 -35.1,-35.1 -64.7,-66.4 -93.3,-96.8 -107.7,-114.2 -185.5,-196.7 -376.5,-264.9 -191.5,-68.3 -394.2,-101.5 -590.2,-133.6 -107.4,-17.5 -218.5,-35.7 -325.8,-59.5 -167.6,-37 -378.6,-98.8 -523.6,-249 -184.4,-190.8 -219.7,-484.7 -230.2,-689.2 -23.5,-459.5 163.1,-947.1 327.8,-1377.3 l 29.2,-76.6 c 7.6,-19.7 -2.3,-41.7 -22,-49.2 -4.5,-1.7 -9.1,-2.5 -13.6,-2.5" /><g
         transform="scale(1.03287)"
         id="g114"><path
           id="path116"
           style="fill:#1d1d1b;fill-opacity:1;fill-rule:nonzero;stroke:none"
           d="m 10248.2,9479.69 c -29.1,0 -35.8,12.14 -42.2,23.83 -19.2,34.78 -34.4,62.23 366.7,325.05 226.5,148.54 552.1,349.13 941.5,579.93 17.5,10.5 40.2,4.6 50.6,-12.9 10.4,-17.5 4.6,-40.2 -12.9,-50.6 -715.2,-424.03 -1083.9,-666.78 -1219.1,-773.33 312,106.41 1421.8,656.03 2951.6,1500.13 1539.8,849.5 2600.3,1498.2 2848,1701 -145.8,-49.5 -500.9,-207.7 -1149.3,-537.8 -18.2,-9.4 -40.5,-2.1 -49.7,16.1 -9.3,18.2 -2,40.4 16.2,49.6 1249.3,636.2 1280.6,580 1303.2,539 22.1,-40.1 47.2,-85.7 -837.6,-626.1 -551.7,-336.9 -1295.7,-765.4 -2095.1,-1206.4 -799.4,-441.1 -1558.6,-842 -2137.8,-1129.02 -658.7,-326.39 -863,-398.47 -934.1,-398.49" /></g><path
         id="path118"
         style="fill:#1d1d1b;fill-opacity:1;fill-rule:nonzero;stroke:none"
         d="m 11931.6,10669.9 c -36.5,0 -45,15.4 -52.8,29.6 -10.2,18.4 -3.5,41.6 14.9,51.8 14.5,7.9 31.9,5.6 43.6,-4.7 1.3,-0.2 2.7,-0.2 4.2,-0.2 105.4,0 692.1,266.7 1796.5,876 1052.7,580.9 1655.8,999.1 1698.5,1086 -2.7,15.5 4.6,31.7 19.1,39.8 18.6,10.2 41.6,3.5 51.9,-15 20.3,-36.9 48.2,-87.4 -484.4,-436.5 -325.2,-213.2 -768.5,-476.3 -1248.3,-741 -512,-282.5 -954.6,-514.1 -1279.8,-669.8 -358.2,-171.4 -501.3,-216 -563.4,-216" /><path
         id="path120"
         style="fill:#1d1d1b;fill-opacity:1;fill-rule:nonzero;stroke:none"
         d="m 15276.7,12864.5 c 0.6,-2.1 1.6,-4.3 2.7,-6.4 -1.1,2.1 -2,4.2 -2.7,6.4 z m -3438.9,-1922.6 c -15.7,0 -30.4,9.9 -35.9,25.5 -7,19.9 3.4,41.6 23.3,48.6 814.8,287.5 1449.2,652.9 1790,849.2 l 13.7,7.9 c 916.3,527.7 1585.9,958.4 1649.7,1019.8 3.3,6.9 8.7,12.8 15.9,16.8 18.4,10.2 41.6,3.5 51.8,-14.9 20.5,-37.2 27.4,-49.7 -484.2,-371.4 -198.4,-124.7 -617.3,-383.6 -1195.2,-716.4 l -13.6,-7.8 c -342.9,-197.6 -981.3,-565.3 -1802.8,-855.1 -4.2,-1.4 -8.4,-2.2 -12.7,-2.2" /><g
         transform="scale(1.0177)"
         id="g122"><path
           id="path124"
           style="fill:#1d1d1b;fill-opacity:1;fill-rule:nonzero;stroke:none"
           d="m 14817.7,8955.51 c -5.1,0 -10.3,1.05 -15.3,3.28 -18.9,8.48 -27.3,30.64 -18.9,49.52 350.4,781.11 838,1481.29 1449.1,2081.09 14.7,14.5 38.5,14.2 53,-0.5 14.4,-14.8 14.2,-38.5 -0.5,-53 -604.4,-593.2 -1086.6,-1285.71 -1433.2,-2058.26 -6.2,-13.9 -19.8,-22.13 -34.2,-22.13" /></g><path
         id="path126"
         style="fill:#1d1d1b;fill-opacity:1;fill-rule:nonzero;stroke:none"
         d="m 13888.4,5976.2 c -8.4,0 -16.9,2.8 -23.9,8.5 -16.4,13.3 -18.9,37.3 -5.7,53.6 52.4,64.9 48.3,103.6 39.2,188.4 -1.5,14.1 -3.1,29.1 -4.6,45.3 l -132.1,1488.2 c -14,158.4 -52.8,706.35 37.8,1107.05 4.7,20.55 25,33.63 45.6,28.77 20.6,-4.64 33.4,-25.05 28.8,-45.57 -88.2,-389.92 -50,-927.95 -36.2,-1083.55 l 132.1,-1488.2 c 1.4,-15.6 2.9,-30.2 4.4,-43.9 9.6,-89.9 16.6,-154.9 -55.7,-244.4 -7.5,-9.3 -18.5,-14.2 -29.7,-14.2" /><g
         transform="scale(1.27299)"
         id="g128"><path
           id="path130"
           style="fill:#1d1d1b;fill-opacity:1;fill-rule:nonzero;stroke:none"
           d="m 16295.3,1774.01 c -6.5,297.17 -23.7,1086.41 -139.9,1651.46 l -465.1,1994.75 c -112.4,481.54 -228.5,979.5 -463.8,1427.87 -121.9,232.46 -275.1,449.13 -423.3,658.67 L 14431.1,8033 c -105.7,149.4 -214.9,303.87 -347.6,436.36 -258.5,258.1 -622.5,441.57 -1025.4,517 -66.5,38.46 -124.9,94.2 -181.5,148.74 -12.8,12.37 -25.6,24.71 -38.5,36.85 -78.8,74.18 -166.2,143.78 -267.1,212.74 -9.5,6.46 -21.9,6.94 -31.9,1.21 -469.7,-270.81 -846.7,-555.61 -1152.5,-870.69 -116.2,-119.63 -222.2,-244.02 -310.7,-349.91 -217.3,-260.42 -433.3,-540.84 -584.4,-850.5 -40.6,44.18 -49.3,52.23 -77.1,74.25 -59.8,47.51 -114,46.01 -166.4,44.59 -17.3,-0.44 -35.1,-0.92 -53.9,0.19 -67.8,4.16 -122.7,24.19 -139.5,50.24 -21.2,35.64 -6,86.54 13.3,150.98 30.3,101.07 71.7,239.49 -28.2,392.14 -38.9,62.16 -81.76,108.37 -127,157.31 -53.42,57.73 -108.57,117.56 -160.41,208.66 -0.48,-0.28 -1.03,-0.6 -1.5,-0.89 -2.51,-1.46 -5.1,-2.91 -7.62,-4.35 -6.83,-3.73 -13.74,-7.44 -20.66,-10.97 -7.7,-3.99 -15.55,-7.75 -23.48,-11.43 55.61,-98.23 113.59,-161.04 169.67,-221.7 43.37,-46.81 84.29,-91.04 120.59,-148.95 85.01,-129.83 51.11,-242.88 21.21,-342.62 -21.69,-72.32 -42.11,-140.63 -6.8,-199.71 28.5,-44.36 96.5,-72.97 186.8,-78.49 21.3,-1.32 40.6,-0.81 59.1,-0.28 49.3,1.38 84.9,2.31 127.6,-31.64 27.2,-21.58 31.3,-25.26 85.2,-84.32 0.4,-0.46 1,-0.59 1.4,-1.02 -33.7,-74.02 -63.7,-149.66 -88.9,-227.16 -2.7,-8.39 -1.6,-17.59 3.1,-25.1 4.6,-7.49 12.4,-12.54 21.1,-13.81 73.5,-10.52 147.4,-20.51 221.1,-30.5 72.3,-9.79 144.6,-19.54 216.5,-29.84 12.8,-13.27 39.1,-56.99 41.2,-74.94 11.1,-93.38 295,-222.49 381.7,-259.83 3.8,-1.67 7.9,-2.44 11.8,-2.44 11.6,0 22.7,6.79 27.6,18.11 6.5,15.18 -0.5,32.8 -15.8,39.36 -180,77.54 -341.7,176.56 -345.8,211.87 -3.7,30.71 -49.5,121.1 -85.7,126.23 -74.2,10.64 -148.8,20.75 -223.4,30.83 -61.7,8.36 -123.5,16.71 -185,25.39 139,402.3 407.8,757.51 678.7,1081.94 87.6,105.05 192.8,228.38 307.5,346.6 298.4,307.36 666,585.88 1123.2,851.05 91.7,-63.69 171.9,-127.99 244.3,-196.22 12.7,-11.98 25.4,-24.15 38,-36.36 73.4,-70.69 149.3,-143.76 246.3,-184.29 11.5,-4.82 24.2,-1.93 32.5,6.25 364.5,-80.21 691.7,-251.57 927.4,-486.95 129,-128.89 236.8,-281.23 341,-428.56 l 372.1,-526.24 c 147,-207.96 299.1,-422.99 419.2,-651.94 231.8,-441.58 347,-935.77 458.4,-1413.69 l 465,-1993.89 c 114.9,-558.99 132.1,-1344.31 138.5,-1639.99 1.4,-64.49 2.4,-107.07 3.7,-126.63 1,-15.79 14.2,-27.96 29.9,-27.96 0.6,0 1.3,0.08 2,0.08 16.5,1.09 29,15.39 27.8,31.89 -1.2,18.22 -2.2,62.6 -3.5,123.96" /></g><path
         id="path132"
         style="fill:#1d1d1b;fill-opacity:1;fill-rule:nonzero;stroke:none"
         d="m 14679.9,5520.1 c -16.2,0 -31.2,10.3 -36.4,26.6 -145.5,459.7 -256.1,846.1 -394.6,1378.2 -134.5,517.3 -262.6,1068.8 -222.5,1624.15 1.5,21 20,36.49 40.8,35.3 21,-1.52 36.8,-19.78 35.3,-40.78 -39.3,-543.77 87.3,-1088.27 220.2,-1599.47 138.1,-530.7 248.5,-916.1 393.5,-1374.4 6.4,-20.1 -4.7,-41.5 -24.8,-47.8 -3.8,-1.3 -7.7,-1.8 -11.5,-1.8" /><g
         transform="scale(1.1508)"
         id="g134"><path
           id="path136"
           style="fill:#1d1d1b;fill-opacity:1;fill-rule:nonzero;stroke:none"
           d="m 11869.1,3321.16 c -99.8,0 -195.5,0.87 -286.8,2.78 -18.3,0.43 -32.8,15.55 -32.5,33.89 0.5,18.24 15.8,32.76 33.8,32.41 1382.7,-29.02 3824.5,168.14 4283.5,345.58 2.1,0.79 4.3,1.39 6.5,1.74 359.2,59.35 347.6,731.14 339.9,1175.7 -1.1,62.05 -2.1,120.18 -2.1,172.58 0,74.82 0.3,150.67 0.7,227.31 1.4,380.96 3,774.94 -30.5,1141.73 -15,163.1 -27.7,329.16 -39.8,489.74 -31.3,410.41 -63.6,834.8 -136.9,1245.78 -3.2,18.01 8.8,35.21 26.8,38.42 18,3.25 35.2,-8.78 38.4,-26.79 73.9,-414.28 106.3,-840.32 137.7,-1252.37 12.3,-160.32 24.9,-326.11 39.7,-488.7 33.9,-370 32.3,-765.55 30.8,-1148.06 -0.4,-76.56 -0.6,-152.42 -0.6,-227.06 0,-52.05 0.9,-109.84 2.1,-171.45 8,-466.02 20.2,-1169.7 -392,-1241.57 -441,-167.36 -2606.4,-351.66 -4018.7,-351.66" /></g><g
         transform="scale(1.02417)"
         id="g138"><path
           id="path140"
           style="fill:#1d1d1b;fill-opacity:1;fill-rule:nonzero;stroke:none"
           d="m 12990.1,3736.29 c -0.8,0 -1.6,0 -2.3,0 -26.5,0.68 -47.5,14.93 -61,25.58 -36.8,29 -65.9,67.27 -83.9,110.53 -7.9,19.04 0.9,40.81 20,48.72 18.9,8.01 40.7,-0.97 48.6,-19.92 13.3,-31.73 34.5,-59.66 61.4,-80.94 10.9,-8.49 15.4,-9.47 16.9,-9.47 6.5,2.44 16.9,28.02 13.1,64.93 -3,29.29 -6,68.15 -9.3,113.46 -14.8,199.28 -39.5,532.82 -128.1,701.63 -45.6,86.9 -151.1,201.82 -175.8,219.01 -13.3,4.88 -22.9,16.99 -24.2,31.63 -1.6,17.58 9.4,33.89 26.3,38.97 115.6,34.66 230.4,70 345,105.15 383.4,117.85 779.9,239.81 1183.5,330.03 l 730.6,163.45 c 363.7,81.33 739.7,165.4 1120.8,179.17 5.9,2.73 12.4,4.78 19.4,6.63 -14.9,62.1 33.2,102.72 72.2,135.53 24.7,20.7 50.2,42.18 56.2,64.54 3.8,13.57 1,30.66 -3.1,51.55 -66,341.84 -167,682.89 -264.8,1012.72 -129.5,437.04 -263.5,888.91 -318.4,1350 -55.5,466.77 -30.7,936.05 -6.8,1389.89 1.1,20.54 18.8,36.79 39.1,35.2 20.5,-1.06 36.3,-18.59 35.2,-39.12 -23.7,-450.71 -48.3,-916.75 6.4,-1377.19 54.2,-454.83 187.2,-903.58 315.9,-1337.59 98.2,-331.59 199.9,-674.4 266.6,-1019.75 4.3,-22.75 10.4,-53.9 1.8,-85.34 -12.2,-44.72 -48.3,-75.08 -80.2,-101.93 -35.9,-30.27 -52.2,-46.38 -47.1,-63.27 0.9,-2.74 2,-5.37 3.1,-7.91 3.4,-8.01 8,-18.85 9.1,-32.13 1.5,-18.55 -6.3,-37.59 -20,-49.69 -12.2,-10.75 -28.2,-15.04 -43.7,-11.82 -5.9,1.17 -11.5,3.61 -16.3,6.93 -2.6,-0.68 -5.4,-1.17 -8.3,-1.17 -378.8,-12.01 -756,-96.37 -1120.9,-177.9 l -730.6,-163.45 c -400.6,-89.63 -795.8,-211.1 -1177.9,-328.56 -93.3,-28.7 -186.7,-57.41 -280.8,-85.82 56.4,-57.71 125.1,-148.61 153.6,-203.19 95.8,-182.49 121.3,-525.69 136.4,-730.74 3.3,-44.42 6.2,-82.5 9.1,-111.31 4,-38.95 -1.8,-91.58 -30.1,-122.14 -15.1,-16.31 -34.7,-24.9 -56.7,-24.9" /></g><path
         id="path142"
         style="fill:#1d1d1b;fill-opacity:1;fill-rule:nonzero;stroke:none"
         d="m 12108.8,4944.6 c -19,0 -35.4,14.2 -37.8,33.5 -13.9,115.5 -23.6,473.4 -30.7,734.7 -3.3,119.7 -5.8,214.3 -7.9,250.9 -0.5,9.6 2.6,19 8.7,26.5 l 24.6,29.6 c 6.4,7.8 15.5,12.7 25.5,13.7 602.3,61.5 1174.3,67.5 1800.2,18.9 15.3,-1.2 28.3,-11.4 33.2,-25.8 34.9,-103.4 114.3,-193.7 212.4,-241.4 18.9,-9.2 26.8,-32 17.6,-50.9 -9.3,-18.9 -32.1,-26.9 -51,-17.6 -110.1,53.6 -197.4,148 -242.5,261.5 -606.3,45.8 -1162.5,39.7 -1746.6,-19 l -5.2,-6.3 c 2,-44.6 4.3,-131.4 7.2,-238.1 6.7,-245.1 16.7,-615.6 30.2,-727.5 2.6,-20.9 -12.3,-39.9 -33.2,-42.4 -1.6,-0.2 -3.1,-0.3 -4.7,-0.3" /><path
         id="path144"
         style="fill:#1d1d1b;fill-opacity:1;fill-rule:nonzero;stroke:none"
         d="m 14983.7,2040.9 c -19.8,0 -36.5,15.3 -38,35.4 -39.1,540.1 -11.2,856.9 15.7,1163.2 17.9,203.5 34.7,395.8 29.7,640.5 -0.4,21.1 16.3,38.5 37.4,39 21.1,-1 38.4,-16.3 38.9,-37.4 5.1,-248.9 -12,-443.1 -30.1,-648.7 -26.6,-303.4 -54.2,-617.1 -15.5,-1151.1 1.5,-21 -14.3,-39.3 -35.3,-40.8 -0.9,-0.1 -1.9,-0.1 -2.8,-0.1" /><g
         transform="scale(1.06678)"
         id="g146"><path
           id="path148"
           style="fill:#1d1d1b;fill-opacity:1;fill-rule:nonzero;stroke:none"
           d="m 15397.3,9848.51 c -7.9,0 -15.9,2.59 -22.4,7.93 -15.4,12.38 -17.8,34.89 -5.4,50.24 211.9,262.62 564.2,398.52 897.7,346.12 19.5,-3.1 32.8,-21.4 29.7,-40.9 -3.1,-19.5 -21.5,-32.8 -40.9,-29.7 -308.5,48.5 -634.7,-77.2 -830.9,-320.39 -7,-8.75 -17.4,-13.3 -27.8,-13.3" /></g><path
         id="path150"
         style="fill:#1d1d1b;fill-opacity:1;fill-rule:nonzero;stroke:none"
         d="m 13836.3,8820.72 c -8.4,0 -16.8,2.75 -23.8,8.38 -16.5,13.16 -19.1,37.14 -5.9,53.58 69.3,86.64 148.4,193.1 232,305.79 238.4,321.01 534.9,720.51 799.7,911.73 17,12.3 40.8,8.5 53.2,-8.6 12.4,-17.1 8.5,-40.9 -8.6,-53.3 -255.1,-184.22 -547.8,-578.49 -783.1,-895.28 -84,-113.29 -163.5,-220.28 -233.7,-308 -7.6,-9.41 -18.7,-14.3 -29.8,-14.3" /><path
         id="path152"
         style="fill:#1d1d1b;fill-opacity:1;fill-rule:nonzero;stroke:none"
         d="m 15070.6,5582.6 c -16,0 -31,10.3 -36.2,26.3 -57,174.5 -206.7,669.7 -338.8,1106.7 -115.9,383.7 -225.5,746.1 -244.2,798.1 -14.9,41.7 -38,80.6 -62.3,121.7 -32.6,55 -66.3,111.8 -80.9,177.9 -19.1,86.4 1,188.9 20.4,288 22.1,112.6 44.9,229.04 5.8,306.48 -5.4,10.73 -5.4,23.36 -0.1,34.11 163.7,329.57 330.2,617.32 610.6,950.46 13.5,16.11 37.5,18.21 53.7,4.63 16.1,-13.57 18.2,-37.62 4.6,-53.72 -270.9,-321.93 -433.9,-601.2 -592.5,-919.12 39.7,-97.94 15.8,-219.64 -7.3,-337.54 -17.9,-91.4 -36.4,-186 -20.8,-256.8 12,-54.2 41.2,-103.4 72,-155.5 25.2,-42.4 51.2,-86.3 68.6,-134.8 19.4,-53.9 124.1,-400.5 245.4,-801.9 132,-436.5 281.5,-931.3 338.3,-1105 6.5,-20 -4.5,-41.5 -24.4,-48.1 -4,-1.3 -8,-1.9 -11.9,-1.9" /><path
         id="path154"
         style="fill:#1d1d1b;fill-opacity:1;fill-rule:nonzero;stroke:none"
         d="m 15755.6,1859.9 c -6.7,0 -13.4,1.8 -19.4,5.3 -12.5,7.4 -19.6,22.3 -18.5,36.8 0,0.6 0.1,1.2 0.2,1.8 4.5,52.5 96.5,1173.2 -7,1987 -2.7,20.9 12.1,40 33,42.6 20.8,2.8 40,-12.1 42.6,-33 55.1,-433 54.2,-955.3 43.7,-1317.1 -6,-205.1 -15.6,-381.1 -22.6,-492.6 -6.7,-107.2 -10,-160.4 -13.9,-188.3 0.1,-2.1 0.2,-4.2 0,-6.3 -4.6,-21.7 -9.1,-24.6 -17.1,-29.9 -6.4,-4.2 -13.7,-6.3 -21,-6.3" /><g
         transform="scale(1.06512)"
         id="g156"><path
           id="path158"
           style="fill:#1d1d1b;fill-opacity:1;fill-rule:nonzero;stroke:none"
           d="m 16259.3,4690.94 c -13.7,0 -26.6,7.79 -32.6,21.03 -130.1,286.54 -378.1,504.36 -600.3,686.03 -15.3,12.49 -17.6,35.11 -5.1,50.42 12.6,15.3 35,17.46 50.4,5.07 228.5,-186.84 483.7,-411.32 620.1,-711.94 8.2,-18.03 0.2,-39.25 -17.8,-47.42 -4.8,-2.16 -9.8,-3.19 -14.7,-3.19" /></g><path
         id="path160"
         style="fill:#1d1d1b;fill-opacity:1;fill-rule:nonzero;stroke:none"
         d="m 8771.97,4944.6 c -11.52,0 -22.89,5.2 -30.4,15.1 l -535.88,705.4 c -12.73,16.8 -9.45,40.7 7.3,53.4 16.77,12.8 40.67,9.5 53.43,-7.3 l 535.88,-705.4 c 12.73,-16.8 9.46,-40.7 -7.3,-53.4 -6.89,-5.3 -14.99,-7.8 -23.03,-7.8" /><path
         id="path162"
         style="fill:#1d1d1b;fill-opacity:1;fill-rule:nonzero;stroke:none"
         d="m 8608.94,4705.6 c -7.05,0 -14.18,1.9 -20.54,6 l -745.82,478 c -17.74,11.4 -22.89,35 -11.53,52.7 11.35,17.8 34.96,22.9 52.67,11.6 l 745.82,-478.1 c 17.73,-11.3 22.88,-34.9 11.52,-52.6 -7.28,-11.4 -19.57,-17.6 -32.12,-17.6" /><path
         id="path164"
         style="fill:#1d1d1b;fill-opacity:1;fill-rule:nonzero;stroke:none"
         d="m 9071.53,5090.7 c -17.04,0 -32.56,11.5 -36.93,28.8 l -217.69,858.7 c -5.17,20.4 7.18,41.1 27.6,46.3 20.45,5.3 41.16,-7.2 46.32,-27.6 l 217.7,-858.7 c 5.16,-20.4 -7.18,-41.1 -27.6,-46.3 -3.14,-0.8 -6.3,-1.2 -9.4,-1.2" /><path
         id="path166"
         style="fill:#1d1d1b;fill-opacity:1;fill-rule:nonzero;stroke:none"
         d="m 8236.04,3742.5 c -20.52,0 -37.45,16.3 -38.09,37 -0.65,21 15.89,38.6 36.93,39.2 l 885.45,27.3 c 21.33,2.1 38.63,-15.9 39.29,-36.9 0.64,-21.1 -15.89,-38.7 -36.93,-39.3 l -885.46,-27.3 c -0.4,0 -0.8,0 -1.19,0" /><path
         id="path168"
         style="fill:#1d1d1b;fill-opacity:1;fill-rule:nonzero;stroke:none"
         d="m 8352.98,3273.4 c -15.85,0 -30.64,10 -36.06,25.8 -6.83,19.9 3.77,41.6 23.69,48.4 l 837.91,287.6 c 19.97,6.8 41.62,-3.8 48.43,-23.8 6.83,-19.8 -3.77,-41.5 -23.68,-48.4 l -837.91,-287.5 c -4.1,-1.4 -8.28,-2.1 -12.38,-2.1" /><path
         id="path170"
         style="fill:#1d1d1b;fill-opacity:1;fill-rule:nonzero;stroke:none"
         d="m 8853.91,3001.8 c -11.52,0 -22.89,5.2 -30.38,15 -12.75,16.8 -9.48,40.7 7.28,53.5 l 479.42,364.2 c 16.75,12.7 40.67,9.5 53.42,-7.3 12.75,-16.8 9.47,-40.7 -7.28,-53.4 l -479.43,-364.2 c -6.89,-5.3 -14.99,-7.8 -23.03,-7.8" /></g></g></svg>