<svg xmlns="http://www.w3.org/2000/svg" width="100" height="30" viewBox="0 0 100 30">
  <g fill="none" fill-rule="evenodd" transform="translate(-.518 -.708)">
    <path fill="#1B1A19" d="M57.8862226,3.96159186 L57.8862226,1.71501379 C57.8889228,1.37096153 58.1463432,1.14324348 58.4552927,1.14324348 L68.5313663,1.14324348 C68.8538169,1.14324348 69.1112373,1.37906217 69.1112373,1.71231358 L69.1112373,3.6391413 C69.1085371,3.96159186 68.8373906,4.38440037 68.3524772,5.05382843 L63.1354387,12.5064191 C65.070592,12.4605155 67.1220796,12.7503384 68.880819,13.7395168 C69.2766254,13.9618345 69.384859,14.2923857 69.4147864,14.6175364 L69.4147864,17.0160015 C69.4147864,17.3465527 69.0543078,17.728858 68.6749277,17.5281421 C65.5719318,15.9048635 61.4579307,15.7259743 58.029784,17.5499689 C57.6774061,17.7342585 57.3115271,17.3575786 57.3115271,17.0268024 L57.3115271,14.7475967 C57.3115271,14.3819428 57.3171525,13.7584183 57.6857317,13.2030743 L63.7317359,4.52818676 L58.4687938,4.52818676 C58.1463432,4.52818676 57.8889228,4.2977685 57.8862226,3.96159186 Z M21.1354098,18.0015797 L18.0702168,18.0015797 C17.7776937,17.9826782 17.5445752,17.7632858 17.5229735,17.4840386 L17.5229735,1.75214174 C17.5229735,1.43779182 17.7884945,1.18577185 18.1163455,1.18577185 L20.9700217,1.18577185 C21.2681703,1.19927292 21.5093894,1.42699097 21.5282909,1.71433874 L21.5282909,3.76852655 L21.5852204,3.76852655 C22.3277793,1.78206911 23.7316656,0.855220648 25.617765,0.855220648 C27.5364921,0.855220648 28.7369623,1.78206911 29.5960804,3.76852655 C30.3386392,1.78206911 32.0271731,0.855220648 33.8293409,0.855220648 C35.1164429,0.855220648 36.5203292,1.38356252 37.3767471,2.57593203 C38.3497242,3.89858686 38.1517085,5.82001415 38.1517085,7.50832297 L38.1490083,17.4352098 C38.1490083,17.7495597 37.8834872,18.0015797 37.5583364,18.0015797 L34.4958437,18.0015797 C34.1868942,17.9826782 33.9459001,17.7387588 33.9459001,17.43791 L33.9459001,9.09649884 C33.9459001,8.43517143 34.0026046,6.77926518 33.8590432,6.15056535 C33.628625,5.09095637 32.9429956,4.79280774 32.0568754,4.79280774 C31.3116163,4.79280774 30.5393551,5.28874705 30.2250052,6.0855352 C29.9104303,6.87962314 29.9403577,8.20205295 29.9403577,9.09649884 L29.9403577,17.4352098 C29.9403577,17.7495597 29.6748366,18.0015797 29.3494608,18.0015797 L26.2871931,18.0015797 C25.9782436,17.9826782 25.7370245,17.7387588 25.7370245,17.43791 L25.7343243,9.09649884 C25.7343243,7.34293486 26.0189718,4.76040517 23.8455246,4.76040517 C21.6421499,4.76040517 21.7287818,7.27520449 21.7287818,9.09649884 L21.7260816,17.4352098 C21.7260816,17.7495597 21.4632608,18.0015797 21.1354098,18.0015797 Z M77.7836497,0.853420506 C82.3339603,0.853420506 84.7945303,4.76130524 84.7945303,9.72632376 C84.7945303,14.5257292 82.0763149,18.333481 77.7836497,18.333481 C73.3201959,18.333481 70.8893282,14.4253712 70.8893282,9.56093566 C70.8893282,4.6611723 73.3498983,0.853420506 77.7836497,0.853420506 Z M77.813577,4.06487504 C75.5532729,4.06487504 75.4097115,7.14356906 75.4097115,9.06229613 C75.4097115,10.9837234 75.3824844,15.0893988 77.7836497,15.0893988 C80.160288,15.0893988 80.2741471,11.7778114 80.2741471,9.75872633 C80.2741471,8.4335963 80.2172176,6.84542043 79.8162358,5.58802077 C79.4719585,4.4957842 78.7863291,4.06487504 77.813577,4.06487504 Z M90.694498,18.0015797 L87.6401059,18.0015797 C87.3338566,17.9826782 87.0899373,17.7387588 87.0899373,17.43791 L87.0845369,1.69791244 C87.111764,1.41078968 87.3664842,1.18577185 87.6754337,1.18577185 L90.518309,1.18577185 C90.7838301,1.19927292 91.0061477,1.38086231 91.0628522,1.62478164 L91.0628522,4.03134739 L91.1197817,4.03134739 C91.9788998,1.87950183 93.1795949,0.855220648 95.2961127,0.855220648 C96.6700716,0.855220648 98.0143281,1.35115996 98.8732212,2.70891757 C99.6754098,3.96631723 99.6754098,6.0855352 99.6754098,7.60868092 L99.6754098,17.5056403 C99.640307,17.7848875 99.3909872,18.0015797 99.0874382,18.0015797 L96.0141446,18.0015797 C95.7297221,17.9826782 95.502004,17.7740866 95.4696014,17.5056403 L95.4696014,8.96373832 C95.4696014,7.24280192 95.6700923,4.72777758 93.5508744,4.72777758 C92.8083155,4.72777758 92.1197609,5.22371689 91.7784089,5.98540226 C91.3501999,6.94465329 91.2905702,7.90390432 91.2905702,8.96373832 L91.2905702,17.4352098 C91.2851698,17.7495597 91.0196487,18.0015797 90.694498,18.0015797 Z M52.944831,17.9622015 C52.7416399,18.1435659 52.4488917,18.157292 52.2213986,18.0326321 C51.2022929,17.1870151 51.0207035,16.7968342 50.4651344,15.9919454 C48.782226,17.7045561 47.5898565,18.2196219 45.4110088,18.2196219 C42.8309544,18.2196219 40.8228952,16.6260456 40.8228952,13.4418183 C40.8228952,10.9540211 42.1696269,9.26278702 44.0910542,8.43089609 C45.7550611,7.70183831 48.0776952,7.56907778 49.8553361,7.37128711 L49.8553361,6.97278052 C49.8553361,6.24102252 49.9122656,5.37920422 49.4813565,4.75050438 C49.110077,4.18413449 48.3920451,3.95394125 47.7606451,3.95394125 C46.5925775,3.95394125 45.5545702,4.55271371 45.2971498,5.79391208 C45.2456207,6.070459 45.0424296,6.34408069 44.7658827,6.35758176 L41.7956473,6.0351312 C41.5436273,5.97820169 41.2646052,5.7777108 41.337736,5.39563052 C42.0206651,1.79129484 45.2755481,0.701758485 48.1915542,0.701758485 C49.6820724,0.701758485 51.633202,1.10004005 52.80667,2.22760442 C54.2998884,3.62046482 54.156327,5.47956217 54.156327,7.50404763 L54.156327,12.2791511 C54.156327,13.7154399 54.7526243,14.3441398 55.3135937,15.1193262 C55.5086842,15.3983483 55.5518876,15.7291245 55.3025678,15.9323156 C54.6765682,16.4579573 53.5627299,17.425534 52.9531566,17.9703022 L52.944831,17.9622015 Z M49.8553361,10.4877841 L49.8553361,9.8264567 C47.6359852,9.8264567 45.2944496,10.3007943 45.2944496,12.9105511 C45.2944496,14.2386064 45.9827792,15.1328273 47.1589474,15.1328273 C48.0207657,15.1328273 48.7930269,14.6015602 49.2808656,13.7397419 C49.8825633,12.6774327 49.8553361,11.6828538 49.8553361,10.4877841 Z M12.7640713,17.9622015 C12.5606552,18.1435659 12.268132,18.157292 12.0404139,18.0326321 C11.0215332,17.1870151 10.8399438,16.7968342 10.2816745,15.9919454 C8.60146635,17.7045561 7.40887183,18.2196219 5.23002413,18.2196219 C2.64996964,18.2196219 0.641910485,16.6260456 0.641910485,13.4418183 C0.641910485,10.9540211 1.98886724,9.26278702 3.91029453,8.43089609 C5.57430142,7.70183831 7.89671049,7.56907778 9.67457641,7.37128711 L9.67457641,6.97278052 C9.67457641,6.24102252 9.73150592,5.37920422 9.30059676,4.75050438 C8.92931734,4.18413449 8.21106041,3.95394125 7.57966036,3.95394125 C6.41159278,3.95394125 5.3708853,4.55271371 5.11616511,5.79391208 C5.06463603,6.070459 4.86144492,6.34408069 4.58512302,6.35758176 L1.6148876,6.0351312 C1.36286763,5.97820169 1.08362049,5.7777108 1.15675129,5.39563052 C1.83968042,1.79129484 5.0945634,0.701758485 8.01056952,0.701758485 C9.50108766,0.701758485 11.4524423,1.10004005 12.6286105,2.22760442 C14.1191287,3.62046482 13.9753423,5.47956217 13.9753423,7.50404763 L13.9753423,12.2791511 C13.9753423,13.7154399 14.5716395,14.3441398 15.132609,15.1193262 C15.3276995,15.3983483 15.3711279,15.7291245 15.1218081,15.9323156 C14.4958085,16.4579573 13.3819703,17.425534 12.7721719,17.9703022 L12.7640713,17.9622015 Z M9.67457641,10.4877841 L9.67457641,9.8264567 C7.4577007,9.8264567 5.1134649,10.3007943 5.1134649,12.9105511 C5.1134649,14.2386064 5.80179445,15.1328273 6.97796267,15.1328273 C7.83978098,15.1328273 8.61226721,14.6015602 9.10010587,13.7397419 C9.70157855,12.6774327 9.67457641,11.6828538 9.67457641,10.4877841 Z"></path>
    <path fill="#EFA82E" d="M62.0805551,24.0410583 C56.327074,28.2875949 47.9854379,30.5451988 40.8010685,30.5451988 C30.7333205,30.5451988 21.668252,26.8243039 14.8063331,20.6291129 C14.2696656,20.1439745 14.7494036,19.4772466 15.397005,19.8539265 C22.7982916,24.163018 31.9529172,26.7565736 41.4054664,26.7565736 C47.7822468,26.7565736 54.7931275,25.4339187 61.2430387,22.6968018 C62.2160158,22.2850192 63.0317054,23.3392277 62.0805551,24.0410583 Z M64.4751949,21.3079917 C63.7380364,20.364942 59.6105343,20.8606563 57.7541371,21.0829739 C57.1931677,21.1507043 57.1065358,20.6601654 57.613276,20.3053122 C60.905962,17.9907788 66.3016646,18.6602069 66.9303644,19.4326931 C67.5619895,20.2157551 66.7652014,25.6249589 63.6784067,28.2077136 C63.2040691,28.6062202 62.7515582,28.3920032 62.96285,27.8690617 C63.65658,26.1346243 65.2123533,22.2510415 64.4751949,21.3079917 Z"></path>
  </g>
</svg>