<svg xmlns="http://www.w3.org/2000/svg" width="120" height="21" viewBox="0 0 120 21">
  <g fill="none" fill-rule="evenodd" transform="translate(-.518 .284)">
    <path fill="#273B7D" fill-rule="nonzero" d="M47.3565703,2.04001296 C47.3565703,1.03654559 48.1664852,0.224916088 49.1634974,0.224916088 C50.1639137,0.224916088 50.9769805,1.03654559 50.9769805,2.04001296 C50.9769805,3.04218174 50.1639137,3.85466856 49.1634974,3.85466856 C48.1664852,3.85466856 47.3565703,3.04218174 47.3565703,2.04001296 Z M17.6441426,4.67060988 C20.9551613,4.67060988 23.3590602,7.04742759 23.3590602,10.3206234 C23.3590602,13.5938191 20.9551613,15.9702082 17.6441426,15.9702082 C14.3454794,15.9702082 11.9515405,13.5938191 11.9515405,10.3206234 C11.9515405,7.04742759 14.3454794,4.67060988 17.6441426,4.67060988 Z M17.6441426,13.3284409 C19.2351008,13.3284409 20.3077589,12.1180821 20.3077589,10.3206234 C20.3077589,8.55155699 19.212281,7.31410441 17.6441426,7.31410441 C16.0849556,7.31410441 15.0014549,8.55155699 15.0014549,10.3206234 C15.0014549,12.090131 16.0849556,13.3284409 17.6441426,13.3284409 Z M43.8502592,10.603211 L45.0352514,12.8475603 L46.8223845,15.8037621 L44.4227722,15.8037621 C43.518174,15.8037621 43.0373185,15.6527856 42.5548241,14.7680318 L40.8274512,11.5077462 C40.7159997,11.3137651 40.4729243,11.272475 40.116002,11.272475 L39.8226222,11.272475 L39.8226222,15.8037621 L36.6913885,15.8037621 L36.6888669,0.697614375 L38.1637088,0.697614375 C39.0251889,0.697614375 39.8226222,0.871814152 39.8226222,2.15184273 L39.8226222,8.55155699 L40.3211283,8.55155699 C40.6953231,8.55155699 40.9453326,8.45993726 41.0691397,8.27842505 L43.2563133,4.89341211 L46.790109,4.89341211 L43.8791307,9.22082101 C43.7298563,9.44016875 43.5750344,9.62942205 43.4236167,9.78899696 L43.3187211,9.88964376 L43.4184475,9.99545969 C43.5750344,10.1576066 43.7220395,10.3619134 43.8502592,10.603211 Z M59.0514182,4.64651667 L59.0523007,4.64651667 C61.5977834,4.64651667 62.9423883,6.10375826 62.9423883,8.86080982 L62.9474314,15.7998916 L61.4674204,15.7998916 C60.3366411,15.7998916 59.8140544,15.2712784 59.8140544,14.1413564 L59.8140544,9.38942299 C59.8140544,8.06551982 59.4346904,7.55324615 58.4639021,7.55324615 C57.2569726,7.55324615 56.2913534,8.28573749 55.9451475,9.46383329 C55.8151628,9.85309421 55.751242,10.279762 55.751242,10.7713844 L55.751242,15.7998916 L52.6413152,15.7998916 L52.6324899,4.88952896 L54.0358464,4.88952896 C54.8844667,4.88952896 55.4484065,5.24222772 55.6157099,5.88311193 L55.6827825,6.14461963 L55.8729058,5.9523531 C56.4423929,5.35405749 57.4586949,4.64651667 59.0514182,4.64651667 Z M49.2048505,4.89426943 L49.2058591,4.89428204 C50.3090277,4.89428204 50.842457,5.43493551 50.842457,6.55066131 L50.8361532,15.7981769 L50.8311101,15.7981769 L50.8311101,15.8024635 L50.101632,15.8024635 L49.3687498,15.8046068 C49.3489558,15.8046068 49.3330702,15.8024635 49.3132762,15.8024635 L47.7398426,15.8024635 L47.7398426,13.3301555 L47.7408512,13.3301555 L47.7307651,4.89426943 L49.2048505,4.89426943 Z M29.8598121,4.67060988 C33.1674267,4.67060988 35.575234,7.04742759 35.575234,10.3206234 C35.575234,13.5938191 33.1674267,15.9702082 29.8598121,15.9702082 C26.5578709,15.9702082 24.1634277,13.5938191 24.1634277,10.3206234 C24.1634277,7.04742759 26.5578709,4.67060988 29.8598121,4.67060988 Z M29.8598121,13.3284409 C31.4508964,13.3284409 32.5231763,12.1180821 32.5231763,10.3206234 C32.5231763,8.55155699 31.4246725,7.31410441 29.8598121,7.31410441 C28.3007512,7.31410441 27.2151072,8.55155699 27.2151072,10.3206234 C27.2151072,12.090131 28.3007512,13.3284409 29.8598121,13.3284409 Z M73.2548084,4.8650197 L73.2553127,4.8650197 L74.7001483,4.8650197 L74.6888015,14.8712632 C74.6888015,18.686411 71.5962732,20.0421359 68.9476599,20.0421359 C67.6611762,20.0421359 66.2378996,19.6958922 65.144565,19.1156633 L64.9282179,19.0003917 L65.2774495,18.1083254 L65.5243072,17.4975609 C65.7918413,16.8356093 66.1785177,16.6708778 66.8384016,16.8700155 C67.3437158,17.053255 68.0994178,17.2554059 68.929631,17.2554059 C70.6379664,17.2554059 71.5803875,16.4515175 71.5803875,14.9942759 L71.5803875,14.6910495 L71.3403381,14.8712632 C70.7201682,15.3409482 69.937738,15.5719202 68.9476599,15.5719202 C66.0490372,15.5719202 64.0232414,13.3030617 64.0232414,10.0565311 C64.0232414,6.80614255 65.981082,4.62200742 68.8891605,4.62200742 C70.3507643,4.62200742 71.2508238,5.13728171 71.7528601,5.5717032 L71.8969654,5.69685925 L71.9829495,5.52998452 C72.2105174,5.10029089 72.6646447,4.8650197 73.2548084,4.8650197 Z M69.4998746,12.8484176 C70.4754539,12.8484176 71.6401478,12.3679782 71.6401478,10.0776111 C71.6401478,7.64916508 70.3240361,7.36614875 69.3364796,7.36614875 C67.3492632,7.36614875 67.1944414,9.36232917 67.1944414,9.97480838 C67.1944414,11.3649521 67.7996081,12.8484176 69.4998746,12.8484176 Z M9.29511049,8.05906471 L9.29448011,8.05906471 C10.4054654,8.68445414 11.0664841,9.91416562 11.0664841,11.3524705 C11.0664841,14.0239288 9.02127253,15.7487045 5.8525941,15.7487045 L2.13346606,15.7495619 C2.13220529,15.7487045 2.13094453,15.7495619 2.12716223,15.7487045 L0.634291455,15.7487045 L0.634291455,2.27184226 C0.643747186,1.42149469 1.31989498,0.734176534 2.16498516,0.70319956 L2.53539765,0.70319956 L2.53539765,0.704056879 L5.78829513,0.704056879 C8.6387567,0.704056879 10.4804809,2.23656608 10.4804809,4.61082444 C10.4804809,6.16268637 9.70158084,7.06076647 9.23698927,7.46034044 L8.83745312,7.80185622 L9.29511049,8.05906471 Z M6.06188094,13.2032722 L6.06188094,13.2033353 C7.31394577,13.202478 8.09032431,12.4381523 8.09120685,11.1477981 C8.09032431,9.89057673 7.29415178,9.11335348 6.06188094,9.11335348 L4.33539057,9.11335348 C3.78103259,9.19076439 3.53026661,9.52712365 3.53026661,10.1740217 L3.53026661,13.2007507 L6.06188094,13.2032722 Z M3.53026661,5.03834955 L3.53026661,6.78549124 L5.80897166,6.78549124 C7.08902546,6.78549124 7.54453953,5.79579141 7.54453953,4.94759975 C7.54453953,3.83531583 6.87910823,3.17035102 5.7681229,3.17035102 L4.47268778,3.17035102 C3.82528541,3.21293963 3.53026661,3.54455841 3.53026661,4.24177357 L3.53026661,5.03834955 Z"></path>
    <path fill="#499FDD" d="M75.9210723,14.112964 C75.9210723,13.1090806 76.7306089,12.2965811 77.7276212,12.2965811 C78.7276593,12.2965811 79.5406,13.1090806 79.5406,14.112964 C79.5406,15.1142754 78.7276593,15.9276322 77.7276212,15.9276322 C76.7306089,15.9276322 75.9210723,15.1142754 75.9210723,14.112964 Z M116.129866,4.68179285 L116.129235,4.68179285 C118.530486,4.68179285 119.75078,6.08827608 119.75078,8.8599525 L119.748259,15.7981643 L118.350323,15.7981643 C117.25308,15.7981643 116.763273,15.3073993 116.763273,14.2093116 L116.763273,9.3554454 C116.763273,7.96444436 116.425136,7.4465855 115.510704,7.4465855 C114.24704,7.4465855 113.433721,8.58123538 113.192916,9.6879215 C113.07453,10.0823389 113.025486,10.4754704 113.025486,11.0006417 L113.025486,15.7981643 L110.034449,15.7981643 L110.034449,9.3554454 C110.034449,8.14982712 109.640082,7.52572367 108.832311,7.44830014 C107.522629,7.32357275 106.743603,8.57048106 106.459679,9.72964019 C106.354405,10.1644903 106.302335,10.5804164 106.302335,11.0006417 L106.302335,15.7981643 L103.332353,15.7981643 L103.344961,4.92996166 L104.652121,4.92996166 C105.467205,4.92996166 106.005173,5.26287903 106.169577,5.86718848 L106.283046,6.28698511 L106.577686,5.96783528 C107.028031,5.48825322 107.997559,4.68179285 109.443151,4.68179285 C110.82167,4.68179285 111.813135,5.21513389 112.389052,6.26547647 L112.565811,6.58505496 L112.791236,6.29945407 C113.592073,5.28610231 114.839473,4.68179285 116.129866,4.68179285 Z M96.5220839,4.67060988 C99.8300768,4.67060988 102.23738,7.04742759 102.23738,10.3206234 C102.23738,13.5938191 99.8300768,15.9702082 96.5220839,15.9702082 C93.2208991,15.9702082 90.826456,13.5938191 90.826456,10.3206234 C90.826456,7.04742759 93.2208991,4.67060988 96.5220839,4.67060988 Z M96.5220839,13.3284409 C98.1134203,13.3284409 99.1862045,12.1180821 99.1862045,10.3206234 C99.1862045,8.55155699 98.0871965,7.31410441 96.5220839,7.31410441 C94.9636534,7.31410441 93.8772529,8.55155699 93.8772529,10.3206234 C93.8772529,12.090131 94.9636534,13.3284409 96.5220839,13.3284409 Z M89.1067737,12.0247478 L89.1067737,12.0247982 L89.2762204,11.8441559 L90.5648474,13.9818319 L90.4792415,14.0867779 C90.4642384,14.1061432 88.8607986,16.0442403 85.9123757,16.0442403 C82.513986,16.0442403 80.0493183,13.6566682 80.0493183,10.3654057 C80.0493183,7.0728572 82.5410925,4.68184328 85.9751617,4.68184328 C87.5811231,4.68184328 89.9674974,5.36229028 89.9674974,7.23845857 L89.9674974,8.66085263 L88.3403552,8.65908756 C88.2040666,8.65908756 87.5110246,8.6182262 87.2821959,7.85562781 L87.267571,7.798843 C87.1682228,7.46249635 86.5334281,7.26248873 85.9751617,7.26248873 C84.256362,7.26248873 83.0554842,8.5296197 83.0554842,10.3425607 C83.0554842,12.4423885 84.6043329,13.3830572 86.137296,13.3830572 C87.8199118,13.3830572 89.0979484,12.0354643 89.1067737,12.0247478 Z"></path>
  </g>
</svg>