<svg xmlns="http://www.w3.org/2000/svg" width="124" height="34" viewBox="0 0 112 30">
  <path fill="#35B9B2" d="M768.87386,22.4544073 L771.427052,22.4544073 L770.993921,20.4711246 L770.993921,8.68541033 L768.554711,8.68541033 L768.554711,14.0653495 C767.825228,13.2218845 766.799392,12.7203647 765.613982,12.7203647 C763.174772,12.7203647 761.282675,14.7492401 761.282675,17.6899696 C761.282675,20.6534954 763.174772,22.6595745 765.613982,22.6595745 C766.822188,22.6595745 767.870821,22.1352584 768.600304,21.2462006 L768.87386,22.4544073 Z M817.110942,15.3647416 C817.612462,15.3647416 818.068389,15.5015198 818.478723,15.7978723 L819.641337,13.1990881 C819.094225,12.8571429 818.478723,12.7203647 817.863222,12.7203647 C816.768997,12.7203647 815.834347,13.2218845 815.264438,14.156535 L815.013678,12.9483283 L812.506079,12.9483283 L812.916413,14.8176292 L812.916413,22.4772036 L815.355623,22.4772036 L815.355623,16.3905775 C815.674772,15.7522796 816.290274,15.3647416 817.110942,15.3647416 Z M824.246201,20.106383 C822.832827,20.106383 821.784195,19.1717325 821.784195,17.712766 C821.784195,16.231003 822.832827,15.3191489 824.246201,15.3191489 C825.682371,15.3191489 826.708207,16.231003 826.708207,17.712766 C826.708207,19.1489362 825.682371,20.106383 824.246201,20.106383 Z M763.653495,17.6899696 C763.653495,16.2082067 764.702128,15.2963526 766.115502,15.2963526 C767.551672,15.2963526 768.577508,16.2082067 768.577508,17.6899696 C768.577508,19.1489362 767.551672,20.0835866 766.115502,20.0835866 C764.702128,20.106383 763.653495,19.1489362 763.653495,17.6899696 Z M835.074468,20.106383 C833.661094,20.106383 832.612462,19.1717325 832.612462,17.712766 C832.612462,16.231003 833.661094,15.3191489 835.074468,15.3191489 C836.510638,15.3191489 837.536474,16.231003 837.536474,17.712766 C837.513678,19.1489362 836.487842,20.106383 835.074468,20.106383 Z M777.354103,15.1595745 C778.607903,15.1595745 779.428571,15.7522796 779.702128,16.8465046 L775.006079,16.8465046 C775.256839,15.7294833 776.100304,15.1595745 777.354103,15.1595745 Z M806.510638,15.1595745 C807.764438,15.1595745 808.585106,15.7522796 808.858663,16.8465046 L804.162614,16.8465046 C804.458967,15.7294833 805.279635,15.1595745 806.510638,15.1595745 Z M794.610942,22.4544073 L798.531915,22.4544073 L801.085106,12.9027356 L798.417933,12.9027356 L796.571429,20.6534954 L794.702128,12.9255319 L792.080547,12.9255319 L794.610942,22.4544073 Z M788.341945,22.4544073 L790.781155,22.4544073 L790.781155,12.9027356 L788.341945,12.9027356 L788.341945,22.4544073 Z M777.718845,22.6367781 C779.086626,22.6367781 780.408815,22.2492401 781.525836,21.5425532 L780.591185,19.4452888 C779.724924,19.9240122 778.721884,20.174772 777.741641,20.174772 C776.465046,20.174772 775.575988,19.6732523 775.165653,18.7386018 L782.050152,18.7386018 C782.118541,18.3738602 782.164134,18.0547112 782.164134,17.6215805 C782.164134,14.6580547 780.112462,12.6975684 777.399696,12.6975684 C774.641337,12.6975684 772.635258,14.7036474 772.635258,17.6671733 C772.612462,20.6990881 774.618541,22.6367781 777.718845,22.6367781 Z M839.884498,17.6899696 C839.884498,14.7264438 837.832827,12.7203647 835.074468,12.7203647 C832.293313,12.7203647 830.264438,14.7492401 830.264438,17.6899696 C830.264438,20.6306991 832.316109,22.6595745 835.074468,22.6595745 C837.832827,22.6595745 839.884498,20.6534954 839.884498,17.6899696 Z M806.852584,22.6595745 C808.220365,22.6595745 809.542553,22.2948328 810.659574,21.5653495 L809.724924,19.4680851 C808.858663,19.9468085 807.855623,20.1975684 806.87538,20.1975684 C805.598784,20.1975684 804.709726,19.6960486 804.299392,18.7613982 L811.183891,18.7613982 C811.25228,18.3966565 811.297872,18.0775076 811.297872,17.6443769 C811.297872,14.6808511 809.246201,12.7203647 806.533435,12.7203647 C803.775076,12.7203647 801.768997,14.7264438 801.768997,17.6899696 C801.768997,20.7446809 803.75228,22.6595745 806.852584,22.6595745 Z M824.246201,22.6595745 C827.027356,22.6595745 829.056231,20.6306991 829.056231,17.6899696 C829.056231,14.7492401 827.004559,12.7203647 824.246201,12.7203647 C821.465046,12.7203647 819.43617,14.7492401 819.43617,17.6899696 C819.43617,20.6306991 821.465046,22.6595745 824.246201,22.6595745 Z M783.714286,22.4544073 L786.153495,22.4544073 L786.153495,8.68541033 L783.714286,8.68541033 L783.714286,22.4544073 Z M789.572948,11.6033435 C790.416413,11.6033435 791.100304,10.9194529 791.100304,10.0531915 C791.100304,9.18693009 790.43921,8.50303951 789.572948,8.50303951 C788.706687,8.50303951 788.022796,9.18693009 788.022796,10.0531915 C788.022796,10.9194529 788.683891,11.6033435 789.572948,11.6033435 Z M747.650456,0 L746.259878,13.2218845 L743.889058,2.07446809 L736.411854,3.64741641 L738.759878,14.7948328 L728,17.0744681 L729.914894,25.9650456 L748.858663,30 L753.18997,20.3115502 L755.241641,0.79787234 L747.650456,0 Z M741.655015,19.1945289 C741.267477,19.5592705 740.765957,19.5136778 740.196049,19.331307 C739.648936,19.1489362 739.420973,18.5106383 739.603343,17.6899696 C739.762918,17.0972644 740.469605,17.006079 740.857143,17.006079 C740.993921,17.006079 741.130699,17.0288754 741.267477,17.0972644 C741.518237,17.2112462 741.951368,17.4620061 742.042553,17.8267477 C742.179331,18.3738602 742.042553,18.8297872 741.655015,19.1945289 Z M747.148936,19.787234 C746.852584,20.2887538 746.1231,20.3571429 745.370821,19.9924012 C744.869301,19.7416413 744.869301,19.1489362 744.93769,18.7613982 C744.960486,18.556231 745.051672,18.3510638 745.18845,18.1914894 C745.370821,17.9635258 745.667173,17.6671733 745.986322,17.6671733 C746.556231,17.6443769 747.012158,17.8951368 747.285714,18.3510638 C747.559271,18.8069909 747.422492,19.3085106 747.148936,19.787234 Z" transform="translate(-728)"></path>
</svg>