<svg xmlns="http://www.w3.org/2000/svg" xmlns:xlink="http://www.w3.org/1999/xlink" width="111" height="37" viewBox="0 0 111 37">
  <defs>
    <polygon id="didi-color-a" points=".252 .259 3.659 .259 3.659 23.96 .252 23.96"></polygon>
    <polygon id="didi-color-c" points="0 0 43.644 0 43.644 35.947 0 35.947"></polygon>
  </defs>
  <g fill="none" fill-rule="evenodd" transform="translate(.795 .563)">
    <path fill="#646464" d="M51.8741883 6.98020403L58.5253801 6.98020403C65.2163032 6.98020403 70.5374459 11.1188706 70.5374459 18.0983178 70.5374459 25.7068424 65.9645741 29.592932 58.5253801 29.592932L51.8741883 29.592932 51.8741883 6.98020403zM55.0744417 26.7512053L58.4421338 26.7512053C63.9695004 26.7512053 67.0458303 24.0759713 67.0458303 18.2241333 67.0458303 12.9578575 63.4709684 9.82287671 58.8157963 9.82287671L55.0328186 9.82287671 55.0328186 26.7512053 55.0744417 26.7512053zM74.6104614 9.3622786L78.0197766 9.3622786 78.0197766 5.93498971 74.6104614 5.93498971 74.6104614 9.3622786zM74.776954 29.6355958L77.8116608 29.6355958 77.8116608 13.0828216 74.776954 13.0828216 74.776954 29.6355958zM83.4643698 6.98020403L90.1146157 6.98020403C96.8064847 6.98020403 102.127627 11.1188706 102.127627 18.0983178 102.127627 25.7068424 97.5557016 29.592932 90.1146157 29.592932L83.4643698 29.592932 83.4643698 6.98020403zM86.7062464 26.7512053L90.0729925 26.7512053C95.6013051 26.7512053 98.677635 24.0759713 98.677635 18.2241333 98.677635 12.9578575 95.1027731 9.82287671 90.447601 9.82287671L86.6646233 9.82287671 86.6646233 26.7512053 86.7062464 26.7512053z"></path>
    <g transform="translate(105.95 5.676)">
      <mask id="didi-color-b" fill="#fff">
        <use xlink:href="#didi-color-a"></use>
      </mask>
      <path fill="#646464" d="M0.251630925,3.68648766 L3.66000019,3.68648766 L3.66000019,0.259198773 L0.251630925,0.259198773 L0.251630925,3.68648766 Z M0.457854767,23.9598048 L3.49256157,23.9598048 L3.49256157,7.40703063 L0.457854767,7.40703063 L0.457854767,23.9598048 Z" mask="url(#didi-color-b)"></path>
    </g>
    <g>
      <mask id="didi-color-d" fill="#fff">
        <use xlink:href="#didi-color-c"></use>
      </mask>
      <path fill="#FC9153" d="M21.9469466,28.0477668 C29.4287097,27.7942439 35.3306847,21.7541557 35.413931,14.2771225 L35.413931,7.81418081 L43.6439651,7.81418081 L43.6439651,14.9534988 C43.4774724,26.5701446 33.5437267,35.6941306 21.9469466,35.9476535 C10.1420507,35.8634612 0.125058678,26.6543369 0.000189196185,14.9534988 L0.000189196185,2.15437695 C0.000189196185,0.845139356 0.831706427,0.000378392369 2.07850928,0.000378392369 L35.413931,0.000378392369 L35.413931,7.81418081 L9.26891028,7.81418081 C8.60388569,7.81418081 8.18860006,8.23703429 8.18860006,8.91246467 L8.18860006,14.151307 C8.27184639,21.7125325 14.2986908,27.9635745 21.9469466,28.0477668" mask="url(#didi-color-d)"></path>
    </g>
  </g>
</svg>