<svg xmlns="http://www.w3.org/2000/svg" width="116" height="35" viewBox="0 0 116 35">
  <g fill="none" transform="translate(.295 .511)">
    <path fill="#072F54" d="M57.0916541 26.3023564L53.3992753 26.3023564C53.3759058 26.3023564 53.3759058 26.3023564 53.3642211 26.2906717L50.185971 22.411337 47.0077209 26.2906717C46.9960362 26.3023564 46.9843514 26.3023564 46.9726667 26.3023564L44.0164267 26.3023564C43.9930572 26.3023564 43.9813725 26.2906717 43.9696878 26.2789869 43.9696878 26.2673022 43.9696878 26.2439327 43.9813725 26.2322479L48.6669544 20.4833544 44.0397962 14.7928846C44.0281115 14.7695151 44.0281115 14.7578304 44.0281115 14.7344609 44.0397962 14.7227761 44.051481 14.7110914 44.0631657 14.7110914L47.7555445 14.7110914C47.7672292 14.7110914 47.778914 14.7227761 47.7905987 14.7344609L50.5832523 18.1931448 53.4226448 14.7344609C53.4343295 14.7227761 53.4460143 14.7110914 53.457699 14.7110914L56.460678 14.7110914C56.4723627 14.7110914 56.4957322 14.7227761 56.5074169 14.7344609 56.5191017 14.7578304 56.5074169 14.7695151 56.4957322 14.7928846L52.1139536 20.0627037 57.1383931 26.2322479C57.1500778 26.2439327 57.1500778 26.2673022 57.1500778 26.2789869 57.1267083 26.3023564 57.1150236 26.3023564 57.0916541 26.3023564M77.0608798 16.7442367C75.4250158 16.7442367 74.3149652 17.7374398 73.9877924 19.455097L79.5497301 19.455097 79.5497301 19.3382496C79.5497301 17.9711347 78.5331574 16.7442367 77.0608798 16.7442367M82.4124921 21.231178C82.4008073 21.2428627 82.3891226 21.2545474 82.3774379 21.2545474L73.9293687 21.2545474C74.1046398 23.2175843 75.3782768 24.3393196 77.4464763 24.3393196 78.7201133 24.3393196 80.0755435 23.9069841 81.9801566 22.8904115 82.0152108 22.867042 82.0502651 22.9020962 82.0502651 22.9371504L82.0502651 25.5311634C82.0502651 25.5545328 82.0385803 25.5662176 82.0268956 25.5662176 80.2508146 26.3140411 78.463049 26.8281698 77.0608798 26.8281698 73.4269248 26.8281698 70.7861728 24.1757332 70.7861728 20.5300934 70.7861728 16.8844536 73.4269248 14.2320169 77.0608798 14.2320169 80.3793468 14.2320169 82.50597 16.4638028 82.50597 19.5368902 82.50597 20.0393342 82.4241768 21.1961237 82.4124921 21.231178M99.5656947 12.3040343C98.5257526 12.3040343 97.6844511 11.4744176 97.6844511 10.4578449 97.6844511 9.40621808 98.5257526 8.55323185 99.5656947 8.55323185 100.605637 8.55323185 101.446938 9.40621808 101.446938 10.4578449 101.446938 11.4744176 100.605637 12.3040343 99.5656947 12.3040343zM98.0466782 26.3023564C98.0116239 26.3023564 97.9999392 26.2906717 97.9999392 26.2556174L97.9999392 14.7461456C97.9999392 14.7227761 98.0116239 14.6994066 98.0349934 14.6994066L101.084711 14.6994066C101.108081 14.6994066 101.119766 14.7227761 101.119766 14.7461456L101.119766 26.2556174C101.119766 26.2906717 101.096396 26.3023564 101.073027 26.3023564L98.0466782 26.3023564zM62.6769612 24.5730144C62.1277783 24.5730144 61.5669106 24.4912212 60.912565 24.3276348L60.9242498 16.9428773C61.6837581 16.6974977 62.3381037 16.592335 62.9924493 16.592335 65.1073878 16.592335 66.5212417 18.1464058 66.5212417 20.4716697 66.5212417 22.9605199 65.0139098 24.5730144 62.6769612 24.5730144M63.506578 14.2320169C62.641907 14.2320169 61.777236 14.3839186 60.8658261 14.6994066L57.8277929 14.6994066C57.8044234 14.6994066 57.7810539 14.7227761 57.7810539 14.7461456L57.7810539 33.6170055C58.6924639 33.4884733 59.8141992 33.1613005 60.912565 32.3901075L60.912565 26.6528987C61.6603886 26.7580614 62.27968 26.8281698 62.8756019 26.8281698 67.0353704 26.8281698 69.7228612 24.3393196 69.7228612 20.4833544 69.7228612 16.8026604 67.1639025 14.2320169 63.506578 14.2320169M92.4964253 23.6148655C91.5499611 24.1173095 90.6969748 24.3510043 89.9024123 24.3510043 88.0211687 24.3510043 86.8877486 23.0189436 86.8877486 20.7871577 86.8877486 18.2165143 88.324972 16.545596 90.5567579 16.545596 91.1760493 16.545596 91.7719712 16.6974977 92.4964253 17.0246705L92.4964253 23.6148655zM92.4964253 8.61165556L92.4964253 14.6292982C91.6083848 14.3722338 90.825507 14.2553864 90.0309445 14.2553864 86.4086742 14.2553864 83.6861291 16.9779315 83.6861291 20.6002018 83.6861291 24.1991027 86.0931861 26.8164851 89.4116531 26.8164851 90.5567579 26.8164851 91.6317543 26.5243665 92.8937065 25.8817057L92.8937065 26.9216478C93.7233233 26.7580614 94.6814722 26.4308886 95.6279364 25.7531735L95.6279364 7.37307281C94.7048417 7.50160498 93.6064758 7.81709304 92.4964253 8.61165556zM111.694458 23.591496C110.771363 24.1173095 109.988485 24.3743738 109.287401 24.3743738 107.26594 24.3743738 106.062412 23.0423131 106.062412 20.8105272 106.062412 18.274938 107.48795 16.5689655 109.602889 16.5689655 110.163757 16.5689655 110.853156 16.7909756 111.694458 17.2349959L111.694458 23.591496zM114.825969 14.5591897C114.825969 14.4890813 114.767545 14.4306576 114.697437 14.4306576L112.231956 14.4306576C112.161848 14.4306576 112.091739 14.4890813 112.091739 14.5591897L112.091739 14.9798405 112.033315 14.9798405C110.899895 14.4773965 109.918377 14.2553864 108.971913 14.2553864 105.559968 14.2553864 102.884162 17.0830942 102.884162 20.7053645 102.884162 24.3626891 105.279534 26.8164851 108.843381 26.8164851 109.789845 26.8164851 111.016743 26.7463766 112.161848 25.4376854L112.161848 26.9216478C112.968095 26.7463766 113.926244 26.4075191 114.825969 25.7531735L114.825969 14.5591897zM35.5800423 23.4279096L43.2335489 23.4279096C43.1167015 24.2808959 42.8245829 25.2857838 42.1702373 26.3023564L34.2129274 26.3023564C33.2430937 26.3023564 32.4368465 25.5428481 32.3433685 24.5963839 32.3433685 24.5846992 32.3316838 24.5730144 32.3316838 24.549645L32.3316838 9.45295705C32.3316838 9.44127231 32.3433685 9.42958757 32.3433685 9.41790282 32.4368465 8.4597539 33.2430937 7.70024561 34.2129274 7.70024561L43.2218642 7.70024561C43.1050168 8.55323185 42.8128982 9.58148923 42.1468679 10.5980619L35.5800423 10.5980619 35.5800423 14.7110914 42.0884441 14.7110914C42.1118136 14.7110914 42.1351831 14.7344609 42.1351831 14.7578304L42.1351831 17.6089076C42.1351831 17.6322771 42.1118136 17.6556466 42.0884441 17.6556466L35.5800423 17.6556466 35.5800423 23.4279096zM16.1249453 10.5863771L15.5757624 9.02062156 10.8551262 2.72254511 11.6964277 2.51221974 19.8173241 9.53475025 24.5963839 8.16763533C25.1572516 8.02741841 25.7999125 7.99236418 26.2789869 7.99236418 24.7833398 4.75569038 22.0257405 2.09156899 18.4034702.806247264 11.2407227-1.75271144 3.35352123 1.99809105.806247264 9.17252322.011684743 11.3926244-.163586401 13.682834.163586401 15.8561962L11.6029498 11.8833836 16.1249453 10.5863771zM26.7931156 9.23094694C26.3724649 9.49969603 25.7531735 9.86192306 25.1455668 10.0605637L20.3548222 11.4276786 17.1648874 21.6868829 16.3352707 21.955632 17.0129857 14.1268542 16.639074 12.502675 12.1521327 13.7879967.280433831 16.5572808C1.22689801 21.1143305 4.45188707 25.0988279 9.16083848 26.7697461 16.3352707 29.3287048 24.2107874 25.5779023 26.7697461 18.4034702 27.868112 15.3303828 27.7980035 12.1053937 26.7931156 9.23094694"></path>
    <path fill="#FBC108" d="M16.6273892,12.4909902 L17.001301,14.1151695 L16.3235859,21.9439473 L17.1532027,21.6751982 L20.3431375,11.4159939 L25.1338821,10.0488789 C25.7414887,9.85023831 26.3607801,9.49969603 26.7814309,9.21926219 C26.6295292,8.79861145 26.4659428,8.38964544 26.2789869,7.98067944 C25.7882277,7.98067944 25.1572516,8.00404893 24.5963839,8.15595058 L19.8173241,9.52306551 L11.6964277,2.50053499 L10.8551262,2.71086037 L15.5640776,9.00893682 L16.1132605,10.5746924 L11.591265,11.8716988 L0.151901658,15.8445115 C0.186955887,16.0782063 0.233694859,16.3235859 0.280433831,16.5572808 L12.1404479,13.7646272 L16.6273892,12.4909902 Z"></path>
  </g>
</svg>