<svg xmlns="http://www.w3.org/2000/svg" xmlns:xlink="http://www.w3.org/1999/xlink" width="111" height="37" viewBox="0 0 111 37">
  <defs>
    <polygon id="google-color-a" points=".354 .313 17.623 .313 17.623 26.4 .354 26.4"></polygon>
    <polygon id="google-color-c" points="0 36.05 109.514 36.05 109.514 0 0 0"></polygon>
  </defs>
  <g fill="none" fill-rule="evenodd" transform="translate(.596 .292)">
    <path fill="#EA4335" d="M42.9096304,18.9711288 C42.9096304,15.7304606 40.5580238,13.5128835 37.8286981,13.5128835 C35.0993724,13.5128835 32.7477659,15.7304606 32.7477659,18.9711288 C32.7477659,22.1797111 35.0993724,24.4297802 37.8286981,24.4297802 C40.5580238,24.4297802 42.9096304,22.1760558 42.9096304,18.9711288 M46.8655281,18.9711288 C46.8655281,24.1580661 42.808093,27.9799344 37.8286981,27.9799344 C32.8493033,27.9799344 28.7918682,24.1580661 28.7918682,18.9711288 C28.7918682,13.7480442 32.8493033,9.96272932 37.8286981,9.96272932 C42.808093,9.96272932 46.8655281,13.7480442 46.8655281,18.9711288"></path>
    <path fill="#FBBC05" d="M62.4048141,18.9711288 C62.4048141,15.7304606 60.0532075,13.5128835 57.3238818,13.5128835 C54.5945561,13.5128835 52.2429496,15.7304606 52.2429496,18.9711288 C52.2429496,22.1797111 54.5945561,24.4297802 57.3238818,24.4297802 C60.0532075,24.4297802 62.4048141,22.1760558 62.4048141,18.9711288 M66.3607118,18.9711288 C66.3607118,24.1580661 62.3032767,27.9799344 57.3238818,27.9799344 C52.344487,27.9799344 48.2870519,24.1580661 48.2870519,18.9711288 C48.2870519,13.7521057 52.344487,9.96272932 57.3238818,9.96272932 C62.3032767,9.96272932 66.3607118,13.7480442 66.3607118,18.9711288"></path>
    <g transform="translate(67.42 9.65)">
      <mask id="google-color-b" fill="#fff">
        <use xlink:href="#google-color-a"></use>
      </mask>
      <path fill="#4285F4" d="M14.1463551,9.35354545 C14.1463551,6.1815166 12.0303154,3.86240204 9.337137,3.86240204 C6.60781128,3.86240204 4.32159484,6.1815166 4.32159484,9.35354545 C4.32159484,12.4930823 6.60781128,14.7797049 9.337137,14.7797049 C12.0303154,14.7797049 14.1463551,12.4930823 14.1463551,9.35354545 Z M17.6229962,0.856894553 L17.6229962,17.029774 C17.6229962,23.6825055 13.6991844,26.4000528 9.06095523,26.4000528 C4.69484638,26.4000528 2.06746423,23.4794306 1.07605291,21.0912706 L4.52060818,19.6575623 C5.13389417,21.1237626 6.63664791,22.8539602 9.05729988,22.8539602 C12.0258478,22.8539602 13.8661119,21.0222252 13.8661119,17.5740146 L13.8661119,16.2783972 L13.728021,16.2783972 C12.8426147,17.3709397 11.1367861,18.3253914 8.98419294,18.3253914 C4.47958706,18.3253914 0.353512664,14.4023919 0.353512664,9.35354545 C0.353512664,4.2685517 4.47958706,0.312654008 8.98419294,0.312654008 C11.1323185,0.312654008 12.8381471,1.26710571 13.728021,2.32715632 L13.8661119,2.32715632 L13.8661119,0.86095605 L17.6229962,0.86095605 L17.6229962,0.856894553 Z" mask="url(#google-color-b)"></path>
    </g>
    <mask id="google-color-d" fill="#fff">
      <use xlink:href="#google-color-c"></use>
    </mask>
    <polygon fill="#34A853" points="87.379 27.427 91.237 27.427 91.237 1.028 87.379 1.028" mask="url(#google-color-d)"></polygon>
    <path fill="#EA4335" d="M96.8220175,18.6950689 L104.871904,15.3524572 C104.429201,14.2274226 103.09703,13.4435538 101.529292,13.4435538 C99.5188512,13.4435538 96.7204801,15.2184278 96.8220175,18.6950689 M106.27312,21.9361431 L109.343612,23.9831374 C108.352606,25.4493377 105.964446,27.9755886 101.837966,27.9755886 C96.7204801,27.9755886 92.8986118,24.0196909 92.8986118,18.9671891 C92.8986118,13.6100751 96.7529721,9.95878967 101.395263,9.95878967 C106.070045,9.95878967 108.356668,13.6791206 109.103983,15.6895614 L109.514194,16.7130585 L97.471857,21.7005763 C98.3938167,23.5079423 99.827525,24.4299021 101.837966,24.4299021 C103.852468,24.4299021 105.249623,23.4388969 106.27312,21.9361431" mask="url(#google-color-d)"></path>
    <path fill="#4285F4" d="M14.1868076,16.6278077 L14.1868076,12.8059394 L27.0658134,12.8059394 C27.1917198,13.4720248 27.2567037,14.2599552 27.2567037,15.1128695 C27.2567037,17.9802861 26.4728349,21.5259726 23.946584,24.0522235 C21.4893785,26.6109664 18.3498416,27.9752231 14.1908691,27.9752231 C6.48214858,27.9752231 0,21.6961493 0,13.9878349 C0,6.27911436 6.48214858,4.0614966e-05 14.1908691,4.0614966e-05 C18.4554406,4.0614966e-05 21.49344,1.67337722 23.7760011,3.85440089 L21.0791674,6.55123463 C19.4423842,5.01598892 17.2248071,3.82190892 14.1868076,3.82190892 C8.55757334,3.82190892 4.15491102,8.35860062 4.15491102,13.9878349 C4.15491102,19.6166631 8.55757334,24.1537609 14.1868076,24.1537609 C17.8380931,24.1537609 19.9175793,22.6875606 21.2497502,21.3553898 C22.3301083,20.2746255 23.0408702,18.7316629 23.3211135,16.6237462 L14.1868076,16.6278077 Z" mask="url(#google-color-d)"></path>
  </g>
</svg>