<svg xmlns="http://www.w3.org/2000/svg" xmlns:xlink="http://www.w3.org/1999/xlink" width="96" height="37" viewBox="0 0 96 37">
  <defs>
    <polygon id="grab-color-a" points="0 0 94.74 0 94.74 36.489 0 36.489"></polygon>
  </defs>
  <g fill="none" fill-rule="evenodd" transform="translate(.913 .13)">
    <mask id="grab-color-b" fill="#fff">
      <use xlink:href="#grab-color-a"></use>
    </mask>
    <path fill="#1AAE48" d="M75.3920473,11.4951418 L75.3920473,0.000141791045 L77.7490871,0.000141791045 L77.7490871,9.87730597 C77.1091368,10.2005896 76.2139627,10.8159627 75.3920473,11.4951418 Z M71.2980672,14.9520075 C72.0202562,14.0851915 72.767495,13.2041965 73.6536891,12.4602662 L73.6536891,0.000141791045 L71.2980672,0.000141791045 L71.2980672,14.9520075 Z M43.9924204,24.084296 C43.9924204,27.1578532 45.2141866,30.0716592 47.4317985,32.2911617 C49.651301,34.5064104 52.5660522,35.7305398 55.6377189,35.7305398 C56.9388881,35.7305398 58.275505,35.4526294 59.2207786,34.9870821 L59.2207786,32.6305149 C58.116699,33.0927537 56.7824453,33.3720821 55.6377189,33.3720821 C50.6050821,33.3720821 46.3499328,29.119296 46.3499328,24.084296 L46.3499328,21.9602662 C46.3499328,16.9247935 50.6050821,12.6729527 55.6377189,12.6729527 C58.1398582,12.6729527 60.4789378,13.6309876 62.2243856,15.37549 C63.9674701,17.1190473 64.9250323,19.4576542 64.9250323,21.9602662 L64.9250323,35.7305398 L67.2839627,35.7305398 L67.2839627,21.5065348 C67.1369726,18.5010373 65.8537637,15.6893209 63.6715995,13.5865597 C61.4861269,11.4762363 58.62951,10.3135498 55.6377189,10.3135498 C52.5660522,10.3135498 49.651301,11.5362612 47.4317985,13.7557637 C45.2141866,15.9724303 43.9924204,18.8881269 43.9924204,21.9602662 L43.9924204,24.084296 Z M79.2790124,18.4447935 C80.3433905,17.3832512 81.7367239,16.7702413 83.0946095,16.7702413 C86.0046343,16.7702413 88.2869975,19.0488234 88.2869975,21.9602662 L88.2869975,24.084296 C88.2869975,26.9943209 86.0046343,29.2771567 83.0946095,29.2771567 C81.6852065,29.2771567 80.3244851,28.502505 79.2582164,27.1025547 C78.3129428,25.8651915 77.7004055,24.1906393 77.6058781,22.6862363 L75.6959527,25.0182264 C76.0707537,26.8024303 77.0032662,28.5119577 78.3209776,29.7138731 C79.6807537,30.9512363 81.376102,31.6356144 83.0946095,31.6356144 C87.2594851,31.6356144 90.64451,28.2477537 90.64451,24.084296 L90.64451,21.9602662 C90.64451,19.9893706 89.8471716,18.1040224 88.3994851,16.6563358 C86.9494353,15.2072313 85.0664502,14.4094204 83.0946095,14.4094204 C81.8477935,14.4094204 79.8655547,14.8560622 77.5033159,16.980092 L77.4948085,16.9885995 C76.8624204,17.6209876 75.3783408,19.1060124 74.4751318,20.1647189 C72.9565498,21.8213109 70.7493358,24.322505 68.8691866,26.8251169 L68.8691866,30.5083756 C70.9558781,27.8275796 72.1568483,26.3260124 74.118291,24.0611368 C75.8746095,22.0117836 78.0487388,19.5209876 79.2790124,18.4447935 Z M23.5967239,14.0005896 L23.5967239,11.2115597 C21.462296,10.0668333 19.1331418,9.55591294 16.0449328,9.55591294 C12.8943358,9.55591294 9.90727114,10.7124552 7.63105224,12.8071816 C5.35294279,14.9094701 4.09667413,17.6748682 4.09667413,20.5929279 L4.09667413,21.3548184 C4.09667413,27.441908 8.97948507,32.3932512 14.9829179,32.3932512 C19.8666741,32.3932512 21.8711269,30.7952662 22.3815746,30.2900174 L22.3815746,23.2075547 L14.4105547,23.2075547 L14.4105547,25.5660124 L20.1743607,25.5660124 L20.1743607,29.114097 L20.1535647,29.1211866 C19.4119975,29.4170572 17.8721468,30.0333756 14.9829179,30.0333756 C12.6929925,30.0333756 10.5505299,29.1429279 8.94829104,27.5213109 C7.33896269,25.894495 6.45560448,23.7028781 6.45560448,21.3548184 L6.45560448,20.5929279 C6.45560448,15.8892463 10.8473458,11.9162612 16.0449328,11.9162612 C19.6407537,11.9162612 21.7671468,12.4985498 23.5967239,14.0005896 Z M40.7728184,16.7702413 C41.6675199,16.7702413 42.426102,16.9186493 43.0296592,17.2121567 C43.3231667,16.4800423 43.6242363,15.8764851 44.0637886,15.1434254 C43.4219478,14.684495 41.8948582,14.4094204 40.7728184,14.4094204 C36.4685149,14.4094204 33.2219726,17.6550174 33.2219726,21.9602662 L33.2219726,35.7305398 L35.580903,35.7305398 L35.580903,21.9602662 C35.580903,18.9032512 37.7162761,16.7702413 40.7728184,16.7702413 Z M-0.000141791045,20.5929279 L-0.000141791045,21.3548184 C-0.000141791045,25.4450174 1.55152488,29.2615597 4.37033085,32.0997438 C7.18204726,34.9317836 10.9513259,36.4891219 14.9829179,36.4891219 C18.2247338,36.4891219 21.0955299,35.7551169 23.5182662,34.3140473 C25.516102,33.1230025 26.4013507,31.9191965 26.4779179,31.8090721 L26.4779179,19.1107388 L14.4105547,19.1107388 L14.4105547,21.4706144 L24.1189876,21.4706144 L24.1189876,31.0764851 L24.1095348,31.0840473 C22.9728433,32.223102 20.2740871,34.128301 14.9829179,34.128301 C11.535505,34.128301 8.34378856,32.813898 5.99005721,30.4228284 C3.64814179,28.0426294 2.35878856,24.8216095 2.35878856,21.3548184 L2.35878856,20.5929279 C2.35878856,17.3199179 3.83530597,14.0544701 6.40739552,11.6383507 C9.03431095,9.17591294 12.4562015,7.8185 16.0449328,7.8185 C19.3921468,7.8185 21.7236642,8.32658458 23.5967239,9.46091294 L23.5967239,6.81367413 C21.6466244,5.98419652 19.3160522,5.61175871 16.0449328,5.61175871 C7.34841542,5.61175871 -0.000141791045,12.4739726 -0.000141791045,20.5929279 Z M63.1885647,35.7305398 L63.1885647,21.9602662 C63.1885647,17.7263856 59.8715995,14.4094204 55.6377189,14.4094204 C53.6654055,14.4094204 51.7833657,15.2072313 50.3328433,16.6563358 C48.8851567,18.1040224 48.0873458,19.9893706 48.0873458,21.9602662 L48.0873458,24.084296 C48.0873458,28.1759129 51.5465746,31.6356144 55.6377189,31.6356144 C56.7592861,31.6356144 58.2863756,31.3595945 59.2207786,30.592505 L59.2207786,28.0998184 C58.3029179,28.8376045 56.9696095,29.2771567 55.6377189,29.2771567 C52.7272214,29.2771567 50.4462761,26.9943209 50.4462761,24.084296 L50.4462761,21.9602662 C50.4462761,19.0488234 52.7272214,16.7702413 55.6377189,16.7702413 C58.550107,16.7702413 60.8291617,19.0488234 60.8291617,21.9602662 L60.8291617,35.7305398 L63.1885647,35.7305398 Z M40.7728184,12.6729527 C42.3755299,12.6729527 43.761301,13.0170323 45.011898,13.7255149 C45.5998582,12.9905647 46.19349,12.3936244 46.6358781,11.9521816 C45.312495,10.9412114 43.0717239,10.3135498 40.7728184,10.3135498 C37.4965,10.3135498 34.5212512,11.4951418 32.3972214,13.6418582 C30.2883159,15.7696692 29.1237388,18.7231766 29.1237388,21.9602662 L29.1237388,35.7305398 L31.4826692,35.7305398 L31.4826692,21.9602662 C31.4826692,16.4918582 35.3029925,12.6729527 40.7728184,12.6729527 Z M91.3014751,13.7557637 C89.0805547,11.5362612 86.1667488,10.3135498 83.0946095,10.3135498 C80.8481667,10.3135498 78.5908532,11.1505896 77.3501816,11.9767587 C74.7814005,13.687704 72.6701318,15.544694 68.8691866,20.4549179 L68.8691866,23.9850423 C72.0939876,19.7837736 75.1458035,16.4734254 77.4621965,14.6528284 C78.9845597,13.4305896 81.1449826,12.6729527 83.0946095,12.6729527 C88.1272463,12.6729527 92.3809776,16.9247935 92.3809776,21.9602662 L92.3809776,24.084296 C92.3809776,26.5722562 91.4040373,28.9099179 89.6236144,30.6690721 C87.862097,32.4121567 85.5409776,33.3720821 83.0946095,33.3720821 C78.9585647,33.3720821 75.3183159,30.5329527 74.3286144,26.6559129 L72.6663507,28.671709 C73.8786642,32.7335498 78.2576443,35.7305398 83.0946095,35.7305398 C86.1667488,35.7305398 89.0805547,34.5064104 91.3014751,32.2911617 C93.5190871,30.0716592 94.739908,27.1578532 94.739908,24.084296 L94.739908,21.9602662 C94.739908,18.8881269 93.5190871,15.9724303 91.3014751,13.7557637 Z" mask="url(#grab-color-b)"></path>
  </g>
</svg>