<svg xmlns="http://www.w3.org/2000/svg" width="61" height="43" viewBox="0 0 61 43">
  <path fill="#FF00BF" d="M1020.23828,881.121279 L1029.35949,881.121279 L1029.35949,905.510314 C1029.35949,909.378711 1031.11707,911.675572 1032.54131,912.642671 C1031.05646,913.94221 1026.54131,915.090641 1023.14737,912.31023 C1021.14737,910.67825 1020.23828,907.958284 1020.23828,905.419648 L1020.23828,881.121279 Z M1077.17768,901.400142 L1077.17768,898.831285 L1079.96555,898.831285 L1079.96555,889.855395 L1076.90495,889.855395 C1075.72313,884.445683 1070.90495,880.426177 1065.14737,880.426177 C1058.51101,880.426177 1053.11707,885.805666 1053.11707,892.424252 L1053.11707,913.367995 C1054.99586,913.639992 1057.26858,913.337773 1059.17768,911.736015 C1061.17768,910.104035 1062.08677,907.384069 1062.08677,904.845433 L1062.08677,904.059665 L1066.63222,904.059665 L1066.63222,895.083775 L1062.08677,895.083775 L1062.08677,892.363808 C1062.08677,890.671385 1063.4504,889.311401 1065.14737,889.311401 C1066.84434,889.311401 1068.20798,890.671385 1068.20798,892.363808 L1068.20798,901.36992 C1068.20798,907.988506 1073.60192,913.367995 1080.23828,913.367995 L1080.23828,904.422327 C1078.54131,904.422327 1077.17768,903.062344 1077.17768,901.400142 Z M1042.69283,889.825173 L1042.69283,903.032122 C1042.69283,903.787668 1042.05646,904.392105 1041.29889,904.392105 C1040.54131,904.392105 1039.90495,903.787668 1039.90495,903.032122 L1039.90495,889.825173 L1030.90495,889.825173 L1030.90495,905.328983 C1030.90495,908.109393 1031.84434,911.64535 1036.17768,912.79378 C1040.51101,913.94221 1042.99586,911.554684 1042.99586,911.554684 C1042.75343,913.12622 1041.29889,914.274651 1038.90495,914.516426 C1037.08677,914.697757 1034.78374,914.09332 1033.63222,913.60977 L1033.63222,921.830114 C1036.57161,922.706547 1039.66252,922.978544 1042.72313,922.374107 C1048.23828,921.316342 1051.72313,916.722621 1051.72313,910.587585 L1051.72313,889.764729 L1042.69283,889.764729 L1042.69283,889.825173 Z" transform="translate(-1020 -880)"></path>
</svg>