<svg xmlns="http://www.w3.org/2000/svg" width="126" height="28" viewBox="0 0 126 28">
  <g fill="none" fill-rule="evenodd" transform="translate(.913 .292)">
    <path fill="#706D6E" fill-rule="nonzero" d="M124.489935,12.5611925 L124.489935,10.3730823 L121.772731,10.3730823 L121.772731,6.97140143 L121.681259,6.99956522 L119.129065,7.78044855 L119.078755,7.79573402 L119.078755,10.3732026 L115.05049,10.3732026 L115.05049,8.93733056 C115.05049,8.26874134 115.199975,7.75709907 115.494612,7.41588387 C115.787202,7.07876085 116.205687,6.90737092 116.739475,6.90737092 C117.123177,6.90737092 117.520479,6.99775985 117.920309,7.17601019 L118.020567,7.2207834 L118.020567,4.9164073 L117.973387,4.89907573 C117.600397,4.76499681 117.093088,4.69747592 116.464217,4.69747592 C115.671658,4.69747592 114.951556,4.86994907 114.323527,5.21176607 C113.695138,5.55406449 113.200827,6.04271836 112.854557,6.66400685 C112.50949,7.28457319 112.334369,8.00130565 112.334369,8.7944655 L112.334369,10.3730823 L110.44234,10.3730823 L110.44234,12.5611925 L112.334369,12.5611925 L112.334369,21.7792987 L115.05049,21.7792987 L115.05049,12.5611925 L119.078755,12.5611925 L119.078755,18.4191413 C119.078755,20.8317194 120.216741,22.0543169 122.461059,22.0543169 C122.829836,22.0543169 123.217991,22.0111084 123.61433,21.9264966 C124.01777,21.8395981 124.292548,21.7528199 124.454309,21.6601441 L124.490055,21.6389611 L124.490055,19.4306308 L124.379567,19.5036881 C124.232128,19.6019004 124.048582,19.6821792 123.833382,19.7418768 C123.617218,19.8026577 123.436681,19.8331083 123.296825,19.8331083 C122.771101,19.8331083 122.382104,19.6914468 122.140786,19.4118549 C121.8967,19.1297355 121.772851,18.6363877 121.772851,17.9462544 L121.772851,12.5611925 L124.489935,12.5611925 Z M104.376773,19.8334693 C103.39092,19.8334693 102.613648,19.5065767 102.065898,18.8626609 C101.514778,18.2154954 101.235547,17.2928303 101.235547,16.1205424 C101.235547,14.9110639 101.514778,13.9644475 102.066139,13.305848 C102.614249,12.6515814 103.38406,12.3195134 104.354627,12.3195134 C105.29643,12.3195134 106.04614,12.636657 106.583178,13.2626394 C107.122864,13.8918716 107.396799,14.8309054 107.396799,16.0544658 C107.396799,17.293071 107.139232,18.2445017 106.631321,18.8809554 C106.1269,19.5125946 105.368404,19.8334693 104.376773,19.8334693 Z M104.497492,10.0983048 C102.616657,10.0983048 101.122772,10.6494245 100.057603,11.7363784 C98.9931557,12.8234528 98.45347,14.3278086 98.45347,16.2080428 C98.45347,17.9939162 98.9802774,19.4303901 100.019449,20.4769037 C101.058621,21.5237784 102.472829,22.0540762 104.222474,22.0540762 C106.045659,22.0540762 107.509815,21.4952536 108.574503,20.3932548 C109.63907,19.2924597 110.178395,17.8023061 110.178395,15.9660026 C110.178395,14.1522061 109.672289,12.7050204 108.673678,11.6654875 C107.674585,10.6254732 106.269284,10.0983048 104.497492,10.0983048 Z M94.0742407,10.0983048 C92.7948341,10.0983048 91.7365254,10.4255584 90.92808,11.0707982 C90.1147,11.7198894 89.7021125,12.5711822 89.7021125,13.6013271 C89.7021125,14.1368003 89.7911775,14.6124555 89.9664189,15.0158958 C90.1427435,15.4206601 90.4155953,15.7770404 90.7781139,16.0761303 C91.1378642,16.372813 91.6931965,16.6835776 92.4290659,16.9997583 C93.0477065,17.2543157 93.509039,17.4696363 93.802111,17.6393412 C94.0885633,17.8056761 94.2918481,17.9728535 94.4066697,18.135698 C94.5182417,18.2950521 94.57481,18.513141 94.57481,18.7822617 C94.57481,19.5485817 94.0009426,19.9214511 92.8201093,19.9214511 C92.3821262,19.9214511 91.8825197,19.8299789 91.3352515,19.6496825 C90.7918709,19.472112 90.2790142,19.2120709 89.8146473,18.8786686 L89.7018718,18.7977879 L89.7018718,21.4128083 L89.7432749,21.4320656 C90.1275783,21.6094734 90.61214,21.7590785 91.1832392,21.8767887 C91.7532551,21.9946193 92.271156,22.0545576 92.7210546,22.0545576 C94.1093852,22.0545576 95.2273916,21.7257393 96.0431788,21.0766481 C96.8641413,20.4231036 97.2802193,19.551711 97.2802193,18.4859401 C97.2802193,17.7170926 97.0562328,17.0577709 96.6147593,16.5260289 C96.1762948,15.9986197 95.4152706,15.5144191 94.3538325,15.0864257 C93.5081965,14.7470158 92.9664648,14.4652575 92.7429598,14.248974 C92.5275188,14.0400324 92.4181133,13.7445533 92.4181133,13.3703599 C92.4181133,13.038653 92.553155,12.7729024 92.8303397,12.5577021 C93.1096909,12.3414186 93.4985679,12.2314113 93.9862589,12.2314113 C94.4388053,12.2314113 94.9018229,12.302904 95.362313,12.4430008 C95.822442,12.5830976 96.2266045,12.7707359 96.5639682,13.0002588 L96.6749384,13.0760844 L96.6749384,10.595504 L96.6323316,10.5772096 C96.3210856,10.4437325 95.9106645,10.3295127 95.4121413,10.2368369 C94.9159048,10.144763 94.4657655,10.0983048 94.0742407,10.0983048 Z M82.6213253,19.8334693 C81.6357129,19.8334693 80.8581996,19.5065767 80.3105703,18.8626609 C79.7593302,18.2154954 79.4805808,17.293071 79.4805808,16.1205424 C79.4805808,14.9110639 79.7596913,13.9644475 80.3111721,13.305848 C80.8588014,12.6515814 81.6284914,12.3195134 82.5995405,12.3195134 C83.5409816,12.3195134 84.2906921,12.636657 84.8278503,13.2626394 C85.3676564,13.8918716 85.641471,14.8309054 85.641471,16.0544658 C85.641471,17.293071 85.3837844,18.2445017 84.8758732,18.8809554 C84.3714524,19.5125946 83.6133168,19.8334693 82.6213253,19.8334693 Z M82.7424056,10.0983048 C80.8610882,10.0983048 79.3670832,10.6494245 78.3025158,11.7363784 C77.2380688,12.8234528 76.698022,14.3278086 76.698022,16.2080428 C76.698022,17.9946383 77.2251905,19.4303901 78.2643623,20.4769037 C79.3035341,21.5237784 80.7176213,22.0540762 82.467267,22.0540762 C84.2902107,22.0540762 85.754728,21.4952536 86.8194157,20.3932548 C87.8837424,19.2924597 88.4233077,17.8023061 88.4233077,15.9660026 C88.4233077,14.1522061 87.9170816,12.7050204 86.9182297,11.6654875 C85.9188965,10.6254732 84.513836,10.0983048 82.7424056,10.0983048 Z M72.5750351,12.3483994 L72.5750351,10.3730823 L69.8920124,10.3730823 L69.8920124,21.7790579 L72.5750351,21.7790579 L72.5750351,15.9444585 C72.5750351,14.9523468 72.7999844,14.1372817 73.243865,13.5216501 C73.6820889,12.9133603 74.2660663,12.6051232 74.9790677,12.6051232 C75.2207468,12.6051232 75.4920339,12.6449617 75.785828,12.7237963 C76.0766132,12.8021494 76.2872398,12.8872425 76.4114494,12.976789 L76.5242249,13.0585121 L76.5242249,10.3535843 L76.4807757,10.3349288 C76.2309122,10.2287729 75.8774205,10.1752136 75.4301698,10.1752136 C74.7559238,10.1752136 74.1525687,10.3918581 73.635751,10.8184072 C73.1821213,11.1933227 72.8542659,11.7073721 72.60356,12.3483994 L72.5750351,12.3483994 Z M65.0871969,10.0983048 C63.8562946,10.0983048 62.7583881,10.3622501 61.8245296,10.8825581 C60.8887454,11.4040697 60.1650322,12.1486049 59.6726472,13.0953417 C59.1824287,14.0397917 58.9335282,15.142994 58.9335282,16.3732944 C58.9335282,17.4509808 59.1748461,18.4399633 59.6518253,19.3115966 C60.1290451,20.1846743 60.8044948,20.8677064 61.6595187,21.3414359 C62.513339,21.8145636 63.500155,22.0544373 64.5927658,22.0544373 C65.8678395,22.0544373 66.9564785,21.7995188 67.8293154,21.2967831 L67.8645803,21.2765629 L67.8645803,18.8184895 L67.7518048,18.9008144 C67.3564284,19.1888314 66.9145938,19.4187153 66.4391794,19.5843281 C65.9649685,19.7498205 65.5326422,19.8334693 65.1535142,19.8334693 C64.1007419,19.8334693 63.2555874,19.5040492 62.6421222,18.8545969 C62.027333,18.2043021 61.7156055,17.2911453 61.7156055,16.1420865 C61.7156055,14.9858063 62.0406928,14.0491796 62.6813589,13.3580834 C63.3200993,12.6690333 64.1668185,12.3195134 65.197806,12.3195134 C66.0796697,12.3195134 66.9390265,12.6181218 67.7520455,13.2078765 L67.8645803,13.2895997 L67.8645803,10.6996138 L67.8282322,10.6791529 C67.5222819,10.5078834 67.1050004,10.3664626 66.5869791,10.2592235 C66.0711243,10.1522252 65.5665832,10.0983048 65.0871969,10.0983048 Z M57.0856703,10.3732026 L54.4026476,10.3732026 L54.4026476,21.7790579 L57.0856703,21.7790579 L57.0856703,10.3732026 Z M55.7716006,5.51422596 C55.3300068,5.51422596 54.9448609,5.66455322 54.6284394,5.96243951 C54.3106941,6.2611683 54.1495346,6.63728735 54.1495346,7.08116801 C54.1495346,7.5180679 54.3087683,7.88732653 54.6235047,8.17811169 C54.9361951,8.46805435 55.3225446,8.61501158 55.771721,8.61501158 C56.220777,8.61501158 56.6085708,8.46805435 56.9249923,8.17859313 C57.2434598,7.88732653 57.4049803,7.51818825 57.4049803,7.08116801 C57.4049803,6.65281355 57.2477927,6.28054596 56.9381113,5.97447532 C56.6286706,5.66900647 56.2360625,5.51422596 55.7716006,5.51422596 Z M49.0772833,9.53165884 L49.0772833,21.7790579 L51.81543,21.7790579 L51.81543,5.8633848 L48.0257147,5.8633848 L43.2087429,17.6850773 L38.5341549,5.8633848 L34.5901404,5.8633848 L34.5901404,21.7790579 L37.1632762,21.7789376 L37.1632762,9.53045526 L37.251619,9.53045526 L42.1878656,21.7790579 L44.1297231,21.7790579 L48.9889405,9.53165884 L49.0772833,9.53165884 Z"></path>
    <polygon fill="#F1511B" points="12.692 13.167 .07 13.167 .07 .545 12.692 .545"></polygon>
    <polygon fill="#80CC28" points="26.628 13.167 14.006 13.167 14.006 .545 26.628 .545"></polygon>
    <polygon fill="#00ADEF" points="12.692 27.107 .07 27.107 .07 14.486 12.692 14.486"></polygon>
    <polygon fill="#FBBC09" points="26.628 27.107 14.006 27.107 14.006 14.486 26.628 14.486"></polygon>
  </g>
</svg>