<svg xmlns="http://www.w3.org/2000/svg" width="119" height="35" viewBox="0 0 119 35">
  <g fill="none" fill-rule="evenodd" transform="translate(-.518 -.49)">
    <path fill="#000" d="M52.9433289,10.1110317 L55.3558028,10.1110317 L55.3558028,26.148315 L51.9139285,26.148315 L44.5569293,13.4056189 L44.5569293,26.148315 L42.1443404,26.148315 L42.1443404,10.1110317 L45.5275758,10.1110317 L52.9433289,22.9553686 L52.9433289,10.1110317 Z M65.0985435,13.9592047 C67.3190037,14.2297486 68.4613128,15.4679495 68.3772637,17.8072973 L68.3772637,18.7168903 L68.3772637,26.1483954 C66.0245784,26.5252942 62.7666693,26.4970095 60.9151743,26.2545204 C58.5391485,25.9301667 57.6898041,24.6184947 57.6898041,22.341925 C57.6898041,20.0653554 59.5419889,18.7972601 61.6496555,18.6454888 C62.927064,18.5925988 64.2325272,18.5980028 65.7449513,18.6347958 L65.7451812,17.7277323 C65.7451812,16.7972132 65.3303397,16.2025456 64.228273,16.0029434 C63.4457309,15.8944039 60.4442234,16.0227196 58.5200621,16.4261784 L58.5200621,14.2545839 C60.9528872,13.9969176 63.2682045,13.8172066 65.0985435,13.9592047 Z M65.8569401,24.5613505 L65.8937332,20.5296376 C65.1577573,20.5110112 63.3033878,20.5292927 62.5996059,20.5292927 C61.8982385,20.5292927 60.2764701,20.8330653 60.2844036,22.341925 C60.2944067,24.2343523 61.5537636,24.5134045 63.6854606,24.5613505 C64.2661009,24.5613505 65.3168872,24.5907849 65.8569401,24.5613505 Z M102.749993,13.9592047 C104.970453,14.2297486 106.112877,15.4679495 106.028828,17.8072973 L106.028828,18.7168903 L106.028828,26.1483954 C103.676143,26.5252942 100.418233,26.4970095 98.5667385,26.2545204 C96.1905977,25.9301667 95.3413682,24.6184947 95.3413682,22.341925 C95.3413682,20.0653554 97.1934381,18.7972601 99.3011047,18.6454888 C100.578628,18.5925988 101.884091,18.5980028 103.3964,18.6347958 L103.39663,17.7277323 C103.39663,16.7972132 102.981904,16.2025456 101.879837,16.0029434 C101.09718,15.8944039 98.0957875,16.0227196 96.1715113,16.4261784 L96.1715113,14.2545839 C98.6044514,13.9969176 100.919654,13.8172066 102.749993,13.9592047 Z M103.508504,24.5613505 L103.545182,20.5296376 C102.809321,20.5110112 100.954837,20.5292927 100.25117,20.5292927 C99.5496877,20.5292927 97.9280342,20.8330653 97.9359677,22.341925 C97.9459709,24.2343523 99.2053278,24.5134045 101.33691,24.5613505 C101.91755,24.5613505 102.968451,24.5907849 103.508504,24.5613505 Z M70.7904505,23.7089016 C72.8226913,24.2574629 74.7515666,24.4551105 76.5051001,24.0587805 C77.9861352,23.7671956 78.2804795,21.9741096 76.5051001,21.4540629 C75.384522,21.1558093 73.2231606,20.8906694 72.0879802,20.115256 C69.9108667,18.7733446 70.1083994,15.0364361 73.2784651,14.1843322 C75.0156717,13.6754384 77.1326515,13.6565819 79.6734412,14.1843322 L79.6734412,16.322468 C77.7556037,16.0252492 76.0535805,15.8171385 74.6196866,16.0892921 C72.8237261,16.4467595 72.98803,18.0914086 74.6196866,18.4801501 L77.9047305,19.3159271 C81.5355142,20.384995 81.2090909,24.8946724 77.9047305,25.9830567 C75.9387172,26.6115279 73.5332569,26.5587529 70.7904505,25.9830567 L70.7904505,23.7089016 Z M90.5051755,9.22975781 L93.0933362,9.22975781 L93.0933362,26.1483494 C91.4186778,26.4347603 89.0589789,26.6293035 87.5111415,26.4347603 C84.2379403,26.1483494 81.954357,24.0987469 81.954357,20.0135692 C81.954357,16.4041715 84.2865761,14.1863558 87.38708,13.915697 C88.719908,13.8219897 90.5051755,13.999976 90.5051755,13.999976 L90.5051755,9.22975781 Z M90.5051755,24.5300304 L90.5051755,16.1438607 L89.1417632,15.9873753 C86.7057188,15.8212317 84.6692238,16.867189 84.6692238,20.14154 C84.8342176,23.299418 86.5607312,24.5300304 88.8939851,24.5300304 L90.5051755,24.5300304 Z M119.420036,30.4001077 L116.661017,31.6634888 L116.661017,26.5087833 C116.661017,26.5087833 114.888053,26.5283296 113.555339,26.4347373 C110.454836,26.1639635 108.285771,24.1051627 108.285771,20.1718713 C108.285771,15.8911155 110.676514,14.2085236 113.837956,13.9219978 C115.385678,13.7275695 117.745492,13.8445024 119.420036,14.1310283 L119.420036,30.4001077 Z M116.681598,24.2671671 L116.83199,15.978729 L115.2208,15.978729 C112.887546,15.978729 110.996038,17.0345744 110.996038,20.3673343 C110.996038,23.3959768 113.032533,24.5724344 115.318186,24.4236525 L116.681598,24.2671671 Z"></path>
    <path fill="#0092BC" d="M21.0976036,24.5738141 C20.8361431,25.2897838 20.2389459,25.7250915 19.5439023,25.7262412 C18.8667953,25.727506 18.2670687,25.3342803 18.0292937,24.6935065 C17.4130102,23.0321855 16.8077646,21.3667254 16.2067732,19.6997705 C16.1694053,19.5959451 16.1751542,19.453947 16.213327,19.3486269 C17.2681376,16.4325482 18.3274323,13.5181941 19.392131,10.6059097 C19.6204779,9.98134773 20.2488341,9.55374356 20.899956,9.54925941 C21.5759132,9.54466028 22.1918518,9.9698499 22.4414696,10.6389084 C22.820323,11.6543964 23.1857239,12.6749435 23.5571037,13.693306 C23.7765972,14.2953322 24.0080484,14.8935641 24.2086855,15.5020291 C24.2600808,15.6578246 24.2618054,15.8626009 24.2065009,16.0160969 C23.1777904,18.8714671 22.1386168,21.722928 21.0976036,24.5738141 Z M20.3977424,9.24577428 C19.6334819,9.39340638 19.2087522,9.87493534 18.9483264,10.5934345 C16.0924963,18.4720901 13.2230988,26.3458016 10.3583003,34.2212378 C10.2918429,34.4039383 10.2349287,34.558929 9.98036678,34.5581241 C6.89699467,34.5488109 3.81362257,34.5489259 0.730250461,34.5467413 L0.730250461,34.3769184 C1.0214904,33.6007001 1.31928411,32.8270114 1.60305046,32.0480336 C3.68162752,26.3441919 5.75756008,20.6394304 7.83406752,14.9347838 C8.37573012,13.4467351 8.91842753,11.9590314 9.45687074,10.4697179 C9.77421075,9.59174388 10.3384091,9.18897502 11.2706529,9.18886004 C14.2032885,9.18863009 17.1358091,9.18874507 20.0684447,9.18874507 L20.4119997,9.18871632 C20.4042962,9.22105396 20.4032614,9.24473948 20.3977424,9.24577428 Z M30.2114247,0.765000529 L39.7178276,0.765000529 C39.6975914,0.856178292 39.6874733,0.95103536 39.6558543,1.03807391 C37.8410374,6.02514113 36.0241508,11.0112885 34.2082991,15.9978958 C33.1375065,18.9384649 32.0662541,21.8786891 30.9991408,24.8206379 C30.6814558,25.6963124 30.0967914,26.1166729 29.1600635,26.1167879 C26.2465142,26.1174778 23.3328501,26.1170179 20.4193009,26.1170179 L20.1166781,26.1170179 L20.1031106,26.0625182 C20.1377191,26.042282 20.169913,26.0123876 20.207166,26.0030744 C20.8134463,25.8513031 21.2149504,25.4748643 21.4274303,24.8922694 C22.3508207,22.3595282 23.2738662,19.826787 24.1961069,17.2935859 C25.8860574,12.6524883 27.575318,8.0110457 29.2648087,3.36960314 C29.5807689,2.50163223 29.8959243,1.6332014 30.2114247,0.765000529 Z"></path>
  </g>
</svg>