<svg xmlns="http://www.w3.org/2000/svg" width="121" height="36" viewBox="0 0 121 36">
  <g fill="none" fill-rule="evenodd" transform="translate(.238 -.237)">
    <path fill="#000" fill-rule="nonzero" d="M41.0907457,16.5085702 L39.5729545,16.5085702 C37.5791938,13.692247 35.6017753,10.8936279 33.6270806,7.73071165 L33.6127811,7.73071165 L33.6127811,16.5085702 L31.9349715,16.5085702 L31.9349715,4.26954842 L33.4541245,4.26954842 C35.4478853,7.06612473 37.42258,9.84499688 39.3788897,12.9915708 L39.4136171,12.9915708 L39.4136171,4.26954842 L41.0914267,4.26954842 L41.0914267,16.5085702 L41.0907457,16.5085702 Z M45.0789482,11.6644398 C45.5658126,10.055404 46.0560816,8.56961645 46.4939191,6.68071879 L46.5293274,6.68071879 C47.0182346,8.56961645 47.4560721,10.0560849 47.9102519,11.6644398 L45.0789482,11.6644398 Z M45.8810828,4.26954842 L41.6525124,16.5085702 L43.4705934,16.5085702 L44.5342048,13.1679315 L48.2255221,13.1679315 L49.1863132,16.5085702 L51.5307526,16.5085702 L47.63039,4.26954842 L45.8810828,4.26954842 Z M53.5047664,16.5085702 L53.5047664,5.91126877 L50.2866949,5.91126877 L50.2866949,4.26954842 L58.8180571,4.26954842 L58.8180571,5.91126877 L55.6027093,5.91126877 L55.6027093,16.5085702 L53.5047664,16.5085702 Z M59.4983054,4.26954842 L61.5819488,4.26954842 L61.5819488,16.5085702 L59.4983054,16.5085702 L59.4983054,4.26954842 Z M68.0507764,14.9676274 C65.8629508,14.9676274 65.0941817,12.5550952 65.0941817,10.2120177 C65.0941817,7.95746108 65.9678139,5.80640567 68.0507764,5.80640567 C70.1310151,5.80640567 71.0019236,7.95746108 71.0019236,10.2120177 C71.0019236,12.5550952 70.2345164,14.9676274 68.0507764,14.9676274 Z M68.0507764,16.7155727 C71.2491009,16.7155727 73.2414998,13.8672458 73.2414998,10.2113368 C73.2414998,6.78558189 71.0420984,4.05846037 68.0507764,4.05846037 C65.062178,4.05846037 62.8532436,6.78558189 62.8532436,10.2113368 C62.8539246,13.8679267 64.8497281,16.7155727 68.0507764,16.7155727 Z M83.6787829,16.5085702 L82.1589489,16.5085702 C80.1638263,13.692247 78.1877697,10.8936279 76.2144368,7.73071165 L76.1974136,7.73071165 L76.1974136,16.5085702 L74.5216467,16.5085702 L74.5216467,4.26954842 L76.0414808,4.26954842 C78.0325178,7.06612473 80.0085744,9.84499688 81.9635222,12.9915708 L81.9996114,12.9915708 L81.9996114,4.26954842 L83.6794638,4.26954842 L83.6794638,16.5085702 L83.6787829,16.5085702 Z M87.6649426,11.6644398 C88.1558925,10.055404 88.6427569,8.56961645 89.0826372,6.68071879 L89.1173646,6.68071879 C89.6069527,8.56961645 90.0427474,10.0560849 90.4962462,11.6644398 L87.6649426,11.6644398 Z M88.4711627,4.26954842 L84.2405495,16.5085702 L86.0599924,16.5085702 L87.1236038,13.1679315 L90.8142402,13.1679315 L91.7757123,16.5085702 L94.1174278,16.5085702 L90.2177462,4.26954842 L88.4711627,4.26954842 Z M94.7268595,4.26954842 L96.8111838,4.26954842 L96.8111838,14.8641262 L100.952595,14.8641262 L100.952595,16.5085702 L94.7268595,16.5085702 L94.7268595,4.26954842 Z M39.8010658,26.7456601 L39.8010658,31.7967931 C38.6809372,32.2359924 37.509058,32.5485389 36.3235603,32.5485389 C32.7207638,32.5485389 30.448503,29.7512817 30.448503,26.1491661 C30.448503,22.8085274 32.7207638,19.8900647 36.3923341,19.8900647 C37.5267622,19.8900647 38.663914,20.3115599 39.3639092,20.8351945 L38.6816182,22.2862547 C38.1232562,21.9396617 37.2469003,21.6420956 36.4440847,21.6420956 C34.2079132,21.6420956 32.6853555,23.408426 32.6853555,26.18866 C32.6853555,29.0887376 34.4346626,30.8005936 36.2357204,30.8005936 C36.7927205,30.8005936 37.2673282,30.7338626 37.7065275,30.5043894 L37.7065275,26.7456601 L39.8010658,26.7456601 Z M47.3049058,21.7469587 L43.8042487,21.7469587 L43.8042487,25.101897 L47.2306845,25.101897 L47.2306845,26.7456601 L43.8042487,26.7456601 L43.8042487,30.6943687 L47.9299988,30.6943687 L47.9299988,32.3401746 L41.7049439,32.3401746 L41.7049439,20.1004719 L47.3049058,20.1004719 L47.3049058,21.7469587 Z M53.7730525,30.7999127 C51.5852269,30.7999127 50.8150959,28.3894233 50.8150959,26.044984 C50.8150959,23.7917892 51.6894091,21.6414147 53.7730525,21.6414147 C55.8519294,21.6414147 56.7241997,23.7917892 56.7241997,26.044984 C56.7241997,28.3894233 55.9533878,30.7999127 53.7730525,30.7999127 Z M53.7730525,32.5485389 C56.9706961,32.5485389 58.9624141,29.6988502 58.9624141,26.044303 C58.9624141,22.6185481 56.7609699,19.8893838 53.7730525,19.8893838 C50.7796876,19.8893838 48.5796053,22.6185481 48.5796053,26.044303 C48.5789244,29.6995311 50.5685996,32.5485389 53.7730525,32.5485389 Z M69.0313144,26.7456601 L69.0313144,31.7967931 C67.9111859,32.2359924 66.7427113,32.5485389 65.5524471,32.5485389 C61.9523743,32.5485389 59.6780707,29.7512817 59.6780707,26.1491661 C59.6780707,22.8085274 61.9523743,19.8900647 65.6239446,19.8900647 C66.7610964,19.8900647 67.8955245,20.3115599 68.593477,20.8351945 L67.9111859,22.2862547 C67.3514621,21.9396617 66.4825964,21.6420956 65.6770571,21.6420956 C63.436119,21.6420956 61.9149232,23.408426 61.9149232,26.18866 C61.9149232,29.0887376 63.6649113,30.8005936 65.465969,30.8005936 C66.0270547,30.8005936 66.4968959,30.7338626 66.9354143,30.5043894 L66.9354143,26.7456601 L69.0313144,26.7456601 Z M73.056968,21.7469587 L73.9809889,21.7469587 C75.2189183,21.7469587 75.9202754,22.4605725 75.9202754,23.7209725 C75.9202754,25.3626929 74.9254378,26.0960536 73.9278765,26.1484852 C73.7174693,26.169594 73.2272003,26.1872982 73.056968,26.2022786 L73.056968,21.7469587 Z M78.3702587,32.3401746 L75.9005284,27.2720184 C77.2467255,26.5570427 78.0202611,25.101897 78.0202611,23.6331327 C78.0202611,21.253285 76.5664772,20.1004719 74.2233997,20.1004719 L70.9542586,20.1004719 L70.9542586,32.3401746 L73.056968,32.3401746 L73.056968,27.7248363 L74.000055,27.7248363 L75.972026,32.3401746 L78.3702587,32.3401746 Z M81.830741,27.4967251 C82.3189672,25.8856465 82.8085554,24.4012208 83.2470738,22.5130041 L83.2818012,22.5130041 C83.7713893,24.4012208 84.207184,25.8856465 84.6620447,27.4967251 L81.830741,27.4967251 Z M82.6335565,20.1004719 L78.4015814,32.3401746 L80.2196625,32.3401746 L81.2873595,28.9995358 L84.9779958,28.9995358 L85.9340205,32.3401746 L88.2811835,32.3401746 L84.38014,20.1004719 L82.6335565,20.1004719 Z M92.2135497,20.1004719 L88.9444086,20.1004719 L88.9444086,32.3401746 L91.0430324,32.3401746 L91.0430324,27.7248363 L91.9847575,27.7248363 C94.4864915,27.7248363 96.0090492,25.6963482 96.0090492,23.6331327 C96.0090492,21.2526041 94.5566272,20.1004719 92.2135497,20.1004719 Z M91.9193883,26.1491661 C91.701491,26.1689131 91.1894322,26.1852554 91.0430324,26.1995549 L91.0430324,21.7469587 L91.9847575,21.7469587 C93.2083873,21.7469587 93.9104254,22.4605725 93.9104254,23.7209725 C93.9104254,25.3626929 92.9169496,26.0967346 91.9193883,26.1491661 Z M105.727952,32.3401746 L103.63069,32.3401746 L103.63069,26.4501368 L99.2741048,26.4501368 L99.2741048,32.3401746 L97.1993135,32.3401746 L97.1993135,20.1004719 L99.2741048,20.1004719 L99.2741048,24.80365 L103.63069,24.80365 L103.63069,20.1351993 L105.727952,20.1351993 L105.727952,32.3401746 Z M107.736693,20.1004719 L109.821698,20.1004719 L109.821698,32.3401746 L107.736693,32.3401746 L107.736693,20.1004719 Z M119.258697,22.3223439 C118.750723,22.0070737 117.915223,21.6414147 117.10696,21.6414147 C114.970885,21.6414147 113.420409,23.4077451 113.420409,26.1879791 C113.420409,29.0880566 115.132265,30.7999127 117.161435,30.7999127 C117.904168,30.7964144 118.630938,30.5840466 119.258697,30.1870764 L119.837486,31.7096341 C119.204222,32.1461098 118.08886,32.5485389 117.076318,32.5485389 C113.473522,32.5485389 111.199218,29.7512817 111.199218,26.1491661 C111.199218,22.8085274 113.453775,19.8900647 117.10696,19.8900647 C118.193723,19.8900647 119.204222,20.3476492 119.925326,20.8351945 L119.258697,22.3223439 Z"></path>
    <path fill="#F7D730" d="M0.253377625,0.734163913 L24.791343,0.734163913 L24.791343,35.8932633 L0.253377625,35.8932633 L0.253377625,0.734163913 Z M3.79012399,32.3537932 L21.2423399,32.3537932 L21.2423399,4.27499586 L3.79012399,4.27499586 L3.79012399,32.3537932 Z"></path>
  </g>
</svg>