<svg xmlns="http://www.w3.org/2000/svg" xmlns:xlink="http://www.w3.org/1999/xlink" width="150" height="38" viewBox="0 0 150 38">
  <defs>
    <polygon id="postmates-color-a" points="0 .171 51.784 .171 51.784 37.344 0 37.344"></polygon>
  </defs>
  <g fill="none" fill-rule="evenodd" transform="translate(.238 -.07)">
    <path fill="#020000" d="M81.566888,13.1978838 L81.5376349,13.1947718 L81.566888,13.1978838 Z"></path>
    <g transform="translate(0 .452)">
      <path fill="#020000" d="M67.0290871 15.6921162C66.8579253 15.4767635 66.580332 15.3697095 66.1944398 15.3697095L65.2546058 15.3697095 65.2546058 18.2421162 66.1465145 18.2421162C66.5429876 18.2421162 66.8305394 18.1307054 67.0122822 17.9103734 67.1940249 17.6912863 67.2848963 17.3197095 67.2848963 16.7900415 67.2848963 16.2728216 67.1990041 15.9056017 67.0290871 15.6921162M69.7440249 18.4636929C69.5573029 18.9429461 69.2965145 19.3319502 68.9604149 19.6288382 68.6243154 19.9251037 68.2265975 20.1429461 67.7641494 20.2798755 67.3023237 20.416805 66.7950622 20.4877593 66.2460996 20.4877593L65.2546058 20.4877593 65.2546058 24.6790456 62.5490041 24.6790456 62.5490041 13.1246888 66.4434025 13.1246888C66.9612448 13.1246888 67.4361411 13.1875519 67.8712033 13.3145228 68.3062656 13.4421162 68.6821992 13.6456432 69.0014938 13.9257261 69.320166 14.2058091 69.5716183 14.5755187 69.7514938 15.0311203 69.9338589 15.4873444 70.0247303 16.0512448 70.0247303 16.7240664 70.0247303 17.4068465 69.9313693 17.9869295 69.7440249 18.4636929M77.4847718 17.1769917C77.4275104 16.7120539 77.3453527 16.3423444 77.2370539 16.0666183 77.1262656 15.7908921 76.9887137 15.5935892 76.8243983 15.478444 76.6588382 15.3626763 76.4721162 15.3041701 76.2623651 15.3041701 76.0426556 15.3041701 75.8521992 15.3589419 75.6922407 15.4703527 75.5341494 15.5811411 75.3984647 15.7709751 75.2882988 16.041722 75.1793776 16.3118465 75.100332 16.6809336 75.0474274 17.1446266 74.9988797 17.6083195 74.976473 18.1890249 74.976473 18.8861203 74.976473 19.581971 75.0032365 20.1626763 75.0573859 20.6251245 75.1121577 21.0906846 75.1961826 21.4597718 75.3051037 21.7373651 75.4152697 22.0143361 75.5509544 22.2110166 75.7084232 22.3261618 75.8696266 22.4419295 76.0582158 22.4998133 76.2791701 22.4998133 76.4876763 22.4998133 76.6750207 22.4437967 76.8405809 22.3336307 77.0055187 22.2240871 77.1399585 22.0330083 77.2451452 21.7622614 77.3490871 21.4915145 77.4275104 21.124917 77.4847718 20.6612241 77.5389212 20.1962863 77.5669295 19.6149585 77.5669295 18.9184855 77.5669295 18.2220124 77.5389212 17.6431743 77.4847718 17.1769917M80.1237759 21.5431743C79.9382988 22.2894398 79.6656846 22.9106017 79.3071784 23.3991909 78.949917 23.8890249 78.5129876 24.2543776 77.9951452 24.4971162 77.4779253 24.7367427 76.8959751 24.8606017 76.2461826 24.8606017 74.9484647 24.8606017 73.9376763 24.3794813 73.2175519 23.414751 72.496805 22.451888 72.1370539 20.9537552 72.1370539 18.9184855 72.1370539 16.8844606 72.5024066 15.3776141 73.233112 14.4054149 73.9650622 13.4307261 74.9802075 12.9440041 76.2791701 12.9440041 77.5781328 12.9440041 78.590166 13.4288589 79.3152697 14.3985685 80.0416183 15.3657884 80.4044813 16.8614315 80.4044813 18.8861203 80.4044813 19.9093568 80.3104979 20.7944191 80.1237759 21.5431743M89.7141286 22.9038797C89.5274066 23.328361 89.2653734 23.6825104 88.9298963 23.9700622 88.5937967 24.2538797 88.1967012 24.4760788 87.7435892 24.6291909 87.2842531 24.7835477 86.7863278 24.8607261 86.2473237 24.8607261 85.7973237 24.8607261 85.3896473 24.8128008 85.0255394 24.7281535 84.665166 24.6397718 84.3303112 24.508444 84.0278216 24.3323029 83.7247095 24.1567842 83.4477386 23.9432988 83.1937967 23.6949585 82.9410996 23.4478631 82.6933817 23.1652905 82.451888 22.8466183L84.334668 21.1468257C84.7180705 21.608029 85.0703527 21.958444 85.3896473 22.1949585 85.7076971 22.4320954 86.0095643 22.5497303 86.2964938 22.5497303 86.5834232 22.5497303 86.8211826 22.4762863 87.0072822 22.3262863 87.1940041 22.1781535 87.2873651 21.944751 87.2873651 21.6254564 87.2873651 21.4598963 87.2705602 21.3117635 87.2375726 21.1791909 87.2058299 21.0484855 87.1361203 20.9184025 87.031556 20.7914315 86.9269917 20.6663278 86.7788589 20.5374896 86.5852905 20.4123859 86.3929668 20.2854149 86.1321784 20.1503527 85.8023029 20.0071992 85.2296888 19.7569917 84.7435892 19.5055394 84.3427593 19.2559544 83.9406846 19.0088589 83.6139212 18.7437137 83.3693154 18.4561618 83.1203527 18.1710996 82.9410996 17.8536722 82.8303112 17.5088589 82.7226349 17.1609336 82.6678631 16.7625934 82.6678631 16.3107261 82.6678631 15.8376971 82.7493983 15.3970332 82.9137137 14.9899793 83.0798963 14.5829253 83.315166 14.2287759 83.6238797 13.9256639 83.9307261 13.6225519 84.3079046 13.3841701 84.7541701 13.2086515 85.1998133 13.031888 85.6971162 12.9441286 86.2473237 12.9441286 86.6873651 12.9441286 87.0813485 12.9833402 87.4274066 13.0592739 87.7740871 13.1364523 88.0890249 13.2540871 88.3672407 13.4159129 88.6491909 13.5740041 88.9112241 13.7663278 89.1545851 13.9935062 89.3935892 14.2175726 89.6369502 14.478361 89.878444 14.7758714L87.9632988 16.4912241C87.7672407 16.2621784 87.5960788 16.0667427 87.4535477 15.9055394 87.3091494 15.7474481 87.1722199 15.6173651 87.0396473 15.5184025 86.9089419 15.4200622 86.7726349 15.3515975 86.6369502 15.3117635 86.4987759 15.2744191 86.3406846 15.2545021 86.1657884 15.2545021 85.9006432 15.2545021 85.6971162 15.3366598 85.5539627 15.5022199 85.4132988 15.6671577 85.3404772 15.8594813 85.3404772 16.0785685 85.3404772 16.2341701 85.361639 16.3704772 85.4070747 16.4912241 85.4506432 16.6144606 85.5265768 16.731473 85.6361203 16.8478631 85.7462863 16.9617635 85.8950415 17.0750415 86.0842531 17.1864523 86.2697303 17.2959959 86.5118465 17.4161203 86.8087344 17.5499378 87.3919295 17.8026349 87.8830083 18.0571992 88.2857054 18.3167427 88.6884025 18.5744191 89.0145436 18.8582365 89.2678631 19.1669502 89.521805 19.4750415 89.7041701 19.8117635 89.8224274 20.1808506 89.9363278 20.5486929 89.9954564 20.9769087 89.9954564 21.4598963 89.9954564 21.9989004 89.901473 22.4806432 89.7141286 22.9038797"></path>
      <polygon fill="#020000" points="97.023 15.535 97.023 24.679 94.27 24.679 94.27 15.535 91.926 15.535 91.926 13.125 99.368 13.125 99.368 15.535"></polygon>
      <path fill="#020000" d="M108.592967 24.6790456L108.592967 22.1215768C108.592967 21.4929461 108.599191 20.9004149 108.610394 20.346473 108.620975 19.7906639 108.639025 19.2647303 108.661432 18.7692946 108.592967 19.0002075 108.519523 19.2560166 108.437988 19.5379668 108.352718 19.8174274 108.264336 20.1099585 108.165373 20.4124481 108.066411 20.7155602 107.963091 21.0136929 107.859149 21.3118257 107.755207 21.6080913 107.65749 21.8887967 107.570353 22.1533195L106.481141 25.0412863 105.390685 22.1533195C105.303548 21.9006224 105.208942 21.6224066 105.104378 21.319917 104.998568 21.016805 104.897739 20.7155602 104.797531 20.4124481 104.699191 20.1099585 104.609564 19.8174274 104.525539 19.5379668 104.442759 19.2560166 104.369315 19.0002075 104.303963 18.7692946 104.324502 19.2541494 104.340685 19.776971 104.35251 20.3377593 104.363714 20.8991701 104.369315 21.4929461 104.369315 22.1215768L104.369315 24.6790456 101.862261 24.6790456 101.862261 13.1253112 104.369315 13.1253112 105.390685 15.9653527C105.647116 16.6574689 105.869938 17.3197095 106.06973 17.9539419 106.2689 18.5869295 106.404585 19.1047718 106.481141 19.5136929 106.568278 19.1047718 106.712676 18.5881743 106.911224 17.9620332 107.109149 17.3346473 107.335083 16.6618257 107.586535 15.9473029L108.592967 13.1253112 111.086328 13.1253112 111.086328 24.6790456 108.592967 24.6790456zM118.46334 19.9091701C118.33139 19.1485892 118.208154 18.4539834 118.091141 17.8216183 117.975996 17.1886307 117.891349 16.6079253 117.835954 16.0788797 117.78056 16.6079253 117.70027 17.1886307 117.597573 17.8216183 117.492386 18.4539834 117.36666 19.1566805 117.224751 19.9247303L117.159398 20.2875934 118.528071 20.2875934 118.46334 19.9091701zM119.419979 24.6792946L118.990519 22.5326141 116.71251 22.5326141 116.3011 24.6792946 113.46168 24.6792946 116.449855 13.1249378 119.289274 13.1249378 122.260021 24.6792946 119.419979 24.6792946z"></path>
      <polygon fill="#020000" points="128.201 15.535 128.201 24.679 125.443 24.679 125.443 15.535 123.1 15.535 123.1 13.125 130.544 13.125 130.544 15.535"></polygon>
      <polygon fill="#020000" points="133.036 24.679 133.036 13.125 139.804 13.125 139.804 15.485 135.774 15.485 135.774 17.45 138.4 17.45 138.4 19.809 135.774 19.809 135.774 22.318 139.918 22.318 139.918 24.679"></polygon>
      <path fill="#020000" d="M149.358174,22.9038797 C149.170207,23.328361 148.910041,23.6825104 148.573942,23.9700622 C148.237842,24.2538797 147.842614,24.4760788 147.38639,24.6291909 C146.928921,24.7835477 146.430996,24.8607261 145.893237,24.8607261 C145.440124,24.8607261 145.03556,24.8128008 144.672697,24.7281535 C144.307967,24.6397718 143.975602,24.508444 143.671245,24.3323029 C143.370622,24.1567842 143.092407,23.9432988 142.838465,23.6949585 C142.587635,23.4478631 142.33805,23.1652905 142.097178,22.8466183 L143.977469,21.1468257 C144.362116,21.608029 144.715643,21.958444 145.03556,22.1949585 C145.352365,22.4320954 145.6561,22.5497303 145.941162,22.5497303 C146.229959,22.5497303 146.463983,22.4762863 146.652573,22.3262863 C146.83805,22.1781535 146.933278,21.944751 146.933278,21.6254564 C146.933278,21.4598963 146.916473,21.3117635 146.882863,21.1791909 C146.849253,21.0484855 146.781411,20.9184025 146.676846,20.7914315 C146.571037,20.6663278 146.422282,20.5374896 146.231826,20.4123859 C146.037635,20.2854149 145.776224,20.1503527 145.447593,20.0071992 C144.874979,19.7569917 144.388257,19.5055394 143.987427,19.2559544 C143.58473,19.0088589 143.259834,18.7437137 143.012739,18.4561618 C142.765643,18.1710996 142.587635,17.8536722 142.476846,17.5088589 C142.366058,17.1609336 142.310664,16.7625934 142.310664,16.3107261 C142.310664,15.8376971 142.394066,15.3970332 142.558382,14.9899793 C142.72332,14.5829253 142.961701,14.2287759 143.267925,13.9256639 C143.576639,13.6225519 143.953195,13.3841701 144.399461,13.2086515 C144.844481,13.031888 145.342407,12.9441286 145.893237,12.9441286 C146.333278,12.9441286 146.726639,12.9833402 147.072697,13.0592739 C147.420622,13.1364523 147.733071,13.2540871 148.013776,13.4159129 C148.293237,13.5740041 148.556515,13.7663278 148.796763,13.9935062 C149.037635,14.2175726 149.281618,14.478361 149.524979,14.7758714 L147.607967,16.4912241 C147.410041,16.2621784 147.241992,16.0667427 147.096971,15.9055394 C146.953817,15.7474481 146.81751,15.6173651 146.684938,15.5184025 C146.552365,15.4200622 146.416058,15.3515975 146.280996,15.3117635 C146.142822,15.2744191 145.98722,15.2545021 145.809834,15.2545021 C145.546556,15.2545021 145.342407,15.3366598 145.198008,15.5022199 C145.055477,15.6671577 144.985145,15.8594813 144.985145,16.0785685 C144.985145,16.2341701 145.006929,16.3704772 145.05112,16.4912241 C145.095311,16.6144606 145.171245,16.731473 145.282033,16.8478631 C145.392199,16.9617635 145.541577,17.0750415 145.726432,17.1864523 C145.915643,17.2959959 146.15527,17.4161203 146.454025,17.5499378 C147.036598,17.8026349 147.529544,18.0571992 147.929751,18.3167427 C148.332448,18.5744191 148.659834,18.8582365 148.913154,19.1669502 C149.164606,19.4750415 149.350705,19.8117635 149.465228,20.1808506 C149.581618,20.5486929 149.638257,20.9769087 149.638257,21.4598963 C149.638257,21.9989004 149.546141,22.4806432 149.358174,22.9038797"></path>
      <mask id="postmates-color-b" fill="#fff">
        <use xlink:href="#postmates-color-a"></use>
      </mask>
      <path fill="#020000" d="M34.5928008,8.02630705 C34.9786929,8.00763485 35.8500622,7.98149378 36.824751,8.03813278 L40.9805602,4.31302905 L39.1544191,4.12941909 L34.571639,8.02381743 L34.574751,8.02755187 C34.5803527,8.02692946 34.5871992,8.02630705 34.5928008,8.02630705 Z M4.37184647,27.1541079 L3.02246888,24.7522407 L2.70068465,27.4895851 L6.22406639e-05,28.0304564 L2.50400415,29.1787967 L2.18346473,31.9155187 L4.05255187,29.8889627 L6.55587137,31.0404149 L5.20649378,28.6379253 L7.07246888,26.6132365 L4.37184647,27.1541079 Z M13.3992324,31.3092946 L12.0510996,28.906805 L11.7311826,31.643527 L9.02993776,32.1837759 L11.5338797,33.3352282 L11.2133402,36.0719502 L13.0805602,34.0441494 L15.5838797,35.1962241 L14.2345021,32.7924896 L16.101722,30.7684232 L13.3992324,31.3092946 Z M14.6098133,19.716971 L13.2591909,17.3151037 L12.9392739,20.0518257 L10.238029,20.5933195 L12.7425934,21.7447718 L12.4220539,24.4808714 L14.2886515,22.4530705 L16.7925934,23.6045228 L15.4425934,21.2026556 L17.3110581,19.1754772 L14.6098133,19.716971 Z M48.0959129,23.1756846 C47.4529668,23.6375104 46.7396888,23.9480913 45.9703942,24.1018257 C43.8542116,24.5269295 41.675166,23.6692531 40.4147925,21.9171784 C39.0355394,19.9951867 39.0809751,17.4825311 40.33139,15.6271369 L44.7654149,18.9209129 C44.8537967,18.986888 44.9633402,19.0136515 45.0641701,19.0005809 C45.1743361,18.9887552 45.2820124,18.9327386 45.3529668,18.8381328 C45.4930083,18.6526556 45.4562863,18.3893776 45.2714315,18.2505809 L40.9625104,14.8553527 C41.1797303,14.6331535 41.4131328,14.4227801 41.675166,14.2366805 C42.3162448,13.77361 43.0326349,13.4624066 43.8019295,13.3080498 C45.9156224,12.8835685 48.0959129,13.743112 49.3569087,15.4945643 C51.1264108,17.9586722 50.561888,21.4036929 48.0959129,23.1756846 Z M33.4183195,15.2393776 C32.1013071,14.2895851 29.3776556,14.7476763 27.6044191,15.0433195 C28.2075311,13.7760996 29.2712241,12.4628216 29.6266183,10.9341909 C29.8164523,11.8989212 33.0013071,12.9943568 33.0013071,12.9943568 C33.0013071,12.9943568 34.4484025,12.6738174 35.6988174,12.183361 C35.7125104,12.1958091 35.7274481,12.2088797 35.7411411,12.2188382 L36.2179046,12.57361 L33.4183195,15.2393776 Z M35.3359544,20.1090871 L34.0911411,17.2397925 C34.1315975,16.7841909 34.1060788,16.3746473 34.0040041,16.0335685 L36.1743361,13.9659336 L35.3359544,20.1090871 Z M34.8168672,23.8976763 C34.5896888,23.9045228 34.3612656,23.9673859 34.1496473,24.0781743 C34.03139,23.9393776 33.8484025,23.8005809 33.5166598,23.5870954 C33.2664523,23.4258921 32.1286929,22.7443568 32.171639,22.6012033 C32.3365768,22.1070124 32.7081535,21.3694606 33.244668,20.3256846 C33.8073237,20.9462241 34.3737137,22.0043154 34.93139,23.0704979 L34.8168672,23.8976763 Z M33.0809751,26.2995436 C31.9556639,24.803278 30.2857469,23.8522407 28.4820124,23.6070124 L28.6656224,21.6314938 L30.2297303,22.7362656 C30.0579461,23.3642739 30.13139,23.696639 30.6423859,23.9020332 L33.3772407,24.9613693 L33.3921784,24.9725726 C33.278278,25.3254772 33.2888589,25.7138589 33.4425934,26.0655187 L33.0809751,26.2995436 Z M30.7762033,34.9111618 C30.1345021,35.3748548 29.4187344,35.6860581 28.6506846,35.8422822 C26.5369917,36.2655187 24.3560788,35.4065975 23.0969502,33.6551452 C21.3262033,31.1897925 21.8925934,27.7441494 24.3560788,25.9734025 C24.9990249,25.5121992 25.7147925,25.2003734 26.4815975,25.0460166 C26.7784855,24.9862656 27.0766183,24.9545228 27.3735062,24.9445643 L26.8519295,30.5418672 C26.8351245,30.7279668 26.9266183,30.9084647 27.0847095,31.0049378 C27.1923859,31.0709129 27.3174896,31.0908299 27.4351245,31.0671784 C27.4942531,31.0553527 27.5515145,31.0329461 27.6031743,30.9987137 L32.4324274,27.8841909 C33.6909336,30.2742324 33.0311826,33.2929046 30.7762033,34.9111618 Z M28.3513071,24.9987137 C29.7374066,25.2009959 31.0176971,25.9260996 31.9027593,27.0607469 L27.9199793,29.6319087 L28.3513071,24.9987137 Z M31.838029,18.0943568 C31.3369917,19.8290041 30.838444,21.0489212 30.5110581,21.9084647 L28.9724689,20.8211203 L31.838029,18.0943568 Z M25.8286929,18.5991286 C26.0340871,18.596639 26.2494398,18.5810788 26.4865768,18.5362656 C28.3382365,18.3526556 29.6328423,18.1628216 30.4942531,18.0221577 L28.158361,20.2460166 L25.8286929,18.5991286 Z M32.5120954,10.2314938 C33.5340871,10.3217427 34.5828423,10.236473 35.508361,10.0945643 L35.8457054,10.8389627 C35.118112,10.8843983 34.3699793,10.9628216 33.6928008,11.0748548 C33.1537967,11.1638589 31.7564938,9.77900415 32.5120954,10.2314938 Z M50.4909336,14.6792116 C48.9125104,12.4827386 46.1789004,11.4072199 43.5262033,11.9387552 C42.5620954,12.1310788 41.6633402,12.5219502 40.8585685,13.1007884 C40.4901037,13.366556 40.1558714,13.6628216 39.8558714,13.9827386 L37.8473651,12.4012033 C38.4324274,12.1827386 40.2560788,11.4495436 39.5004772,11.0524481 C39.2988174,10.9441494 38.8861618,10.8719502 38.3521369,10.8321162 L39.7768257,9.59290456 L40.088029,9.32278008 L42.7569087,7.00058091 L41.5152075,4.58315353 L37.424751,8.25224066 C37.424751,8.25224066 37.4210166,8.246639 37.0239212,8.61074689 C37.0195643,8.61012448 37.0158299,8.60950207 37.0127178,8.60950207 L37.0158299,8.61821577 L37.0127178,8.62008299 L37.0102282,8.61697095 C36.141971,8.56095436 35.3272407,8.63502075 34.8772407,8.69912863 L34.8759959,8.69726141 C33.9585685,8.86157676 33.1830498,8.97921162 32.8139627,8.90701245 C31.4714315,8.64684647 31.1540041,7.21842324 30.5452905,6.38813278 C30.1992324,5.91697095 29.5046266,5.86219917 29.4448755,5.45825726 C29.6378216,5.42278008 29.8195643,5.3680083 29.98139,5.29020747 C30.7176971,4.93917012 30.9741286,4.60804979 31.1739212,4.16240664 C31.4272407,3.59539419 31.1564938,2.66302905 30.7780705,1.89062241 C31.0824274,1.66966805 32.2239212,0.779004149 32.1797303,0.627136929 C32.1647925,0.570497925 30.7438382,0.767178423 30.1469502,0.882323651 C30.0591909,0.777136929 29.9776556,0.694356846 29.9073237,0.642074689 C29.4199793,0.284190871 29.0222614,-0.0792946058 27.8739212,0.40120332 C25.911473,1.21966805 26.0135477,2.75016598 26.6645851,4.11385892 C26.9639627,4.74560166 27.4892739,5.1426971 28.061888,5.34248963 C28.0189419,5.42278008 27.9971577,5.46821577 27.9753734,5.50929461 L28.0295228,5.37298755 C24.9305602,8.16883817 17.6957054,12.8760996 15.7905187,12.9694606 C17.3670747,13.5843983 21.9093983,13.6690456 23.8127178,12.5325311 C23.2786929,14.7059751 23.2457054,16.8507884 24.1637552,17.9138589 C23.4585685,18.4366805 22.7309751,18.9999585 22.3799378,19.3416598 C22.104834,19.6092946 22.1876141,19.7468465 22.424751,20.0499585 C22.424751,20.0499585 24.2670747,20.0848133 24.8129253,19.5657261 C24.9591909,19.4256846 25.0867842,19.2999585 25.2025519,19.1829461 L27.745083,20.9792116 L27.504834,23.5460166 C27.0735062,23.5485062 26.6403112,23.5889627 26.2064938,23.6760996 C25.2430083,23.8690456 24.3448755,24.2605394 23.5401037,24.8387552 C20.4504772,27.0601245 19.7428008,31.3783817 21.9610581,34.4698755 C23.5401037,36.6663485 26.2730913,37.7406224 28.9270332,37.2109544 C29.8911411,37.0173859 30.7886515,36.6265145 31.5921784,36.0476763 C34.4540041,33.9912448 35.268112,30.1360581 33.6106432,27.1223651 L34.1154149,26.7974689 C34.6220539,27.0763071 35.2631328,27.0626141 35.7654149,26.7034855 C36.2720539,26.3381328 36.4886515,25.7263071 36.3784855,25.1518257 C37.0674896,24.9526556 37.7907261,24.7186307 38.59861,24.480249 C39.4357469,24.2319087 39.5589834,23.9810788 39.3523444,23.5678008 C39.0710166,23.0039004 36.94861,23.513029 36.674751,23.1937344 L36.0871992,21.84 L37.24861,13.3385477 L39.2091909,14.7937344 C37.6058714,17.1252697 37.5386515,20.30639 39.2801452,22.7325311 C40.8585685,24.9290041 43.5940456,26.0039004 46.2454979,25.4729876 C47.2096058,25.2794191 48.1077386,24.8885477 48.9106432,24.310332 C52.0027593,22.0902075 52.7098133,17.7688382 50.4909336,14.6792116 Z" mask="url(#postmates-color-b)"></path>
    </g>
  </g>
</svg>