<svg xmlns="http://www.w3.org/2000/svg" width="91" height="64" viewBox="0 0 91 64">
  <path fill="#2791C4" fill-rule="evenodd" d="M1042.69009,764.778697 C1045.59223,761.755063 1049.63309,759.879445 1054.10264,759.879445 C1060.04436,759.879445 1065.22678,763.191496 1067.98743,768.109519 C1070.3868,767.037997 1073.04148,766.441384 1075.83523,766.441384 C1086.55066,766.441384 1095.23828,775.204494 1095.23828,786.013972 C1095.23828,796.824661 1086.55066,805.587772 1075.83523,805.587772 C1074.52696,805.587772 1073.24917,805.455572 1072.01255,805.206916 C1069.5825,809.541445 1064.95047,812.471228 1059.63302,812.471228 C1057.40824,812.471228 1055.30374,811.957971 1053.42812,811.042666 C1050.96518,816.838857 1045.22308,820.903739 1038.53277,820.903739 C1031.56455,820.903739 1025.62546,816.494936 1023.34638,810.311229 C1022.35055,810.521537 1021.31737,810.632747 1020.25917,810.632747 C1011.9631,810.632747 1005.23828,803.837895 1005.23828,795.45564 C1005.23828,789.836657 1008.25808,784.931955 1012.74883,782.307744 C1011.82424,780.179433 1011.31098,777.832943 1011.31098,775.364748 C1011.31098,765.724479 1019.13759,757.908562 1028.79078,757.908562 C1034.45881,757.908562 1039.49571,760.60301 1042.69009,764.778697 Z M1018.27315,790.575965 C1018.21623,790.724109 1018.29293,790.754585 1018.3115,790.779814 C1018.48084,790.902729 1018.65138,790.991333 1018.82476,791.090634 C1019.74268,791.57725 1020.61036,791.718733 1021.51658,791.718733 C1023.36293,791.718733 1024.50974,790.73743 1024.50974,789.156687 L1024.50974,789.126211 C1024.50974,787.664548 1023.21479,787.132925 1022.00198,786.749445 L1021.84314,786.698988 C1020.92784,786.401488 1020.13827,786.144759 1020.13827,785.541687 L1020.13827,785.51121 C1020.13827,784.99533 1020.59986,784.615685 1021.31535,784.615685 C1022.11037,784.615685 1023.05352,784.880286 1023.66063,785.216335 C1023.66063,785.216335 1023.84047,785.331379 1023.90545,785.158208 C1023.94098,785.064154 1024.24796,784.237453 1024.28106,784.147436 C1024.31537,784.050961 1024.25462,783.9781 1024.19105,783.939752 C1023.49654,783.517925 1022.53764,783.229508 1021.54564,783.229508 L1021.36178,783.230921 C1019.67124,783.230921 1018.49133,784.251985 1018.49133,785.714858 L1018.49133,785.745335 C1018.49133,787.286317 1019.79294,787.787665 1021.01261,788.135623 L1021.20838,788.196374 C1022.09725,788.468846 1022.863,788.704383 1022.863,789.328647 L1022.863,789.360335 C1022.863,789.931719 1022.36427,790.357785 1021.5628,790.357785 C1021.25057,790.357785 1020.25715,790.352537 1019.18442,789.673981 C1019.05484,789.597083 1018.98077,789.542992 1018.88026,789.482039 C1018.82738,789.448939 1018.69518,789.392224 1018.63685,789.565395 L1018.27315,790.575965 Z M1045.29997,790.575965 C1045.24306,790.724109 1045.31975,790.754585 1045.33832,790.779814 C1045.50766,790.902729 1045.67821,790.991333 1045.85158,791.090634 C1046.76951,791.57725 1047.63718,791.718733 1048.5434,791.718733 C1050.38996,791.718733 1051.53676,790.73743 1051.53676,789.156687 L1051.53676,789.126211 C1051.53676,787.664548 1050.24181,787.132925 1049.02881,786.749445 L1048.86997,786.698988 C1047.95466,786.401488 1047.1651,786.144759 1047.1651,785.541687 L1047.1651,785.51121 C1047.1651,784.99533 1047.62669,784.615685 1048.34238,784.615685 C1049.13719,784.615685 1050.08035,784.880286 1050.68746,785.216335 C1050.68746,785.216335 1050.86749,785.331379 1050.93228,785.158208 C1050.968,785.064154 1051.27479,784.237453 1051.30789,784.147436 C1051.3422,784.050961 1051.28145,783.9781 1051.21787,783.939752 C1050.52357,783.517925 1049.56588,783.229508 1048.57247,783.229508 L1048.3886,783.230921 C1046.69806,783.230921 1045.51815,784.251985 1045.51815,785.714858 L1045.51815,785.745335 C1045.51815,787.286317 1046.82118,787.787665 1048.03943,788.135623 L1048.23521,788.196374 C1049.12407,788.468846 1049.89123,788.704383 1049.89123,789.328647 L1049.89123,789.360335 C1049.89123,789.931719 1049.39251,790.357785 1048.58962,790.357785 C1048.27739,790.357785 1047.28539,790.352537 1046.21144,789.673981 C1046.08167,789.597083 1046.00497,789.545616 1045.90708,789.482039 C1045.87398,789.460847 1045.71797,789.400096 1045.66509,789.565395 L1045.29997,790.575965 Z M1063.75058,787.479267 C1063.75058,788.372169 1063.58387,789.077166 1063.25589,789.574478 C1062.93034,790.066542 1062.43969,790.307327 1061.75588,790.307327 C1061.07067,790.307327 1060.58264,790.066542 1060.26253,789.574478 C1059.93839,789.077166 1059.7743,788.372169 1059.7743,787.479267 C1059.7743,786.587779 1059.93839,785.883993 1060.26112,785.39213 C1060.58264,784.905313 1061.07067,784.668363 1061.75588,784.668363 C1062.43969,784.668363 1062.93034,784.905313 1063.25589,785.39213 C1063.58387,785.883993 1063.75058,786.587779 1063.75058,787.479267 Z M1065.29156,785.823242 C1065.1408,785.311397 1064.90405,784.860305 1064.5904,784.484697 C1064.27696,784.107676 1063.87875,783.804727 1063.40666,783.585135 C1062.93579,783.365542 1062.38015,783.253122 1061.75588,783.253122 C1061.13021,783.253122 1060.57335,783.365542 1060.10248,783.585135 C1059.63161,783.804727 1059.2334,784.107676 1058.91995,784.485908 C1058.6051,784.861717 1058.36956,785.31281 1058.21879,785.823242 C1058.06802,786.332462 1057.99133,786.889314 1057.99133,787.479267 C1057.99133,788.06922 1058.06802,788.627485 1058.21879,789.135293 C1058.36956,789.645926 1058.6051,790.097019 1058.91995,790.47404 C1059.2334,790.850859 1059.63282,791.152597 1060.10369,791.36674 C1060.57457,791.581084 1061.13021,791.68967 1061.75588,791.68967 C1062.38015,791.68967 1062.93438,791.581084 1063.40666,791.36674 C1063.87753,791.152597 1064.27575,790.850859 1064.5904,790.47404 C1064.90405,790.098432 1065.1408,789.647339 1065.29156,789.135293 C1065.44233,788.626073 1065.51903,788.06922 1065.51903,787.479267 C1065.51903,786.889314 1065.44233,786.332462 1065.29156,785.823242 Z M1077.94639,790.067753 C1077.89613,789.918197 1077.7492,789.975113 1077.7492,789.975113 C1077.52577,790.061093 1077.28761,790.139202 1077.03229,790.178761 C1076.77576,790.219934 1076.4926,790.239714 1076.18844,790.239714 C1075.44368,790.239714 1074.84989,790.017497 1074.42524,789.579524 C1074.00058,789.140339 1073.76121,788.431507 1073.76384,787.472405 C1073.76646,786.600898 1073.97677,785.944744 1074.3552,785.443395 C1074.73081,784.946083 1075.30361,784.690766 1076.06552,784.690766 C1076.70028,784.690766 1077.18589,784.764838 1077.69369,784.92368 C1077.69369,784.92368 1077.8154,784.976358 1077.87231,784.817718 C1078.00855,784.44211 1078.10765,784.176298 1078.25196,783.764966 C1078.29293,783.647097 1078.19242,783.598254 1078.15528,783.583722 C1077.95567,783.505613 1077.4848,783.377248 1077.12756,783.322956 C1076.79554,783.272902 1076.4054,783.24626 1075.97147,783.24626 C1075.3248,783.24626 1074.74797,783.357469 1074.25469,783.577061 C1073.76121,783.795241 1073.34463,784.09819 1073.01262,784.47521 C1072.68182,784.852029 1072.43054,785.303122 1072.26383,785.813756 C1072.0959,786.322976 1072.01255,786.881241 1072.01255,787.473818 C1072.01255,788.751612 1072.35647,789.784584 1073.03765,790.540039 C1073.72024,791.300539 1074.74393,791.685431 1076.08005,791.685431 C1076.86962,791.685431 1077.67916,791.525379 1078.26245,791.296502 C1078.26245,791.296502 1078.37366,791.24221 1078.32462,791.112634 L1077.94639,790.067753 Z M1080.64285,786.623301 C1080.71692,786.1272 1080.85316,785.714656 1081.06468,785.393139 C1081.38357,784.905111 1081.87019,784.635263 1082.55541,784.635263 C1083.24062,784.635263 1083.69172,784.905111 1084.01707,785.393139 C1084.23262,785.715867 1084.32647,786.144355 1084.36361,786.624714 L1080.64285,786.623301 Z M1085.83052,785.533412 C1085.69953,785.038522 1085.37539,784.539998 1085.16387,784.312534 C1084.82782,783.950045 1084.49844,783.697353 1084.17308,783.55708 C1083.74843,783.374624 1083.238,783.254333 1082.67852,783.254333 C1082.02762,783.254333 1081.43645,783.364129 1080.9563,783.588969 C1080.47614,783.813809 1080.07268,784.122006 1079.7552,784.505687 C1079.43913,784.887955 1079.20097,785.342883 1079.04879,785.860177 C1078.89681,786.373232 1078.82011,786.932708 1078.82011,787.524074 C1078.82011,788.125935 1078.89943,788.686824 1079.05686,789.189384 C1079.2155,789.698604 1079.4694,790.144449 1079.81211,790.516223 C1080.15604,790.889207 1080.59643,791.180046 1081.12422,791.385106 C1081.64938,791.587543 1082.28697,791.693303 1083.01841,791.690679 C1084.52487,791.686642 1085.31868,791.350795 1085.64524,791.16955 C1085.70357,791.13645 1085.75766,791.080947 1085.69025,790.919481 L1085.34774,789.964416 C1085.29607,789.822932 1085.15196,789.874601 1085.15196,789.874601 C1084.77757,790.013461 1084.24857,790.262117 1083.01033,790.259493 C1082.20099,790.258282 1081.60175,790.020121 1081.22614,789.645724 C1080.84125,789.264667 1080.65072,788.70398 1080.61904,787.91159 L1085.83456,787.915627 C1085.83456,787.915627 1085.97201,787.914214 1085.98654,787.77939 C1085.99178,787.723887 1086.16516,786.707868 1085.83052,785.533412 Z M1038.86458,786.623301 C1038.93866,786.1272 1039.07489,785.714656 1039.2852,785.393139 C1039.60672,784.905111 1040.09212,784.635263 1040.77734,784.635263 C1041.46256,784.635263 1041.91486,784.905111 1042.24021,785.393139 C1042.45456,785.715867 1042.54841,786.144355 1042.58555,786.624714 L1038.86458,786.623301 Z M1044.05246,785.533412 C1043.92147,785.038522 1043.59733,784.539998 1043.38581,784.312534 C1043.04976,783.950045 1042.72178,783.697353 1042.39502,783.55708 C1041.96915,783.374624 1041.45993,783.254333 1040.90167,783.254333 C1040.24955,783.254333 1039.65839,783.364129 1039.17823,783.588969 C1038.69807,783.813809 1038.29461,784.122006 1037.97713,784.505687 C1037.66106,784.887955 1037.4229,785.342883 1037.27072,785.860177 C1037.11854,786.373232 1037.04185,786.932708 1037.04185,787.524074 C1037.04185,788.125935 1037.12137,788.686824 1037.2788,789.189384 C1037.43743,789.698604 1037.69134,790.144449 1038.03405,790.516223 C1038.37797,790.889207 1038.81836,791.180046 1039.34615,791.385106 C1039.87132,791.587543 1040.5089,791.693303 1041.24034,791.690679 C1042.74681,791.686642 1043.54041,791.350795 1043.86717,791.16955 C1043.9255,791.13645 1043.97959,791.080947 1043.91218,790.919481 L1043.56967,789.964416 C1043.51801,789.822932 1043.3739,789.874601 1043.3739,789.874601 C1042.9995,790.013461 1042.4705,790.262117 1041.23227,790.259493 C1040.42413,790.258282 1039.82369,790.020121 1039.44788,789.645724 C1039.06298,789.264667 1038.87266,788.70398 1038.84077,787.91159 L1044.05629,787.915627 C1044.05629,787.915627 1044.19394,787.914214 1044.20847,787.77939 C1044.21372,787.723887 1044.38709,786.707868 1044.05246,785.533412 Z M1027.58908,790.039093 C1027.38422,789.876417 1027.35637,789.835446 1027.28895,789.729686 C1027.18441,789.569634 1027.13153,789.34217 1027.13153,789.051129 C1027.13153,788.593376 1027.2835,788.262776 1027.59715,788.041973 C1027.59453,788.041973 1028.04683,787.65042 1029.11028,787.664952 C1029.85766,787.674236 1030.52693,787.785244 1030.52693,787.785244 L1030.52693,790.156963 C1030.52693,790.156963 1029.86432,790.298447 1029.11815,790.343455 C1028.05733,790.408243 1027.58524,790.037882 1027.58908,790.039093 Z M1029.66451,786.373837 C1029.45279,786.358095 1029.1791,786.350223 1028.85113,786.350223 C1028.40387,786.350223 1027.97135,786.405727 1027.56526,786.515523 C1027.15797,786.625117 1026.79164,786.794656 1026.47679,787.019496 C1026.1593,787.246959 1025.9054,787.536587 1025.72012,787.880508 C1025.53504,788.224428 1025.44099,788.6291 1025.44099,789.081404 C1025.44099,789.544405 1025.52031,789.945242 1025.68036,790.273218 C1025.8392,790.602606 1026.06808,790.877904 1026.36033,791.089423 C1026.64996,791.301144 1027.00841,791.455949 1027.42257,791.549801 C1027.83249,791.643652 1028.2969,791.691284 1028.80471,791.691284 C1029.34037,791.691284 1029.87219,791.646276 1030.38928,791.559085 C1030.90133,791.471692 1031.52822,791.34474 1031.7028,791.303768 C1031.87618,791.264007 1032.06792,791.211128 1032.06792,791.211128 C1032.19749,791.178027 1032.187,791.04058 1032.187,791.04058 L1032.18437,786.270702 C1032.18437,785.223197 1031.90524,784.447963 1031.35626,783.966596 C1030.80869,783.48765 1030.00177,783.245654 1028.95951,783.245654 C1028.56796,783.245654 1027.93966,783.298534 1027.56143,783.374019 C1027.56143,783.374019 1026.42249,783.594822 1025.95424,783.962559 C1025.95424,783.962559 1025.85111,784.026136 1025.90661,784.170243 L1026.27576,785.162244 C1026.32198,785.290609 1026.44772,785.247013 1026.44772,785.247013 C1026.44772,785.247013 1026.48728,785.231069 1026.5337,785.203418 C1027.5362,784.658271 1028.80612,784.674216 1028.80612,784.674216 C1029.36963,784.674216 1029.80337,784.78926 1030.09582,785.011476 C1030.3802,785.231069 1030.52431,785.559044 1030.52431,786.254959 L1030.52431,786.475762 C1030.07725,786.410974 1029.66451,786.373837 1029.66451,786.373837 Z M1071.73927,783.685848 C1071.77883,783.568181 1071.69547,783.511264 1071.66116,783.498145 C1071.57255,783.465045 1071.12812,783.370992 1070.78683,783.348588 C1070.13067,783.308827 1069.76697,783.418624 1069.44162,783.565557 C1069.11748,783.711077 1068.75903,783.947825 1068.56063,784.216261 L1068.55942,783.580089 C1068.55942,783.492696 1068.49725,783.42266 1068.40986,783.42266 L1067.07252,783.42266 C1066.98533,783.42266 1066.92317,783.492696 1066.92317,783.580089 L1066.92317,791.361694 C1066.92317,791.449087 1066.9932,791.519122 1067.08181,791.519122 L1068.45224,791.519122 C1068.53943,791.519122 1068.60967,791.449087 1068.60967,791.361694 L1068.60967,787.474222 C1068.60967,786.95168 1068.6678,786.431965 1068.78284,786.1052 C1068.89526,785.781059 1069.04865,785.523118 1069.23918,785.338039 C1069.42971,785.152758 1069.64668,785.023182 1069.88464,784.950523 C1070.12684,784.876249 1070.39527,784.851222 1070.58318,784.851222 C1070.85686,784.851222 1071.15577,784.92267 1071.15577,784.92267 C1071.2577,784.933166 1071.3132,784.871002 1071.34771,784.780985 C1071.43632,784.543026 1071.69163,783.827534 1071.73927,783.685848 Z M1058.87494,780.079729 C1058.70823,780.02806 1058.55746,779.993749 1058.35906,779.958025 C1058.15804,779.920888 1057.91988,779.902521 1057.65003,779.902521 C1056.70707,779.902521 1055.96353,780.169746 1055.44119,780.696122 C1054.92268,781.218663 1054.56948,782.014887 1054.39227,783.061181 L1054.32869,783.414385 L1053.14495,783.414385 C1053.14495,783.414385 1052.99943,783.408936 1052.97017,783.566364 L1052.77581,784.651006 C1052.76127,784.754343 1052.80628,784.818929 1052.94514,784.818929 L1054.09861,784.818929 L1052.92799,791.348171 C1052.83676,791.873134 1052.73221,792.305659 1052.61575,792.633836 C1052.50212,792.957776 1052.3895,793.199771 1052.25205,793.375768 C1052.11844,793.545105 1051.9927,793.672057 1051.77452,793.744918 C1051.59469,793.804458 1051.387,793.832109 1051.16075,793.832109 C1051.03521,793.832109 1050.86709,793.810916 1050.74276,793.785889 C1050.61843,793.762073 1050.55364,793.734221 1050.461,793.695873 C1050.461,793.695873 1050.32618,793.644204 1050.27189,793.779229 C1050.2295,793.890438 1049.92272,794.735506 1049.88558,794.840054 C1049.84865,794.94319 1049.90011,795.023922 1049.96631,795.047739 C1050.11971,795.102031 1050.23354,795.137755 1050.44243,795.186598 C1050.73347,795.255423 1050.9783,795.25946 1051.20697,795.25946 C1051.68713,795.25946 1052.1251,795.192048 1052.48739,795.061059 C1052.8525,794.928658 1053.16998,794.69857 1053.45174,794.388961 C1053.75469,794.053114 1053.94643,793.70112 1054.12888,793.221165 C1054.31013,792.746256 1054.46372,792.156304 1054.58805,791.468463 L1055.7625,784.818929 L1057.48069,784.818929 C1057.48069,784.818929 1057.62621,784.824379 1057.65548,784.66695 L1057.84984,783.582309 C1057.86296,783.479173 1057.81937,783.414385 1057.68051,783.414385 L1056.01257,783.414385 C1056.02044,783.377248 1056.09593,782.789919 1056.28767,782.238314 C1056.36961,782.001566 1056.52321,781.81245 1056.65399,781.681664 C1056.78115,781.553299 1056.92929,781.462071 1057.09055,781.40899 C1057.25585,781.35611 1057.44376,781.32967 1057.65003,781.32967 C1057.80746,781.32967 1057.96085,781.348238 1058.07872,781.372055 C1058.23998,781.406366 1058.30356,781.424934 1058.34594,781.436842 C1058.51508,781.489722 1058.53768,781.439466 1058.572,781.357523 L1058.97021,780.262184 C1059.01118,780.144517 1058.91208,780.094261 1058.87494,780.079729 Z M1035.57009,791.361694 L1035.57009,780.228277 C1035.57009,780.140884 1035.50793,780.070848 1035.42074,780.070848 L1034.03698,780.070848 C1033.94979,780.070848 1033.88763,780.140884 1033.88763,780.228277 L1033.88763,791.361694 C1033.88763,791.449087 1033.94979,791.520535 1034.03698,791.520535 L1035.42074,791.520535 C1035.50793,791.520535 1035.57009,791.449087 1035.57009,791.361694 Z" transform="translate(-1005 -757)"></path>
</svg>