<svg xmlns="http://www.w3.org/2000/svg" width="116" height="34" viewBox="0 0 116 34">
  <g fill="none" fill-rule="evenodd" transform="translate(.913 .098)">
    <path fill="#8CB849" d="M12.9692991,1.33546021 C13.1475244,1.33546021 13.3270356,1.39589736 13.4988315,1.51419988 C12.1756435,2.13683116 10.7572992,3.70511104 10.1583285,6.8367844 C9.28288984,7.10785147 8.42725403,7.37274623 7.63617025,7.61783818 C8.33775561,5.22915607 10.0037637,1.33546021 12.9692991,1.33546021 Z M14.1960448,2.49662512 C14.4498808,3.13288692 14.61499,4.04587373 14.61499,5.27802015 C14.61499,5.3410291 14.6144756,5.39863728 14.6139613,5.457017 C13.6089043,5.76820406 12.5174349,6.10613777 11.4231367,6.4451002 C12.0375382,4.07390628 13.1891875,2.92868649 14.1960448,2.49662512 Z M17.2418202,4.64381579 C16.7832694,4.78577881 16.2619668,4.94703029 15.6969437,5.12191227 C15.697458,5.01312539 15.6977152,4.90588159 15.6977152,4.78886497 C15.6977152,3.76786281 15.5562665,2.9459175 15.3286628,2.29422495 C16.242164,2.40892695 16.8503932,3.44793166 17.2418202,4.64381579 Z M24.6568162,6.4613025 C24.6346988,6.3003082 24.4937645,6.21132414 24.3772622,6.20155132 C24.2610171,6.1917785 21.8003248,6.00943832 21.8003248,6.00943832 C21.8003248,6.00943832 20.0913678,4.31282593 19.903884,4.12508498 C19.7161431,3.93760121 19.3496624,3.99443785 19.2074422,4.03635809 C19.1863535,4.0425304 18.8340178,4.15131727 18.2509921,4.33160002 C17.6800539,2.6889953 16.6726822,1.17935232 14.9002019,1.17935232 C14.8513379,1.17935232 14.8009307,1.18140976 14.7502664,1.18423873 C14.2464519,0.517629767 13.6220204,0.228045781 13.0827152,0.228045781 C8.95395741,0.228045781 6.98139154,5.38937883 6.36287512,8.01235136 C4.75859013,8.50947911 3.6187711,8.86284358 3.47320757,8.90862151 C2.57745178,9.1894614 2.54941923,9.21775113 2.43188825,10.0615567 C2.34316136,10.7003903 0,28.8212496 0,28.8212496 L18.2584503,32.2422498 L28.1516268,30.102003 C28.1516268,30.102003 24.6786764,6.62229679 24.6568162,6.4613025 Z"></path>
    <path fill="#5A873E" d="M24.3772622,6.20155132 C24.2610171,6.1917785 21.8003248,6.00943832 21.8003248,6.00943832 C21.8003248,6.00943832 20.0913678,4.31282593 19.903884,4.12534216 C19.833674,4.05513219 19.739032,4.01938425 19.640018,4.00395349 L18.259479,32.2419926 L28.1516268,30.102003 C28.1516268,30.102003 24.6786764,6.62255397 24.6568162,6.4613025 C24.6346988,6.3003082 24.4937645,6.21132414 24.3772622,6.20155132"></path>
    <path fill="#FFFFFE" d="M14.9002019,11.6678991 L13.6804001,15.296443 C13.6804001,15.296443 12.6115626,14.7260192 11.3014908,14.7260192 C9.38087519,14.7260192 9.28417574,15.9314189 9.28417574,16.2351478 C9.28417574,17.8924117 13.6040178,18.5273876 13.6040178,22.4092532 C13.6040178,25.4632584 11.6671999,27.4299092 9.05528609,27.4299092 C5.92078376,27.4299092 4.31829903,25.4792035 4.31829903,25.4792035 L5.15747535,22.7065526 C5.15747535,22.7065526 6.80496648,24.1210392 8.19527823,24.1210392 C9.10337863,24.1210392 9.47320259,23.4058233 9.47320259,22.8832348 C9.47320259,20.7213849 5.9290135,20.6249427 5.9290135,17.072781 C5.9290135,14.0830707 8.0746611,11.1898026 12.4065906,11.1898026 C14.0756848,11.1898026 14.9002019,11.6678991 14.9002019,11.6678991"></path>
    <path fill="#0A0B09" d="M39.6843219 18.4702938C38.6975246 17.9348463 38.1903669 17.4837537 38.1903669 16.863437 38.1903669 16.0741535 38.8950384 15.5667386 39.9944803 15.5667386 41.2749764 15.5667386 42.4186531 16.1024432 42.4186531 16.1024432L43.3208384 13.3398223C43.3208384 13.3398223 42.4914349 12.6914731 40.0508026 12.6914731 36.6537201 12.6914731 34.3000144 14.6365207 34.3000144 17.3711091 34.3000144 18.9213864 35.3994562 20.1054403 36.8653787 20.9510461 38.0494326 21.6274279 38.4722355 22.1068103 38.4722355 22.811739 38.4722355 23.5447002 37.8802086 24.13647 36.7807667 24.13647 35.1427912 24.13647 33.5953429 23.2908642 33.5953429 23.2908642L32.6368353 26.0534851C32.6368353 26.0534851 34.0659811 27.0117355 36.4706084 27.0117355 39.9664477 27.0117355 42.4752326 25.2922341 42.4752326 22.1914223 42.4752326 20.5282432 41.2065667 19.3441893 39.6843219 18.4702938M53.6100712 12.6631833C51.8905698 12.6631833 50.5375491 13.4807566 49.4944295 14.7211328L49.4381072 14.692843 50.9320623 6.88436258 47.0419669 6.88436258 43.2645161 26.7581566 47.1546115 26.7581566 48.4515671 19.964506C48.958982 17.3991417 50.283713 15.8205746 51.5240892 15.8205746 52.3979847 15.8205746 52.7364328 16.4123444 52.7364328 17.2582074 52.7364328 17.7936548 52.6798534 18.4420041 52.5672088 18.9777087L51.1012863 26.7581566 54.9916388 26.7581566 56.5136264 18.7241299C56.6828505 17.8782669 56.7957522 16.863437 56.7957522 16.1870552 56.7957522 13.9881715 55.6397309 12.6631833 53.6100712 12.6631833M63.674272 24.051858C62.3492838 24.051858 61.7855466 22.9243835 61.7855466 21.5150405 61.7855466 19.2878671 62.9413108 15.6513506 65.0555825 15.6513506 66.4366358 15.6513506 66.8877284 16.8354045 66.8877284 17.9911686 66.8877284 20.3873089 65.7319642 24.051858 63.674272 24.051858zM65.5910299 12.6631833C60.9116511 12.6631833 57.8108392 16.8917267 57.8108392 21.5993954 57.8108392 24.6158523 59.6712749 27.0400252 63.1668571 27.0400252 67.7616239 27.0400252 70.8624358 22.9243835 70.8624358 18.1038132 70.8624358 15.3131597 69.2275464 12.6631833 65.5910299 12.6631833zM77.0928635 24.1081802C76.0826629 24.1081802 75.4860067 23.5447002 75.4860067 23.5447002L76.1343559 19.9079266C76.5854486 17.4837537 77.8538573 15.8768969 79.2071352 15.8768969 80.3909319 15.8768969 80.7574125 16.9763388 80.7574125 18.0192012 80.7574125 20.5282432 79.2634575 24.1081802 77.0928635 24.1081802zM80.813992 12.6631833C78.1881905 12.6631833 76.6980931 14.9747116 76.6980931 14.9747116L76.6417709 14.9747116 76.8673172 12.8887296 73.4283145 12.8887296C73.2590904 14.2983298 72.9489321 16.4406341 72.6387738 18.0474909L69.9324751 32.2833985 73.8228276 32.2833985 74.8939798 26.5326103 74.9785918 26.5326103C74.9785918 26.5326103 75.7771338 27.0400252 77.2620875 27.0400252 81.8288218 27.0400252 84.8167319 22.3606463 84.8167319 17.624688 84.8167319 15.0030014 83.6609678 12.6631833 80.813992 12.6631833zM90.3705207 7.08161917C89.1304017 7.08161917 88.1436044 8.06815928 88.1436044 9.33682518 88.1436044 10.4925893 88.8765657 11.28213 89.9760075 11.28213L90.0323298 11.28213C91.2444163 11.28213 92.2875358 10.4642996 92.3158256 9.02692403 92.3158256 7.89919243 91.5545746 7.08161917 90.3705207 7.08161917"></path>
    <polyline fill="#0A0B09" points="84.93 26.758 88.82 26.758 91.47 12.973 87.552 12.973 84.93 26.758"></polyline>
    <path fill="#0A0B09" d="M101.364425 12.9450519L98.6581263 12.9450519 98.7990606 12.2967027C99.024607 10.9719717 99.8138905 9.78791782 101.110846 9.78791782 101.803173 9.78791782 102.350965 9.98517441 102.350965 9.98517441L103.112216 6.94068487C103.112216 6.94068487 102.435577 6.60249398 100.997944 6.60249398 99.6166339 6.60249398 98.2353234 6.99726433 97.1922039 7.89919243 95.8672157 9.02692403 95.2471562 10.6618134 94.9369978 12.2967027L94.8243533 12.9450519 93.0202399 12.9450519 92.4565027 15.8768969 94.2606161 15.8768969 92.2026666 26.7581566 96.092762 26.7581566 98.1507114 15.8768969 100.82872 15.8768969 101.364425 12.9450519M110.72344 12.9733417C110.72344 12.9733417 108.291809 19.1006405 107.199825 22.4452584L107.143503 22.4452584C107.068664 21.3684483 106.184995 12.9733417 106.184995 12.9733417L102.097386 12.9733417 104.437204 25.6306822C104.493527 25.9122936 104.465494 26.0815177 104.352592 26.2790314 103.9015 27.152927 103.140506 27.9985328 102.238321 28.6185923 101.505616 29.1542969 100.688043 29.4924878 100.039694 29.7180341L101.110846 33.0163597C101.90013 32.8471357 103.535276 32.1987865 104.916329 30.902088 106.69241 29.2389089 108.3273 26.6735446 110.018768 23.1779624L114.782759 12.9733417 110.72344 12.9733417"></path>
  </g>
</svg>