<svg viewBox="0 0 101 26" width="101" height="26" xmlns="http://www.w3.org/2000/svg"><g fill="none" fill-rule="evenodd"><g fill="#000"><path d="M32.5 20.26l1.25-3a8.21 8.21 0 0 0 4.94 1.59c1.32 0 2.15-.52 2.15-1.31-.03-2.2-7.88-.48-7.94-6-.02-2.81 2.41-4.97 5.85-4.97 2.04 0 4.09.52 5.55 1.7l-1.18 3.05a8.7 8.7 0 0 0-4.57-1.5c-1.07 0-1.78.53-1.78 1.2.02 2.15 7.93.97 8.01 6.25 0 2.86-2.37 4.88-5.77 4.88-2.49 0-4.77-.6-6.51-1.9M80.64 16.19a3.63 3.63 0 0 1-3.16 1.89c-2 0-3.62-1.67-3.62-3.72a3.67 3.67 0 0 1 3.62-3.72c1.36 0 2.53.77 3.16 1.89l3.46-1.97a7.58 7.58 0 0 0-6.62-4 7.7 7.7 0 0 0-7.58 7.8c0 4.3 3.4 7.79 7.58 7.79 2.86 0 5.33-1.6 6.62-3.99l-3.46-1.97zM46.53.1h4.33v21.75h-4.33zM85.8.1v21.76h4.33v-6.53l5.14 6.53h5.55l-6.54-7.75 6.05-7.23h-5.3l-4.9 6V.1z"></path><path d="M63.72 16.23a3.97 3.97 0 0 1-3.38 1.85c-2 0-3.62-1.67-3.62-3.72a3.67 3.67 0 0 1 3.62-3.72c1.46 0 2.76.83 3.38 1.91v3.68zm0-9.35v1.76c-.7-1.22-2.47-2.07-4.3-2.07-3.81 0-6.8 3.45-6.8 7.77 0 4.32 2.99 7.81 6.8 7.81 1.83 0 3.6-.85 4.3-2.08v1.77h4.33V6.88h-4.33z" fill-rule="nonzero"></path></g><g fill="#E01E5A"><path d="M5.58 16.4a2.7 2.7 0 1 1-2.7-2.7h2.7v2.7zM6.93 16.4a2.7 2.7 0 1 1 5.42 0v6.77a2.7 2.7 0 1 1-5.42 0v-6.76z"></path></g><g fill="#36C5F0"><path d="M9.64 5.54a2.7 2.7 0 1 1 2.7-2.71v2.7h-2.7zM9.64 6.91a2.7 2.7 0 1 1 0 5.41H2.85a2.7 2.7 0 1 1 0-5.4h6.79z"></path></g><g fill="#2EB67D"><path d="M20.49 9.62a2.7 2.7 0 1 1 2.7 2.7h-2.7v-2.7zM19.13 9.62a2.7 2.7 0 1 1-5.41 0V2.83a2.7 2.7 0 1 1 5.41 0v6.79z"></path></g><g fill="#ECB22E"><path d="M16.43 20.47a2.7 2.7 0 1 1-2.71 2.7v-2.7h2.7zM16.43 19.11a2.7 2.7 0 1 1 0-5.41h6.78a2.7 2.7 0 1 1 0 5.41h-6.78z"></path></g></g></svg>