<svg xmlns="http://www.w3.org/2000/svg" xmlns:xlink="http://www.w3.org/1999/xlink" width="125" height="40" viewBox="0 0 125 40">
  <defs>
    <polygon id="spotify-color-a" points="0 .119 38.775 .119 38.775 38.894 0 38.894"></polygon>
  </defs>
  <g fill="none" fill-rule="evenodd" transform="translate(-.018 .5)">
    <g transform="translate(0 .113)">
      <mask id="spotify-color-b" fill="#fff">
        <use xlink:href="#spotify-color-a"></use>
      </mask>
      <path fill="#1ED760" d="M30.855794,17.3063111 C24.6063751,13.5949517 14.2980982,13.2537039 8.33228073,15.0643546 C7.37405502,15.3549014 6.36096111,14.8140908 6.07087731,13.8563281 C5.7803305,12.8976394 6.32067812,11.88524 7.27959837,11.5939986 C14.1279373,9.51525772 25.5122792,9.9166985 32.7067277,14.1873894 C33.5686446,14.6987981 33.8510886,15.811905 33.3403744,16.6722013 C32.8291972,17.5336553 31.7153958,17.8179513 30.855794,17.3063111 M30.6511379,22.8033179 C30.2128868,23.5147525 29.282674,23.737698 28.5719339,23.3010674 C23.3620013,20.0985702 15.4169928,19.1706724 9.2530016,21.0417476 C8.45382422,21.2834455 7.60950212,20.8324613 7.36687817,20.034673 C7.12587479,19.2354956 7.5766275,18.3925626 8.37464732,18.1497071 C15.4162983,16.0128569 24.1697445,17.0477128 30.1538514,20.7252715 C30.8643599,21.1628281 31.0879999,22.093504 30.6511379,22.8033179 M28.2788405,28.0824725 C27.9304158,28.6538427 27.1865697,28.832801 26.6172831,28.4846078 C22.0646113,25.7020722 16.334241,25.0737503 9.58568349,26.6151532 C8.93536795,26.7644781 8.28736752,26.3567865 8.13896871,25.706471 C7.98987536,25.0563869 8.39594637,24.408155 9.04765098,24.2597562 C16.4328649,22.5713435 22.7677115,23.2980578 27.8780943,26.4206837 C28.4478438,26.7686453 28.6272652,27.5129545 28.2788405,28.0824725 M19.3874134,0.118904258 C8.68024238,0.118904258 -4.63022813e-05,8.79896143 -4.63022813e-05,19.5061325 C-4.63022813e-05,30.2144611 8.68024238,38.8938237 19.3874134,38.8938237 C30.0950475,38.8938237 38.7751047,30.2144611 38.7751047,19.5061325 C38.7751047,8.79896143 30.0950475,0.118904258 19.3874134,0.118904258" mask="url(#spotify-color-b)"></path>
    </g>
    <path fill="#1ED760" d="M52.7467486 18.1296351C49.3995567 17.3313838 48.8031833 16.7711262 48.8031833 15.5941222 48.8031833 14.4817099 49.8505409 13.733465 51.4076866 13.733465 52.917141 13.733465 54.4136307 14.3018255 55.9830465 15.4718842 56.0305064 15.5073054 56.0900048 15.5214276 56.1485772 15.5121671 56.2071496 15.5033697 56.2587766 15.4714211 56.2932718 15.4228037L57.9277424 13.1185707C57.9948807 13.0238825 57.9765913 12.8930786 57.8860703 12.8206155 56.0184678 11.3220422 53.9154182 10.5934758 51.4572301 10.5934758 47.842874 10.5934758 45.3182421 12.7622747 45.3182421 15.8659166 45.3182421 19.193893 47.4960699 20.3722861 51.2595193 21.2816629 54.4627111 22.0197213 55.0032903 22.6378567 55.0032903 23.7428607 55.0032903 24.9673245 53.9100934 25.728534 52.1508382 25.728534 50.1971135 25.728534 48.603389 25.0701156 46.8202881 23.526629 46.7760694 23.4881981 46.7156449 23.4706033 46.6596192 23.4740759 46.6005838 23.4789377 46.5466416 23.506256 46.5091368 23.5514007L44.6764925 25.7324697C44.5996307 25.8227591 44.6093542 25.9579618 44.698023 26.0364442 46.7725967 27.8883039 49.3236209 28.8666711 52.0767546 28.8666711 55.9717025 28.8666711 58.4882315 26.7383868 58.4882315 23.444674 58.4882315 20.6609808 56.8250535 19.12143 52.7467486 18.1296351M70.1270507 21.8605109C70.1270507 24.2108147 68.6791784 25.851073 66.6059937 25.851073 64.5564233 25.851073 63.0103901 24.136268 63.0103901 21.8605109 63.0103901 19.5847537 64.5564233 17.8697172 66.6059937 17.8697172 68.6458407 17.8697172 70.1270507 19.5477119 70.1270507 21.8605109M67.2998334 14.8283519C65.6116523 14.8283519 64.2269825 15.4930211 63.0851683 16.8556973L63.0851683 15.3221657C63.0851683 15.2010853 62.9870074 15.1024614 62.865927 15.1024614L59.8687803 15.1024614C59.7476998 15.1024614 59.6497705 15.2010853 59.6497705 15.3221657L59.6497705 32.3616368C59.6497705 32.4829487 59.7476998 32.5815726 59.8687803 32.5815726L62.865927 32.5815726C62.9870074 32.5815726 63.0851683 32.4829487 63.0851683 32.3616368L63.0851683 26.9831638C64.227214 28.2648109 65.6121153 28.8908178 67.2998334 28.8908178 70.4365815 28.8908178 73.6119919 26.4761538 73.6119919 21.8605109 73.6119919 17.2437104 70.4365815 14.8283519 67.2998334 14.8283519M81.7514468 25.8757753C79.6027894 25.8757753 77.9829041 24.1491632 77.9829041 21.8604414 77.9829041 19.5619962 79.5467637 17.8934935 81.7019034 17.8934935 83.8644514 17.8934935 85.4954493 19.6201055 85.4954493 21.9104479 85.4954493 24.2088931 83.9207087 25.8757753 81.7514468 25.8757753M81.7514468 14.8282824C77.7118043 14.8282824 74.5470434 17.9388697 74.5470434 21.9104479 74.5470434 25.8391965 77.6900422 28.9171406 81.7019034 28.9171406 85.7558996 28.9171406 88.930384 25.8167398 88.930384 21.8604414 88.930384 17.9171076 85.7776617 14.8282824 81.7514468 14.8282824M97.5568463 15.1023688L94.2587348 15.1023688 94.2587348 11.7301736C94.2587348 11.6090932 94.1608055 11.5104693 94.0399565 11.5104693L91.0428099 11.5104693C90.9217294 11.5104693 90.8231055 11.6090932 90.8231055 11.7301736L90.8231055 15.1023688 89.3817155 15.1023688C89.2610981 15.1023688 89.1634003 15.2012242 89.1634003 15.3220731L89.1634003 17.897869C89.1634003 18.0189495 89.2610981 18.1175734 89.3817155 18.1175734L90.8231055 18.1175734 90.8231055 24.7830183C90.8231055 27.4766535 92.1635566 28.8425708 94.8078799 28.8425708 95.8830188 28.8425708 96.7748008 28.6207829 97.6156502 28.1438694 97.6839461 28.10567 97.7263126 28.0322809 97.7263126 27.9537985L97.7263126 25.5007036C97.7263126 25.4249994 97.6869557 25.3534624 97.622364 25.3138739 97.5568463 25.2731279 97.4755858 25.2708128 97.408679 25.3039189 96.8312896 25.5944657 96.2731155 25.7285108 95.6494238 25.7285108 94.6877254 25.7285108 94.2587348 25.2921118 94.2587348 24.3135131L94.2587348 18.1175734 97.5568463 18.1175734C97.6779268 18.1175734 97.7756246 18.0189495 97.7756246 17.897869L97.7756246 15.3220731C97.7756246 15.2012242 97.6779268 15.1023688 97.5568463 15.1023688M109.04854 15.1154723L109.04854 14.7012984C109.04854 13.4828539 109.51573 12.9394966 110.563551 12.9394966 111.188168 12.9394966 111.690085 13.0638183 112.252426 13.251111 112.321648 13.2728731 112.39388 13.261992 112.450137 13.2205515 112.507783 13.1793424 112.540658 13.1128987 112.540658 13.0425192L112.540658 10.5167298C112.540658 10.4201895 112.478382 10.3345303 112.385777 10.3062859 111.79195 10.1296427 111.03213 9.94836926 109.894251 9.94836926 107.125838 9.94836926 105.662686 11.5073671 105.662686 14.4549703L105.662686 15.0895431 104.222685 15.0895431C104.101836 15.0895431 104.002749 15.1877039 104.002749 15.3090159L104.002749 17.8980079C104.002749 18.0188569 104.101836 18.1177123 104.222685 18.1177123L105.662686 18.1177123 105.662686 28.3989023C105.662686 28.5199828 105.760384 28.6183751 105.881001 28.6183751L108.878611 28.6183751C108.99946 28.6183751 109.098083 28.5199828 109.098083 28.3989023L109.098083 18.1177123 111.896593 18.1177123 116.18349 28.3961242C115.696853 29.4761249 115.218088 29.6909675 114.564994 29.6909675 114.036916 29.6909675 113.480826 29.5333082 112.912234 29.2223884 112.858755 29.1929864 112.795552 29.1878932 112.737674 29.2057196 112.680491 29.2260926 112.632105 29.2686907 112.608028 29.3242534L111.591924 31.5530137C111.543538 31.6583514 111.584979 31.7819785 111.686613 31.8366152 112.746935 32.410995 113.704234 32.6561656 114.887489 32.6561656 117.100507 32.6561656 118.323813 31.6252453 119.402656 28.8517386L124.602634 15.4148166C124.628563 15.3472153 124.620923 15.2708165 124.579483 15.210855 124.538274 15.1513566 124.471598 15.1154723 124.399135 15.1154723L121.278825 15.1154723C121.185526 15.1154723 121.101718 15.1749708 121.071159 15.2627136L117.874681 24.3928289 114.373534 15.2564628C114.341354 15.1714981 114.259862 15.1154723 114.168646 15.1154723L109.04854 15.1154723zM102.386498 15.1023688L99.3893517 15.1023688C99.2680397 15.1023688 99.1694159 15.2012242 99.1694159 15.3220731L99.1694159 28.3989949C99.1694159 28.5200754 99.2680397 28.6184677 99.3893517 28.6184677L102.386498 28.6184677C102.507347 28.6184677 102.605971 28.5200754 102.605971 28.3989949L102.605971 15.3220731C102.605971 15.2012242 102.507347 15.1023688 102.386498 15.1023688M100.903135 9.14817323C99.7157133 9.14817323 98.7521628 10.1094086 98.7521628 11.2968306 98.7521628 12.4849471 99.7157133 13.4473401 100.903135 13.4473401 102.090094 13.4473401 103.052487 12.4849471 103.052487 11.2968306 103.052487 10.1094086 102.090094 9.14817323 100.903135 9.14817323"></path>
  </g>
</svg>