<svg xmlns="http://www.w3.org/2000/svg" xmlns:xlink="http://www.w3.org/1999/xlink" width="85" height="30" viewBox="0 0 85 30">
  <defs>
    <polygon id="uber-color-a" points="0 .219 22.796 .219 22.796 29.518 0 29.518"></polygon>
  </defs>
  <g fill="none" fill-rule="evenodd" transform="translate(.096 .227)">
    <g transform="translate(0 .102)">
      <mask id="uber-color-b" fill="#fff">
        <use xlink:href="#uber-color-a"></use>
      </mask>
      <path fill="#000" d="M22.7885616,28.9816634 C22.7093129,28.9944972 22.6676032,29.007331 22.6258934,29.007331 C21.2979178,29.0079727 19.970263,29.0070102 18.6426083,29.0050851 C18.6127698,29.0050851 18.5832521,28.9890429 18.5348045,28.9752466 C18.496624,28.5584695 18.5226124,28.1397673 18.5177998,27.7220277 C18.5129871,27.3017214 18.5168372,26.8810942 18.5168372,26.4710549 C18.443043,26.4174738 18.4048625,26.460467 18.3657195,26.4960807 C18.1507536,26.6927584 17.9431672,26.8980989 17.7201802,27.0851513 C16.3078225,28.2697094 14.690766,29.0192023 12.8754275,29.3339508 C10.6731506,29.7154349 8.52413379,29.5110569 6.46302841,28.644135 C3.66333888,27.4669563 1.77324365,25.4055301 0.724402821,22.5663767 C0.35607328,21.5691918 0.13597392,20.5360724 0.059612917,19.4753603 C0.0256033949,19.0021146 0.00282343202,18.5269438 0.00250258748,18.0527356 C-0.00102670255,12.266625 0.000256675639,6.48051444 0.000256675639,0.694403856 L0.000256675639,0.281797767 C0.121535915,0.190677915 0.244419377,0.225329126 0.357998347,0.225008282 C1.55603189,0.222120681 2.75438628,0.223083214 3.95274066,0.223083214 L4.28673984,0.223083214 C4.30246122,0.301690129 4.32139105,0.361688059 4.3245995,0.422327679 C4.3303747,0.530131447 4.32652456,0.63825606 4.32652456,0.746380672 C4.32684541,6.45677194 4.32780794,12.1671632 4.32556203,17.8778753 C4.32524118,18.6033048 4.3801056,19.3223175 4.53603605,20.0317048 C4.72020082,20.8710341 5.01730288,21.6667286 5.46744778,22.3998584 C6.35073282,23.8388462 7.59432629,24.8228764 9.2120245,25.3160145 C10.6324033,25.7494755 12.0652951,25.7655177 13.4859947,25.3336609 C15.3735232,24.7603117 16.7396793,23.5558613 17.6226435,21.7998791 C18.0586712,20.9329571 18.315026,20.010529 18.4055042,19.0447869 C18.4420805,18.658811 18.4638979,18.2696265 18.4638979,17.8820463 C18.467748,12.1501584 18.4664646,6.41794975 18.4667855,0.685741053 C18.4667855,0.547136208 18.4706356,0.408531363 18.4728815,0.253884291 C18.5392964,0.242013043 18.589669,0.225329126 18.6397207,0.225329126 C19.9676963,0.223724903 21.295351,0.224045748 22.6230058,0.224687437 C22.6650364,0.225008282 22.707067,0.235596152 22.7641774,0.243617265 C22.7744444,0.306823641 22.7895241,0.367784106 22.7933742,0.429386259 C22.7981869,0.515372598 22.7949784,0.602000626 22.7949784,0.688307809 C22.7949784,9.97194481 22.7949784,19.2559027 22.7946576,28.5395397 C22.7946576,28.6784653 22.7908075,28.8170702 22.7885616,28.9816634" mask="url(#uber-color-b)"></path>
    </g>
    <path fill="#000" d="M37.2958045 25.9425918C38.3748047 25.9509338 39.3835399 25.7074127 40.2754878 25.2970526 43.2391289 23.9344258 44.9928652 20.6955001 44.3880732 17.3388244 43.7778269 13.9484601 40.8398534 11.4272636 37.4148378 11.3932541 36.1237593 11.3804203 34.912892 11.6749556 33.7857651 12.3034901 31.0589073 13.8242932 29.5916852 16.922689 30.2102735 20.0884622 30.8939932 23.5875928 33.9224449 25.956709 37.2958045 25.9425918M30.1351958 26.5223579C30.1069615 26.8005301 30.120437 27.0033039 30.1181911 27.2047943 30.1156243 27.4204018 30.1175494 27.6363302 30.1175494 27.8522585 30.1175494 28.0575991 30.1207578 28.2622979 30.1169077 28.4676384 30.1127367 28.6697705 30.134875 28.8738276 30.0986196 29.0862267 30.0318839 29.095852 29.9808696 29.1077233 29.9292136 29.1099692 29.2855995 29.1359576 26.2924407 29.1176694 26.0290273 29.0849433 26.0181186 29.0303997 25.9998305 28.9707226 25.9953386 28.910083 25.9892426 28.8237758 25.9934136 28.7374687 25.9934136 28.6508406 25.9934136 19.3578991 25.9934136 10.0646368 25.9943761.771374463 25.9943761.633732152 25.9728795.492881395 26.0238938.351068105 26.071058.342084457 26.1121261.327646453 26.1528733.327646453 27.4686568.326363074 28.7844403.326683919 30.1159452.326683919 30.1310249.402082388 30.1499547.461438629 30.1531631.52143656 30.1589383.629240328 30.1557299.737044096 30.1557299.845168709 30.1557299 4.00773342 30.1554091 7.17029813 30.1566924 10.332542 30.1566924 10.456388 30.1361584 10.5847258 30.1971188 10.7400146 30.2981849 10.6504989 30.3777543 10.5834424 30.4537945 10.5122149 31.7484022 9.30166846 33.2499547 8.46522673 34.9661522 8.01796943 36.0400189 7.73819298 37.1305695 7.64322299 38.2384458 7.70354177 39.8692986 7.79209487 41.4154485 8.19764237 42.8451318 8.98435321 45.8366863 10.6302857 47.709456 13.1303065 48.4024802 16.4770359 49.1362517 20.0198014 48.0832399 23.7079095 45.5116708 26.3202258 43.8811388 27.9767462 41.9140409 29.0079406 39.627061 29.4295303 38.7739353 29.5867442 37.9134302 29.6525173 37.049075 29.599578 34.5355788 29.4462143 32.3352269 28.5372617 30.4704784 26.8348605 30.3758293 26.7488741 30.2831052 26.6600002 30.1351958 26.5223579M67.3092077 16.6600457C67.2970156 16.5756636 67.2925238 16.502511 67.2751982 16.4325669 67.1552023 15.9606046 66.9918925 15.5043636 66.7810976 15.0657691 65.5015695 12.4050053 62.8289345 11.0587415 60.1646413 11.3994785 59.1273509 11.5316664 58.1763677 11.8836329 57.3222795 12.4832913 55.9208305 13.4679633 55.0507001 14.820323 54.6079346 16.4614429 54.5915715 16.5207991 54.5838713 16.5827221 54.5716792 16.644966 54.6185225 16.6651792 54.6467568 16.6876383 54.675312 16.6876383 58.8405159 16.6902051 63.0060406 16.6911676 67.1712446 16.6908467 67.2107085 16.6908467 67.2504932 16.6735211 67.3092077 16.6600457M71.4987958 19.9833535L69.3488165 19.9833535 67.2440763 19.9833535 65.1066099 19.9833535 63.001228 19.9833535 60.8637616 19.9833535 58.7590214 19.9833535 56.6212341 19.9833535C55.9208305 19.9833535 55.2204268 19.9830327 54.5087936 19.9836743 54.5010934 20.0478433 54.4850511 20.0898739 54.4927514 20.1277335 54.9268541 22.2488369 56.0372971 23.9021488 57.9107084 25.0119501 58.9836125 25.6475432 60.1553368 25.9407951 61.4024596 25.9436827 62.7471191 25.9465703 64.0128508 25.6513933 65.1768749 24.9635026 65.985724 24.4851234 66.6662353 23.8607599 67.2533808 23.1308385 67.3201164 23.0474189 67.389098 22.9656036 67.4699508 22.867746 68.4709858 23.6037634 69.4559786 24.3356098 70.4512384 25.0716272 70.4191539 25.1303417 70.4040742 25.1698056 70.3796901 25.2018901 68.6946145 27.3784995 66.5176842 28.7789859 63.8155314 29.3372555 62.5806008 29.5923269 61.3318738 29.6279406 60.0780133 29.4957527 58.5787067 29.3375763 57.1567237 28.9185533 55.8409402 28.1825359 53.0056369 26.5975639 51.2339333 24.209197 50.5206959 21.0395738 50.3086177 20.0972533 50.2348234 19.1404949 50.2742873 18.1766778 50.4533185 13.8285925 53.1034945 10.1100042 56.9180153 8.53465749 57.9431137 8.11114268 59.0079967 7.85895887 60.1139479 7.76527226 61.7419131 7.62795079 63.3284894 7.81692823 64.8541052 8.39926109 67.6034222 9.44842276 69.5182224 11.3693191 70.660429 14.0682634 71.0922858 15.0882282 71.3438279 16.1563197 71.4635029 17.2577791 71.5568687 18.1195675 71.5267093 18.9826394 71.5299178 19.846032 71.5299178 19.8761914 71.5164423 19.9069925 71.4987958 19.9833535M77.984155 29.1106109C76.6398164 29.1106109 75.3349416 29.1109317 74.0300668 29.1099692 73.9787317 29.1099692 73.9270757 29.0984188 73.8606609 29.0907185 73.8536023 29.0265496 73.843977 28.9752145 73.8420519 28.9238793 73.8054756 27.7736516 73.8285764 8.46554757 73.8683612 8.16138694 73.9257923 8.15144076 73.9873945 8.1315484 74.0489966 8.1315484 75.2794355 8.12962333 76.5095535 8.12994417 77.7396715 8.13058586 77.79229 8.13058586 77.8445877 8.13892782 77.8827682 8.14213627 77.9796632 8.23582288 77.9501455 8.33881398 77.9507872 8.43153805 77.953354 9.06809363 77.9507872 9.70497006 77.9536748 10.3415256 77.9543165 10.4220576 77.9212695 10.5147817 78.0155978 10.5959554 78.0800875 10.5090065 78.1436148 10.4252661 78.2048961 10.3402423 78.8722527 9.41300152 79.7276243 8.73024432 80.8050203 8.33592637 81.4075664 8.11550617 82.0309673 7.9932644 82.6716939 7.98010977 83.2318885 7.96823852 83.7930456 7.97754301 84.3670365 7.97754301 84.3821162 8.03529503 84.4068212 8.08470509 84.4068212 8.13379431 84.4084254 9.32091914 84.4081046 10.508044 84.4074629 11.6948479 84.4074629 11.7266116 84.3971959 11.7583752 84.392704 11.7866095 84.324685 11.8713125 84.2322818 11.845324 84.1501456 11.8456449 83.6534782 11.8485325 83.1571317 11.8491742 82.6607852 11.8466074 82.0823024 11.8440407 81.5214662 11.938369 80.983089 12.1482013 80.0218388 12.5229477 79.2915966 13.1697703 78.7718284 14.0562638 78.378473 14.7268289 78.1590153 15.4557877 78.0573076 16.2229271 78.0059725 16.608903 77.9928178 16.9964833 77.9931387 17.3856677 77.9950637 21.151741 77.9944221 24.9181352 77.9937804 28.6842085 77.9937804 28.8115837 77.988326 28.9392799 77.984155 29.1106109"></path>
  </g>
</svg>