<svg xmlns="http://www.w3.org/2000/svg" width="111" height="30" viewBox="0 0 111 30">
  <path fill="#0074E4" fill-rule="evenodd" d="M787.21376,1011.0081 C788.752358,1010.30699 793.059697,1008.99889 797.185272,1008.03486 C797.185272,1008.03486 789.255448,1015.35442 787.051487,1017.62331 L788.87243,1012.68626 C787.457192,1012.89402 786.834028,1012.97515 784.899382,1013.38739 L787.21376,1011.0081 Z M797.107377,1003.13022 C797.792253,1003.46458 800.327309,1005.18816 801.229689,1005.82437 C798.34083,1005.89252 792.702629,1007.1422 790.355864,1007.92447 C792.283939,1006.47351 795.864179,1003.70801 797.107377,1003.13022 Z M807.296325,1010.32973 L803.592726,1010.69971 C803.592726,1010.69971 803.251909,1011.41058 802.930582,1012.39086 C800.161773,1012.5564 795.802511,1013.47176 793.673182,1014.24104 C794.770267,1013.23157 801.76852,1006.20091 801.76852,1006.20091 C804.482098,1008.05433 807.296325,1010.32973 807.296325,1010.32973 Z M801.119317,1017.70771 C794.186018,1018.12318 786.645761,1020.63229 785.850489,1020.98285 L786.775556,1018.37958 C789.125652,1017.29224 794.974785,1015.14342 802.16781,1014.63056 C802.028201,1015.16291 801.268671,1017.12346 801.119317,1017.70771 Z M781.595703,1026.15982 L781.595703,997.668335 L810.087191,997.668335 L810.087191,1026.15982 L781.595703,1026.15982 Z M823.041958,1019.23209 C823.041958,1019.23209 823.944698,1019.22507 824.761666,1019.22507 L831.591682,1019.22507 L830.540915,1022.55175 L817.874213,1022.55175 L817.874213,1019.69237 L825.53137,1006.54151 C826.086495,1005.60798 826.384708,1004.88518 826.384708,1004.88518 C826.384708,1004.88518 825.940315,1004.84915 824.714402,1004.84915 L818.468545,1004.84915 L819.373874,1001.4637 L831.515024,1001.4637 L831.515024,1004.41144 L823.79926,1017.91248 C823.360494,1018.64197 823.041958,1019.23209 823.041958,1019.23209 Z M836.280938,1002.85926 C837.595685,1002.85926 838.645731,1003.93944 838.645731,1005.28214 C838.645731,1006.62446 837.567304,1007.70467 836.224626,1007.70467 C834.910285,1007.70467 833.831498,1006.62446 833.831498,1005.28214 C833.831498,1003.93944 834.939701,1002.85926 836.280938,1002.85926 Z M834.275486,1009.44154 L838.171989,1008.56821 L838.180181,1022.58257 L834.268824,1022.58257 L834.275486,1009.44154 Z M841.997387,1001.86026 L845.99589,1000.95581 L846.024249,1022.54229 L842.025745,1022.54229 L841.997387,1001.86026 Z M849.768105,1001.86026 L853.768229,1000.95581 L853.795147,1022.54229 L849.796486,1022.54229 L849.768105,1001.86026 Z M886.431447,1012.9509 L887.568864,1007.60997 L891.595703,1007.60997 L887.335583,1022.55175 L883.746092,1022.55175 L882.40337,1017.41689 C882.082741,1016.21974 881.731345,1014.78922 881.558089,1013.79656 C881.441527,1013.09616 881.411774,1012.89243 881.323593,1012.30899 C881.234962,1012.9509 881.206626,1013.1553 880.973142,1014.23371 C880.682289,1015.5194 880.0386,1018.08824 879.688599,1019.48795 L878.930756,1022.55175 L875.281781,1022.55175 L871.121725,1007.60823 L875.113386,1007.60823 L876.305247,1013.184 C876.683628,1014.90576 877.149178,1017.825 877.149178,1017.825 C877.149178,1017.825 877.52999,1015.16863 878.230351,1012.62957 L879.630825,1007.60997 L883.308541,1007.60997 L884.505286,1012.54276 C885.177153,1015.31495 885.613467,1017.825 885.613467,1017.825 C885.701647,1017.18235 886.022277,1014.84769 886.431447,1012.9509 Z M863.465284,1007.31786 C865.596571,1007.31786 867.2599,1008.0473 868.54379,1009.5658 C869.741255,1010.96697 870.266109,1012.6005 870.266109,1015.02271 C870.266109,1017.59114 869.682625,1019.34238 868.397452,1020.80162 C867.2599,1022.08619 865.770907,1022.87234 863.465284,1022.87234 C859.408827,1022.87234 856.753226,1019.8387 856.753226,1015.14033 C856.753226,1010.4409 859.438243,1007.31786 863.465284,1007.31786 Z M863.582004,1020.0438 C865.274569,1020.0438 866.004548,1018.52611 866.004548,1014.99435 C866.004548,1012.97963 865.742549,1011.66663 865.217154,1010.99499 C864.837558,1010.49933 864.225513,1010.2074 863.525174,1010.2074 C862.589349,1010.2074 861.831371,1010.7916 861.510787,1011.72477 C861.24908,1012.51266 861.101572,1013.56309 861.101572,1015.05208 C861.101572,1016.77352 861.277326,1018.05811 861.59791,1018.8173 C861.947911,1019.63427 862.823868,1020.0438 863.582004,1020.0438 Z" transform="translate(-781 -997)"></path>
</svg>