<svg width="100" height="30" viewBox="0 0 100 30" fill="none" xmlns="http://www.w3.org/2000/svg">
<g clip-path="url(#clip0)">
<path fill-rule="evenodd" clip-rule="evenodd" d="M57.3682 3.25358V1.007C57.3709 0.662947 57.6283 0.435229 57.9373 0.435229H68.0134C68.3358 0.435229 68.5932 0.671048 68.5932 1.0043V2.93113C68.5905 3.25358 68.3194 3.67639 67.8345 4.34581L62.6174 11.7984C64.5526 11.7525 66.6041 12.0423 68.3628 13.0315C68.7586 13.2538 68.8669 13.5844 68.8968 13.9095V16.308C68.8968 16.6385 68.5363 17.0208 68.1569 16.8201C65.0539 15.1968 60.9399 15.018 57.5118 16.842C57.1594 17.0262 56.7935 16.6496 56.7935 16.3188V14.0396C56.7935 13.6739 56.7991 13.0504 57.1677 12.4951L63.2137 3.82017H57.9508C57.6283 3.82017 57.3709 3.58975 57.3682 3.25358ZM20.6174 17.2936H17.5522C17.2597 17.2747 17.0266 17.0553 17.005 16.776V1.04413C17.005 0.729777 17.2705 0.477757 17.5983 0.477757H20.452C20.7502 0.491258 20.9914 0.718976 21.0103 1.00632V3.06051H21.0672C21.8098 1.07405 23.2137 0.147206 25.0998 0.147206C27.0185 0.147206 28.219 1.07405 29.0781 3.06051C29.8206 1.07405 31.5092 0.147206 33.3113 0.147206C34.5984 0.147206 36.0023 0.675548 36.8587 1.86792C37.8317 3.19057 37.6337 5.112 37.6337 6.80031L37.631 16.7272C37.631 17.0415 37.3655 17.2936 37.0403 17.2936H33.9778C33.6689 17.2747 33.4279 17.0307 33.4279 16.7299V8.38848C33.4279 7.72716 33.4846 6.07125 33.341 5.44255C33.1106 4.38294 32.425 4.08479 31.5389 4.08479C30.7936 4.08479 30.0213 4.58073 29.707 5.37752C29.3924 6.17161 29.4223 7.49404 29.4223 8.38848V16.7272C29.4223 17.0415 29.1568 17.2936 28.8315 17.2936H25.7692C25.4602 17.2747 25.219 17.0307 25.219 16.7299L25.2163 8.38848C25.2163 6.63492 25.501 4.05239 23.3275 4.05239C21.1241 4.05239 21.2108 6.56719 21.2108 8.38848L21.2081 16.7272C21.2081 17.0415 20.9453 17.2936 20.6174 17.2936ZM77.2656 0.145406C81.816 0.145406 84.2765 4.05329 84.2765 9.01831C84.2765 13.8177 81.5583 17.6255 77.2656 17.6255C72.8022 17.6255 70.3713 13.7174 70.3713 8.85292C70.3713 3.95316 72.8319 0.145406 77.2656 0.145406ZM77.2956 3.35686C75.0353 3.35686 74.8917 6.43555 74.8917 8.35428C74.8917 10.2757 74.8645 14.3814 77.2656 14.3814C79.6423 14.3814 79.7561 11.0698 79.7561 9.05071C79.7561 7.72558 79.6992 6.13741 79.2982 4.88001C78.954 3.78777 78.2683 3.35686 77.2956 3.35686ZM90.1765 17.2936H87.1221C86.8159 17.2747 86.5719 17.0307 86.5719 16.7299L86.5665 0.989898C86.5938 0.702775 86.8485 0.477757 87.1574 0.477757H90.0003C90.2658 0.491258 90.4881 0.672848 90.5448 0.916767V3.32333H90.6018C91.4609 1.17149 92.6616 0.147206 94.7781 0.147206C96.1521 0.147206 97.4963 0.643146 98.3552 2.0009C99.1574 3.2583 99.1574 5.37752 99.1574 6.90067V16.7976C99.1223 17.0769 98.873 17.2936 98.5694 17.2936H95.4961C95.2117 17.2747 94.984 17.0661 94.9516 16.7976V8.25572C94.9516 6.53479 95.1521 4.01976 93.0329 4.01976C92.2903 4.01976 91.6018 4.5157 91.2604 5.27739C90.8322 6.23664 90.7726 7.19589 90.7726 8.25572V16.7272C90.7672 17.0415 90.5016 17.2936 90.1765 17.2936ZM52.4268 17.2542C52.2236 17.4356 51.9309 17.4493 51.7034 17.3246C50.6843 16.479 50.5027 16.0888 49.9471 15.2839C48.2642 16.9965 47.0718 17.5116 44.893 17.5116C42.3129 17.5116 40.3049 15.918 40.3049 12.7338C40.3049 10.246 41.6516 8.55477 43.573 7.72288C45.2371 6.99382 47.5597 6.86106 49.3373 6.66327V6.26477C49.3373 5.53301 49.3943 4.67119 48.9633 4.04249C48.5921 3.47612 47.874 3.24593 47.2426 3.24593C46.0746 3.24593 45.0366 3.8447 44.7791 5.0859C44.7276 5.36244 44.5244 5.63607 44.2479 5.64957L41.2776 5.32712C41.0256 5.27019 40.7466 5.0697 40.8197 4.68762C41.5027 1.08328 44.7575 -0.0062561 47.6735 -0.0062561C49.1641 -0.0062561 51.1152 0.392025 52.2887 1.51959C53.7819 2.91245 53.6383 4.77155 53.6383 6.79603V11.5711C53.6383 13.0074 54.2346 13.6361 54.7956 14.4113C54.9907 14.6903 55.0339 15.0211 54.7846 15.2243C54.1586 15.7499 53.0447 16.7175 52.4351 17.2623L52.4268 17.2542ZM49.3373 9.77977V9.11844C47.118 9.11844 44.7764 9.59278 44.7764 12.2025C44.7764 13.5306 45.4648 14.4248 46.6409 14.4248C47.5028 14.4248 48.275 13.8935 48.7629 13.0317C49.3646 11.9694 49.3373 10.9748 49.3373 9.77977ZM12.2461 17.2542C12.0426 17.4356 11.7501 17.4493 11.5224 17.3246C10.5035 16.479 10.3219 16.0888 9.76367 15.2839C8.08346 16.9965 6.89086 17.5116 4.71202 17.5116C2.13196 17.5116 0.123901 15.918 0.123901 12.7338C0.123901 10.246 1.47086 8.55477 3.39229 7.72288C5.05629 6.99382 7.3787 6.86106 9.15657 6.66327V6.26477C9.15657 5.53301 9.2135 4.67119 8.78259 4.04249C8.41131 3.47612 7.69305 3.24593 7.06165 3.24593C5.89358 3.24593 4.85288 3.8447 4.59816 5.0859C4.54663 5.36244 4.34344 5.63607 4.06711 5.64957L1.09688 5.32712C0.844858 5.27019 0.565611 5.0697 0.638742 4.68762C1.32167 1.08328 4.57655 -0.0062561 7.49256 -0.0062561C8.98308 -0.0062561 10.9344 0.392025 12.1106 1.51959C13.6011 2.91245 13.4573 4.77155 13.4573 6.79603V11.5711C13.4573 13.0074 14.0536 13.6361 14.6146 14.4113C14.8097 14.6903 14.8531 15.0211 14.6038 15.2243C13.9778 15.7499 12.864 16.7175 12.2542 17.2623L12.2461 17.2542ZM9.15657 9.77977V9.11844C6.93969 9.11844 4.59546 9.59278 4.59546 12.2025C4.59546 13.5306 5.28379 14.4248 6.45995 14.4248C7.32177 14.4248 8.09426 13.8935 8.5821 13.0317C9.18357 11.9694 9.15657 10.9748 9.15657 9.77977Z" fill="white"/>
<path fill-rule="evenodd" clip-rule="evenodd" d="M61.5625 23.333C55.8091 27.5796 47.4674 29.8372 40.283 29.8372C30.2153 29.8372 21.1502 26.1163 14.2883 19.9211C13.7516 19.4359 14.2314 18.7692 14.879 19.1459C22.2803 23.455 31.4349 26.0485 40.8874 26.0485C47.2642 26.0485 54.2751 24.7259 60.725 21.9888C61.698 21.577 62.5137 22.6312 61.5625 23.333ZM63.9572 20.6C63.22 19.6569 59.0925 20.1526 57.2361 20.3749C56.6752 20.4427 56.5885 19.9521 57.0953 19.5973C60.3879 17.2828 65.7836 17.9522 66.4123 18.7247C67.044 19.5077 66.2472 24.9169 63.1604 27.4997C62.6861 27.8982 62.2335 27.684 62.4448 27.161C63.1386 25.4266 64.6943 21.543 63.9572 20.6Z" fill="white"/>
</g>
<defs>
<clipPath id="clip0">
<rect width="100" height="30" fill="white"/>
</clipPath>
</defs>
</svg>
