<svg width="120" height="21" viewBox="0 0 120 21" fill="none" xmlns="http://www.w3.org/2000/svg">
<path d="M46.8386 2.32401C46.8386 1.32054 47.6485 0.508911 48.6455 0.508911C49.6459 0.508911 50.459 1.32054 50.459 2.32401C50.459 3.32618 49.6459 4.13866 48.6455 4.13866C47.6485 4.13866 46.8386 3.32618 46.8386 2.32401ZM17.1261 4.95461C20.4371 4.95461 22.841 7.33142 22.841 10.6046C22.841 13.8778 20.4371 16.2542 17.1261 16.2542C13.8275 16.2542 11.4335 13.8778 11.4335 10.6046C11.4335 7.33142 13.8275 4.95461 17.1261 4.95461ZM17.1261 13.6124C18.7171 13.6124 19.7897 12.4021 19.7897 10.6046C19.7897 8.83555 18.6943 7.5981 17.1261 7.5981C15.5669 7.5981 14.4834 8.83555 14.4834 10.6046C14.4834 12.3741 15.5669 13.6124 17.1261 13.6124ZM43.3322 10.8872L44.5172 13.1316L46.3044 16.0878H43.9048C43.0002 16.0878 42.5193 15.9368 42.0368 15.052L40.3094 11.7917C40.198 11.5978 39.9549 11.5565 39.598 11.5565H39.3046V16.0878H36.1734L36.1708 0.981609H37.6457C38.5072 0.981609 39.3046 1.15581 39.3046 2.43584V8.83555H39.8031C40.1773 8.83555 40.4273 8.74393 40.5511 8.56242L42.7383 5.17741H46.2721L43.3611 9.50482C43.2118 9.72416 43.057 9.91342 42.9056 10.073L42.8007 10.1736L42.9004 10.2795C43.057 10.4416 43.204 10.6459 43.3322 10.8872ZM58.5334 4.93051H58.5343C61.0798 4.93051 62.4244 6.38775 62.4244 9.1448L62.4294 16.0839H60.9494C59.8186 16.0839 59.296 15.5553 59.296 14.4254V9.67342C59.296 8.34951 58.9167 7.83724 57.9459 7.83724C56.739 7.83724 55.7733 8.56973 55.4271 9.74783C55.2971 10.1371 55.2332 10.5638 55.2332 11.0554V16.0839H52.1233L52.1145 5.17352H53.5178C54.3664 5.17352 54.9304 5.52622 55.0977 6.16711L55.1648 6.42861L55.3549 6.23635C55.9244 5.63805 56.9407 4.93051 58.5334 4.93051ZM48.6868 5.17826L48.6878 5.17828C49.791 5.17828 50.3244 5.71893 50.3244 6.83466L50.3181 16.0822H50.3131V16.0865H49.5836L48.8507 16.0886C48.8309 16.0886 48.815 16.0865 48.7953 16.0865H47.2218V13.6142H47.2228L47.2127 5.17826H48.6868ZM29.3418 4.95461C32.6494 4.95461 35.0572 7.33142 35.0572 10.6046C35.0572 13.8778 32.6494 16.2542 29.3418 16.2542C26.0399 16.2542 23.6454 13.8778 23.6454 10.6046C23.6454 7.33142 26.0399 4.95461 29.3418 4.95461ZM29.3418 13.6124C30.9329 13.6124 32.0052 12.4021 32.0052 10.6046C32.0052 8.83555 30.9067 7.5981 29.3418 7.5981C27.7827 7.5981 26.6971 8.83555 26.6971 10.6046C26.6971 12.3741 27.7827 13.6124 29.3418 13.6124ZM72.7368 5.14901H72.7373H74.1821L74.1708 15.1553C74.1708 18.9704 71.0783 20.3261 68.4296 20.3261C67.1432 20.3261 65.7199 19.9799 64.6265 19.3997L64.4102 19.2844L64.7594 18.3923L65.0063 17.7816C65.2738 17.1196 65.6605 16.9549 66.3204 17.154C66.8257 17.3373 67.5814 17.5394 68.4116 17.5394C70.1199 17.5394 71.0624 16.7355 71.0624 15.2783V14.975L70.8223 15.1553C70.2021 15.6249 69.4197 15.8559 68.4296 15.8559C65.531 15.8559 63.5052 13.5871 63.5052 10.3405C63.5052 7.09014 65.4631 4.906 68.3711 4.906C69.8327 4.906 70.7328 5.42128 71.2348 5.8557L71.3789 5.98085L71.4649 5.81398C71.6925 5.38429 72.1466 5.14901 72.7368 5.14901ZM68.9819 13.1324C69.9574 13.1324 71.1221 12.652 71.1221 10.3616C71.1221 7.93316 69.806 7.65014 68.8185 7.65014C66.8312 7.65014 66.6764 9.64632 66.6764 10.2588C66.6764 11.6489 67.2816 13.1324 68.9819 13.1324ZM8.77709 8.34306H8.77646C9.88745 8.96845 10.5485 10.1982 10.5485 11.6365C10.5485 14.3079 8.50325 16.0327 5.33457 16.0327L1.61545 16.0336C1.61419 16.0327 1.61293 16.0336 1.60914 16.0327H0.116272V2.55584C0.125728 1.70549 0.801876 1.01817 1.64697 0.987195H2.01738V0.988052H5.27028C8.12074 0.988052 9.96246 2.52056 9.96246 4.89482C9.96246 6.44668 9.18356 7.34476 8.71897 7.74434L8.31943 8.08585L8.77709 8.34306ZM5.54386 13.4873V13.4873C6.79593 13.4865 7.5723 12.7221 7.57319 11.4318C7.5723 10.1746 6.77613 9.39735 5.54386 9.39735H3.81737C3.26301 9.47476 3.01225 9.81112 3.01225 10.458V13.4847L5.54386 13.4873ZM3.01225 5.32234V7.06949H5.29095C6.57101 7.06949 7.02652 6.07979 7.02652 5.2316C7.02652 4.11931 6.36109 3.45435 5.2501 3.45435H3.95467C3.30727 3.49693 3.01225 3.82855 3.01225 4.52577V5.32234Z" fill="white"/>
<path fill-rule="evenodd" clip-rule="evenodd" d="M75.4031 14.3969C75.4031 13.3931 76.2126 12.5806 77.2096 12.5806C78.2097 12.5806 79.0226 13.3931 79.0226 14.3969C79.0226 15.3983 78.2097 16.2116 77.2096 16.2116C76.2126 16.2116 75.4031 15.3983 75.4031 14.3969ZM115.612 4.96577H115.611C118.012 4.96577 119.233 6.37226 119.233 9.14393L119.23 16.0821H117.832C116.735 16.0821 116.245 15.5914 116.245 14.4933V9.63943C116.245 8.24842 115.907 7.73057 114.993 7.73057C113.729 7.73057 112.916 8.86522 112.675 9.9719C112.557 10.3663 112.507 10.7595 112.507 11.2846V16.0821H109.516V9.63943C109.516 8.43381 109.122 7.8097 108.314 7.73228C107.005 7.60755 106.226 8.85446 105.942 10.0136C105.836 10.4485 105.784 10.8644 105.784 11.2846V16.0821H102.814L102.827 5.21394H104.134C104.949 5.21394 105.487 5.54686 105.652 6.15117L105.765 6.57096L106.06 6.25182C106.51 5.77223 107.48 4.96577 108.925 4.96577C110.304 4.96577 111.295 5.49911 111.871 6.54946L112.048 6.86903L112.273 6.58343C113.074 5.57008 114.321 4.96577 115.612 4.96577ZM96.0041 4.95459C99.3121 4.95459 101.719 7.33141 101.719 10.6046C101.719 13.8778 99.3121 16.2542 96.0041 16.2542C92.7029 16.2542 90.3085 13.8778 90.3085 10.6046C90.3085 7.33141 92.7029 4.95459 96.0041 4.95459ZM96.0041 13.6124C97.5954 13.6124 98.6682 12.4021 98.6682 10.6046C98.6682 8.83554 97.5692 7.59808 96.0041 7.59808C94.4457 7.59808 93.3593 8.83554 93.3593 10.6046C93.3593 12.3741 94.4457 13.6124 96.0041 13.6124ZM88.5888 12.3087V12.3088L88.7582 12.1281L90.0469 14.2658L89.9612 14.3708C89.9462 14.3901 88.3428 16.3282 85.3944 16.3282C81.996 16.3282 79.5313 13.9406 79.5313 10.6494C79.5313 7.35684 82.0231 4.96582 85.4572 4.96582C87.0631 4.96582 89.4495 5.64627 89.4495 7.52244V8.94483L87.8224 8.94307C87.6861 8.94307 86.993 8.90221 86.7642 8.13961L86.7496 8.08282C86.6502 7.74648 86.0154 7.54647 85.4572 7.54647C83.7384 7.54647 82.5375 8.8136 82.5375 10.6265C82.5375 12.7264 84.0863 13.667 85.6193 13.667C87.3019 13.667 88.58 12.3194 88.5888 12.3087Z" fill="white"/>
</svg>
