<svg width="124" height="34" viewBox="0 0 124 34" fill="none" xmlns="http://www.w3.org/2000/svg">
<path d="M45.2532 25.2531H48.08L47.6004 23.0573V10.0088H44.8998V15.9652C44.0922 15.0314 42.9564 14.4761 41.644 14.4761C38.9435 14.4761 36.8487 16.7224 36.8487 19.9782C36.8487 23.2592 38.9435 25.4802 41.644 25.4802C42.9817 25.4802 44.1427 24.8997 44.9503 23.9154L45.2532 25.2531ZM98.6586 17.4038C99.2138 17.4038 99.7185 17.5552 100.173 17.8834L101.46 15.0061C100.854 14.6275 100.173 14.4761 99.4914 14.4761C98.28 14.4761 97.2452 15.0314 96.6142 16.0662L96.3366 14.7285H93.5603L94.0146 16.7981V25.2783H96.7152V18.5396C97.0685 17.8329 97.75 17.4038 98.6586 17.4038ZM106.558 22.6535C104.993 22.6535 103.832 21.6187 103.832 20.0034C103.832 18.3629 104.993 17.3533 106.558 17.3533C108.148 17.3533 109.284 18.3629 109.284 20.0034C109.284 21.5935 108.148 22.6535 106.558 22.6535ZM39.4735 19.9782C39.4735 18.3377 40.6345 17.3281 42.1993 17.3281C43.7893 17.3281 44.9251 18.3377 44.9251 19.9782C44.9251 21.5935 43.7893 22.6283 42.1993 22.6283C40.6345 22.6535 39.4735 21.5935 39.4735 19.9782ZM118.547 22.6535C116.982 22.6535 115.821 21.6187 115.821 20.0034C115.821 18.3629 116.982 17.3533 118.547 17.3533C120.137 17.3533 121.273 18.3629 121.273 20.0034C121.247 21.5935 120.112 22.6535 118.547 22.6535ZM54.6421 17.1767C56.0302 17.1767 56.9388 17.8329 57.2417 19.0443H52.0425C52.3201 17.8076 53.2539 17.1767 54.6421 17.1767ZM86.9225 17.1767C88.3106 17.1767 89.2192 17.8329 89.5221 19.0443H84.3229C84.651 17.8076 85.5596 17.1767 86.9225 17.1767ZM73.7478 25.2531H78.0889L80.9156 14.678H77.9627L75.9183 23.2592L73.8488 14.7033H70.9463L73.7478 25.2531ZM66.8071 25.2531H69.5077V14.678H66.8071V25.2531ZM55.0459 25.455C56.5602 25.455 58.024 25.0259 59.2607 24.2435L58.226 21.9216C57.2669 22.4516 56.1564 22.7292 55.0711 22.7292C53.6577 22.7292 52.6734 22.174 52.2191 21.1392H59.8413C59.917 20.7353 59.9674 20.382 59.9674 19.9025C59.9674 16.6214 57.696 14.4509 54.6925 14.4509C51.6386 14.4509 49.4176 16.6719 49.4176 19.9529C49.3924 23.3097 51.6134 25.455 55.0459 25.455ZM123.872 19.9782C123.872 16.6971 121.601 14.4761 118.547 14.4761C115.468 14.4761 113.221 16.7224 113.221 19.9782C113.221 23.234 115.493 25.4802 118.547 25.4802C121.601 25.4802 123.872 23.2592 123.872 19.9782ZM87.3011 25.4802C88.8154 25.4802 90.2792 25.0764 91.5159 24.2688L90.4812 21.9468C89.5221 22.4768 88.4116 22.7544 87.3263 22.7544C85.9129 22.7544 84.9286 22.1992 84.4743 21.1644H92.0965C92.1722 20.7606 92.2226 20.4072 92.2226 19.9277C92.2226 16.6467 89.9512 14.4761 86.9477 14.4761C83.8938 14.4761 81.6728 16.6971 81.6728 19.9782C81.6728 23.3602 83.8686 25.4802 87.3011 25.4802ZM106.558 25.4802C109.637 25.4802 111.884 23.234 111.884 19.9782C111.884 16.7224 109.612 14.4761 106.558 14.4761C103.479 14.4761 101.233 16.7224 101.233 19.9782C101.233 23.234 103.479 25.4802 106.558 25.4802ZM61.6837 25.2531H64.3842V10.0088H61.6837V25.2531ZM68.17 13.2394C69.1039 13.2394 69.861 12.4822 69.861 11.5232C69.861 10.5641 69.1291 9.80693 68.17 9.80693C67.211 9.80693 66.4538 10.5641 66.4538 11.5232C66.4538 12.4822 67.1857 13.2394 68.17 13.2394ZM21.7559 0.392853L20.2163 15.0314L17.5914 2.68959L9.31314 4.43106L11.9127 16.7728L0 19.2967L2.12009 29.1399L23.0935 33.6071L27.8889 22.8806L30.1604 1.27621L21.7559 0.392853ZM15.1181 21.6439C14.689 22.0478 14.1337 21.9973 13.5028 21.7954C12.897 21.5935 12.6446 20.8868 12.8465 19.9782C13.0232 19.322 13.8056 19.221 14.2347 19.221C14.3861 19.221 14.5375 19.2463 14.689 19.322C14.9666 19.4482 15.4461 19.7258 15.5471 20.1296C15.6985 20.7353 15.5471 21.2401 15.1181 21.6439ZM21.2006 22.3001C20.8725 22.8554 20.0649 22.9311 19.232 22.5273C18.6768 22.2497 18.6767 21.5935 18.7524 21.1644C18.7777 20.9373 18.8787 20.7101 19.0301 20.5334C19.232 20.281 19.5601 19.9529 19.9134 19.9529C20.5444 19.9277 21.0492 20.2053 21.352 20.7101C21.6549 21.2149 21.5035 21.7701 21.2006 22.3001Z" fill="white"/>
</svg>
