<svg width="111" height="37" viewBox="0 0 111 37" fill="none" xmlns="http://www.w3.org/2000/svg">
<path fill-rule="evenodd" clip-rule="evenodd" d="M52.6692 7.5432H59.3204C66.0113 7.5432 71.3324 11.6819 71.3324 18.6613C71.3324 26.2698 66.7596 30.1559 59.3204 30.1559H52.6692V7.5432ZM55.8694 27.3142H59.2371C64.7645 27.3142 67.8408 24.639 67.8408 18.7871C67.8408 13.5209 64.266 10.3859 59.6108 10.3859H55.8278V27.3142H55.8694ZM75.4055 9.92527H78.8148V6.49799H75.4055V9.92527ZM75.572 30.1986H78.6067V13.6458H75.572V30.1986ZM84.2594 7.5432H90.9096C97.6015 7.5432 102.923 11.6819 102.923 18.6613C102.923 26.2698 98.3507 30.1559 90.9096 30.1559H84.2594V7.5432ZM87.5012 27.3142H90.868C96.3963 27.3142 99.4726 24.639 99.4726 18.7871C99.4726 13.5209 95.8978 10.3859 91.2426 10.3859H87.4596V27.3142H87.5012Z" fill="white"/>
<mask id="mask0" mask-type="alpha" maskUnits="userSpaceOnUse" x="106" y="6" width="5" height="25">
<path d="M106.997 6.49799H110.404V30.199H106.997V6.49799Z" fill="white"/>
</mask>
<g mask="url(#mask0)">
<path fill-rule="evenodd" clip-rule="evenodd" d="M106.997 9.92549H110.405V6.4982H106.997V9.92549ZM107.203 30.1988H110.238V13.646H107.203V30.1988Z" fill="white"/>
</g>
<mask id="mask1" mask-type="alpha" maskUnits="userSpaceOnUse" x="0" y="0" width="45" height="37">
<path d="M0.795013 0.562988H44.439V36.51H0.795013V0.562988Z" fill="white"/>
</mask>
<g mask="url(#mask1)">
<path fill-rule="evenodd" clip-rule="evenodd" d="M22.742 28.6107C30.2237 28.3572 36.1257 22.3171 36.2089 14.8401V8.37716H44.439V15.5165C44.2725 27.1331 34.3387 36.2571 22.742 36.5106C10.9371 36.4264 0.920066 27.2173 0.795197 15.5165V2.71735C0.795197 1.40812 1.62671 0.563354 2.87352 0.563354H36.2089V8.37716H10.0639C9.39889 8.37716 8.98361 8.80001 8.98361 9.47544V14.7143C9.06685 22.2755 15.0937 28.5266 22.742 28.6107Z" fill="white"/>
</g>
</svg>
