<svg width="116" height="35" viewBox="0 0 116 35" fill="none" xmlns="http://www.w3.org/2000/svg">
<path fill-rule="evenodd" clip-rule="evenodd" d="M53.6943 26.8134H57.3866C57.41 26.8134 57.4217 26.8134 57.4451 26.79C57.4451 26.7783 57.4451 26.7549 57.4334 26.7433L52.4089 20.5737L56.7907 15.3039C56.7928 15.2998 56.7949 15.296 56.7968 15.2925C56.8058 15.276 56.812 15.2647 56.8024 15.2455C56.7907 15.2338 56.7673 15.2221 56.7557 15.2221H53.7527C53.741 15.2221 53.7293 15.2338 53.7176 15.2455L50.8782 18.7042L48.0856 15.2455C48.0739 15.2338 48.0622 15.2221 48.0505 15.2221H44.3582C44.3465 15.2221 44.3348 15.2338 44.3231 15.2455C44.3231 15.2688 44.3231 15.2805 44.3348 15.3039L48.9619 20.9944L44.2764 26.7433C44.2647 26.7549 44.2647 26.7783 44.2647 26.79C44.2764 26.8017 44.288 26.8134 44.3114 26.8134H47.2677C47.2793 26.8134 47.291 26.8134 47.3027 26.8017L50.481 22.9224L53.6592 26.8017C53.6709 26.8134 53.6709 26.8134 53.6943 26.8134ZM74.2828 19.9661C74.61 18.2485 75.72 17.2553 77.3559 17.2553C78.8281 17.2553 79.8447 18.4822 79.8447 19.8493V19.9661H74.2828ZM82.7074 21.7422L82.7075 21.7422C82.7192 21.7071 82.801 20.5504 82.801 20.0479C82.801 16.9748 80.6743 14.743 77.3559 14.743C73.7219 14.743 71.0812 17.3955 71.0812 21.0411C71.0812 24.6868 73.7219 27.3392 77.3559 27.3392C78.758 27.3392 80.5458 26.8251 82.3219 26.0772C82.3336 26.0772 82.3453 26.0655 82.3453 26.0422V23.4482C82.3453 23.4131 82.3102 23.3781 82.2751 23.4014C80.3705 24.418 79.0151 24.8503 77.7415 24.8503C75.6733 24.8503 74.3996 23.7286 74.2244 21.7656H82.6724C82.6841 21.7656 82.6958 21.7539 82.7074 21.7422ZM97.9794 10.9689C97.9794 11.9854 98.8207 12.8151 99.8607 12.8151C100.901 12.8151 101.742 11.9854 101.742 10.9689C101.742 9.91723 100.901 9.06425 99.8607 9.06425C98.8207 9.06425 97.9794 9.91723 97.9794 10.9689ZM98.2949 26.7666C98.2949 26.8017 98.3066 26.8134 98.3417 26.8134H101.368C101.391 26.8134 101.415 26.8017 101.415 26.7666V15.2572C101.415 15.2338 101.403 15.2104 101.38 15.2104H98.33C98.3066 15.2104 98.2949 15.2338 98.2949 15.2572V26.7666ZM61.2076 24.8387C61.8619 25.0022 62.4228 25.084 62.9719 25.084C65.3089 25.084 66.8162 23.4715 66.8162 20.9827C66.8162 18.6574 65.4024 17.1034 63.2874 17.1034C62.6331 17.1034 61.9787 17.2085 61.2192 17.4539L61.2076 24.8387ZM61.1608 15.2104C62.0722 14.8949 62.9369 14.743 63.8016 14.743C67.4589 14.743 70.0179 17.3137 70.0179 20.9944C70.0179 24.8503 67.3304 27.3392 63.1706 27.3392C62.5747 27.3392 61.9554 27.2691 61.2076 27.1639V32.9011C60.1092 33.6723 58.9875 33.9995 58.076 34.128V15.2572C58.076 15.2338 58.0994 15.2104 58.1228 15.2104H61.1608ZM90.1974 24.862C90.992 24.862 91.8449 24.6283 92.7914 24.1259V17.5357C92.067 17.2085 91.471 17.0566 90.8517 17.0566C88.62 17.0566 87.1827 18.7275 87.1827 21.2982C87.1827 23.53 88.3162 24.862 90.1974 24.862ZM92.7914 15.1403V9.12267C93.9015 8.32811 94.9998 8.01262 95.9229 7.88409V26.2642C94.9765 26.9419 94.0183 27.2691 93.1887 27.4327V26.3927C91.9267 27.0354 90.8517 27.3275 89.7066 27.3275C86.3882 27.3275 83.9811 24.7101 83.9811 21.1112C83.9811 17.4889 86.7037 14.7664 90.3259 14.7664C91.1205 14.7664 91.9034 14.8832 92.7914 15.1403ZM109.582 24.8854C110.283 24.8854 111.066 24.6283 111.989 24.1025V17.746C111.148 17.302 110.459 17.08 109.898 17.08C107.783 17.08 106.357 18.786 106.357 21.3215C106.357 23.5533 107.561 24.8854 109.582 24.8854ZM114.992 14.9417C115.063 14.9417 115.121 15.0001 115.121 15.0702V26.2642C114.221 26.9185 113.263 27.2574 112.457 27.4327V25.9487C111.312 27.2574 110.085 27.3275 109.138 27.3275C105.575 27.3275 103.179 24.8737 103.179 21.2164C103.179 17.5941 105.855 14.7664 109.267 14.7664C110.213 14.7664 111.195 14.9884 112.328 15.4909H112.387V15.0702C112.387 15.0001 112.457 14.9417 112.527 14.9417H114.992ZM43.5285 23.9389H35.875V18.1667H42.3834C42.4068 18.1667 42.4302 18.1433 42.4302 18.1199V15.2688C42.4302 15.2455 42.4068 15.2221 42.3834 15.2221H35.875V11.1091H42.4419C43.1079 10.0925 43.4 9.06425 43.5168 8.21126H34.5079C33.5381 8.21126 32.7318 8.97077 32.6384 9.92892C32.6384 9.93476 32.6354 9.9406 32.6325 9.94645C32.6296 9.95229 32.6267 9.95813 32.6267 9.96397V25.0607C32.6267 25.0744 32.6307 25.084 32.634 25.0921C32.6363 25.0977 32.6384 25.1026 32.6384 25.1074C32.7318 26.0539 33.5381 26.8134 34.5079 26.8134H42.4652C43.1196 25.7968 43.4117 24.7919 43.5285 23.9389ZM0.456329 16.3522L11.8863 12.3827L16.4083 11.0857L15.8591 9.51994L14.6879 7.95349L11.1501 3.23356L11.1575 3.23172L11.1501 3.22186L11.9914 3.01154L20.1123 10.0341L24.8914 8.66695C25.4502 8.51561 26.0786 8.49186 26.5686 8.49168C25.0717 5.26029 22.3164 2.60104 18.6985 1.31726C11.5357 -1.2417 3.64851 2.50911 1.10124 9.68354C0.308498 11.8985 0.13221 14.1833 0.456329 16.3522ZM0.575432 17.0683L0.575422 17.0683C1.52189 21.6253 4.74688 25.6098 9.45583 27.2808C16.6303 29.8397 24.5058 26.0889 27.0647 18.9145C28.1631 15.8414 28.093 12.6164 27.0881 9.74196C26.6675 10.0107 26.0482 10.3729 25.4406 10.5716L20.6498 11.9387L17.4599 22.1979L16.6303 22.4666L16.6316 22.4507L16.6186 22.4549L17.2963 14.6262L16.9256 13.0161L12.4471 14.299L0.575432 17.0683Z" fill="white"/>
</svg>
