<svg width="111" height="37" viewBox="0 0 111 37" fill="none" xmlns="http://www.w3.org/2000/svg">
<path fill-rule="evenodd" clip-rule="evenodd" d="M43.5056 19.2631C43.5056 16.0225 41.154 13.8049 38.4247 13.8049C35.6954 13.8049 33.3438 16.0225 33.3438 19.2631C33.3438 22.4717 35.6954 24.7218 38.4247 24.7218C41.154 24.7218 43.5056 22.4681 43.5056 19.2631ZM47.4615 19.2631C47.4615 24.4501 43.4041 28.2719 38.4247 28.2719C33.4453 28.2719 29.3879 24.4501 29.3879 19.2631C29.3879 14.04 33.4453 10.2547 38.4247 10.2547C43.4041 10.2547 47.4615 14.04 47.4615 19.2631Z" fill="white"/>
<path fill-rule="evenodd" clip-rule="evenodd" d="M63.0008 19.2631C63.0008 16.0225 60.6492 13.8049 57.9199 13.8049C55.1905 13.8049 52.8389 16.0225 52.8389 19.2631C52.8389 22.4717 55.1905 24.7218 57.9199 24.7218C60.6492 24.7218 63.0008 22.4681 63.0008 19.2631ZM66.9567 19.2631C66.9567 24.4501 62.8993 28.2719 57.9199 28.2719C52.9405 28.2719 48.883 24.4501 48.883 19.2631C48.883 14.0441 52.9405 10.2547 57.9199 10.2547C62.8993 10.2547 66.9567 14.04 66.9567 19.2631Z" fill="white"/>
<mask id="mask0" mask-type="alpha" maskUnits="userSpaceOnUse" x="68" y="10" width="18" height="27">
<path d="M68.37 10.255H85.639V36.342H68.37V10.255Z" fill="white"/>
</mask>
<g mask="url(#mask0)">
<path fill-rule="evenodd" clip-rule="evenodd" d="M82.1623 19.2956C82.1623 16.1235 80.0463 13.8044 77.3531 13.8044C74.6238 13.8044 72.3376 16.1235 72.3376 19.2956C72.3376 22.4351 74.6238 24.7217 77.3531 24.7217C80.0463 24.7217 82.1623 22.4351 82.1623 19.2956ZM85.639 10.7989V26.9718C85.639 33.6245 81.7152 36.3421 77.0769 36.3421C72.7108 36.3421 70.0835 33.4214 69.092 31.0333L72.5366 29.5996C73.1499 31.0658 74.6526 32.796 77.0733 32.796C80.0418 32.796 81.8821 30.9642 81.8821 27.516V26.2204H81.744C80.8586 27.313 79.1528 28.2674 77.0002 28.2674C72.4956 28.2674 68.3695 24.3444 68.3695 19.2956C68.3695 14.2106 72.4956 10.2547 77.0002 10.2547C79.1483 10.2547 80.8541 11.2091 81.744 12.2692H81.8821V10.803H85.639V10.7989Z" fill="white"/>
</g>
<mask id="mask1" mask-type="alpha" maskUnits="userSpaceOnUse" x="0" y="0" width="111" height="37">
<path d="M0.595993 36.342H110.11V0.291992H0.595993V36.342Z" fill="white"/>
</mask>
<g mask="url(#mask1)">
<path fill-rule="evenodd" clip-rule="evenodd" d="M87.975 27.719H91.833V1.32001H87.975V27.719Z" fill="white"/>
<path fill-rule="evenodd" clip-rule="evenodd" d="M97.418 18.9871L105.468 15.6445C105.025 14.5194 103.693 13.7356 102.125 13.7356C100.115 13.7356 97.3165 15.5104 97.418 18.9871ZM106.869 22.2281L109.94 24.2751C108.949 25.7413 106.56 28.2676 102.434 28.2676C97.3165 28.2676 93.4946 24.3117 93.4946 19.2592C93.4946 13.9021 97.349 10.2508 101.991 10.2508C106.666 10.2508 108.953 13.9711 109.7 15.9816L110.11 17.0051L98.0678 21.9926C98.9898 23.7999 100.424 24.7219 102.434 24.7219C104.448 24.7219 105.846 23.7309 106.869 22.2281Z" fill="white"/>
<path fill-rule="evenodd" clip-rule="evenodd" d="M14.7828 16.9198V13.0979H27.6618C27.7877 13.764 27.8527 14.5519 27.8527 15.4049C27.8527 18.2723 27.0688 21.818 24.5426 24.3442C22.0854 26.9029 18.9458 28.2672 14.7869 28.2672C7.07814 28.2672 0.595993 21.9881 0.595993 14.2798C0.595993 6.5711 7.07814 0.292023 14.7869 0.292023C19.0514 0.292023 22.0894 1.96536 24.372 4.14638L21.6752 6.84322C20.0384 5.30797 17.8208 4.11389 14.7828 4.11389C9.15357 4.11389 4.7509 8.65058 4.7509 14.2798C4.7509 19.9086 9.15357 24.4457 14.7828 24.4457C18.4341 24.4457 20.5136 22.9795 21.8457 21.6474C22.9261 20.5666 23.6369 19.0236 23.9171 16.9157L14.7828 16.9198Z" fill="white"/>
</g>
</svg>
