<svg width="96" height="37" viewBox="0 0 96 37" fill="none" xmlns="http://www.w3.org/2000/svg">
<mask id="mask0" mask-type="alpha" maskUnits="userSpaceOnUse" x="0" y="0" width="96" height="37">
<path d="M0.913 0.130005H95.653V36.619H0.913V0.130005Z" fill="white"/>
</mask>
<g mask="url(#mask0)">
<path fill-rule="evenodd" clip-rule="evenodd" d="M76.305 11.6252V0.130157H78.6621V10.0073C78.0221 10.3306 77.127 10.946 76.305 11.6252ZM72.2111 15.082C72.9333 14.2152 73.6805 13.3342 74.5667 12.5903V0.130157H72.2111V15.082ZM44.9054 24.2143C44.9054 27.2879 46.1272 30.2017 48.3448 32.4212C50.5643 34.6364 53.4791 35.8606 56.5507 35.8606C57.8519 35.8606 59.1885 35.5826 60.1338 35.1171V32.7605C59.0297 33.2228 57.6954 33.5021 56.5507 33.5021C51.5181 33.5021 47.2629 29.2493 47.2629 24.2143V22.0903C47.2629 17.0548 51.5181 12.803 56.5507 12.803C59.0529 12.803 61.3919 13.761 63.1374 15.5055C64.8805 17.2491 65.838 19.5877 65.838 22.0903V35.8606H68.197V21.6366C68.05 18.6311 66.7668 15.8193 64.5846 13.7166C62.3991 11.6063 59.5425 10.4436 56.5507 10.4436C53.4791 10.4436 50.5643 11.6663 48.3448 13.8858C46.1272 16.1024 44.9054 19.0181 44.9054 22.0903V24.2143ZM80.192 18.5748C81.2564 17.5133 82.6497 16.9003 84.0076 16.9003C86.9176 16.9003 89.2 19.1788 89.2 22.0903V24.2143C89.2 27.1243 86.9176 29.4072 84.0076 29.4072C82.5982 29.4072 81.2375 28.6325 80.1712 27.2326C79.2259 25.9952 78.6134 24.3207 78.5189 22.8163L76.609 25.1482C76.9838 26.9324 77.9163 28.642 79.234 29.8439C80.5938 31.0813 82.2891 31.7656 84.0076 31.7656C88.1725 31.7656 91.5575 28.3778 91.5575 24.2143V22.0903C91.5575 20.1194 90.7602 18.234 89.3125 16.7864C87.8624 15.3372 85.9795 14.5394 84.0076 14.5394C82.7608 14.5394 80.7786 14.9861 78.4163 17.1101L78.4078 17.1186C77.7754 17.751 76.2913 19.236 75.3881 20.2947C73.8695 21.9513 71.6623 24.4525 69.7822 26.9551V30.6384C71.8689 27.9576 73.0699 26.456 75.0313 24.1912C76.7876 22.1418 78.9617 19.651 80.192 18.5748ZM24.5097 14.1306V11.3416C22.3753 10.1968 20.0461 9.68593 16.9579 9.68593C13.8073 9.68593 10.8203 10.8425 8.54405 12.9372C6.26594 15.0395 5.00967 17.8049 5.00967 20.7229V21.4848C5.00967 27.5719 9.89249 32.5233 15.8959 32.5233C20.7797 32.5233 22.7841 30.9253 23.2946 30.42V23.3376H15.3236V25.696H21.0874V29.2441L21.0666 29.2512C20.325 29.5471 18.7851 30.1634 15.8959 30.1634C13.606 30.1634 11.4635 29.2729 9.86129 27.6513C8.25196 26.0245 7.3686 23.8329 7.3686 21.4848V20.7229C7.3686 16.0193 11.7603 12.0463 16.9579 12.0463C20.5538 12.0463 22.6801 12.6286 24.5097 14.1306ZM41.6858 16.9003C42.5805 16.9003 43.3391 17.0487 43.9427 17.3422C44.2362 16.6101 44.5372 16.0065 44.9768 15.2734C44.3349 14.8145 42.8079 14.5394 41.6858 14.5394C37.3815 14.5394 34.135 17.785 34.135 22.0903V35.8606H36.4939V22.0903C36.4939 19.0333 38.6293 16.9003 41.6858 16.9003ZM0.912858 20.7229V21.4848C0.912858 25.575 2.46452 29.3916 5.28333 32.2298C8.09505 35.0618 11.8643 36.6191 15.8959 36.6191C19.1377 36.6191 22.0085 35.8851 24.4313 34.4441C26.4291 33.253 27.3144 32.0492 27.3909 31.9391V19.2408H15.3236V21.6006H25.032V31.2065L25.0225 31.2141C23.8858 32.3531 21.1871 34.2583 15.8959 34.2583C12.4485 34.2583 9.25679 32.9439 6.90306 30.5528C4.56114 28.1726 3.27179 24.9516 3.27179 21.4848V20.7229C3.27179 17.4499 4.74831 14.1845 7.3204 11.7684C9.94731 9.30593 13.3692 7.94852 16.9579 7.94852C20.3051 7.94852 22.6367 8.4566 24.5097 9.59093V6.94369C22.5596 6.11421 20.2291 5.74177 16.9579 5.74177C8.26142 5.74177 0.912858 12.604 0.912858 20.7229ZM64.1016 35.8606V22.0903C64.1016 17.8564 60.7846 14.5394 56.5507 14.5394C54.5784 14.5394 52.6964 15.3372 51.2458 16.7864C49.7982 18.234 49.0003 20.1194 49.0003 22.0903V24.2143C49.0003 28.3059 52.4596 31.7656 56.5507 31.7656C57.6723 31.7656 59.1994 31.4896 60.1338 30.7225V28.2298C59.2159 28.9676 57.8826 29.4072 56.5507 29.4072C53.6402 29.4072 51.3593 27.1243 51.3593 24.2143V22.0903C51.3593 19.1788 53.6402 16.9003 56.5507 16.9003C59.4631 16.9003 61.7422 19.1788 61.7422 22.0903V35.8606H64.1016ZM41.6858 12.803C43.2885 12.803 44.6743 13.147 45.9249 13.8555C46.5129 13.1206 47.1065 12.5236 47.5489 12.0822C46.2255 11.0712 43.9847 10.4436 41.6858 10.4436C38.4095 10.4436 35.4343 11.6252 33.3102 13.7719C31.2013 15.8997 30.0367 18.8532 30.0367 22.0903V35.8606H32.3957V22.0903C32.3957 16.6219 36.216 12.803 41.6858 12.803ZM92.2145 13.8858C89.9936 11.6663 87.0798 10.4436 84.0076 10.4436C81.7612 10.4436 79.5039 11.2806 78.2632 12.1068C75.6944 13.8177 73.5831 15.6747 69.7822 20.5849V24.1151C73.007 19.9138 76.0588 16.6034 78.3752 14.7828C79.8976 13.5606 82.058 12.803 84.0076 12.803C89.0403 12.803 93.294 17.0548 93.294 22.0903V24.2143C93.294 26.7023 92.317 29.0399 90.5366 30.7991C88.7751 32.5422 86.454 33.5021 84.0076 33.5021C79.8716 33.5021 76.2313 30.663 75.2416 26.7859L73.5794 28.8017C74.7917 32.8636 79.1707 35.8606 84.0076 35.8606C87.0798 35.8606 89.9936 34.6364 92.2145 32.4212C94.4321 30.2017 95.6529 27.2879 95.6529 24.2143V22.0903C95.6529 19.0181 94.4321 16.1024 92.2145 13.8858Z" fill="white"/>
</g>
</svg>
