<svg width="126" height="28" viewBox="0 0 126 28" fill="none" xmlns="http://www.w3.org/2000/svg">
<path d="M125.403 12.8532V10.665H122.686V7.26337L122.594 7.29153L120.042 8.07241L119.992 8.0877V10.6652H115.964V9.2293C115.964 8.56071 116.113 8.04906 116.408 7.70785C116.7 7.37073 117.119 7.19934 117.653 7.19934C118.036 7.19934 118.434 7.28972 118.833 7.46798L118.934 7.51275V5.20837L118.886 5.19104C118.513 5.05696 118.006 4.98944 117.377 4.98944C116.585 4.98944 115.865 5.16191 115.237 5.50373C114.608 5.84603 114.114 6.33468 113.768 6.95597C113.423 7.57654 113.247 8.29327 113.247 9.08643V10.665H111.355V12.8532H113.247V22.0713H115.964V12.8532H119.992V18.7111C119.992 21.1237 121.13 22.3463 123.374 22.3463C123.743 22.3463 124.131 22.3031 124.527 22.2185C124.931 22.1316 125.206 22.0448 125.367 21.9521L125.403 21.9309V19.7226L125.293 19.7957C125.145 19.8939 124.962 19.9741 124.746 20.0338C124.53 20.0946 124.35 20.1251 124.21 20.1251C123.684 20.1251 123.295 19.9834 123.054 19.7038C122.81 19.4217 122.686 18.9284 122.686 18.2382V12.8532H125.403ZM105.29 20.1254C104.304 20.1254 103.527 19.7985 102.979 19.1546C102.428 18.5075 102.149 17.5848 102.149 16.4125C102.149 15.203 102.428 14.2564 102.979 13.5978C103.527 12.9435 104.297 12.6115 105.268 12.6115C106.209 12.6115 106.959 12.9286 107.496 13.5546C108.036 14.1838 108.31 15.1229 108.31 16.3464C108.31 17.585 108.052 18.5365 107.544 19.1729C107.04 19.8046 106.281 20.1254 105.29 20.1254ZM105.411 10.3903C103.53 10.3903 102.036 10.9414 100.971 12.0283C99.9062 13.1154 99.3665 14.6198 99.3665 16.5C99.3665 18.2859 99.8933 19.7224 100.932 20.7689C101.972 21.8157 103.386 22.346 105.136 22.346C106.959 22.346 108.423 21.7872 109.488 20.6852C110.552 19.5844 111.091 18.0943 111.091 16.258C111.091 14.4442 110.585 12.997 109.587 11.9575C108.588 10.9174 107.182 10.3903 105.411 10.3903ZM94.9873 10.3903C93.7079 10.3903 92.6496 10.7175 91.8411 11.3628C91.0277 12.0119 90.6151 12.8631 90.6151 13.8933C90.6151 14.4288 90.7042 14.9044 90.8794 15.3079C91.0558 15.7126 91.3286 16.069 91.6911 16.3681C92.0509 16.6648 92.6062 16.9755 93.3421 17.2917C93.9607 17.5463 94.4221 17.7616 94.7151 17.9313C95.0016 18.0976 95.2049 18.2648 95.3197 18.4277C95.4313 18.587 95.4878 18.8051 95.4878 19.0742C95.4878 19.8405 94.914 20.2134 93.7331 20.2134C93.2952 20.2134 92.7956 20.1219 92.2483 19.9416C91.7049 19.7641 91.192 19.504 90.7277 19.1706L90.6149 19.0898V21.7048L90.6563 21.724C91.0406 21.9014 91.5252 22.051 92.0963 22.1688C92.6663 22.2866 93.1842 22.3465 93.6341 22.3465C95.0224 22.3465 96.1404 22.0177 96.9562 21.3686C97.7772 20.7151 98.1933 19.8437 98.1933 18.7779C98.1933 18.0091 97.9693 17.3497 97.5278 16.818C97.0893 16.2906 96.3283 15.8064 95.2669 15.3784C94.4212 15.039 93.8795 14.7572 93.656 14.5409C93.4405 14.332 93.3311 14.0365 93.3311 13.6623C93.3311 13.3306 93.4662 13.0649 93.7434 12.8497C94.0227 12.6334 94.4116 12.5234 94.8993 12.5234C95.3518 12.5234 95.8149 12.5949 96.2753 12.735C96.7355 12.8751 97.1396 13.0627 97.477 13.2922L97.588 13.368V10.8875L97.5454 10.8692C97.2341 10.7357 96.8237 10.6215 96.3252 10.5288C95.8289 10.4367 95.3788 10.3903 94.9873 10.3903ZM83.5344 20.1254C82.5487 20.1254 81.7712 19.7985 81.2236 19.1546C80.6724 18.5075 80.3936 17.585 80.3936 16.4125C80.3936 15.203 80.6727 14.2564 81.2242 13.5978C81.7718 12.9435 82.5415 12.6115 83.5126 12.6115C84.454 12.6115 85.2037 12.9286 85.7409 13.5546C86.2807 14.1838 86.5545 15.1229 86.5545 16.3464C86.5545 17.585 86.2968 18.5365 85.7889 19.1729C85.2845 19.8046 84.5263 20.1254 83.5344 20.1254ZM83.6554 10.3903C81.7741 10.3903 80.2801 10.9414 79.2155 12.0283C78.1511 13.1154 77.6111 14.6198 77.6111 16.5C77.6111 18.2866 78.1382 19.7224 79.1774 20.7689C80.2166 21.8157 81.6307 22.346 83.3803 22.346C85.2032 22.346 86.6678 21.7872 87.7324 20.6852C88.7968 19.5844 89.3363 18.0943 89.3363 16.258C89.3363 14.4442 88.8301 12.997 87.8313 11.9575C86.8319 10.9174 85.4269 10.3903 83.6554 10.3903ZM73.4881 12.6404V10.665H70.805V22.071H73.4881V16.2364C73.4881 15.2443 73.713 14.4292 74.1569 13.8136C74.5951 13.2053 75.1791 12.8971 75.8921 12.8971C76.1338 12.8971 76.4051 12.9369 76.6989 13.0158C76.9896 13.0941 77.2003 13.1792 77.3245 13.2688L77.4373 13.3505V10.6455L77.3938 10.6269C77.1439 10.5207 76.7905 10.4672 76.3432 10.4672C75.669 10.4672 75.0656 10.6838 74.5488 11.1104C74.0952 11.4853 73.7673 11.9993 73.5166 12.6404H73.4881ZM66.0002 10.3903C64.7693 10.3903 63.6714 10.6542 62.7376 11.1745C61.8018 11.696 61.0781 12.4406 60.5857 13.3873C60.0955 14.3318 59.8466 15.435 59.8466 16.6653C59.8466 17.7429 60.0879 18.7319 60.5649 19.6036C61.0421 20.4766 61.7175 21.1597 62.5726 21.6334C63.4264 22.1065 64.4132 22.3464 65.5058 22.3464C66.7809 22.3464 67.8695 22.0915 68.7423 21.5887L68.7776 21.5685V19.1105L68.6648 19.1928C68.2695 19.4808 67.8276 19.7107 67.3522 19.8763C66.878 20.0418 66.4457 20.1254 66.0665 20.1254C65.0138 20.1254 64.1686 19.796 63.5552 19.1466C62.9404 18.4963 62.6286 17.5831 62.6286 16.4341C62.6286 15.2778 62.9537 14.3411 63.5944 13.65C64.2331 12.961 65.0799 12.6115 66.1108 12.6115C66.9927 12.6115 67.8521 12.9101 68.6651 13.4998L68.7776 13.5816V10.9916L68.7413 10.9711C68.4353 10.7998 68.018 10.6584 67.5 10.5512C66.9842 10.4442 66.4796 10.3903 66.0002 10.3903ZM57.9987 10.6652H55.3157V22.071H57.9987V10.6652ZM56.6846 5.80619C56.243 5.80619 55.8579 5.95652 55.5415 6.2544C55.2237 6.55313 55.0626 6.92925 55.0626 7.37313C55.0626 7.81003 55.2218 8.17929 55.5365 8.47008C55.8492 8.76002 56.2356 8.90698 56.6848 8.90698C57.1338 8.90698 57.5216 8.76002 57.838 8.47056C58.1565 8.17929 58.318 7.81015 58.318 7.37313C58.318 6.94478 58.1608 6.57251 57.8511 6.26644C57.5417 5.96097 57.1491 5.80619 56.6846 5.80619ZM49.9903 9.82362V22.071H52.7285V6.15535H48.9387L44.1218 17.977L39.4472 6.15535H35.5032V22.071L38.0763 22.0709V9.82242H38.1646L43.1009 22.071H45.0428L49.902 9.82362H49.9903Z" fill="white"/>
<path fill-rule="evenodd" clip-rule="evenodd" d="M13.605 13.459H0.983032V0.836975H13.605V13.459Z" fill="white"/>
<path fill-rule="evenodd" clip-rule="evenodd" d="M27.5411 13.459H14.9191V0.836975H27.5411V13.459Z" fill="white"/>
<path fill-rule="evenodd" clip-rule="evenodd" d="M13.605 27.399H0.983032V14.778H13.605V27.399Z" fill="white"/>
<path fill-rule="evenodd" clip-rule="evenodd" d="M27.5411 27.399H14.9191V14.778H27.5411V27.399Z" fill="white"/>
</svg>
