<svg width="121" height="36" viewBox="0 0 121 36" fill="none" xmlns="http://www.w3.org/2000/svg">
<path d="M41.3288 16.2716H39.811C37.8172 13.4553 35.8398 10.6566 33.8651 7.49372H33.8508V16.2716H32.173V4.03256H33.6921C35.6859 6.82914 37.6606 9.60801 39.6169 12.7546H39.6516V4.03256H41.3294V16.2716H41.3288ZM45.317 11.4275C45.8038 9.81842 46.2941 8.33263 46.7319 6.44373H46.7673C47.2563 8.33263 47.6941 9.8191 48.1483 11.4275H45.317ZM46.1191 4.03256L41.8905 16.2716H43.7086L44.7722 12.9309H48.4635L49.4243 16.2716H51.7688L47.8684 4.03256H46.1191ZM53.7428 16.2716V5.67428H50.5247V4.03256H59.0561V5.67428H55.8407V16.2716H53.7428ZM59.7363 4.03256H61.82V16.2716H59.7363V4.03256ZM68.2888 14.7306C66.101 14.7306 65.3322 12.3181 65.3322 9.97503C65.3322 7.72047 66.2058 5.56942 68.2888 5.56942C70.369 5.56942 71.2399 7.72047 71.2399 9.97503C71.2399 12.3181 70.4725 14.7306 68.2888 14.7306ZM68.2888 16.4786C71.4871 16.4786 73.4795 13.6303 73.4795 9.97435C73.4795 6.54859 71.2801 3.82147 68.2888 3.82147C65.3002 3.82147 63.0913 6.54859 63.0913 9.97435C63.0919 13.6309 65.0877 16.4786 68.2888 16.4786ZM83.9168 16.2716H82.397C80.4019 13.4553 78.4258 10.6566 76.4525 7.49372H76.4354V16.2716H74.7597V4.03256H76.2795C78.2705 6.82914 80.2466 9.60801 82.2015 12.7546H82.2376V4.03256H83.9175V16.2716H83.9168ZM87.903 11.4275C88.3939 9.81842 88.8808 8.33263 89.3207 6.44373H89.3554C89.845 8.33263 90.2808 9.8191 90.7343 11.4275H87.903ZM88.7092 4.03256L84.4786 16.2716H86.298L87.3616 12.9309H91.0523L92.0137 16.2716H94.3554L90.4558 4.03256H88.7092ZM94.9649 4.03256H97.0492V14.6271H101.191V16.2716H94.9649V4.03256ZM40.0391 26.5087V31.5598C38.919 31.999 37.7471 32.3116 36.5616 32.3116C32.9588 32.3116 30.6865 29.5143 30.6865 25.9122C30.6865 22.5715 32.9588 19.6531 36.6304 19.6531C37.7648 19.6531 38.9019 20.0746 39.6019 20.5982L38.9196 22.0493C38.3613 21.7027 37.4849 21.4051 36.6821 21.4051C34.4459 21.4051 32.9234 23.1714 32.9234 25.9517C32.9234 28.8517 34.6727 30.5636 36.4737 30.5636C37.0307 30.5636 37.5053 30.4969 37.9445 30.2674V26.5087H40.0391ZM47.5429 21.51H44.0423V24.8649H47.4687V26.5087H44.0423V30.4574H48.168V32.1032H41.943V19.8635H47.5429V21.51ZM54.0111 30.5629C51.8232 30.5629 51.0531 28.1524 51.0531 25.808C51.0531 23.5548 51.9274 21.4044 54.0111 21.4044C56.0899 21.4044 56.9622 23.5548 56.9622 25.808C56.9622 28.1524 56.1914 30.5629 54.0111 30.5629ZM54.0111 32.3116C57.2087 32.3116 59.2004 29.4619 59.2004 25.8073C59.2004 22.3816 56.999 19.6524 54.0111 19.6524C51.0177 19.6524 48.8176 22.3816 48.8176 25.8073C48.8169 29.4625 50.8066 32.3116 54.0111 32.3116ZM69.2693 26.5087V31.5598C68.1492 31.999 66.9807 32.3116 65.7905 32.3116C62.1904 32.3116 59.9161 29.5143 59.9161 25.9122C59.9161 22.5715 62.1904 19.6531 65.862 19.6531C66.9991 19.6531 68.1335 20.0746 68.8315 20.5982L68.1492 22.0493C67.5895 21.7027 66.7206 21.4051 65.9151 21.4051C63.6741 21.4051 62.1529 23.1714 62.1529 25.9517C62.1529 28.8517 63.9029 30.5636 65.704 30.5636C66.2651 30.5636 66.7349 30.4969 67.1734 30.2674V26.5087H69.2693ZM73.295 21.51H74.219C75.4569 21.51 76.1583 22.2236 76.1583 23.484C76.1583 25.1257 75.1635 25.8591 74.1659 25.9115C73.9555 25.9326 73.4652 25.9503 73.295 25.9653V21.51ZM78.6083 32.1032L76.1385 27.035C77.4847 26.3201 78.2583 24.8649 78.2583 23.3961C78.2583 21.0163 76.8045 19.8635 74.4614 19.8635H71.1923V32.1032H73.295V27.4878H74.2381L76.21 32.1032H78.6083ZM82.0688 27.2597C82.557 25.6487 83.0466 24.1642 83.4851 22.276H83.5198C84.0094 24.1642 84.4452 25.6487 84.9001 27.2597H82.0688ZM82.8716 19.8635L78.6396 32.1032H80.4577L81.5254 28.7625H85.216L86.172 32.1032H88.5192L84.6182 19.8635H82.8716ZM92.4516 19.8635H89.1824V32.1032H91.2811V27.4878H92.2228C94.7245 27.4878 96.2471 25.4594 96.2471 23.3961C96.2471 21.0156 94.7946 19.8635 92.4516 19.8635ZM92.1574 25.9122C91.9395 25.9319 91.4275 25.9483 91.2811 25.9626V21.51H92.2228C93.4464 21.51 94.1484 22.2236 94.1484 23.484C94.1484 25.1257 93.155 25.8597 92.1574 25.9122ZM105.966 32.1032H103.869V26.2131H99.5121V32.1032H97.4373V19.8635H99.5121V24.5667H103.869V19.8982H105.966V32.1032ZM107.975 19.8635H110.06V32.1032H107.975V19.8635ZM119.497 22.0854C118.989 21.7701 118.153 21.4044 117.345 21.4044C115.209 21.4044 113.658 23.1708 113.658 25.951C113.658 28.8511 115.37 30.5629 117.399 30.5629C118.142 30.5594 118.869 30.3471 119.497 29.9501L120.076 31.4726C119.442 31.9091 118.327 32.3116 117.314 32.3116C113.712 32.3116 111.437 29.5143 111.437 25.9122C111.437 22.5715 113.692 19.6531 117.345 19.6531C118.432 19.6531 119.442 20.1107 120.163 20.5982L119.497 22.0854Z" fill="white"/>
<path fill-rule="evenodd" clip-rule="evenodd" d="M0.491394 0.497192H25.0294V35.6563H0.491394V0.497192ZM4.02814 32.1168H21.4804V4.03802H4.02814V32.1168Z" fill="white"/>
</svg>
