<svg width="150" height="38" viewBox="0 0 150 38" fill="none" xmlns="http://www.w3.org/2000/svg">
<path fill-rule="evenodd" clip-rule="evenodd" d="M81.8049 13.1279L81.7756 13.1248L81.8049 13.1279Z" fill="white"/>
<path fill-rule="evenodd" clip-rule="evenodd" d="M67.2671 16.0741C67.0959 15.8587 66.8183 15.7517 66.4324 15.7517H65.4926V18.6241H66.3845C66.781 18.6241 67.0685 18.5127 67.2503 18.2924C67.432 18.0733 67.5229 17.7017 67.5229 17.172C67.5229 16.6548 67.437 16.2876 67.2671 16.0741ZM69.982 18.8457C69.7953 19.3249 69.5345 19.7139 69.1984 20.0108C68.8623 20.3071 68.4646 20.5249 68.0021 20.6619C67.5403 20.7988 67.033 20.8697 66.4841 20.8697H65.4926V25.061H62.787V13.5067H66.6814C67.1992 13.5067 67.6741 13.5695 68.1092 13.6965C68.5442 13.8241 68.9202 14.0276 69.2395 14.3077C69.5582 14.5878 69.8096 14.9575 69.9895 15.4131C70.1718 15.8693 70.2627 16.4332 70.2627 17.1061C70.2627 17.7888 70.1694 18.3689 69.982 18.8457ZM77.7228 17.559C77.6655 17.094 77.5833 16.7243 77.475 16.4486C77.3642 16.1729 77.2267 15.9756 77.0624 15.8604C76.8968 15.7447 76.7101 15.6862 76.5004 15.6862C76.2806 15.6862 76.0902 15.7409 75.9302 15.8523C75.7721 15.9631 75.6364 16.153 75.5263 16.4237C75.4174 16.6938 75.3383 17.0629 75.2854 17.5266C75.2369 17.9903 75.2145 18.571 75.2145 19.2681C75.2145 19.964 75.2412 20.5447 75.2954 21.0071C75.3501 21.4727 75.4342 21.8418 75.5431 22.1194C75.6533 22.3963 75.7889 22.593 75.9464 22.7081C76.1076 22.8239 76.2962 22.8818 76.5172 22.8818C76.7257 22.8818 76.913 22.8258 77.0786 22.7156C77.2435 22.6061 77.3779 22.415 77.4831 22.1442C77.5871 21.8735 77.6655 21.5069 77.7228 21.0432C77.7769 20.5783 77.8049 19.9969 77.8049 19.3005C77.8049 18.604 77.7769 18.0252 77.7228 17.559ZM80.3618 21.9252C80.1763 22.6714 79.9037 23.2926 79.5452 23.7812C79.1879 24.271 78.751 24.6364 78.2331 24.8791C77.7159 25.1187 77.134 25.2426 76.4842 25.2426C75.1865 25.2426 74.1757 24.7615 73.4555 23.7967C72.7348 22.8339 72.375 21.3357 72.375 19.3005C72.375 17.2664 72.7404 15.7596 73.4711 14.7874C74.203 13.8127 75.2182 13.326 76.5172 13.326C77.8161 13.326 78.8281 13.8108 79.5533 14.7806C80.2796 15.7478 80.6425 17.2434 80.6425 19.2681C80.6425 20.2913 80.5485 21.1764 80.3618 21.9252ZM89.9521 23.2859C89.7654 23.7103 89.5034 24.0645 89.1679 24.352C88.8318 24.6359 88.4347 24.8581 87.9816 25.0112C87.5222 25.1655 87.0243 25.2427 86.4853 25.2427C86.0353 25.2427 85.6276 25.1948 85.2635 25.1101C84.9032 25.0218 84.5683 24.8904 84.2658 24.7143C83.9627 24.5388 83.6857 24.3253 83.4318 24.0769C83.1791 23.8298 82.9314 23.5473 82.6899 23.2286L84.5727 21.5288C84.9561 21.99 85.3083 22.3404 85.6276 22.5769C85.9457 22.8141 86.2475 22.9317 86.5345 22.9317C86.8214 22.9317 87.0592 22.8583 87.2453 22.7083C87.432 22.5601 87.5254 22.3267 87.5254 22.0074C87.5254 21.8419 87.5085 21.6937 87.4756 21.5612C87.4438 21.4305 87.3741 21.3004 87.2695 21.1734C87.165 21.0483 87.0168 20.9195 86.8233 20.7944C86.6309 20.6674 86.3702 20.5323 86.0403 20.3892C85.4677 20.139 84.9816 19.8875 84.5807 19.6379C84.1787 19.3908 83.8519 19.1257 83.6073 18.8381C83.3583 18.5531 83.1791 18.2357 83.0683 17.8908C82.9606 17.5429 82.9058 17.1446 82.9058 16.6927C82.9058 16.2197 82.9874 15.779 83.1517 15.372C83.3179 14.9649 83.5531 14.6108 83.8619 14.3076C84.1687 14.0045 84.5459 13.7662 84.9922 13.5906C85.4378 13.4139 85.9351 13.3261 86.4853 13.3261C86.9253 13.3261 87.3193 13.3653 87.6654 13.4413C88.0121 13.5184 88.327 13.6361 88.6052 13.7979C88.8872 13.956 89.1492 14.1483 89.3926 14.3755C89.6316 14.5996 89.8749 14.8603 90.1164 15.1579L88.2013 16.8732C88.0052 16.6442 87.8341 16.4487 87.6915 16.2875C87.5471 16.1294 87.4102 15.9993 87.2776 15.9004C87.1469 15.802 87.0106 15.7336 86.8749 15.6937C86.7368 15.6564 86.5787 15.6365 86.4038 15.6365C86.1386 15.6365 85.9351 15.7186 85.7919 15.8842C85.6513 16.0491 85.5785 16.2415 85.5785 16.4606C85.5785 16.6162 85.5996 16.7525 85.6451 16.8732C85.6886 16.9964 85.7646 17.1135 85.8741 17.2298C85.9843 17.3437 86.133 17.457 86.3222 17.5684C86.5077 17.678 86.7498 17.7981 87.0467 17.9319C87.6299 18.1846 88.121 18.4392 88.5237 18.6987C88.9264 18.9564 89.2525 19.2402 89.5058 19.5489C89.7598 19.857 89.9422 20.1937 90.0604 20.5628C90.1743 20.9307 90.2334 21.3589 90.2334 21.8419C90.2334 22.3809 90.1395 22.8626 89.9521 23.2859Z" fill="white"/>
<path fill-rule="evenodd" clip-rule="evenodd" d="M97.261 15.917V25.061H94.508V15.917H92.164V13.507H99.606V15.917H97.261Z" fill="white"/>
<path fill-rule="evenodd" clip-rule="evenodd" d="M108.831 25.061V22.5035C108.831 21.8749 108.837 21.2824 108.848 20.7284C108.859 20.1726 108.877 19.6467 108.899 19.1513C108.831 19.3822 108.757 19.638 108.676 19.9199C108.591 20.1994 108.502 20.4919 108.403 20.7944C108.304 21.0975 108.201 21.3957 108.097 21.6938C107.993 21.99 107.895 22.2708 107.808 22.5353L106.719 25.4232L105.629 22.5353C105.542 22.2826 105.447 22.0044 105.342 21.7019C105.237 21.3988 105.136 21.0975 105.035 20.7944C104.937 20.4919 104.848 20.1994 104.763 19.9199C104.681 19.638 104.607 19.3822 104.542 19.1513C104.562 19.6361 104.579 20.1589 104.59 20.7197C104.602 21.2811 104.607 21.8749 104.607 22.5035V25.061H102.1V13.5073H104.607L105.629 16.3473C105.885 17.0394 106.108 17.7017 106.308 18.3359C106.507 18.9689 106.643 19.4867 106.719 19.8957C106.806 19.4867 106.951 18.9701 107.149 18.344C107.347 17.7166 107.573 17.0438 107.824 16.3293L108.831 13.5073H111.324V25.061H108.831ZM118.701 20.2911C118.569 19.5305 118.446 18.8359 118.329 18.2036C118.214 17.5706 118.129 16.9899 118.074 16.4608C118.019 16.9899 117.938 17.5706 117.836 18.2036C117.73 18.8359 117.605 19.5386 117.463 20.3067L117.397 20.6696H118.766L118.701 20.2911ZM119.658 25.0613L119.228 22.9146H116.95L116.539 25.0613H113.7L116.688 13.5069H119.527L122.498 25.0613H119.658Z" fill="white"/>
<path fill-rule="evenodd" clip-rule="evenodd" d="M128.439 15.917V25.061H125.681V15.917H123.338V13.507H130.782V15.917H128.439Z" fill="white"/>
<path fill-rule="evenodd" clip-rule="evenodd" d="M133.274 25.061V13.507H140.042V15.867H136.012V17.832H138.638V20.191H136.012V22.7H140.156V25.061H133.274Z" fill="white"/>
<path fill-rule="evenodd" clip-rule="evenodd" d="M149.596 23.2859C149.408 23.7103 149.148 24.0645 148.812 24.352C148.476 24.6359 148.081 24.8581 147.624 25.0112C147.167 25.1655 146.669 25.2427 146.131 25.2427C145.678 25.2427 145.274 25.1948 144.911 25.1101C144.546 25.0218 144.214 24.8904 143.909 24.7143C143.609 24.5388 143.33 24.3253 143.076 24.0769C142.826 23.8298 142.576 23.5473 142.335 23.2286L144.215 21.5288C144.6 21.99 144.954 22.3404 145.274 22.5769C145.59 22.8141 145.894 22.9317 146.179 22.9317C146.468 22.9317 146.702 22.8583 146.891 22.7083C147.076 22.5601 147.171 22.3267 147.171 22.0074C147.171 21.8419 147.154 21.6937 147.121 21.5612C147.087 21.4305 147.019 21.3004 146.915 21.1734C146.809 21.0483 146.66 20.9195 146.47 20.7944C146.276 20.6674 146.014 20.5323 145.686 20.3892C145.113 20.139 144.626 19.8875 144.225 19.6379C143.823 19.3908 143.498 19.1257 143.251 18.8381C143.004 18.5531 142.826 18.2357 142.715 17.8908C142.604 17.5429 142.549 17.1446 142.549 16.6927C142.549 16.2197 142.632 15.779 142.796 15.372C142.961 14.9649 143.2 14.6108 143.506 14.3076C143.815 14.0045 144.191 13.7662 144.637 13.5906C145.082 13.4139 145.58 13.3261 146.131 13.3261C146.571 13.3261 146.965 13.3653 147.311 13.4413C147.659 13.5184 147.971 13.6361 148.252 13.7979C148.531 13.956 148.794 14.1483 149.035 14.3755C149.276 14.5996 149.52 14.8603 149.763 15.1579L147.846 16.8732C147.648 16.6442 147.48 16.4487 147.335 16.2875C147.192 16.1294 147.055 15.9993 146.923 15.9004C146.79 15.802 146.654 15.7336 146.519 15.6937C146.381 15.6564 146.225 15.6365 146.048 15.6365C145.785 15.6365 145.58 15.7186 145.436 15.8842C145.293 16.0491 145.223 16.2415 145.223 16.4606C145.223 16.6162 145.245 16.7525 145.289 16.8732C145.333 16.9964 145.409 17.1135 145.52 17.2298C145.63 17.3437 145.78 17.457 145.964 17.5684C146.154 17.678 146.393 17.7981 146.692 17.9319C147.275 18.1846 147.768 18.4392 148.168 18.6987C148.57 18.9564 148.898 19.2402 149.151 19.5489C149.403 19.857 149.589 20.1937 149.703 20.5628C149.82 20.9307 149.876 21.3589 149.876 21.8419C149.876 22.3809 149.784 22.8626 149.596 23.2859Z" fill="white"/>
<mask id="mask0" mask-type="alpha" maskUnits="userSpaceOnUse" x="0" y="0" width="53" height="38">
<path d="M0.237976 0.552979H52.022V37.726H0.237976V0.552979Z" fill="white"/>
</mask>
<g mask="url(#mask0)">
<path fill-rule="evenodd" clip-rule="evenodd" d="M34.8308 8.40831C35.2167 8.38964 36.088 8.3635 37.0627 8.42014L41.2185 4.69503L39.3924 4.51142L34.8096 8.40582L34.8127 8.40955C34.8183 8.40893 34.8252 8.40831 34.8308 8.40831ZM4.60982 27.5361L3.26044 25.1342L2.93866 27.8716L0.238037 28.4125L2.74198 29.5608L2.42144 32.2975L4.29053 30.271L6.79385 31.4224L5.44447 29.0199L7.31044 26.9952L4.60982 27.5361ZM13.6372 31.6913L12.2891 29.2888L11.9692 32.0255L9.26791 32.5658L11.7719 33.7172L11.4513 36.454L13.3185 34.4262L15.8219 35.5782L14.4725 33.1745L16.3397 31.1504L13.6372 31.6913ZM14.8478 20.099L13.4972 17.6971L13.1772 20.4338L10.476 20.9753L12.9806 22.1268L12.66 24.8629L14.5266 22.8351L17.0306 23.9865L15.6806 21.5847L17.549 19.5575L14.8478 20.099ZM48.3339 23.5577C47.6909 24.0195 46.9777 24.3301 46.2084 24.4838C44.0922 24.9089 41.9131 24.0513 40.6528 22.2992C39.2735 20.3772 39.319 17.8645 40.5694 16.0091L45.0034 19.3029C45.0918 19.3689 45.2013 19.3957 45.3021 19.3826C45.4123 19.3708 45.52 19.3147 45.5909 19.2201C45.731 19.0347 45.6943 18.7714 45.5094 18.6326L41.2005 15.2374C41.4177 15.0152 41.6511 14.8048 41.9131 14.6187C42.5542 14.1556 43.2706 13.8444 44.0399 13.6901C46.1536 13.2656 48.3339 14.1251 49.5949 15.8766C51.3644 18.3407 50.7999 21.7857 48.3339 23.5577ZM33.6563 15.6214C32.3393 14.6716 29.6156 15.1297 27.8424 15.4253C28.4455 14.1581 29.5092 12.8448 29.8646 11.3162C30.0544 12.2809 33.2393 13.3764 33.2393 13.3764C33.2393 13.3764 34.6864 13.0558 35.9368 12.5654C35.9505 12.5778 35.9654 12.5909 35.9791 12.6008L36.4559 12.9556L33.6563 15.6214ZM35.5739 20.4911L34.3291 17.6218C34.3696 17.1662 34.3441 16.7567 34.242 16.4156L36.4123 14.3479L35.5739 20.4911ZM35.0548 24.2797C34.8277 24.2865 34.5992 24.3494 34.3876 24.4602C34.2694 24.3214 34.0864 24.1826 33.7546 23.9691C33.5044 23.8079 32.3667 23.1264 32.4096 22.9832C32.5746 22.489 32.9461 21.7515 33.4826 20.7077C34.0453 21.3282 34.6117 22.3863 35.1694 23.4525L35.0548 24.2797ZM33.319 26.6815C32.1936 25.1853 30.5237 24.2342 28.72 23.989L28.9036 22.0135L30.4677 23.1183C30.2959 23.7463 30.3694 24.0786 30.8804 24.284L33.6152 25.3434L33.6302 25.3546C33.5163 25.7075 33.5268 26.0959 33.6806 26.4475L33.319 26.6815ZM31.0142 35.2932C30.3725 35.7569 29.6567 36.0681 28.8887 36.2243C26.775 36.6475 24.5941 35.7886 23.3349 34.0371C21.5642 31.5718 22.1306 28.1262 24.5941 26.3554C25.237 25.8942 25.9528 25.5824 26.7196 25.428C27.0165 25.3683 27.3146 25.3365 27.6115 25.3266L27.0899 30.9239C27.0731 31.11 27.1646 31.2905 27.3227 31.3869C27.4304 31.4529 27.5555 31.4728 27.6731 31.4492C27.7322 31.4374 27.7895 31.4149 27.8411 31.3807L32.6704 28.2662C33.9289 30.6562 33.2692 33.6749 31.0142 35.2932ZM28.5893 25.3807C29.9754 25.583 31.2557 26.3081 32.1407 27.4427L28.158 30.0139L28.5893 25.3807ZM32.076 18.4764C31.575 20.211 31.0764 21.4309 30.749 22.2905L29.2104 21.2031L32.076 18.4764ZM26.0667 18.9811C26.2721 18.9786 26.4874 18.9631 26.7246 18.9183C28.5762 18.7347 29.8708 18.5448 30.7322 18.4042L28.3963 20.628L26.0667 18.9811ZM32.7501 10.6135C33.7721 10.7037 34.8208 10.6185 35.7463 10.4766L36.0837 11.221C35.3561 11.2664 34.608 11.3448 33.9308 11.4569C33.3918 11.5459 31.9945 10.161 32.7501 10.6135ZM50.7289 15.0612C49.1505 12.8647 46.4169 11.7892 43.7642 12.3208C42.8001 12.5131 41.9013 12.904 41.0965 13.4828C40.7281 13.7486 40.3938 14.0448 40.0938 14.3647L38.0853 12.7832C38.6704 12.5647 40.4941 11.8315 39.7385 11.4345C39.5368 11.3262 39.1241 11.254 38.5901 11.2141L40.0148 9.97491L40.326 9.70478L42.9949 7.38258L41.7532 4.96516L37.6627 8.63424C37.6627 8.63424 37.659 8.62864 37.2619 8.99275C37.2575 8.99213 37.2538 8.9915 37.2507 8.9915L37.2538 9.00022L37.2507 9.00209L37.2482 8.99897C36.3799 8.94296 35.5652 9.01702 35.1152 9.08113L35.114 9.07926C34.1965 9.24358 33.421 9.36121 33.0519 9.28901C31.7094 9.02885 31.392 7.60043 30.7833 6.77013C30.4372 6.29897 29.7426 6.2442 29.6828 5.84026C29.8758 5.80478 30.0575 5.75001 30.2194 5.67221C30.9557 5.32117 31.2121 4.99005 31.4119 4.54441C31.6652 3.9774 31.3945 3.04503 31.016 2.27262C31.3204 2.05167 32.4619 1.16101 32.4177 1.00914C32.4028 0.952501 30.9818 1.14918 30.3849 1.26433C30.2972 1.15914 30.2156 1.07636 30.1453 1.02408C29.658 0.666193 29.2602 0.302708 28.1119 0.783206C26.1494 1.60167 26.2515 3.13217 26.9026 4.49586C27.2019 5.1276 27.7272 5.5247 28.2999 5.72449C28.2569 5.80478 28.2351 5.85022 28.2133 5.8913L28.2675 5.75499C25.1685 8.55084 17.9337 13.2581 16.0285 13.3515C17.605 13.9664 22.1474 14.051 24.0507 12.9145C23.5167 15.088 23.4837 17.2328 24.4017 18.2959C23.6965 18.8187 22.9689 19.382 22.6179 19.7237C22.3428 19.9913 22.4256 20.1288 22.6627 20.432C22.6627 20.432 24.505 20.4668 25.0509 19.9477C25.1972 19.8077 25.3248 19.682 25.4405 19.5649L27.9831 21.3612L27.7428 23.928C27.3115 23.9305 26.8783 23.971 26.4445 24.0581C25.481 24.251 24.5828 24.6425 23.7781 25.2208C20.6885 27.4421 19.9808 31.7604 22.199 34.8519C23.7781 37.0484 26.5111 38.1226 29.165 37.593C30.1291 37.3994 31.0266 37.0085 31.8302 36.4297C34.692 34.3732 35.5061 30.5181 33.8486 27.5044L34.3534 27.1795C34.86 27.4583 35.5011 27.4446 36.0034 27.0855C36.51 26.7201 36.7266 26.1083 36.6165 25.5338C37.3055 25.3347 38.0287 25.1006 38.8366 24.8623C39.6737 24.6139 39.797 24.3631 39.5903 23.9498C39.309 23.3859 37.1866 23.895 36.9127 23.5757L36.3252 22.222L37.4866 13.7206L39.4472 15.1757C37.8438 17.5073 37.7766 20.6884 39.5181 23.1145C41.0965 25.311 43.832 26.3859 46.4835 25.855C47.4476 25.6614 48.3457 25.2705 49.1486 24.6923C52.2407 22.4722 52.9478 18.1508 50.7289 15.0612Z" fill="white"/>
</g>
</svg>
