<svg width="91" height="64" viewBox="0 0 91 64" fill="none" xmlns="http://www.w3.org/2000/svg">
<path fill-rule="evenodd" clip-rule="evenodd" d="M37.6901 7.77869C40.5922 4.75505 44.6331 2.87946 49.1027 2.87946C55.0444 2.87946 60.2268 6.19147 62.9874 11.1095C65.3868 10.038 68.0415 9.44141 70.8352 9.44141C81.5506 9.44141 90.2383 18.2045 90.2383 29.014C90.2383 39.8247 81.5506 48.5878 70.8352 48.5878C69.5269 48.5878 68.2492 48.4556 67.0126 48.2069C64.5825 52.5414 59.9505 55.4713 54.6331 55.4713C52.4083 55.4713 50.3037 54.958 48.4281 54.0427C45.9652 59.8389 40.223 63.9037 33.5327 63.9037C26.5645 63.9037 20.6255 59.4949 18.3464 53.3112C17.3505 53.5215 16.3174 53.6328 15.2592 53.6328C6.96309 53.6328 0.238281 46.8379 0.238281 38.4556C0.238281 32.8366 3.25809 27.932 7.74884 25.3077C6.82425 23.1794 6.31097 20.8329 6.31097 18.3647C6.31097 8.72448 14.1376 0.908569 23.7908 0.908569C29.4588 0.908569 34.4957 3.603 37.6901 7.77869ZM13.2731 33.576C13.2162 33.7241 13.293 33.7546 13.3115 33.7798C13.4809 33.9027 13.6514 33.9913 13.8248 34.0906C14.7427 34.5773 15.6104 34.7188 16.5166 34.7188C18.363 34.7188 19.5098 33.7374 19.5098 32.1567V32.1262C19.5098 30.6646 18.2148 30.1329 17.002 29.7495L16.8431 29.699C15.9278 29.4015 15.1382 29.1448 15.1382 28.5417V28.5112C15.1382 27.9954 15.5999 27.6157 16.3154 27.6157C17.1104 27.6157 18.0535 27.8803 18.6606 28.2163C18.6606 28.2163 18.8405 28.3314 18.9055 28.1582C18.941 28.0641 19.2479 27.2375 19.281 27.1475C19.3153 27.051 19.2546 26.9781 19.191 26.9398C18.4965 26.5179 17.5377 26.2295 16.5457 26.2295L16.3618 26.2309C14.6712 26.2309 13.4913 27.252 13.4913 28.7148V28.7454C13.4913 30.2863 14.793 30.7877 16.0126 31.1356L16.2084 31.1964C17.0972 31.4688 17.863 31.7044 17.863 32.3287V32.3604C17.863 32.9317 17.3643 33.3578 16.5628 33.3578C16.2506 33.3578 15.2572 33.3526 14.1844 32.674C14.0549 32.5971 13.9808 32.543 13.8802 32.4821C13.8274 32.449 13.6952 32.3922 13.6368 32.5654L13.2731 33.576ZM40.2999 33.576C40.243 33.7241 40.3198 33.7546 40.3384 33.7798C40.5077 33.9027 40.6782 33.9913 40.8516 34.0906C41.7695 34.5773 42.6372 34.7188 43.5435 34.7188C45.39 34.7188 46.5367 33.7374 46.5367 32.1567V32.1262C46.5367 30.6646 45.2418 30.1329 44.0288 29.7495L43.87 29.699C42.9547 29.4015 42.165 29.1448 42.165 28.5417V28.5112C42.165 27.9954 42.6267 27.6157 43.3424 27.6157C44.1372 27.6157 45.0804 27.8803 45.6875 28.2163C45.6875 28.2163 45.8675 28.3314 45.9323 28.1582C45.968 28.0641 46.2748 27.2375 46.3079 27.1475C46.3422 27.051 46.2815 26.9781 46.2179 26.9398C45.5236 26.5179 44.5659 26.2295 43.5725 26.2295L43.3885 26.2309C41.698 26.2309 40.5182 27.252 40.5182 28.7148V28.7454C40.5182 30.2863 41.8212 30.7877 43.0394 31.1356L43.2352 31.1964C44.1241 31.4688 44.8912 31.7044 44.8912 32.3287V32.3604C44.8912 32.9317 44.3925 33.3578 43.5896 33.3578C43.2774 33.3578 42.2854 33.3526 41.2114 32.674C41.0817 32.5971 41.005 32.5456 40.9071 32.4821C40.874 32.4609 40.7179 32.4001 40.665 32.5654L40.2999 33.576ZM58.7506 30.4792C58.7506 31.3722 58.5838 32.0772 58.2559 32.5745C57.9303 33.0665 57.4397 33.3073 56.7559 33.3073C56.0706 33.3073 55.5827 33.0665 55.2626 32.5745C54.9384 32.0772 54.7743 31.3722 54.7743 30.4792C54.7743 29.5878 54.9384 28.884 55.2611 28.3922C55.5826 27.9053 56.0706 27.6683 56.7559 27.6683C57.4397 27.6683 57.9303 27.9053 58.2559 28.3922C58.5838 28.884 58.7506 29.5878 58.7506 30.4792ZM60.2915 28.8232C60.1407 28.3114 59.9041 27.8603 59.5905 27.4847C59.277 27.1077 58.8787 26.8047 58.4066 26.5851C57.9357 26.3656 57.3801 26.2531 56.7559 26.2531C56.1302 26.2531 55.5734 26.3656 55.1025 26.5851C54.6317 26.8047 54.2334 27.1077 53.9199 27.4859C53.6051 27.8617 53.3695 28.3128 53.2188 28.8232C53.068 29.3325 52.9913 29.8893 52.9913 30.4792C52.9913 31.0692 53.068 31.6275 53.2188 32.1353C53.3695 32.6459 53.6051 33.097 53.9199 33.4741C54.2334 33.8509 54.6328 34.1526 55.1036 34.3668C55.5745 34.5811 56.1302 34.6897 56.7559 34.6897C57.3801 34.6897 57.9343 34.5811 58.4066 34.3668C58.8775 34.1526 59.2758 33.8509 59.5905 33.4741C59.9041 33.0985 60.1407 32.6474 60.2915 32.1353C60.4423 31.6261 60.519 31.0692 60.519 30.4792C60.519 29.8893 60.4423 29.3325 60.2915 28.8232ZM72.9464 33.0677C72.8962 32.9182 72.7491 32.9751 72.7491 32.9751C72.5257 33.0611 72.2877 33.1392 72.0323 33.1788C71.7758 33.2199 71.4926 33.2397 71.1885 33.2397C70.4437 33.2397 69.8499 33.0175 69.4253 32.5795C69.0006 32.1403 68.7612 31.4315 68.7638 30.4724C68.7664 29.6009 68.9768 28.9448 69.3552 28.4434C69.7308 27.9461 70.3036 27.6908 71.0656 27.6908C71.7003 27.6908 72.1859 27.7649 72.6937 27.9237C72.6937 27.9237 72.8154 27.9763 72.8723 27.8177C73.0086 27.4421 73.1076 27.1763 73.252 26.765C73.2929 26.6471 73.1924 26.5983 73.1553 26.5837C72.9557 26.5056 72.4848 26.3772 72.1276 26.3229C71.7955 26.2729 71.4054 26.2463 70.9714 26.2463C70.3248 26.2463 69.7479 26.3575 69.2546 26.5771C68.7612 26.7953 68.3446 27.0982 68.0126 27.4752C67.6818 27.852 67.4305 28.3031 67.2638 28.8138C67.0959 29.323 67.0126 29.8812 67.0126 30.4738C67.0126 31.7516 67.3564 32.7846 68.0376 33.54C68.7202 34.3005 69.744 34.6854 71.0801 34.6854C71.8696 34.6854 72.6792 34.5254 73.2625 34.2965C73.2625 34.2965 73.3736 34.2422 73.3246 34.1126L72.9464 33.0677ZM75.6428 29.6233C75.7169 29.1272 75.8532 28.7146 76.0647 28.3931C76.3836 27.9051 76.8702 27.6353 77.5554 27.6353C78.2406 27.6353 78.6917 27.9051 79.0171 28.3931C79.2326 28.7159 79.3265 29.1443 79.3636 29.6247L75.6428 29.6233ZM80.8306 28.5334C80.6996 28.0385 80.3753 27.54 80.1638 27.3126C79.8278 26.9501 79.4985 26.6973 79.1731 26.5571C78.7484 26.3746 78.2379 26.2543 77.6785 26.2543C77.0276 26.2543 76.4364 26.3641 75.9563 26.589C75.4761 26.8138 75.0727 27.122 74.7552 27.5057C74.4392 27.8879 74.201 28.3429 74.0488 28.8602C73.8968 29.3732 73.8201 29.9327 73.8201 30.524C73.8201 31.1259 73.8995 31.6868 74.0569 32.1894C74.2155 32.6986 74.4694 33.1445 74.8121 33.5162C75.1561 33.8892 75.5965 34.1801 76.1243 34.3851C76.6494 34.5876 77.287 34.6933 78.0184 34.6907C79.5249 34.6866 80.3187 34.3508 80.6453 34.1696C80.7036 34.1365 80.7577 34.081 80.6903 33.9195L80.3478 32.9644C80.2961 32.8229 80.152 32.8746 80.152 32.8746C79.7776 33.0134 79.2486 33.2621 78.0104 33.2595C77.201 33.2583 76.6018 33.0201 76.2262 32.6458C75.8413 32.2647 75.6507 31.704 75.619 30.9116L80.8346 30.9156C80.8346 30.9156 80.972 30.9142 80.9866 30.7794C80.9918 30.7239 81.1652 29.7078 80.8306 28.5334ZM33.8646 29.6233C33.9387 29.1272 34.0748 28.7146 34.2852 28.3931C34.6067 27.9051 35.0921 27.6353 35.7773 27.6353C36.4626 27.6353 36.9149 27.9051 37.2402 28.3931C37.4546 28.7159 37.5484 29.1443 37.5856 29.6247L33.8646 29.6233ZM39.0525 28.5334C38.9215 28.0385 38.5974 27.54 38.3859 27.3126C38.0498 26.9501 37.7218 26.6973 37.395 26.5571C36.9691 26.3746 36.4599 26.2543 35.9016 26.2543C35.2495 26.2543 34.6584 26.3641 34.1782 26.589C33.6981 26.8138 33.2947 27.122 32.9772 27.5057C32.6611 27.8879 32.4229 28.3429 32.2708 28.8602C32.1186 29.3732 32.0419 29.9327 32.0419 30.524C32.0419 31.1259 32.1214 31.6868 32.2788 32.1894C32.4374 32.6986 32.6913 33.1445 33.0341 33.5162C33.378 33.8892 33.8184 34.1801 34.3462 34.3851C34.8714 34.5876 35.5089 34.6933 36.2404 34.6907C37.7468 34.6866 38.5404 34.3508 38.8672 34.1696C38.9255 34.1365 38.9796 34.081 38.9122 33.9195L38.5697 32.9644C38.518 32.8229 38.3739 32.8746 38.3739 32.8746C37.9995 33.0134 37.4705 33.2621 36.2323 33.2595C35.4242 33.2583 34.8237 33.0201 34.4479 32.6458C34.063 32.2647 33.8727 31.704 33.8408 30.9116L39.0563 30.9156C39.0563 30.9156 39.194 30.9142 39.2085 30.7794C39.2137 30.7239 39.3871 29.7078 39.0525 28.5334ZM22.5891 33.0391C22.3843 32.8764 22.3564 32.8354 22.2889 32.7297C22.1844 32.5696 22.1315 32.3422 22.1315 32.0511C22.1315 31.5934 22.2835 31.2628 22.5972 31.042C22.5945 31.042 23.0468 30.6504 24.1102 30.665C24.8576 30.6743 25.527 30.7852 25.527 30.7852V33.157C25.527 33.157 24.8643 33.2984 24.1182 33.3434C23.0573 33.4082 22.5853 33.0379 22.5891 33.0391ZM24.6646 29.3738C24.4528 29.3581 24.179 29.3502 23.8511 29.3502C23.4038 29.3502 22.9714 29.4057 22.5653 29.5155C22.158 29.6251 21.7917 29.7946 21.4768 30.0195C21.1593 30.2469 20.9054 30.5366 20.7201 30.8805C20.535 31.2244 20.441 31.6291 20.441 32.0814C20.441 32.5444 20.5204 32.9452 20.6804 33.2732C20.8393 33.6026 21.0681 33.8779 21.3604 34.0894C21.65 34.3011 22.0084 34.456 22.4226 34.5498C22.8325 34.6437 23.2969 34.6913 23.8047 34.6913C24.3403 34.6913 24.8722 34.6463 25.3893 34.5591C25.9013 34.4717 26.5282 34.3447 26.7028 34.3038C26.8761 34.264 27.0679 34.2111 27.0679 34.2111C27.1974 34.178 27.187 34.0406 27.187 34.0406L27.1843 29.2707C27.1843 28.2232 26.9052 27.448 26.3562 26.9666C25.8086 26.4877 25.0017 26.2457 23.9595 26.2457C23.5679 26.2457 22.9396 26.2985 22.5614 26.374C22.5614 26.374 21.4225 26.5948 20.9542 26.9626C20.9542 26.9626 20.8511 27.0261 20.9066 27.1702L21.2758 28.1622C21.322 28.2906 21.4478 28.247 21.4478 28.247C21.4478 28.247 21.4873 28.2311 21.5337 28.2034C22.5362 27.6583 23.8062 27.6742 23.8062 27.6742C24.3697 27.6742 24.8034 27.7893 25.0958 28.0115C25.3802 28.2311 25.5243 28.559 25.5243 29.2549V29.4758C25.0772 29.411 24.6646 29.3738 24.6646 29.3738ZM66.7393 26.6859C66.7788 26.5682 66.6954 26.5113 66.6611 26.4982C66.5725 26.4651 66.1282 26.371 65.7869 26.3486C65.1307 26.3088 64.767 26.4186 64.4417 26.5656C64.1175 26.7111 63.7591 26.9478 63.5607 27.2162L63.5594 26.5801C63.5594 26.4927 63.4973 26.4227 63.4099 26.4227H62.0725C61.9853 26.4227 61.9232 26.4927 61.9232 26.5801V34.3617C61.9232 34.4491 61.9932 34.5191 62.0818 34.5191H63.4523C63.5395 34.5191 63.6096 34.4491 63.6096 34.3617V30.4742C63.6096 29.9517 63.6678 29.432 63.7828 29.1052C63.8953 28.7811 64.0486 28.5231 64.2391 28.338C64.4297 28.1527 64.6467 28.0232 64.8846 27.9505C65.1268 27.8762 65.3952 27.8512 65.5831 27.8512C65.8568 27.8512 66.1558 27.9227 66.1558 27.9227C66.2577 27.9332 66.3131 27.871 66.3477 27.781C66.4363 27.543 66.6916 26.8275 66.7393 26.6859ZM53.875 23.0797C53.7083 23.028 53.5574 22.9937 53.359 22.958C53.158 22.9209 52.9199 22.9025 52.65 22.9025C51.7071 22.9025 50.9635 23.1697 50.4412 23.6961C49.9227 24.2186 49.5694 25.0149 49.3922 26.0612L49.3287 26.4144H48.1449C48.1449 26.4144 47.9995 26.4089 47.9702 26.5663L47.7758 27.651C47.7612 27.7543 47.8063 27.8189 47.9452 27.8189H49.0986L47.928 34.3481C47.8367 34.8731 47.7322 35.3057 47.6157 35.6339C47.5021 35.9578 47.3895 36.1998 47.2521 36.3758C47.1185 36.5451 46.9927 36.6721 46.7745 36.7449C46.5947 36.8045 46.387 36.8321 46.1608 36.8321C46.0352 36.8321 45.8671 36.8109 45.7428 36.7859C45.6185 36.7621 45.5537 36.7342 45.4611 36.6959C45.4611 36.6959 45.3261 36.6442 45.2719 36.7792C45.2295 36.8904 44.9228 37.7355 44.8856 37.84C44.8487 37.9432 44.9001 38.0239 44.9663 38.0477C45.1197 38.102 45.2335 38.1377 45.4424 38.1866C45.7334 38.2554 45.9782 38.2595 46.2069 38.2595C46.6871 38.2595 47.1251 38.192 47.4874 38.061C47.8525 37.9286 48.17 37.6986 48.4518 37.389C48.7547 37.0531 48.9465 36.7011 49.1289 36.2212C49.3102 35.7463 49.4637 35.1563 49.588 34.4684L50.7625 27.8189H52.4807C52.4807 27.8189 52.6262 27.8244 52.6555 27.6669L52.8499 26.5823C52.863 26.4792 52.8194 26.4144 52.6805 26.4144H51.0126C51.0204 26.3772 51.096 25.7899 51.2877 25.2383C51.3697 25.0016 51.5232 24.8124 51.6539 24.6816C51.7811 24.5533 51.9293 24.4621 52.0906 24.409C52.2559 24.3561 52.4438 24.3297 52.65 24.3297C52.8075 24.3297 52.9609 24.3483 53.0787 24.3721C53.24 24.4064 53.3036 24.4249 53.3459 24.4368C53.5151 24.4897 53.5377 24.4395 53.572 24.3575L53.9702 23.2622C54.0112 23.1445 53.9121 23.0942 53.875 23.0797ZM30.5701 34.3617V23.2283C30.5701 23.1409 30.508 23.0709 30.4208 23.0709H29.037C28.9498 23.0709 28.8876 23.1409 28.8876 23.2283V34.3617C28.8876 34.4491 28.9498 34.5205 29.037 34.5205H30.4208C30.508 34.5205 30.5701 34.4491 30.5701 34.3617Z" fill="white"/>
</svg>
