<svg width="116" height="34" viewBox="0 0 116 34" fill="none" xmlns="http://www.w3.org/2000/svg">
<path fill-rule="evenodd" clip-rule="evenodd" d="M25.2903 6.29953C25.174 6.28975 22.7133 6.10741 22.7133 6.10741C22.7133 6.10741 21.0044 4.4108 20.8169 4.22332C20.7467 4.15311 20.652 4.11736 20.553 4.10193L19.1725 32.34L29.0646 30.2C29.0646 30.2 25.5917 6.72053 25.5698 6.55928C25.5477 6.39828 25.4068 6.3093 25.2903 6.29953Z" fill="white"/>
<path fill-rule="evenodd" clip-rule="evenodd" d="M14.4118 1.6122C14.24 1.4939 14.0605 1.43346 13.8823 1.43346C10.9168 1.43346 9.25075 5.32716 8.54916 7.71584C9.19728 7.51504 9.88872 7.30095 10.5989 7.08107L11.0713 6.93479C11.6703 3.80311 13.0886 2.23484 14.4118 1.6122ZM15.528 5.37602C15.528 4.14388 15.3629 3.23089 15.109 2.59463C14.1022 3.02669 12.9505 4.17191 12.3361 6.5431L15.527 5.55502L15.527 5.55264C15.5275 5.49507 15.528 5.43818 15.528 5.37602ZM16.6099 5.21992L18.1548 4.74182C17.7634 3.54594 17.1552 2.50693 16.2417 2.39223C16.4693 3.04392 16.6107 3.86587 16.6107 4.88687C16.6107 5.00389 16.6105 5.11113 16.6099 5.21992ZM25.2903 6.29956C25.4068 6.30933 25.5477 6.39831 25.5698 6.55931C25.5917 6.7203 29.0646 30.2 29.0646 30.2L19.1714 32.3403L0.912994 28.9193C0.912994 28.9193 3.25616 10.7984 3.34488 10.1596C3.46241 9.31576 3.49045 9.28747 4.3862 9.00663C4.53177 8.96085 5.67158 8.60748 7.27587 8.11035C7.89439 5.48738 9.86695 0.32605 13.9957 0.32605C14.535 0.32605 15.1594 0.615634 15.6633 1.28224C15.7139 1.27941 15.7643 1.27736 15.8132 1.27736C17.5857 1.27736 18.593 2.787 19.164 4.4296C19.747 4.24932 20.0993 4.14053 20.1204 4.13436C20.2627 4.09244 20.6291 4.03561 20.8169 4.22309C21.0044 4.41083 22.7133 6.10744 22.7133 6.10744C22.7133 6.10744 25.174 6.28978 25.2903 6.29956ZM14.5934 15.3944L15.8132 11.7659C15.8132 11.7659 14.9887 11.2878 13.3196 11.2878C8.98765 11.2878 6.84201 14.181 6.84201 17.1708C6.84201 19.1662 7.96045 20.0711 8.94075 20.8643C9.70551 21.4831 10.3862 22.0338 10.3862 22.9812C10.3862 23.5038 10.0164 24.219 9.10827 24.219C7.71796 24.219 6.07047 22.8045 6.07047 22.8045L5.23129 25.5772C5.23129 25.5772 6.83378 27.5279 9.96828 27.5279C12.5802 27.5279 14.517 25.5612 14.517 22.5072C14.517 20.1594 12.9368 18.9993 11.6879 18.0824C10.8718 17.4833 10.1972 16.9881 10.1972 16.3331C10.1972 16.0294 10.2939 14.824 12.2145 14.824C13.5246 14.824 14.5934 15.3944 14.5934 15.3944Z" fill="white"/>
<path fill-rule="evenodd" clip-rule="evenodd" d="M40.5973 18.5683C39.6105 18.0328 39.1034 17.5818 39.1034 16.9614C39.1034 16.1722 39.808 15.6647 40.9075 15.6647C42.188 15.6647 43.3316 16.2004 43.3316 16.2004L44.2338 13.4378C44.2338 13.4378 43.4044 12.7895 40.9638 12.7895C37.5667 12.7895 35.213 14.7345 35.213 17.4691C35.213 19.0194 36.3125 20.2034 37.7784 21.049C38.9624 21.7254 39.3852 22.2048 39.3852 22.9097C39.3852 23.6427 38.7932 24.2345 37.6938 24.2345C36.0558 24.2345 34.5083 23.3889 34.5083 23.3889L33.5498 26.1515C33.5498 26.1515 34.979 27.1097 37.3836 27.1097C40.8794 27.1097 43.3882 25.3902 43.3882 22.2894C43.3882 20.6262 42.1196 19.4422 40.5973 18.5683ZM54.5231 12.7612C52.8036 12.7612 51.4505 13.5788 50.4074 14.8191L50.3511 14.7908L51.8451 6.98236H47.955L44.1775 26.8562H48.0676L49.3646 20.0625C49.872 17.4971 51.1967 15.9186 52.4371 15.9186C53.311 15.9186 53.6494 16.5103 53.6494 17.3562C53.6494 17.8917 53.5929 18.54 53.4802 19.0757L52.0143 26.8562H55.9046L57.4266 18.8221C57.5958 17.9763 57.7088 16.9614 57.7088 16.2851C57.7088 14.0862 56.5527 12.7612 54.5231 12.7612ZM64.5873 24.1499C63.2623 24.1499 62.6985 23.0224 62.6985 21.613C62.6985 19.3859 63.8543 15.7493 65.9686 15.7493C67.3496 15.7493 67.8007 16.9334 67.8007 18.0892C67.8007 20.4853 66.645 24.1499 64.5873 24.1499ZM66.504 12.7612C61.8246 12.7612 58.7238 16.9897 58.7238 21.6974C58.7238 24.7139 60.5843 27.138 64.0799 27.138C68.6746 27.138 71.7754 23.0224 71.7754 18.2018C71.7754 15.4112 70.1405 12.7612 66.504 12.7612ZM78.0059 24.2062C76.9957 24.2062 76.399 23.6427 76.399 23.6427L77.0474 20.0059C77.4984 17.5818 78.7669 15.9749 80.1201 15.9749C81.3039 15.9749 81.6704 17.0743 81.6704 18.1172C81.6704 20.6262 80.1765 24.2062 78.0059 24.2062ZM81.727 12.7612C79.1012 12.7612 77.6111 15.0727 77.6111 15.0727H77.5548L77.7803 12.9867H74.3413C74.1721 14.3963 73.8619 16.5386 73.5518 18.1455L70.8455 32.3814H74.7358L75.807 26.6306H75.8916C75.8916 26.6306 76.6901 27.138 78.1751 27.138C82.7418 27.138 85.7297 22.4586 85.7297 17.7227C85.7297 15.101 84.574 12.7612 81.727 12.7612ZM91.2835 7.17962C90.0434 7.17962 89.0566 8.16616 89.0566 9.43482C89.0566 10.5906 89.7896 11.3801 90.889 11.3801H90.9453C92.1574 11.3801 93.2005 10.5623 93.2288 9.12492C93.2288 7.99719 92.4676 7.17962 91.2835 7.17962Z" fill="white"/>
<path fill-rule="evenodd" clip-rule="evenodd" d="M85.843 26.856H89.733L92.383 13.071H88.465L85.843 26.856Z" fill="white"/>
<path fill-rule="evenodd" clip-rule="evenodd" d="M102.277 13.0431H99.5711L99.7121 12.3947C99.9376 11.07 100.727 9.88592 102.024 9.88592C102.716 9.88592 103.264 10.0832 103.264 10.0832L104.025 7.03869C104.025 7.03869 103.349 6.7005 101.911 6.7005C100.53 6.7005 99.1483 7.09527 98.1052 7.9972C96.7802 9.12493 96.1601 10.7598 95.85 12.3947L95.7374 13.0431H93.9332L93.3695 15.9749H95.1736L93.1157 26.8562H97.0058L99.0637 15.9749H101.742L102.277 13.0431ZM111.636 13.0713C111.636 13.0713 109.205 19.1986 108.113 22.5433H108.056C107.982 21.4665 107.098 13.0713 107.098 13.0713H103.01L105.35 25.7287C105.407 26.0103 105.378 26.1795 105.266 26.377C104.814 27.2509 104.053 28.0965 103.151 28.7166C102.419 29.2523 101.601 29.5905 100.953 29.816L102.024 33.1144C102.813 32.9451 104.448 32.2968 105.829 31.0001C107.605 29.3369 109.24 26.7716 110.932 23.276L115.696 13.0713H111.636Z" fill="white"/>
</svg>
