<svg width="101" height="26" viewBox="0 0 101 26" fill="none" xmlns="http://www.w3.org/2000/svg">
<path fill-rule="evenodd" clip-rule="evenodd" d="M32.5 20.26L33.75 17.26C35.1814 18.3102 36.9147 18.868 38.69 18.85C40.01 18.85 40.84 18.33 40.84 17.54C40.81 15.34 32.96 17.06 32.9 11.54C32.88 8.72998 35.31 6.56998 38.75 6.56998C40.79 6.56998 42.84 7.08998 44.3 8.26998L43.12 11.32C41.7679 10.4004 40.184 9.88058 38.55 9.81997C37.48 9.81997 36.77 10.35 36.77 11.02C36.79 13.17 44.7 11.99 44.78 17.27C44.78 20.13 42.41 22.15 39.01 22.15C36.52 22.15 34.24 21.55 32.5 20.25V20.26ZM80.64 16.19C80.3297 16.7582 79.873 17.2331 79.3174 17.5654C78.7618 17.8977 78.1274 18.0754 77.48 18.08C75.48 18.08 73.86 16.41 73.86 14.36C73.8534 13.878 73.9418 13.3995 74.1201 12.9517C74.2985 12.5039 74.5633 12.0956 74.8995 11.7502C75.2356 11.4047 75.6365 11.1289 76.0793 10.9384C76.5221 10.7479 76.998 10.6465 77.48 10.64C78.84 10.64 80.01 11.41 80.64 12.53L84.1 10.56C83.4573 9.36035 82.5034 8.35589 81.3386 7.65207C80.1738 6.94824 78.8409 6.57101 77.48 6.55998C75.4413 6.59158 73.4983 7.43051 72.0773 8.89276C70.6563 10.355 69.8733 12.3212 69.9 14.36C69.9 18.66 73.3 22.15 77.48 22.15C80.34 22.15 82.81 20.55 84.1 18.16L80.64 16.19V16.19ZM46.53 0.0999756H50.86V21.85H46.53V0.0999756ZM85.8 0.0999756V21.86H90.13V15.33L95.27 21.86H100.82L94.28 14.11L100.33 6.87998H95.03L90.13 12.88V0.0999756H85.8Z" fill="white"/>
<path d="M63.72 16.2299C63.36 16.7999 62.8608 17.2688 62.2695 17.5925C61.6781 17.9162 61.0141 18.0839 60.34 18.0799C58.34 18.0799 56.72 16.4099 56.72 14.3599C56.7134 13.878 56.8018 13.3994 56.9801 12.9516C57.1585 12.5038 57.4233 12.0956 57.7595 11.7501C58.0956 11.4047 58.4965 11.1288 58.9393 10.9384C59.3821 10.7479 59.858 10.6465 60.34 10.6399C61.8 10.6399 63.1 11.4699 63.72 12.5499V16.2299ZM63.72 6.87995V8.63995C63.02 7.41995 61.25 6.56995 59.42 6.56995C55.61 6.56995 52.62 10.0199 52.62 14.3399C52.62 18.6599 55.61 22.1499 59.42 22.1499C61.25 22.1499 63.02 21.2999 63.72 20.0699V21.8399H68.05V6.87995H63.72V6.87995Z" fill="white"/>
<path fill-rule="evenodd" clip-rule="evenodd" d="M5.57999 16.4C5.57999 16.934 5.42164 17.456 5.12496 17.9C4.82828 18.3441 4.4066 18.6901 3.91324 18.8945C3.41988 19.0988 2.877 19.1523 2.35325 19.0481C1.8295 18.9439 1.34841 18.6868 0.970806 18.3092C0.593204 17.9316 0.336054 17.4505 0.231874 16.9267C0.127694 16.403 0.181163 15.8601 0.385519 15.3668C0.589876 14.8734 0.935942 14.4517 1.37995 14.155C1.82397 13.8584 2.34598 13.7 2.87999 13.7H5.57999V16.4ZM6.92999 16.4C6.92999 15.6813 7.21551 14.992 7.72373 14.4837C8.23196 13.9755 8.92126 13.69 9.63999 13.69C10.3587 13.69 11.048 13.9755 11.5563 14.4837C12.0645 14.992 12.35 15.6813 12.35 16.4V23.17C12.35 23.8887 12.0645 24.578 11.5563 25.0863C11.048 25.5945 10.3587 25.88 9.63999 25.88C8.92126 25.88 8.23196 25.5945 7.72373 25.0863C7.21551 24.578 6.92999 23.8887 6.92999 23.17V16.41V16.4Z" fill="white"/>
<path fill-rule="evenodd" clip-rule="evenodd" d="M9.63999 5.53995C9.10641 5.53995 8.58479 5.38185 8.141 5.08561C7.6972 4.78937 7.35114 4.36827 7.14649 3.8755C6.94184 3.38272 6.88779 2.84035 6.99117 2.31688C7.09454 1.7934 7.3507 1.3123 7.7273 0.934299C8.1039 0.556302 8.58406 0.298366 9.10715 0.19306C9.63024 0.0877529 10.1728 0.139797 10.6663 0.342621C11.1599 0.545445 11.5822 0.889954 11.8801 1.33265C12.178 1.77534 12.338 2.29638 12.34 2.82995V5.52995H9.63999V5.53995ZM9.63999 6.90995C9.99522 6.90995 10.347 6.97992 10.6752 7.11586C11.0033 7.2518 11.3015 7.45105 11.5527 7.70223C11.8039 7.95341 12.0031 8.25161 12.1391 8.5798C12.275 8.90798 12.345 9.25973 12.345 9.61495C12.345 9.97018 12.275 10.3219 12.1391 10.6501C12.0031 10.9783 11.8039 11.2765 11.5527 11.5277C11.3015 11.7789 11.0033 11.9781 10.6752 12.114C10.347 12.25 9.99522 12.32 9.63999 12.32H2.84999C2.49542 12.32 2.14433 12.2501 1.81675 12.1144C1.48917 11.9787 1.19152 11.7799 0.940806 11.5291C0.690087 11.2784 0.491207 10.9808 0.355519 10.6532C0.219831 10.3256 0.149994 9.97452 0.149994 9.61996C0.149994 9.26539 0.219831 8.91429 0.355519 8.58671C0.491207 8.25913 0.690087 7.96148 0.940806 7.71077C1.19152 7.46005 1.48917 7.26117 1.81675 7.12548C2.14433 6.98979 2.49542 6.91995 2.84999 6.91995H9.63999V6.90995Z" fill="white"/>
<path fill-rule="evenodd" clip-rule="evenodd" d="M20.49 9.62C20.49 9.08599 20.6484 8.56397 20.945 8.11996C21.2417 7.67595 21.6634 7.32988 22.1568 7.12553C22.6501 6.92117 23.193 6.8677 23.7167 6.97188C24.2405 7.07606 24.7216 7.33321 25.0992 7.71081C25.4768 8.08841 25.7339 8.56951 25.8381 9.09326C25.9423 9.617 25.8888 10.1599 25.6845 10.6532C25.4801 11.1466 25.1341 11.5683 24.69 11.865C24.246 12.1616 23.724 12.32 23.19 12.32H20.49V9.62V9.62ZM19.13 9.62C19.13 10.3374 18.845 11.0254 18.3377 11.5327C17.8304 12.04 17.1424 12.325 16.425 12.325C15.7076 12.325 15.0196 12.04 14.5123 11.5327C14.005 11.0254 13.72 10.3374 13.72 9.62V2.83C13.72 2.11259 14.005 1.42456 14.5123 0.917276C15.0196 0.40999 15.7076 0.125 16.425 0.125C17.1424 0.125 17.8304 0.40999 18.3377 0.917276C18.845 1.42456 19.13 2.11259 19.13 2.83V9.62V9.62Z" fill="white"/>
<path fill-rule="evenodd" clip-rule="evenodd" d="M16.43 20.47C16.9636 20.4719 17.4846 20.632 17.9273 20.9298C18.37 21.2277 18.7145 21.6501 18.9173 22.1436C19.1202 22.6371 19.1722 23.1797 19.0669 23.7028C18.9616 24.2259 18.7037 24.706 18.3257 25.0826C17.9477 25.4592 17.4666 25.7154 16.9431 25.8188C16.4196 25.9222 15.8772 25.8681 15.3845 25.6635C14.8917 25.4588 14.4706 25.1127 14.1743 24.6689C13.8781 24.2252 13.72 23.7035 13.72 23.17V20.47H16.42H16.43ZM16.43 19.11C15.7126 19.11 15.0246 18.825 14.5173 18.3177C14.01 17.8104 13.725 17.1224 13.725 16.405C13.725 15.6875 14.01 14.9995 14.5173 14.4922C15.0246 13.9849 15.7126 13.7 16.43 13.7H23.21C23.9274 13.7 24.6154 13.9849 25.1227 14.4922C25.63 14.9995 25.915 15.6875 25.915 16.405C25.915 17.1224 25.63 17.8104 25.1227 18.3177C24.6154 18.825 23.9274 19.11 23.21 19.11H16.43Z" fill="white"/>
</svg>
