<svg width="125" height="40" viewBox="0 0 125 40" fill="none" xmlns="http://www.w3.org/2000/svg">
<g clip-path="url(#clip0)">
<mask id="mask0" mask-type="alpha" maskUnits="userSpaceOnUse" x="-1" y="0" width="40" height="40">
<path d="M-0.0179443 0.731995H38.7571V39.507H-0.0179443V0.731995Z" fill="white"/>
</mask>
<g mask="url(#mask0)">
<path fill-rule="evenodd" clip-rule="evenodd" d="M30.8379 17.9193C24.5885 14.208 14.2802 13.8667 8.31438 15.6774C7.35616 15.9679 6.34306 15.4271 6.05298 14.4693C5.76243 13.5106 6.30278 12.4982 7.2617 12.207C14.11 10.1283 25.4944 10.5297 32.6888 14.8004C33.5507 15.3118 33.8332 16.4249 33.3225 17.2852C32.8113 18.1467 31.6975 18.4309 30.8379 17.9193ZM30.6332 23.4163C30.195 24.1278 29.2648 24.3507 28.554 23.9141C23.3441 20.7116 15.3991 19.7837 9.2351 21.6547C8.43593 21.8964 7.5916 21.4455 7.34898 20.6477C7.10798 19.8485 7.55873 19.0056 8.35675 18.7627C15.3984 16.6259 24.1518 17.6607 30.136 21.3383C30.8465 21.7758 31.0701 22.7065 30.6332 23.4163ZM28.2609 28.6955C27.9125 29.2668 27.1687 29.4458 26.5994 29.0976C22.0467 26.3151 16.3163 25.6867 9.56779 27.2282C8.91747 27.3775 8.26947 26.9698 8.12107 26.3195C7.97198 25.6694 8.37805 25.0212 9.02975 24.8728C16.415 23.1843 22.7498 23.9111 27.8602 27.0337C28.4299 27.3816 28.6094 28.126 28.2609 28.6955ZM19.3695 0.731903C8.66234 0.731903 -0.0179443 9.41196 -0.0179443 20.1191C-0.0179443 30.8275 8.66234 39.5068 19.3695 39.5068C30.0771 39.5068 38.7572 30.8275 38.7572 20.1191C38.7572 9.41196 30.0771 0.731903 19.3695 0.731903Z" fill="white"/>
</g>
<path fill-rule="evenodd" clip-rule="evenodd" d="M52.7288 18.6296C49.3816 17.8314 48.7852 17.2711 48.7852 16.0941C48.7852 14.9817 49.8326 14.2335 51.3897 14.2335C52.8992 14.2335 54.3957 14.8018 55.9651 15.9719C56.0126 16.0073 56.0721 16.0214 56.1306 16.0122C56.1892 16.0034 56.2408 15.9714 56.2753 15.9228L57.9098 13.6186C57.9769 13.5239 57.9586 13.3931 57.8681 13.3206C56.0005 11.822 53.8975 11.0935 51.4393 11.0935C47.8249 11.0935 45.3003 13.2623 45.3003 16.3659C45.3003 19.6939 47.4781 20.8723 51.2416 21.7817C54.4448 22.5197 54.9854 23.1378 54.9854 24.2429C54.9854 25.4673 53.8922 26.2285 52.1329 26.2285C50.1792 26.2285 48.5854 25.5701 46.8023 24.0266C46.7581 23.9882 46.6977 23.9706 46.6417 23.9741C46.5826 23.9789 46.5287 24.0062 46.4912 24.0514L44.6585 26.2325C44.5817 26.3227 44.5914 26.458 44.6801 26.5364C46.7547 28.3883 49.3057 29.3667 52.0588 29.3667C55.9538 29.3667 58.4703 27.2384 58.4703 23.9447C58.4703 21.161 56.8071 19.6214 52.7288 18.6296ZM70.1091 22.3605C70.1091 24.7108 68.6612 26.3511 66.5881 26.3511C64.5385 26.3511 62.9924 24.6363 62.9924 22.3605C62.9924 20.0847 64.5385 18.3697 66.5881 18.3697C68.6279 18.3697 70.1091 20.0477 70.1091 22.3605ZM67.2819 15.3283C65.5937 15.3283 64.209 15.993 63.0672 17.3557V15.8222C63.0672 15.7011 62.9691 15.6025 62.848 15.6025H59.8508C59.7298 15.6025 59.6318 15.7011 59.6318 15.8222V32.8616C59.6318 32.9829 59.7298 33.0816 59.8508 33.0816H62.848C62.9691 33.0816 63.0672 32.9829 63.0672 32.8616V27.4832C64.2093 28.7648 65.5942 29.3908 67.2819 29.3908C70.4186 29.3908 73.594 26.9761 73.594 22.3605C73.594 17.7437 70.4186 15.3283 67.2819 15.3283ZM81.7335 26.3758C79.5849 26.3758 77.965 24.6492 77.965 22.3604C77.965 20.062 79.5288 18.3935 81.684 18.3935C83.8465 18.3935 85.4775 20.1201 85.4775 22.4104C85.4775 24.7089 83.9028 26.3758 81.7335 26.3758ZM81.7335 15.3283C77.6939 15.3283 74.5291 18.4389 74.5291 22.4104C74.5291 26.3392 77.6721 29.4171 81.684 29.4171C85.738 29.4171 88.9124 26.3167 88.9124 22.3604C88.9124 18.4171 85.7597 15.3283 81.7335 15.3283ZM97.5389 15.6024H94.2408V12.2302C94.2408 12.1091 94.1429 12.0105 94.022 12.0105H91.0249C90.9038 12.0105 90.8052 12.1091 90.8052 12.2302V15.6024H89.3638C89.2432 15.6024 89.1455 15.7012 89.1455 15.8221V18.3979C89.1455 18.5189 89.2432 18.6176 89.3638 18.6176H90.8052V25.283C90.8052 27.9766 92.1456 29.3426 94.7899 29.3426C95.8651 29.3426 96.7569 29.1208 97.5977 28.6439C97.666 28.6057 97.7084 28.5323 97.7084 28.4538V26.0007C97.7084 25.925 97.669 25.8535 97.6044 25.8139C97.5389 25.7731 97.4576 25.7708 97.3907 25.8039C96.8133 26.0945 96.2552 26.2285 95.6315 26.2285C94.6698 26.2285 94.2408 25.7921 94.2408 24.8135V18.6176H97.5389C97.66 18.6176 97.7577 18.5189 97.7577 18.3979V15.8221C97.7577 15.7012 97.66 15.6024 97.5389 15.6024ZM109.031 15.6155V15.2013C109.031 13.9828 109.498 13.4395 110.546 13.4395C111.17 13.4395 111.672 13.5638 112.234 13.7511C112.304 13.7729 112.376 13.762 112.432 13.7205C112.49 13.6793 112.523 13.6129 112.523 13.5425V11.0167C112.523 10.9202 112.46 10.8345 112.368 10.8063C111.774 10.6296 111.014 10.4484 109.876 10.4484C107.108 10.4484 105.645 12.0074 105.645 14.955V15.5895H104.205C104.084 15.5895 103.985 15.6877 103.985 15.809V18.398C103.985 18.5188 104.084 18.6177 104.205 18.6177H105.645V28.8989C105.645 29.02 105.742 29.1184 105.863 29.1184H108.861C108.982 29.1184 109.08 29.02 109.08 28.8989V18.6177H111.879L116.166 28.8961C115.679 29.9761 115.2 30.191 114.547 30.191C114.019 30.191 113.463 30.0333 112.894 29.7224C112.841 29.693 112.778 29.6879 112.72 29.7057C112.663 29.7261 112.614 29.7687 112.59 29.8242L111.574 32.053C111.526 32.1583 111.567 32.282 111.669 32.3366C112.729 32.911 113.686 33.1562 114.87 33.1562C117.083 33.1562 118.306 32.1252 119.385 29.3517L124.585 15.9148C124.611 15.8472 124.603 15.7708 124.562 15.7108C124.52 15.6513 124.454 15.6155 124.381 15.6155H121.261C121.168 15.6155 121.084 15.675 121.053 15.7627L117.857 24.8928L114.356 15.7565C114.323 15.6715 114.242 15.6155 114.151 15.6155H109.031ZM102.369 15.6024H99.3714C99.2501 15.6024 99.1515 15.7012 99.1515 15.8221V28.899C99.1515 29.0201 99.2501 29.1185 99.3714 29.1185H102.369C102.489 29.1185 102.588 29.0201 102.588 28.899V15.8221C102.588 15.7012 102.489 15.6024 102.369 15.6024ZM100.885 9.64816C99.6978 9.64816 98.7342 10.6094 98.7342 11.7968C98.7342 12.9849 99.6978 13.9473 100.885 13.9473C102.072 13.9473 103.035 12.9849 103.035 11.7968C103.035 10.6094 102.072 9.64816 100.885 9.64816Z" fill="white"/>
</g>
<defs>
<clipPath id="clip0">
<rect width="125" height="40" fill="white"/>
</clipPath>
</defs>
</svg>
