<svg width="85" height="30" viewBox="0 0 85 30" fill="none" xmlns="http://www.w3.org/2000/svg">
<mask id="mask0" mask-type="alpha" maskUnits="userSpaceOnUse" x="0" y="0" width="23" height="30">
<path d="M0.0959473 0.548004H22.8919V29.847H0.0959473V0.548004Z" fill="white"/>
</mask>
<g mask="url(#mask0)">
<path fill-rule="evenodd" clip-rule="evenodd" d="M22.8845 29.3107C22.8052 29.3235 22.7635 29.3363 22.7218 29.3363C21.3938 29.337 20.0662 29.336 18.7385 29.3341C18.7087 29.3341 18.6792 29.3181 18.6307 29.3043C18.5925 28.8875 18.6185 28.4688 18.6137 28.051C18.6089 27.6307 18.6128 27.2101 18.6128 26.8001C18.539 26.7465 18.5008 26.7895 18.4616 26.8251C18.2467 27.0218 18.0391 27.2271 17.8161 27.4142C16.4037 28.5987 14.7867 29.3482 12.9713 29.663C10.7691 30.0445 8.62005 29.8401 6.55895 28.9732C3.75926 27.796 1.86916 25.7345 0.820321 22.8954C0.451991 21.8982 0.231892 20.8651 0.155531 19.8044C0.121522 19.3311 0.0987415 18.856 0.0984207 18.3818C0.0948914 12.5956 0.0961748 6.80953 0.0961748 1.02342V0.610815C0.217454 0.519696 0.340337 0.554347 0.453916 0.554026C1.65195 0.551138 2.8503 0.552101 4.04866 0.552101H4.38266C4.39838 0.630708 4.41731 0.690706 4.42052 0.751345C4.42629 0.859149 4.42244 0.967274 4.42244 1.0754C4.42276 6.78579 4.42373 12.4962 4.42148 18.2069C4.42116 18.9323 4.47602 19.6513 4.63195 20.3607C4.81612 21.2001 5.11322 21.9957 5.56337 22.7289C6.44665 24.1679 7.69024 25.1519 9.30794 25.645C10.7283 26.0785 12.1612 26.0945 13.5819 25.6627C15.4694 25.0893 16.8356 23.8849 17.7186 22.1289C18.1546 21.262 18.4109 20.3395 18.5014 19.3738C18.538 18.9878 18.5598 18.5986 18.5598 18.2111C18.5637 12.4792 18.5624 6.74697 18.5627 1.01476C18.5627 0.876154 18.5666 0.737549 18.5688 0.582902C18.6352 0.571031 18.6856 0.554347 18.7356 0.554347C20.0636 0.552743 21.3913 0.553063 22.7189 0.553705C22.761 0.554026 22.803 0.564614 22.8601 0.572635C22.8704 0.635841 22.8854 0.696802 22.8893 0.758404C22.8941 0.84439 22.8909 0.931018 22.8909 1.01733C22.8909 10.301 22.8909 19.5849 22.8906 28.8686C22.8906 29.0075 22.8867 29.1461 22.8845 29.3107Z" fill="white"/>
</g>
<path fill-rule="evenodd" clip-rule="evenodd" d="M37.3917 26.1696C38.4707 26.1779 39.4795 25.9344 40.3714 25.5241C43.3351 24.1614 45.0888 20.9225 44.484 17.5658C43.8738 14.1755 40.9358 11.6543 37.5108 11.6203C36.2197 11.6074 35.0088 11.902 33.8817 12.5305C31.1548 14.0513 29.6876 17.1497 30.3062 20.3155C30.9899 23.8146 34.0184 26.1837 37.3917 26.1696ZM30.2311 26.7494C30.2029 27.0275 30.2164 27.2303 30.2141 27.4318C30.2116 27.6474 30.2135 27.8633 30.2135 28.0793C30.2135 28.2846 30.2167 28.4893 30.2128 28.6946C30.2087 28.8968 30.2308 29.1008 30.1946 29.3132C30.1278 29.3229 30.0768 29.3347 30.0252 29.337C29.3815 29.363 26.3884 29.3447 26.125 29.3119C26.1141 29.2574 26.0958 29.1977 26.0913 29.1371C26.0852 29.0508 26.0894 28.9645 26.0894 28.8778C26.0894 19.5849 26.0893 10.2916 26.0903 0.998376C26.0903 0.860734 26.0688 0.719883 26.1198 0.57807C26.167 0.569086 26.2081 0.554648 26.2488 0.554648C27.5646 0.553365 28.8804 0.553686 30.2119 0.553686C30.227 0.629084 30.2459 0.68844 30.2491 0.748438C30.2549 0.856242 30.2517 0.964046 30.2517 1.07217C30.2517 4.23474 30.2513 7.3973 30.2526 10.5595C30.2526 10.6834 30.2321 10.8117 30.2931 10.967C30.3941 10.8775 30.4737 10.8104 30.5497 10.7392C31.8443 9.52867 33.3459 8.69223 35.0621 8.24497C36.136 7.96519 37.2265 7.87022 38.3344 7.93054C39.9652 8.0191 41.5114 8.42464 42.9411 9.21135C45.9326 10.8573 47.8054 13.3573 48.4984 16.704C49.2322 20.2468 48.1792 23.9349 45.6076 26.5472C43.9771 28.2037 42.01 29.2349 39.723 29.6565C38.8699 29.8137 38.0094 29.8795 37.145 29.8266C34.6315 29.6732 32.4312 28.7643 30.5664 27.0619C30.4718 26.9759 30.379 26.887 30.2311 26.7494ZM67.4051 16.887C67.3929 16.8027 67.3885 16.7295 67.3711 16.6596C67.2511 16.1876 67.0878 15.7314 66.877 15.2928C65.5975 12.632 62.9249 11.2857 60.2606 11.6265C59.2233 11.7587 58.2723 12.1106 57.4182 12.7103C56.0168 13.695 55.1466 15.0473 54.7039 16.6884C54.6875 16.7478 54.6798 16.8097 54.6676 16.872C54.7145 16.8922 54.7427 16.9146 54.7712 16.9146C58.9365 16.9172 63.102 16.9182 67.2672 16.9178C67.3066 16.9178 67.3464 16.9005 67.4051 16.887ZM71.5947 20.2104H69.4448H67.34H65.2025H63.0972H60.9597H58.855H56.7172C56.0168 20.2104 55.3164 20.21 54.6047 20.2107C54.597 20.2748 54.581 20.3169 54.5887 20.3547C55.0228 22.4758 56.1332 24.1291 58.0066 25.239C59.0795 25.8745 60.2513 26.1678 61.4984 26.1707C62.8431 26.1736 64.1088 25.8784 65.2728 25.1905C66.0817 24.7121 66.7622 24.0878 67.3493 23.3578C67.4161 23.2744 67.485 23.1926 67.5659 23.0947C68.5669 23.8308 69.5519 24.5626 70.5472 25.2986C70.5151 25.3573 70.5 25.3968 70.4756 25.4289C68.7906 27.6055 66.6136 29.006 63.9115 29.5643C62.6765 29.8193 61.4278 29.8549 60.174 29.7228C58.6746 29.5646 57.2527 29.1456 55.9369 28.4095C53.1016 26.8246 51.3299 24.4362 50.6166 21.2666C50.4046 20.3243 50.3308 19.3675 50.3702 18.4037C50.5493 14.0556 53.1994 10.337 57.014 8.76166C58.039 8.33814 59.1039 8.08596 60.2099 7.99227C61.8378 7.85495 63.4244 8.04393 64.95 8.62626C67.6994 9.67542 69.6142 11.5963 70.7564 14.2953C71.1882 15.3152 71.4398 16.3833 71.5594 17.4848C71.6528 18.3466 71.6226 19.2096 71.6259 20.073C71.6259 20.1032 71.6124 20.134 71.5947 20.2104ZM78.0801 29.3376C76.7358 29.3376 75.4309 29.3379 74.126 29.337C74.0747 29.337 74.023 29.3254 73.9566 29.3177C73.9495 29.2536 73.9399 29.2022 73.938 29.1509C73.9014 28.0007 73.9245 8.69255 73.9643 8.38839C74.0217 8.37844 74.0833 8.35855 74.1449 8.35855C75.3754 8.35662 76.6055 8.35695 77.8356 8.35759C77.8882 8.35759 77.9405 8.36593 77.9787 8.36914C78.0756 8.46282 78.0461 8.56581 78.0467 8.65854C78.0493 9.29509 78.0467 9.93197 78.0496 10.5685C78.0503 10.6491 78.0172 10.7418 78.1115 10.823C78.176 10.736 78.2395 10.6523 78.3008 10.5672C78.9682 9.64 79.8236 8.95725 80.901 8.56293C81.5035 8.34251 82.1269 8.22027 82.7676 8.20711C83.3278 8.19524 83.889 8.20454 84.463 8.20454C84.4781 8.2623 84.5028 8.31171 84.5028 8.3608C84.5044 9.54792 84.504 10.735 84.5034 11.9218C84.5034 11.9536 84.4931 11.9854 84.4886 12.0136C84.4206 12.0983 84.3282 12.0723 84.2461 12.0726C83.7494 12.0755 83.2531 12.0762 82.7567 12.0736C82.1782 12.071 81.6174 12.1654 81.079 12.3752C80.1178 12.7499 79.3875 13.3968 78.8678 14.2833C78.4744 14.9538 78.2549 15.6828 78.1532 16.4499C78.1019 16.8359 78.0888 17.2235 78.0891 17.6127C78.091 21.3787 78.0904 25.1451 78.0897 28.9112C78.0897 29.0386 78.0843 29.1663 78.0801 29.3376Z" fill="white"/>
</svg>
